<?xml version="1.0" standalone="no"?>
<!DOCTYPE svg PUBLIC "-//W3C//DTD SVG 20010904//EN"
 "http://www.w3.org/TR/2001/REC-SVG-20010904/DTD/svg10.dtd">
<svg version="1.0" xmlns="http://www.w3.org/2000/svg"
 width="690.000000pt" height="345.000000pt" viewBox="0 0 690.000000 345.000000"
 preserveAspectRatio="xMidYMid meet">

<g transform="translate(0.000000,345.000000) scale(0.100000,-0.100000)"
fill="#000000" stroke="none">
<path d="M6585 2814 c-84 -31 -136 -109 -136 -205 -1 -141 92 -226 240 -217
58 3 78 9 112 33 111 78 122 252 22 347 -56 54 -157 72 -238 42z m166 -59
c116 -60 115 -236 -1 -295 -168 -86 -330 120 -204 260 53 58 133 72 205 35z"/>
<path d="M6590 2610 l0 -110 25 0 c22 0 25 4 25 35 0 29 4 35 21 35 13 0 25
-11 35 -35 11 -27 20 -35 39 -35 29 0 31 10 10 50 -10 19 -11 31 -4 35 17 11
29 55 23 81 -9 34 -53 54 -119 54 l-55 0 0 -110z m117 44 c7 -19 -21 -44 -49
-44 -13 0 -18 8 -18 30 0 27 3 30 30 30 19 0 33 -6 37 -16z"/>
<path d="M124 2643 c-14 -154 -16 -148 39 -151 39 -3 47 -6 47 -23 0 -22 -66
-659 -75 -726 l-6 -42 -52 -3 -52 -3 -12 -105 c-6 -58 -8 -108 -4 -113 4 -4
117 -6 252 -5 l244 3 11 105 c7 58 10 108 7 113 -2 4 -26 7 -54 7 -47 0 -49 1
-49 27 0 34 69 709 75 740 4 19 13 22 58 25 l52 3 11 105 c5 58 8 108 6 113
-2 4 -113 7 -247 7 l-243 0 -8 -77z"/>
<path d="M784 2623 c-5 -54 -9 -105 -9 -113 0 -9 13 -17 34 -20 l34 -5 -150
-127 -150 -126 -12 -102 c-17 -157 -17 -160 22 -160 27 0 76 37 339 260 292
247 310 260 348 260 50 0 55 10 65 138 l7 92 -260 0 -260 0 -8 -97z"/>
<path d="M1451 2615 c-7 -58 -9 -110 -6 -115 3 -6 26 -10 51 -10 39 0 44 -3
44 -22 0 -27 -68 -688 -76 -735 -5 -31 -7 -32 -57 -35 l-52 -3 -11 -105 c-7
-58 -10 -108 -7 -112 2 -5 111 -8 242 -8 l239 0 5 28 c3 15 9 67 13 115 l7 87
-47 0 c-44 0 -46 1 -46 28 0 15 23 240 50 501 28 260 50 477 50 482 0 5 -87 9
-194 9 l-193 0 -12 -105z"/>
<path d="M1912 2613 c-6 -59 -8 -111 -6 -115 3 -4 35 -8 72 -8 142 -1 230 -87
208 -204 -18 -93 -94 -144 -233 -154 l-88 -7 -12 -105 c-12 -115 -11 -119 42
-120 26 -1 39 -13 93 -86 83 -112 84 -114 34 -114 l-41 0 -6 -52 c-3 -29 -7
-80 -8 -113 l-2 -60 241 -3 242 -2 5 22 c3 13 9 65 13 116 l7 92 -40 0 c-40 0
-42 2 -114 98 -40 53 -83 112 -97 129 l-24 33 28 10 c148 55 234 158 254 302
38 265 -152 447 -466 448 l-91 0 -11 -107z"/>
<path d="M2705 2708 c-8 -26 -24 -201 -19 -209 3 -5 27 -9 54 -9 l49 0 -6 -48
c-3 -27 -22 -204 -42 -393 l-36 -344 -51 -3 c-59 -3 -56 3 -70 -154 l-7 -78
261 0 260 0 5 23 c3 12 9 64 13 115 l7 92 -67 0 c-36 0 -66 2 -66 5 0 3 23
218 50 479 28 261 50 488 50 505 l0 31 -190 0 c-144 0 -192 -3 -195 -12z"/>
<path d="M3167 2698 c-3 -13 -9 -65 -13 -115 l-7 -93 59 0 c79 0 127 -15 169
-51 91 -80 63 -230 -53 -281 -28 -13 -77 -22 -129 -26 -46 -2 -83 -5 -84 -6
-5 -6 -25 -213 -21 -220 3 -5 62 -6 131 -4 187 8 306 52 401 150 106 111 137
297 74 438 -66 145 -225 229 -435 230 -82 0 -87 -1 -92 -22z"/>
<path d="M4210 2706 c0 -11 236 -858 276 -988 5 -16 -2 -18 -49 -18 l-54 0
-11 -107 c-7 -59 -8 -111 -4 -115 5 -5 116 -7 248 -6 l239 3 6 55 c4 30 9 81
13 113 l6 57 -50 0 c-43 0 -50 3 -55 23 -3 12 -68 240 -144 507 l-137 485
-142 3 c-120 2 -142 0 -142 -12z"/>
<path d="M5085 2708 c-10 -34 -25 -202 -18 -209 4 -4 30 -9 58 -11 l49 -3 341
-491 c187 -271 346 -499 354 -508 10 -12 33 -16 97 -16 46 0 84 1 85 3 0 1 6
53 13 116 l12 114 -55 82 c-31 44 -189 273 -351 508 l-295 426 -143 1 c-106 0
-144 -3 -147 -12z"/>
<path d="M5815 2668 c-3 -29 -7 -80 -8 -113 l-2 -60 58 -3 58 -3 -6 -32 c-7
-45 -35 -302 -35 -325 0 -10 43 -81 96 -158 112 -161 103 -149 109 -143 3 4
75 626 75 656 0 1 24 3 53 5 l52 3 6 50 c3 28 9 78 13 113 l7 62 -235 0 -235
0 -6 -52z"/>
<path d="M4024 2383 c-65 -126 -170 -329 -235 -453 l-116 -225 -49 -5 -49 -5
-11 -105 c-6 -58 -8 -108 -4 -113 3 -4 105 -6 226 -5 l219 3 6 50 c4 28 10 78
13 113 l6 62 -55 0 c-30 0 -55 3 -55 8 0 4 13 30 28 57 l27 50 203 3 c111 1
202 6 202 10 0 4 -13 50 -28 102 l-28 95 -117 3 c-64 1 -117 5 -117 7 0 3 34
70 75 149 l74 144 -19 68 c-48 167 -63 214 -71 214 -4 0 -61 -102 -125 -227z"/>
<path d="M5156 2350 c-3 -14 -19 -160 -36 -325 -17 -165 -33 -306 -35 -312 -3
-8 -23 -13 -54 -13 -56 0 -54 4 -67 -148 l-7 -82 234 2 234 3 7 65 c4 36 9 86
13 113 l6 47 -61 0 c-71 0 -67 -21 -40 210 l20 165 -85 125 c-47 69 -94 136
-105 150 l-18 25 -6 -25z"/>
<path d="M790 2056 c-52 -46 -96 -88 -97 -93 -2 -5 21 -62 52 -126 30 -65 55
-122 55 -127 0 -6 -22 -10 -49 -10 -57 0 -56 3 -67 -137 l-7 -93 252 0 251 0
9 23 c5 12 12 63 16 114 l7 92 -48 3 -48 3 -101 215 c-58 124 -107 216 -115
217 -8 1 -58 -35 -110 -81z"/>
</g>
</svg>
