<svg xmlns="http://www.w3.org/2000/svg" width="1587.402" height="1122.52" viewBox="0 0 420 297" stroke-linejoin="round" stroke-linecap="round" fill="none" fill-rule="evenodd" xmlns:v="https://vecta.io/nano"><style><![CDATA[.B{fill:#000}.C{font-family:MS Shell Dlg}.D{stroke-width:.176}.E{stroke-width:.529}.F{stroke:#000}.G{opacity:0}.H{stroke-width:.353}.I{fill:#fff}.J{font-weight:bold}.K{font-size:4.58px}.L{fill:#0f0}.M{fill:#f0f0ff}.N{font-size:4.37px}.O{font-size:4.8px}.P{stroke-opacity:.25}.Q{font-size:4.72px}.R{font-size:4.76px}.S{font-size:4.81px}.T{font-size:4.74px}.U{visibility:hidden}]]></style><path d="M419.93 296.91H.09V.09h419.84z" class="I"/><path d="M215.8 13.89l-.12.44-1.03.37-.24.15-1.59-.01.1.65.35.6-.45 1.01-.83.02-.63-.37h-1.42l-.82.46-1.29 2.21-.62-.42-.37-.61-.01-1.87 1.53-1.03 4.8-1.93h1.72zm45.4 10.45l.03.23.84.01.57-.08 2.52 6.7 1.54 3.53.05.62 5.32 14.01.11.84.49-.62 3.72 1.15 2.24 1.28 1.62 1.26-.09.34-1.22.03-5.12-2.31-.76.03.1.99 7.63 20.28.95-.09 26.24-11.26 5.29-5.89.13 2.92-.14.25-2.79 3.36-.57.27.28.62.02 3.2.19.94.14.97.17 1.29.15.96.18.95.13.95-.19.22-.09.65.44.13 3.21 9.46-1.29.68-6.78-18.39-.08-.62 1.1-.68-.66-.65-.75-.01-.63.37-.2 2.36-.27.37-22.89 9.74 2.47 6.98.3.67 4.7 12.22.59.34-.33.3 11.91 31.43.84.02 25.11-10.59 7.94 20.44 3.22 9.31-.29 1.09-.59.69-2.5 1.11-.53-.01-.12.21-.71.52-.65.28-.45-.05-1.14.73-.67.27-.5-.06-.42.28-.36.45-.55-.03-.51-.06-.15.19-.27.12-.41.3-.17.14-.49.3-.24-.03-.52-.06-.12.23-.2.18-1.16.63-.45-.06-1.3.9-.59-.28.15.53-.27.12-.44-.28-.2.47-.91.39-.57-.27.15.53-.27.12-.44-.28-.2.47-3.21 1.41-.44-.29-.2.49-.9.39-.57-.27.14.52-.26.11-.43-.25-.39.08.14.53.56 1.09 22.32-9.38.74-.65.97 1.61.51.02 1.39-.58-.04-1.36-.42-.63.47-1.2-.01-1.39-1.6-4.81-9.31-24.34.02-1.16.97-.76 8.63 22.75 2.6 6.37 7.34 6.11 1.97 1.88.91 1.98 1.15 5 .18.97.78 3.2.18.96 1.42 6.09.19.95-.05 3.42-.31 1.29-1.74 3.07-1.93 1.59-1.65.65h-1.65l-2.93-1.29-7.38-5.1-1.5.63h-1.65l-2.97-1.25-15.72-10.96-.41.04.09.99 28.69 75.52.23.91.59 1.4-.12 1.62-1.66.95-12.88 5.25-22.19-59.07-60.86-160.8-.74.07-.64-1.72 13.48-5.65.01-.44 1.06.02zM231.53 73.8l10.26 4.48 1.28 1.28.33 1.05-1.3.68.02-1.7-21.79-9.34-1.06.02-.52.78-5.46 9.56-3.19-1.4-1.28-1.28-.38-.58.01-3.47 1.15-2.36 2.11-2.07 1.78-1.1.95-.33h3.32zm-1.6 41.97l1.95 1.59-5.26 2.25-3.84 1.42-.52-2.4-1.07-.53-.82-1.42-1-.62-2.37.34-11.42 4.92-3.62 1.82-1.62 1.94.64.02 11.86-4.86 2.66-.33.22 1.1 2.06.2-2.14.92-.44-.29-.2.48-2.48 1.17-.83-.02-1.3-1.01h-.43l-9.93 4.2-1.16.76-1.63-3.31-1.93-4.51-.39-.04-.86.5-.66-2.04-.01-3.45 3.26-6.35 1.91-3.22.8-.77.86-.18h1.33l.84.19zm-67.25 17.29l-.01 1.08-15.2 27.1-3.63 1.6-.51-.02.26.59-59.85 107.75-1.32 1.57-13.73 5.81-1.98-.02 61.82-110.86.25-.1.11.19 2.71-.08-2.82-.11 1.05-2.17 23.7-42.6.17.01zm76.08.54l.19.96v1.21l-39.58 16.88h-.62l.42-5.37.89-.49.39.03.22 3.01.38.26 1.56-.02.39-10.51 1.07-.13.28.89.14 1.6v.34l.03 2.48.97-.11 32.46-13.78z" fill="#e5e5e5"/><path d="M352.98 173.73l-.02 1.74-.32.95-1.4 1.81-1.5.38-.98-.64-.26-.77v-1.65l1.27-2.31 1.3-.76z" class="I"/><path d="M214.65 14.7l1.03-.37.49.22zm58.02 34.88l-.49.62-.11-.84zm30.41 5.15l-1.3-.18 1.31-.09zm-82.67 0l-.96-.18.97-.08zm-4.77 67.4l-.64.19.2-.48zm23.31 12.43l-.19-.96.15.11zm83.82 20.24l.59.28-.44.25zm-.12.65l-.64.19.2-.47zm-2.12.31l.57.27-.42.26zm-.12.65l-.64.19.2-.47zm-3.85 1.6l-.64.2.2-.49zm-2.11.32l.57.27-.43.25zm-.12.63l-.68.36-.14-.53.39-.08zm-171 3.86l.51.02-.25.57zm-14.44 4.93l-.11-.19 2.82.11z" fill="#00001c"/><g fill="#e5e5e5"><path d="M199.43 10.66l-1.01.05 1.08-.38zm15.42 4.92l1.66-.09.01.73-.82 1.22-.59.09-.27-.39zm3.53 3.06l-.96 2.06-2.86 1.3-1.09.33.34-1.08 1.58-2.61zm-8.66-.81l1.99-.09.01.39-1.01 1.62-.96-.76zm2.82 3.09l.74-.01.06.43-.58.83-.34.51-1.09-.12-1.6-.69v-.48l.98-.77zm-15.68 2.93l-1.11.88-1 .02-.52-.31 1.43-.2.93-1.29.34-1.41zm14.08 1.91l13.6-5.76-.01.36-.82.87-13.73 5.81h-2.18l-.75-.68.37-.63zm35.33 1.57l.01 1.07-.42.29-.65.07.1-1.42zm-37.82.66l1.85.01 14.55-6.08-.01.36-17.33 31.12-.35 1.16-.82.81-.65.31-.88.17-18.59 16.31-2.39 1.78-4.1 1.98.72-1.52 26.01-46.76zm33.36 2.23l-1.41.43-.3-.75.58-.42.51-.04zm51.9 9.92l.81 2.13-.01 2.6-1.57.77h-.53l-.29-1.99-1.53-.75-.52-.24-1.17 1.41-5.58-2.31 6.73-2.25 2.35-.34zm-54.18 3.04l.63-.38.56-1.12.43.06.05.76-1.16 1.19-.51.01zm64.77 1.42l.78 1.53.19.96-.04 2.79-.35.96-.61-.07-2.02-.97.35-.25.09-1.42-1.46-.72-.19-.21-.51.17-.24.11-.83 1.08-5.58-2.32 3.33-.85 3.73-1.4 2.08-.3zm-24.01.93l-.23-.9 1.37-.66h.72l.1 1.77-.65.18zm20.42 7.89l1.54-.8h.72l.12 1.84-1.31.09-1.06-.64zm-82.25.75l-.19-.85 2.05-.7.1 1.85-.97.08zm61.65 7.79l2.09-.64-.02 2-1.21-.13-.77-.29z"/><path d="M181.66 77.22l-1.08-.23-1.38.14.04-.67.49-.54z"/><path d="M186.36 78.93l1.39.85-1.09-.2-4.48-1.92-.52-.44.87.08zm113.42.31l1.32.96-.13.67-.53-.01-.98-.98-2.24-.97-1.74-.3 3.03-.02z"/><path d="M189.99 80.74l-1.08-.2-1.16-.76.87.09z"/><path d="M192.44 81.49l1.4.85-1.09-.2-2.24-.96-.52-.44.87.09z"/><path d="M196.08 83.3l-1.09-.2-1.15-.76.87.09z"/><path d="M198.32 84.26l-1.08-.19-1.16-.77.87.09z"/><path d="M200.77 85.01l1.4.85-1.09-.19-2.24-.96-.52-.45.87.09z"/><path d="M204.41 86.83l-1.09-.2-1.15-.77.87.09z"/><path d="M209.1 88.54l1.4.85-1.09-.2-4.49-1.92-.51-.44.87.08z"/><path d="M212.74 90.35l-1.09-.2-1.15-.76.87.09z"/><path d="M215.19 91.1l1.39.85-1.08-.2-2.25-.96-.51-.44.87.09z"/><path d="M218.83 92.91l-1.09-.19-1.16-.77.87.09z"/><path d="M221.07 93.87l-1.09-.19-1.15-.77.87.09z"/><path d="M223.52 94.62l1.39.86-1.08-.2-2.24-.96-.52-.45.87.09z"/><path d="M227.16 96.44l-1.09-.2-1.16-.76.87.09z"/><path d="M231.85 98.15l1.39.85-1.08-.2-4.49-1.92-.51-.44.87.09z"/><path d="M235.49 99.96l-1.09-.2-1.16-.76.87.09z"/><path d="M240.18 101.67l1.39.85-1.08-.19-4.49-1.92-.51-.45.87.09z"/><path d="M243.82 103.49l-1.09-.2-1.16-.77.87.09z"/><path d="M246.27 104.24l1.39.85-1.08-.2-2.25-.96-.51-.44.87.08zm10.25 5.1l-.51.54-.46-.21-.9-1.32-2.5-1.34.87.09.61.36.98.1-.03-3.34z"/><path d="M249.9 106.05l-1.08-.2-1.16-.76.87.09z"/><path d="M252.15 107.01l-1.09-.2-1.16-.76.87.09zm3.86 2.87l.87.16v.38l-.69-.06zm28.39 59.39l.01 3.33-.32.64-.77.56-.64-.03.46-.85-.02-3.01-17-44.83-.1-1.29.67-.4.39.06zm-111.5-32.54h-.43v-.81h.43zm86.5 35.75l-.96.78-.01-1.13zm-5.77.64l.97.65-2.02.97-.96.12v-5.26l1.73-.64zm39.41 77.86l10.26 4.47 20.8 8.68 3.55.62h5.66l3.87-.62 24.75-10.5.69-.4-.01.37-2.1 1.82-22.93 9.75-4.37.82-5.14.01-2.23-.33-3.32-.92L294 252.58l-1.93-1.65v-.61zM55.94 265.8l.01 2.8.34 1.69-.63.36-.36-.74v-4.44l.89-1.06.13.03zm5.51 5.5l-.34.34-.11-1.17h.4zm-2.39.78l1.43.19-1.01.54zm-27.75 5.14l25.62 10.91 5.74 2.27 3.54.62h5.67l3.54-.62 5.74-2.27 18.23-7.72 1.71-.98-.57 1.16-1.74 1.14-17.95 7.68-5.74 2.27-3.32.59h-5.47l-3.32-.59-10.23-4.19-19.55-8.33-2.22-1.3-.81-1.56z"/></g><g fill="#000020"><path d="M204.42 3.51l-.97.33.76-.54z"/><path d="M202.68 4.39l-.13-.4.9-.15zm-.5.08l-.98.34.77-.55z"/><path d="M200.44 5.35l-.13-.39.89-.15zm-4.35 1.69l-.98.34.77-.56z"/><path d="M194.25 7.46l.86-.08-.23.44-.54-.02zm30.9 11.98l-.11-.41.37-.06zm-12.17 3.1l-.56.14.34-.51zm49.09 2.04l-.84-.01-.03-.23zm-66.43.32l-.89-.15 1-.02zm47.87 3.27l-1.12.55-.09-.35 1.17-.33zm-2.32 1.27l-.51.04.34-.58zm-2.17.65l-1.12.55-.08-.35 1.17-.33zm55.49 14.78l.01-2.6.12.12zm-4.03-.09l-.06-1.77.17-.11zm-8.88 1.14l.65-.18 1.21.19zm23.67 1.17l-.19-.96.15.11zm-4.74.28l.51-.17.19.21-.51.12zm2.55 7.36l.01-.27 1.2.11zm-82.67 0l.01-.26 1.53.1zm-14.72.95l.65-.31.18.16zm107.71 2.63l-.13-2.92.29-.53zm-3.5 3.88l.57-.27-.29.89zm.49 4.76l-.19-.94.15.11zm.31 2.26l-.17-1.29.14.11zm.33 1.91l-.18-.95.14.11zm.29 1.95l-.44-.13.09-.65.19-.22.18.13zm-71.48 9.14l-.41-.11.47-.26zm45.19.85l-.18.29-.3-.67zm-80.68 57.26l-.28-.89.23.04zm-27.35.78l.33-.24.38-2.69v5.6l-.38-2.37zm27.49 1.16v-.34l.78.12zm130.31 7.65l.12-.21.53.01-.08.42zm-3.99 2.21l-.55-.24.42-.28zm-2.12.31l.15-.19.51.06-.06.37zm-.09.5l-.59-.08.41-.3zm-2.13.5l.12-.23.52.06-.07.37zm26.53 7.41l-.18-.97.14.12zm-37.52 2.64l-.41.11.11-.41zm38.48 1.52l-.18-.96.14.11zm1.61 7.04l-.19-.95.14.11zm-10.88 69.51l-.23-.91.17.08z"/></g><path d="M329.79 251l.83-.23 12.88-5.25-.26.62-13.75 5.81h-2.5l-1.71-.61-.02-.36z" fill="#c8c8d2"/><path d="M344.3 163.18l-.37.32-1.56 1.7-.58 2.56-1.11-.31.09-2.57 1-1.57.82-.47h1.1z" class="I"/><g class="F"><g class="D P"><path d="M327.74 251.17l.14.39h-.03l-.28-.04-.26-.06-.23-.08-.74-.31m1.51.11l.14.38m1.99-.6l-1.13.48-.2.07-.25.04-.27.01h-.25l.2.53m15.5-6.55l-.07-.18"/><path d="M343.56 245.42l-.04-.06"/></g><path d="M343.53 245.35l.03.07.04.24-.09.23-.2.2-.32.18-13.18 5.57-.42.13-.49.09-.54.04-.56-.02-.56-.07-.52-.12-.46-.16-15.23-6.43-.38-.2-.28-.22-.13-.19" class="E P"/><g class="D"><path d="M194.97 25.26v-.55m.17.03v.45m-.42-.53v.02l-.02.04-.02.03-.03.02-.04.01-.04-.01-.04-.02-.04-.03-.03-.04-.03-.05-.02-.06-.01-.05v-.07m-.51-5.87l.56-.05.6.16.61.35.56.52.49.67.38.76.25.81.11.81-.05.76-.19.65-.33.51-.45.33m-.72.22v.02l-.02.04-.02.03-.03.02-.04.01-.04-.01-.04-.02-.04-.03-.04-.05-.02-.05-.02-.05-.01-.06-.01-.02.01-.03.01-.05.02-.03.02-.03.04-.01m.6.19l-.19.04-.11.49"/><path d="M195.59 24.79l-.03-.02-.03-.01"/></g><g class="E"><path d="M194.23 24.33l.1.53.64.4.17-.07v.14l.64.15.2-.09.1-.44.35-.09.19-.08.45-.34.34-.5.19-.66.04-.56.01-.19-.11-.81-.25-.81-.39-.76-.48-.67-.57-.52-.49-.29-.11-.07-.6-.15-.56.05-.2.08-.49.25-.38.44-.25.6-.11.72.02.26"/><path d="M194.72 24.62l.01.01-.01.03-.03-.02-.04-.05m1.06.49l-.03-.03-.04-.04-.03-.05-.02-.06-.01-.05v-.03-.02l.01-.01.01.01.04.03.03.05.02.05.02.06v.09m1.04-3.81l-.01-.02"/></g><path d="M283.47 41.89l6.79-2.42 1.09-.22 1.02.15m-.35 6.1l.13-.69v-.69l-.13-.61-.26-.49-.37-.35-.45-.17h-.52l-.19.06" class="D"/><path d="M281.82 41.19l6.79-2.42 1.09-.22 1.02.16 1.65.69.87.52.68.84.45 1.12.18 1.32-.09 1.46-.09.4m-5.83-1.03l.34-.5.48-.5.53-.35.34-.12.14.26.13.61v.68l-.13.7" class="E"/><g class="D"><path d="M194.5 116.33l18.3-7.73m6.98 7.51l.76.29.91.78.69 1.11.42 1.39.15 1.58m-1.72-4.47l-.82-.35m19.41-34.15l3.92-1.66m-2.18.92l.83-1.26.4-.72"/><path d="M242.15 80.29l.85-.49m12.33 29.45l.04-.01m.95-.41l-.07.04m32.87-13.9l5.94-2.51"/></g><path d="M198.84 127.58l.41-1.01.91-1.56 1.1-1.34 1.22-1.07 1.28-.72 13.18-5.57 1.28-.36 1.22.03.34.13.85.72.68 1.12.43 1.38.15 1.58.82.35 9.26-3.91m9.63-38.18l-.16.29-1.86 2.83-11.23 4.74m58.36 1.58l7.45 3.15.38.21.36.3.32.38.29.45.22.49" class="E"/><path d="M342.63 168.75l-.35-.33-.25-.48-.13-.59-.01-.32.01-.34.13-.69.25-.69.35-.63.44-.54.49-.41.51-.26.51-.09.47.08" class="D"/><path d="M343.37 162.75l1.68.71.4.26.3.41.19.53.07.63-.07.68-.19.7-.3.66-.4.59-.47.48-.51.34-.51.18h-.49l-.44-.17-1.59-.67" class="E"/><path d="M259.98 173.44v-.66m40.88-81.36l.26-.11 1.1-.69.86-1.01.57-1.28.26-1.47-.09-1.58-.41-1.6-.71-1.53-.99-1.35-1.19-1.12-1.32-.81-1.39-.45-1.37-.07-1.27.32-10.53 4.45m22.55-9.46l-.02.01.06-.08.26-.13m31.25 73.99l-25.66 10.85" class="D"/><path d="M260.03 173.44l-.2-.01-.18-.04-.94-.4m30.88-76.81l11.27-4.76.7-.44.86-1.01.57-1.28.26-1.47-.08-1.59-.42-1.6-.71-1.52-.98-1.36-1.19-1.11-1.33-.81-1.39-.45-1.37-.07-1.27.32-9.85 4.16m21.63-11.74l-.13.01-.07-.02-.13-.1-.08-.14-.02-.16.01-.08.03-.06.09-.09-2.13-4.53m9.45 92.63l24.6-10.4.33-.17.26-.28.19-.38.1-.46.02-.51-.08-.54-.16-.55-10.9-28.78-20.09-42.65-.13.01-.07-.03-.13-.09-.08-.15-.03-.16.03-.1.34-.18" class="E"/><g class="D"><path d="M172.98 136.67l-.01-.66v.05m46.97-15.72l-1.43-.29-1.53-.15h-1.56l-1.52.15-1.42.29-1.22.41-11.43 4.83m7.2-70.24l.02-.03.08-.03m-.08.03l-.44-.62"/><path d="M216.2 120.96v-1.06"/></g><path d="M172.97 136.06l.01.64.02.04.11.07.91.39m25.08-10.26l12.16-5.13 1.22-.42 1.41-.28 1.53-.15h1.56l1.22.12m1.38-51.19l-1.12 1.43-.07.1-5.13 9.24" class="E"/><path d="M281.46 54.65l.08-.13m12.64-8.11l6.79-2.42 1.09-.21 1.02.15m-2.13 3.16l.19-.07h.51l.45.18.37.35.26.49.13.61v.69l-.13.69" class="D"/><path d="M279.81 53.96l.44-.75m12.28-7.49l6.79-2.42 1.09-.22 1.02.15 1.65.7.87.51.68.84.45 1.12.18 1.33-.09 1.46-.35 1.5-.08.19m-3.66-1.55l.13-.69v-.69l-.13-.61-.13-.25-.35.12-.53.35-.48.5-.34.5" class="E"/><g class="D"><path d="M254.44 103.85l-.11 1.04.38 2.59-.02.1-.07.09-.1.06-.1.01-74.72-31.58m30.44 3.09l-.64-.4-.79-.95-.46-1.19-.11-1.36.25-1.45.6-1.44.92-1.37 1.17-1.21 1.36-.98 1.47-.69 1.5-.36 1.44-.01 1.29.33 23.07 9.75 1.08.67.79.95.15.4M207.66 54.8l.4-.38.83-.74.61-.48.11-.18.01-.24-.13-.24-.26-.22-.28-.14-.76-.32m32.56 15.82l-32.27-13.64"/><path d="M209.56 52.66v.45m8.62.46l.14-.26.27-.22.45-.23.53-.15.58-.09.66-.03.64.05.59.1.5.17.4.22.25.24.1.27-.06.27-.21.26-.37.22-.48.18-.57.13-.63.06-.64-.01-.62-.08-.55-.14-.32-.13-.13-.06-.33-.23-.18-.26-.02-.28m20.64 9.02l-.02-.06m43.06-7.14l.45-1.98-.8-2.14-2.03-1.98-3.12-1.7-4.05-1.33-1.74-.32m37.45 18.55v-3.17l-.32.17-26.94 11.39m-.67-10.19l-.1-.14-.02-.27.14-.27.29-.24.43-.2.53-.15.61-.1.64-.02.63.04.59.11.51.17.39.21.26.25.1.27-.06.27-.22.25-.36.23-.48.18-.58.12-.62.06-.65-.01-.61-.07-.56-.14-.45-.19-.33-.24-.08-.12m.86-16.86l.56.14.61.07.65.01.62-.06.58-.12.48-.18.36-.23.22-.25.06-.27-.1-.27-.26-.25-.39-.21-.51-.17-.59-.11-.63-.04-.64.02-.61.1-.53.15-.42.2-.3.24-.14.27.02.27.18.26.33.24.45.19"/><path d="M300.91 53.15l-.2.16-.14.27.02.27.18.26.33.23.45.19.56.14.61.08.64.01.63-.06.57-.13.49-.18.36-.22.22-.26.06-.27-.11-.27-.25-.24-.39-.22-.51-.17-.59-.1-.64-.05-.64.03-.6.09-.53.15-.43.21-.09.08m7.11 8.17l.22-.19 5.04-5.84.12-.22v-.22"/></g><path d="M206.76 54.42l.9.38-.38.38-.37.24-.5.21-.51.11-.49-.02-.33-.1-19.65 17.28-2.71 1.73-2.96 1.23-.1.13.01.14.74.82m29.42 1.51l.31.79.43.27 23.07 9.75 1.29.33 1.44-.01 1.5-.36 1.48-.69 1.36-.98 1.17-1.21.91-1.36.6-1.45.26-1.45-.11-1.36-.31-.79-.43-.26-23.07-9.75-1.29-.34-1.44.02-1.5.36-1.47.69-1.36.98-1.17 1.2-.92 1.37-.6 1.45-.25 1.44.1 1.36m20.41-38.55l-20.14 8.51m46.09 60.07l.11.75-.02.1-.06.08-.11.06-.1.02-.73-.3m52.6-44.63l.14-.08.22-.19 5.04-5.84.12-.22v-3.39l-.11-.22-.23-.2-.33-.17-46.45-19.63m9.56 25.26l1.38-.51 2.88-1.79 1.73-2.03.03-.17-.35-.95-2.03-1.98-3.12-1.7-4.05-1.33-.46-.09m9.94 26.27l23.39-9.89" class="E"/><g class="D"><path d="M272.92 52.16l8.68 3.67m23.5 9.93l.08.03v-1.11m.76-.95l1.32-.56m-2.08.09l.34.14.18.1.16.14.15.18.13.21.1.22 6.83 18.76.13.31 15.53 32.98.23.53 10.75 28.41.29.99.14.99-.03.93-.19.83-.34.69-.49.52-.59.31m-32.12-78.87l.27-.12.01.01 1.1 2.56-.27.12"/><path d="M340.01 148.57l1.32-.56"/></g><path d="M272.42 50.83l9.19 3.89m55.87 96.1l1.02-.32 1.32-.56.59-.31.48-.52.35-.69.19-.83.03-.93-.14-.99-.3-.99-10.75-28.41-.22-.52-15.53-32.99-.13-.31-6.83-18.75-.1-.23-.13-.21-.15-.18-.17-.14-.17-.09-.34-.15-1.32.56v1.42m18.83 90.23l-.21-.02m11.68-17.44l.19-.27-.58-.76" class="E"/><g class="D"><path d="M314.63 161.95l-.2-.09m-.49-1.3l23.54-9.95m10.97 31.44l-1.04-.46-27.11-18.93-1.54-.72-.18-.01m18.9-10.82v.13l.99.85 1.81-.77v-1.62m0 1.62l-1.65-.69"/><path d="M340.7 167.63l.31.43.41.26.33.06m-.53-23.36l-.1-.01m2.85 18l-.09-.08-.44-.18-.5.01-.21.07m8.29 9.47l.09-.03h.56l.51.2.4.38.29.55.15.67v.76l-.15.81-.29.78-.4.73-.51.62-.56.48-.6.3-.58.1-.54-.1-.46-.29-.27-.37"/></g><g class="E"><path d="M313.48 159.36l22.35-9.45 1.65.7v.5l1.15-.48v-.19m-24.2 11.42l.2.09.26.02 2.12-.17 1.57.13.07.03 27.11 18.94 1.05.45 1.64.7 1.19.03 1.25-.4 1.24-.8.73-.74.42-.42.97-1.43.74-1.61.47-1.7.15-1.66-.17-1.53-3.81-16.6-.38-1.18-.56-.99-.72-.78-8.48-7.07-.27-.15-.11-.04"/><path d="M342.73 162.83l-.32.11-.51.34-.48.49-.41.6-.31.68-.19.71-.07.7.07.64.19.53m9.04 9.69l-.28.23-.59.3-.21.04-.08-.1-.21-.61-.08-.73.08-.79.21-.8.35-.76.46-.68.54-.55.58-.39.51-.18.2.4.15.68v.76l-.15.8-.28.79-.41.73-.5.62-.29.24"/></g><g class="D"><path d="M262.43 24.44l-.07.08-.29.15-1.14.52-13.19 5.57-2.67 1.06-3.48 1.24-11.41 3.62-.91.25-.15.01m98.39 214.23L244.58 32.01"/><path d="M345.33,243.64L262.39,24.48"/></g><path d="M230.16 36.39l-.69.32-.28.15-.07.08 28.27 74.7m23.84 63.02l25.75 68.05.33.47.56.44.77.4 15.22 6.43.93.32 1.05.24 1.11.14 1.12.03 1.08-.07.98-.18.83-.27 13.18-5.57.64-.35.42-.41.16-.48-.07-.45-82.86-218.96-.51.09-.63.19" class="E"/><path d="M198.36 11.11l1.13-.48m-1.11.46l-.03.01" class="D"/><path d="M200.78 12.07l-.02-.04-1.15-1.33-.03-.03-.04-.02-.03-.02h-.04l-.03.01-1.06.45" class="E"/><g class="D"><path d="M253.34 168.9l-1.3.55-.12.04-.14.03-.16.02h-.15l-.16-.02-.14-.03-.12-.04-20.43-8.63-.1-.06-.07-.05-.03-.07"/><path d="M251.55 174.82v-5.28"/></g><path d="M232.15 159.75l-1.53.65-.1.05-.07.06-.03.06v5.35l.03.07.07.05.1.06 20.43 8.63.12.04.14.03.16.02h.15l.16-.02.14-.03.12-.04 2.4-1.01" class="E"/><path d="M314.72 162.62l.14.06 18.88 13.14 1.04.45m-10.98-21.43v.12l.03.02m14.14-18.54l-.09-.08" class="D"/><path d="M337.94 175.43l-.72.47-1.25.4-1.19-.03-1.65-.7-1.04-.45-17.16-11.94m8.87-8.34v-.37m14.42-3.89l.05.2m-.28-14.13v-.09l-.02-.12-.13-.18" class="E"/><g class="D"><path d="M109.32 158.95L192.25 9.89m-62.36 157.76l24.52-44.07m25.93-46.61l.03-.06m.95-1.71l26.36-47.37"/><path d="M192.57 8.86l-.28.66-.07.74.15.8.36.8.55.78 11.41 13.27.72.7.69.49.16.11.93.47.98.3.96.13.91-.05.8-.22 13.19-5.58.66-.39.48-.54"/></g><path d="M162.84 133.38l-15.27 27.43-.41.41-.64.36-13.18 5.57-.83.26-.98.18-1.08.07-1.12-.03-1.12-.14-1.04-.24-.93-.32-15.23-6.43-.76-.4-.56-.44-.33-.47-.08-.47.17-.46 83.12-149.4.49-.54.66-.39 13.18-5.58.81-.22.3-.02M225.1 18.5l.28.63.15.8-.07.74-.29.66-19.12 34.38" class="E"/><path d="M58.92 271.9h0l-.03.02-.03.03-.01.05-.01.05.01.05.01.06.03.05.03.05.03.04.04.02.05.02h.04l.03-.02.03-.02.02-.04.01-.04m-.83-6.08l.56-.05.43.11.17.05.6.35.56.52.13.18.36.49.38.76.26.81.1.81-.04.76-.2.65-.26.41-.07.1-.45.33m-.35.09l-.18.04-.12.49m-.8-.22v-.67m.74.49l-.01.04-.02.04-.03.02-.04.02h-.04l-.04-.02-.04-.03-.03-.03-.04-.05-.02-.05-.02-.06v-.05-.05l.02-.05.02-.03.04-.02.03-.01.04.01.04.02.01.01m-.45.4v-.54" class="D"/><g class="E"><path d="M57.63 270.43l.05.12.45.71.53.59.11.57.65.4.16-.07v.14l.64.15.2-.09.1-.44.35-.09.2-.08.45-.34.33-.5.2-.66.04-.75-.11-.81-.25-.81-.38-.76-.49-.67-.56-.52-.6-.36-.6-.15-.57.05-.19.08-.49.25-.38.44-.26.6-.1.72.04.79.2.82.28.67"/><path d="M59.04 271.99v.03l.02.05.02.06.03.05.04.03.02.01v-.01-.02-.03l-.01-.06-.02-.05m1.02.58v.01l-.02-.01-.04-.04-.03-.04-.02-.06-.02-.05v-.06-.03l.03.02.04.05.03.05.02.05.01.06v.05"/></g><path d="M57.24 268.69l.07-.57.19-.48.29-.36.18-.13.19-.09.44-.06.47.1.37.2.1.06.45.39.39.5.32.59.22.63.1.64-.01.61-.12.48-.01.05-.24.42-.33.29-.41.14-.46-.02-.25-.09-.22-.08-.47-.33m1.63.68l.44-.16.37-.31.26-.47.14-.57v-.32l.01-.34-.11-.69-.24-.69-.34-.64-.43-.55-.25-.21-.24-.22-.51-.27-.51-.11-.48.07m.22-.07l.21-.07.5.02.51.19.51.36.46.49.24.37.15.23.29.67.18.69.05.68-.08.62-.2.53-.32.39-.23.14" class="D"/><path d="M58.46 266.71l-.22.07-.21.09-.19.14-.32.39-.2.53-.08.62v.14l.05.63.16.64.27.62.36.55.42.45.11.11.51.35.51.19.5.03.43-.14.17-.1" class="E"/><path d="M237.02 40.35l.02-.55.12-.48.1-.21.13-.17.3-.27.38-.12.42.03.43.17.42.3.39.42.32.51.24.56.15.59.04.56-.08.52-.17.44-.27.32-.34.19-.4.05-.43-.09-.43-.24-.41-.37m2.16.95l.41-.23.32-.38.21-.52.08-.62-.02-.34-.02-.34-.17-.69-.29-.68-.39-.6-.45-.5-.51-.36-.51-.2-.5-.03-.45.15m.58-.23l.39-.04.51.11.52.29.48.43.43.55.34.65.23.69.11.69-.02.65-.15.57-.26.46-.32.27" class="D"/><path d="M240.66 43.21l-.05.04-.5.21-.47.06-.51-.12-.52-.28-.48-.43-.18-.18-.36-.46-.28-.54-.2-.58-.09-.58v-.24l.02-.66.15-.57.12-.24.15-.21.36-.31.5-.22.08-.01" class="E"/><path d="M193.8 23.98l.43.29.43.17.41.01.38-.12.3-.27.22-.39.12-.48.01-.55-.1-.59-.2-.57-.28-.54-.36-.46-.41-.36-.43-.23-.43-.09-.4.05-.18.08-.16.12-.26.33-.18.44-.06.52m1-2.06l.47-.07.51.11.52.28.48.42.43.55.35.64.23.69.12.69-.01.33-.01.33-.14.58-.26.46-.36.32-.44.15m.68-.27l.23-.14.32-.39.2-.53.08-.62-.03-.41-.02-.27-.18-.7-.29-.66-.15-.22-.24-.38-.46-.5-.51-.35-.51-.19-.5-.02-.22.07" class="D"/><path d="M193.94 19.18l-.29.1-.21.1-.2.14-.31.39-.2.52-.08.62v.29l.04.57.15.59.25.56.32.5.39.42.22.21.51.35.51.2.5.02.51-.18.17-.09" class="E"/><g class="D"><path d="M235.84 31.33l.14-.02.3-.08.42-.13.54-.19.62-.22.65-.24.65-.25.6-.24.53-.22.4-.18.27-.13.11-.07.39 1.05"/><path d="M237.14 30.78l-.21.1-.13.06-.01.03.09-.01.07-.02.11-.03.28-.09.34-.11.39-.15.42-.15.41-.16.17-.06.22-.09.33-.14.26-.12.09-.04.08-.04.07-.05-.04-.01-.13.03-.24.07-.31.11-.37.13-.41.14-.42.16-.4.16-.36.15-.3.13"/><path d="M236.79 30.97l.01.02m3.32-1.28l.01.02m5.87-2.46l-.1.07-.27.14-.41.18-.52.21-.6.25-.65.25-.65.24-.62.22-.54.18-.43.14-.29.08-.14.01"/><path d="M241.73 28.88l.01-.02.12-.07.22-.1.3-.13.36-.15.4-.16.42-.15.41-.15.37-.13.31-.1.23-.07.14-.03h.04l-.07.05-.17.09-.14.06-.12.05-.33.14-.39.15-.41.16-.42.16-.39.14-.34.12-.28.08-.19.05-.08.01v.02m-.89.48l.17-.04.06.02m3.99-1.74l.01.02"/></g><path d="M246.4 28.33l-.4-1.06-.05-.01-.22.05-.36.1-.49.16-.58.21-.64.23-.66.25-.63.25-.57.23-.46.2-.34.15-.19.11-.03.04.06.14-.05.01-.36.11-.49.16-.58.2-.48.18-.16.06-.66.24-.63.25-.56.23-.47.2-.34.16-.19.11-.03.04.37.96" class="E"/><path d="M239.02 43.44l-.01.04-.02.04-.02.02-.04.02h-.04l-.04-.02-.04-.02-.04-.04-.03-.05-.02-.05-.02-.06v-.05-.05l.02-.04m-.53-5.82l.57-.05.6.16.6.35.56.52.49.67.38.76.25.81.11.81-.05.76-.19.65-.33.51-.45.33m-.35.08l-.19.05-.11.48m-.81-.21v-.6m.74.42l-.01.04-.02.03-.02.03-.04.01h-.04l-.04-.01-.04-.03-.04-.04-.03-.04-.02-.06-.02-.05v-.06-.05l.02-.04.02-.03.03-.02.04-.01.04.01.04.02h.01m-.45-.09v.5" class="D"/><g class="E"><path d="M238.37 42.9l.15.16.11.58.64.4.17-.07v.14l.64.14.2-.08.1-.45.35-.08.2-.09.44-.33.34-.5.15-.51.04-.15.05-.75-.11-.81-.25-.81-.39-.77-.48-.66-.57-.53-.37-.21-.23-.14-.6-.15-.56.05-.2.08-.49.25-.38.44-.25.6-.11.72.05.79.01.07"/><path d="M240.01 43.8v.05.01l-.01-.01-.04-.04-.03-.05-.03-.05-.01-.05-.01-.06.01-.04.03.03.04.05.02.05.02.05.01.06m-1.1-.52v.01l.03.06.03.04.04.04.01.01v-.01l.01-.02-.01-.03v-.04"/></g><g class="D"><path d="M49.44 271.13L111 160.49M61.63 266.31l-.31-.48-.92-.98-1.01-.7-1.03-.38-.99-.04-.88.32-.73.64-.51.93-.28 1.15-.02 1.32.23 1.39.48 1.37.69 1.28.86 1.09.98.85 1.03.55 1.01.21.95-.14.5-.31"/><path d="M57.2 263.79l-.61.55-.29.43-.23.5-.28 1.15-.02 1.32.17.97m11.4 9.99l61.81-111.09"/></g><g class="E"><path d="M143.86 162.7L82.77 272.49l-.2.21-.32.17-13.19 5.57-.41.14-.49.09-.54.03-.56-.01-.56-.07-.52-.12-.47-.16-15.22-6.43-.38-.2-.28-.22-.17-.24-.04-.24.09-.22 61.39-110.35"/><path d="M55.94 268.71l.07.42.47 1.37.7 1.28.86 1.09.97.85 1.03.55 1.02.21.62-.1.31-.18.62-.78.4-1.06.15-1.24-.11-1.36-.36-1.4-.59-1.33-.47-.72"/></g><path d="M30.03 276.1l1.14 1 1.62.86 1.56.66-1.56-.66m1.56.66l3.12 1.32m0 0l4.69 1.98-1.57-.66m-1.18-10.37l28.01 11.84m-28.01-13.22l14.13-5.97m-11.38 18.38l3.12 1.32m0 0l3.12 1.32m0 0l4.69 1.97-1.57-.65m1.57.65l3.12 1.32m0 0l4.6 1.95-1.48-.63m1.48.63l2.04.69 2.35.47-1.19-.24m1.19.24l2.54.25h2.61l2.54-.25 2.05-.41-1.56.31m-2.71-8.13l21.42-9.06m-17.15 16.88l.3-.06 2.04-.69 2.35-.99-1.56.66m1.56-.66l3.12-1.32m0 0l4.68-1.98m4.66-13.21l-7.46-3.15m2.8 16.36l3.13-1.32-1.56.66m1.56-.66l3.12-1.32m0 0l4.68-1.98m0 0l.35-.15 1.62-.86 1.14-.99" class="D"/><path d="M85.23 268.08l13.48 5.7 1.62.86 1.14.99.56 1.05.02.03v1.1l-.58 1.08-.83 1.37-1.05.92-1.5.79-21.42 9.06-1.89.63-2.17.44-2.36.23h-2.41l-2.26-.22-.09-.01-2.18-.44-1.89-.63-28.01-11.84-1.5-.8-1.05-.92-.83-1.37-.58-1.07v-1.11l.58-1.07 1.14-1 1.62-.86 21.42-9.05.27-.09" class="E"/><g class="D"><path d="M60.07 266.38l-.03-.02-.02-.01m.38.26l.14.1.28.29m.43.57l-.24-.37-.13-.14m.5.72l.02.02.02.05"/><path d="M212.32 22.67l1.33-2.38-.34.35-.47.24-.57.11-.63-.02-.65-.16-.64-.28-.58-.38-.49-.47-.37-.52-.21-.54-.06-.53.11-.48-1.09 1.96m1.09-1.96l.27-.4.4-.3.52-.18.61-.04.65.09.65.22.37.2.24.13.54.43.43.5.3.54.13.54-.02.5-.19.45m-3.97-1.46l.08.21.23.34.32.29.37.25.17.08.23.1.42.1.41.01.36-.07.3-.15.21-.23.12-.28.02-.32-.09-.35-.19-.34-.27-.32-.34-.27-.4-.21-.41-.15-.42-.05-.38.03-.34.11-.25.19-.17.26-.07.3.03.34.06.13m2.66-4.05l.27.67.3 1.4v.07"/><path d="M212.62 17.46l.32-.58m5.65 1.32l-.34.35-.47.24-.57.12-.63-.03-.65-.15-.64-.28-.59-.39-.48-.47-.37-.52-.21-.54-.06-.53.11-.48m1.24 1.77l.31.3.18.11.2.13.4.18.42.1.4.02.37-.07.29-.16.22-.22.12-.29.02-.32-.09-.34-.19-.34-.27-.32-.35-.28-.39-.21-.41-.14-.42-.06-.38.03-.34.11-.26.19-.17.26-.06.31.03.33.11.27.03.08.23.33"/></g><path d="M212.94 16.88l-.02-.55-.24-1.11-.19-.48m.45 2.14l.75-1.36.26-.4.41-.3.52-.17.61-.05.64.09.66.22.61.34.54.43.43.5.29.53.14.54-.03.51-.18.44-1.5 2.7" class="E"/><path d="M209.73 6.3l.97-.4" class="D"/><path d="M209.72 6.29l.93-.39h.03.03l.04.01.04.03.03.03 1.14 1.33.03.03" class="E"/><g class="D"><path d="M193.33 10.23l.66-1.19m30.84 10.51l-.36.41-.5.29-13.18 5.57-.6.17-.68.04-.73-.1-.73-.23-.7-.35-.63-.45-.54-.52-11.42-13.28-.41-.58-.27-.6-.11-.6.05-.55.21-.5"/><path d="M198.68 11.48l-.57-.66 1.48-.63-.27.5m.27-.5l1.5 1.74-1.23.52m6.72 4.81l.03-.29.2-.46.34-.38.46-.28 5.27-2.22.57-.16.63-.04.68.09.68.22.65.32.6.42.5.49.28.33M207.76 27l.66-1.18m1.63-19.14l-.57-.67 1.48-.62-.28.51"/><path d="M211.23 7.65l1.23-.52-1.5-1.74m4.14 8.24l-.65 1.16m5.17 4.1l-.64 1.14"/><path d="M218.63 16.65l.27.31.39.55.25.56.1.56-.05.52-.2.46-.34.38-.09.05"/></g><g class="E"><path d="M193.39 10.94l.03.17.27.6.41.58 11.42 13.27.54.53.63.45.7.35.73.22.73.1.68-.03.6-.17 13.18-5.58.5-.29.36-.4.66-1.19.22-.49.05-.56-.11-.6-.27-.6-.42-.58-4.15-4.83-7.26-8.45-.54-.52-.64-.45-.7-.35-.73-.23-.72-.1-.68.04-.61.17-13.18 5.57-.49.3-.37.4-.66 1.19-.21.49-.05.56.08.43"/><path d="M199.86 12.45l-.25.11-.93-1.08m19.77 6.96l.18.25.25.56.1.56-.02.23-.37.22-5.27 2.23-.57.16-.63.03-.68-.09-.68-.21-.65-.33-.59-.41-.51-.5-1.35-1.57-.36-.42-.39-.54-.25-.56-.1-.56.02-.23.37-.22 5.27-2.23.57-.16.63-.03.68.09.31.1m-4.36-8.13l.93 1.08.25-.11"/></g><path d="M215.98 122.02l-1.4-.98" class="D"/><path d="M215.58 122.19l-1.57-1.1" class="E"/><g class="D"><path d="M260.68 23.11l-.05.06-.22.11-.36.18-.5.21-13.18 5.57-.6.25-.68.27-.73.28-.73.27-.7.26-.63.22-.54.18-11.42 3.62-.41.12-.27.07-.11.01"/><path d="M235.03 32.6l.01.02"/><path d="M236.12 32.07l-.53.23-.34.16-.2.11-.05.05h.11l.25-.06.39-.12 1.71-.54.5-.17.59-.2.66-.24.68-.26.67-.26.64-.25.56-.23 5.28-2.23.46-.2.34-.16.2-.11.05-.05h-.11l-.25.06-.38.12-1.05.33m-2.73 1.92l-1.39.58 1.5-.47.04-.02-.05-.13-.1.04m1.09 1.95l-.66-1.74"/><path d="M243.67 29.93l1.49-.48-1.44.61m10.78-4.71l-.95.4 1.5-.48.04-.01-.05-.14-.54.23m.59-.09l1.44-.61-1.49.47m5.61-1.98l.66 1.74"/></g><path d="M246.18 27.74l1.11-.41.64-.22.54-.18 11.41-3.62.42-.13.27-.07h.11l.66 1.74-.05.06-.22.12-.36.17-.5.21-13.18 5.57-.68.28-.6.24-.73.28-.73.28-.7.25-.63.22-.54.18L231 36.33l-.41.13-.27.06-.11.01-.66-1.74.05-.06.21-.12.37-.17.49-.22 5.41-2.28" class="E"/><g class="D"><path d="M177.69 138.36l.03.06.07.06.1.05 20.43 8.64.12.04.14.03.16.01h.15l.16-.01.14-.03.12-.04 1.3-.55"/><path d="M198.82 147.25v5.28m5.43-7.45l33.66-14.23m-33.77 8.78l.21-.01.75.05.7.13.6.19.46.26.3.29.12.32-.07.32-.26.3-.42.27-.57.21-.68.14-.74.07h-.29"/></g><path d="M239.07 135.64l-39.76 16.81-.12.04-.14.03-.16.01h-.15l-.16-.01-.14-.03-.12-.04-20.43-8.64-.1-.05-.07-.06-.03-.06v-5.35l.03-.07.07-.05.1-.06 1.53-.64m20.05-8.48l22.29-9.42" class="E"/><g class="D"><path d="M167.66 81.14l11.5-3.66 1.32-.55m-6.46 59.68v1.11l-1.82-.77.77-.32m-.77.32v-1.26l1.32.55m5.36 1.46l.01-.24.07-.15.13-.06.09.01.15.1.12.16.08.21.01.11.65.27m-1.03-60.63l73.91 31.24 11.51 13.38.47.62.41.69.33.74 17.06 45.11.3.99.14.99-.03.94-.19.83-.35.69-.48.51-.59.31m-79.34-24.35l.27-.22.19-.32.12-.4.05-.45V141l-.04-.44-.1-.46-.16-.44-8.61-19.39-.53-1.49-.3-1.51-.05-1.45.2-1.32.45-1.13 4.34-7.8.61-.82.76-.56.95-.28"/><path d="M193.17 116.55l1.32-.56m5.94 30.29l-.16-.1h-.16l-.1.11-.04.18m2.48 3.59l1.31-.56m.41-9.73l-1.32.56m30.08 20.07l-.66-.28-.01-.1-.08-.21-.11-.16-.16-.1h-.16l-.11.11-.03.32m21.55 8.58l-.16-.1-.16.01-.1.11-.04.18m.37-60.04l1.32-.56m4.45 64.88l-.62.27 1.81.76v-1.11m-1.81.35v-1.27l1.32.56m23.62-.01l1.32-.56"/></g><g class="E"><path d="M232.93 160.4l19.77 8.36.46-.2.16.26.04.21v3.59l.49.85 12.47 5.27.57.17.55.05.52-.1 13.69-4.34 1.32-.55.59-.32.48-.51.35-.69.19-.83.03-.94-.14-.98-.3-.99-17.07-45.11-.33-.75-.4-.69-.47-.62-11.51-13.38-73.91-31.23-11.51 3.65-1.78.78-.41.35-.33.46-17.07 30.68-.29.75-.14.87.02.95.2 1 .34.98.48.92.6.81 13.68 15.91.52.53.55.43.58.3 11.77 4.98"/><path d="M174.02 136.61v-.16l-.5-.21m6.67 1.87l19.78 8.36.46-.19.16.26.04.21v3.17l.66.28.36.1.35-.01 1.63-.68.26-.22.2-.32.12-.4.04-.45v-7.78l-.03-.44-.1-.45-.17-.45-8.6-19.39-.54-1.49-.29-1.5-.05-1.46.2-1.32.45-1.13 4.34-7.8.6-.81.4-.29h.93l1.03.3 27.4 11.58 1.02.57.99.83.89 1.04.77 1.21.61 1.32 4.34 11.47.44 1.52.21 1.48-.05 1.42-.3 1.25-.54 1.04-8.6 12.11-.17.31-.1.37-.03.41v7.78l.04.49.12.5.2.48.26.45.31.38.19.16m29.61 10.58v-.15l-.49-.21"/></g><path d="M212.65 123.42l-1.97-1.37" class="D"/><path d="M212.24 123.59l-1.96-1.37" class="E"/><g class="D"><path d="M296.65 252.67l1.57.66-3.9-1.65-1.63-.86-1.13-.99m6.66 3.5l4.68 1.98m-1.97-10.7l28.02 11.84m-28.02-13.21l5.39-2.28m-3.42 14.35l3.12 1.32m0 0l3.12 1.32m0 0l4.69 1.98m0 0l3.12 1.32m0 0l4.69 1.98-1.57-.66m1.57.66l.69.29 2.04.69 2.35.48 2.55.24h2.6l2.55-.24 2.35-.48.48-.16-.48.16"/><path d="M324.37 264.21l-1.17-.4m8.99-7.36l21.43-9.05m-16.37 16.65l1.56-.53 3.12-1.32m0 0l3.13-1.32-1.57.66m10.13-15.52l-8.74-3.69m.18 18.55l4.68-1.98m0 0l3.12-1.32m0 0l3.13-1.32-1.57.66m1.57-.66l4.24-1.79-1.12.47m1.12-.47l1.63-.86 1.13-1"/></g><path d="M305.89 239.82l-11.57 4.9-1.63.86-1.13.99-.58 1.08v1.1l.58 1.08.82 1.37 1.05.91 1.5.8 28.02 11.84 1.89.64 2.17.44 2.35.23h2.42l2.35-.23 2.17-.44 1.89-.64 21.42-9.05 1.51-.8 1.05-.92.82-1.37.58-1.07v-1.1l-.58-1.08-1.13-1-1.63-.86-15.94-6.74M311.46 74.4l-1.35-8.42-.15-1.61.09-1.43.3-1.08" class="E"/></g><g class="G U"><path d="M-.2-.2h.442v.43H-.2zM0 0h.042v.03H0z" stroke-width=".5" fill="#e6e6e6" class="F"/><path d="M0 .03h.042V0h0v.03H0z" fill-opacity=".118" class="B"/></g><path d="M432.41 102.48h199.82v6.42H432.41z" class="F H M"/><text xml:space="preserve" x="434.88" y="107.42" font-size="4.53" class="B C J">Pos.</text><text xml:space="preserve" x="449.15" y="107.42" class="B C J Q">Arv</text><text xml:space="preserve" x="461.37" y="107.42" font-size="4.61" class="B C J">Nimetus</text><text xml:space="preserve" x="515.16" y="107.42" font-size="4.67" class="B C J">Joonise nr.</text><text xml:space="preserve" x="556.87" y="107.42" class="B C J K">Materjal</text><text xml:space="preserve" x="591.22" y="107.42" font-size="4.56" class="B C J">Mõõt</text><text xml:space="preserve" x="618.17" y="107.42" font-size="4.51" class="B C J">Kaal</text><g class="F H"><path d="M446.68 102.48v6.42m12.22-6.42v6.42m53.79-6.42v6.42m41.71-6.42v6.42m34.35-6.42v6.42m26.95-6.42v6.42"/><path d="M432.41 108.9h199.82v6.42H432.41z" class="I"/></g><text xml:space="preserve" x="434.88" y="113.84" font-size="3.88" class="B C">1</text><text xml:space="preserve" x="449.15" y="113.84" font-size="3.88" class="B C">1</text><text xml:space="preserve" x="461.37" y="113.84" class="B C R">Emakoda</text><text xml:space="preserve" x="515.16" y="113.84" font-size="4.85" class="B C">AJ5.01.00</text><text xml:space="preserve" x="556.87" y="113.84" class="B C N">-</text><text xml:space="preserve" x="591.22" y="113.84" class="B C N">-</text><text xml:space="preserve" x="618.17" y="113.84" font-size="4.64" class="B C">139.6</text><g class="F H"><path d="M446.68 108.9v6.42m12.22-6.42v6.42m53.79-6.42v6.42m41.71-6.42v6.42m34.35-6.42v6.42m26.95-6.42v6.42"/><path d="M432.41 115.32h199.82v6.42H432.41z" class="M"/></g><text xml:space="preserve" x="434.88" y="120.26" class="B C K">2</text><text xml:space="preserve" x="449.15" y="120.26" class="B C K">2</text><text xml:space="preserve" x="461.37" y="120.26" class="B C R">Sisejalg</text><text xml:space="preserve" x="515.16" y="120.26" font-size="4.85" class="B C">AJ4.03.00</text><text xml:space="preserve" x="556.87" y="120.26" class="B C N">-</text><text xml:space="preserve" x="591.22" y="120.26" class="B C N">-</text><text xml:space="preserve" x="618.17" y="120.26" font-size="4.57" class="B C">18.5</text><g class="F H"><path d="M446.68 115.32v6.42m12.22-6.42v6.42m53.79-6.42v6.42m41.71-6.42v6.42m34.35-6.42v6.42m26.95-6.42v6.42"/><path d="M432.41 121.74h199.82v6.42H432.41z" class="I"/></g><text xml:space="preserve" x="434.88" y="126.68" font-size="4.47" class="B C">3</text><text xml:space="preserve" x="449.15" y="126.68" class="B C K">2</text><text xml:space="preserve" x="461.37" y="126.68" class="B C S">Lukustusrõngaga sõrm</text><text xml:space="preserve" x="515.16" y="126.68" font-size="4.75" class="B C">LR-25-91</text><text xml:space="preserve" x="556.87" y="126.68" font-size="4.84" class="B C">42CrMo4+QT</text><text xml:space="preserve" x="591.22" y="126.68" class="B C O">25x91</text><text xml:space="preserve" x="618.17" y="126.68" class="B C T">0.38</text><g class="F H"><path d="M446.68 121.74v6.42m12.22-6.42v6.42m53.79-6.42v6.42m41.71-6.42v6.42m34.35-6.42v6.42m26.95-6.42v6.42"/><path d="M432.41 128.16h199.82v6.42H432.41z" class="M"/></g><text xml:space="preserve" x="434.88" y="133.1" class="B C Q">4</text><text xml:space="preserve" x="449.15" y="133.1" class="B C K">2</text><text xml:space="preserve" x="461.37" y="133.1" class="B C S">Lukustusrõngaga sõrm</text><text xml:space="preserve" x="515.16" y="133.1" font-size="4.77" class="B C">LR-25-124</text><text xml:space="preserve" x="556.87" y="133.1" font-size="4.84" class="B C">42CrMo4+QT</text><text xml:space="preserve" x="591.22" y="133.1" class="B C O">25x124</text><text xml:space="preserve" x="618.17" y="133.1" class="B C T">0.52</text><g class="F H"><path d="M446.68 128.16v6.42m12.22-6.42v6.42m53.79-6.42v6.42m41.71-6.42v6.42m34.35-6.42v6.42m26.95-6.42v6.42"/><path d="M432.41 134.58h199.82V141H432.41z" class="I"/></g><text xml:space="preserve" x="434.88" y="139.51" font-size="4.48" class="B C">5</text><text xml:space="preserve" x="449.15" y="139.51" class="B C K">2</text><text xml:space="preserve" x="461.37" y="139.51" class="B C Q">Seib</text><text xml:space="preserve" x="515.16" y="139.51" font-size="4.78" class="B C">M24_DIN125</text><text xml:space="preserve" x="556.87" y="139.51" font-size="4.69" class="B C">140 HV</text><text xml:space="preserve" x="591.22" y="139.51" font-size="4.65" class="B C">M24</text><text xml:space="preserve" x="618.17" y="139.51" class="B C T">0.03</text><g class="F H"><path d="M446.68 134.58V141m12.22-6.42V141m53.79-6.42V141m41.71-6.42V141m34.35-6.42V141m26.95-6.42V141"/><path d="M432.41 141h199.82v6.42H432.41z" class="M"/></g><text xml:space="preserve" x="434.88" y="145.93" font-size="4.46" class="B C">6</text><text xml:space="preserve" x="449.15" y="145.93" class="B C K">2</text><text xml:space="preserve" x="461.37" y="145.93" class="B C R">Silinder</text><text xml:space="preserve" x="515.16" y="145.93" class="B C S">sil.40-28-750B</text><text xml:space="preserve" x="556.87" y="145.93" font-size="4.45" class="B C">*</text><text xml:space="preserve" x="591.22" y="145.93" font-size="4.83" class="B C">40-28-750</text><text xml:space="preserve" x="618.17" y="145.93" font-size="4.57" class="B C">11.0</text><g class="F H"><path d="M446.68 141v6.42M458.9 141v6.42m53.79-6.42v6.42M554.4 141v6.42m34.35-6.42v6.42M615.7 141v6.42"/><path d="M432.41 147.42h199.82v6.41H432.41z" class="I"/></g><text xml:space="preserve" x="434.88" y="152.35" font-size="4.43" class="B C">7</text><text xml:space="preserve" x="449.15" y="152.35" font-size="4.48" class="B C">8</text><text xml:space="preserve" x="461.37" y="152.35" font-size="4.82" class="B C">Stopperrõngas</text><text xml:space="preserve" x="515.16" y="152.35" class="B C O">D25x1.2_DIN471</text><text xml:space="preserve" x="556.87" y="152.35" font-size="4.45" class="B C">*</text><text xml:space="preserve" x="591.22" y="152.35" class="B C O">25x1.2</text><text xml:space="preserve" x="618.17" y="152.35" font-size="4.77" class="B C">2.15</text><path d="M446.68 147.42v6.41m12.22-6.41v6.41m53.79-6.41v6.41m41.71-6.41v6.41m34.35-6.41v6.41m26.95-6.41v6.41" class="F H"/><g class="G L"><path d="M432.41 108.9v6.42h199.82v-6.42zM212.35 2.95l6.72 7.7 5.46 6.39.92 2.28.01 1.41-14.8 26.58-.07.66.99-.1 18.68-8.03-1.08-2.95.76-.5-.03-1.89 5.69-2.38.96.06 6.08-2.28 3.6-1.52.64-.97 13.8-4.25.57 1.42 1.11-.14 4.1 10.26 14.4 6.11h2.17l6.4-2.27 1.7.33 2.61 1.56.59 1.32.22 3.03 1.69-.37 2.78-1.06h2.68l1.61.64 1.28 1.29.63 1.93v2.02l-.42 1.5 8.43 3.85.02 3.96-2.93 3.48.03 5.05 1.26 7.71 2.57 7.04 15.71 33.63 11.22 29.47 9.01 7.33 1.23 1.97 4.17 17.94v2.66l-.32 1.28-.96 2.25-1.89 2.27-1.72 1.16h-2.81l-2.56-1.28-7.04-4.85-.74-.01-.63.38h-2.81l-2.21-1-16.4-11.55-.35-.02 30.2 79.83-.12 1.28-13.46 5.77-1.9.65h-4.08l-2.87-.97-15.04-6.43-1-1.24-25.59-67.59-13.59 4.16-1.83-.33-11.16-4.81-2.71.99-.85-.01-20.51-8.68-.3-3.86-.69-.92.01-10.2 8.99-12.79.33-.95-.01-1.42-.39-.03-38.78 16.41h-1.86l-19.94-8.57-.18-2.38-12.51-5.43-2.42-2.25-13.73 24.38-1.94 3.19-14.38 6.12-5.05-.01-2.89-.96-14.7-6.44-.67-.63-.03-1.18 83.5-149.76 13.81-6.06 1.62-.3 2.36-.02zm5.4 12.54l.99 1.27v1.08l-1.58 2.93-3.97 1.78h-1.86l-1.56-.68-2.56-2.89-.37-.58-.08-1.3 5.62-2.27.6 1.34.28.05 1.17-1.39h2.38zm-21.41 3.79l1.25 2.28v2.06l-.32.64-1.1.82-1.48.02-1.62-2.23-.32-.95v-1.87l.65-1.26 1.95-.11zm44.19 18.92l1.27 1.94v2.38l-.31.65-1.35.92-.95-.04-1.91-2.59.02-3.44 1.18-.78h.74zm49.98 4.79l-.02 1.46-1.34-.1-.39-.27.1-.58.88-.82.44-.02zm8.82 5.47l1.32-1.32.4.03.05 2.05-1.38-.4zm-87.63 74.68l.33.46-10.94 4.76-1.68.35-.28-.4-.07-1.32 10.57-4.52 1.08.01zm139.68 49.95l-.02 1.42-.64 1.6-.96 1.28-1.05.33-.27-.38.02-1.9 1.14-2.37 1.03-.64.39.03z"/></g><g class="G L"><path d="M432.41 115.32v6.42h199.82v-6.42zM124.83 166.4l2.89.96 5.05.01 10.95-4.55-58.4 105.11.39.35 9.98 4.16 5.16 2.52 1.28 1.96v.75l-.67 1.28-1.26 1.63-1.73 1.15-22.01 9.39-3.3.86h-8.23l-2.57-.63-28.83-12.18-2.22-1.31-.99-1.25-.65-1.27v-1.86l1.51-1.69 23.48-10.16 56.29-101.05h.43zm181.98 75.94l1 1.24 15.04 6.43 2.87.97h4.08l1.9-.65 13.46-5.77.12-1.28-.69-1.61-.08-.64.41-.04 11.56 4.86 5.81 2.84 1.26 1.62v1.43l-1.28 2.24-1.9 1.31-22.24 9.47-3.54.95h-7.9l-3.85-.95-29.16-12.5-1.25-.99-1.33-2.19.05-1.83 1.15-1.4 2.99-1.5 10.16-4.3.44-.02zM60.49 266.62l1.57 2.6-.1 1.96-1.54 1.67-1.26-.09-1.61-2.56-.33-.95v-1.53l.68-1.25 1.25-.46z"/></g><g class="G L"><path d="M432.41 121.74v6.42h199.82v-6.42zM60.81 267.91l.6 1.32.02 2.05-.78.84-1.18.03-1.56-1.34-.37-.59-.01-2.84.88-.75.75.01z"/></g><g class="G L"><path d="M432.41 128.16v6.42h199.82v-6.42zM195.7 19.6l1.25 1.96v2.07l-.73.86-1.85-.04-1.3-1.58-.32-.96-.01-1.54.86-1.06h1.75zm44.17 18.63l.96 1.28.61 1.9-.29 1.1-.73.89-1.21-.01-1.56-1.34-.37-.59.03-2.79.83-.78h1.09z"/></g><g class="G L"><path d="M432.41 134.58V141h199.82v-6.42z"/></g><g class="G L"><path d="M432.41 141v6.42h199.82V141zM217.75 15.49l.99 1.27v1.08l-1.58 2.93-3.97 1.78h-1.86l-1.56-.68-2.56-2.89-.37-.58-.08-1.3 5.62-2.27.6 1.34.28.05 1.17-1.39h2.38zm28.34 12.01l.19.9-3.64 1.5-6.29 2.35-.45-.8 3.22-1.54 6.43-2.61z"/></g><g class="G L"><path d="M432.41 147.42v6.41h199.82v-6.41zM196.34 19.28l1.25 2.28v2.06l-.32.64-1.1.82-1.54-.01-.06-.31 1.65-.27.73-.86v-2.07l-1.25-1.96-.35-.29-1.75.02-.53.44v-.62l.53-.48 1.75.01zm44.19 18.92l1.27 1.94v2.38l-.44.84-1.04.26.83-1.11.29-1.1-.61-1.9-.96-1.28-.64-.34-1.09-.01-.85.8-.01-.63 1.2-.81h.74zm-.21 5.42l-.16.5-.98-.07-.42-.32.01-.37zm-179.83 223l1.57 2.6v1.74l-.45.82-1.02.61.84-1.1-.02-2.06-.6-1.32-1.65-1.28-1.41.05.99-.68zm-.65 5.82l.75-.05-.16.47-1.27-.1-.48-.93z"/></g><g class="G U"><path opacity=".2" d="M0 0h30v8H0z" class="B"/><path fill="#ffffe1" d="M0 0h30v8H0z" class="F"/><text xml:space="preserve" x="0" y="0" class="B">tooltip</text></g></svg>