<svg xmlns="http://www.w3.org/2000/svg" xmlns:xlink="http://www.w3.org/1999/xlink" width="1587.402" height="1122.52" viewBox="0 0 420 297" stroke-linejoin="round" stroke-linecap="round" fill="none" fill-rule="evenodd" xmlns:v="https://vecta.io/nano"><style><![CDATA[.B{fill:#000}.C{font-family:MS Shell Dlg}.D{stroke-width:.529}.E{stroke-width:.176}.F{stroke:#000}.G{opacity:0}.H{stroke-width:.353}.I{fill:#0f0}.J{fill:#fff}.K{font-size:3.81px}.L{fill:#f0f0ff}.M{font-size:3.93px}.N{font-size:4.05px}.O{font-size:3.75px}.P{font-size:4.09px}.Q{font-size:4.12px}.R{font-size:3.74px}.S{font-size:4.08px}.T{font-size:4.11px}.U{font-size:-nan(ind)}.V{font-size:4.1px}.W{font-size:4.04px}.X{font-weight:bold}.Y{font-size:4.06px}.Z{font-size:3.33px}.a{font-size:4.02px}.b{font-size:4.13px}.c{font-size:3.84px}.d{font-size:4.07px}.e{font-size:4.14px}.f{font-size:4.03px}.g{font-size:3.98px}.h{visibility:hidden}]]></style><path d="M419.93 296.91H.09V.09h419.84z" class="J"/><path d="M212.45 126.24l.03.62-.16 1.22-.31-.53.15-1.64z" fill="#00001c"/><path d="M114.39 150.19l-.37.13-.83-.28.17-.17 1.02.15zm-37.48 77.54l-.92.06-.06-.23.98-.03z" fill="#000020"/><path d="M351.06 9.54l-.55.64-1.64-.03-.76.63.05-1.28.83-.43 1.79-.01zm22.09 3.98l12.78 37.18-4.78 17.75-1.41 1.8-4.57 1.89-.87.04-.06.51-.13 1.22-37.4 135.86-.2.18.09.65.4.19.12.68.19.94.13 1.61v.96l-.17 1.82-1.3 4.79-1.27 4.18-1.39 1.22-.66.06.29-.79.79-1.78.37-1.68-18.31 7.77-.63 2.25-.95 1.93-1.64.96.02-.6.96-1.98 1.92-7.69v-4.26l-1.6-8.97.01-1.82 1.02-.45.27.29 1.88 10.66.35.72 38.75-141.13-1.62-.27.34-1.52 4.51-16.33V61.3l-12.53-36.19-.1-.95 26.13-10.92zm-152.4 73.87l-1.84.18 2.15.22.01 13.78-3.22.07-4.78-.66-3.02-.57-3.83-1.3-3.5-1.63-2.6-2.52-.64-1.6.01-2.17.49-1.42 2.1-2.39 4.45-2.27 4.39-1.38 5.45-.96 4.28-.02zM178.36 97.8l1.26 2.6 1.64 3.17 1.23 1.01 1.65.29-.02 1.06-1.91.99-1.24 2.03-.22.93.01.97.18 1.29.15.97.18.94.13 1.3.2.95.13 1.29.18.95.27 1.4.67 1.9.96.37h.62l-.96-5.48-.64-4.48-.01-2.16.83-1.73 1.32-1.25 7.46-3.09-.35-.61 1.54-.79 1.07-.01-.04 2.03-.37.28.04.59 1.31 3.23 1 1.56.92.69 1.64.28.3 2.9 10.59 4.5-1.08.29 1.06 1.62 1.5 3.39.46 1.29.14.65-.15 1.64-6.23 2.65.08.62 2.5 5.55 1.75-.08-.04 22.84-.33.95-1.37 1.89-.64.06-1.53-5.87-1.61-.64-3.18-4.5-6.43-9.95-.27 12.31-1.52 2.09-.64-.13-1.36-5.31-1.61-.91-.32.05-7.03-10.77-.37-.86-.19 2.72-1.31.16-1.4-.68-.08-.29 1.09.15-1.63-7.16-1.28-2-.28-.6-.22-.04-8.82-13.73.01-.63 1.36.41-1.33-9.05-.02-3.76 1.32-1.88 8.5-3.64zm55.09-.19l-.89 2.69-.59.62-.56-.07.11-1.66 1.32-2.2.84-.81.72.01zm100.39 10.43l.26 1.22-.02 2.23-.16 2.91-20.7 75.82-.61-4.31-.36-.61-.11-.95 1.1-.67-2.48-.35-2.11-.59.76-.54 23.27-74.46zm-13.64 6.88l4.31-.45.28.29v1.13l-.77 1.16-2.02.29-1.71.28-.66-.53-.7.69-.51.27-.26-.06-1.22.01.88.28-.17.37-1.3.1-.26-.71-.6-.39-1.09.06.44-.54.2-2.06 1.09-.01.65.37-.11.97.57-.03 1.43-1.5.67-2.08zm-100.12 7.55l3.79.03-1.2-.18.1-4.63 4.6-1.17 53.07-22.54 1.33-.92.11-.14.15 4.82-.32.73-6.78 3.13-3.95 8.93-3.71 20.17-.32 1.61-1.44 8.25-1.27 1.38-.39.07-.16.65-.74-.29-16.02 6.84-.68-1.08-.59-.33-.37.4-.32-.71-.71-.05-.98.68-1.48 3.01-3.64 1.83-.15.5-.68-.17-1.16.47-.2.21-7.97 30.45.02 1.83.98 1.12-4.92 2.1-1.31.11-.2-31.22-.42-.65.78.1-2.29-11.6-2.85-13.17-.98-.61-.35.39-3.98-5.96-.03-.62.81.24.23-6.25zm-73.34-1.36l.22 2.14-.77 1.48-1.73.92-.48-.01.28 1.89-.17.22-1.73-.1.73-.26.04-1.06-1.44-.31 1.64-.32 1.08-1.81-.13-2.34 1.28-.68 1.06.02zm169.07 1.14l.86-2.3 1.62-.71.41.05v.72l-.6 1.7-1.26.41-.52.04-.05.53-4.73 15.52-.58 2.36-1.05 1.47-.96.12.09-.99 6.03-19zm-181.46 4.84l4.28-.12v1.74l-.61.96-2.18.34-2.12-.09-.25-.34-.73.6-2.44.67-.64.06-.55-.75-.67-.17 1.08-1.75 1.08-.21.38-.87.12.68.15.88 1.29-.99.65-1.26.29-1.43zm9.72 3.78l1-.03.31.24 2.23 2.93-.01 2.05-1.09.2-3.19 1.62-12.21 14.69-2.53 3.87-.36 2.16v2.25l-.02.93-2.37 3.14-1.89 3.61-.36 3.42-10.9 15.38-1.69 1.19-2.68.43-1.87-.16-26.12 36.68-.03 1.16.35.62.58 2.68.34.24-.34.29-3.58 1.31-1.26-.26-.9-2.31-.09-.94.6-.47.92-.06.87-.15-.87-.05-.98.03-1.74-.66-.06-.27.74-.53 27.22-38.48.34-.71.59.09 40.01-56.5.38-.05zm23.07 17.25l-.12 3.95 14.65 6.21-.65.4-.75-.31-3.81 4.32-2.61 1.25v-.61l2.57-2.92 1.95-2.55-.3-.45-3.39-1.4-.32-.21-.36.52-1.65.74-.51.01.46.54.12 5.48.07.83.25.04.49.22-.5.24-.23.05-.39 2.44-1.13.58-.33-9.46-.73-.01-2.26 1.02.11 9.69-4.9 2.14-1.54 1.04.04 6.98 2.08 1.19.3.62-.26.1-.33.55-16.18 16.25-2.59 2.85-26.89 26.95-2.59 2.85-26.88 26.94-2.6 2.86-8.14 8.19-3.17 2.92-11.25 7.65-1.8 1.12-.03.88.39.4 6.74-4.47 6.27-4.31 4.59-2.08-.25-.82.27-.09.39.38.27.8-10.25 10.62-25.13 10.77-1-.03 7.21-7.55 3.17-2.92 3.85-1.92 2.27-1.07-.61-.96-4.24 1.72.01-.61 13.78-13.82 2.6-2.85 26.88-26.94 2.59-2.86 26.89-26.94 2.59-2.85 12.27-12.35.65-.31 2.14-1.44 5.01-5.25.42-1.18-.01-1.09-.4-.03-6.11 2.62-4.26 1.56h-1l-2.34-.92-1.93-1.65v-.62l.66.37.64.1.3-8.7.97-2.23 2.77-3.64 9.59-12.19 1.96-1.25 2.25-1 .73.01.34 11.07 8.22-10.07.76-1.49-.01-3.65-.45-1.58 3.02-1.27zm40.37 14.74l.96 1.28 1.63 6.15h-.29l-25.37 10.63-7.27.35-8.89.3.02-5.9 15.55-.88.31-.03-.06.9.98.76 6.38-19.24.24-.4 1.41-.02zm102.65-10.68l-1.09 3.74-3.08 9.16h-1.86l.18.32.15.47 1.1-.14-.34 1.36-.44-.02-1.49 1.05.03 4.7-1.08.31-.51 1.08-1.06.49.3 1.43 4.57-.48.02 1.76-.73.87-3.7.45-.5-.1-.23-.34-1.45.89-2.58-.02-1.23-.05.69-1.52 1.42.1.27-1.08.34 1.14 1.6-1.32.34-1.06-1.13-.27v-.37l1.09.11.81-2.42.78-.56-.36-.26.04-.95.65-1.72-2.25-.62.33-1.51.31-1.1-1.7.16.42-2.27 3.44-10.98 5.13-.64 2.7.01zm-208.39 19.37l.96-.24 1.02-.41-.69 1.36-1.08.88 3.65.28-.11 2.26-1.05.62h-4.18l-.96.3-1.61-.01-2.17-.17.12-.6.68-.65.19-2.71h1.07l.34 1.16.15 1.05.14.51 1.32-.99.26-.76-1.36-.88.12-.9.83-1.14h.44zm193.89-.68l-2.39.97.1 29.47.63.36.84-.03 2.58-2.9 2.35-.99-2.95 3.24.37 1.6 1.54.02 1.88-1.32 1.08-1.8.8-2.49 1.3.25.48.28.66-.21 2.45-2.4.73-1.51.31-1.29v-2.66l-.79-3.23 2-1 .38.05.67 1.93.16 2.13.01 1.3-.32 1.92-.5 1.17-2.04 1.88.07.35 2.19-.73 1.39-1.17.65-1.41-.01 1.08-.32.96-.53.47-.23.08-.01 1.15.1.44-.5.79-.26.42-3.38 8.19-2.76 2.75-.24.02-.38.5-5.47 2.35-.3-.04.21-1.53-.66-.68h-.84l-.42.29-.37.14-.97.99-7.75-15.81.3-22.09 9.32-3.9.4.04-.66 2.68-.34-.72zm-169.87-.86l1.19-3.31 12.15-15.4 1.63-1.25 3.35-1.27-.02 10.69-6.07 7.71-2.9 3.83-.96 3.27-.23 4.42-.29.35-1.01.42-.65.23-.67.39-.4.17-1.79.39-.97-.2-2.97-1.59-.99-.98v-.61l1.67.73zm137.82 22.85v.69l-6.14-2.52h-.72l-30.43 12.85-2.06.48-.86-.03v-5.92l2.68-.52 23.61-10.06.21-.4.88.08zm11.81 21.26l-8.62 11.03-1.6 3.59-.16 5.14-.13.34-4.09 1.67h-1.33l-2.33-.93-1.93-1.65v-.62l.64.36h.98l-.03-8.27 1.02-2.5 12.66-16.18 4.22-1.95.39.02zm27.1 13.02l.17 1.3.16.95-.01 2.58-.17 1.81-.97 2.24-1.89 1.64-2.53 1.37-.54-.24 1.76-1.49.97-2.23.3-3.64-.64-3.52-.34-.64-.1-.95 2.67-1.26.34-.34zm-16.84-.99l-.95.59-.95 1.68v1.96l.13.62.23.66.24.47.53.3.43.2.02 1.04-.25.8-12.98 5.63H269l-2.2-1.32-1.32-1.3-.01-.61.99.7.64.07-.01-7.39.64-2.57 2.59-3.81 9.78-12.33 2.27-1.89 2.99-1z" fill="#e5e5e5"/><path d="M132.56 171.82l-.34 2.37-1.4 1.8-2.14.02-.33-.95v-1.54l1.3-2.56.74-.16.22 1.49.11-1.48.55.01zm130.69 54.81l.02 2.68-.34.62-1.4 1.48-1.8.01-.35-.61.01-2.5 1.32-1.88.51-.48z" class="J"/><path d="M222.02 70.42l-1.29-.17 1.3-.08zm-27.24 11.55l-.97-.18.98-.09zm26.28 5.82l-2.15-.22 1.84-.18.31.16zm.01 14.02l-3.22-.17 3.22-.07zm-46.85 1.02h-.79l.03-.21.67.01zm159.88 6.43l-.26-1.22.21.04zm-145.62 1.62l-.13-1.27.28-.04zm-7.54 1.26l-.18-1.29.14.11zm153.41.72l-.43 1.54.16-2.91zm-147.55.25l-.23-.11.11-1.11zm-5.53.94l-.18-.94.14.1zm.33 2.25l-.2-.95.15.1zm136.22 1.98l-.88-.28 1.22-.01zm-135.91.26l-.18-.95.14.11zm38.17 3.93l2.59-.15 1.2.18zm-37.85 15.93l-.32 1.94-.24-.08.19-2.72zm-67.84 11.79l-.01-.17 2.8.03zm123.62 3.27l.02.25-1.86.05 1.16-.47zm-56.09 5.45l-.27.08-.63-.31.65-.4h.26zm-53.21 2.5l-.51.37.02-.93zm5.44 17.36l-.22-.07.23-4.42zm29.3 1.31l.51.11-.21.51zm143.63 15.74l.37.06.06.37-.37-.06zm-4.59 1.18l.08-.18 1.05.02.17.41zM76.91 227.73v-.2l.87.05zm195.34 2.59l-.33.99-.26-.08.17-1.13zm-7.04 3.56h-.17l.16-5.14z" fill="#00001c"/><g fill="#000020"><path d="M346.54 26.93l-.32 1.5.06-1.76zm11.55 34.11l.33-.06.01 1.07-.39-.38zm-136.07 9.38l.01-.25 1.52.1zm152.22 2.27l.06-.51.87-.04zm-32.62 8.49l1.47-.28v.64zm-93.34.62l.65-.18 1.21.19zm-53.5.17l.01-.27 1.21.11zm26.28 5.82v-.24l1.53.03zm104.62 3.95l-.27 1.42-.08-1.78.69-.01zm-43.65 6l-.15-4.82.27-1.21zm-49.53 3.09l-.53.09.59-.62zm-65.66-.01l-.11-.41.37-.06zm54.23.99v-.24l4.72.1zm-55.54 5.41h-.42v-.42h.42zm23.74 1.99l-.64.36-.28.04-.11-.47.95-.11zm-29.82.58h-.43v-.43h.43zm-2.25.96h-.42v-.43h.42zm-14.41 1.79l-.41.11.11-.41zm8.33.77h-.43v-.43h.43zm169.68 4.42l-.51-.11 1.71-.28zm-178.15 2.2l1.51-.19 1.31.17zm173.62 2.76l.05-.53.52-.04zm-104.71 1.28l.35-4.39.7-.02-.35.38-.24 5.32zm-67.58 1.67l.48.01-.2 1.88zm-12.88 2.2l-.12-.68.3-.19zm45.96 2.6l-.4-.17-.1-.47.22.04zm-48.8-.25l.18-.2.67.17zm83.34.59l.37.07.06.36-.36-.06zm-62.78 5.31l-.36-.1.41-20.25zm-22.24.01l.61-.33.19.18zm53.78 4.32l1.31-.16.24.08.02 17.94h-.26l-.11-17.53zm83.49 1.59l.39-.07-.03.88-.52-.16zm41.35 3.32l-.41-.11.47-.26zm-190.29.05l-.3-.87.2-.69.12.12zm-3.27 4.95l.37.06.06.37-.37-.07zm126.39 3.38l-.02-.25 1.88.11zm-44.96 1.93l-.71-.14.19-.16.64.13zm-18.39.37l-.68.31.36-.52zm-2.84 1.06l.51-.01-.05.55zm9.7 5.59l.11-3.67.27-.08-.05 13.06zm23.21 1.29l.93-.15-.06.76zm-32.01.01l-.25-.04-.07-.83zm131.57 1.44l-.18-.32h1.86zm-131.74 1.43l-.46.08.39-2.44.23-.05zm-41.96 5.46l-.22-1.49.33.01zm36.62 1.45l.33-.16.89.19zm-69.13.93l-.15-1.05.31-.53zm-.38 1.92l1.61.01-.52.4h-.59zm35.92 2.46l.29-.35.22.07-.02 1.53zm161.53.26l-.03-.2 1.23.05zm-163.19.39l.65-.23-.1 4.67-.35-4.32z"/><path d="M131.76 180.18l-.45-.09.67-.39zm32.21.95l-.81.22.33-.55.26-.1zm137.28 5.76l1.51-.19.98.18zm-158.66 3.17l-4.42-.28 5.07-.03zm168.26.58l-.01-1.3.15.12zm-9.77 2.53l-.74.15-.27.73-.1-1.08 1.13-.1zm-37.19 1.22l-.28-.84v-.69l.28-.87zm36.71.22l.53-.21 1.02.17zm11.06 1.38l-.47.4.01-1.15.23-.08zm-1.13 2.05l.26-.42.24.55zm-10.12.19l-.14-.86.28.07zm3.96 10.99l-.6.28.38-.5.24-.02zm32.14.73l.2-.18.29 1.02-.4-.19zm-39.94.44l-.28-.5.42-.29zm1.92 1.83l-.41.11-.08-.52.3.04zm38.82.19l-.19-.94.15.11zm.13 2.57v-.96l.15.13zM72.85 219.2l.74.08.08.35h-.43zm229.84 9.24l-.17-1.3.15.11zm-18.55 3.22l-.23-.66.53-.19zm-13.06-.1l.58-.33.26.08-.01 1.2-.37-.74zm31.76.41l.01-2.58.12.12zm-32.86 2.96l-.23.33-.25-1.02zm-4.81 1.44l-.26-2.15.13-.34h.17zm32.23 2.84l-.12-.18 3.48.09zm-264.62 26.8l3.34.02-1.74.33-1.23.02zm46.27 3.43l-.27.09-.49-.34.69.03z"/></g><g fill="#e5e5e5"><path d="M219.57 68.68l.62-.35 1.75.01.09 1.83-1.3.08-1.06-.28zm27 11.65l.55-.46 1.71-.33.1 2.08-.65.18-1.37-.31-.34-.34zm-54.15 0l.55-.46 1.72-.33.1 2.16-.98.09-1.04-.31-.34-.33zm139.94 9.19h-.88l-.1-.97.77-.31zm-2.07 1.24l-.09.8-.35-.01-.69-1.14.73-.01zm-56.59 1l1.29-.68h1.08l.01 2.06-1.64-.1-.62-.35zm-108.51.1l1.54-.79h.72l.02 2.07-1.64-.1-.63-.36zm168.89 2.38l-.1 3.29-.99.97.1.76-.71.51-1.62.07-.12-.19 1.45-.2.38-.4-.25-.26-1.57.55 1.2-2.44-.43-1.98 2.37-.96z"/><path d="M330.64 99.65l-1.52-.22 1.53-.09zm-84.07 3.74l1.19-.78h1.08l.01 2.06-1.64-.09-.63-.37zm-26.89 11.21l.84-.45h1.41l.01 2.03-1.2-.13-1.08-.28zm-76.54 2.82l-.01.38-.65-.09-.43-.7zm3.72 2.21l-1.39.28-1.31-.17.11-.77 1.96-.31.76-.32zm-14.94 11.94l-1.35 1.6-2.85 4.17-2.05 1.81-1.16.03-1.61-.69.02-.47 1.81-2.43.76.01 1.09.5.8-.15-.19-.18 1.11-2.02 1.55-1.98 2.04-.33zm-13.77 6.91l-.01 1.11-1.45-.02.14-.94.54-.48.44-.02zm-3.34 5.34l-.2.69-1.1-.12.12-1.32.65-.13zm196.51-.07l-.97 1.87-1.72.07.09-1 .86-1.71 1.74-.32zm-.95 2.83l-.97 3.59-1.41 1.14-1.82.03-1.3-.33.34-1.51.65-2.27h.98l.48-1.07 2.38.09zm-195.99 3.44l-1.02-.15 6.68-9.65 7.36-.34.34-.74.02 1.1-6.86 9.49-2.28.29-.51.77-1.64 1.6-.66.91-.89-.02-1.35-.32-.38-.37.83-2.27.37-.13 2.79-.14zm186.1 2.9l-.05.74-.42.3-.66.07.01-1.45.75-.03zm-188.46 2.65l1.19-1.67 2.67-.03-1.07 1.62-1.96.29-7.56 10.7-2.9 3.85-1.06.02.07-.65 10.31-14.46zm186.52 3.78l-.02.74-1.11.01.13-1.34.33-.08zm-88.87 4.45l1.71-.59 6.38 24.95-.61.45-.67 1.22-1.01-.03-.38-.35 1.08-.3zm88.17 3.92l-.25.01-11.83 4.93.57-1.03 1.81-1.07 9.29-3.86 1.06-.03zm-132.65 4.56l1.54-.8h.72l.11 2.1-.33.16-1.4-.28-.63-.37zm136.18 11.78l-.74.4.07-.67.98-.14zm3.77 2.53l-1.4.29-.98-.18.1-.76 2.37-.34zm-55.24.84l-1.08-.2-1.04-.69h.72zm55.03.72l-.01 2.39-.32.64-1.94 1.27-.29 1.94-.22.18-1.02-.17-.05-1.23.02-.3.93-1.05.3-1.3-.01-2.23 1.85-.8.39.03z"/><path d="M285.65 193.78h-.37l.07-19.93.41-1.19zm-65.97 1.24l.84-.45h1.41l.02 2.06-1.53-.16-.77-.29zm80.87 2.42l-.28-.07.07-.26.71-.01zm-189.77 2.71l-3.56 4.79-2.57 2.58v-.62l5.46-7.08 1.28-.13zM295 227.87l.29 1.32v2.02l-.31 1.34-.3.32-.03-3.36-.43-1.95.42-.05zm-9.86.21l-.41.6v-.69l.35-.08zm8.63.34l.23 2.79-.42 1.82-2.33.86-.11-1.2-.33.08-.02.91.46.21-3.37 1.15-.08-.34 1.45-.88.59-1.65-.11-2.65.78-.32.32 1.33.31.06.2-1.41 1.95-1.02zM62.04 229.5l-1.96 1.35-.03 1.61.36.29.34 1.26.69 1.26-2.25-.01-.8-.57.02-.31.41-.31v-3.84l1.15-2.38 1.02-.63.73.01zm226.88.92l-.02 2.1-1.11 1.16-1.93-.33 1.65-.31.7-1.21-.04-1.74zM68.5 233.44l-.38-.03-.37-.43.01-.3-.68-.02-.59.79.04.9.64-.32.34.72.67-.43-.14.59-1.82 1.43-1.09.33.44-1.93-.08-2.38 2.34-.91zm-47.08 30.33l-.15.67-.55.03-.62-.38-1.47-.33.31-.31 2.15-.02zm20.13 7.34l-.32.78-.31-.04-.11-1.38.38.01zm3.53 4.8l.3 1.34.64 9.91-.63.8-.32-1.43-.32-7.36-.47-3.25.51-.32z"/></g><path d="M332.47 99.05l-.38.4-1.45.2.01-.31 1.57-.55zm-157.3 4.51l-.01 2.08-.64 1.28-1.41.87-.83-.01-.36-.36.01-.81 1.31-1.61.19-2.17h.79zm15.01 6.15l.38.59-.02 1.09-.65 1.61-1.38 1.2-1.18-.03-.53-1.06.9-.38.78-1.85.15-1.31.64-.36zm-71.82 35.6l-.71.02.01-.35 1.17-.33zm183.89 14.05l-1 .09.1-.61 1.04-.44zm-141.31 2.54l2.65-1-1.26 2.39-1.57 1.32-3.04 1.44-.54.74-2.22 1.02-.02-1.66 1.68-.57.53-.47-.3-.5 1.98-2.04zm45.91 2.84l-.98 3.37-.58-.09-.36-.36-.02-1.18.39-1.35-2.61 1.07-.11-.73 2.17-1.52.87.61.06-.76h.23zm-64.03 11.23l-.02 2.08-.33.62-1.4 1.81h-1.81l-.59-1.06-.03-1.63.64-1.02 1.6-.99.31-.77zm190.89 44.66l1.95-6.85v3.01l-1.28 5.19-.27.3-.41-.41zm-59.85 10.77l-.03 1.42-.95 2.25-1.1.82-1.53.06-.5-.69.23-.33-.48-.69.01-.38.35-1.52 1.22-.78.46.21.37.74.01-1.2.33-.99zm16.95 1.37l.33-.08.11 1.2-.46-.21z" class="J"/><g class="F"><g class="E"><path d="M297.56 161.67l-.14-.25-.16-.47-.09-.54v-.55l.07-.49.15-.39.2-.23.24-.07.25.12.23.29.19.42.13.52.04.55-.03.52-.11.45-.18.31-.23.16-.24-.03-.25-.21-.07-.11m.62 4.04l4.14-13.23 7.82-.71m-11.67 13.91l5.99-.55m-4.3.4l-.83 2.63m-.09-13.47l.15.45.21.36.24.2.25.03.23-.15.17-.32.12-.44.03-.53-.05-.55-.12-.51-.19-.43-.23-.28-.25-.12-.24.06-.2.24-.15.39-.08.49.01.54.09.54.01.03"/><path d="M299.56 152.46l.31-.03m-.08-4.24l2.53 4.29m-.3 16.39l1.13-3.62m-1.97-5.91l.12.11.18.06.21-.01.23-.06.21-.12.18-.16.13-.18.06-.18-.02-.17-.09-.14-.15-.08-.2-.03-.22.04-.23.09-.2.14-.15.17-.09.19-.02.18.05.15m6.07-12.01l1.4.37-1.25 3.97-2.68-.71-1.07-1.82.42-1.33m.65 3.15l1.24-3.97.64.17m-1.48-1.59l-.23-.39m1.07 1.81l-.56-.94m2 5.62l1.62-1.1.14-.46"/><path d="M308.65 147.7l.38-.26m.39-.27l.84-.57"/></g><path d="M305.34 144.87l-.45.31-.82 2.63-4.28.38-4.14 13.23 2.53 4.29.29-.03-.21.66 1.07 1.82 2.69.71 1.62-1.11.82-2.63L306 165l4.14-13.23-.98-1.66 1.1-3.51-.25-.43" class="D"/><g class="E"><path d="M95.08 170.93l1.25 1.33 1.32-.02v.04l.07 2.73-1.32.03-1.18 1.43"/><path d="M96.4 175.04l-.07-2.78m1.02 3.2l.37-.45m-.42-3.15l.35.38"/></g><path d="M97.3 171.86l-.9-.96-1.32.03-1.18 1.43.08 2.77 1.24 1.34 1.33-.03.8-.98" class="D"/><path d="M96.73 176.26l.41-.27.34-.53.08-.25m-.08-3.16l-.22-.45-.39-.42-.29-.1m1.08 1.56l.09.4.05.86-.09.77" class="E"/><path d="M96.69 176.26h.04.38l.41-.28.34-.53.23-.72.09-.84-.05-.86-.07-.3-.11-.5-.31-.64-.39-.41-.43-.15-.29.01" class="D"/><g class="E"><path d="M297.07 174.01l.83-2.65 2.6.99-.83 2.65m-1.77-3.64l-.63-1.82m.93-2.98l.63 1.83 2.6.98-.83 2.65-2.59-.99-.55-1.57m.55 1.57l.82-2.64"/><path d="M298.93 167.46v.03l.1.21.13.15m1.34 4.5l1.96-.84"/><path d="M300.6 172.02l1.77-.76m-2.88-3.06l.37.26.6.25.63.12.6-.01.07-.02m-.33.57l1.96-.83"/></g><path d="M303.22 168.05l.17.49-.83 2.64-.19.08.09.25-.83 2.65-1.96.84-2.6-.99-.63-1.83.83-2.64.19-.08-.09-.25.83-2.65.16-.06" class="D"/><g class="E"><path d="M317.92 117.95l-.26.06-.72-.02-.2-.02-.49-.12-.33-.15m1.97.34l-.09.31-.13.28-.27.22-.39.12-.46.01-.49-.09-.21-.09-.26-.11-.38-.27-.27-.31-.12-.34.02-.07"/><path d="M314.69 117.71v.05l.13.36.29.34.42.3.5.21.54.1.51-.01.42-.13.3-.24.13-.31"/></g><path d="M317.93 118.38l-.04-.34.03-.09.36-.08.54-.33.57-.35.15-.16.26-.46.16-.65.05-.76-.07-.8-.18-.75-.27-.62-.34-.41-.09-.06-.5-.31-.57-.2-.6-.09-.55.05-.53.12-.6.24-.27.22" class="D"/><g class="E"><path d="M294.28 173.75l1.22.98.24 1.61.16 1.12-.83 1.75m.83-1.75l1.37-.12-.36.75"/><path d="M295.5 174.73l1.37-.12.4 2.73m-.4-2.73l-.15-.13"/></g><path d="M296.72 174.48l-1.07-.85-1.37.12-.83 1.75.4 2.73 1.22.98 1.37-.13.47-.99" class="D"/><path d="M297.27 174.08l.09.21.05.08.3.31.41.25.47.17.49.07.45-.04.37-.15.15-.14" class="E"/><path d="M300.54 174.63l.17.53.13.78.01.79-.11.72-.04.12-.17.44-.3.34-.59.47-.6.24-.53.12-.55.05-.6-.08-.58-.21-.03-.02m-.4-5.2l.17-.11.34-.21" class="D"/><path d="M110.94 199.64l-.24-.03-.59.17-.46.43-6.05 8.27m19.47-19.67l-7.82-5.4" class="E"/><path d="M89.33 222.91l-1.81-7.84m24.47-15.06l-.64-.32-.41-.05-.05.04-4.01 5.49m17-17.18l-7.97-5.51" class="D"/><path d="M84.65 227.64l-1.06.45-1.49-1.08-1.3-1.6-.29-.46m3.56 3.28l-.48-.14" class="E"/><path d="M73.8 219.31l-.48.2m8.74 3.26l.08.1.99 1.56 1.29 1.59 1.07.78" class="D"/><path d="M143.59 189.6l.93-.6 5.14-4.94.7-.97.42-1.28.11-1.41" class="E"/><path d="M132.49 179.4l.22 7.51.09.64.22.62.34.57.42.44.47.3.47.1 7.77.21 1.1-.19 1.55-.65.93-.6 5.14-4.94.7-.97.42-1.29.11-1.5v-.12" class="D"/><g class="E"><path d="M41.01 271.98l-17.59 2.85-8.12 1.3m33.3-12.05l-24.26 3.94m.37-.09h-.01m16.97 4.34l.13.08.78.42.86.62.77.88.36.63m0-6.74l-3.24 1.96-.36.23-.24.2-.14.18-.04.19.2.18.09.53.36.75.6.72.86.62.78.88.61 1.07.41 1.18.18 1.19.44 10.24"/><path d="M41.67 272.27l-.48-.39m-.11-.18v.01l-.33-.61"/><path d="M41.08 271.71l.23.27m.19-.72l-.25.21-.15.18-.01.06m3.43 3.1l-.78.33"/></g><path d="M48.63 264.05l-23.93 3.88-.38.1-.34.21-.37.26-.54.33-.56.28-.53.21-.37.1-5.91 5.78-.27.42-.13.54.02.58.19.63 1.71 2.68.2.26.23.2.24.13 25.79 9.05m2.15-2.18l-.42-9.8-.17-1.19-.41-1.17-.26-.45" class="D"/><path d="M315.91 117.45l-.18.22-.37.12m1-2.57l.02.65-.11.78-.14.39m.14-2.48l-.07-.39-.25-.73-.34-.54m-.77-.32l.38.01.09.07" class="E"/><path d="M314.64 112.73l.2-.15.39-.04.39.02.38.3.34.54.04.13.22.6.14.84.03.86-.04.3-.07.48-.22.63-.31.39-.38.13-.39.03-.33-.13" class="D"/><path d="M319.08 117.45l.37-.12.31-.39.23-.63.1-.78-.02-.86-.15-.84-.26-.73-.33-.55-.39-.29-.33-.02" class="E"/><path d="M318.6 112.23l.35-.03.38.02.39.3.34.54.03.09.22.65.15.84.02.85-.1.79-.22.62-.32.39-.37.13-.39.03-.07-.02" class="D"/><g class="E"><path d="M284.3 229.72v-.49l.26-.85.48-.59.67-.28.76.08.79.41.72.72.59.93.37 1.05.13 1.05-.13.95-.37.73-.59.44-.72.1-.79-.25-.76-.57-.1-.12m-.06.74l.71.54.27.19.74.25.26.07.69-.07.24-.06.56-.39.18-.17.38-.66.1-.27.15-.87.02-.34-.09-.97-.08-.38-.31-.97-.17-.37-.51-.87-.23-.32-.64-.68-.29-.23-.7-.41-.3-.12-.69-.1h-.29l-.6.22-.25.13-.44.52-.18.24-.33 1.09m1.12-.37l.05-.17.48-.59"/><path d="M285.04 227.79h.01m5.52-3.4l-2.53 1.07-1.87.62-1.31.39m8.89 1.61l-2.53 1.07-1.88-1.72-.75-.73-.83-.49-.84-.21-.75.08-1.29.6-.05.03m3.32 7.04l-.53.07-.52-.17m1.09 1.17l-.17.02"/><path d="M288.04 225.46l1.3 1.97.66.91.51 1.07.32 1.13.1 1.08.29 2.23"/><path d="M289.34 234.48l.66-.36.51-.64.32-.86.1-1 .29-2.47m1.99-1.88l-.77-1.15-.89-.83m2.35 6.2l.13-1.18-.16-1.3"/></g><path d="M285.17 233.3l-.48-.6-.61-1.27-.33-1.34v-1.36l.34-1.11.05-.09.64-.78.05-.04.03-.24 2.53-1.07 1.88-.63 1.3-.38.98.9.14.1.75.73.65.9.12.25.54.81.12.93.05.2.11 1.1-.1 1-.03.18-.15 1.29-2.53 1.07-1.88.63-.57.25-.12.02-.46.07-.15.04-.02-.02-.32.05-.12-.03-1.02-.32-.99-.74-.05-.05-.35-.45" class="D"/><path d="M313.37 121.21l.8-2.56-.17-.87m1.87 4.57l.8-2.56-2.5-1.14m.56-.94l-.01.08.14.36.3.33.42.29.5.19.53.1.49-.03.41-.14.28-.24.12-.31-.04-.22m-1.2 1.67l2.14-.67" class="E"/><path d="M313.51 117.81l-.5 1.59.36 1.81 2.5 1.14 2.14-.67.8-2.56-.28-1.4" class="D"/><g class="E"><path d="M62.14 224.24l1.85-.31 2.04.61 1.98 1.44 1.73 2.13.99 1.56 1.3 1.59 1.49 1.09 1.53.45 1.39-.23 2.12-.95m-14.19-2.92l.11-.05.22.02m.59.04l.05.01.04.01m1.62 7.1l.12-.02.09-.07m.39-.31l.17-.13.06-.13m.3-3.05v-.01m.04.15v.02"/><path d="M73.52 232.35l2.32-.98m6.11-1l-.6.25.2.15m-.2-.15l-.25-.07-.23.04"/></g><g class="D"><path d="M57.88 254.71l-.08-.3-.01-.32.07-.27 2.96-6.57.77-2.68.13-3.1-.53-3.31-.67-2.67m21.84-5.54l-1.49.64-2.31 1.03-1.19.2-1.53-.45-1.49-1.09-1.3-1.6-.99-1.55-1.72-2.13-1.99-1.44-2.03-.61-1.86.3-2.32.99-1.48 1.17-.89 1.81m6.33 1.88l.13.07.22.21m1.74 5.01l-.01.07-.1.21"/><path d="M68.13 232.12l.03.07.01.07m-.55-1.41l.1.16.41 1.1m-.9-1.88l-.17-.27-.13-.12"/></g><g class="E"><path d="M42.52 292.55l.31-.21 10.16-10.27.39-.35.51-.39.57-.37.58-.34.53-.25 3.87-1.64.43-.15.28-.03.12.08-.69-1.09-.12-.08-.29.04-.42.15-3.87 1.63-.53.26-.58.33-.57.37-.51.39-.4.35-10.16 10.27-.12.09-.15.02-.15-.02-27.35-9.6-.16-.08-.15-.14-.13-.17-1.85-2.89-.28-.6-.1-.61-.62.63m.62-.63l.1-.55.28-.44"/><path d="M11.45 276.89l.03-.03m2.65 4.73l3.22-1.36m-1.19-8.1l.62-.63.22-.31.13-.38.02-.43-.43-5.66.12-1.18.54-.97"/><path d="M16.67 271.61l.11-.11m5.45-3.68l.15-.06.45-.5.21-.67-.05-.77-.3-.79-.53-.72-.69-.57-.78-.37-.79-.12-.71.15-.55.39-.17.31m23.61 27.19l-.14.06m12.23-10.21l-.69-1.08m6.53-1.49l-.7-1.09m.96 1.15l.59 2.5.12.08.28-.03.42-.15-.69-1.09-.38.14m1.07.95l.52-.25.57-.32.57-.37 9.95-6.96.56-.37.57-.33.52-.25 3.88-1.63.42-.15.29-.04.11.09m-18.65 9.49l.52-.25.57-.32.56-.37.67-.46"/><path d="M73.44 271.51l.7 1.08m4.75-3.27l.7 1.08"/></g><g class="D"><path d="M63.31 278.54l9.29-6.5.56-.37.57-.32.52-.25 3.87-1.64.43-.15.29-.04.11.09.69 1.09-.06.2-.25.29-10.16 10.27-.3.2-26.35 11.14-.37.07-.39-.07-27.34-9.6-.41-.21-.38-.33-.33-.43-1.85-2.89-.28-.6-.1-.61.1-.55.28-.44m24.8-10.83l-7.53.39-.44-.03-.45-.13-.45-.24-5.43-3.54-1.26-.6-1.28-.2-1.14.23-.89.63-.62.63-.54.96-.12 1.19.43 5.66-.02.42-.12.38-.23.32-4.68 4.73"/><path d="M18.6 266.25l-.19-.35-.18-.79.08-.73.16-.28.11-.08.7-.14.79.12.78.36.69.58.53.72.3.79.05.77-.19.6-.49.21-.75.01-.8-.24-.75-.48-.61-.66-.23-.41"/></g><path d="M133.1 129.88l.42-.21.36-.48.25-.68.13-.82-.01-.86-.16-.82-.14-.35-.14-.34-.37-.47-.43-.21" class="E"/><path d="M132.82 124.67l.19-.03.38-.01.42.21.38.48.1.24.18.44.15.82.02.86-.01.07-.12.75-.26.68-.36.48-.42.21-.37.01-.19-.03" class="D"/><g class="E"><path d="M118.2 134.62l1.99 5.39-7.1 10.02-.4-1.08m.4 1.08l4.65-.1-1.83 2.58m-2.5-1.1l1-1.41m-1.01-4.59l.02.05.2.4.25.25.28.07.27-.1.24-.28.18-.42.09-.51.01-.55-.09-.53-.16-.46-.23-.32-.27-.17-.28.02-.26.19-.21.36-.14.47-.05.54.04.55.11.44m5.17 4.5l-.83.02m-.02-4.52h.18l.23-.04.24-.08.2-.11.17-.13.1-.14.02-.14-.05-.1-.12-.08-.18-.03-.22.02-.24.06-.22.1-.19.12-.13.14-.06.14.01.12.09.09.15.06h.02m-.47-4.06l-.25-.25-.21-.39-.12-.5-.04-.55.05-.54.14-.47.2-.35.26-.2.28-.02.27.17.23.33.17.45.09.53-.01.55-.1.51-.17.42-.24.28-.27.11-.28-.08m2.94-1.34l7.57-.16m-5.11-1.46l2.13-3 2.5 1.09-2.13 3.01-2.5-1.1-.85-2.28 1.13-1.6m1.01-1.41l.84 2.29"/><path d="M125.15 139.49l1.66-1.19.25-.36m.22-1.46l1.28-.92"/></g><path d="M128.79 135.5l-1.73 2.44.7 1.91-7.11 10.01-2.08.05-1.01 1.41-1.65 1.19-2.5-1.1-.85-2.28.13-.18-1.59-4.31 7.1-10.02 4.73-.11 1.01-1.41.54-.39" class="D"/><g class="E"><path d="M144.22 127.31l-.14.14-.25.12-.33.07-.37.02-.36-.03-.32-.08-.24-.11-.13-.15m-.01-9.89l.01.16.13.14.24.12.32.08.36.03.37-.02.33-.08.25-.11.14-.15.02-.15m-1.92.14l.08.09.19.1.26.06.29.03.29-.02.23-.05v-.61l-.27-.05-.29-.01-.29.03-.25.06-.18.1-.09.12v.13l.03.02m1.34.21l.03-.01.2-.09.12-.12.02-.12-.08-.12-.17-.11"/><path d="M143.78 117.72v-.52m-.12-.04l.12-.07"/></g><path d="M142.07 126.09v1.04l.01.16.12.19.12.13.21.1.28.07.33.03.32-.02.29-.07.22-.1.13-.13.12-.18.02-.16v-1.56m-2.17-7.8v-.39l.12-.15.22-.12.31-.09.36-.04.37.02.33.07v.11l.15-.06.21.13.1.15v.24" class="D"/><g class="E"><path d="M302.31 194.11l-.14.14-.24.12-.32.08-.37.02-.36-.02-.32-.08-.25-.12-.14-.14m.28-10l-.08.12.01.13.12.11.19.1.26.06.29.02.29-.03.19-.04v-.61l-.27-.05-.29-.01-.29.03-.24.07-.18.1m-.3.11l.02.16.14.14.25.12.1.02.22.05.36.03.37-.03.32-.08.24-.11.04-.04.1-.11.02-.15"/><path d="M301.84 184.54v-.53l.18.1.09.12-.01.12-.11.12-.2.09-.07.02m0-.61l.13-.08"/><path d="M301.84 184.01h.01"/></g><path d="M300.15 192.9v1.05l.02.16.12.19.13.12.21.11.29.07.32.02.33-.03.28-.06.22-.11.12-.13.12-.18.02-.16v-1.55m0-7.67v-.51l-.11-.15-.22-.13-.15.07v-.12l-.34-.06-.37-.02-.36.05-.3.08-.22.13-.11.15v.28" class="D"/><g class="E"><path d="M306.55 140.13l.23 1.79-.8 2.56m.8-2.56l2.44 1.21-.8 2.56"/><path d="M308.12 141.76l.12.1.03.02m-.51-.93l-.04.1.01.03m.06.28l-.02-.03-.02-.11m.13.28l.07.11.02.02m1.25 1.5l2.23-.58"/><path d="M309.28 142.19l.17.01.03-.01m.18-.03l.15-.03.03-.01m-.98.01l.18.04.03.01m-.42-.11l-.03-.01-.16-.08m1.79-.25v.03l-.07.09m-.11.14l.02-.01.01-.01"/></g><path d="M310.65 140.47l.57.29.23 1.79-.81 2.56-2.22.58-2.44-1.21-.23-1.79.8-2.56 1.59-.42" class="D"/><path d="M295.93 173.74l.39.19.36.46.04.09m-.16 4.35l.15-.1.28-.48.18-.7v-.01m-.25-2.58l.05.1.19.81.07.86-.02.23" class="E"/><path d="M296.5 178.95l.25-.02.35-.23.28-.49.18-.69.06-.82-.07-.87-.19-.81-.29-.67-.36-.45-.39-.2-.39.04-.11.02" class="D"/><path d="M300.62 174.59l.12.31.16.83.05.86-.09.8-.21.65-.3.43-.37.17" class="E"/><path d="M300.97 174.44l.16.42.16.83.05.87-.09.8-.21.65-.3.43-.37.16-.39.04-.08-.03" class="D"/><g class="E"><path d="M113.66 152.88l.28.13.49.08.13-.02.2.06-.06.02-.5-.01-.26-.06-.27-.1-.49-.3-.05-.05m-.84-1.5l.11.2v.01l.11.47.27.47.25.25"/><path d="M112.83 152.21l-.13-.18-.19-.45v-.04l.56 1.07 1.49.46"/><path d="M113.07 152.61l.71-1 .22.06m-1.08.65l-.09-.11m-.43-.88l.11.21m.15-2.06l.1.19"/><path d="M113.78 151.61l-.02-.04m-.44 1.12l.13.09.21.1m1.81.47l.71-1-.04-.01m-1.38.79l.32.1m1.1-.88l.12-.12"/></g><path d="M112.29 151.13l-.34-.65.71-1 .02-.02m4.18 2.37l-.1.14-1.29 1.38-.39-.12" class="D"/><path d="M128.57 130.09l.33.34.46.3.5.18.49.02.42-.12.31-.26m-2.38-.46l.27.27.42.28.46.15.45.03.38-.11.28-.24.1-.14-.53-.07-.69-.29-.05-.04m1.27.4l.11.01m2.93-2.17h0" class="E"/><path d="M134.1 128.17l.07-.78-.05-.8-.08-.28-.11-.44-.29-.58-.37-.36-.15-.09-.53-.3-.2-.08-.76-.21-.73.01-.55.19-.64.26m4.39 3.46l-.2.69-.3.51-.38.28-.18.12-.58.38-.74.14-.51.05h-.04l-.09.21-.25.35" class="D"/><g class="E"><path d="M181.34 108.19l1.86.79-.35.88-.18.91.02.85 1.29 8.85.43 1.75.72 1.48 20.92 32.09.28.66 1.35 5.25.07.14.1.09"/><path d="M193.09 104.2l-.6-.1-.65.16-6.86 2.9-.66.41-.62.62-.5.79m5.33.11l.34-.14.62.01.52.3.36.55.16.75-.05.82v.04l-.27.89-.44.81-.58.64-.65.42-.65.13-.58-.15-.44-.44-.15-.36m9.75-3.08l.1.15 1.23.65 1.46-.02m0 2.98v-1.58m10.85 23.81l-.59.25-.43.1-.39-.05-.33-.21-.24-.35-.18-.4"/></g><g class="D"><path d="M209.84 118.51l-5.75 2.42-.51.33-.46.52-.35.65-.19.71-.03.68.16.57 5.24 11.22.3-.13 1.86.79v22.84l-1.55 2.64-.43.19-.15.03-.13-.04-1.86-.78-.1-.09-.07-.15-1.35-5.25-.28-.66-20.92-32.09-.72-1.47-.43-1.76-1.29-8.84-.02-.86.18-.91.35-.88.5-.79.62-.62.66-.41 6.86-2.9.65-.15.6.09 1.86.79.5.34.36.55 1.75 4.09.77 1.1.93-.01 1.86.79v1.4"/><path d="M187.33 112.98l-.61.38-.12-.3-.05-.81.16-.89.36-.86.52-.74.62-.53.32-.14.14.69-.05.86-.27.88-.44.81-.58.65"/></g><g class="E"><path d="M166.15 101.77l1.86.79.51-.79.61-.62.66-.41 6.86-2.9.65-.15.6.09m-9.89 4.78l-.35.88-.18.91.02.85 1.3 8.85.42 1.75.73 1.48 20.91 32.09.28.66 1.36 5.25.06.14.1.1"/><path d="M173.34 102.67l.34-.14.62.01.52.3.36.55.16.75-.05.87-.27.88-.44.81-.58.65-.65.41-.65.13-.58-.15-.44-.44-.15-.35m9.75-3.08l.1.14 1.23.65 1.46-.02"/></g><g class="D"><path d="M194.92 140.78v11.91l-1.55 2.65-.43.18-.14.03-.14-.03-1.86-.79-.1-.09-.06-.15-1.36-5.24-.28-.67-20.91-32.08-.73-1.48-.42-1.76-1.3-8.84-.02-.86.18-.9.35-.89.51-.79.61-.62.66-.41 6.86-2.89.65-.16.6.09 1.86.79.5.34.36.55 1.76 4.09.76 1.11.93-.02 1.86.79v1.33"/><path d="M171.45 106.73l.08.22.61-.39.58-.65.44-.81.27-.88.05-.86-.14-.69-.32.14-.62.53-.52.74-.36.86-.16.89.05.81.04.09"/></g><g class="E"><path d="M265.45 236.96l1.86.78m-1.68-10.27l1.86.78"/><path d="M269.75 240.19l-.8-.45-.83-.71-.61-.77-.39-1.04-.13-1.22v-5.22l.2-1.69.6-1.68.92-1.49 11.25-14.37 1.03-1.05 1.12-.69 3.48-1.47m-15.93 26.86l.21.42.54.41.68.09.73-.23.72-.53.61-.78.46-.94.24-.99.03-.49-.03-.46-.24-.79-.46-.56-.61-.25-.72.07-.05.03"/></g><g class="D"><path d="M285.59 226.16v-17.82l-1.86-.78-3.48 1.46-1.12.69-1.03 1.06-11.25 14.36-.92 1.5-.6 1.68-.2 1.68v5.22l.13 1.23.39 1.03.61.77.83.71.8.45 1.86.79.94.1 1-.25 13.9-5.87v-.36"/><path d="M269.67 235.2h-.01l-.14-.27-.12-.88.12-.98.35-.98.54-.87.68-.66.68-.36.22.72v.94l-.24 1-.46.93-.61.78-.72.53-.29.1"/></g><g class="E"><path d="M161.22 172.33v5.96m0-5.67l.42.55.81.47 3.92 1.66.52.16.6.09.63.01 15.24-.58.73-.09v.24m-18.53-1.8l.14.1.72.26.87.14.94.02.9-.11.76-.23.55-.33.26-.38-.04-.39-.34-.37-.6-.3-.81-.21-.92-.08-.93.05-.84.18-.36.12-.3.16-.42.35-.11.4.19.38.34.24"/><path d="M167.19 175.5v5.96m16.9-.61v-5.02m.08-.96l-.08.02m20.98-8.78l-4.39 1.85"/></g><g class="D"><path d="M210.07 169.95l-25.36 10.72-.62.18-.73.09-15.24.58-.63-.01-.6-.09-.52-.16-3.92-1.66-.81-.47-.42-.55v-.69.69"/><path d="M161.22 177.89v-5.85m0 0l.42-.55.81-.47 19.43-8.21"/></g><g class="E"><path d="M215.38 201.83v-5.96m-.14-.39l.03.26.22.26.38.21 3.92 1.66 1.11.34 1.31.18h1.37l1.3-.18 1.11-.34 24.06-10.16"/><path d="M219.81 194.91l-.25.14-.27.38.04.4.34.37.61.3.8.2.92.08.93-.05.85-.17.35-.13.31-.15.41-.36.12-.39-.2-.39-.48-.34-.71-.25-.88-.15-.93-.01-.9.11-.77.23-.29.18m3.08 9.44v-5.96"/></g><path d="M217.86 188.21l-.6.26-.44.26-.2.31-1.38 6.44v5.95l.03.27.22.26.38.21 3.92 1.66 1.11.34 1.31.18h1.37l1.14-.15.16-.03 1.11-.34 31.11-13.14" class="D"/><g class="E"><path d="M185.24 176.85l-1.17-1.04"/><path d="M184.14 175.87l-.01-.01m1.16 1.04l-.11-.11-.04-.18.05-.24 6.13-19 .23-.44.34-.27.42-.09.47.1 14.51 6.14.47.29.42.44.34.56.23.63.55 2.16M191.44 155l-.26.06"/><path d="M205.73 160.56l-12.36-5.22m12.48 13.01l.79-2.46.18-.96-.15-.72-.45-.44-.61-.09m10.91 25.86l-.17-.12-.19-.24-.11-.31-6.14-24.19-.41-1.13-.61-1.01 1.82-.77m-1.82.77l-.63-.66m8.2 27.62l-1.16.05"/></g><path d="M191.38 154.97l-.2.09-.62.49-.4.78-6.14 19.01-.04.23.04.19.11.1 1.16 1.04.18.03.23-.07 13.95-5.89.79-2.46.48-1.08.74-1.11.92-1.01 1.01-.83 1.01-.57.91-.24.1.01.04.22-.17.95-.8 2.46 1.17 1.04 3.45-1.46m7.19 22.76l-.82.04-.26-.06-.23-.16-.18-.24-.12-.31-5.58-22.03" class="D"/><path d="M58.82 234.84l.77.27m.27.23l-.54-.46-.37-.7-.15-.89-.06-1.26-.03-.76.08-.98.29-.99.49-.88.62-.71.72-.45.46-.2.1-.02.09.02m-2.24 1.8l-.77-.27m1.46 3.79l.04.08.22.18.19.05" class="E"/><path d="M60.09 232.35l-.04.02-.04.01-.11-.2-.06-.36.03-.39.09-.3.03-.09.19-.36.25-.28.29-.18.77-.33.1-.06.08-.09.07-.12.04-.13.01-.13-.09-2.02-.02-.12-.05-.1-.07-.06-.78-.27-.09-.02-.09.02-.47.2-.71.45-.63.7-.48.89-.3.99-.07.98.08 2.02.16.89.37.7.54.46.77.27.67.15.72-.15.14-.06" class="D"/><g class="E"><path d="M75.81 231.34l-.04-.41-1.01-3-.88-1.48-.46-.32-.92-1.07-.46-.98-.91-.94-2.23-1.27-2.19-.31-1.92.69-1.24 1.39m1.3-1.65l1.96-.7 2.24.32 2.28 1.3.57.58-.1-.76.29-1.02 1.5-2.11m-2.6 6.21l.33.26 1.29 1.71.36.76m-.93-4.46l-.09-.19-.05-.4"/><path d="M76.13 231.45l-.06-.58-1.03-3.07-.54-.91-.62-.44m7.24 3.93l-.68-3.09-.62-1.37-.61.86-.87.6-1.14.25-1.3-.15-1.3-.52-.1-.07"/><path d="M79.82 225.92l.02-.03"/></g><path d="M99.16 183.56L73.59 219.6l-.88-.31-2.13.19-5.73 2.51-1.47 1.64-.03.1m42.96-35.14l-26.47 37.3.62 1.36.66 3.03v.2" class="D"/><g class="E"><path d="M285.79 172.26l-46.81-19.78m8.59 34.09l16.27 6.88"/><path d="M298.27 166.33l-11.29 4.77-.53.33-.47.51-.38.64-.24.72-.08.71v19.73"/></g><path d="M263.85 193.54l-16.34-6.91m49.57-29.77l-34.23-14.47" class="D"/><g class="E"><path d="M103.86 170.77l.63-.02.32.2.31.47.28.7.24.84.14.9v.86l-.19.72-.36.52-.51.25-4.07.09.43-.25.19-.22.18-.29.25-.73.12-.86-.02-.9m-1.15 3.25l-.46-.05-.07-.05m32.86-46.34l.08.07.46.04 4.07-.09.51-.25.37-.51.18-.73v-.86l-.14-.9-.23-.84-.28-.69-.31-.48-.33-.19-1.51.03"/><path d="M133.52 129.97l.43-.24.37-.52.26-.73.12-.86-.03-.9-.17-.84-.31-.7-.39-.47-.45-.19m5.03-2.98l-.22 1.28.5 2.35 1.32 2.32 1.98 2.03 2.44 1.53 1.26.41"/><path d="M139.41 124.38l.08.39 1.22 2.15 1.83 1.88 1.09.68m5.41-17.6l-.38-.3-2.24-.8-2.08.19-1.7 1.17-.4.7m2.17-2.14l2.13-.19 2.29.82.67.53m5.36-1.7l.02.01m.79.83l-.9-.93"/></g><path d="M123.78 171.42l-11.5 16.15-1.89 1.04-2.39.29-2.63-.48-2.57-1.21-2.24-1.81-1.68-2.21-.91-2.36-.07-2.27.78-1.9m14.95-21l-10.01 14.05M138.31 121l-2.46 3.46-2.5.06-.45.1-.05.05M155.68 111l-.91-.93-2.28-1.3-2.25-.32-1.96.7-3.87 1.55-1.74 1.19-.56 1" class="D"/><path d="M149.23 114.92l-1.43-.6" class="E"/><path d="M165.97 106.65l-18.17 7.67v21.64" class="D"/><g class="E"><path d="M287.29 195.57v-22.3l-1.55-.65m1.55.65l10.15-4.29m-.73 32.37l.28.38.12.54-5.33 2.26m5.03 4.86l.83.08.49.48.1.83-.32 1.1m4.4-14.99l-.09.87-.29 1.07-.48 1.01-.25.75-.33.58-1.13.89-1.04.57-.9.24-.65-.13-.04-.47"/><path d="M297.31 201.19l1.41 1.43m1.44-2.17l.71.72m.35-.63l9.88-4.18"/><path d="M301.45 199.84l-.78-.33m5.04-34.02l-1.57.66"/></g><g class="D"><path d="M297.92 167.47l-12.18 5.15v21.4m25.42 1.21v.51l-.06.62-.16.55-3.99 9.28-3.31 3.26-5.73 2.43-1.4-1.44.3-1.05h-.02l-1.12.32-1.09.59"/><path d="M300.62 197.3l-.24.87-.48 1.02-.28.39-.16.15-1.13.9-1.04.57-.58.15-.19-.24-.04-.12"/></g><g class="E"><path d="M300.59 178.66l.35-.32.27-.57.15-.77.02-.88-.11-.89-.23-.81m2.34-1.48l.62-.06.29.13.33.41.35.64.33.8.23.88.09.87-.11.77-.31.58-.46.32-3.85.35m6.3 17.12l.93.2 1.98-.5 1.54-1.45.92-2.24.21-2.77-.53-3.02-1.07-2.6 2.33.17 1.11-.19-.74.12-2.76-.2-2.77-.8-2.49-1.31-1.92-1.69-.65-1.05m.65 1.05l.38.37 1.78 1.56 2.29 1.21 2.57.74.22.02"/><path d="M308.5 182.65l1.03 1.48.85 2.07.38 2.12-.04.52m-.37 6.74l1.57-1.48.51-1.23m-.92-9.47l1.03 2.48.54 3.09-.16 2.11m1.69-7.73l.46-.08m4-71.2l.4.12.39.4.33.64.23.81.11.9-.02.87-.15.77-.27.58-.35.32m2.75-5.72l.66-.06.3.13.33.4.34.65.33.8.24.88.08.87-.11.76-.31.58-.46.33-3.16.29m13.3-9.37l-.82-.15-2.67-1.08-2.23-1.52-1.56-1.8-.36-.95-.36-.95.19-1.77m7.5 7.23l-.26-.05-2.47-.99-2.06-1.41-1.45-1.67-.66-1.75.18-1.64.44-.6m3.81 4.22l-.13-.11-.26-.43m.8.9l.32.28"/></g><path d="M300.89 178.63l-.7.06-.1-.06m1.88-5.56l1.41-.13 2.48-7.93m6 29.92l-1.51.65-2.03.51-1.28-.28m3.01-44.21l10.68-34.21-1.39.11-.1-.06m7.96-18.95l-.98 1.31-3.73 11.96-3.42.31-.34.15" class="D"/><path d="M164.63 180.52l-.89.57m6.88-23.43l.29 9.78" class="E"/><path d="M164.86 180.61l-1.12.48-.56.09m8.99-24.18l.29 9.79" class="D"/><g class="E"><path d="M157.06 166.3l2.97-1.25 1.43-.9 1.27-1.41.98-1.77.14-.45"/><path d="M161.98 161.4l1.24.46"/></g><path d="M162.19 179.45l-12.24 5.17m12.1-23.34l-.56 1.01-1.27 1.4-1.43.9-2.88 1.22m12.1 2.86l-.32-9.77" class="D"/><path d="M132.5 179.75l-91.21 92.2m103.36-82.8l-88.72 89.69m106.69-99.17L151 184.58l-.64.13-.45-.05m8.18-19.77l-.08-.04-.36-.04-.32.07-1.26.53" class="E"/><path d="M132.3 179.48l-91.2 92.19m33.11-.56l89.86-90.83m-4.93-15.9l-.43-.33-.72-.31-.5-.06" class="D"/><g class="E"><path d="M134.49 181.61l1.86.79m-1.68-10.28l1.86.79"/><path d="M138.79 184.84l-.8-.45-.83-.71-.62-.77-.38-1.03-.13-1.23v-5.22l.2-1.68.6-1.68.92-1.5L149 156.21l1.02-1.06 1.13-.69 3.47-1.47m-13.81 21.86l.05-.03.71-.07.62.26.46.55.23.79.03.46-.03.49-.23.99-.46.94-.62.78-.71.53-.73.24-.68-.1-.54-.41-.22-.42m15.93-13.53v1.57l3.1-1.31"/></g><g class="D"><path d="M134.3 181.09l-.13-1.23v-5.21l.2-1.69.6-1.68.92-1.5 11.25-14.36 1.03-1.05 1.12-.69 3.47-1.47 1.86.78v13.33l1.24-.52 1.86.78-1.98 7.85-.68 1.87-1.03 1.69-1.26 1.34-1.4.86-10.64 4.5-1 .25-.94-.1-1.86-.78-.8-.45-.83-.72-.61-.76-.39-1.04"/><path d="M138.54 179.44l.02.15.13.26.31-.09.72-.54.61-.77.46-.94.23-1v-.94l-.21-.72-.68.36-.68.67-.54.86-.35.98-.12.99.1.73"/></g><path d="M294.59 210.33l2.22-.93" class="E"/><path d="M294.65 210.46l2.11-.89m-90-76.5l5.35-2.26" class="D"/><g class="E"><path d="M285.3 232.76l.57.43.58.21.54-.06.44-.31.29-.53.11-.7-.08-.78-.27-.78-.42-.7-.53-.54-.59-.33-.57-.07-.5.19-.37.43-.2.62-.01.74"/><path d="M284.29 230.38h0m.01-.86v-.02m.68-1.23l.58-.22.67.09.69.38.62.64.5.82.31.92.1.91-.03.22-.1.59-.34.63-.51.36"/></g><path d="M284.29 230.58l.18.79.35.76.48.63.18.17.66.52.69.23.64-.07.67-.28m-3.85-2.75l.01-1.06m0-.02l.24-.73.44-.5.67-.28" class="D"/><path d="M337.72 86.3l-.23-.26-2.21-1.43-2.22-.5-1.98.51-1.54 1.45-.08.18m1.68-1.89l2.03-.52 2.26.5 2.27 1.47.43.49" class="E"/><path d="M329.38 86.28l.18-.44 1.58-1.48 5.77-2.42 2.18-.01 2.3 1 .19.15" class="D"/><path d="M349.2 59.25l-41.35 150.5m48.88-129.9l-39.58 144.1" class="E"/><path d="M349.16 59.17l-41.37 150.6M374.37 72.1l-41.12 149.67-.27.43-.48.31-14.88 6.29-.66.17-.77.01-.24-.04" class="D"/><path d="M334.06 222.64h0m-.59-1.65l-.01.01" class="E"/><path d="M315.56 230.46l18.5-7.82-.59-1.65-.01.01" class="D"/><g class="E"><path d="M338.99 86.3l-.09.09-2.05.89-2.34.01-4.11-.73-1.91.1m2.78 4.65l.21.04m-.88-.14l.02-.01h.03m3.25 6.33l-.29.48-.09.05m.49-.71l-.06.1"/><path d="M333.78 93.79v-.01"/></g><g class="D"><path d="M334.01 114.31l.2-4.2-.16-2.03-.65-2.05-1.06-1.87-1.37-1.47-1.27-1.04-1.82-1.96-1.42-2.48-.86-2.74-.22-2.69.07-.34m17.86-10.98l-2.79 4.23-1.53 1.61-2.16.01-4.1-.73-1.92.1-2.32.98-1.58.99-1.08 1.77-.09.5"/><path d="M331.83 91.55l-.33-.2h-.02m.87.51l.03.03.3.31m.47.51l.03.03.17.29m.74 4.16l-.01.04-.07.12m.21-.87l.06-.28-.01-.05m-.1-1.17l.01.04.03.32m-.43-1.55l.02.04.02.07"/></g><path d="M335.63 213.11l.1.55.12 1.6-.19 1.45-2.14 8.39-.5 1.21-.76.89-.98.49" class="E"/><path d="M336.65 209.4l.63 3.6.12 1.6-.19 1.46-2.14 8.38-.5 1.21-.76.89-.98.5-1.55.65-10.57 2.89-2.74.08-1.51-.58" class="D"/><g class="E"><path d="M324.92 90.41l.25-.01.52-.1 1.37-.34.76-.2.9-.28.97-.33.94-.35.82-.33.47-.19.08-.04.05-.03v-.01"/><path d="M328.48 89.08l.02.07"/><path d="M328.57 89.33l-.06.02-.39.13-.36.11-.3.08-.21.04h-.1l.03-.04.14-.08.25-.11.77-.33.08-.04.05-.02.01-.02m1.08 1.27l-.35-1.03m1.08-.67h0m2.12.6l-.36-1.03"/></g><path d="M328.57 89.33l.32-.12.33-.13.77-.33.11-.05.13-.04.13-.05.12-.03.1-.03 1.37-.34.07-.01h.03l.36 1.03-.01.02-.04.02-.09.04-.46.2-.82.32-.94.35-.97.33-.73.22-.18.06-.75.2-1.37.34-.53.11h-.24l-.36-1.03.06-.11.35-.2.62-.28.47-.2.11-.04.12-.05.13-.04.12-.04.1-.03 1.38-.33.07-.02h.03l.03.08" class="D"/><g class="E"><path d="M342.46 21.32l.28-1.02.19.44.38.42 2.36 1.95.37.37.31.47.23.52 12.64 36.48.14.54.03.53-.07.48-4.58 16.7-.07.49.09.38.24.23m-12.26-60l.02-.42"/><path d="M346.19 23.71l26.35-11.13m-25.29 2.96l.08-.07.19-.25.08-.3-.04-.32-1.25-4.16-.04-.9m6.64 2.36l.23-.23.13-.52-.16-.57-.44-.56-.65-.47-.82-.36-.88-.18h-.06l-.79-.01-.73.19-.53.35-.27.47.02.53m6.03 68.91l.89.73m4.5-18.42l26.34-11.14m-11.34 21.5l-.24-.22-3.16-5.47-.24-.22-.37-.05m3.14 5.22h-.02"/></g><g class="D"><path d="M342.51 20.8l-.03.1-.02.42.19.44.38.42 2.36 1.95.15.15.12.18.09.21 12.64 36.48.06.22.01.21-.02.19-4.59 16.69-.07.5.09.38.24.23.89.73.36.06.46-.12 3.87-1.64.5-.28.49-.41.44-.51 7.38-9.92.45-.51.49-.42.49-.28.44-.11 2.88 5 .24.22.89.74.36.05.45-.12 3.88-1.64.5-.28.5-.43.44-.52.35-.56.22-.56 4.59-16.69.07-.48-.04-.53-.13-.55-12.64-36.48-.24-.52-.31-.46-.36-.38-2.36-1.95-.54-.35-.64-.24-.68-.13-.65.02-7.88 1.11-.48.02-.5-.05-.5-.12-6.25-2.05-1.42-.31-1.38-.01-1.18.29-.86.57-.43.77-.28 1.02.04.9 1.22 4.08-4.25 3.99-.24.35-.25.92"/><path d="M348.26 11.13l-.3-.57v-.02l.5-.34.73-.18h.85l.88.19.82.35.65.48.44.56.08.3-.18.19-.64.27-.8.09-.87-.1-.86-.27-.75-.42-.55-.53"/></g><path d="M295.99 213.22l15.45-4.22.44-.01.47.17.46.35 1.55-.65m-1.55.65l.39.5.19.37.11.22.18.63 1.9 10.94.13 1.6-.19 1.46-2.15 8.38-.5 1.21-.76.89-.98.5" class="E"/><path d="M295.89 213.01l17.1-4.66.44-.02.47.18.46.35.39.49.3.59.18.64 1.9 10.94.13 1.6-.19 1.45-2.15 8.39-.5 1.21-.76.89-.98.49-1.55.66-10.57 2.88-2.74.09-.95-.37" class="D"/><path d="M341.93 82.56l-1.45-.26-.48.03" class="E"/><path d="M339.38 82.06l1.51-.64 1.85-.1" class="D"/><path d="M348.78 58.1l-1.53-18.7-1.14-13.7m2.62 32.06l-1.48-17.92" class="E"/><path d="M347.25 39.84l-1.17-14.22m12.34 35.61l-5.09 1.24-.83.02-.89-.31-.86-.63-.76-.89-.62-1.08-.52-.98-.16-1.07-1.44-17.65" class="D"/><path d="M152.61 108.83l9.39-.5" class="E"/><path d="M152.03 108.7l.77-.32 1.68-.5 9.84-.54" class="D"/><path d="M149.4 114.62l24.1 10.19m8.38 34l-15.28-6.45m34.73 14.45l.02.15.13.14-.26-.11m.26.11l.11.13m3.83-2.21l-2.6 1.1-.23.06-.18-.03-.1-.12-.04-.2.05-.24" class="E"/><path d="M166.01 106.94l-15.42 6.52-.52.33-.48.51-.38.64-.24.72-.08.71v19.73m32.99 22.79l-15.32-6.47m38.52 13.65l-2.6 1.1-.5.13-.39-.07-.42-.18" class="D"/><path d="M151.92 112.58l-9.84.54-1.68.5m5.16 11.42l.16-.02.14-.11m.61-.57l-.09.18-.14.1" class="E"/><g class="D"><path d="M154.25 111.6l-9.85.53-1.68.5-2.32.99-1.31 1.25-.81 1.9-.24 2.35.04.24.32 2.33.93 2.56 1.4 2.29 1.73 1.8 3.66 3.57 1.68 2.33"/><path d="M146.84 123.47l-.03.22-.09.17m0-2.67l.09.24.03.25m-.37-1.19l-.09-.24-.14-.22"/></g><g class="E"><path d="M296.68 238.89l1.72-1.54 1.08-2.38.33-2.99-.45-3.29-1.19-3.27-13.27-27.38-.85-1.38-1.05-1.1-1.15-.72-13.38-5.65-1.46-.32-1.31.32"/><path d="M283.53 196.11l3.1-1.31m12.31 41.36l3.1-1.31"/></g><path d="M283.67 234.98l.22.23 1.16.71 7.02 2.97 2.43.53 2.18-.53 3.1-1.31 1.72-1.54 1.08-2.38.33-2.99-.02-.19-.43-3.1-1.19-3.27L288 196.73l-.85-1.38-1.05-1.1-1.15-.72-13.38-5.65-1.46-.32-1.31.32-3.1 1.31-1.03.92-.65 1.43-.2 1.79.27 1.98.72 1.96 3.91 8.08M304.1 209l.76 1.56" class="D"/><g class="E"><path d="M297.68 184.1l.32.41.6.36 1.55.65.84.26.97.13h1.03l.98-.13.83-.26.47-.2.08-.04.04-.06m-7.71-.17v.04m0-1.38v-.04m3.07 1.15l-.29-.09-.24-.14-.12-.16v-.18l.12-.16.24-.14.78-.33.08-.05.04-.05v-.06"/><path d="M301.36 183.49v.33m1.12 3.08v-.99m2.91.3h0m0-1.02v.01"/></g><path d="M300.75 184.82l.05.02.39.05h.41l.39-.05.33-.11.78-.32.11-.04.13-.02h.14l.13.02.11.04 1.55.65.08.05.04.05v1.05l-.04.06-.08.05-.47.19-.83.26-.98.13h-1.03l-.97-.13-.84-.26-1.55-.65-.6-.35-.32-.42m0-1.38v1.34m0-1.38l.32-.42.6-.35.47-.2.11-.03.13-.02h.14l.13.02.11.03 1.55.66.08.05.04.05v.36" class="D"/><g class="E"><path d="M143.92 137.43l1.05-.21 1.15.26 13.37 5.65 1.46.92 1.32 1.43 1.03 1.79.64 1.98.2 1.96-.27 1.74-.71 1.36-8.54 10.39"/><path d="M147.54 136.02l-3.1 1.31"/><path d="M147.02 136.12l-.01.01m19.71 10.82l-3.1 1.31"/></g><path d="M155.69 165.87L166.26 153l.71-1.36.27-1.74-.2-1.96-.64-1.98-1.04-1.79-1.31-1.43-1.46-.92-13.37-5.65-1.16-.26-1.04.21-3.1 1.31-.85.67-13.28 16.16-1.18 2.27-.46 2.91.23 2.28" class="D"/><g class="E"><path d="M227.75 185.75l.02-.15 8.18-31.22.06-.13.09-.1v-.31"/><path d="M236.1 154.15l.13-.07.14-.02h2.3.97l.14.02.13.07v-.31m8.35 31.91l-.02-.15-8.18-31.22-.06-.13-.09-.1"/></g><path d="M227.82 185.94l-.03-.04-.04-.15v-.3l.02-.15 8.18-31.22.06-.13.09-.11.13-.06.14-.03h3.27l.14.03.13.06.09.11.06.13 8.18 31.22.02.15v.3l-.04.15-.09.12-2.48 2.44-.1.07-.1.05-.11.01h-14.66l-.12-.01-.1-.05-.09-.07-2.49-2.44-.06-.08" class="D"/><g class="E"><path d="M124.11 177.22l1.86.79m-1.68-10.28l1.86.79"/><path d="M128.41 180.46l-.8-.45-.83-.72-.62-.77-.39-1.03-.13-1.23v-5.22l.21-1.68.59-1.68.93-1.5 11.24-14.36 1.03-1.06 1.12-.68 3.48-1.47m-13.82 21.85l.06-.03.71-.07.62.26.45.55.24.8.03.46-.03.48-.24 1-.45.93-.62.78-.71.54-.74.23-.67-.1-.55-.41-.21-.41"/></g><g class="D"><path d="M144.24 159.12v-10.51l-1.86-.79-3.48 1.47-1.12.69-1.03 1.05-11.24 14.37-.93 1.49-.59 1.68-.21 1.69v5.21l.13 1.23.39 1.04.62.77.83.71.8.45 1.86.79.93.1 1.01-.26 3.82-1.61"/><path d="M128.62 175.37l-.31.1-.14-.27-.12-.88.12-.98.35-.98.55-.87.67-.67.68-.36.22.72v.95l-.24.99-.45.94-.59.74-.03.03-.71.54m12.4.42l-2.06.87"/></g><path d="M303.66 167.7l.07.05.99.9m1.04 27.68l-.98 1.1-.1.1" class="E"/><path d="M307.57 195.93l-.46.51-.1.1-2.33.99-.13.03-.16-.03-.83-.35-.14-.09-.13-.14-.1-.18m-.09-27.3v3.49m.63-5.5l1.57-.67" class="D"/><g class="E"><path d="M139.29 116.94v.02m0 .2l.32.41.6.36 1.55.65.83.26.98.13h1.03l.98-.13.83-.26.46-.2.09-.04.04-.06m-4.03-1.76v.06l-.04.05-.08.05-.78.33-.24.14-.13.16v.18l.13.16.24.14.28.09"/><path d="M144.09 119.96v-.99m-1.12-1.95v-.46m4.03 2.7v.01m0-1.03v-.02"/></g><g class="D"><path d="M139.29 118.1v.05"/><path d="M147 119.27l-.04.06-.09.05-.46.19-.83.26-.98.13h-1.03l-.98-.13-.83-.26-1.55-.65-.6-.35-.32-.42v-1.42m0 .02v-.02l.32-.42.6-.35.47-.2.11-.03.13-.02h.13l.13.02.12.03 1.55.66.08.05.04.05"/><path d="M142.35 117.88l.05.02.39.05h.42l.39-.05.33-.11.78-.32.11-.04.13-.02h.13l.13.02.11.04 1.55.65.09.05.04.05m-4.03-1.2v-.49m4.03 1.71v1.02"/></g><path d="M234.77 95.9l-.86.2-1.55 1.32-.99 2.07-.21 1.62" class="E"/><path d="M220.96 87.53v14.3m20.28-4.34l-3.23-1.37-2.16-.47-1.08.25-1.17 1-.99 2.07-.24 1.85m31.67 41.06v1.02" class="D"/><path d="M180.53 140.35l-.35-.34-.2-.51-1.56-7.14" class="E"/><g class="D"><path d="M181.88 140.19l-.4.17-.5.11-.45-.12-1.24-.53-.35-.33-.2-.51-2.01-9.21m28.71.47l6.88-2.91"/><path d="M158.08 162.96l16.71-7.06"/></g><path d="M216.34 132.22l1.24.53-.28-.51-3.45-4.86-.42-.91-.14-1.13v-5.38m10.32 38.6l-.34-.34-.21-.51-5.29-24.37-.19-.59m29.03 16.51l-.12-.88-.33-.69-.51-.44-.65-.15-.12.03" class="E"/><path d="M212.05 119.44v5.37l.14 1.14.42.9 3.45 4.87.28.5.19.6 5.29 24.37.21.51.34.33 1.24.53.45.12.5-.11 17.4-7.35.11-.97.33-.97.52-.87.64-.7.72-.45.6-.13.04.04.33.69.12.87 1.24.53 17.39-7.35.5-.32.45-.5.35-.63.2-.68 5.3-28.85.18-.75.28-.74 3.46-7.79.07-.21" class="D"/><g class="E"><path d="M162.16 97.17v-1.26m0-1.22v-.33 1.55m0-1.55V92.2m10.65 5.69L164 94.17l-1.21-.7-.63-.83v.17"/><path d="M162.16 92.64v-.08m3.54.39l-.27-.13-.34-.37-.04-.39.27-.38.54-.33.76-.23.9-.11.94.02.87.14.72.26.48.34.19.38-.11.4-.42.35-.3.16-.36.12-.84.18-.93.05-.92-.08-.81-.21-.33-.17m22.3 11.36l-8.33-3.52m14.04 3.94l.25.06.92.08.93-.05.84-.17.36-.13.31-.15.41-.36.11-.39-.19-.39-.48-.34-.71-.26-.88-.14-.94-.02-.89.11-.77.24-.54.32-.26.37.02.31m-.02-23.24l.26-.37.54-.32.77-.23.9-.11.93.01.88.15.71.25.48.34.19.39-.11.4-.41.35-.31.15-.36.13-.84.18-.93.05-.92-.09-.8-.2-.61-.3-.34-.37-.03-.41m89.9 12.04l-.63.85-1.21.7-53.47 22.6-1.67.51-1.95.27h-2.06l-1.95-.27-1.67-.51-22.61-9.56"/><path d="M199.98 94.64l-.86-2.1.64-2.64 2.3-2.46 3.79-2.11 4.99-1.6 5.83-.98 6.24-.27 6.17.45 5.66 1.14 4.73 1.74 3.43 2.22 1.9 2.52.21 2.65-.85 1.47m-24.6 19.93l-.27.38.04.4.34.37.61.3.8.2.92.08.93-.05.85-.17.35-.13.31-.15.41-.36.12-.39-.2-.39-.48-.34-.71-.26-.88-.14-.93-.02-.9.12-.76.23-.55.32m-.05-44.88l.16.18.61.3.8.2.92.08.93-.05.85-.17.35-.13.31-.15.41-.36.12-.39-.2-.39-.48-.34-.71-.25-.88-.15-.93-.02-.9.12-.77.23-.54.32-.27.38.04.4.18.19m26.91 33.79l.26-.37.55-.32.76-.24.9-.11.94.02.87.14.72.26.48.34.19.39-.12.39-.41.36-.3.15-.36.13-.85.17-.93.05-.91-.08-.22-.06-.59-.14-.61-.31-.34-.37-.03-.4m.1-23.07l-.1.14.03.41.34.37.61.3.81.2.91.09.94-.05.84-.18.36-.13.3-.15.41-.35.12-.4-.19-.39-.48-.34-.72-.25-.87-.15-.94-.01-.9.11-.76.23-.55.32-.16.23m27.4 12.38l.6.3.81.21.92.08.93-.05.84-.18.36-.12.3-.16.41-.35.12-.4-.19-.38-.48-.34-.72-.26-.87-.14-.94-.02-.9.11-.76.23-.55.33-.26.38.04.39.34.37m8.16 4.74v-1.65m0 0v-1.55 1.55m0-1.55v-1.55m0-.61v.61"/></g><g class="D"><path d="M162.16 97.1v.35-1.54 1.7l.63.82 1.21.71 3.16 1.33m-5-4.56v-4.14m0 0l.63-.83 1.21-.7 53.47-22.6 1.67-.51 1.95-.27h2.06l1.95.27 1.67.51 53.47 22.6 1.21.7.63.83v5.64m-109.17 5.49l.52.22m14.67 6.2l.52.22m10.64 4.5l18.21 7.69 1.67.51 1.95.27h2.06l1.95-.27 1.67-.51 53.47-22.59 1.21-.71.63-.82v-.05"/><path d="M201.04 95.91l1.84 1.63 4.12 1.99 5.24 1.46 5.97.8 6.26.09 6.09-.63 5.47-1.3 2.36-.87 2.07-1 3.07-2.31.63-1.1-1.26-1.68-3.43-2.21-4.73-1.74-5.66-1.14-6.17-.45-6.24.27-5.83.97-4.99 1.6-3.79 2.11-2.08 2.24.2.51.86.76m81.04 1.7v-.2m0-3.05v-1.28m0-.64v-.47.84m0-1.04v.2"/></g><path d="M173.02 164.12l.85-.67 4.84-5.89" class="E"/><path d="M180.21 158.19l-3.24 3.95-.85.67-3.1 1.31-.63.13" class="D"/><g class="E"><path d="M255.07 232.57l1.86.78m-1.68-10.27l1.86.78"/><path d="M275.2 203.95l-3.47 1.47-1.13.69-1.02 1.05-11.25 14.37-.92 1.49-.6 1.68-.21 1.69v5.22l.14 1.23.38 1.03.62.77.83.71.8.45m2.02-9.99l.05-.03.71-.07.62.26.45.55.24.79.03.46-.03.49-.24.99-.45.94-.62.78-.71.53-.74.23-.67-.09-.54-.41-.22-.42"/></g><g class="D"><path d="M265.13 234.03l-3.82 1.62-1 .25-.94-.1-1.86-.78-.8-.45-.83-.72-.62-.77-.38-1.03-.14-1.23v-5.22l.21-1.68.6-1.68.92-1.5 11.25-14.36 1.02-1.06 1.13-.68 3.47-1.47 1.86.78v10.52"/><path d="M259.58 230.72l-.31.09-.13-.26-.13-.88.13-.99.35-.98.54-.87.67-.66.69-.36.21.72v.94l-.24 1-.45.93-.62.78-.71.54m10.34 1.29l2.03-.86.04-.02"/></g><path d="M197.4 155.73l-3.41-1.44m13.56-19.53l.06.02 1.95-.45.38-.33m12.57 55.66v-31.57" class="E"/><g class="D"><path d="M184.43 174.08l-1.75-.74-.53-.3-.27-.36v-35.02"/><path d="M181.88 172.68v-.01m23.47-13.58l-7.95-3.36m11.33-36.76l.83.9 1.54 2.63.99 2.91.34 2.9-.34 2.62-.99 2.07-1.16 1-1.09.25-1.72-.37m22.09 53.46l-4.7 1.99-.72.22-.85.11h-.89l-.85-.11-.72-.22-2.87-1.22-6.39-25.23-.23-.63-.34-.56-.42-.44-.47-.29-.6-.26m28.84-7.81v.86"/></g><path d="M293.22 171.9l.14-.03.15.04.14.1 1.82 1.63m5.63 23.4l-.65.09-3.19 1.71-2.55 2.84-.1.1m11.23-5.46l1.4-1.11.92-1.77.36-2.28-.24-2.54-.81-2.59-1.31-2.36-1.67-1.92-3.48-3.13m3.17 12.97l-.02.03-.03.01m.56-.65l.02-.03.01-.04" class="E"/><g class="D"><path d="M308.44 182.63l.05.06 1.31 2.36.81 2.58.23 2.55-.36 2.27-.92 1.78-1.4 1.11-2.32.98-1.74.33-3 .39-1.52.82-2.55 2.84-.1.1-2.32.98-.14.04-.15-.03-.83-.35-.14-.09-.13-.14-.11-.18-.06-.19-.03-.19V172.3l.03-.18.07-.14.1-.08 2.33-.98.13-.03.15.04.15.1.64.58"/><path d="M304.99 188.79l.01.06.04.58-.04.56-.01.04m-.3-2.44l.02.05.01.05"/></g><path d="M60.42 232.23l.16-.99.42-.76.63-.44.36-.03.42-.04.42.1.42.19.81.64.69.9.5 1.08.25 1.14-.02 1.07-.29.88-.54.61-.71.26-.83-.11-.83-.47m-.57-6.49l.82-.08.45.11.44.21.86.67.74.96.53 1.15.26 1.2-.02 1.14-.31.94-.57.64m1.57-2.53l.02.15.01.02m.04.1l.05.11.02.01m-.16-.53l-.01-.02.01-.17m.01-.16v-.02l.04-.18m.04-.16v-.01l.13-.29m.11 1.67l-.03-.01-.07-.06m.94-.33l.05-.05m-.27-1.64h0l-.27.01-.25.14-.2.24v.02" class="E"/><path d="M64.12 228.76l-2.41 1.01-.68.47-.44.81-.17 1.05v.13l.11 1.12.38 1.12.61 1.01.76.78.11.11.89.5.87.12.76-.28 2.42-1.02" class="D"/><g class="E"><path d="M125.88 130.18l.09 2.2 2.25 1.64-1.42 2-2.25-1.64-.04-.87"/><path d="M124.55 134.38l1.42-2m.83 3.64l.92-.24m-1.66-5.65l.09 2 2.25 1.64 1.42-2.01-2.25-1.64-.03-.57m-1.39 2.58l1.42-2.01m.65 3.9l2.15-.56"/><path d="M130.37 133.26l-1.97.51m.06-3.68l.26.32.48.35.54.22.54.07.47-.09.37-.25.21-.37v-.01m-1.51 1.43l2.15-.56"/></g><path d="M124.51 133.51l-.06-1.33 1.43-2 .18-.05-.01-.2.89-1.24m4.99 1.56l.04.95-1.42 2.01-.18.05v.2l-1.42 2-1.23.32" class="D"/><g class="E"><path d="M313.51 117.82l1.21-.29 1.36-.13m-1.36.13l.31-2.53-.89-2.23"/><path d="M316.15 116.9l.25-2.02-1.37.12m.75-1.69l.62 1.57"/></g><path d="M315.78 113.31l-.27-.66-1.37.12-1.2.29-.32 2.53.89 2.23 1.37-.13 1.2-.29.07-.5" class="D"/><g class="E"><path d="M111.99 155.6l1.38-1.94-1.82-2.02-1.38 1.94m1.38-1.94l.63-1.94m.62 2.47l.01.02.02.02m-.24-.43l-.01-.03-.01-.02m.8 1.93l2.45.09"/><path d="M113.66 152.88l-.03-.01-.02-.01m.54.18h-.03l-.02-.01"/></g><path d="M112.49 149.72l-.31-.02-1.38 1.95-.63 1.93 1.82 2.02 2.45.09 1.38-1.94.38-1.18" class="D"/><g class="E"><path d="M128.32 130.1l1.04-1.79 1.32-.03-.48.83m-2.47-4.47l1.34.94.29 2.73"/><path d="M129.07 125.58l1.32-.03.29 2.73"/><path d="M130.39 125.55l-.03-.02"/></g><path d="M130.36 125.53l-1.31-.92-1.32.03-1.04 1.79.3 2.73 1.33.94 1.32-.03.56-.96" class="D"/><path d="M307.79 140.84l6.07-19.4m-3.6 20.27l6.11-19.52" class="D"/><path d="M101.36 173.25l.04.57-.1.84-.23.72-.34.53-.41.27" class="E"/><path d="M101.73 173.07l.04.74-.09.84-.23.72-.34.53-.41.27-.38.01h-.17" class="D"/><g class="E"><path d="M326.41 95.38v.01m1.46 3.11l.81.62.84.29.78-.09.63-.45.41-.77.15-1-.12-1.12-.17-.56-.22-.56-.61-1-.77-.77-.84-.46-.82-.1-.71.27-.52.62-.29.89"/><path d="M326.42 94.15h0m.87-1.6l.75-.3.87.11.82.45.07.04.81.82.65 1.06.23.59.18.6.13 1.19-.16 1.05-.44.82-.66.48m-.78-7.7l-.34.08-.36.07-.34.06"/><path d="M328.72 91.97l-.04.01m1.09-.22l.26-.1.01-.01m.05-.03l.13-.08m1.31 7.49h-.01m-1.23-7.6v.01l-.05.07m2.5 6.99h0l-.07.01m-.82.35h.01m.58-.28l-.15.07m.23-.1l.12-.03"/></g><path d="M326.41 95.39l.26 1.13.5 1.08.7.9.09.09.86.66.89.3.83-.09.68-.29.3-.14m-5.1-4.88l-.01 1.23m1.96-3.33l-.09.03-.99.47-.57.65-.3.95m2.03-2.12l.23-.05m3.17 6.88l-.32.17m1.61-.68l-.39.17m-.89.34l.31-.16m0 0l.12-.05" class="D"/><g class="E"><path d="M305.48 144.41l1.69 1.57-.42 1.32-1.12-1.04m1.12 1.04l2.17.13m.47-1.99l-.05.05-.41.17-.52.05-.56-.07-.54-.19-.47-.29-.35-.35-.04-.09"/><path d="M310.2 145.23l-.53.9-2.5-.15m-.11-.96l.36.22.3.11m1.54 2.1l.41-1.32"/></g><path d="M305.88 143.73l-.4.68-.41 1.33.56.52m3.29 1.17l.34.02.82-1.41.27-.85" class="D"/><path d="M139.05 121.51l.14-1.01.4-.77.62-.47.6-.09m1.41.54l.41.31.71.89.51 1.07.28 1.14.03.55-.03.53-.28.9-.51.63-.71.3-.51-.05-.3-.03-.84-.45m-.7-6.51l.07-.01m2.55.89l.7.87.55 1.14.29 1.2.03.59-.03.56-.29.96-.55.67m-.37.15h-.01" class="E"/><path d="M143.22 126.01l-.37.16-.87-.09-.89-.47-.11-.11-.77-.76-.62-.99-.4-1.12-.14-1.12v-.13l.14-1.07.43-.82.66-.5.05-.02m5.69 5.88l-2.42 1.01-.37.15" class="D"/><g class="E"><path d="M329.14 88.99l.02.05h0l-.16.08-.22.09-.26.1-.28.09-.26.08-.22.06-.14.03-.06-.01.04-.03.13-.07.21-.09.26-.1.28-.09.27-.09.22-.07.17-.03.18-.07"/><path d="M327.36 89.64h.06l.18-.03.27-.07.33-.11.35-.12.33-.12.28-.11.19-.1.08-.05"/><path d="M329.19 88.98l.01.03.02-.01-.03-.02.14-.05"/><path d="M329.2 89.01l-.04.03m3.77 10l-.08.06-.19.09-.27.12-.34.12-.35.12-.32.1-.27.07-.18.04-.07-.01"/></g><path d="M328.21 92.11l-.42-1.22m-.42-1.2l-.01-.05.05-.05.16-.09.26-.1.32-.13.35-.12.33-.11.29-.08.2-.04.01.01.06-.02.04.02.01.05m.85 2.45l-.41-1.19m2.86 8.26l.19.54-.05.25-.07.05-.17.08-.24.1-.24.09-.05.02-.31.11-.29.09-.24.06-.16.03h-.06l-.19-.17-.13-.38" class="D"/><path d="M130.55 128.5l-.2.63-.34.53-.22.15m.42-4.39l-.07-.15-.39-.41-.44-.15m1.11 1.16l.02.04.19.8.05.86-.04.32" class="E"/><path d="M129.72 129.93h.26l.41-.28.34-.53.23-.72v-.03l.1-.81-.05-.86-.19-.79-.3-.64-.4-.42-.43-.15-.38.01-.08.03" class="D"/><path d="M97.4 176.46l-.36-.2m3.04-2.92l-.3.01-.46-.12-.44-.25-.37-.34-.17-.27" class="E"/><g class="D"><path d="M97.4 176.46h0l.77.21.72-.02.55-.18.7-.28.4-.32.34-.4.26-.61.14-.74.01-.81-.01-.02"/><path d="M97.4 176.46l-.2-.08-.21-.12m.82-5.58l-.48.09-.43.29"/><path d="M100.44 168.57l10.24-14.43m-8.13 15.99l10.29-14.5"/></g><path d="M288.74 223.92l1.16-.17 1.28.41.18.14 1.05.78 1.07 1.35.78 1.62.42 1.72.05.84-.05.79-.42 1.37-.78.96m.62-.26h0" class="E"/><path d="M290.96 233.94l.22.11 1.23.13 1.07-.45.62-.26.78-.96.42-1.37.05-.79-.05-.84-.42-1.73-.78-1.62-.57-.71-.5-.63-1.23-.93-1.28-.4-1.16.17-.62.26-.94.71-.4.76" class="D"/><g class="E"><path d="M98.17 172.27l1.38-1.94 2.41 1.35-1.38 1.94m-1.03-3.29l-.52-2.27"/><path d="M100.3 168.81l.01-.04.07-.09m-.11.29l-.02.12v.04m.04.18l.02.13.03.04m.09.17l.08.14.03.03m.14.16l.12.12.04.02m1.12 1.56l1.9-.91m-2.84-.53l.14.09.05.02m.39.12h-.04l-.16-.06m.39.07l.15.01.04-.01"/><path d="M102.14 170.43l.13-.04.03-.02m.22-.21l-.01.03-.09.08"/></g><path d="M101.31 167.35l-.38-.21-1.9.92-1.38 1.94.52 2.27 2.41 1.35 1.91-.91 1.37-1.94-.42-1.89" class="D"/><path d="M297.13 188.32l.14-1.01.4-.78.62-.46.6-.09m1.49.6l.34.25.7.89.52 1.07.27 1.14.04.55-.04.53-.27.9-.52.63-.7.3-.82-.08-.84-.45m-.59-6.53l-.11.02m2.71.98l.61.77.55 1.14.29 1.2.04.59-.04.56-.15.48-.14.48-.55.67" class="E"/><path d="M298.44 185.76l-.08.04-.66.5-.42.82-.15 1.07v.13l.14 1.12.4 1.12.62.99.77.76.12.11.89.47.86.09.75-.31 2.42-1.01" class="D"/><g class="E"><path d="M67.12 234.06l.01-.17.09-.29.14-.25.18-.19.21-.11.21-.02.18.08.13.17.07.23.01.28-.07.28-.13.27-1.02-.36m1.02.36l.04.05m-.54.41l-.22-.01-.16-.09-.03-.02-.13-.21-.06-.27.02-.31.09-.32.16-.28.2-.21.23-.12.23-.02.2.09.15.18m-.27 1.24l-.19.18-.21.08h-.2l-.17-.11-.12-.18-.05-.25v-.05m.12.74l-.22-.13-.15-.23-.06-.31.02-.36.1-.35.18-.32.23-.24.11-.05.15-.09.26-.02"/><path d="M68.08 232.86h0"/></g><path d="M60.44 232.48l-.47-.17m1-1.96l-.29-.11m6.44 3.82v.06l.94.33.04.07-.22.19-.23.09-.16.07-.25-.01-.44-.15m.62-2.1l.44.15.22.1.17.21.08.14.08.26v.31l-.07.32-.15.29-.09.01-.42-.15" class="D"/></g><g class="G h"><path d="M-.2-.2h.442v.43H-.2zM0 0h.042v.03H0z" stroke-width=".5" fill="#e6e6e6" class="F"/><path d="M0 .03h.042V0h0v.03H0z" fill-opacity=".118" class="B"/></g><use xlink:href="#B" class="F H L"/><text xml:space="preserve" x="436.36" y="60.26" font-size="3.88" class="B C X">Pos.</text><text xml:space="preserve" x="448.59" y="60.26" class="B C N X">Arv</text><text xml:space="preserve" x="459.07" y="60.26" font-size="3.95" class="B C X">Nimetus</text><text xml:space="preserve" x="494.13" y="60.26" font-size="4" class="B C X">Joonise nr.</text><text xml:space="preserve" x="539.55" y="60.26" font-size="3.92" class="B C X">Materjal</text><text xml:space="preserve" x="586.82" y="60.26" font-size="3.91" class="B C X">Mt</text><text xml:space="preserve" x="616.7" y="60.26" font-size="3.87" class="B C X">Kaal</text><g class="F H"><path d="M446.48 56.03v5.5m10.47-5.5v5.5m35.06-5.5v5.5m45.43-5.5v5.5m47.27-5.5v5.5m29.87-5.5v5.5"/><use xlink:href="#B" y="5.5" class="J"/></g><text xml:space="preserve" x="436.36" y="65.76" class="B C Z">1</text><text xml:space="preserve" x="448.59" y="65.76" class="B C Z">1</text><text xml:space="preserve" x="459.07" y="65.76" class="B C S">Emakoda</text><text xml:space="preserve" x="494.13" y="65.76" class="B C T">FDJ2.01.00.00F</text><text xml:space="preserve" x="539.55" y="65.76" class="B C O">-</text><text xml:space="preserve" x="586.82" y="65.76" class="B C O">-</text><text xml:space="preserve" x="616.7" y="65.76" font-size="3.97" class="B C">132.5</text><g class="F H"><path d="M446.48 61.53v5.5m10.47-5.5v5.5m35.06-5.5v5.5m45.43-5.5v5.5m47.27-5.5v5.5m29.87-5.5v5.5"/><path d="M434.25 67.03h194.49v5.51H434.25z" class="L"/></g><text xml:space="preserve" x="436.36" y="71.27" class="B C M">2</text><text xml:space="preserve" x="448.59" y="71.27" class="B C Z">1</text><text xml:space="preserve" x="459.07" y="71.27" class="B C S">Silinder</text><text xml:space="preserve" x="494.13" y="71.27" class="B C b">sil.70-40-320B-P</text><text xml:space="preserve" x="539.55" y="71.27" class="B C K">*</text><text xml:space="preserve" x="586.82" y="71.27" class="B C T">70-40-320</text><text xml:space="preserve" x="616.7" y="71.27" class="B C O">-</text><g class="F H"><path d="M446.48 67.03v5.51m10.47-5.51v5.51m35.06-5.51v5.51m45.43-5.51v5.51m47.27-5.51v5.51m29.87-5.51v5.51"/><use xlink:href="#B" y="16.51" class="J"/></g><text xml:space="preserve" x="436.36" y="76.77" font-size="3.83" class="B C">3</text><text xml:space="preserve" x="448.59" y="76.77" class="B C M">2</text><text xml:space="preserve" x="459.07" y="76.77" class="B C e">Tapp keermega</text><text xml:space="preserve" x="494.13" y="76.77" class="B C e">TK-35-200</text><text xml:space="preserve" x="539.55" y="76.77" class="B C K">*</text><text xml:space="preserve" x="586.82" y="76.77" class="B C V">35-200</text><text xml:space="preserve" x="616.7" y="76.77" font-size="3.83" class="B C">1.9</text><g class="F H"><path d="M446.48 72.54v5.5m10.47-5.5v5.5m35.06-5.5v5.5m45.43-5.5v5.5m47.27-5.5v5.5m29.87-5.5v5.5"/><use xlink:href="#B" y="22.01" class="L"/></g><text xml:space="preserve" x="436.36" y="82.27" class="B C N">4</text><text xml:space="preserve" x="448.59" y="82.27" class="B C M">2</text><text xml:space="preserve" x="459.07" y="82.27" class="B C P">Kuuskantpolt</text><text xml:space="preserve" x="494.13" y="82.27" class="B C Q">M12x25_DIN933-8.8</text><text xml:space="preserve" x="539.55" y="82.27" class="B C f">8.8</text><text xml:space="preserve" x="586.82" y="82.27" class="B C Y">M12x25</text><text xml:space="preserve" x="616.7" y="82.27" class="B C Y">0.04</text><g class="F H"><path d="M446.48 78.04v5.5m10.47-5.5v5.5m35.06-5.5v5.5m45.43-5.5v5.5m47.27-5.5v5.5m29.87-5.5v5.5"/><use xlink:href="#B" y="27.51" class="J"/></g><text xml:space="preserve" x="436.36" y="87.77" class="B C c">5</text><text xml:space="preserve" x="448.59" y="87.77" class="B C M">2</text><text xml:space="preserve" x="459.07" y="87.77" class="B C N">Seib</text><text xml:space="preserve" x="494.13" y="87.77" class="B C V">M27_DIN125</text><text xml:space="preserve" x="539.55" y="87.77" class="B C a">140 HV</text><text xml:space="preserve" x="586.82" y="87.77" class="B C g">M27</text><text xml:space="preserve" x="616.7" y="87.77" class="B C Y">0.04</text><g class="F H"><path d="M446.48 83.54v5.5m10.47-5.5v5.5m35.06-5.5v5.5m45.43-5.5v5.5m47.27-5.5v5.5m29.87-5.5v5.5"/><use xlink:href="#B" y="33.01" class="L"/></g><text xml:space="preserve" x="436.36" y="93.27" font-size="3.82" class="B C">6</text><text xml:space="preserve" x="448.59" y="93.27" class="B C N">4</text><text xml:space="preserve" x="459.07" y="93.27" class="B C S">Liugelaager</text><text xml:space="preserve" x="494.13" y="93.27" class="B C P">FB0923540</text><text xml:space="preserve" x="539.55" y="93.27" class="B C e">Tin Bearing Bronze</text><text xml:space="preserve" x="586.82" y="93.27" class="B C Q">35x39 L40</text><text xml:space="preserve" x="616.7" y="93.27" class="B C a">0.1</text><g class="F H"><path d="M446.48 89.04v5.5m10.47-5.5v5.5m35.06-5.5v5.5m45.43-5.5v5.5m47.27-5.5v5.5m29.87-5.5v5.5"/><path d="M434.25 94.54h194.49v5.51H434.25z" class="J"/></g><text xml:space="preserve" x="436.36" y="98.78" font-size="3.8" class="B C">7</text><text xml:space="preserve" x="448.59" y="98.78" class="B C Z">1</text><text xml:space="preserve" x="459.07" y="98.78" class="B C P">FD-jala kpp</text><text xml:space="preserve" x="494.13" y="98.78" class="B C T">FDJ2.03.00.00</text><text xml:space="preserve" x="539.55" y="98.78" class="B C O">-</text><text xml:space="preserve" x="586.82" y="98.78" class="B C O">-</text><text xml:space="preserve" x="616.7" y="98.78" class="B C Y">32.3</text><g class="F H"><path d="M446.48 94.54v5.51m10.47-5.51v5.51m35.06-5.51v5.51m45.43-5.51v5.51m47.27-5.51v5.51m29.87-5.51v5.51"/><use xlink:href="#B" y="44.02" class="L"/></g><text xml:space="preserve" x="436.36" y="104.28" class="B C c">8</text><text xml:space="preserve" x="448.59" y="104.28" class="B C Z">1</text><text xml:space="preserve" x="459.07" y="104.28" class="B C P">FD-jala kpp</text><text xml:space="preserve" x="494.13" y="104.28" class="B C T">FDJ2.03.00.00PB</text><text xml:space="preserve" x="539.55" y="104.28" class="B C O">-</text><text xml:space="preserve" x="586.82" y="104.28" class="B C O">-</text><text xml:space="preserve" x="616.7" y="104.28" class="B C Y">32.3</text><g class="F H"><path d="M446.48 100.05v5.5m10.47-5.5v5.5m35.06-5.5v5.5m45.43-5.5v5.5m47.27-5.5v5.5m29.87-5.5v5.5"/><use xlink:href="#B" y="49.52" class="J"/></g><text xml:space="preserve" x="436.36" y="109.78" class="B C c">9</text><text xml:space="preserve" x="448.59" y="109.78" class="B C N">4</text><text xml:space="preserve" x="459.07" y="109.78" class="B C b">srm avaga</text><text xml:space="preserve" x="494.13" y="109.78" class="B C Q">SA-35-100</text><text xml:space="preserve" x="539.55" y="109.78" class="B C S">S355</text><text xml:space="preserve" x="586.82" y="109.78" class="B C S">mar 35</text><text xml:space="preserve" x="616.7" y="109.78" class="B C a">0.7</text><g class="F H"><path d="M446.48 105.55v5.5m10.47-5.5v5.5m35.06-5.5v5.5m45.43-5.5v5.5m47.27-5.5v5.5m29.87-5.5v5.5"/><use xlink:href="#B" y="55.02" class="L"/></g><text xml:space="preserve" x="436.36" y="115.28" class="B C R">10</text><text xml:space="preserve" x="448.59" y="115.28" class="B C N">4</text><text xml:space="preserve" x="459.07" y="115.28" class="B C Q">Torusplint</text><text xml:space="preserve" x="494.13" y="115.28" class="B C T">D10x50_DIN1481</text><text xml:space="preserve" x="539.55" y="115.28" class="B C K">*</text><text xml:space="preserve" x="586.82" y="115.28" font-size="3.99" class="B C">10x50</text><g class="F H"><path d="M446.48 111.05v5.5m10.47-5.5v5.5m35.06-5.5v5.5m45.43-5.5v5.5m47.27-5.5v5.5m29.87-5.5v5.5"/><use xlink:href="#B" y="60.52" class="J"/></g><text xml:space="preserve" x="436.36" y="120.78" class="B C R">11</text><text xml:space="preserve" x="448.59" y="120.78" class="B C c">8</text><text xml:space="preserve" x="459.07" y="120.78" class="B C P">Distants vru</text><text xml:space="preserve" x="494.13" y="120.78" class="B C T">PV-35.5-45-9.5</text><text xml:space="preserve" x="539.55" y="120.78" class="B C Q">POM Acetal Copolymer</text><text xml:space="preserve" x="586.82" y="120.78" class="B C Q">35,5-45-9,5</text><g class="F H"><path d="M446.48 116.55v5.5m10.47-5.5v5.5m35.06-5.5v5.5m45.43-5.5v5.5m47.27-5.5v5.5m29.87-5.5v5.5"/><path d="M434.25 122.05h194.49v5.51H434.25z" class="L"/></g><text xml:space="preserve" x="436.36" y="126.29" class="B C R">12</text><text xml:space="preserve" x="448.59" y="126.29" class="B C M">2</text><text xml:space="preserve" x="459.07" y="126.29" class="B C V">Heico-Lock seib</text><text xml:space="preserve" x="494.13" y="126.29" class="B C T">M12_DIN25201</text><text xml:space="preserve" x="539.55" y="126.29" class="B C K">*</text><text xml:space="preserve" x="586.82" y="126.29" class="B C g">M12</text><text xml:space="preserve" x="616.7" y="126.29" class="B C O">-</text><g class="F H"><path d="M446.48 122.05v5.51m10.47-5.51v5.51m35.06-5.51v5.51m45.43-5.51v5.51m47.27-5.51v5.51m29.87-5.51v5.51"/><use xlink:href="#B" y="71.53" class="J"/></g><text xml:space="preserve" x="436.36" y="131.79" class="B C R">13</text><text xml:space="preserve" x="448.59" y="131.79" class="B C M">2</text><text xml:space="preserve" x="459.07" y="131.79" class="B C V">Nylock mutter</text><text xml:space="preserve" x="494.13" y="131.79" class="B C V">M27_DIN985</text><text xml:space="preserve" x="539.55" y="131.79" class="B C f">8.8</text><text xml:space="preserve" x="586.82" y="131.79" class="B C g">M27</text><text xml:space="preserve" x="616.7" y="131.79" class="B C Y">0.20</text><g class="F H"><path d="M446.48 127.56v5.5m10.47-5.5v5.5m35.06-5.5v5.5m45.43-5.5v5.5m47.27-5.5v5.5m29.87-5.5v5.5"/><use xlink:href="#B" y="77.03" class="L"/></g><text xml:space="preserve" x="436.36" y="137.29" class="B C R">14</text><text xml:space="preserve" x="448.59" y="137.29" class="B C c">8</text><text xml:space="preserve" x="459.07" y="137.29" class="B C b">3/8" Hdrotihend</text><text xml:space="preserve" x="494.13" y="137.29" class="B C Q">USIT-17.2x23.9x2.1</text><text xml:space="preserve" x="539.55" y="137.29" class="B C K">*</text><text xml:space="preserve" x="586.82" y="137.29" class="B C S">17.2x23.9x2.1</text><text xml:space="preserve" x="616.7" y="137.29" class="B C Y">0.00</text><g class="F H"><path d="M446.48 133.06v5.5m10.47-5.5v5.5m35.06-5.5v5.5m45.43-5.5v5.5m47.27-5.5v5.5m29.87-5.5v5.5"/><use xlink:href="#B" y="82.53" class="J"/></g><text xml:space="preserve" x="436.36" y="142.79" class="B C R">15</text><text xml:space="preserve" x="448.59" y="142.79" class="B C N">4</text><text xml:space="preserve" x="459.07" y="142.79" class="B C d">Banjo polt</text><text xml:space="preserve" x="494.13" y="142.79" class="B C T">BANJOBOLT-3_8S</text><text xml:space="preserve" x="539.55" y="142.79" class="B C K">*</text><text xml:space="preserve" x="586.82" y="142.79" class="B C W">3/8''</text><g class="F H"><path d="M446.48 138.56v5.5m10.47-5.5v5.5m35.06-5.5v5.5m45.43-5.5v5.5m47.27-5.5v5.5m29.87-5.5v5.5"/><use xlink:href="#B" y="88.03" class="L"/></g><text xml:space="preserve" x="436.36" y="148.3" class="B C R">16</text><text xml:space="preserve" x="448.59" y="148.3" class="B C M">2</text><text xml:space="preserve" x="459.07" y="148.3" class="B C S">Lukuklapp</text><text xml:space="preserve" x="494.13" y="148.3" font-size="4.15" class="B C">VBPDE-3_8L</text><text xml:space="preserve" x="539.55" y="148.3" class="B C K">*</text><text xml:space="preserve" x="586.82" y="148.3" class="B C d">G3/8''</text><g class="F H"><path d="M446.48 144.06v5.5m10.47-5.5v5.5m35.06-5.5v5.5m45.43-5.5v5.5m47.27-5.5v5.5m29.87-5.5v5.5"/><path d="M434.25 149.56h194.49v5.51H434.25z" class="J"/></g><text xml:space="preserve" x="436.36" y="153.8" class="B C R">17</text><text xml:space="preserve" x="448.59" y="153.8" class="B C Z">1</text><text xml:space="preserve" x="459.07" y="153.8" class="B C S">Silinder</text><text xml:space="preserve" x="494.13" y="153.8" class="B C b">sil.70-40-320B-V</text><text xml:space="preserve" x="539.55" y="153.8" class="B C K">*</text><text xml:space="preserve" x="586.82" y="153.8" class="B C T">70-40-320</text><text xml:space="preserve" x="616.7" y="153.8" class="B C O">-</text><g class="F H"><path d="M446.48 149.56v5.51m10.47-5.51v5.51m35.06-5.51v5.51m45.43-5.51v5.51m47.27-5.51v5.51m29.87-5.51v5.51"/><use xlink:href="#B" y="99.04" class="L"/></g><text xml:space="preserve" x="436.36" y="159.3" class="B C R">18</text><text xml:space="preserve" x="448.59" y="159.3" class="B C M">2</text><text xml:space="preserve" x="459.07" y="159.3" class="B C Q">Stutser mutriga</text><text xml:space="preserve" x="494.13" y="159.3" class="B C b">STUTS-3_8-NUT</text><text xml:space="preserve" x="539.55" y="159.3" class="B C K">*</text><text xml:space="preserve" x="586.82" y="159.3" class="B C f">3/8</text><g class="F H"><path d="M446.48 155.07v5.5m10.47-5.5v5.5m35.06-5.5v5.5m45.43-5.5v5.5m47.27-5.5v5.5m29.87-5.5v5.5"/><use xlink:href="#B" y="104.54" class="J"/></g><text xml:space="preserve" x="436.36" y="164.8" class="B C R">19</text><text xml:space="preserve" x="448.59" y="164.8" class="B C M">2</text><text xml:space="preserve" x="459.07" y="164.8" class="B C V">Stutser</text><text xml:space="preserve" x="494.13" y="164.8" class="B C Q">STUTS-3_8</text><text xml:space="preserve" x="539.55" y="164.8" class="B C K">*</text><text xml:space="preserve" x="586.82" y="164.8" class="B C V">3/8-L12</text><text xml:space="preserve" x="616.7" y="164.8" class="B C O">-</text><g class="F H"><path d="M446.48 160.57v5.5m10.47-5.5v5.5m35.06-5.5v5.5m45.43-5.5v5.5m47.27-5.5v5.5m29.87-5.5v5.5"/><use xlink:href="#B" y="110.04" class="L"/></g><text xml:space="preserve" x="436.36" y="170.3" class="B C W">20</text><text xml:space="preserve" x="448.59" y="170.3" class="B C N">4</text><text xml:space="preserve" x="459.07" y="170.3" class="B C V">Pingutusmutter</text><text xml:space="preserve" x="494.13" y="170.3" class="B C P">18x1.5_12L_PM</text><text xml:space="preserve" x="539.55" y="170.3" class="B C K">*</text><text xml:space="preserve" x="586.82" y="170.3" class="B C d">18x1.5_12L</text><g class="F H"><path d="M446.48 166.07v5.5m10.47-5.5v5.5m35.06-5.5v5.5m45.43-5.5v5.5m47.27-5.5v5.5m29.87-5.5v5.5"/><path d="M434.25 171.57h194.49v5.51H434.25z" class="J"/></g><text xml:space="preserve" x="436.36" y="175.81" class="B C W">21</text><text xml:space="preserve" x="448.59" y="175.81" class="B C N">4</text><text xml:space="preserve" x="459.07" y="175.81" class="B C P">Likerngas</text><text xml:space="preserve" x="494.13" y="175.81" class="B C d">12L_D16_LR</text><text xml:space="preserve" x="539.55" y="175.81" class="B C K">*</text><text xml:space="preserve" x="586.82" y="175.81" class="B C W">12L D16</text><g class="F H"><path d="M446.48 171.57v5.51m10.47-5.51v5.51m35.06-5.51v5.51m45.43-5.51v5.51m47.27-5.51v5.51m29.87-5.51v5.51"/><use xlink:href="#B" y="121.05" class="L"/></g><text xml:space="preserve" x="436.36" y="181.31" class="B C W">22</text><text xml:space="preserve" x="448.59" y="181.31" class="B C N">4</text><text xml:space="preserve" x="459.07" y="181.31" class="B C a">Banjo</text><text xml:space="preserve" x="494.13" y="181.31" class="B C P">BANJO-3_8</text><text xml:space="preserve" x="539.55" y="181.31" class="B C K">*</text><text xml:space="preserve" x="586.82" y="181.31" class="B C W">3/8''</text><g class="F H"><path d="M446.48 177.08v5.5m10.47-5.5v5.5m35.06-5.5v5.5m45.43-5.5v5.5m47.27-5.5v5.5m29.87-5.5v5.5"/><use xlink:href="#B" y="126.55" class="J"/></g><text xml:space="preserve" x="436.36" y="186.81" class="B C W">23</text><text xml:space="preserve" x="448.59" y="186.81" class="B C M">2</text><text xml:space="preserve" x="459.07" y="186.81" class="B C S">Hdrotoru</text><text xml:space="preserve" x="494.13" y="186.81" class="B C P">HT-12L-153</text><text xml:space="preserve" x="539.55" y="186.81" class="B C d">E235+N</text><text xml:space="preserve" x="586.82" y="186.81" font-size="4" class="B C">12x1.5</text><g class="F H"><path d="M446.48 182.58v5.5m10.47-5.5v5.5m35.06-5.5v5.5m45.43-5.5v5.5m47.27-5.5v5.5m29.87-5.5v5.5"/><use xlink:href="#B" y="132.05" class="L"/></g><text xml:space="preserve" x="436.36" y="192.31" class="B C W">24</text><text xml:space="preserve" x="448.59" y="192.31" class="B C M">2</text><text xml:space="preserve" x="459.07" y="192.31" class="B C P">Mrdenippel</text><text xml:space="preserve" x="494.13" y="192.31" class="B C Q">M6x1_H1_DIN71412A</text><text xml:space="preserve" x="539.55" y="192.31" class="B C K">*</text><text xml:space="preserve" x="586.82" y="192.31" class="B C a">M6x1</text><text xml:space="preserve" x="616.7" y="192.31" class="B C a">0.0</text><path d="M446.48 188.08v5.5m10.47-5.5v5.5m35.06-5.5v5.5m45.43-5.5v5.5m47.27-5.5v5.5m29.87-5.5v5.5" class="F H"/><g class="G I"><path d="M434.25 61.53v5.5h194.49v-5.5zm-208.17 5.86l54.47 23.07 1.31.94v6.55l-1.08.85-5.81 2.52-3.81 8.36-5.75 30.46-1.2 1.7-.01 1.16 32.71 13.8.02.7-1.02 3.22-.01 1.2.99 1.59 1.56 2.23-1.92 6.19.07 1.62-2.37.21-.67 1.59.35 2.99.76.53 4.68.01 3.98-.35 1.59 1.94 3.56 2.21.91 1.65 1.28 3.53v3.62l-.96 2.57-2.06 1.55-.02.35 1.68-.07 2.34-.66.01.73-3.9 13.77-.69.27-2.25.42-.57-1.1-.4-.04-5.13 2.32-1.17-.03-.65-.64-.3-1.27-1.65.76-.01.83 2.27 4.49 4.81 10.25.64 2.57.02 4.92-.75 1.82-1.79 2.06-1.75.8-2.87.98-2.15-.01-1.62-.3-7.33-3.25-.62-.62-12.3 5.15h-1.86l-2.84-1.33-.97-.95-.36-.92-.26-2.9-3.65 1.61h-2.81l-2.84-1.64-1.01-1.88.01-7.62 1.01-2.83 1.93-2.56 10.86-13.95-4.19-8.61-.33-.95-.3-1.95-6.69-2.86-28.56 11.93-4.25 1.52h-3.12l-2.87-.98-2.88-1.28-.01-7.58.94-4.63-1.26-.29-.65-1.91-4.5-17.32-.71-.03-23.4 9.97-1.91.66-16.58.64-2.86-.98-3.21-1.59-.04-6.98 1.54-1.04 18.9-8.01.14-3.88-1.34-.63h-.41l-3.54 4.17-4.05 1.75-.29-6.56-.32-.59-13.59 5.74-2.58 2.87 1.78.97-2.06 8.35-1.29 2.56-1.82 2.03-11.62 5.03h-2.49l-2.53-1.33-.97-.95-.35-.92-.31-2.61-.4-.03-4.18 1.69-1.84-.34-2.85-1.64-.67-1.24-.32-1.29.01-5.99.54-2.67 1.74-2.75 2.24-2.92-.03-3.2.34-2.22 1.77-2.71 12.84-15.67 3.19-1.62 1.09-.2.01-2.05-2.23-2.89-4.81-4.8-1.32-2.21-.95-3.53-.01-3.44.65-1.91 1.17-1.39 3.84-1.6 9.31-.64 2.33-.53-.95-1.07-2.07-1.22.01-.35 3.24-.67 8.76-.53 1.32-.62-.07-3.89.86-1.73.43-.6-3.81-1.63-.97-.94v-6.29l1.81-1.39 54.16-22.74.94-.34 5.55.01zm77.17 100.6l.68-1.19.55-1.69 1.37-.04-2.56 7.84-1.08-.01.1-.97 1.02-2.88zM241.14 97.5l-.37.33-3.47 1.7-4.84 1.28.34-2.26 1.32-2.2.82-.46 2.37.01zm-96.99 19.87l-.05.42-2.11-.01.01-.37.67-.39 1.11-.01zm-2.34 2.26l4.21.27.94 1.95v1.4l-.59 1.33-1.99.9-.4 2.16-1.52-.02-.32-.32-.33-1.26-1.56-1.33-1.01-1.87.01-2.5.55-1.05 1.4-.01zm-11.18 51.19l-.01 1.45-.96 2.24-1.29.99-.02-2.62.68-1.24 1.31-1.12zm7.97 6.87l.53-1.07 1.33-.68.4.03-.09 1.65-1.32 1.91-.82.03zm163.82 6.64l-.05.42-2-.11-.09-.62 1.79-.04zm-2.02 2.26l3.9.26.61 1.32.01 2.37-.32.64-2.05 1.16-.3 1.94-1.95.1-.17-1.43-1.93-1.59-.69-1.24-.32-2.15.58-1.7 1.05-.37zm-7.33 38.4l1.26 1.63.96 2.57v2.02l-.43 1.49-1.9 1.3-1.85-.02-2 .67h-2.17l-1.56-1-1.32-2.52-.01-3.47 1.2-1.36 2.22-.98.98-1.27.63-.33h2.38zm-31.38 1.62l-.35 2.05-1.43 1.83-.6.12.08-2.62.99-1.56.96-.43zm10.34 5.03l-.45 1.5-1.42 1.83-.6.12.07-2.3.27-.7 1.27-.7.74.02z"/></g><g class="G I"><path d="M434.25 111.05v5.5h194.49v-5.5zM330.04 90.63l.18.88-.38.26-1.66.07-.33-.8 1.32-.61zm.71 8.8l2.07-.94.01.73-1.12.57-.89-.04zm-186.6 17.94l-.05.42-2.11-.01.01-.37.67-.39 1.11-.01zm-2.13 8.98l2.08-.65-.12 1.94-1.51-.01-.33-.33zm160.4 57.98l-.05.42-2-.11-.09-.62 1.79-.04zm-.17 9.95l-1.95.1.01-1.41 2.02-.34zM60.09 230.84l.3-.4h.37l-.3 2.07-.31-.06zm8.36 2.8l-.42.99-1.27.11-.36-1.07.66-1.01h.77z"/></g><g class="G I"><path d="M434.25 116.55v5.5h194.49v-5.5z"/></g><g class="G I"><path d="M434.25 122.05v5.51h194.49v-5.51z"/></g><g class="G I"><path d="M434.25 127.56v5.5h194.49v-5.5zM292.1 225.65l1.6 2.24.3 3.32-.31 1.6-4.58 1.84h-2.17l-1.56-1-1.32-2.52-.01-3.47 1.2-1.36 4.16-1.61 1.42-.01zm-4.17 2.89l.96 1.92.01 2.05-.77.83H286l-1.3-1.58-.32-.95-.01-1.54.88-1.05.64-.34h1.08z"/></g><g class="G I"><path d="M434.25 133.06v5.5h194.49v-5.5zM320.3 113.51l.01 3.03-.41.64-.37-.11.45-.86-.02-2.05-.61-1.32-.44-.64h.37zm-4.56-.7l.31.05.41.64.08 1.17-.44-.47zm1.13 2.24l-.46 2.11.02-2.26.11-.23zm-186.52 9.94l.59 1.35.01 2.36-.66.98-.04-.66.38-.64-.32-2.69-.75-.99zm4.12 1.02v2.69l-.48.86-.61.01.76-1.52v-1.4l-.46-1.59.13-.03zm-36.82 45.46l.09.56-.81-.56-.05-.32.39-.02zm199.28 2.56l.09.56-.81-.55-.05-.32.39-.02zm3.76.61l.31.05.39 1.34-.45 2.25-.64-.02.46-.86zm-3.15 1.03v2.04l-.38.99-.36.01.04-.67.41-.66-.23-2.79zm-196.07-.2l-.47.55h-.62l.77-1.18.33-1.68.32-.05zm-3.52.01l-.48.54-.62-.01.79-.85.1-3.13.18.14z"/></g><g class="G I"><path d="M434.25 138.56v5.5h194.49v-5.5zm-117.82-23.8l-.4 2.63-2.56.42-.57-1.39-.01-2.81.53-.76h2.1zM130.3 125.69l.33 2.69-.76 1.48-1.85.03-.93-.66-.02-3.44.55-1.05 1.73-.02zm-32.67 46.45v3.03l-.99 1.25-1.59-.11-.96-.96-.03-3.11 1.19-1.39h1.09zm199.28 2.56l.34 2.69-.68 1.59-1.9-.12-.76-.52-.35-2.99.67-1.59 1.72-.02z"/></g><g class="G I"><path d="M434.25 144.06v5.5h194.49v-5.5zm-309.4-9.4l1.25 1 2.58-.06-1.26 1.76-.03 1.5.34.92-6.84 9.95-2.26.3-.82 1.1-1.43 1.17-.83.03-1.62-.66-.64-.64-1.93-5.77.03-1.18 6.92-9.43 4.82-.3 1.28-1.64zm181.66 12.5l2.88.11.65-1.08v1.41l-.69 1.91v.86l.71 1.28-3.97 13.15-1.61.31-.89 2.64-1.05.88-1.17.02-1.3-.31-.96-.64-.66-.98-.01-.97-2.54-3.83.01-1.2 3.85-12.5 3.78-.39.73-.55.65-1.74z"/></g><g class="G I"><path d="M434.25 149.56v5.51h194.49v-5.51zM154.64 110l.95 1.07-2.33.53-9.3.64-.97.36-.64-.02.65-.99 3.85-1.91 2.55-.97 3.01-.01zm-15.39 14.11l1.32 2.21 4.81 4.8 2.23 2.89-.01 2.05-1.09.2-3.19 1.62-12.84 15.67-1.77 2.71-.34 2.22.03 3.2-2.24 2.92-1.74 2.75-.84 4.29-11.04 15.55-1.88 1.32-2.28.32h-2.22l-26.28 37.12 1.07 3.24v1.38l-3.31 1.2-1.51-.33-2.21-1.64-2.56-3.52-1.3-1.58-3.2-1.61h-1.72l-.97.37-.64-.03 1.61-1.62 5.12-2.25 3.52-.3 25.15-35.46v-.75l-.7-1.58.01-3.78.57-1.03 2.4-.8 1.05-3.11 1.45-1.76.33-1.92 9.5-13.24 1.03-.25 1.3-1.91.81-1.75 1.13-.79.82-1.1 2.26-.3 6.84-9.95-.34-.92.03-1.5 4.48-6.1.22-1.06 2.04-.85.31-.65V126l-.77-1.28 1.97-.26 2.5-3.28z"/></g><g class="G I"><path d="M434.25 155.07v5.5h194.49v-5.5zM129.3 130.85l1.5-.05.36-.34.74.03.04.75-2.96 4.15-.69.27h-2.19l-1.25-1 .01-3.07 1.79-2.42.43.02zm169.81 36.85l.96.64 1.3.31 1.16-.04.37-.36.41.04.02.75-1.65 5.13-1.36.57-1.2.01-1.9-.68-.73-1.95 1.85-5.44z"/></g><g class="G I"><path d="M434.25 160.57v5.5h194.49v-5.5zm-128.05-16l1.91 1.03.85.01 1.37-.41-.95 2.07-2.87-.11-1.39-1.61.74-1.57zm-192.91 6.46l.64.64 2 .92-.14.68-1.87-.31-.96-.64-.64-.96.05-1.58.3-.05z"/></g><g class="G I"><path d="M434.25 67.03v5.51h194.49v-5.51zm-92.8 16l-.08.38-1.98 2.56h-4.37l-1.61-.31-2.68-.03-.64.38-.64-.03 2.03-1.84 5.03-2.02 3.01-.01zm-12.18 18.3l.94.66 2.25 2.24 1.6 3.84v6.2l-22.23 80.62-2.52.99-1.68.07.02-.35 2.06-1.55.96-2.57v-3.62l-1.28-3.53-.91-1.65-3.56-2.21-1.59-1.94-3.02.07.78-.55.31-2.03-.41-1.64.68-.21.23-1.06 1.4-.21 4.8-14.42 5.44-17.95 7.12-23.13-1.11.02.76-.88-.01-3.03-.75-1.27.6-.33 2.37-.21 4.01-12.32.42-.62h.34z"/></g><g class="G I"><path d="M434.25 166.07v5.5h194.49v-5.5zm-118.79-47.4l.65.32 1.22.04.64-1.03.38-.07.36.35-.02 1.45-.68 1.89-1.68.59h-.85l-1.92-1.01-.35-.93-.01-1.54.27-.69 1.1-.35zm-4.12 22.36l-.02 2.08-.68 1.89-1.67.6h-.86l-1.93-1-.35-2.14.91-2.32 1.34-.4.03 1.98.62.35 1.19-.02.67-1.31.4-.06zm-199.02 10.33l.64.96.96.64 2 .35-1.34 2.28h-2.65l-1.52-1.72-.01-.82.69-1.91.95-1.09zm-8.82 18.06l.22 1.56-.79 1.15-1.9 1.34-.86.01-2.01-1.23-.36-2.35 1.29-1.93 1.32-.65.7-.02-.6 1.13-.01 1.48.61.34 1.29.09.85-1.08z"/></g><g class="G I"><path d="M434.25 171.57v5.51h194.49v-5.51z"/></g><g class="G I"><path d="M434.25 177.08v5.5h194.49v-5.5zm-115.57-64.84l.69.6.59 1.32.02 2.05-.46.82-1.19.74-1 1.25-1.22-.03-.65-.32-.69-.68-.02-.35 1.25.07.76-1.51-.3-2.69-.8-1 1.33-.61zm-185.2 12.83l.66 1.58v1.4l-.76 1.48-2.58 1.27-1.49.05-.74-.68 1.62-.3.76-1.16-.01-2.37-.79-1.65.29-.29 1.79.01zm-35.5 46.11l-.01.75-.77-1.1.39-.02zm2.19 2.31l1-.03-.02 1.39-.33.62-1.05.87-2.62-.03.81-.83.19-3.03.4-.03zm198.95 1.26l1.36-.04.28.27-.01 2.42-.33.63-1.05.88-2.57.02.74-1.21v-2.05l-.48-1.56z"/></g><g class="G I"><path d="M434.25 182.58v5.5h194.49v-5.5zm-118.12-60.06l.02.7-5.49 17.31-.74 1.52-1.19.02-.62-.35-.02-1.84 5.79-18.26.33-.1zm-204.16 33.05l.68.25-10.25 14.52-1.29-.09-.61-.34.01-1.48 10.26-14.23z"/></g><g class="G I"><path d="M434.25 188.08v5.5h194.49v-5.5z"/></g><g class="G I"><path d="M434.25 72.54v5.5h194.49v-5.5zm-146.32 156l.96 1.92.01 2.05-.77.83H286l-1.3-1.58-.32-.95-.01-1.54.88-1.05.64-.34h1.08z"/></g><g class="G I"><path d="M434.25 78.04v5.5h194.49v-5.5z"/></g><g class="G I"><path d="M434.25 83.54v5.5h194.49v-5.5zM293.07 224.99l1.26 1.63.96 2.57v2.02l-.43 1.49-1.9 1.31-1.67-.04 2.4-1.16.31-1.6-.3-3.32-1.6-2.24-1.27-.97-1.42.01-1.61.44.09-.62 1.19-.79h2.38z"/></g><g class="G I"><path d="M434.25 89.04v5.5h194.49v-5.5z"/></g><g class="G I"><path d="M434.25 94.54v5.51h194.49v-5.51zm-261.97 63.17l-.02 9.1-9.39 4.06-1.54 1.04.04 6.98 3.2 1.6-.05.3-1.35.32-1.45 1.43-2.6 2.86-26.88 26.94-2.59 2.85-26.88 26.94-2.6 2.86-25.44 25.53 1 .02 2.23-1 1.09-.03.63.98-10.54 10.75-26.08 11.08H41.2l-26.58-9.29-1.24-1.01-1.97-3.16-.01-1.86 5.08-5.51-.27-6.98.83-1.73 1.32-.93h2.37l7.34 4.51 7.92-.33 12.2-1.9 9.67-9.5.34-1.64 2.88-6.4.65-3.84-.33-3.63-.62-2.9-.35-.61-1.9-.98-.35-.94v-4.1l.84-1.73 1.11-1.45.56-1.04 2.31-1.53 2.14-.75h1.72l3.2 1.61 1.3 1.58 2.56 3.52 2.21 1.64 1.51.33 3.31-1.2v-1.38l-1.07-3.24 1.96-2.87.39-.05.68 1 2.23 2.61h.48l3.7-3.75-1.78-7.8 18.62-26.26h2.22l2.28-.32 1.88-1.32 3.21-4.51.44.01 7.41 5.17.47.01 8.35-8.35 1.31-.69.4.03.31 2.61.35.92.97.95 2.53 1.33h2.49l11.62-5.03 1.82-2.03 1.29-2.56 2.06-8.35-1.78-.97 2.58-2.87 13.59-5.74zm-33.68 19.98l.53-1.07 1.33-.68.4.03-.09 1.65-1.32 1.91-.82.03zm-26.87 22.29l-2.92 3.06v-.62l2.14-2.77.47.02zm-45.16 29.49l1.24 1.64.62 2.7-.73 1.45-3.2 1.65h-.85l-1.26-.7-1.31-1.57-.93-2.28-.07-1.51 2.18-1.34 1.59-.66h1.74zM21.41 264.7l.92 1.63-.01 1.4-.39.27-1.22-.02-1.89-1.34-.37-.58.01-1.86 1.96-.11z"/></g><g class="G I"><path d="M434.25 100.05v5.5h194.49v-5.5zm-75.84-89.67l1.17-.01 6.73-.97 2.04-.01.95.33 3.25 2.84 13.1 37.52-.01 1.39-4.8 17.31-1.24 1.32-2.39 1.14-2.88.96-37.4 136.25.01 2.47.32 1.61.01 3.63-2.57 9.29-.61.67-1.73 1.15-11.2 3.22-3.78-.01-.62-.36-1.05.36-1.47 3.98-2.39 1.46-10.25 2.89h-4.5l3.04-1.46 1.79-2.06.75-1.82-.02-4.92-.64-2.57-4.81-10.25-1.12-2.59.34-.32 11.33-3.1 26.3-95.45v-6.2l-1.6-3.84-2.25-2.24-.94-.66-1.95-2.54-1.29-2.87-.31-1.29-.29-3.23-.46-.99.73-.52 1.22-2.3 3.81-1.95 2.68.02 1.61.31h4.37l1.98-2.56.08-.38-1.76-.94.98-.62 2.25-.31 1.39-4.06 4.82-18.02-.35-1.29-2.85-32.71-1.26-1.62-1.95-1.57-.03-1.84 2.48-2.64 2.06-1.81-1.01-3.63V9.81l.85-1.39.64-.32 3.33.02zm-7.05-.02l1.33.97-.03.72-.4.27-1.88-.02-1.56-.68-.79-.98.97-.62 1.4.01zm-21.14 80.73l1.29.32 1.3.94 1.26 1.94-.09 3.24-.96.96-.23.74-1.08.56-.83-.07-.31-.28-1.34.02-1.6-1.29-.96-1.61v-3.14l.89-1.02.42-.26-.04-1.25 1.23-.46.7.02z"/></g><g class="G I"><path d="M434.25 105.55v5.5h194.49v-5.5zm-101.44-13.2l1.26 1.94v3.02l-.31.65-3.32 1.5h-1.2l-1.61-1.29-.96-1.61v-3.14l.87-1.05 2.27-.61.61-.37h1.08zm-191 27.28l4.21.27.94 1.95v1.4l-.59 1.33-3.03 1.46h-1.54l-1.55-1.33-1.01-1.87.01-2.5.55-1.05 1.4-.01zm158.59 66.96l3.9.26.61 1.32.01 2.37-.32.64-2.99 1.5h-1.86l-1.55-1.32-.69-1.24-.32-2.15.58-1.7 1.05-.37zM66.57 229.47l1.24 1.64.38 1.67-1.13-.12-.66 1.01.36 1.06 1.05.21-.06.29-3.25 1.68h-.85l-1.26-.7-1.31-1.57-.33-.63-.01-3.14.87-1.05 2.24-.97h1.74z"/></g><g class="G h"><path opacity=".2" d="M0 0h30v8H0z" class="B"/><path fill="#ffffe1" d="M0 0h30v8H0z" class="F"/><text xml:space="preserve" x="0" y="0" class="B">tooltip</text></g><defs ><path id="B" d="M434.25 56.03h194.49v5.5H434.25z"/></defs></svg>