<svg xmlns="http://www.w3.org/2000/svg" xmlns:xlink="http://www.w3.org/1999/xlink" width="1587.402" height="1122.52" viewBox="0 0 420 297" stroke-linejoin="round" stroke-linecap="round" fill="none" fill-rule="evenodd" xmlns:v="https://vecta.io/nano"><style><![CDATA[.B{fill:#000}.C{font-family:MS Shell Dlg}.D{stroke-width:.529}.E{stroke-width:.176}.F{stroke:#000}.G{opacity:0}.H{stroke-width:.353}.I{fill:#0f0}.J{font-size:3.71px}.K{fill:#fff}.L{fill:#f0f0ff}.M{font-size:3.6px}.N{font-size:3.74px}.O{font-size:3.77px}.P{font-size:3.44px}.Q{font-size:-nan(ind)}.R{font-size:3.78px}.S{font-size:3.8px}.T{font-size:3.43px}.U{font-size:3.5px}.V{font-size:3.76px}.W{font-weight:bold}.X{font-size:3.7px}.Y{font-size:3.05px}.Z{font-size:3.72px}.a{font-size:3.79px}.b{font-size:3.75px}.c{font-size:3.67px}.d{font-size:3.52px}.e{font-size:3.73px}.f{visibility:hidden}]]></style><path d="M419.93 296.91H.09V.09h419.84z" class="K"/><path d="M314.4 7.12l.63-.62 1.44.01.03.84-1.13.16-.06.2-.47.12zm35.87 31.61l.16 2.93.15 2.86.17 3.23.15 2.86.17 3.22.15 3.19.01 2.6-1.14 1.8-.15 2.97.17 3.22.15 2.87.17 3.22.15 3.18.17 1.95.93.42.66.62.16 1.5.17 3.22.15 3.19.18 2.9.14 3.18.18 2.91.29 3.31-.65 2.65-4.61 7.89-1.6 1.02-.64-.02 3.36-9.94-1.08.66-38.7 115.4-18.89 8.04-.35-.72-.73-.36 35.26-105.04.44.02-.02-5.1.65-2.22-.64-14.21-.03-7.29 1.01-1.56-.34-11.02-.3-5.78-.87-.67-.25-.08-1.19-.54-.03-.27.35-.25-.28-9.39-.75-11.83 27.37-11.56zM236.21 77.17l-.01 1.35-.19.83-.37.25-1.33.09v-1.42l1.06-.21.67-1.06zm-9.43 10.62l-.03 8.23-.23.17-.97.19-.24-.07v-8.72l.22-.06zm-20.86.55l1.48-1.72 3.29-1.85 3.43-1.05 4.49-.63 1.72-.01.1 4-1.62.31-4.78.67-2.46.8-4.08 2-.76.89-.48.01-.34-.33zm-6.75 14.93v20.29l-.63.33-1.05.32-6.03-18.03.02-6.13zm-40.31-.67l-.13.36-2.15.76-1.58 2.62-.68.18-1.48-.88h-.99l-.89.47-2.52 3.88-1.61.91.45 1.34-.23 2.4-.26.07.19-1.81-1.01-3.2.01-2.17 12.17-5.12.09-.14.32-.07zm-5.62 5.38l-.15.3-.81.1-.78.55-.2.63-.32.47-.84-.01-.02-.55.89-2.03 1.73-.04zm25.88-13.52l-24.27 15.85-.56.73.02 2.82 1.95 7.69-.1.93.34.35.71 3.46.32.37 3.22 12.52-.1.92.34.36.68 3.2.35.61 1.88 7.72.66 1.06-7.14 3.09-.21 1.73-1.94-7.17.01-4.39 1.3-9.37-5.93-24.05.67-.97 27.73-18.01zm44.84 19.97l.01.85-.24.22-.64.08.11-1.35.34-.11zm-19.33 15.15l.51-.02.77-1.64.28 1.66.64.96 8.18 3.42.21 4.79 2.52 9.35-.58 1.14-9.1 4.03-2.47-.02-2.24-2.59-1.09.01-4.16 1.94-.87 1.05-.77 4.28-.17.24-9.71 4.08-1.66-.37.81-.55-2.27-9.36-.01-20.11.88-1.04 8.97-5.81h.75zm19.38-1.11l-.05.92-.23.22-.64.06.12-1.35.62-.09zm83.51-1.27l-.16.1.14 3.11.15 1.26.16 1.63.3 1.82-.74.02-.55-4.31-.02-3.45.89-1.05.14.02zm-7.7 7.86l-4.19 4.22-.96 1.67.01 1.97.27.7-.09.55.14 1.62.15 1.26.17 1.62.15 1.26.17 1.63.16 1.25.16 1.63.15 1.25.13 1.55.21-.89 6.56-10.16.14.18.18 1.66.15 1.26.18 1.63.01 1.27-.38 1.82-.98 2.16-5.06 7.86-.03 1.85.14-.2 3.41-5.05-.01.71-1.64 4.82-.76 1.56-.43-.17-.09-.53-.49-.03-.47.14-.33-.7-2.54-23.11-.02-2.47 1.17-1.72 4.52-4.48zm-21.66 13.89l.19 1.32.13 1.59.19 1.29.14 1.58-.08 1.56-.91.43-6.56 10.73-.28-.07-6.75-10.25-2.1.87-1.13 3.04-1.62 5.65-.64 1.39.01 1.53 1.63 3.49v2.37l-1.59 4.77-1.91-.71-2.34.95.02.44-2.63 8.21.25 2.71-.34.38-7.6 3.37-.65.07.09-.99 2.44-6.86 6.56-9.46 6.09-18.57-.12-2.99 18.92-8.08zm-.22 8.57l.6-.81.39.03.23.88-.4 1.32-.24.12.1.72.14-.84.55-.05.14 1.61-.09 1.25-.26.05-.17-.87-.09.75.26.12.16.44-.95 1.4-.03-.66.33-.77zm-110.61 7.14l-.1.27-1.81.85 1.14.03 1.06-.46.34-.07.82-.16 11.19 4.78 1.37 2.8.24.84-.04-.68-.2-.16-.23-2.14.25-.08.58.59.75 3.54.18.94.14.68.19.94.34 2.49-1.1.49.09.75-61.45 88.58-.43.19.12.5.2.79-7.14 3.13-.6.06-.27-.76-1.54.04-1.39.9.14 1.12-10.75 4.72-.65.07.29-.79 4.86-5.41 2.06-1.78 1.26-.7.05-.41-.36-.36-.77.01-.86.49.01-.97 57.07-82.01.31-.34-4.23-20.67-.36.01-.92 2.05.02 1.52 3.19 15.35-.34.8h-.35l-3.47-15.51-.62 1.39-2.34 2.16-1-.02 1.73-2.79 4.81-10.9.95-.13zm23.7-2.46l3.88-1.9 19.87-8.37.73.01.13 4-.68.34-21.24 8.92-1.49.45-.08-2.49-.17-.09zm88.6 1.8l.33.72-.08.22-1.27-.5v-.52l.66-.12zm-87.64 1.64v1.93l-.14.27-6.54 2.73-1.63.1.02-3.95 5.53-2.16 2.66-1.18zm88.1.61l-.06 1.27-.85 1.12-1.21 2.32-2.76 1.1 1.04-1.86 2.38-3.7 1.33-.43zm-4.78 11.7l1.73-.87 3.51-1.31.19-.2.18.02-.01 2.86-.31 2.9-.47.35.3.93-.51 2.18-.28.3-1.64-2.09-.43 1.01-.26.95 1.37 1.88.31.77-4.18 6.76-1.09.54-.05 2.1.19 1.3.14 1.28.22.94.23.43-.14.84.19 1.31.14 1.28.19.95.13 1.28.18 1.3.15.95.17 1.29.14 1.27.18 1.29.15.96.17 1.29.14 1.28.19.95-.02 4.4-.47 1.07-.02.31-.2.54-1.23 1.29-1.97 1.27.02-.6 1.19-2.07.42-1.18-.01-4.28-2.56-19.22-.02-6 1.84-4.25 2.35-5.02-.01-3.31zm-156.55 15.03l-11.02 2.36.18-1.42-.35-.35-.99.15-1.07 2.14-2.99.62-.89-.07 5.46-4.73 12.03-2.21zm3.45 23.69l3.7-.66 1.15-.34-3.1 8.61-.21.11.01.53-.2.86-2.99 4.37-3 .61-.32-.14 4.99-13.5zm-13.86 14.69l-.58.23.09-1.98 2.14-9.72.61-.65.88-.17 1.55-.14-1.75 8.66-.74 4.38-.45.27-.64.2-.62-.38-.3-.7-.04-1.56zm.2 9.78l-.69 2.89-.01 1.48-.37.37v.56l-.94 2.72v.83l-.71 1.32H105l-.8-.62-.55-.32.27-2.28 1.39-5.98 1.47-1.09 2.04-.34zm-25.05 23.1l.88-.83.58.22-.31.74-.31.38-.85.01zm.63 1.56l.4-.21.13.66-.16.22-.36-.08z" fill="#e5e5e5"/><path d="M224.52 114.96l-.55.32-.01-.85.24.04zm-.01 14.1l-.55.33.05-.92.22.07z" fill="#00001f"/><g fill="#00001c"><path d="M226.78 87.79l-1.25-.26 1.21.04zm89.69 1.85l-.58.36.27-.86zm-56.95.98l-.99-.18.9.04zM338.4 106l.13.53-.39.06.1-.86zm-35.07 42.03l-.18-1.66.15.11zm-24.98 2.24l-.19-1.32.17.1zm25.31.65l-.18-1.63.13.11zm-24.99 2.23l-.19-1.29.15.11zm.27 3.09l-.21.05.08-1.56.13.12zm.37 2.65l-.55.05.4-1.32.12.12z"/><path d="M278.62 159.78l-.1-.72.24-.12zm.96 1.92l-.22.05.09-1.25.14.13zm-.48.1l-.26-.12.09-.75zm-86.87 3.85l-.24-.01-.1-2.26.09-.31.17.09zm-8.98-.06l-.97-.18.98-.1zm114.1 1.4l.49.03.09.53zm-16.99-.39l-.33.92.06-1.27zm-6.22 4.62l-.41.09.18-.57zm1.07.84l-.15.24-.71-.06.07-.39zm4.92 9.64l.47-.35-.17 1.28zm-178.46 14.91l-.04-.2.89.07zm6.87 34.75h-.19l.15-1.56zm-23.88 34.89l-.13-.66.3-.21z"/></g><path d="M316.45 7.58l-1.14.13.06-.2 1.13-.16zm-2.86 22.63l-.36 2.07-.02-2.71zm36.84 11.45l-.16-2.93.12.14zm.32 6.09l-.17-3.23.13.12zm.32 6.08l-.17-3.22.13.12zm.16 5.79l-.01-2.6.13.12zm-1.12 7.99l-.17-3.22.13.12zm-25.35 5.36l-.13-1.22.25.08zm25.67.73l-.17-3.22.13.11zm-129.36.72l.34-.15.53.2zm12.72 2.03l-.75.06.29-.52.49.05zm2.41 2.07l.01-1.35.42.09zm114.55.31l-.17-1.95.13.12zm-35.37-.27h.38l.03 2.74zm-75.44 3.88l.69-.19.87.21zm112.73 2.15l-.17-3.22.13.12zm-36.53 2.55l-.22-.06.19-2.1zm-97.33.25l1.62-.31 4.08.18zM353 90.68l-.18-2.9.13.11zm-116.32 1.49l-.11-.41.37-.06zm75.11 1.7l-.11.34-.18-.87zm-132.49.53l-.18.06-.07-.55.26-4.44zm174.02 2.37l-.18-2.91.13.12zm-113.38 1.7l.7-.21.86.22zm-81.38 3.73l-.32.07-.49-.32.71.03zm.87 1.16l-.42-.11.48-.26zm180.25.75l-.68.3.35-.51zm-145.28 3.55l-.15-.85.17-.11zm-40.8.75l-.51-.13.15-.3.44.09zm-1.84.93l-.46.22.2-.63zm165.81 1.54l-.11.25-.56-.07.27-.57.29.1zm-97.38 1.04l1.84-.17.97.15zm-71.06 1.52l.36.08.07.74-.42-.39zm-2.14 1.83l-.2-.56.26-.07.17.16zm-5.46 3.49l-.11-.41.37-.06zm116.7 5.49l-1.86-.14.53-.2h1.03l.33.14zm-115.68 5.78l-.86-.16.52-.17zm164.95.38l-.14-3.11.16-.1zm.31 2.89l-.16-1.63.13.11zm-92.59 5.45l-.21-4.79.17.07zm79.78 7.04l-.14-1.62.1.09zm.32 2.88l-.17-1.62.13.11zm.32 2.89l-.17-1.63.13.12zm.32 2.88l-.16-1.63.12.12zm-81 1.84l.68-.34.54.22zm2.02.2l.87-.22 1 .18zm79.47-.13l-.21.89-.13-1.55zm-16.49 8.37l-.33-.72.3-.52zm-112.73.21l.1-.27.74.1-.11.52-.34.07zm16.02.66l.01-.28 1.2.12zm114.11.09l-.14.2.03-1.85zm-105.37 1.89v-1.93l.24.01zm88.2 2.08l.39-.38-.01 1.07-.33-.05zm-98.83.83l.5.05.08.54zm99.56 5.11l-.18-.02.13-3.44zm-98.05-.04l-.18-.94.14.12zm.33 1.62l-.19-.94.15.1zm85.38 6.2l.51-.18.65.15.04.21-.33.29zm-20.99 5.68l-.17-.87.17-.11zm4.25 3.17l.34-.38.24.58zm-128.62-.11l-.41-.11.47-.26zm150.64 6.22l-.19-1.3.15.11zm.64 4.8l-.19-1.31.14.12zm.33 2.23l-.19-.95.14.11zm.31 2.58l-.18-1.3.14.11zm.32 2.24l-.17-1.29.14.11zm.32 2.56l-.18-1.29.14.11zm.32 2.25l-.17-1.29.14.1zm-13.15-.11l-.1-.41.36-.06zm13.48 2.34l-.19-.95.15.11zm-11.74 4.46l.9.13.1.24-.08.2-.5-.06zm11.23 1.32l.02-.31 6.88.09zm-151.71 1.68l-.45.24-.01-.53.21-.11zm164.68.74l-.76-.06.84-.29zM116.7 230.8l.55-.18.32.14zm-6.03 1.37l-.12-.2.85.11zm-22.42 15.24l.37.06.06.37-.36-.07zm-3.6 16.96l.31-.74.2.87zm10.83 5.36l-.88-.07-.12-.23.36-.05zm25.29.44l-.12-.5.43-.19z" fill="#000020"/><g fill="#e5e5e5"><path d="M335.65 24.47l-.06.31-.57.04-8.01-4.55-.66.11v-.62l.66-.15zm-12.12 5.42h-1.31l-.78-.58-.01-.36.42-.06zm17.57 7.39l-.07.31-.56.04-8.02-4.55-.65.11v-.62l.65-.14zm-12.13 5.43l-1.01.03-1.31-.7-.06-.31.72-.01zM219.88 73.18l1.4-.37.13 1.46-.34.15-1.09-.3zm18.9 8.33l.64-.37 1.09.01.12 1.1-.69.19-1.08-.33zm-37.81 0l.66-.4.75.03.01 1.11-1.34-.14zm115.14 6.85l-.74-.02.04-.66.51-.6.22.06zm-81.35 1.8l-.1.63h-.86l-1.01-1.3-1.28.02-.1-.67.74-.02zm-15.77-.65l-.68.34-.88-.01-.06-.58.28-.4 1.01-.03zm-37.56.01l.64-.38 1.09.01-.01 1.45-.97-.11-.65-.38zm77.1.92l-.57-.22.04-.69.65-.39 1.08.01.02 1.4-.23.07-.09-.14zm53.43 4.02l-.28-.25.11-.34 1.02-1.17 1.93-2.55 1.15-.15zm-72.78 3.16l1.33-.12.13.76-.7.21-.76-.34zm-38.35.77l-.18-.86.65-.38 1.08.01v1.44zm10.23 2.46l-.76.53-.97.11.01-1.41 1.01-.58.7-.71zm50.05 1.64l-.41.6v-.69l.35-.09zm-41.57 3.3l1.74-.62v1.44l-1.29-.14zm-61.01-.79l-2.31 1.59-.02-.64.87-1.1zm163.04 2.11l.01 2.05-1.11 1.46-1.67.64h-.99l-.35-.13.11-.25 1-.24.76-2.22-.03-1.31.36.62.29 2.08.3-1.44-.07-1.89 1.08-.29zm-2.86.6l-.1 2.01-1.15.87-.29-.1.9-1.66-.1-1.45zm-101.31 3.23l-.29 20.31-1.07.57-.52-.01-6.1-18.59-.02-5.1.36-.36zm10.95 1.26l-.66 1.08-2.28-1.07-.06-.28.96-.68.41-.01zm35.54-17.8L226.94 110l-2.22 1.63-1.72.27-.97-.15.09-4.01 2.68-.52 38.46-16.34.65-.43zm-11.52 17.28l-.65.38-.12-.75.82-.32zm.88 1.26l-.92.67-.73.04-.01-.74 1.11-.55.28-.76zm-104.05-.24h-.43v-.81h.43zm86.8 1.17l-.39.09v-.77l.33-.05zm-44.54 1.27l-.34.33-1.26-.01-.04-.57.3-.42.67.01zm67.95 9.3l-.96-.02-.22-.17.03-.2zm50.28.1v-.62l1.53-1.46h.72zm-165.34.62l1.31-.1.33.95.01 1.74-.33.62-1.69 1.52-1.43.14-.34-.33.91-.67.32-.65.3-2.7.35 1.15.33-.34zm-1.88.92l.3-.04.36.96-.33 1.7-1.39.88h-.6l-.37-.37 1.28-.31.77-1.17zm125.9 9.18l-.31.79-.33-.06-.03-.95.37-.35zm.69 1.11l-1.11.91-.67.05v-.37l1.43-.94.34-.38zm-6.34 10.98l-1.06 1.24-.02-1.35.99-.08zm-43.18 1.05l1.74-.62v1.44l-1.29-.14zm11.7 1.31l-.02 22.24-2.34 6.95-.62 1-1.01.07 2.37-7.7-.02-22.74.88-.49.4.04zm-5.45 3.35l-.62.66-6.32 2.72-1-.18.12-3.97 1.92-.64 5.91-2.56zm-52.59 8.02l.89-.5.73.01v1.45l-.97-.11-.65-.37zm8.23 3.41l.64-.37 1.09.01.1 1.18-.98.1-.77-.33zm96.34.16l-.41.6v-.7l.35-.08zm-127.59 1.72l-.01 3.02-1.43 1.83-.49-.05-.36-.3.01.62-.71.38-1.89-.32-.42-.29.02-.35 1.31-.67.78-1.89-.06-1.65.35.97.01 1.73-1.11 1.48.73.11.68-.97.34-2-.04-1.64.35.97.24 2.4h.36v-3.9l.98-.12zm126.63-.12l-.64.65.24-.77z"/><path d="M276.69 168.29l-.74 1.29-2.04 1.16 2.03-3.72.23-.12zm-135.52.64l-2.96 8.68-2.79 6.83-1.93 2.59-.02-1 7.07-19.33zm132.36 10.22v3.07l-.36.6-1.65.54.04.29-.45.34-1.38-.01-.28-.14.33-.29.9-.33.6-1.01.3-2.07.24 2.11h.37l.02-2.92 1.03-.46zm-3.33.98l.39-.02.05 2.42-.9.81-.65-.15 1.23-2.03zm-50.32.38l1.4-.37.01 1.44-1.32-.13zm8.17 4.37l-.21-.55 1.04-.68.72.01.01 1.44zm14.36 8.86l.04-1.97.58-.13zm.72 1.83l-.05.42-.75.01.1-1.14zm40.32-5.09l.62-.1.32 23.12.33 1.68-.63.36-.35-.73-.31-1.64zm-13.14 26.85l.01 2.69-.76 1.16-1.63.31.74.33-1.13.61-1.33.01-.6-.19.08-.2 1.6-.58.46-.81.3-3.35.33 1.31-.12 1.62.74.11-.1-3.65.67-.4.39.06zm-3.58.24l.3.07.39.97.01 1.41-.47.81-1.37.98-.9-.13 1.47-.69.63-1.29zm20.49 3.58l.74-.28-.01 1.06-.69.65zM92.71 262.51l.79-.3-.14.62-.59.01zm5.91 2.52l-.03 2.72-.32.64-1.7 1.19-1.09.15-.64-.35 1.17-1 .42-2.49.52 2.18.37-.63v-1.1l-.39-.67-.5.22-.27-.49.8-.61.58.44.02-.51.69-.03zm-2.92.93l.01 2.12-1.1.87-.13.48-.79-.17-.34-.35 1.26-.65.46-.82.32-1.79zm-52.51 3.9l-1.36.03-.76-.37.32-.32h.79zm84.98-6.83l-1.09 4.06-1.07 1.49-3.85 1.97-.64-.02 5.13-7.07 1.44-.62z"/></g><g class="K"><path d="M341.19 104.56l-.07.39-2.72 1.05-.16-.27.76-1.32.68-.3 1.14.09zm-145.17 1.57l-.02 1.11-.46.52-.95.15-.19-.25.02-.96.51-.88.73-.05zm17.91 8.8l-.45.52-.95.14.1-1.64.54-.47.73.01zm-69.58 13.47l-.38-.1.44-1.02zm14.11 19.8l.26-.36.74-.1.35.35-.03 1.77-.77.83-1.16.01-.68-1.28v-1.21l.28-.74.38-.06zm9.16 17.15l-1.06.46-1.14-.03 1.81-.85zm13.96 8.19l-.24-.84.2.16zm-2.63 8.58h-1.03l.65-.39h.73zm-2.24.96h-1.04l.65-.39h.74zm-13.95.48l-.24-.83.12-.02z"/><path d="M164.19 187.62l.68.24-.34.34-1 .09-.27-.73-.5-4zm6.43-1.98h-1.03l.65-.38h.73zm-2.24.96h-1.04l.65-.38h.74zm81.87-.14l-.45 1.51-1.61 1.33-.6-.25v-.98l1.12-1.51.67-.35.74.02zM96.43 265.89l.5-.22.39.67v1.1l-.37.63z"/></g><g class="F"><path d="M223.95 128.37l-.09-.07-.31-.1-.29.04-.23.17-.15.3-.06.37.06.42.15.42.23.37.29.28.31.17.31.03.26-.11.19-.24.09-.27m0-14.01l-.09.28-.19.23-.26.11-.31-.03-.31-.16-.16-.16-.13-.13-.23-.37-.15-.42-.06-.42.06-.37.15-.3.23-.17.29-.04.31.1.09.07" class="E"/><g class="D"><path d="M217.22 110.9v20.44l1.96.83.51.28.48.43.42.54 10.01 15 .43.78.26.85.1.85v19.77l-.04.47-.1.43-2.67 8.28 16.26 6.87"/><path d="M224.17 128.53l-.22-.16-.03.25.05.42.15.42.23.37.29.28.07.04.01-.06.02-.2-.02-.21-.1-.42-.19-.4-.26-.33m-.05-13.08l-.15-.42-.05-.42.03-.25.22.16.26.33.19.4.1.42.02.21-.02.2-.01.06-.07-.04-.29-.28-.23-.37"/></g><g class="E"><path d="M189.71 104.94l1.64.69-.04-.49v-4.39l.03-.23.07-.23.13-.2.02-.03"/><path d="M191.48 100.19l-1.64-.69m7.7 24.81l-6.09-18.24-.1-.44"/><path d="M194.23 107.62l-.05-.38.05-.42.15-.42.23-.37.29-.28.32-.17.3-.03.26.11.2.24.1.34.01.19-.01.21-.1.42-.19.4-.27.34-.3.22-.32.1-.29-.04-.23-.17-.15-.29"/></g><path d="M199.18 123.62l-1.64.69-1.64-.69-6.09-18.24-.1-.44-.04-.49v-4.39l.03-.23.08-.23.12-.21.02-.02" class="D"/><g class="E"><path d="M154.16 111.3l-3.45 1.46-.04.51.08.56 5.67 22.36.12.79-1.24.06m-4.59-24.28l.17-.42.27-.28 28.15-18.38m-22.01 65.05l-2.25-8.9-.12-.8-1.23.06"/><path d="M154.92 149.03l.04-.8 1.54-10.45.04-.8m.48-11.63l-.03.15-.07.15-.02.1.01.1.04.1.05.07.07.04.08.02.07-.02.07-.05.05-.08"/><path d="M156.91 125.72l.36-.02m-.82-3.25l-.33.02.02-.06.06-.07.07-.04.07-.01.08.03m-.3.15v.01m1.79 28.23l.26.13.5.01.47-.19.39-.4.27-.54.12-.63-.04-.67-.2-.61-.33-.5-.44-.33-.49-.12-.48.09-.2.13m4.04-3.63l-.05.08-.07.05-.07.02-.08-.02-.07-.05-.05-.06-.04-.1v-.13l.36-.02m-.25-.35l-.02.14-.08.16-.01.07m-.46-3.27l-.32.01.02-.05.05-.07.07-.04.07-.01.08.02"/><path d="M160.57 139.98l-.01.01m18.73-48.79l.01.02"/></g><g class="D"><path d="M157.32 158.72l-.03.01-1.23.05-2.26-8.9-.11-.79.03-.81 1.55-10.44.03-.8-.11-.8-5.67-22.36-.16-1.09.09-1 .32-.82.54-.56 28.41-18.54.43-.31.13-.17-.03-.15.05-.05m-22.37 57.79l.04-.66.2-.6.33-.47.24-.17.37.29.34.5.2.61.04.66-.13.64-.27.54-.38.39-.2-.1-.39-.42-.27-.57-.12-.64"/><path d="M156.45 122.46l-.33.02-.02.13.02.1.04.09.06.06.12.07.05.05.04.06.03.07.55 2.15.01.09m3.87 14.63l-.33.01-.02.13.02.1.04.09.06.07.13.07.05.04.04.07.02.07.55 2.15.01.09"/></g><path d="M225.3 87.43v9.02" class="E"/><path d="M223.66 87.27v9.34m11-6.49l-.24.88" class="D"/><g class="E"><path d="M151.64 175.54l1.6-1.73 5.66-12.83m-2.76-38.29l.33-.14"/><path d="M156.11 122.66l.05.04.02.04.04.13m.97 2.54l-.19.08m-.02.04l.22-.1m4.19 17.68l.26-.11m-.28.15l.29-.13m-1.09-2.77l.05.04.04.09m-.06-.1l.33-.14"/></g><path d="M149.46 113.5l-9.32 6.09-1.07 1.17-.6 1.73-.04 2.11.36 1.55m21.61 35.46l-4.97 11.28-1.6 1.72-2.19.93-2.14.64-2.43-.5-2.43-1.6-2.12-2.5-1.57-3.09-.83-3.33.02-3.15 2.91-19.23.04-2.99-.74-3.16-2.94-8.44" class="D"/><g class="E"><path d="M207.74 112.56l1.64.69-.03-.48v-4.4l.02-.23.08-.23.12-.2.03-.03m-.09.13l-1.64-.69m7.71 24.81l-6.1-18.24-.1-.44"/><path d="M212.22 114.92l.05.32.15.29.23.18.29.04.31-.1.31-.23.26-.33.19-.4.1-.43.02-.21-.02-.19-.1-.34-.19-.24-.26-.11-.31.03-.31.17-.29.28-.23.37-.15.42-.05.42v.06"/></g><path d="M207.96 106.99l-.03.03-.12.2-.08.23-.02.23v4.39l.03.49.11.44 6.09 18.24 1.64.69 1.64-.69" class="D"/><g class="E"><path d="M157.32 156.1l23.83 10.08.78.24.92.12h.97l.91-.12.79-.25 6.01-2.54.28-.16.15-.2v-.2l-.15-.19-.57-.33-.14-.2v-.1"/><path d="M173.16 161.19l-.02.03.03.28.24.26.42.21.57.15.65.05.66-.03.59-.12.37-.16.1-.04.29-.25.08-.28-.13-.27-.34-.24-.51-.18-.61-.11-.67-.01-.63.08-.54.16-.38.23-.17.24m8.37 3.23l.38-.23.54-.16.63-.08.66.01.62.1.51.18.33.24.14.28-.08.27-.29.25-.47.2-.6.12-.65.04-.65-.06-.57-.14-.43-.22-.24-.26-.02-.28.19-.26m1.8 6.32v-4.2m7.77-4.19v-.2l.14-.2.29-.16 22.95-9.7.39-.12.46-.07h.49l.46.07.78.24.46.06h.48l.46-.06.4-.12 6.01-2.54.57-.34.29-.38v-.41m-33.77 17.39v-2.54"/><path d="M215.58 151.9v4.21m2.18-3.84v4.2m1.86-7.67l.24.26.43.21.57.14.64.06.66-.03.6-.13.46-.2.29-.25.09-.27-.14-.28-.34-.24-.5-.18-.62-.1-.66-.01-.63.08-.54.16-.39.23-.19.27.03.28m6.11-.18v4.2"/></g><path d="M164.86 152.92l-7.54 3.18v4.21l23.83 10.07.78.24.92.12h.97l.91-.12.79-.24 6.01-2.54.28-.17.15-.19v-1.67l6.83-2.89 15.69-6.63.39-.12.46-.06h.49l.46.06.78.24.46.06h.48l.46-.06.4-.12 6.01-2.54.57-.33.29-.39v-.41-4.2l-.29-.39-.57-.33-8.35-3.53" class="D"/><g class="E"><path d="M225.91 110.49l.27.41.17.19-.84.93m.84-.93l.21.15 1.4.72.85.59.67.77 28.41 42.56.53 1.01.33 1.09 19.59-8.27"/><path d="M235.81 114.01l.19.05h.18l.15-.07.11-.11.05-.16-.01-.18-.08-.19-.13-.17-.17-.13-.19-.09-.19-.03-.17.04-.13.09-.08.14-.02.17.05.19.1.18.15.16.19.11m7.58 81.68l2.26-6.99.27-.63.4-.65 6.03-8.55.4-.65-1.24-1.1"/><path d="M245.92 188.07l-1.23-1.1m4.08-.51l.54-.32.43-.11.34.06.2.23.04.37-.12.48-.27.53-.39.52-.47.46-.49.35-.47.2-.39.03-.27-.15-.12-.31.04-.43.19-.51.09-.14m6.33-5.1l.2.18-.25.27-.07.05-.07.02-.06-.01-.03-.03-.01-.05.02-.08.09-.16.18-.19.07-.13.47-1.47m-1.77-2.8l.26-.64 5.67-17.56.16-.96-.09-1.08m-4.25 22.61l.01.03.07.04m.39-.42l-.05-.08-.04-.01m.25.08l1.46-.62.12-.08.25-.26.14-.07.05.01.04.03.01.06-.02.07-.04.08-.12.15m1.5-10.45l-.07.09-.15.11-.07.02h-.06l-.03-.03.01-.12.04-.1.23-.27.07-.13.48-1.47m.06-.35l-.08-.04-.01-.03m3.69-17.63l.28-.01.29-.12.2-.22.09-.3-.03-.34-.14-.35-.24-.32-.32-.26-.36-.16-.36-.05-.32.07-.24.17-.15.27-.03.32.02.12m-.56-44.75l.19.11.19.06.18-.01.15-.06.11-.12.05-.16-.02-.18-.07-.18-.13-.17-.17-.14-.19-.08-.19-.03-.17.03-.13.1-.08.13-.02.18.05.19.1.18.15.15"/></g><g class="D"><path d="M252.26 191.94l-8.87 3.75-1.23-1.09 2.26-7 .27-.63.39-.65 6.03-8.55.4-.65.27-.63 5.67-17.57.08-.49-.05-.55-.16-.55-.28-.52-28.4-42.55-.68-.78-.85-.59-1.39-.72-.21-.15-.17-.19-.27-.41.84-.93 37.6-15.89.27.41.11.22.03.22-.03 1.32.14.89.43.88 17.82 26.7"/><path d="M248.11 187.08l-.21.24-.25.4.19-.13.47-.46.39-.53.07-.14-.44.36-.22.26m11.81-51.71l-1.25-.51-1.16-.85-.94-1.1-4.6-6.9m3.16 54.22l-.13.02-.13-.1-.06.01-.08.04-.14.14-.09.16-.01.07.09.09.03.08-.09.28m4.78-14.63l-.12.05-.08.06-.07.08-.09.16v.08l.09.08.02.08-.08.27m2.41-19l-.06-.23.25.04.35.16.31.25.25.32.14.35.01.06h-.06l-.37-.11-.34-.21-.28-.29-.2-.34"/></g><path d="M191.68 116.19l-.02.12-.15.29-.23.18-.29.04-.31-.1-.31-.23-.26-.33-.19-.4-.11-.43v-.4l.11-.34.19-.24.26-.11.31.03.25.14m2.47 8.11l.55-.36.42-.18.25-.01" class="E"/><path d="M179.33 94.39l-24.57 16.04-.43.46-.27.66-.07.82.12.89 9.98 39.33 20.06 8.48m6.77-46.15l.09.38.19.4.27.33.21.16.03-.26-.05-.42-.15-.42-.23-.37-.29-.28-.06-.03-.02.06-.02.19.03.26m4.48 7.19l-.55-.15-.23.01-.13.09" class="D"/><g class="E"><path d="M184.3 161.68l1.54-.07-2.39-9.43-.06-.33-.02-.31v-19.21l.06-.48.16-.39.27-.27 9.31-6.08.26-.11.3-.01.31.09 10.93 4.62.66-1.18.22-.1m-22.46 23.43l31.7-13.39"/><path d="M183.51 131.65l13.05-5.51m-10.72 35.47l.74.51m5.53-39.06l.59-.25h.11l.54-.02.69.19 11.59 4.89v.65m-12.61-5.72l1.93-.81m8.07 28.28l.36-.15.06-.01.84-.04.43.21.37.34 2.27 2.72"/><path d="M204.28 150.07l-.45-.06-.39.1m1.53-20.41l1.11-.47m-.45-1.36l1.7-.72"/></g><path d="M194.71 121.96l-2.6 1.1-9.31 6.08-.58.59-.36.85-.13 1.05v19.22l.05.69.13.7 2.39 9.44.74.51 1.54-.07 9.83-4.16.58-3.92.15-.56.25-.5.34-.39.4-.25 4.89-2.07.15.07.37.35 2.26 2.72 1.55-.07 9.83-4.16.36-.96-2.39-9.42-.06-.34-.02-.31v-4.19" class="D"/><g class="E"><path d="M179.3 94.04v-.01.32"/><path d="M179.3 94.03v-1.5 1.5m0-4.19v2.69m0-2.9v1.41m0-.9l.45.59.85.49.25.11 37.46 15.83 1.17.36 1.38.19h1.45l1.38-.19 1.18-.36 37.71-15.94.85-.49.45-.59v4.21m-82.27-4.08l-.25-.26-.02-.28.19-.27.38-.22.54-.17.63-.07.66.01.62.1.5.18.34.24.14.27-.08.28-.29.25-.22.11-.25.09-.59.12-.66.04-.65-.06-.57-.14-.42-.22"/><path d="M201.73 98.71l.65.06.65-.03.6-.13.25-.09.21-.1.3-.26.08-.27-.14-.28-.34-.24-.5-.18-.62-.1-.66-.01-.63.08-.54.16-.39.23-.18.27.02.28.24.26.43.21.57.14m-.32-16.43l.46.11.52.05.53-.03.48-.1.21-.07.17-.09.23-.2.07-.22-.11-.23-.27-.19-.41-.15-.5-.08-.53-.01-.51.07-.44.13-.31.18-.15.22.02.22.2.22.34.17m4.94 9.66l-.79-1.03v-1.36 1.36m31.27 1.03l.79-1.03v-2.15l-1.57-2.04-2.98-1.73-4.11-1.26-4.83-.67h-5.08l-4.83.67-4.11 1.26-2.98 1.73-1.57 2.04v.79m2.1 11.76l.14.05m-.54-.27l.03.04.06.03m-.3-.33v.04l.05.05m1.92.62l-.17-.01m-.47-.04l-.17-.03m1.48.03l-.19.02m.75-.15l-.14.04m.48-.19l.1-.06m.33-.47v-.04m-.11.33l.03-.03.01-.04m8.67 5.28l-.03-.28.19-.27.39-.22.53-.17.64-.08.66.01.62.11.5.18.34.24.14.27-.09.28-.29.25-.21.11-.25.09-.6.12-.66.03-.64-.05-.57-.15-.43-.21-.24-.26m.1-32.79l-.13.17.03.28.24.26.43.22.57.14.64.06.66-.04.6-.12.25-.09.21-.11.29-.25.09-.28-.14-.27-.34-.24-.5-.18-.62-.1-.66-.01-.64.08-.53.16-.39.23-.06.09"/><path d="M232.95 79.65l-.16-.05m-.29-.15l-.09-.06m-.22-.26v.03l.04.04m1.3.58l-.19-.03m.64.07l.2.01m.46-.03l.19-.02m.57-.14l-.16.05m.6-.26l-.05.05-.06.02m.33-.25l.02-.03.02-.04m.05-.18l.01-.06m1.46 9.82v.79m1.53 8.23l-.04.06.02.22.19.21.35.18.46.11.52.05.53-.03.48-.1.2-.07.18-.09.23-.2.07-.23-.11-.22-.28-.19-.4-.15-.5-.08-.54-.01-.51.07-.43.13-.31.18-.11.16m0-15.51l-.16-.08-.24-.26-.03-.28.19-.27.39-.23.53-.16.64-.08.66.01.61.1.51.18.34.25.13.27-.08.28-.29.25-.21.1-.26.09-.59.13-.65.03-.65-.05-.57-.15-.27-.13m18.83 7.28l-.13.18.03.28.24.26.43.22.56.14.65.06.66-.04.59-.12.26-.09.21-.11.29-.25.08-.28-.13-.27-.34-.24-.51-.18-.61-.1-.66-.01-.64.07-.54.17-.38.22-.06.09m5.9 1.66v.52m0-1.59v-.31"/></g><g class="D"><path d="M179.3 94.35l.45.58.85.5 37.71 15.93 1.17.36 1.38.19h1.45l1.38-.19 1.18-.36.4-.17M179.3 93.97v-4.42m54.75-13.16l-9.18-3.88-1.18-.36-1.38-.18h-1.45l-1.38.18-1.17.36-37.71 15.94-.85.5-.45.58v.1m28.05 3.45l-.22-.13-.78-1.01.78-1.01 2.98-1.74 4.11-1.26 4.83-.66h5.08l4.83.66 4.11 1.26 2.98 1.74.78 1.01-.78 1.01-2.99 1.74-4.1 1.26-4.83.66h-5.08l-4.83-.66-4.11-1.26-2.76-1.61m56.53 1v-4.55l-.45-.58-.85-.5-26.47-11.18m27.48 17.45l.29-.37"/><path d="M263.88 92.53v1.34m0-2.66v-1.66"/><path d="M263.88 89.67v.16"/></g><g class="E"><path d="M217.44 180.96h0m0 .2l.3.39.57.33 23.83 10.07v4.2m-22.56-15.16l.08-.28.29-.25.47-.19.59-.13.66-.03.65.06.57.14.42.21.24.26.03.28-.19.27-.38.23-.54.16-.63.08-.63-.01h-.03l-.62-.1-.51-.18-.33-.24-.14-.28"/><path d="M228.62 185.1l-.37-.13-.34-.24-.13-.27.08-.28.29-.25.47-.2.59-.12.66-.04.65.06.56.14.43.22.24.26.03.28-.19.26-.38.23-.54.16-.64.08-.66-.01-.61-.1-.14-.05m13.52 6.85l1.01-.43"/></g><path d="M225.98 177.35l-.32-.04h-.49l-.46.06-.39.12-6.01 2.54-.57.33-.3.39v.41 4.2l.3.39.57.33 23.83 10.07 1.2-.5" class="D"/><path d="M219.22 90.54l-.01.12-.15.29-.24.18-.28.04-.32-.1-.3-.23-.27-.33-.19-.4-.1-.43v-.4l.1-.34.19-.24.27-.11.3.03.25.13" class="E"/><g class="D"><path d="M219.22 90.54l-.21-.16-.26-.33-.2-.41-.1-.42-.01-.21.01-.19.02-.07"/><path d="M218.47 88.75l.07.04.28.28.24.37.15.42.05.42-.04.26"/></g><path d="M258.79 180.15l-.33.06" class="E"/><path d="M258.86 179.96l-.5.21m16.47 14.04l-1.39.59" class="D"/><g class="E"><path d="M205.85 127.96l11.58 4.9.7.4.65.58.59.74 9.3 13.94.58 1.08.37 1.17.13 1.16v19.21l-.05.65 1.66-.7"/><path d="M218.45 133.55l1.67-.71m7.41 47.31l-.36-.35-1.54-1.37m1.54 1.37l2.4-7.42.13-.59m-.26-21.6l1.67-.71"/></g><path d="M207.54 127.25l-1.69.71v.65l.65 1.73 10.93 4.62.32.18.3.27.26.33 9.31 13.95.26.49.17.53.06.53v19.21l-.02.3-.06.26-2.4 7.42.36.35 1.54 1.37 1.11-.47m-15.21-49.94l-14.25-6.03v-20.43" class="D"/><g class="E"><path d="M231.14 88.6l.41 1.06.26.55.34.47.39.38.43.25 3.27 1.39"/><path d="M232.15 90.68l1.09-.46"/></g><path d="M226.73 87.62v8.64m5.85-7.22l.06.16.26.55.34.47.39.38.43.25 2.72 1.15" class="D"/><path d="M253.91 183.1l.05-.01.12-.01.06-.03.03-.06m4.57-2.66l-.14.41-.24.46-.36.28-.44.1-.5-.11-2.34-.99-.14-.13m5.08-15.18l-.35 1.09-.01.06.02.15.07.17.01.1-.01.09-.03.07-.05.04-.07.01-.07-.02-.07-.05-.06-.08-.05-.09-.01-.05m12.82 59.56l1.57-1.77.83-2.63-.02-3.16-2.91-21.69-.04-3.02.73-2.55 3.42-6.9.51-1.81-.05-2.14-.59-2.24-1.07-2.07-12.19-18.27m13.85 22.58l2.19-.93" class="E"/><g class="D"><path d="M259.66 165.17l2.33-7.2 2.18-.93 12.2 18.27 1.07 2.08.59 2.23.04 2.15-.51 1.8-3.41 6.91-.73 2.55.03 3.02 2.92 21.69.01 3.16-.82 2.63-1.57 1.77-2.19.92-2.12.7-2.43-.45-2.43-1.55-2.14-2.46-1.6-3.08-9.44-29.36 2.21-6.82.02-.06.04-.04.27-.11.01-.08v-.1l-.04-.1-.05-.09-.07-.07"/><path d="M258.37 168.92l.06.05 1.82 3.86.25.72.08.72-.1.64-1.74 5.42-1.83-.78-.12-.1"/></g><g class="E"><path d="M313.76 40.3l-.07-1.5 2.6 50.38m-2.45-47.39l.08 1.49m-.23-4.48l-.48-9.18"/><path d="M313.23 29.85l-.01-.22M315 64.18l.01.25m-.32-6.22l-.08-1.5"/></g><path d="M324.79 103.86l-7.96-13.77-.36-.53-.18-.39-1.28-24.74-1.84-34.9" class="D"/><path d="M290.42 224.79l.11.96" class="E"/><path d="M287.82 225.16l2.71.59 19.24-8.13-.09-.78" class="D"/><path d="M338.54 105.54l.06.05.63.14-38.44 114.9m9.03-3.88l11.53-34.35m.05-.13l-.05.13.11-.32-.06.19m.06-.19l4.01-11.94m0 0l2.5-7.46-.5 1.49m.5-1.49l.5-1.49-.5 1.49m.5-1.49l1.85-5.5m0 0l.66-1.97-.5 1.5m.5-1.5l.83-2.49-.33 1m.33-1l.67-1.98-.5 1.49m.5-1.49l2.01-5.97m0 0l.31-.95-.31.95m.31-.95l.69-2.04-.5 1.49m.5-1.49l.5-1.49-.5 1.49m.5-1.49l2.5-7.46-.5 1.49m.5-1.49l.51-1.5-.51 1.5m.51-1.5l6.01-17.91m-5.78-6.2l1.67-.71m-.5-.6l-1.53.65" class="E"/><path d="M297.95 136.71l.19 1.73m2.12 82.07l.53.12 8.74-3.7.35-.22.15-.21 35.48-106.06m-.5 1.49l2-5.97-.5 1.5m.77-2.29l.23-.7-.5 1.49.25-.75m.25-.74l.74-2.21" class="D"/><g class="E"><path d="M327.05 41.4l-.62.27"/><path d="M330.32 28.49l-.08.08-.05.11-3.18 12.38-.02.14.03.14.06.13.08.11.11.09 1.56.88.12.04h.11l.11-.04m-.05.02l-.73.32"/><path d="M328.44 42.86h0m3.57-10.58l-.06.02-.08.09-.04.11-.07.24m9.77 4.58l-.1.04h-.11l-.12-.04-8.91-5.02-.12-.04h-.11l-.11.04m9.53 5.04l-.72.32"/><path d="M340.81 37.64h0"/></g><path d="M328.24 42.91h.1l.83-.36.08-.09.05-.11 2.46-9.61m8.84 4.94h.11l.82-.36.08-.08.05-.12.45-1.73.01-.13-.02-.14-.06-.13-.08-.12-.11-.08-11.2-6.3-.12-.05h-.11l-.65.29" class="D"/><path d="M315.08 91.11l.8-1.09-.9-.16-3.47 4.68m3.47-4.68l.13-.77.16-.73.08-.3.89.16m-.89-.16l.08-.31.14-.42.12-.18.38-2.22m-.19 5.09l.14-.76.16-.74.06-.24m-.55-1.13l.5.09" class="E"/><path d="M315.71 78.05l-4.01 15.29-.08.58-.11.62.24.04" class="D"/><g class="E"><path d="M282.34 190.03l.88-.37m-1.21.43l.21-.07.24.02.25.11.24.2.15.3.1.33.04.32.03 20.94.15 1.51.44 1.52.68 1.44 2.46 4.22.13.25.87-.37"/><path d="M283.15 190.82l.88-.37m2.87 32.15l.2-.17.12-.26.04-.33-.05-.37-.08-.29m.03 1.12l.87-.37"/></g><path d="M274.18 201.43l7.66-11.17.17-.17.87-.37.21-.07.25.02.25.11.23.2.16.3.1.33.03.32.04 20.94.15 1.51.43 1.52.69 1.45 2.46 4.21.12.25.09.29.04.37-.04.33-.12.26-.19.17-.88.37-.24.05-10.84.05" class="D"/><g class="E"><path d="M309.36 9.3l-.01 1.12"/><path d="M313.65 12.09l-.01.38.01-.38-2.99-1.34-.85-.52-.45-.61v-.63m1.23 14.27l.73-.31m38.8 15.55l-27.33 11.55-.17-.53-11.16-26-.12-.38-.04-.39.05-.37 2.13-8.31.07-.33.09-.81.01-.49-.01.05m-.39 1.22l-.02.01m.41-.79l15.62-6.6"/><path d="M313.64 12.47l-.01.05.02-.09m-.17.7l.03-.11-.04.19-.11.22"/><path d="M313.63 12.52l-.12.5m1.25-5.25l-.24-.17-.16-.33.09-.33.34-.29.54-.23.68-.14.76-.03.75.08.65.17.5.26.28.32.03.33-.22.31-.19.11m4.22 42.22l.08.54 1.03 19.8.06.36.13.29-.87-.29m.16-40.86l-.08.23-.08.08-.1.05h-.1l-.07-.02-.26-.14m1.58 60.89l.87.29-.09.39-.02.39 1.04 19.81-.02.41-.08.37-.58 1.75-.05.19-.02.17.07 5.08.06.24m-1.36-49.03l.19.23.24.13.56.18.24.13.19.22-.87-.29"/><path d="M324.25 71.31l.27.09m-.23-55.46l-.09.09-.04.11-.07.24m1.25 98.2l-.82-.74m.62-22.57l.16-.36.22-.33.52-.64.22-.33.15-.36-.87-.3m.87.3l.09-.39.02-.39-.56-10.86-.27-5.02-.05-.36-.13-.3m.54 40.34l4.1-1.73"/><path d="M328.87 42.68l-.08.22-.08.09-.1.04-.17-.02-.27-.14m2 67.4l-.1.02-.08-.03-.07-.1m.51-.36l-.03-.12-.05-.08-.07-.05-.08-.01-.08.03-.11.08m-.43-80.49l.06-.24.05-.11.08-.08.05-.02m5.93-4.04l-.08.22-.08.09-.1.04h-.11l-.06-.02-.27-.14m6.31 80.32l-.12-.63-.26-.5-.39-.32-.47-.11-.15.03"/><path d="M340.54 37.65l.27.13.16.02.11-.04.08-.08.07-.23m7.1 64.78l.54-.23.43.18-.02.27-.08.37-2.96 8.85"/><path d="M349.28 102.45l4.1-1.73m-4.08 1.46l.15-.12.06-.11.04-.13v-.13l-.02-.11-.06-.08-.08-.04h-.09l-.09.04-.08.08-.07.11-.04.13-.01.12-.14.06m2.88-22.51l-.61-.2"/></g><g class="D"><path d="M309.35 10.45v.28l.44.61.86.52 2.83 1.27-.12.3-.13.29-.47.66-2.14 8.32-.05.37.04.39.12.38 11.16 26 .08.22.03.23 1.03 19.81.06.35.13.3.19.22.23.14.61.2.2.11.19.22.13.3.05.36.83 15.88-.02.38-.09.39-.16.37-.21.33-.53.64-.21.32-.16.37-.09.39-.02.39 1.03 19.8v.18l-.04.16-.58 1.75-.05.19-.02.17.07 5.08.06.24.82.74.16.14.24.03.32-.09.94-.4 2.96-8.84.08-.37.02-.27-.25-.11-.04-.15.01-.13.05-.12.07-.1.42.14 7.65-3.24.04-.69.21-.7.33-.63.45-.49.5-.32.36-.08.14.11.26.5.12.62.87.3 6.97-2.95-2.91 8.7.82.74.95-.4.34-.2.35-.28.33-.35.26-.36 4.05-6.82.19-.42.59-1.75.08-.37.01-.41-1.03-19.81-.06-.35-.12-.3-.19-.22-.24-.14-.61-.2-.2-.11-.19-.22-.12-.3-.06-.35-.83-15.89.02-.38.09-.39.16-.37.21-.32.53-.65.21-.32.16-.37.09-.39.02-.39-1.03-19.8-.08-.54-.18-.53-11.16-26-.19-.35-.26-.29-.3-.22-7.52-4.24-1.07-.5-1.19-.27-.39-.02-2.99-1.34-1.17-.38-1.38-.22-1.45-.01-1.38.17-1.17.36-7.66 3.23-.85.51-.45.59-.01 1.46"/><path d="M314.91 7.89l-.15-.12.55-.24.69-.14.76-.03.74.08.66.18.41.21-.25.16-.63.18-.73.09-.76-.02-.71-.13-.58-.22m7.78 22.2l-1.49-.84-.11-.08-.08-.11-.06-.13-.02-.15.01-.1 3.15-12.3m4.08 26.49l-1.48-.83-.11-.09-.08-.11-.06-.13-.02-.15.01-.12 3.15-12.28m5.47-4.3l-8.77-4.92m5.49 12.78l8.77 4.93"/></g><g class="E"><path d="M276.53 131.73l40.18-41.82m-28.24 135.25l.34-.23.33-.06m36.04-105.05l-35.13 104.99"/><path d="M300.69 133.86l-.3.02-.27.17-5.61 5.84-.43.67-.22.87v1.01l2.67 24.1.11.48.21.46.3.39.34.27.36.12.33-.03.27-.19.04-.06"/><path d="M294.63 140.72l-.66.27m15.18-4.88l-.03.06-.28.19-.33.03-.35-.12-.35-.27-.3-.39-.21-.45-.11-.49-.61-5.47v-1.01l.22-.87.43-.67 3.93-4.08.29-.18h.27"/><path d="M307.35 127.48l-.66.28m18.1-23.96l-7.55-13.07m-.29-.43l.03.04m21.59 15.67l-.47.2"/></g><g class="D"><path d="M316.52 89.62l-39.34 40.92-.47.64-.25.77-.02.81.06.35 4.33 39.14.22 5.31-.53 4.94-1.28 4.41-1.96 3.74-3.81 5.54m65.08-90.64l.05.04-.03.42-38.44 114.89-8.79 3.72-.48.12-.48.05-1.17.07-.74.3-14.41.06"/><path d="M295.8 153.72l-1.28-11.56-.01-1.01.22-.86.43-.68 5.53-5.75h.03l.36.13.34.27.28.38.21.46.11.48 1.73 15.59.01.89-.16.8-4.97 14.86-.14.26-.34-.12-.35-.27-.29-.38-.22-.46-.11-.49-1.38-12.54m12.05-19.32l-.61-5.47v-1.01l.22-.88.44-.68 3.82-3.97.09-.01.38.17.35.33.29.43.18.5.06.51-.07.45-3.71 11.08-.14.26-.34-.12-.34-.27-.3-.38-.21-.46-.11-.48"/></g><path d="M338.34 105.57l-.01-.01-.03-.03-.02-.02-.02-.04-.01-.03m.18.15l.03-.02.01-.03.08-.23v-.03-.05l-.01-.04-.02-.04-.09-.17m.12.25l.33-.13" class="E"/><path d="M338.34 105.57l.03.01.03.01h.03l.33-.14.02-.02.02-.03.08-.23v-.03-.04l-.01-.05-.02-.04-.23-.39" class="D"/><g class="E"><path d="M321.56 28.62l-.61.27"/><path d="M324.83 15.7l-.08.09-.05.11-3.18 12.38-.01.13.02.14.06.14.08.11.11.08 1.57.88.11.05h.12l.1-.05"/><path d="M323.63 29.78l-.73.32"/><path d="M322.95 30.08h.01m3.56-10.58l-.05.02.1-.04h.11l.12.04 8.91 5.02.12.04h.11l.11-.04m-9.58-5.02l-.08.08-.05.12-.06.23"/><path d="M335.99 24.56l-.72.32"/><path d="M335.32 24.85h0"/></g><path d="M326.28 19.95l-2.47 9.62-.05.11-.08.08-.83.36h-.1m12.36-5.22h.11l.1-.05.73-.31.08-.09.05-.11.44-1.73.01-.13-.02-.14-.06-.14-.08-.11-.11-.08-11.2-6.31-.11-.04h-.12l-.65.28" class="D"/><g class="E"><path d="M316.46 110.57l.24.16.17.11.59.14.18.03.53-.12.15-.05.42-.36.11-.13.26-.57.05-.2.08-.71v-.24l-.11-.78-.07-.25-.29-.77-.12-.24-.44-.67-.16-.2-.53-.5-.2-.14-.57-.27-.2-.07-.54-.02-.19.02-.46.23-.15.11-.33.46-.1.18-.11.45"/><path d="M315.25 104.76v-.02.04l.01.19-.01.01-.2.3"/><path d="M315.26 104.97l.05-.03.67-.38.69-.12.75.21.75.52.64.74.5.91.32 1.02.08 1.01-.16.89-.36.66-.55.41-.13.05-.7.18-.07.01-.27-.06m-1.43-5.65h-.09l-.18.09m.75-.09h-.18"/><path d="M315.61 104.77v-.01l-.01-.2m.05-.28l-.01.01m.76-.38h0m1.51 6.44l.08-.02.16-.15m.29-.29l-.01.03-.07.06m-1.07-6.03l.44-.18m1.3 6.83l.6-.25-.26-.15-.18.2-.16.2.39.22.04.02.03.01.04-.01h.02l.43-.19"/><path d="M319.63 110.35l.15.08.05.01h.01m-1.23-4.84l.2.31.23.31.35-.28.03-.02.03-.02.04-.02.18-.08-.35-.5-.71.3.35-.28.06-.04.03-.01.03-.02.44-.18"/><path d="M319.67 105.8l.01-.01m-.35-.5l-.01.01m.99 3.02l.44-.18"/></g><g class="D"><path d="M314.66 106.19l.12-.51.03-.05.24-.35.2-.54.02-.03.03-.02.3-.13-.01-.19.01-.04.03-.03.77-.39m.05 6.65l.45.3.57.13.36.18.03.01.9.04h.03l.44-.19.75-.38-.14-.21h.01.04l.43-.19.37-.94.06-1.17-.26-1.26-.55-1.2-.26.11-.35-.5.19-.22-.86-.83-.93-.47-.9-.04-.43.18"/><path d="M316.64 105.38l-.09-.04h-.03m1.04.61l.21.19.08.1m.46.73l-.05-.12-.17-.25m-1.13-1.08l.22.09.09.08m1.44 3.33l-.02.28-.04.09m-.13.31l-.08.19m.04-2.51l.12.29.02.13m.12.84l.01-.12-.05-.3"/></g><path d="M232.16 77.51l.16.27.36.24.52.17.63.09h.66l.63-.09.52-.17.36-.24.16-.27m-.23-.54l.05.25-.14.25-.33.21-.48.16-.57.08h-.6l-.57-.08-.48-.15-.33-.22-.15-.24.05-.26" class="E"/><path d="M236.16 78.99v-1.48l-.05-.28-.18-.26-.24-.23-.41-.19-.53-.12-.59-.04-.6.04-.53.12-.41.19-.24.23-.17.26-.05.28v1.48" class="D"/><g class="E"><path d="M266.73 178.97l.1-.47.1-.18.31-.47.16-.11.45-.25.18-.02h.54l.2.06.57.26.2.13.53.49.17.2.44.66.13.24.3.76.07.25.12.79.01.23-.06.73-.05.19-.26.58-.1.14-.41.38-.15.06-.53.13-.17-.03-.59-.12-.17-.11-.29-.18"/><path d="M267.29 177.53v.04l.01.17-.01.01-.17.26m.18-.27l.05-.03.65-.4.69-.13.75.19.75.5.65.72.51.9.33 1.02.07.64.03.37-.14.9-.35.68-.53.43-.14.05-.69.19-.07.02-.33-.07m-1.62-5.59l.08-.04.03-.01m.3 0l.26-.01h.01m-.92-1.01h0m.75-.4h-.01"/><path d="M267.63 177.36l.02.17m2.41 5.53l.04-.01.18-.19m.24-.23l-.03.03m-.75-6.17l-.43.19m1.82 6.63l.62-.26-.28-.16-.18.21-.16.21.4.22.04.01.03.01h.04l.02-.01.43-.18"/><path d="M271.75 183.05l.13.07.05.01m-.39-5.39l-.44.19-.03.02-.03.01-.06.04-.35.28.21.31.23.3.35-.28.03-.02.02-.02.05-.02.17-.08-.34-.49-.72.3"/><path d="M271.69 178.47l.02-.01m-.35-.49l-.01.01m1.02 3.01l.44-.19"/></g><g class="D"><path d="M266.72 178.98l.11-.51.03-.05.26-.41.17-.48v.02m1.12-.89l-.75.41-.03.03-.01.04.01.22-.29.12-.03.02-.02.03m1.23 5.78l.5.31.06.02.45.08.43.21h.03l.89.02h.04l.43-.19.74-.4-.16-.23h.03l.03-.01.44-.18.34-.96.04-1.18-.28-1.26-.56-1.19-.26.11-.35-.49.18-.23-.87-.81-.93-.44-.89-.01-.43.18"/><path d="M268.94 178.21l.27.12.04.03m-.63-.27l-.03-.02m1.93 4.56h0l.11-.28m-.13-2.35l.15.36.02.06m-.35-.85l-.01-.03-.04-.05m-.43-.61l-.03-.04-.26-.22m1.2 3.41l.02-.04.02-.34m.02-.39v-.06l-.06-.36"/></g><path d="M154.67 106.82v-.01l.08-.25m.2-.19h0m.2.88l-.15-.16-.09-.24.01-.22.12-.19.09-.05m-.23.66l-.05-.08-.05-.25.07-.23.18-.18" class="E"/><path d="M154.66 106.8l.09-.24.2-.19.1-.06.12-.04" class="D"/><g class="E"><path d="M138.78 126.11l-.28.76m2.96-8.15l.54-1.46 1.14-3.18 2.29-6.3-.01.06.04.3.14.29 1.28 4.38.07.38v.37l-.07.32-.62 1.71m-.83-7.81l.04-.13-1.42 3.9m1.55-3.12l.33-.14-.06-.2v-.03l.01-.21.08-.19.12-.13 12.24-5.18.13.06.13.1-.25.69"/><path d="M145.47 107.65l.02-.09m.59-.03l-.31-.29m.16 1.05l1.27 4.38.08.38v.37l-.07.32-.58 1.61"/><path d="M147.28 113.24l-.33.14m10.43-7.58l.13-.36m.81-3.09l-.31-.28m.96 1.26l-.14-.49-.1-.16-.14-.16-.01-.01m.25.33l.33-.14"/></g><path d="M138.77 126.06l-.26.71-.01.19.07.2.16.19.23-.03m20.41-23.89l-.21-.73-.09-.12-.25-.23-.29-.17-.28-.1-.24-.01-12.24 5.17-.1.08-.18.24-1.44 3.99-2.62 7.2" class="D"/><path d="M152.38 107.51l-.2-.08m-.04.1l-.28.03m0 .17l.04-.03" class="E"/><path d="M155.11 107.28l-.42-.45-.87-.7-.17-.11-.92-.34-.24-.02-.88.1-.23.07-.74.52-.17.16-.5.88-.07.18-.57 1.56m1.74.61l.59-1.62.24-.42.24-.17.24-.02.41.14.59.48.16.17" class="D"/><path d="M207.01 99.19l.14.27.33.24.51.18.62.1.64.01h.02l.63-.07.54-.17.38-.22.19-.27m-.2-.55l.02.26-.17.24-.35.21-.49.15-.58.07-.6-.01-.56-.09-.46-.17-.31-.22-.12-.25.07-.25" class="E"/><path d="M211.02 100.73l-.01-1.47-.03-.28-.17-.27-.22-.23-.39-.2-.52-.13-.59-.05-.59.03-.55.11-.42.18-.27.23-.17.26-.08.28.01 1.47" class="D"/><g class="E"><path d="M93.54 268.99l.33.19.18.1.58.11.17.01.52-.15.14-.07.4-.4.1-.14.24-.6.05-.2.04-.73-.01-.24-.14-.79-.08-.25-.31-.75-.13-.24-.46-.65-.17-.19-.54-.47-.2-.13-.56-.23-.21-.05-.53.01-.18.04-.44.27-.15.11-.3.5-.1.18-.08.44m.41-1.03l.11-.18.06-.05.61-.39.25-.11.7-.06.76.26.73.56.63.79.47.93.28.99.05 1-.19.86-.41.65-.57.36-.61.18-.07.01-.41-.06m-1.59-6.4l.48-.2-.01.05-.47.15.05-.43.01-.04.03-.04m-.16 1.34l.08-.05.2-.02m.29-.02l.09-.01.06.03m-.17-.96l.05-.4.01-.04.03-.03"/><path d="M93 262.48l-.07.05m2.81 7.1l-.03-.01-.03-.02-.32-.27.47-.16.32.27.04.02m-1.25-.72l.18-.06.07-.07m-.32.95h-.01m.47-6.71l.43-.18m1.27 2.07l-.18.07-.08.04-.47.17.13.37.15.35.48-.18.5-.21"/><path d="M96.58 265.74l.71-.3-.27-.7m.28 3.21l.43-.19"/><path d="M97.29 265.44l.02-.01"/></g><g class="D"><path d="M91.7 264.68l.08-.48.33-.56.23-.55.01-.03.65-.59.03-.02.43-.18.02.04h0l.02-.01.43-.19.9.07.1.05.83.44.85.85.67 1.11-.25.11.26.59.02.1.25-.08.24 1.26-.07 1.15-.38.93-.65.59-.43.18-.04.01h-.02l-.02-.01-.39.16-.02.01h-.04l-.87-.07m-.01 0l-.03-.01-.33-.17-.37-.06-.06-.01-.57-.34"/><path d="M94.34 264.12l-.21-.17-.1-.04m-.47-.17l.16.06m1.83 4.39l-.02.04-.02.03m.05-2.45l.05.13.06.29m-.3-.82l-.12-.29-.08-.1m-.53-.66l.1.08.17.24m.77 3.13l.08-.23.01-.13m.01-.39l.01-.27-.03-.14"/></g><g class="E"><path d="M277.63 157.03l-6.48 10.47"/><path d="M273.46 170.96l4.95-8 .12-.28.04-.34-.02-.38-.73-4.37-.14-.23-.06-.23.02-.21.11-.17m.75 2.81l.2-.34.01-.01v-.01h-.01-.01-.01l-.23.09.42 2.54.03.37-.05.34-.12.28-4.85 7.86"/><path d="M277.82 157.59l.33-.14-.07-.11-.03-.12.01-.1.05-.09.09-.06.9-.38m-.22 5.78l-.33.14m.81-3.6l-.04.02-.02.02-.04.03-.01.01-.67 1.08"/><path d="M279.29 158.95l-.28-.34m-.3.59l-.15-.18-.13.13.02.14m-.02-.14l-.28-1.7"/><path d="M278.71 159.2l-.04-.05"/></g><path d="M271.12 167.46l6.63-10.71.17-.12 1.13-.48m-5.17 14.53l-.29.47m5.72-12.67l-.25.1-.04.02-.04.04-.31.51-.11-.13.72-.75" class="D"/><g class="E"><path d="M263.72 133.64l.12-.08.37-.61.12-.76-.16-.83-.41-.82-3.35-5.02-.62-.73-.78-.57-.86-.35-.84-.1-.76.16-4.37 1.85-.38.08-.42-.05-.43-.17-.39-.29-.31-.36-5.86-8.78-.41-.82-.16-.83.11-.76.37-.62"/><path d="M243.66 114.41l.22-.23m7.07 11.78l.21-.24m6.99 11.03l.21-.23m.22-.5l-.19.31-.05.38.07.41.21.41.84 1.26.62.73.78.56.85.36.85.09.76-.16 1.24-.52 9.69-4.1.59-.41m-16.47-11.06l.21-.24"/><path d="M261.08 140.49l.21-.23m2.77-7.46l.21-.23"/></g><path d="M243.63 114.9l-.02-.11.11-.76.37-.61.21-.24.6-.41 10.93-4.61.76-.17.84.1.86.35.77.57.63.73 15.07 22.58.41.82.16.83-.12.76-.37.61-.21.24-.59.4-10.93 4.62-.76.17-.78-.09-.07-.01-.85-.35-.78-.57-.62-.73-.84-1.26-.21-.41-.07-.41.05-.38.19-.31.21-.23.3-.21 4.37-1.84.47-.33.28-.46.12-.76-.16-.83-.41-.82-3.35-5.02-.63-.73-.77-.57-.86-.35-.84-.1-.76.17-4.37 1.84-.38.08-.43-.04-.42-.18-.39-.28-.31-.37-5.86-8.78-.42-.82-.13-.72" class="D"/><g class="E"><path d="M147 114.33l.15-.06.27.56"/><path d="M147.15 114.27l-.12-.03m2.17-.57l-2.35-2.21"/></g><path d="M146.66 110.81l1.56-.66m5.03-2.13l-1.83.78" class="D"/><g class="E"><path d="M144.22 170.76l.75.42.2.1.74.1.18.01.65-.23.15-.08.49-.54.11-.16.28-.78.04-.23.04-.95-.02-.26-.21-1.01-.09-.27-.42-.96-.15-.26-.6-.81-.19-.2-.7-.57-.22-.13-.72-.28-.22-.04-.68.05-.2.05-.55.38-.16.13-.36.66-.1.21-.13.86-.03.18m.38-1.48l.25-.47.03-.06.28-.2-.01-.47v-.01l.01-.03"/><path d="M142.93 163.65l.11-.22.01-.01m.44-.21v.31l-.45.42.45-.32.06-.04.27-.12.9-.1.97.33.93.72.81 1.03.59 1.24.3 1.31-.02 1.24-.33 1.04-.61.71-.27.12-.82.31-.07.02-.77-.09m-2.39-7.91l-.3.6m.77.35l.08-.06.09-.01m.4-.05l.23-.03m3.6 7.16l-.7.26-.29.09-.28-.04-.85-.15m.65-.93l.11-.04.17-.21m-.6-7.76l-.45.19"/><path d="M147.98 171.4h-.05l-.04-.01-.03-.01-.46-.29.46-.42.21.14-.67.28m1.06-5.74l-.15.06-.04.02-.04.03-.47.32-.48-.78.76-.32m.25-.24l-.44.19-.07.03-.06.04-.44.3m.79 5.81l.19.11m.89-2.43l.45-.19"/><path d="M148.45 165.35l-.39-.63"/></g><g class="D"><path d="M143.99 170.53l.21.21.04.04.95.52.07.02.17.02.36.21.03.01 1.13.19.04-.01.99-.34.45-.2-.17-.28.06.04.05.02h.04l.02-.01.45-.18.55-1.09.17-1.4-.23-1.55-.6-1.53-.31.13-.14-.3-.26-.33-.02-.04.25-.24-1.02-1.13-1.15-.7-1.14-.19-.99.35-.45.19-.02.01-.02.03-.01.02v.03.16l-.4.16-.03.03-.01.02-.31.61-.24.47-.02.17-.22.41-.17 1.1"/><path d="M144.46 164.27l-.12-.04h-.03m.96.36l-.12-.09-.29-.1m1.81 1.72l-.07-.16-.24-.3m-.71-.77l.28.21.1.13m1.3 3.53v.36l-.05.13m-.26.77l.03-.04.02-.04m.06-2.78l-.04-.16-.17-.37m.33 1.08l.09.38v.16"/></g><g class="E"><path d="M262.16 216.99v-.04m.04-.29l.12-.8.11-.21.36-.66.15-.13.55-.38.2-.05.68-.06.22.05.72.26.22.14.7.57.19.2.6.81.15.25.42.96.1.27.2 1.01.03.27-.01.23-.03.71-.04.23-.28.79-.1.16-.49.54-.16.08-.64.23-.19-.01-.74-.09-.19-.11-.75-.41"/><path d="M262.8 214.64v.03.01l.02.23-.03.04-.18.34m.21-.38l.01-.02.72-.52.06-.04.27-.12.9-.11.97.32.94.72.8 1.04.59 1.24.3 1.31-.01 1.24-.33 1.03-.6.72-.27.11-.82.33-.08.01-.81-.09"/><path d="M262.77 214.74l.03-.09m.74.5l.11-.09.24-.03m.37-.04l.11-.02m-1.2-.87l.65-.46.22-.13.3-.04.78-.04.32.1.83.36.31.23.78.7m-4.17-.37l.01.13-.05.08m2.02-1.28l.45-.19m.79 8.21l.21-.08.1-.12m.96-6.31l.41.53-.13.06-.04.03-.03.02-.43.38-.07-.09-.47-.61.76-.32v-.01m-.76.33l.4-.36.05-.04.03-.02.04-.02.44-.19m.85 6.66l.3-.91.07-.33.01-1.11-.04-.38-.27-1.16-.14-.4-.17-.39-.58-1.05m.69 5.67l-.4-.2-.37.54.76-.32m.3.39l-.44.19-.02.01h-.05l-.03-.01-.03-.01-.49-.25"/><path d="M268.09 215.42h.01m1.05 3.06l.45-.19"/></g><g class="D"><path d="M262.16 216.92v.1m1.97 4.32l.19.19.95.52.06.01.13.02.95.37.04.01 1.08-.07.04-.01.44-.19.88-.6-.3-.39.01-.02.1.05.05.01.02.01.04-.01.45-.19.37-1.26-.03-1.5-.42-1.56-.75-1.45-.33.14-.42-.54.2-.3-1.1-.93-1.16-.46-1.08.08-.45.18-.88.61-.03.02-.02.03v.03l.03.31-.34.15-.02.01-.03.03-.19.65-.29.54-.12.84"/><path d="M264.65 215.05l-.25-.08h-.03m1.83 1.13l-.21-.26-.15-.12m-.79-.53l.16.05.24.18m1.52 5.49l.15-.19.06-.17m.13-.42l.09-.27v-.2m-.04-1.05l.05.22-.01.32m-.59-2.13l-.15-.32-.13-.17"/><path d="M267.16 217.78l-.01-.05-.03-.06"/></g><g class="E"><path d="M138.99 125.05l.01-.18.08-.2.24-.56.14-.14.4-.34.17-.07.51-.1.2.03.56.15.2.11.56.39.18.18.49.59.15.23.36.73.09.25.2.78.04.25.01.76-.02.22-.18.64-.09.17-.34.46-.14.1-.48.24h-.17l-.56-.01-.18-.08-.59-.27-.09-.07m-.73-5.08l.04-.03.23-.06m2.07 5.63h.09l.07-.01.21-.1.62-.3.45-.59.24-.82.01-.95-.22-.99-.44-.99-.61-.84-.72-.61-.74-.32-.7-.02-.64.25-.06.04-.49.45m2.58 5.9l-.02-.01v-.01l-.07-.08h-.09m.09 0h.41m-1.49-5.65l-.23-.06-.04.02m.49-.9l.68-.29-.14.42-.28-.06-.26-.07.15-.43.01-.02.02-.04.02-.02.03-.02.44-.19"/><path d="M141.76 122.84l-.02.03-.01.02m.85 7.12l.26-.04m-.3-1.03l.03-.01.02-.03m1.55.44l.43-.18m.54-2.02l-.43.18-.02.01-.05.01h-.03l-.04.01-.45.01-.05-.36-.03-.36.45-.02h.02l.05-.01h.03l.04-.02.14-.06.06.51"/><path d="M144.09 127.36l.71-.3m-.06-.53l.03-.01m-.76-2.5l-.43.19"/></g><g class="D"><path d="M138.98 125.06l.02-.22.33-.76.03-.06.06-.05.29-.61.01-.03.68-.54.03-.02.43-.18.86-.13.04.38.01-.03.03-.03.02-.01.44-.18.92.54.83.89.64 1.14.38 1.25-.26.11.03.52v.02l.31.08-.11 1.13-.43.89-.67.54-.44.18-.03.01-.85.12-.04-.01-.02-.02-.17-.21h-.03l-.25.11h-.02-.03l-.2-.11-.13-.01-.07-.01-.77-.35-.11-.09"/><path d="M142.07 124.88l-.22-.26-.06-.04m-.3-.2l-.26-.17-.06-.01m-.31-.07l-.03-.01m2.11 4.23l-.01.06-.15.21m.29-1.4l-.02-.34-.02-.08m.06.83v.07l-.07.3"/><path d="M142.78 125.96l.03.07.1.35m-.34-.81l-.18-.32-.04-.05"/></g><g class="E"><path d="M274.03 171.81l.27.12.38.07h.05m-.76-.42l.05.04.12.05"/><path d="M274.74 172.01l-.93-.52"/></g><path d="M275.11 172.19l.01-.02" class="D"/><g class="E"><path d="M268.89 176.48l.73-.06.9.34.86.69.73.98.53 1.16.25 1.22-.04 1.13-.33.94-.43.47m-3.31-6.87h.06m.64.01l.12-.01.03.01m.96.41l-.1-.09-.36-.13m1.81 6.83l.12-.14m-.23.13l.05-.02.02-.02m.87-1.49l.02-.04.03-1.12-.25-1.2-.51-1.14-.53-.71m-.65-.63l.46.37.14.19"/><path d="M272.63 182.37l-.17.49h-.01m-.09.11l-.31.33"/></g><path d="M268.7 176.54l.08-.06.48-.17.77-.26.88.14.9.52.8.85.64 1.08.39 1.21.07.74.04.45-.19 1.05-.46.79-.69.45-.47.18-.33.11" class="D"/><path d="M158.12 104.99l.18.05m-.58.08l.17-.02m-.44.3l.15-.1m-.31.51l.03-.04" class="E"/><path d="M160.25 103.92l-.56-.36-.15-.08-1.06-.28h-.21l-.99.14-.21.11-.8.55-.13.17-.53.89-.61 1.69m3.47-1.66l-.17-.05-.41.06-.29.2-.28.47-.03.09" class="D"/><g class="E"><path d="M274.94 172.25l3.48-5.65 1.71-.72m-5.96 4.53l.77-1.25 1.8-.76-.77 1.25-1.8.76-.1-.04m.87-1.21l-.05-.12"/><path d="M276.74 168.4l-.53-1.5m2.21-.3l-1.15-1.41"/></g><g class="D"><path d="M277.77 171.05l-2.83 1.2-1.15-1.42m5.08-9l.77-.33"/><path d="M279 187.38l-1.96-2.75m2.69.6l-1.81-2.55m24.92-27.55l-5.84 9.46m3.28-1.8l-2.75 4.45"/></g><g class="E"><path d="M280.05 165.19l-1.6-.9-.12-.57"/><path d="M278.45 164.29l.47-.75-.16-.77m1.13 1.01l-.05-.02-.33-.24-.25-.29-.14-.32-.03-.32.1-.27.14-.13.09-.24.17-.28m-.67 1.87l1.01.57m-.06-.54l-.23-.17-.22-.26-.05-.1-.08-.18-.02-.27.07-.2.01.14.14.32.26.3.08.06m-.49-.82l-.02-.17.01-.03"/><path d="M279.64 163.02l.02.03.02.02m.15.14h0"/></g><path d="M278.3 163.53l.03.19m.55-1.75l.71-.3m.06-.09l-.06.09" class="D"/><g class="E"><path d="M147.9 110.45l.87 1.24.67.14m-.67-.14l-.32.9-.47-.66m1.38.86l-.91-.2m1.09-1.03l-.11-.03-.35-.17-.27-.23-.11-.12-.07-.14-.07-.26.06-.24.07-.07-.01-.01-.01-.27.16-.42m.78 1.79l-.12-.03-.32-.15-.25-.21-.1-.12-.07-.12-.06-.24.03-.15.09.2.25.25.33.22.31.11m.76-.83l-.16-.01-.4-.09-.36-.18-.29-.24-.11-.14-.08-.13-.07-.28.06-.25m.41-.22l-.13.09-.1.19v.23l.11.23.21.22.28.18.32.12.33.05.3-.03.24-.11m-.29.19l-.05.01-.35-.01-.37-.09-.33-.17-.27-.22-.1-.12-.08-.13-.07-.26.06-.23.17-.18"/><path d="M148.69 110.3l.03.07m2.31-.42l.15-.17.05-.21-.04-.15m.09.36l.03-.07v-.25"/></g><path d="M147.98 111.93l-.41-.58.33-.9.92-.86.01.01m.67-.93l-.16.07-.11.06-.18.2-.22.6m2.4-.3l.08.16.04.12.01.15" class="D"/><g class="E"><path d="M267.03 135.81l.05.11.07.12.14.18.11.11.17.13.13.08.19.08.15.05.18.02h.14l.17-.04.11-.05.13-.1.08-.08.07-.15.04-.12.01-.17-.01-.14-.05-.18-.05-.14-.12-.18-.09-.13-.16-.14-.11-.11-.2-.1-.13-.07-.2-.05-.13-.02-.19.01-.12.02-.15.08-.1.06-.1.13-.06.09-.04.17-.02.12.02.19.03.14.04.08m-.42.42l.1.2.29.33.36.26.21.07m-.03-1.66l-.04.02-.02-.12-.01-.13.09-.04.32-.13.09-.04-.38.43-.05.01"/><path d="M267.5 135.45l.03.25.02.11.11.08.37.24.11.08.09-.04.32-.14.09-.04-.01-.11-.06-.38-.01-.11-.11-.08-.37-.25-.11-.07m1.03.9h0"/><path d="M268.22 136.17l-.05-.36.39-.42m-.39.42l-.58-.39"/></g><path d="M269 135.89l-.12-.34-.21-.33-.3-.27-.35-.18-.35-.08-.47.05-.29.16-.12.08-.07.08-.19.27-.07.34.07.38.08.18m2.39-.34l-.01.47-.13.3-.07.13-.07.08-.24.22-.34.1-.38-.03-.19-.07" class="D"/><path d="M269.09 221.12l-.07.14-.23.2m.21-.3l-.04.08-.2.18m-.06-5.62l.15.23.1.25m-.58-.97l-.34-.52-.18-.16m.46.7l-.33-.5-.17-.15m1.8 4.09l.02.13-.02.15m-.17-1.34l-.03-.25-.1-.24" class="E"/><path d="M265.06 213.23l.23-.11.96-.2 1.08.28 1.05.73.93 1.1.7 1.35.39 1.45.05 1.4-.31 1.2-.63.86-.67.34" class="D"/><g class="E"><path d="M250.7 112.4l.1.2.29.33.36.25.21.08m-.57-1.98l-.04.17-.02.12.02.19.03.13.09.19.07.13.14.17.11.11.17.14.13.08.19.08.15.04.18.02h.14l.17-.04.11-.04.13-.1.08-.09.07-.14.04-.12.01-.17v-.14l-.06-.19-.05-.13-.12-.18-.08-.13-.17-.15-.11-.1-.19-.1-.14-.07-.2-.05-.13-.03-.19.02-.12.02-.15.08-.1.05-.1.14-.06.09m.59.3l-.09.04.03.24.02.12.11.07.37.25.11.07.08-.03-.05-.36.39-.43-.11-.07-.37-.25-.11-.07-.38.42.58.4"/><path d="M252.31 112.34l.33-.14.09-.04-.01-.12-.05-.37-.02-.12m-.59-.39l-.09.04-.32.13-.09.04.01.11.02.14m1.5.44h0"/></g><path d="M253.09 112.06l-.12-.35-.21-.32-.3-.27-.35-.19-.35-.07-.47.05-.28.16-.13.08-.07.08-.19.26-.07.35.07.38.08.18m.96.86l.19.07.38.02.34-.1.24-.22.07-.07.08-.13.12-.3.01-.47" class="D"/><g class="E"><path d="M97.35 268.69l.21-.26.29-.97v-1.15l-.29-1.22-.55-1.14-.75-.95-.87-.65-.9-.29-.42.06m-.41.06l.17-.02m.76 0l-.13-.04-.14.02m1.26.43l-.23-.17-.24-.07m2.23 6.37l-.33.4-.2.09"/><path d="M96.9 269.1l.06-.02.08-.1m-.35-5.32l.27.32.24.51m-.71-1.1l-.28-.34-.29-.22m1.82 4.79l.05-.17v-.62m-.36 1.67l.07-.09.1-.33m-.02-2.65l.21.88v.22m-.52-1.89l.23.47.06.24"/></g><path d="M96.76 269.23l.74-.28.66-.5.43-.83.14-1.08-.14-1.2-.43-1.19-.66-1.06-.83-.81-.89-.48-.88-.08-1.24.46-.13.1" class="D"/><g class="E"><path d="M144.59 129.12l.27-.33.29-.96v-1.16l-.29-1.21-.55-1.14-.75-.95-.88-.66-.89-.28-.83.12m.76-.05l.04-.01.42.13m.28.09l.19.06.31.23m.92.88l-.37-.47-.22-.16m1.25 5.94l-.23.28-.26.11"/><path d="M144.7 128.9l.1-.13.08-.25m-.7.95l.07-.03.07-.08m.35-4.15l.13.27.19.79m-.41-1.24l-.33-.68-.19-.24m1.03 3.25v.46l-.07.24"/><path d="M145.02 126.41l.07.27v.45"/></g><path d="M144 129.61l.79-.29.67-.5.42-.84.15-1.07v-.05l-.15-1.15-.42-1.2-.67-1.06-.82-.81-.9-.47-.87-.09-1.24.47-.04.03" class="D"/><g class="E"><path d="M316.89 103.73l.13-.06.88.1.89.48.83.81.65 1.07.43 1.2.14 1.19-.15 1.07-.44.83-.28.21m-2.97-6.9h.01l.04.01m1.29.34l-.47-.26h-.05m2.03 6.9l-.26.2m-.02-.06l-.03.03h-.03m.42-5.2l-.37-.58-.81-.81-.06-.04m1.57 6.02l-.07.12-.25.19"/><path d="M320.7 109.01l.07-.49-.03-.27m-.26 1.61l.14-.28.03-.16m-.14-2.43l.12.35.07.59m-.7-2.13l.22.36.2.57"/></g><path d="M319.42 110.94l.17-.02 1.2-.56.55-.67.3-.96.01-1.15-.29-1.22-.55-1.14-.75-.96-.87-.65-.9-.3-.82.11-.84.39" class="D"/><g class="E"><path d="M262.13 217.93l.03-.93.28-.76.48-.51.64-.21.72.12.73.44.66.7.52.89.18.49.14.5.08.98-.16.85-.38.65-.57.36-.69.04-.74-.28-.7-.58"/><path d="M262.13 217.79v-.01m3.68 3.92l.62-.4.25-.42.17-.29.18-.94-.1-1.07-.14-.55-.2-.53-.57-.98-.72-.78-.81-.47-.79-.14-.7.23"/></g><path d="M263.4 215.19l-.4.17-.53.56-.3.84-.04 1.02v.15l.2.99.22.49.2.47.6.8.12.12.77.63.81.31.76-.04.4-.17" class="D"/><path d="M266.49 135.02l-.17.34-.02.41.12.44.26.42.37.36.43.25.06.01.39.1.43-.02.35-.17" class="E"/><path d="M267.42 134.72l-.24-.03-.39.1-.3.23-.14.16-.17.34-.02.41.12.44.26.42.37.35.43.25.45.12.43-.03.35-.16.14-.16.23-.29.07-.18.03-.2-.04-.41" class="D"/><path d="M250.58 111.19l-.17.34-.02.41.12.44.26.42.33.32.04.03.43.25.45.12.43-.03.35-.16" class="E"/><path d="M253.09 112.25l.04.41-.03.2-.06.18-.24.29-.14.15-.35.17-.43.03-.45-.12-.43-.25-.37-.36-.26-.41-.12-.44.02-.42.17-.34.14-.15.3-.24.39-.09.24.02" class="D"/><path d="M92.32 268.12l.52.47.56.25.53.01.45-.24.17-.2.14-.25.15-.63-.03-.73-.21-.75-.37-.69-.48-.56-.55-.36-.55-.14-.5.12-.39.35-.23.55-.06.68m.77-1.96l.56-.12.62.14.62.42.55.63.41.78.24.85.04.82-.17.71-.16.28-.2.23-.5.27" class="E"/><path d="M94.76 268.83l-.51.22-.6-.01-.63-.29-.59-.53-.11-.1-.43-.64-.14-.33-.16-.4-.12-.75v-.17l.07-.77.26-.62.44-.4.51-.21" class="D"/><path d="M147.7 163.79l-.11-.14-.04-.03m1.01 7.3l-.05.06-.17.07m.05-.07l-.08.03m1.15-3.64l.06.24v.16m-.51-1.92l.15.31.05.19m-.96-1.87l.25.31.22.45m-.06.03l-.22-.45-.24-.3m1.3 4.53l.02-.05v-.08" class="E"/><g class="D"><path d="M148.35 171.08l.58-.21.79-.61.51-1 .17-1.29-.06-.52-.12-.92-.51-1.43-.8-1.27-.99-.97-1.08-.57-1.04-.1-.68.25m-2.36-24.04l-19.57 53.71"/><path d="M109.77 240.43l-3.92 10.77m7.05-19.39l5.16-14.22m8.89-1.9l-3.92 10.78"/></g><g class="E"><path d="M138.78 126.35v.02"/><path d="M138.78 126.5l.02-.7.21-.58.36-.39.48-.16.55.09.55.32.5.53.39.68.24.74.07.74-.12.65-.28.49-.2.17-.23.11-.52.04-.56-.21-.53-.44m-.26-4.11l.54-.19.62.1.36.22.26.15.57.6.44.76.27.84.08.83-.13.74-.33.55-.22.19-.26.13"/></g><path d="M139.96 124.25l-.51.22-.41.44-.23.65-.03.79v.15l.15.76.32.72.46.6.12.12.6.49.63.24.59-.04.51-.22" class="D"/><g class="E"><path d="M314.43 107.64v-.01"/><path d="M314.43 107.78l.01-.71.08-.31.12-.27.36-.41.47-.17.55.08.55.31.5.52.4.67.25.74.08.74-.11.66-.28.5-.42.29-.51.05-.56-.2-.54-.42m-.31-4.13l.54-.2.61.09.22.12.41.23.57.59.45.75.28.84.09.84-.12.74-.32.56-.47.33"/></g><path d="M317.84 110.4l-.51.21-.59.06-.63-.22-.6-.48-.13-.12-.46-.6-.33-.72-.16-.75v-.15l.02-.8.08-.35.14-.31.4-.45.51-.22m24.56-1.68l-.79.36-.58.24" class="D"/><path d="M277.77 171.05l2.8-1.19m17.54-2.03l1.06-1.72" class="E"/><path d="M274.46 172.46l3.31-1.41-.04-.05 2.51-4.07m-2.44 15.8l2.82-1.2m20.31-47.6l-6.21 10.06" class="D"/><path d="M267.57 182.7l.55.38.55.14.5-.11.39-.34.24-.54.07-.68-.12-.75-.28-.74-.2-.33-.23-.31-.52-.47-.56-.26-.53-.02-.46.22-.32.45-.15.62m1.05-1.68l.6.02.63.3.59.54.26.34.22.38.32.83.14.84-.08.77-.27.61-.45.39" class="E"/><path d="M268.06 178.07l-.51.21-.51.26-.37.5-.17.7v.22l.02.73.21.75.36.69.48.57.14.14.62.42.62.16.56-.12.52-.22m-102.45-18.44l-2.97 1.26" class="D"/><g class="E"><path d="M138.36 190.98l13.42-6.25.17-.04m7.17 2.81l.2-.16.13-.25.05-.32-.04-.37-3.22-15.35"/><path d="M160.26 186.85l-.88.37"/></g><path d="M143.08 172.24l-5.81 17.07-.05.29.01.33.09.33.15.33.2.27.24.13.24.04.21-.05.88-.37 12.71-5.92.84-.2 1.1.15 1.13.54 3.44 2.23.2.1.21.04.25-.05.87-.37.2-.16.13-.25.05-.32-.03-.37-3.46-16.44" class="D"/><path d="M143.49 170.15l.72.49.74.18.65-.14.52-.46.19-.33.13-.39.08-.9-.16-.99-.18-.45-.2-.52-.57-.85-.69-.62-.74-.34-.7-.02-.6.3-.42.6-.2.82m1.34-2.11l.77.02.81.38.76.69.62.92.42 1.07.18 1.08-.09.99-.15.43-.2.36-.57.51" class="E"/><path d="M143.8 164.25l-.4.17-.65.34-.47.65-.22.91v.21l.04.96.27 1 .48.91.64.75.14.14.8.53.8.21.72-.16.41-.17" class="D"/><path d="M158.89 165.04l3.71-1.57m1.6 24.27l-2.17-6.68m6.59-15.98l-2.1.89-.91.18" class="E"/><path d="M158.99 164.82l2.82-1.2.79-.15.5 1.07.25.3.47.56.87.55.92.2.12-.02 2.68-1.14m11.92 5.04l3.11 9.58-19.24 8.13-.79.16-.4-1.23" class="D"/><g class="E"><path d="M85 264.88l-.69.78-.23.39-.06.43.01.04-45.15 15.66"/><path d="M40.24 277.71l1.4-.49.38-.08.21.06.04.2-.15.32-.25.32m34.99-15.64l-33.01 11.43m40.18-7.31l.09.39.22.38.2.19 14.96 9.55m21.31-7.5l.03-.02.02-.08"/></g><path d="M97.98 278.97l-36.65 12.7-.4.05-.42-.1-21.16-8.48-.36-.59-.16-.57.02-.47.05-.12 2.97-3.35-1.09.38-.54-.71 3.2-3.59.26-.22.31-.13 32.84-11.38m43.9 7.16l.22-.09m.28-.59l.11.07" class="D"/><g class="E"><path d="M84.99 267.75l.03.04m14.32-70.67L84.6 267.07"/><path d="M92.63 228.73l3.86-18.29m0 0l.63-2.99-.31 1.49m.31-1.49l1.57-7.46m0 0l.61-2.9-.03-.03.11.02-.08.01.06.04.35.08.23.01 26.35-5.64 3.46-1.28.08-.06"/><path d="M99.36 197.13h.2l-.1-.02.12.01-.14-.07m.04.1l.62-.06-.44.1m-.37-.12l.14.03-.05-.02"/><path d="M100.1 197.09h.04l-.38.12m.38-.12l.45-.14.29-.07 6.16-5.12m-7.16 5.38l-.26.05.43-.09m-.25.02l-.38.02.09-.01-.18-.02.23.02"/><path d="M99.57 197.14l-.14-.04h.01v-.02l.09.03"/><path d="M99.46 197.11h.03m-.15-.05l.15.04m.14.03l-.05-.01m-.16.02l.07-.01m6.04-1.24l-4.65.99m4.7 54.71l-.26.23-.34.06-.38-.11-.36-.27-.31-.41-.23-.48-.1-.51.03-.47 1.43-6.81.29-.81.5-.58.64-.3.12-.02M173 184.53l-8.75 3.69-.46.1-.43-.09-.27-.16-57.72 83.11"/><path d="M105.6 241.72l.66-.27m2.43-9.66l-.65.28m3.21-13.02l-.11.02-.65.3-.49.58-.3.81-2.05 9.73-.03.44.09.47.19.47.28.4.33.29.35.16.34.01 10.5-2.24.59-.27"/><path d="M110.9 219.39l-.66.27m52.85-31.59l-.16-.1-.34-.45-.15-.48.02-.54-4.2-20.02m4.2 20.02l.66-.27"/></g><g class="D"><path d="M99.48 277.05l-14.4-9.19-.05-.06m-.04-.05l-.21-.29-.17-.35-.03-.24 8.05-38.14 6.64-31.67.17-.01 6.82-5.67.78.38-.11.54-.06.05-.22 1.03-.24.27-.25.37-.21.39-.17.42-.11.39-.14.67 21.42-4.58 2.89-1.08 2.92-2.18 2.44-3.14 1.8-3.92 4.13-12.15m-37.39 107.99l7.29-3.08L173 184.53l.05-.49-.02-.03"/><path d="M104.54 250.73l.04.09.31.4.37.28.33.09 5.97-8.61.16-.35.03-.44-.07-.48-.19-.47-.28-.41-.33-.31-.36-.16-.34-.01-3.57.76-.11.05-.49.58-.3.81-1.43 6.8-.02.47.1.51.18.4m4.02-19.14l.27.4.33.3.36.16.34.01 10.43-2.24.45-.45 8.01-11.54.15-.35.04-.44-.08-.48-.18-.47-.28-.41-.33-.3-.36-.17-.34-.01-16.12 3.45-.11.05-.49.57-.3.81-2.04 9.73-.03.44.08.48.2.46m54.72-44.11l-.09-.06-.15-.24-.06-.38.14-.57-4.38-20.84"/></g><g class="E"><path d="M83.04 265.26l.32-.7.35-.59.35-.41.29-.19.21.06.69.27m3.54-16.8l-6.49 7.78"/><path d="M84.71 264.09l-.83-.32m.68-.34l1.43-3.24"/></g><path d="M85.25 263.72l-.07-.02-.3.19-.34.41-.35.59-.32.7-.83-.33-6.39-2.96.25-.56.21-.59.21-.49 4.98-5.98 6.5-7.81" class="D"/><g class="E"><path d="M41.58 278.38l-4.51 1.91.47-.66-1.76-3.84-.43-1.37-.07-1.37.3-1.24.64-.99.92-.63"/><path d="M34.72 272.79l.71-.36m1.38 13.71l-.01-1.12m24.21 6.69l-3.72 1.57-.17-.04-20-8.02-.24-.13-.16-.15-.05-.16"/><path d="M36.73 280.73l.34-.44m-.23-.31l.7-.35m3.37-10.08l.12-.13.54-.23.61.01.62.25.55.44.45.63.27.71.08.73-.14.66-.32.53-.48.34-.27.05m28.56 16.15l-.45-1.15-.61.22-12.99 4.5-.16.02m16.52-4.49l-.45-1.15-2.31.9m2.31-.9l.61-.23 10.42-3.6.32-.11.02.01-.01.01-.01-.02m13.37-3.21l.26-.14.21-.23 1.07-1.51-.72-.94-1.07 1.51-.09.1-.11.06-12.99 4.5-.32.1.45 1.15m-.45-1.15h-.02l.42-.22"/><path d="M84.3 283.94l.42 1.06m13.62-4.65l4.1-1.73-.11.07m-3.68 1.53l2.74-1.13m3.63-7.68l.72.94-.37.29-.33.31-5.42 5.66m-.72-.94l1.02-1.08"/><path d="M100.14 279.61l1.21-.5m.61-.26l.07-.02m.41-.21l.21-.23 2.51-3.61m.58-2.43l.38-.25.35-.17.95-.4m2.12 2.85l.39.99m1.26-1.85l.31-.12m1.74.67l-.42-1.08m7.65-3.24l.42 1.08m.38-1.76l-.21.3-.1.1-.08.03"/><path d="M120.96 269.47l-.06.04.5 1.12m.12-.04l4.03-1.74-3.98 1.69.21-.23 4.77-6.87-.72-.94"/><path d="M121.57 270.54l-.17.1m1.16-.5l-.78.34m.79-.34l1.49-.64m1.61-.7l-.12.05m1-5.41l.95-.4.3-.1h.21l-.72-.94m.72.94l.11.08"/></g><g class="D"><path d="M101.35 279.11l.29-.12-3.56 1.5-12.99 4.5-.32.1h-.02l-.03-.09-10.3 3.56-.61.23-1.94.76-.98.36-12.99 4.5-.37.05-.39-.09-20-8.02-.25-.13-.15-.15-.05-.17-.02-1.12v-3.98l.06-.07.04-.41.06-.33-1.75-3.84-.44-1.37-.07-1.37.3-1.24.64-.99.92-.63.71-.36 7.65-3.23 1.11-.23 1.18.22 1.16.62 1 .98.75 1.24.76 1.64"/><path d="M41.41 273.12l-.52-.55-.36-.67-.17-.73.03-.7.23-.61.29-.31.56.01.62.25.56.45.44.62.28.71.07.73-.13.66-.33.53-.04.03-.31.06-.63-.13-.59-.35m63.75 1.66l2.26-3.25-.72-.94-.95.4-.35.18-.38.24-.38.29-.32.31-4.4 4.58m21.35-7.52l4.56-6.57.95-.4.3-.1h.21l.11.08.72.94v.17l-1.15 3.75-.06.13-1.03 1.51-.21.22-.26.15-3.89 1.64-.54.2-.09.04.01.01-7.66 3.23-1.81.68-1.23.5-.27.12.03.09-8.32 3.53.32-.14"/><path d="M121.52 270.59l.26-.11"/></g><g class="E"><path d="M108.54 240.7l-1.55 7.37m.6-52.62l.24-1.14.02-.36-.1-.3-.21-.22-.16-.07m17.42-5.65l-4.74 1.01-.28.14-.53.31-.54.45-11.62 2.12-.26 1.25.11-.02-.07.32m-.04-.3l-.08-.09"/><path d="M106.65 191.21l.44.53m6.09 26.89l-2.88 13.73m1.39 41.11l61.96-89.22-.6-.21-.02-.03"/><path d="M119.4 189.09l-.85 4.01m.16-3.48l-.45-.53m2.48 80.47l4.78-6.89-1.03 1.5m1.03-1.5l1.04-1.49-1.01 1.45m1.01-1.45l18.3-26.33"/><path d="M128.47 218.64l.37-1.75m44.81-32.64l8.75-3.69.39-.29m-.85-5.26l-.99-4.71m2.28 7.43l-.35.15"/></g><g class="D"><path d="M106.71 193.1l.16.19.37.01.14.06.02.07-.01.35-.27 1.25-.13.38-.13.2m17.99-8.05l-4.15.89-.26-.01-.7.08-.76.21-.72.36-11.61 2.12-.07.33m4.73 81.8l.38.13 8.74-3.69.36-.26 62-89.25.21-.37.03-.12"/><path d="M126.56 261.18l1.04-1.49m54.12-89.13l1.51 7.17-.06.52v.53"/></g></g><g class="G f"><path d="M-.2-.2h.442v.43H-.2zM0 0h.042v.03H0z" stroke-width=".5" fill="#e6e6e6" class="F"/><path d="M0 .03h.042V0h0v.03H0z" fill-opacity=".118" class="B"/></g><use xlink:href="#B" class="F H L"/><text xml:space="preserve" x="448.3" y="69.58" font-size="3.56" class="B C W">Pos.</text><text xml:space="preserve" x="459.51" y="69.58" class="B C J W">Arv</text><text xml:space="preserve" x="469.12" y="69.58" font-size="3.62" class="B C W">Nimetus</text><text xml:space="preserve" x="520.89" y="69.58" class="B C W c">Joonise nr.</text><text xml:space="preserve" x="563.83" y="69.58" class="B C M W">Materjal</text><text xml:space="preserve" x="600.17" y="69.58" font-size="3.58" class="B C W">Mt</text><text xml:space="preserve" x="625.59" y="69.58" font-size="3.55" class="B C W">Kaal</text><g class="F H"><path d="M457.57 65.7v5.04m9.61-5.04v5.04m51.77-5.04v5.04m42.94-5.04v5.04m36.34-5.04v5.04m25.42-5.04v5.04"/><use xlink:href="#B" y="5.04" class="K"/></g><text xml:space="preserve" x="448.3" y="74.62" class="B C Y">1</text><text xml:space="preserve" x="459.51" y="74.62" class="B C Y">1</text><text xml:space="preserve" x="469.12" y="74.62" class="B C N">Emakoda</text><text xml:space="preserve" x="520.89" y="74.62" class="B C O">FDJ5V2.01.01.00D</text><text xml:space="preserve" x="563.83" y="74.62" class="B C U">*</text><text xml:space="preserve" x="600.17" y="74.62" class="B C P">-</text><text xml:space="preserve" x="625.59" y="74.62" class="B C N">227</text><g class="F H"><path d="M457.57 70.74v5.04m9.61-5.04v5.04m51.77-5.04v5.04m42.94-5.04v5.04m36.34-5.04v5.04m25.42-5.04v5.04"/><use xlink:href="#C" class="L"/></g><text xml:space="preserve" x="448.3" y="79.66" class="B C M">2</text><text xml:space="preserve" x="459.51" y="79.66" class="B C Y">1</text><text xml:space="preserve" x="469.12" y="79.66" class="B C X">FD-jalg</text><text xml:space="preserve" x="520.89" y="79.66" class="B C O">FDJ5V2.01.03.00D</text><text xml:space="preserve" x="563.83" y="79.66" class="B C P">-</text><text xml:space="preserve" x="625.59" y="79.66" class="B C Z">72.6</text><g class="F H"><path d="M457.57 75.78v5.05m9.61-5.05v5.05m51.77-5.05v5.05m42.94-5.05v5.05m36.34-5.05v5.05m25.42-5.05v5.05"/><use xlink:href="#B" y="15.13" class="K"/></g><text xml:space="preserve" x="448.3" y="84.71" font-size="3.51" class="B C">3</text><text xml:space="preserve" x="459.51" y="84.71" class="B C Y">1</text><text xml:space="preserve" x="469.12" y="84.71" class="B C X">FD-jalg</text><text xml:space="preserve" x="520.89" y="84.71" class="B C R">FDJ5V2.01.03.00PD</text><text xml:space="preserve" x="563.83" y="84.71" class="B C P">-</text><text xml:space="preserve" x="625.59" y="84.71" class="B C Z">72.6</text><g class="F H"><path d="M457.57 80.83v5.04m9.61-5.04v5.04m51.77-5.04v5.04m42.94-5.04v5.04m36.34-5.04v5.04m25.42-5.04v5.04"/><use xlink:href="#C" y="10.09" class="L"/></g><text xml:space="preserve" x="448.3" y="89.75" class="B C J">4</text><text xml:space="preserve" x="459.51" y="89.75" class="B C M">2</text><text xml:space="preserve" x="469.12" y="89.75" class="B C N">Silinder</text><text xml:space="preserve" x="520.89" y="89.75" class="B C R">sil.90-50-500</text><text xml:space="preserve" x="563.83" y="89.75" class="B C U">*</text><text xml:space="preserve" x="600.17" y="89.75" class="B C O">90-50-500</text><text xml:space="preserve" x="625.59" y="89.75" font-size="3.66" class="B C">32</text><g class="F H"><path d="M457.57 85.87v5.05m9.61-5.05v5.05m51.77-5.05v5.05m42.94-5.05v5.05m36.34-5.05v5.05m25.42-5.05v5.05"/><use xlink:href="#B" y="25.22" class="K"/></g><text xml:space="preserve" x="448.3" y="94.8" class="B C d">5</text><text xml:space="preserve" x="459.51" y="94.8" class="B C M">2</text><text xml:space="preserve" x="469.12" y="94.8" class="B C R">CRN Mutter</text><text xml:space="preserve" x="520.89" y="94.8" class="B C S">45x1.5_CRN</text><text xml:space="preserve" x="563.83" y="94.8" class="B C U">*</text><text xml:space="preserve" x="600.17" y="94.8" class="B C a">45x1,5</text><text xml:space="preserve" x="625.59" y="94.8" class="B C P">-</text><g class="F H"><path d="M457.57 90.92v5.04m9.61-5.04v5.04m51.77-5.04v5.04m42.94-5.04v5.04m36.34-5.04v5.04m25.42-5.04v5.04"/><path d="M446.36 95.96h190.53V101H446.36z" class="L"/></g><text xml:space="preserve" x="448.3" y="99.84" class="B C U">6</text><text xml:space="preserve" x="459.51" y="99.84" class="B C M">2</text><text xml:space="preserve" x="469.12" y="99.84" class="B C S">Tapp lukustusega keermega</text><text xml:space="preserve" x="520.89" y="99.84" class="B C S">TLK-50-267-00</text><text xml:space="preserve" x="563.83" y="99.84" class="B C P">-</text><text xml:space="preserve" x="600.17" y="99.84" class="B C V">50-267</text><text xml:space="preserve" x="625.59" y="99.84" class="B C P">-</text><g class="F H"><path d="M457.57 95.96V101m9.61-5.04V101m51.77-5.04V101m42.94-5.04V101m36.34-5.04V101m25.42-5.04V101"/><use xlink:href="#C" y="25.22" class="K"/></g><text xml:space="preserve" x="448.3" y="104.88" font-size="3.48" class="B C">7</text><text xml:space="preserve" x="459.51" y="104.88" class="B C M">2</text><text xml:space="preserve" x="469.12" y="104.88" class="B C S">Tapp lukustusega keermega</text><text xml:space="preserve" x="520.89" y="104.88" class="B C S">TLK-40-267-00</text><text xml:space="preserve" x="563.83" y="104.88" class="B C P">-</text><text xml:space="preserve" x="600.17" y="104.88" class="B C a">40-267</text><text xml:space="preserve" x="625.59" y="104.88" class="B C O">4.6</text><g class="F H"><path d="M457.57 101v5.05m9.61-5.05v5.05m51.77-5.05v5.05m42.94-5.05v5.05m36.34-5.05v5.05m25.42-5.05v5.05"/><use xlink:href="#B" y="40.35" class="L"/></g><text xml:space="preserve" x="448.3" y="109.93" class="B C d">8</text><text xml:space="preserve" x="459.51" y="109.93" class="B C J">4</text><text xml:space="preserve" x="469.12" y="109.93" class="B C R">CRN Mutter</text><text xml:space="preserve" x="520.89" y="109.93" class="B C R">35x1.5_CRN</text><text xml:space="preserve" x="563.83" y="109.93" class="B C U">*</text><text xml:space="preserve" x="600.17" y="109.93" class="B C V">35x1,5</text><text xml:space="preserve" x="625.59" y="109.93" class="B C P">-</text><g class="F H"><path d="M457.57 106.05v5.04m9.61-5.04v5.04m51.77-5.04v5.04m42.94-5.04v5.04m36.34-5.04v5.04m25.42-5.04v5.04"/><use xlink:href="#B" y="45.39" class="K"/></g><text xml:space="preserve" x="448.3" y="114.97" class="B C d">9</text><text xml:space="preserve" x="459.51" y="114.97" class="B C M">2</text><text xml:space="preserve" x="469.12" y="114.97" class="B C S">Tapp lukustusega keermega</text><text xml:space="preserve" x="520.89" y="114.97" class="B C S">TLK-40-193-00</text><text xml:space="preserve" x="563.83" y="114.97" class="B C P">-</text><text xml:space="preserve" x="600.17" y="114.97" class="B C a">40-193</text><text xml:space="preserve" x="625.59" y="114.97" class="B C O">4.6</text><g class="F H"><path d="M457.57 111.09v5.04m9.61-5.04v5.04m51.77-5.04v5.04m42.94-5.04v5.04m36.34-5.04v5.04m25.42-5.04v5.04"/><use xlink:href="#C" y="40.35" class="L"/></g><text xml:space="preserve" x="448.3" y="120.01" class="B C T">10</text><text xml:space="preserve" x="459.51" y="120.01" class="B C J">4</text><text xml:space="preserve" x="469.12" y="120.01" class="B C N">Liugelaager</text><text xml:space="preserve" x="520.89" y="120.01" class="B C b">FB0925050</text><text xml:space="preserve" x="563.83" y="120.01" class="B C a">Tin Bearing Bronze</text><text xml:space="preserve" x="600.17" y="120.01" class="B C R">50x55 L50</text><text xml:space="preserve" x="625.59" y="120.01" font-size="3.69" class="B C">0.2</text><g class="F H"><path d="M457.57 116.13v5.05m9.61-5.05v5.05m51.77-5.05v5.05m42.94-5.05v5.05m36.34-5.05v5.05m25.42-5.05v5.05"/><use xlink:href="#B" y="55.48" class="K"/></g><text xml:space="preserve" x="448.3" y="125.06" class="B C T">11</text><text xml:space="preserve" x="459.51" y="125.06" class="B C M">2</text><text xml:space="preserve" x="469.12" y="125.06" class="B C V">Tihvt</text><text xml:space="preserve" x="520.89" y="125.06" class="B C a">Tift.D26L28</text><text xml:space="preserve" x="563.83" y="125.06" class="B C S">42CrMo4+QT</text><text xml:space="preserve" x="600.17" y="125.06" class="B C P">-</text><g class="F H"><path d="M457.57 121.18v5.04m9.61-5.04v5.04m51.77-5.04v5.04m42.94-5.04v5.04m36.34-5.04v5.04m25.42-5.04v5.04"/><use xlink:href="#B" y="60.52" class="L"/></g><text xml:space="preserve" x="448.3" y="130.1" class="B C T">12</text><text xml:space="preserve" x="459.51" y="130.1" class="B C Y">1</text><text xml:space="preserve" x="469.12" y="130.1" class="B C N">Katte plaat</text><text xml:space="preserve" x="520.89" y="130.1" class="B C O">FDJ5V2.01.04.00</text><text xml:space="preserve" x="563.83" y="130.1" class="B C N">S355</text><text xml:space="preserve" x="600.17" y="130.1" class="B C X">Leht 3</text><g class="F H"><path d="M457.57 126.22v5.04m9.61-5.04v5.04m51.77-5.04v5.04m42.94-5.04v5.04m36.34-5.04v5.04m25.42-5.04v5.04"/><use xlink:href="#C" y="55.48" class="K"/></g><text xml:space="preserve" x="448.3" y="135.14" class="B C T">13</text><text xml:space="preserve" x="459.51" y="135.14" class="B C T">12</text><text xml:space="preserve" x="469.12" y="135.14" class="B C V">Stutser</text><text xml:space="preserve" x="520.89" y="135.14" class="B C O">STUTS-3_8</text><text xml:space="preserve" x="563.83" y="135.14" class="B C U">*</text><text xml:space="preserve" x="600.17" y="135.14" class="B C V">3/8-L12</text><text xml:space="preserve" x="625.59" y="135.14" class="B C P">-</text><g class="F H"><path d="M457.57 131.26v5.05m9.61-5.05v5.05m51.77-5.05v5.05m42.94-5.05v5.05m36.34-5.05v5.05m25.42-5.05v5.05"/><use xlink:href="#B" y="70.61" class="L"/></g><text xml:space="preserve" x="448.3" y="140.19" class="B C T">14</text><text xml:space="preserve" x="459.51" y="140.19" class="B C M">2</text><text xml:space="preserve" x="469.12" y="140.19" class="B C N">Lukuklapp</text><text xml:space="preserve" x="520.89" y="140.19" class="B C S">VBPDE-3_8-A</text><text xml:space="preserve" x="563.83" y="140.19" class="B C U">*</text><text xml:space="preserve" x="600.17" y="140.19" class="B C e">G3/8''</text><g class="F H"><path d="M457.57 136.31v5.04m9.61-5.04v5.04m51.77-5.04v5.04m42.94-5.04v5.04m36.34-5.04v5.04m25.42-5.04v5.04"/><use xlink:href="#C" y="65.57" class="K"/></g><text xml:space="preserve" x="448.3" y="145.23" class="B C T">15</text><text xml:space="preserve" x="459.51" y="145.23" class="B C M">2</text><text xml:space="preserve" x="469.12" y="145.23" class="B C b">Silindri toru</text><text xml:space="preserve" x="520.89" y="145.23" class="B C O">FDJ5V2.01.06.01</text><text xml:space="preserve" x="563.83" y="145.23" class="B C e">E235+N</text><text xml:space="preserve" x="600.17" y="145.23" class="B C c">12x1.5</text><g class="F H"><path d="M457.57 141.35v5.05m9.61-5.05v5.05m51.77-5.05v5.05m42.94-5.05v5.05m36.34-5.05v5.05m25.42-5.05v5.05"/><use xlink:href="#B" y="80.7" class="L"/></g><text xml:space="preserve" x="448.3" y="150.27" class="B C T">16</text><text xml:space="preserve" x="459.51" y="150.27" class="B C M">2</text><text xml:space="preserve" x="469.12" y="150.27" class="B C b">Silindri toru</text><text xml:space="preserve" x="520.89" y="150.27" class="B C O">FDJ5V2.01.06.02</text><text xml:space="preserve" x="563.83" y="150.27" class="B C e">E235+N</text><text xml:space="preserve" x="600.17" y="150.27" class="B C c">12x1.5</text><g class="F H"><path d="M457.57 146.4v5.04m9.61-5.04v5.04m51.77-5.04v5.04m42.94-5.04v5.04m36.34-5.04v5.04m25.42-5.04v5.04"/><use xlink:href="#B" y="85.74" class="K"/></g><text xml:space="preserve" x="448.3" y="155.32" class="B C T">17</text><text xml:space="preserve" x="459.51" y="155.32" class="B C M">2</text><text xml:space="preserve" x="469.12" y="155.32" class="B C V">Lukuklapi kaitse</text><text xml:space="preserve" x="520.89" y="155.32" class="B C O">FDJ5V2.01.07.01</text><text xml:space="preserve" x="563.83" y="155.32" class="B C N">S355</text><text xml:space="preserve" x="600.17" y="155.32" class="B C X">Leht 3</text><g class="F H"><path d="M457.57 151.44v5.04m9.61-5.04v5.04m51.77-5.04v5.04m42.94-5.04v5.04m36.34-5.04v5.04m25.42-5.04v5.04"/><use xlink:href="#C" y="80.7" class="L"/></g><text xml:space="preserve" x="448.3" y="160.36" class="B C T">18</text><text xml:space="preserve" x="459.51" y="160.36" class="B C Y">1</text><text xml:space="preserve" x="469.12" y="160.36" class="B C N">Katte plaat</text><text xml:space="preserve" x="520.89" y="160.36" class="B C O">FDJ5V2.01.04.00P</text><text xml:space="preserve" x="563.83" y="160.36" class="B C N">S355</text><text xml:space="preserve" x="600.17" y="160.36" class="B C X">Leht 3</text><g class="F H"><path d="M457.57 156.48v5.05m9.61-5.05v5.05m51.77-5.05v5.05m42.94-5.05v5.05m36.34-5.05v5.05m25.42-5.05v5.05"/><use xlink:href="#B" y="95.83" class="K"/></g><text xml:space="preserve" x="448.3" y="165.41" class="B C T">19</text><text xml:space="preserve" x="459.51" y="165.41" class="B C J">4</text><text xml:space="preserve" x="469.12" y="165.41" class="B C b">Polt kraega</text><text xml:space="preserve" x="520.89" y="165.41" class="B C O">M8x40_DIN6921</text><text xml:space="preserve" x="563.83" y="165.41" class="B C X">8.8</text><text xml:space="preserve" x="600.17" y="165.41" class="B C J">M8x40</text><g class="F H"><path d="M457.57 161.53v5.04m9.61-5.04v5.04m51.77-5.04v5.04m42.94-5.04v5.04m36.34-5.04v5.04m25.42-5.04v5.04"/><use xlink:href="#B" y="100.87" class="L"/></g><text xml:space="preserve" x="448.3" y="170.45" class="B C J">20</text><text xml:space="preserve" x="459.51" y="170.45" class="B C U">6</text><text xml:space="preserve" x="469.12" y="170.45" class="B C V">Heico-Lock seib</text><text xml:space="preserve" x="520.89" y="170.45" class="B C V">M12_DIN25201</text><text xml:space="preserve" x="563.83" y="170.45" class="B C U">*</text><text xml:space="preserve" x="600.17" y="170.45" font-size="3.65" class="B C">M12</text><text xml:space="preserve" x="625.59" y="170.45" class="B C P">-</text><g class="F H"><path d="M457.57 166.57v5.04m9.61-5.04v5.04m51.77-5.04v5.04m42.94-5.04v5.04m36.34-5.04v5.04m25.42-5.04v5.04"/><use xlink:href="#C" y="95.83" class="K"/></g><text xml:space="preserve" x="448.3" y="175.49" class="B C J">21</text><text xml:space="preserve" x="459.51" y="175.49" class="B C J">4</text><text xml:space="preserve" x="469.12" y="175.49" class="B C R">tapi seib</text><text xml:space="preserve" x="520.89" y="175.49" class="B C S">TS-35.5-40.5-50</text><text xml:space="preserve" x="563.83" y="175.49" class="B C N">S355</text><text xml:space="preserve" x="600.17" y="175.49" class="B C R">35.5-40.5-50</text><g class="F H"><path d="M457.57 171.61v5.05m9.61-5.05v5.05m51.77-5.05v5.05m42.94-5.05v5.05m36.34-5.05v5.05m25.42-5.05v5.05"/><use xlink:href="#B" y="110.96" class="L"/></g><text xml:space="preserve" x="448.3" y="180.54" class="B C J">22</text><text xml:space="preserve" x="459.51" y="180.54" class="B C M">2</text><text xml:space="preserve" x="469.12" y="180.54" class="B C R">tapi seib</text><text xml:space="preserve" x="520.89" y="180.54" class="B C S">TS-45.5-50.5-60</text><text xml:space="preserve" x="563.83" y="180.54" class="B C N">S355</text><text xml:space="preserve" x="600.17" y="180.54" class="B C S">45.5-50.5-60</text><g class="F H"><path d="M457.57 176.66v5.04m9.61-5.04v5.04m51.77-5.04v5.04m42.94-5.04v5.04m36.34-5.04v5.04m25.42-5.04v5.04"/><use xlink:href="#B" y="116" class="K"/></g><text xml:space="preserve" x="448.3" y="185.58" class="B C J">23</text><text xml:space="preserve" x="459.51" y="185.58" class="B C J">4</text><text xml:space="preserve" x="469.12" y="185.58" class="B C J">Seib</text><text xml:space="preserve" x="520.89" y="185.58" class="B C b">M10_DIN125</text><text xml:space="preserve" x="563.83" y="185.58" font-size="3.68" class="B C">140 HV</text><text xml:space="preserve" x="600.17" y="185.58" font-size="3.65" class="B C">M10</text><text xml:space="preserve" x="625.59" y="185.58" class="B C Z">0.00</text><g class="F H"><path d="M457.57 181.7v5.04m9.61-5.04v5.04m51.77-5.04v5.04m42.94-5.04v5.04m36.34-5.04v5.04m25.42-5.04v5.04"/><use xlink:href="#C" y="110.96" class="L"/></g><text xml:space="preserve" x="448.3" y="190.62" class="B C J">24</text><text xml:space="preserve" x="459.51" y="190.62" class="B C J">4</text><text xml:space="preserve" x="469.12" y="190.62" class="B C R">Sisekuuskantpolt</text><text xml:space="preserve" x="520.89" y="190.62" class="B C R">M10x16_ISO7380-10.9</text><text xml:space="preserve" x="563.83" y="190.62" font-size="3.59" class="B C">10.9</text><text xml:space="preserve" x="600.17" y="190.62" class="B C Z">M10x16</text><text xml:space="preserve" x="625.59" y="190.62" font-size="3.64" class="B C">13.44</text><g class="F H"><path d="M457.57 186.74v5.05m9.61-5.05v5.05m51.77-5.05v5.05m42.94-5.05v5.05m36.34-5.05v5.05m25.42-5.05v5.05"/><use xlink:href="#B" y="126.09" class="K"/></g><text xml:space="preserve" x="448.3" y="195.67" class="B C J">25</text><text xml:space="preserve" x="459.51" y="195.67" class="B C U">6</text><text xml:space="preserve" x="469.12" y="195.67" class="B C R">Sisekuuskantpolt</text><text xml:space="preserve" x="520.89" y="195.67" class="B C O">M12x25_DIN912-8.8</text><text xml:space="preserve" x="563.83" y="195.67" class="B C X">8.8</text><text xml:space="preserve" x="600.17" y="195.67" class="B C Z">M12x25</text><text xml:space="preserve" x="625.59" y="195.67" class="B C N">34.48</text><path d="M457.57 191.79v5.04m9.61-5.04v5.04m51.77-5.04v5.04m42.94-5.04v5.04m36.34-5.04v5.04m25.42-5.04v5.04" class="F H"/><g class="G I"><path d="M446.36 70.74v5.04h190.53v-5.04zm-212.57 5.64l-1.32.39-.08 2.58.38.26h2.87l.38-.26.32-2.06 26.27 11.24 1.3.94-.04 4.95.32 3.75 17.65 26.24.35 1.08-5.51 5.74.03 3.12 2.23 21.89-.95.33-6.57 10.44-.21.66 5.18 7.69 1.61 3.84-.01 2.99-.68 1.93v.86l1.69 2.24-.01.41-3.7 5.97-1.46 1.09-.01 3.74 2.57 18.9v3.64l-.64 1.91-1.56 2.29-3.65 1.47-2.17-.01-1.92-.64-2.21-1.64-1.96-2.53-1.6-3.84-8.33-25.98-.39-.04-8.98 3.92h-1.53l-23.8-10.16.11-5.45 7.26-2.99 1.05-.23 1.95-5.74.01-20.96-9.92-14.75-1.31-.93-1.62-.66v4.84l1.29 5.11.34.31 7.67 3.22 1.31.94v4.63l-.28.36-6.24 2.73-4.18-.03-23.07 9.63-.32 1.92-6.71 2.9h-3.14l-20.82-8.7-.71.02-4.4 10.05-1.72 2.44-4.14 1.65-1.18-.02-1.63-.31-2.52-1.64-2.24-2.57-1.65-3.48-.63-2.57.01-3.75 2.88-18.91v-2.98l-1.29-4.8-2.06-6.08 2.72.97.85.01 1.91-1.01.77-1.14-.01-1.74-1.24-2.59-1.64-1.27-1.07.01-.96.34-1.32.92-.87 1.78-.35.02.06-2.96.83-2.05 9.8-6.55.5-2.7 2.02-1.5 27.29-17.89.29-.35.3-2.26 39.62-16.77h4.6zm44.5 106.15l1.87-.81.41.04.02.74-.7 2.28-.59-.1-1-1.33zm-59.46-93.55l.24 1.25-.38-.35v-1.03zm17.54 2.44l-1.01.03-.63-.36v-.98zm-25.32 7.66l.01 1.77-.75.52h-2.51l-.61-.34-.05-2.18.98-.62 1.64-.1zm48.08 9.92l15.99 24.05v1.74l-.46.82-11.18 4.84-2.5.01-1.87-1.65-.64-.95-.02-1.8 5.47-2.53-.01-2.08-3.83-5.78-1.94-1.59h-1.74l-4.47 1.97-1.49-.36-6.43-9.58-.33-1.52.58-1.37 6.39-2.9 5.44-2.25 1.41-.01zm-111.86 53.54l1.64 1.25 1.25 2.59.01 3.01-.46.83-2.2 1.31h-1.86l-2.2-1.32-1.01-1.55-.41-2.25.64-2.27 1.01-1.24 1.88-.69 1.08-.01zm124.98 14.71l1.27 1.94.01 3.03-.37.59-1.66.9h-2.18l-1.28-.64-1.29-1.6.01-2.5.99-1.89 1.47-.77 2.06-.01zm-3.19 37.48l1.25 2.59.01 2.7-.34.62-1.73 1.48-2.77.03-1.57-1-1.31-1.56-.33-.96.01-2.17.85-2.35 1.93-.95 2.38-.01z"/></g><g class="G I"><path d="M446.36 116.13v5.05h190.53v-5.05z"/></g><g class="G I"><path d="M446.36 121.18v5.04h190.53v-5.04zM235.73 76.65l.33.31-.04 2.39-.38.26h-2.87l-.38-.26.09-2.58 1.92-.42zm-24.68 22.43l.01 1.77-.75.52h-2.51l-.61-.34-.05-2.18.98-.62 1.64-.1z"/></g><g class="G I"><path d="M446.36 126.22v5.04h190.53v-5.04z"/></g><g class="G I"><path d="M446.36 131.26v5.05h190.53v-5.05zm-297.08-22.05l.89.83-1.01 2.65-.57-.11-.67-.66v-1.49l1.27-1.37zm130.63 55.71l-.64-.08-.64-.38-.01-1.5.59-1.1h.36zm-5.76 6.21l.08.62-.43-.27.03-.64zm.96 1.05l-.72.11-.16-.54z"/></g><g class="G I"><path d="M446.36 136.31v5.04h190.53v-5.04zm-292.9-28.05l-1.49 1.15-.66.06.1-.62 2.02-.72zm-6.66 2.67l.36-.36.42.04.34 1.31 1.28.99.05.73-2.32 1.6-.02-.64.39-.98zm131.85 53.5l1.25.69.36 1.7-2.39 4.04-1.89.99-1.51-.02-.46-1.28 4.16-6.75z"/></g><g class="G I"><path d="M446.36 141.35v5.05h190.53v-5.05zm-292.05-34.87l.66.77-1.08.88-.49-.06-.35-.32-1.11-.04-.59 1.35-.63 1-.57-.02-.65-.38-.02-.84 1.33-2.54.5-.46h2.06z"/></g><g class="G I"><path d="M446.36 146.4v5.04h190.53v-5.04zm-286.24-42.53l-2.71 1.64-2.13 1.74-.02-1.33 1.32-2.2.82-.46 1.41.01zm137.07 60.35l5.19-8.07-.02.71-1.95 5.47-2.86 4.85-.34-1.1zm-17.57 20.76l-.37 2.04-.6-.1-1.34-1.94.01-.86.65-1.39z"/></g><g class="G I"><path d="M446.36 151.44v5.04h190.53v-5.04zm-287.18-48.81v.72l-1.78-.09-.82.46-1.58 2.62-.69.18-.94-.7h-2.06l-.35.29-2.21 3.55-1.95 1.29.5 2.67-.65 1.63-4.84 3.2-.02-.64 3.79-10.35 11.82-5.16 1.44-.03zm-6.1 5.5l-1.45.38.08-.64 1.38-.09zm-14.13 18.83l-.41.11.1-.42zm140.67 34.4l-5.6 9.21h-.82l-2.04-3.25 6.83-10.77.94-.12z"/></g><g class="G I"><path d="M446.36 156.48v5.05h190.53v-5.05zM259.13 109l15.99 24.05v1.74l-.46.82-11.18 4.84-2.5.01-1.87-1.65-.64-.95-.02-1.8 5.47-2.53-.01-2.08-3.83-5.78-1.94-1.59h-1.74l-4.47 1.97-1.49-.36-6.43-9.58-.33-1.52.58-1.37 6.39-2.9 5.44-2.25 1.41-.01zm-6.1 2.57l-.01 1.44-.45.52-1.19.03-.98-.98.03-1.18.53-.47 1.09.01zm15.36 23.41l.66.98.01.74-.47.54-1.49-.02-.64-.63v-1.49l1.28-.46z"/></g><g class="G I"><path d="M446.36 161.53v5.04h190.53v-5.04z"/></g><g class="G I"><path d="M446.36 75.78v5.05h190.53v-5.05zm-264.82 94.79l.35.61 1.57 8.33-.34.37-41.26 59.37-15.85 22.95 1.4-.06.68.69-.02.73-.98 3.22-1.69 2.15-26.84 11.3-40.12 14.01H56.9l-19.94-7.93-.21-6.52-1.96-4.45.01-2.81.99-1.57 8.83-3.99 2.7.01 1.95 1.58 1.47 2.71 17.07-5.78 8.53-3 1.42-2.42 10.78-12.94.44-.84 10.21-48.74 1.2-1.36 5.89-4.79 12.47-2.48.84-.44 4.96-.63.01.73-1.13 3.22 1.64-.09 3.93-1.19 1.33-.6 2.84-2.28 2.25-3.2 2.79-6.83 2.97-8.66 1.31 2.54 2.24 2.57 2.52 1.64 1.63.31 1.18.02 4.14-1.65 1.72-2.44 4.4-10.05.71-.02zm-74.2 22.92l-.45 2.16-1.07.01.1-1.32.9-1.1zm15.9 32.6l-2.67 4.06-3.1.74-4.28.65 2.36-7.06 2.48-6.81 8.79-1.91zm-11.51 15.58v1.08l-5.14 7.4-.03-1.01 3.22-8.65.97-.13zm-14.4 21.12l1.26 2.26v2.7l-.32.64-2.36 1.2-1.84-.34-1.88-1.32-.37-.59.01-3.14.99-1.57 1.8-.77 1.41-.01zm-54.46 7.68l.61 1.66-.45 1.28-1.19.02-.6-.37-.67-1.24.01-1.84.53-.46h.43z"/></g><g class="G I"><path d="M446.36 166.57v5.04h190.53v-5.04z"/></g><g class="G I"><path d="M446.36 171.61v5.05h190.53v-5.05zm-126.04-67.1l1.25 2.6.01 2.05-.8 1.18h-.62l.46-.86v-2.38l-1.56-2.6-2.11-.89 1.45-.32zm-175.57 18.91l1.24 2.59.01 1.74-.98 1.28-.02-2.71-1.21-2.58-.99-.94-1.14-.33.32-.32h1.14zm127.5 53.83l1.27 1.94.01 3.03-.34.61-.55.11.24-2.12-.65-1.94-1.6-1.93-1.42-.63 2.07-.02zm-.03 6.25l-.12-.39.54-.17zM97.33 262.79l1.26 2.26v2.7l-.47.87-.62.1.08-3.3-.36-.28-.56-1.68-1.29-.95-.68-.37-.08-.29h1.42z"/></g><g class="G I"><path d="M446.36 176.66v5.04h190.53v-5.04zm-299.09-14.12l1.64 1.25 1.25 2.59.01 3.01-.65.99v-3.04l-.67-1.88-.7-.69-.17-.65-1.34-1.26-1.08-.66h1.08zm121.79 52.19l1.25 2.59.01 2.69-.31.66-.59.39.24-2.77-.94-2.58-.74-.55-.5-1.09-1.79-.91 1.75-.01zm-.47 6.44l.83-.11-.18.48-.58-.05z"/></g><g class="G I"><path d="M446.36 181.7v5.04h190.53v-5.04zM251.5 113.43l-.76-.21-.21-.76.21.12z"/></g><g class="G I"><path d="M446.36 186.74v5.05h190.53v-5.05zm-193.32-75.16l-.01 1.1-.46.53-1.16-.01-.65-.65-.01-1.15.54-.48.74.01zm15.67 23.72l.34 1.08-.45.53h-1.51l-.31-.32v-1.49l.99-.42z"/></g><g class="G I"><path d="M446.36 191.79v5.04h190.53v-5.04z"/></g><g class="G I"><path d="M446.36 80.83v5.04h190.53v-5.04zM327.31 5.89l2.58.63 5.13 2.88 3.57 2.19 11.5 26.63.63 9.63.33 11.97-.97 1.27v6.62l.63 11.22 1.27.66.37.59.29 4.51.65 16.45-.65 1.92-4.17 7.04-1.37 1.22-1.82.04-35.69 106.28-18.89 8.05-1.82-.35-14.55-.32 1.42-2.14.64-1.91v-3.64l-2.57-18.9.02-2.76 4.15-6.43 1.29-2.23 1.28-4.49.31-2.89v-7.47l-4.16-37.81-.03-3.12 8.07-8.6 13.1-13.49 2.59-2.85 8.01-8.33 3.16-3.36.64-3.42 3.22-12.15V72.2l-2.22-42.63-2.62-6.07.01-.85 2.64-9.42-3.57-1.91V8.54l2.56-1.28 7.26-2.99h3.96zm-8.96 1.9l-.35.34-2.24.01-.76-.38.3-.3h2.45zm1.97 96.72l1.25 2.6.01 2.05-.46.82-1.57 1h-2.17l-1.89-.99-1-1.9v-1.19l.56-1.7 1.05-1.2 2.3-.72zm-7.75 18.32l.36.6-.01 1.74-3.65 10.81-.49-.01-.67-.67-.65-4.79-.02-3.45 4.37-4.57zm-10.53 12.46l1.58 14.12.01 3.64-5.16 14.75-.59-.1-.35-.35-.33-1.27-2.55-23.08-.02-2.16.69-1.23 2.26-2.63.29-.07.23 1.11h.35l2.46-4.01h.17z"/></g><g class="G I"><path d="M446.36 85.87v5.05h190.53v-5.05zm-133.79 36.96l.36.6-.01 1.74-3.65 10.81-.49-.01-.67-.67-.65-4.79-.02-3.45 4.37-4.57zm-10.53 12.46l1.58 14.12.01 3.64-.66 1.91-5.78 9.3-.31-1.07-1.91-17.3-.01-2.16 5.95-9.72h.17zM143.1 139.8v2.98l-2.88 18.91-.01 3.75.65 2.55.01 1.72-2.66 7.9-2.79 6.83-2.25 3.2-2.84 2.28-1.33.6-3.93 1.19-1.64.09 19.35-53.29zm154.72 27.01l1.52-2.38.14.76-1.01 2.61-.62-.1zm-16.95 5.35v7.47l-.32 1.92-2.04.89h-.62l.11-3.24-1.61-3.84-1.69-2.9 3.03-1.42 2.52-4.02zm-157.63 53.93l-2.67 4.06-3.1.74-4.28.65 2.36-7.06 2.48-6.81 8.79-1.91zm-11.51 15.58v1.08l-5.14 7.4-.03-1.01 3.22-8.65.97-.13z"/></g><g class="G I"><path d="M446.36 90.92v5.04h190.53v-5.04zm-298.38 73.2l.17.65.7.69.67 1.88v2.04l-.76 1.48-1.25.67h-1.91l-.35-.34 1.58-.97.46-.82-.01-1.74-.93-1.95-1.31-1.25-2.37.13.06-.67.95-1.02.92-.36 1.41-.01zm119.5 49.95l.5 1.09.74.55.94 2.58-.01 1.38-.34 1.28-.66.23-.01.26-.35.69-2.86.02-.36-.34 1.44-.48.92-1.31-.01-1.41-1.24-2.6-1.32-.95h-1.08l-1.19.78-.01-.63.87-1.42 2.08-.6z"/></g><g class="G I"><path d="M446.36 95.96V101h190.53v-5.04zm-300.01 69.75l.93 1.95.01 1.74-.33.62-1.06.89-1.2-.01-1.25-.69-1.01-1.55-.33-2.48.59-1.38.6-.36 1.74.02zm119.83 50.3l1.24 2.6.01 1.41-1.08 1.47-1.84.03-1.55-1.33-.69-1.56v-2.18l.87-1.05.64-.34h1.08z"/></g><g class="G I"><path d="M446.36 101v5.05h190.53V101zm-304.18 24.02l.95 1.97-.33 1.71-.74.55h-1.54l-.92-.68-.68-1.57v-1.86l.54-.73 1.41-.34zm128.46 55.13v2.38l-.44.52-2.18.03-1.27-1.61-.01-2.51.87-.74h1.43z"/></g><g class="G I"><path d="M446.36 106.05v5.04h190.53v-5.04zm-127.3-1.55l1.56 2.6v2.38l-1.05 1.52-2.21-.02-.72-.34 1.7-.55.36-.6-.01-1.75-1.24-1.95-.35-.29-2.07.13.28-.8.99-.94 1.76.01zM142.8 122.81l.98.93 1.22 2.58.06 2.06-.47.83-1.27.7-.84-.02-1.09-.33 1.41-.86.33-1.71-.95-1.97-1.31-.96-1.41.16.1-.63.88-.77 1.09-.29zm127.83 54.15l1.6 1.92.65 1.94-.36 1.99-1.01.91-2.24-.01-.36-.35 1.46-.46.27-.37v-2.38l-1.6-1.93-2.06.04.97-1.3.63-.34H270zM95.37 262.5l1.29.96.56 1.68.36.28.05 2.65-.46.83-1.26.69-1.66-.37 1.46-1.14-.01-2.07-.92-1.63-1-.62-1.09.01-.55.45-.02-.64.89-1.08.64-.34h1.09z"/></g><g class="G I"><path d="M446.36 111.09v5.04h190.53v-5.04zm-128.91-5.3l1.24 1.95.01 1.75-.73.86-2.17-.04-.98-1.26-.43-1.92.64-1.32.64-.31h1.43zM94.78 264.38l.92 1.63.01 2.07-1.07.86-1.21.01-1.24-1.02-.37-.59.03-2.8.84-.78h1.09z"/></g><g class="G f"><path opacity=".2" d="M0 0h30v8H0z" class="B"/><path fill="#ffffe1" d="M0 0h30v8H0z" class="F"/><text xml:space="preserve" x="0" y="0" class="B">tooltip</text></g><defs ><path id="B" d="M446.36 65.7h190.53v5.04H446.36z"/><path id="C" d="M446.36 75.78h190.53v5.05H446.36z"/></defs></svg>