<svg xmlns="http://www.w3.org/2000/svg" xmlns:xlink="http://www.w3.org/1999/xlink" width="1587.402" height="1122.52" viewBox="0 0 420 297" stroke-linejoin="round" stroke-linecap="round" fill="none" fill-rule="evenodd" xmlns:v="https://vecta.io/nano"><style><![CDATA[.B{fill:#000}.C{font-family:MS Shell Dlg}.D{stroke-width:.529}.E{stroke-width:.176}.F{stroke:#000}.G{opacity:0}.H{stroke-width:.353}.I{fill:#0f0}.J{font-size:3.6px}.K{fill:#fff}.L{font-size:3.71px}.M{font-size:3.44px}.N{font-size:3.8px}.O{fill:#f0f0ff}.P{font-size:-nan(ind)}.Q{font-size:3.77px}.R{font-size:3.78px}.S{font-size:3.5px}.T{font-size:3.76px}.U{font-size:3.75px}.V{font-size:3.43px}.W{font-weight:bold}.X{font-size:3.7px}.Y{font-size:3.69px}.Z{font-size:3.74px}.a{font-size:3.79px}.b{font-size:3.66px}.c{font-size:3.05px}.d{font-size:3.73px}.e{font-size:3.52px}.f{font-size:3.72px}.g{fill:#e5e5e5}.h{font-size:3.67px}.i{font-size:3.51px}.j{font-size:3.65px}.k{visibility:hidden}]]></style><path d="M419.93 296.91H.09V.09h419.84z" class="K"/><path d="M322.85 207.41l1.57.02.51.35 1.76.58 1.28.96 1.6 1.93 1.29 3.19.17 2.13v2.91l-.51 3.71-.95 2.9-1.7 3.42-2.75 3.65-2.6 2.86-6.53 6.6-8.76 3.74.19-13.97.33-.3-.33-.24-.08-2.1.53-.02 2.17.82.98-2.51 1.24-1.1-1.26-.65-1.64-.33-.76.29-1.03 1.62-.39-1.67.13-.34 3.04-2.66 9.83-7.79 3-1.19-2.37-.1-2.14 1.07-11.36 9.07-.17-11.44-.14 11.78v1.6l.01 20.18.02 9.96-.22.52-15.47 6.64-1.5-.35-1.33-.91-1.23-1.98-2.89-5.13-1.07-.02-7.36 3.23-1.79 1.41-4.83 12.47-.59.69-19.04 8.2-1.53-.01-1.64-.69-.05-.32 1.11.13-.05-34.69-.63-2.26-1.62-.97-.61.1-1.58-2.68-1.64-1.25-4.81-1.92-2.22-1.3-1.31-1.57-.36-.66-.08-.64 1.78.4-.4-1.65-.3-2.58-.23-14.78.32-.15.68.07.13.23.73-.1-.86-.13.74-2.76 44.63 1.92 3.86.01-1.08-.66.96-3.2.62-.66 16.47.66 3.54.02-2.45-.85-18.3-.81-1.39.16.02-1.3 2.87-1.93 5.65-3.31 1.72.02z" class="g"/><path d="M214.65 105.66l-1.29-.17 1.3-.08zm-96.44 13.14l-1.29-.17 1.3-.08zm64.42 27.25l-.99-.19.99-.09zm124.94 81.82l-.23 1.88.08 2.1.33.24-.33.3-.19 13.97-.22.02-.01-20.18h.18zm-158.93 12.04l-.96-.18.97-.08zm78.19 33l-1.3-.18 1.3-.08z" fill="#00001c"/><path d="M212.64 11.96l1.31 1.24 1.24 2.29.5 2.44-.38 1.72-8.67-3.69h-2.87l-1.17.49-2.89 1.92-2.11 2.37-2.29 4.45-.62 2.89-.15 3.96.19.96.52 1.47 17.39 7.27.06.54-.21.95-.14.39-.27.06-2.36-1.02-.4.03-.03 2.79.17 1.95.15 1.9.17 1.94.15 1.93v1.26l-2.39 10.58-.35 2.15-.52.66-.29.39-.6.77-1.49-.34-14.39-6.1-1.31-1.58-2.17-4.55-.38-.3-.74.01-2.25.99-.22 5.23-.32 13.77-.4.24-1.3.43.1-16.68 4.4-19.96 3.2-13.78 1.69-4.08 2.6-3.49 2.2-1.95 3.43-1.7 8.65-3.53 3.34-.62zm28.54 12.14l1.93 2.24.93 2.28.17 1.81v28.53l-.14 21.66-29.18-12.28h-1.74l-1.81.75-.28 18.94-.76.53-.97.11.09-17.01 7.35-32.7 1.63-4.14 1.78-2.71 1.32-1.56 2.57-1.92 3.19-1.61 7.69-3.21 4.31-.61zm45.14 19.26l1.28 1.6 1.16 3.07.18 1.99-.05.54-.98-.13-8.31-3.55-2.69-.01-1.59.66-1.5 1.06-2.86 2.59-2.6 5.08-.63 2.89.01 3.76.56 2.32 17.42 7.56.02.57-.22.99-.16.23-.64-.1-2.25-1.02-.13 2.14.17 1.95.15 1.89.17 1.95.13 1.91.02 2.24-2.74 12.72-.53.76-.89 1.08-.46-.03-15.45-6.71-1.27-1.61-2.23-4.52-.6-.29-2.71.96-.22 17.4-.29 1.63-.76.54-.97.1.1-16.05.63-3.53 6.97-30.52 1.59-3.86 1.1-1.78 2.07-2.41 2.05-1.8 5.03-2.34 6.08-2.57 2.66-.65 1.98.03zm27.24 11.21l1.62 1.26 1.26 1.94.82 2.77.17 1.95-.31 71.43-.18 1.3-.78 2.16-2.42 2.71-3.39 3.02-.15 1.04.18 1.96.15 1.9.17 1.94.15 1.9.17 1.95.15 1.9.17 1.94.15 1.9.17 1.95.15 1.9.17 1.94.15 2.22.18 1.95.14 1.9.18 1.94.14 1.9.18 1.95.14 1.9.18 1.94.14 1.9.18 1.95.14 1.89.17 1.95.2 1.19 1.06-.35 3.07-1.74.45-.62.19.84v2.29l-.31.73-4.04 2.35-.15 1.37.18 1.95.14 1.9.18 1.94.3 2.43-.59 1.75-.9.06-6.09-1.29-7.7-1.61-1.39-.28-.35-.62-3.48-42.69-.29-.29-2.11 1.6-4 3.69-2.89 2.55-3.05 2.09-26.57 11.19.76 1.34 1.15 3.09.18.97.09.58-.34.14-5.15-1.13-.12-.15-.81.17-.86.53-3.23-.05-1.8 1.07-.01 1.84.56 2.36.92-.14 7.06-4.17 2.04.02 26.35 5.64.29.67.14 1.89.17 1.95-.04 1.47-1.89 1.32-2.24 2.57-1.12 1.8-.83.02-24.97-10.63-5.25-.33.42 1 1.95 2.21 5.13 5.46-.12 1.31-4.83-.01-35.13-1.61h-5.55l-.55 2.02-1.15.19-.98.01-1.13-.29-.34-.32.71-.23.05-12.59-.52-.21-6.05-.46.12 3.57 1.03 1.61-.02.39-5.81-.02-.68 2.25-.66.25.3.28-.2 14.86-4.48-2.05-2.26-1.92-1.64-2.51-.29-.96-.75.32-.84-.01-.68-1.93-.01-5.05 1.15-2.38 1.32-.92 2.04-.34 3.51 1.66.97.11.01-13.27-.35-.98-.95.13.23-16.48 1.18.29.35.34.15 18.97.37.59 2.58 1.07.01-20.71-.07-.22-.86.18-.54-.03.02-6.55 2.59-.62 68.24-28.19 6.09-1.61 12.27-3.1 1.49-1.07 9.45-4 .31-.38v-.75l-1.32-.96-2.23-.97h-1.74l-5.65 2.38.01-16.68 4.39-19.96 3.2-13.78 1.69-4.08 2.6-3.48 2.21-1.96 3.42-1.7 8.65-3.52 3.34-.63zM180.7 112.71l-1.2.18 6.34.14 5.12.45 4.37.69 3.51.97 5.44 2.21-1.27 4.28v2.81l.31.74-4.56 1.82-2.37.44-2.86.65-1.93.32-5.12.46h-7.07l-3.85-.32-4.13-.64-1.62-.33-4.6-1.23-5.42-2.6-3.2-2.88-.69-1.56.01-3.77 1.16-1.72 2.56-2.25 5.17-2.52 5.44-1.61 6.4-.96 3.96-.02zm-84.5 24.73l.05.2.82.06 14.32 5.94 1.32.92 1.07 2.11-1.02.15-18.05-1.56-3.19-1.29-1.29-1.01-.01-.61 2.63 1.05-.33-3.08.03-.3 2.05-2.81zm22.87 14.22l.19 1.15.18 1.3.28.45 2.59 1.04.19-2.37.4-.03 40.08 17.05-4.18-.01-8.44-.31-14.72-.67-.55 2.35-1.91.27-1.36-.66.34-.24.16-12.7.88-.24-.86-.03h-.99l-5.43-.46-1.53-.13 1.22.28.17 3.59.66.93.36 1.07-5.91-.11-.55 2.34-.72.28-.76-.19-1-.22-.46-.27.38-.33-.09-13.48zm-6.06 24.75l.45-1.44.38-.29.77-.02.34.34.26 1.63-.33.75.01.54 1.65.68.58-.05-.02-.34 14.48 6.16.62.09.26-1.07.74-.85.3-8.03.88-.49.39.03.02 8.16-.47 1.04-.15.31-.17.14.18.85.33.33-.01 1.29-.27.07-9.06-3.86-.02 34.65 1.33 2.22-11.65 4.83-1.54-.01-2.22-.97-.2-.44 1.15.46.96.11.01-32.17-.31-2.89-.95-2.26-1.94-.52-1.57-2.7-1.64-1.25-4.8-1.92-2.22-1.3-1.68-2.22-.07-.65 1.78.4-.68-4.26-1.08-1.29.37.01zm42.23-2.03l-.29 1.4-.11 1.62 1.41.19 10.56 4.18.3 50.96.4.58.32.79-3.03 1.5-3.86 1.41-.21-26.73-.65-3.84-.34-.94-2.22-1.01-.62.11-1.58-2.69-1.64-1.24-12.49-4.17-2.87-1.3-2.27-2.54-.78-1.58 1.74.96.97.11-.32-2.69-.01-16.04 1.61.66 4.06.99.64-2.6 1.71.01zm54.85 43.04l.44-1.44.39-.29.77-.02.34.34-.07 2.91 1.65.69.58-.05-.01-.34 14.48 6.16.62.09.35-1.28.31-.33.3-8.35 1.61-.45-.02 8.12-.65.62.14 3.35-6.19-2.45-2.49-1.16-.48-.17.13 34.54 1.25 2.01-3.31 1.65-.97.11-.22-27.69-.63-3.22-.35-.61-2.95-1.21-1.81-2.68-.98-.94-11.23-3.51-4.78-2.27-1.9-2.25-.51-1.23 2.76 1.03-1-4.9-.75-.99h.37zm-9.32 18.5l-.07.32-.89.03-8.65-3.56-2.97-.67-9.86 3.34-.1.94 9.74 4.18-13.55 4.72-3.32.59-12.2.5-2.76.18-2.23.65-2.68.6-.96-.15.1-5.59 2.9-.62 1.58-.67 1.93-.31 15.06-.64 2.35-.38.64.8 6.9-11.66 1.76.01zm35.31 7.98l-.3.91-.43.19.12.49.27 1.76-.77.55-1.2-.01-.02-3.15.97-.96 1.01-.13zm36.01 25.65l3.65-1.81 6.3-2.68h2.37l.02 5.58-.22.17-1.65.16-8.95 3.61-.09-1.52-.16-.09-1.49-2.45zm47.1-19.95l-.19.55-6.83 11.72-1.31 1.57-17.9 7.73-1.3.11.1-5.79 18.91-8 1.6-1.93 6.76-11.44zm-45.82 24.98l-.01 4.49-.3.42-18.47 7.78-2.75.84-1.65-.13.13-5.63 3.23-.61 19.7-8.46z" class="g"/><path d="M235.09 31.83l-1.34.4.01 1.32 2.29-.12-1.11.31-2.23 1.29-1.93 2.24-1.18 3.3-.32 3.85-.75.52-1.29.13.24-.9 1.21-.12-.37-2.97-.71.01-.29.41.16 2.67-2.05-.48-.3-1.61-.01-2.14.86-3.31 1.41-2.43 2.58-2.23.8-.48 2.36.02zm71.82 35.14l-.47.44.74.59-.05 3.35.84-1.74 1.97-1.33.43.06-.11.95.23.58-.01.25-.79.26-.29 1.29-1.3 2.23-1.04.87-.22 1.01-1.05.04-.27-.71.03-1.52 1.01-1-.04-.41-.41-.04-1 1.01-1.96-.01 1.12-.83 1.57-2.38.07-2.33.36-1.01h.39zm-7.46 4.05l.64-2.57 1.32-2.52 2.42-2.39 1.6-.64 2.03-.02-.67.74-1.89.67-2.07 1.77-.38.88-.25.11-.43.85-.25.97-.36.65-.21.12-.1 1.19-.2.11-.27 1.98-.38.28.12 1.67-.32-.05-.35-1.34zm-55.18 95.02l1.77.64.63.19.89.49-.74.31-1.34 1.23-1.15 3.06-.95-.1-1.26-.7-.33-.59-.72.48-.23-.57.01-1.01 1.13-2.78 1.64-.98.67.01zm-8.55 5.21l.04.33-1.45-.41v2.72l1.07-.35 1.27-.64.28-1.09.29-.03.01.37.76.04-.51 1.24.76.33-1.71.94-1.57 3.23-1.5 1.71-.31 2.88-.62-.42-.79.34h-.63l.13-3.55-.75.32-1.85.01-.21-.39.2-.29-.19-.35 1.52-1.41 1.26-1.95.64-1.6.21-3.35.73-.01zm87.79 45.09l-1.92.8-2.6 2.26-.01.61 1.81-1.44.48-.6.31.29.49.05 1.33-1.36.4.03.02 1.1-.34.96-.82.07-.66-.2-.42.11-1.95 2.57-.97 2.92h-.7l-.29-.41-.17-1.11.55-.12-.21-.85.8-.5.03-.43-.41-.22-.42 1.15-.23.13-.11.84-.19.13-.13 2.13-.45.8-.02 2.03-.63-.45.02-4.77 1.33-3.15 2.23-2.57 1.78-1.11 1.76-.26zM311 226.29l1.26.65-1.24 1.1-.98 2.51-2.17-.82.2-.1.03-1.44-.23 1.54-.53.02.23-1.88 1.03-1.62.76-.29z" class="K"/><g fill="#000020"><path d="M215.81 19.8l-.5-.15.38-1.72.13.12zm-3.48 24.64l-.25-.76.27-.06zm76.61 5.58l-.18-1.99.12.13zm-78.43 2.51l-.34.64.24-.84zm33.7 6.43V30.43l.13.12zm73.22 3.53l-.17-1.95.13.12zm-11.98 4.23l.82-.13-.36 1.01zm-99.07 1.52l.29-.39.25.91zM177 70.61l.33-.23.38-6.54v11.05l-.38-3.98zm5.31 21.42l.34-.15.52.21zm97.63 7.83l-.23-.84.18.1zm-65.29 5.8l.01-.25 1.52.1zm-96.44 13.14l.01-.25 1.53.1zM91.3 140.02l-.22-.1.07-16.5.32-.04z"/><path d="M92.52 140.32l-1.11-.08-.11-.22h1.25zm217.86 5.79l-.18-1.96.13.13zm-127.75-.06v-.28l.88.12zm-69.87.77l1.02-.15.19.18zm197.94 3.13l-.17-1.94.13.12zm.32 3.85l-.17-1.95.13.12zm.32 3.84l-.17-1.94.13.12zm-179.02.64l-.97-.27h.99zm-35.36.46l-.37.1.06-2.73zm214.7 2.75l-.17-1.95.13.12zm-207 2.79l-.19-1.21.19.11zm207.32 1.05l-.17-1.94.13.12zm-117.56.3l-.93-.04.86-.18zm-3.11.08l-.35-.34.87.04zm121 3.79l-.18-1.95.13.12zm.32 3.84l-.18-1.94.13.12zm-178.55-.45l.34-.75.3-.07-.27 1.47-.3-.06zm178.87 4.3l-.18-1.95.13.12zm.32 3.84l-.18-1.94.13.11zm-55.42 3.52l-.18-.97.14.11zm55.74.33l-.18-1.95.13.12zm-179.08 0l-.33-.33-.01-.99.15-.31.13.1zm123.09.39l.34-.14.53.19zm-123.13 1.75l-.24-.78.27-.07zm184.4 3.31v-2.29l.12.13zm-36.8.07l.76-.3.01 1.83-.29-.67zm32.48 6.33l-.18-1.95.13.12zm.32 3.84l-.18-1.94.13.12zm-168.22 10.79l-.1-.42.36-.06zm87.21 2.26l-.32.15-.51-.32zm97.17 5.86v-2.91l.13.12zm-8.65 1.87l.04-.82.2-.02zm-211.63-31.6l.12 32.91-.5-.5zm211.89 32.33l-.35.53.11-.87zm-15.33 3.78l-.13.34H307v-1.6h.17zM231.53 229l-.21-1.85.19.13zm90.85.05l-.16.23-.26-.76zm-188.15 4.93l.65-.17 1.21.19zm14.41 5.93l.01-.26 1.53.11zm86.83 5.58l-.12-.49.43-.19zm-86.73 2.28l1.53-.18.96.15zm96.53.41l.37-.75-.01 32.19-.34-9.95zm73.92 1.42l-.16-5.48.29-.86zm-12.16 6.74l-.02-9.96.22-.02zm-94.62 10.64l.64-.17 1.21.19zm14.42 5.93v-.26l1.53.11zm46.53 6.16l.01-4.49h.24zM250 288.15l.19-.17 1.65.13z"/></g><path d="M194.73 33l-.19-.96.15.11zm43.78 3.59l.37.06.06.37-.36-.06zm-5.76 10.65l-.72-.04.33-.35.77-.01zm-23.29.19l-.17-1.95.12.12zm.32 3.84l-.17-1.94.12.12zm.15 3.19V53.2l.24-.03zm96.73 12.13h-.39l.02-.49.63-.05zm4.01.27h-.43v-.43h.43zm.33 3.23l-.52.03.01-.25.51-.9zm-7.51.12l-.21.51-.11-.73.19-.11zm7.18 1.13h-.43v-.43h.43zm-8.23.47l-.84.05-.11.53-.27.33-.15-.95 1.08-.37zm-19.93 5.74l-.17-1.95.12.12zm.32 3.84l-.17-1.95.12.12zm.64 2.32l-.49 1.83-.02-2.24zm-97.63 29.32l-6.34-.14 1.2-.18zM97.07 137.7l-.82-.06-.05-.2zm22.37 16.41l-.18-1.3.13.12zm6.48 3.44l-.31.15-1.22-.28zm-27-.02l-.11-.41.36-.06zm33.4.75l.02-.27.86.03zm114.35 8.59l-.63-.19.59-.61zm-14.99 1.96l-.49 1.2-.22-2.17.24-.2zm6.13.07l.46-.28v1.74zm-8.14 4.08l-.83.05.33-.64.47.06zm-1.04 1.75l-.41.09-.02-.36.27-.14zm-2.99 1.5v1.3l-.35.62-.02-2.24zm2.99 2.31l-.2.29-.23-.54.24-.1zm23.82 5.6l-.93.02.81-.17zm61.45 4.58l-.17-1.95.13.12zm-30.75 7.05l-.17-1.95.12.12zm31.34 9.18l-.81-.14.9-.06zm-79.82 8.97l-.13-.23.86.13zm87.99 5.19l-.46.26-.2-.46zm4.22 1.11l.77-1.31.01 3.08-.31.31zm.59 2.77l-.43.9-.27-.51.36-.61zm-20.16 1.27l-.14.34H307l.14-11.78zm19.36.87l-.06-.75.35-.08zm-.71 1.8h-.69l.34-.35h.44zm-.64.96h-.69l.34-.35h.43zM187.5 237.93l-.02-.18.94-.13.85.24zm35.14-14.39l-.35 34.37-.13-34.54zm50.97 51.04h-.24l-.12-1.3.11-.31.16.09z" fill="#00001c"/><g class="g"><path d="M229.95 34.18l-.1-.41.36-.06zm-1.26 9.87l-1.21.12-.16-2.67.29-.41.71-.01zm73.97 23.33l-.89.52.43-.85.25-.11z"/><path d="M302.03 68.69l-.51.18.25-.97z"/><path d="M301.72 69.31l-.56.21.36-.65z"/><path d="M301.39 70.68l-.54.15.1-1.19.21-.12zM179.62 90.24l1.5-.75 1.41-.01.12 2.4-.34.15-2.69-.61zm27.59 9.64l-1.07.85-1.96.1v-2.38l1.61-.31 1.4-1.61zm-59.1 3.73l2.04-.68.02 2.06-1.62-.11-.33-.33zm63.51.39l.89-.74 2.04-.34.11 2.49-1.3.08-1.7-.64zm-96.44 13.14l.89-.75 2.04-.33.11 2.49-1.3.08-1.7-.64zm128.84.01l1.18-.42 1.4-.01v2.37l-1.63-.1-.95-.33zm-31.73 13.79l1.54-.79h.72l.01 2.09-1.31-.12-.97-.34zm-64.62.77l-.22-1.23.98-.63h1.74v2.38l-1.63-.11zm17.25 4.38l-1.71.84-1.31.11.01-2.36 1.67-.57 1.33-1.69zm14.7 7.98l1.5-.75 1.41-.01.1 2.46-.99.09-1.39-.27-.62-.36zm-75.24 18.42l.09.58-1.42.56v-1.33l.99-.13zm12.48 2.3l-.65.03-1.07-.71h.71zm62.77 7.69l6.14 2.83 1.26 2.3-2.82-.04-15.07-1.27-3.9-1.61-.68-.65v-.62l2.25.79.04-3.65-1.01.44v-.62l2.15-2.43.73.02zm-48.35-1.6l-.66.04-.68-.42-.07-.29.37-.02zm101.55.97l-.35 1.06v-2.38zm-106.35.46l-1.33.61.02-1.34.63-.11zm77.19 29.03l-1.02-.05-.06-.33zm-64.1 1.56l-.96 1.38-.31 1.94-.4.24-1.29.42-.27-.39.01-2.85.86-1.07 1.77.01zm61.86.95l-1.29.8-.1-1.45.73-.01zm22.11 9.29l-1.3.81-.1-1.46.73-.01zm95.13 7.95l-.03.43-.8.5.42-1.15z"/><path d="M318.05 222.87l-.55.12.11-.84.23-.13zm-9.98 6.76l-.2.1.23-1.54zm-176.19 2.89l.87-.77.96-.33 1.07-.01.1 2.4-.65.17-1.4-.29-.96-.68zm56.54 5.1l-.94.13.36-.63.43.07zm17.39.2l.62-.35.73.03 6.15 16.47-1.31.97zm-59.83.13l.54-.45 2.03-.34.1 2.49-.97.08-1.37-.29-.33-.33zm57.38 6.3l-.68.05-.45-.31.02-.39.75-.02zm6.69 20.94l1.49-.78 1.42.01.09 2.39-.64.17-1.69-.31-.66-.67zm13.79 5.76l1.82-.77 1.07-.01.1 2.48-1.3.08-1.69-.62z"/></g><g class="K"><path d="M236 35.48l-1.37.51-1.31 1.25-1.25 1.95-.89 3.28-.36.28-.24 1.03-.34-.35v-2.86l.66-1.91 1.77-2.71 2.3-1.27.71.02zm71.15 25.84l-1.95.39-2.52 1.32-1.91 2.25-1.42 2.43-.86 3.31v3.42l3.26 13.54-1.01-.41-3.22-12.8-.32-2.78.31-2.59 1.83-4.26 2.26-2.55 2.86-1.62 1.73.01zm.32 3.43l-.55 1.3-.63.05-.77-.6-2.05 2.49-1.32 3.41-1.08.37-.22-.94.54-.15-.23-1.16.56-.21-.2-.44.51-.18-.26-.79.89-.52-.21-.44 1.68-1.17.78-.93 1.18.02 1.1-.39zm1.62 3.02l.05.32-1.48-.31.12-.73zm-4.49 1.48l-1.11.96-.13-.33.5-.91.44-.02zm-1.9 3.63l.01.34-1.11.32-.27.34-.11-1.16.27-.33zm5.12 11.47l-1.16.6-1.14 2.74-2.55-.75-.01-1.52.99-1.89.51-.47 1.09.01zm.3 1.64l.03.72-.48.87-.94.11-.32-.78.6-1.31zm-21.15 57.35l-2.68.62-2.44 1.72-2.08 3.05-.91 1.97-.55 2.66v4.19l-1.3-.44-.66-.62.04-5.06.3-1.62 2.44-4.29 2.38-2.1 1.48-.76h2.7zm2.22 4.16l.33 1.27v2.66l-1.28 3.53-1.73 2.44-2.52 1.32-2.47-.03-1.29-1.59-.62-1.69.01-2.28.82-2.76 1.42-2.44 2.19-1.96 1.32-.11zm-46.76 15.36l.97.34-1.62-.02-7.04-.63h-2.35l-1.62.3-1.49.75-2.85 2.27-2.73 4-1.23 2.94-.55 2.66v4.7l.31 1.63-.62.01-.64-.38-.65-2.54v-3.43l.62-3.22 1.34-3.15 2.07-3.05 2.6-2.53 2.54-1.3 1.62-.3h2.02zm-9 2.23l-1.7.32-2.1 1.11-2.72 3.04-1.06 2.16-.19.14-.88 2.3-.19 2.06-.47 1.8-.33.23.37 2.69h-.37l-.31-.4-.28-1.65v-3.1l.55-2.66 1.41-3.39 2.55-3.22 3.17-1.97 2.89-.1z"/><path d="M233.39 166.07l.32.31-.3.33-.28 2.38-1.45-.26-.47-1.17-.24.2-.82.45-1.96 2.21-1.24 2.61-.87 2.96-.44.14-.37-.32-.28-1.13.48-.02.01-.88.25-.47-.03-.58.37-.36-.22-.75.84-.56-.01-.28.67-.51-.03-.46.67-.66.17-.65 1.78-1.56h1.5l1.03-.57.25-.71 1.4-.01zm14.81 3.79l-.62 1.79-1.3.61-.74-1.41.63-1.58 1.07-.02zm-18.48 3.43l-.44.89-.81.14.37-1.29.83-.05zm-4.89 3.78l-.24-.85.2.12zm2.9.9l-.01.34-1.63.68-.31 1.28-.35-.36-.14-1.76.35-.62.8-.24zm-93.55 6.58l-.18-.85.17-.14zm189.35 35.42l-1.13-.06.68-.39.45.06zm1.9.55l.46.84-1.8-.88-.07-.29z"/><path d="M323.48 220.86l.01 2.68-.45.53.73.11.58-1.39 1.4-.84.14-.59.48.14.23 1.03.53.24-.36.61-.49.04-.88 2.34-1.43 1.77-.6 1.35-.99.17-.42-.53-.11-.5.35-1.61.69-.65-.01-.73-1.72 1.3-3.21.06-.24-.66-.29.01-.24-.49.87.07.61.36 1.84-.02 1.44-1.88.29.01-.12-.96.18-.22.35-.53-.24-.34-.02-.39.24-.84zm-3.02 2.26h-.62l.69-1.04h.36zm2.72-8.9l-3 1.19-9.83 7.79-3.04 2.66-.14-1.26.14-.34 11.36-9.07 2.14-1.07zm-10.26 14.26l-.59 1.85-.78.26-.28-.4.01-1.23.55-.79.8.02z"/></g><g class="F"><path d="M245.12 163.9l-1.24-.46-10.29-.98-2.19.2-2.26.97-2.18 1.69-1.96 2.28-1.59 2.72-1.14 2.99-.59 3.05-.01 2.9.56 2.56 1.12 2.06 1.58 1.4m3.58-6.06l.69.29v.3m0-.3l1.1-.26 1.1-.66m0 1.55l-.01 1.7m1.24-11.23l1.46.62.16 1.35-.17 1.49m.87-.37l1.65-.68m-2.51-1.79l.28-.11m6.46-.5l.16.34.08.06" class="E"/><g class="D"><path d="M244.6 172.83l-.77.91-10.33 9.55-2.2 1.62-2.26.91-2.17.12-1.94-.66-1.47-.62-1.58-1.4-1.11-2.06-.57-2.56.01-2.91.59-3.04 1.05-2.76.09-.23 1.59-2.72 1.96-2.28 2.18-1.69 2.26-.97 2.19-.2 10.29.98 1.24.46 1.47.62.92 1.08.48 1.57v.37"/><path d="M226.41 175.91l.14 1.28-1.29.54m6.14 2.41v-1.55l-1.47-.62-1.1.66-.52.12m2.73-9.73l.41-.1.01-2.12m1.44 3.7l-.27.11.15 1.35-.17 1.48 1.47.63.87-.37m6.13-5.22l-.08.12-.22.65-.08.65.07.59.06.13.09-.04m.31-2.37l-.09.16"/></g><g class="E"><path d="M235.67 165.25l-1.79-.61-2.03.19-1.42.66-.67.31-1.98 1.69-1.72 2.25-1.32 2.64-.56 1.98-.24.83-.22 2.76.36 2.48.94 2.01 1.42 1.36m11.96-12.46l-.35-2.39-.9-1.93-1.37-1.31-1.73-.59-1.95.19-2.01.94-1.91 1.62-1.66 2.16-1.26 2.55-.78 2.7-.21 2.66.35 2.39.9 1.93 1.37 1.31 1.73.59 1.95-.19 2.01-.93 1.91-1.62m-9.08-.42l.03.1.61.8m3.47 1.64l-1.31-.04-1.6-.85-.44-.58"/><path d="M230.22 183.5l-.14.05-.55-.01m3.12-1.17l-.59.45-1.01.37m.53-17.18l.02-.01 1.95-.34.94.24m.49.13l-.01-.01-.3-.07"/><path d="M234.97 166.02l.33.09.43.37m.81.7l-.8-.69m1.07 1.05l-.11-.22-.15-.12m.7 4.86l-.08 1.01m.29-.97l-.08.96m.54-1.94l.07.41-.15 1.68m-.03.35l.02-.16"/></g><g class="D"><path d="M234.61 181.26l-.12.16-.15.14-1.99 1.69-2.09.97-2.02.19-1.8-.61-.73-.31-1.43-1.36-.93-2.01-.37-2.48.23-2.76.8-2.81 1.31-2.64 1.72-2.25 1.56-1.33.43-.36 2.09-.97 2.02-.19 1.8.61.73.31 1.43 1.36.93 2 .37 2.49v.24l-.19 2.38"/><path d="M225.41 181l-.62-2.03-.03-1.18m-.01-.3l-.03-1.03.52-2.68.64-1.57m.93-1.8l-.51.77-.35.85m4.51-5.39l-.83.47-1.82 1.78-.88 1.34m4.05 11.91l.05-.02.41-.31m-.74-15.3l.88-.5m5.01 7.07l.13-1.46"/></g><g class="E"><path d="M228.98 183.47l-1.58-.83-1.15-1.55-.61-2.08-.49-.21.62 2.1 1.14 1.53.49.21.32-.15 1.53.81 1.73.05m-5.83-4.55l.37-.15-.17-.07m.29.43h.38l.58 1.98 1.12 1.5m-1.7-3.48l1.97-.82.62 1.45 1.05.92 1.33.25-.18-.32-1.23-.25-1-.88-.58-1.32-.01.15m-1.03-7.44l-1.16 2.49-.64 2.62.5.21.63-2.59 1.17-2.52-.5-.21 1.57-2.12 1.84-1.57.49.21-1.81 1.55-1.59 2.14.31.19-1.14 2.45-.6 2.47 1.98-.83.63-1.96.7-1.18.36-.62 1.34-1.36.01-2.54-1.74 1.49-1.54 2.08"/><path d="M225.66 176.07h.37m.88 6.36l.85.45m-1.48-5.57l1.72.73m.98 1.68l1.83.77m.58-11.56l.19.24.44 1.47-.01 1.75-.45 1.83-.84 1.73-1.15 1.43-1.32.97-.1.03m1.56-.28l-.28-.12-.81.53-.37.11"/><path d="M229.43 177.98v.29m2.56 3.53v-.19l.19.08m-1.2-.02l.01-.86m2.11-1.28l.18.33 1.34-1.36 1.06-1.8.63-1.96h-.37l-.59 1.81-1.02 1.72-1.23 1.26-1.7-.71m4.93-7.03l-.62-1.45-1.05-.92-1.33-.25-.18.17-1.7-.72m-.4-1.04l-.19-.31m2.23 15.29l.18-.16.01-2.54"/><path d="M233.27 182.4l1.74-1.49m-2.61.88l-.01-.01m.23-8.44l-.35-.15.39-.17m-.39.17l.1-.65.01-1.75-.1-.55 2.43 1.02m-1.38-2.09l.01-2.54-.18-.32-.5-.21v.48l-.19-.08m.68 2.84l1.22.24 1 .88.58 1.33"/><path d="M233.16 166.31l1.81.05m1.58.83l.05.3-1.53-.81-1.73-.05m-.68-.53l1.68.05m1.6 8.59l-1.72-.73"/><path d="M234.36 169.58h.01m1.94 5.16l1.98-.83m-1.69-6.42l1.12 1.5.58 1.98"/><path d="M237.02 173.53l-.2-.08.17-.07"/></g><g class="D"><path d="M227.76 182.88l.71.37.51.22 1.81.04.19-.16v-1.68m1.42.12l.19.08v.48l.5.21 1.82-1.55.1-.1 1.54-2.08 1.14-2.45.6-2.47v-.15l-.49-.21-.37.16-.21-.09m-2.88-7.47h.16l.47.21 1.58.83 1.15 1.55.61 2.07-.01.16-1.97.82h-.38l-1.24-.53"/><path d="M236.57 173.03l.03.01"/></g><g class="E"><path d="M228.8 174.45l-.04-.03-.13-.13-.06-.11-.07-.15-.03-.2.01-.06"/><path d="M228.37 174.12l.07.06.17.06m.01-.89l.01-.02-.04.11"/><path d="M228.63 173.33v-.02l.05-.06.02-.03.15-.14.16-.08.03-.01.21-.05.15.01m-.47.66l-.05.15m-.39.44l-.14-.01"/><path d="M229.14 172.97l-.08-.04-.14-.13"/><path d="M229.06 172.93l-.13-.06h-.05m.41-.56l-.07-.02m.54 2.19l.13-.1.11-.14.09-.17.04-.18.01-.18-.05-.14-.08-.11-.11-.05-.13.01-.13.07-.01.01-.12.11-.1.16-.07.18-.02.18.02.16.06.13.1.08.12.02.14-.04"/></g><path d="M229.4 172.95h.04l.15.05.18.08.01.01.13.13.18.33.05.16-.01.17-.04.19-.09.17-.11.15-.14.09-.01.01-.13.04-.3.08h-.18l-.21-.08-.12-.08m-.62.24l.25.07h.05l.05-.02.04-.03.05-.04.18-.22m.43-2.17l.06.03.04.02.03.03.02.05.01.06.01.48" class="D"/><path d="M225.23 177.48v-.04m6.7-10.85l-.02.01m5.94 6.66l-.04.03-.07.03-.11.01h-.12l-.13-.01-.12-.03-.11-.03-.07-.04-.04-.05v-.04" class="E"/><g class="D"><path d="M225.36 178.72l-.13-1.28.09-1.52m3.31 7.56l-.49-.05-.09-.01m1.73.07l-.12.02m.96-16.35l.02-.01 1.27-.55.53-.08m.18 15.84l-.33.24-1.31.62"/><path d="M232.15 181.68l-.27.2-.9.43m1.68-15.83l-.09.02m2.38-.48l.39.19m.9.75l.14.14m1.47 6.11v.01.04l-.05.29m-.84-.04l.08-.38.04-.03.07-.03.1-.01h.13l.12.01m-.43-1.59l.04.48.04.05.08.04.1.04.13.01h.13l.12-.01.11-.03.07-.05.04-.05v-.05l-.06-.76"/></g><path d="M280.47 160.21l-1.3-1.26-.82-1.87-.23-1.93-.04-.39.29-2.55.84-2.56 1.32-2.35 1.66-1.92 1.75-1.24.12-.08 1.91-.61 1.78.16m-8.24 11.57l-.13-.96.29-2.25.81-2.24 1.25-1.98 1.54-1.51 1.69-.88 1.63-.15 1.41.6 1.03 1.28.53 1.82.07 1.05-.08 1.12-.55 2.27-.16.32-.89 1.82-1.41 1.77-1.64 1.22-.96.29-.72.22-1.54-.22-1.24-.96-.79-1.57-.14-1.06" class="E"/><path d="M277.68 159.03l2.79 1.18 1.65.54 1.87-.23 1.91-.97 1.79-1.64 1.5-2.16 1.09-2.48.58-2.59.07-1.26-.06-1.2-.56-2.11-1.07-1.59-1.49-.91-2.88-1.22" class="D"/><g class="E"><path d="M194.33 165.37l-.08 19.38.16 1.32.47 1.07-2.94-1.24m2.94 1.24l.74.72m45.13-17.57l.17-.09m36.66-11.32l.12.19 1.54.93.93.09m2.09-40.29l.07-15.96.17-1.48 7.13-31.68.98-3.11 1.48-2.92 1.87-2.55 2.16-2 2.31-1.33 9.78-4.07 2.04-.55 1.94.07 1.73.68m-29.37 87.53l.48-.06 1.7.56.45.44"/><path d="M290.09 62.13l2.93 1.25"/></g><g class="D"><path d="M279.32 118.69l.07-16.09.17-1.48 7.13-31.67.98-3.12 1.48-2.92 1.87-2.55 2.17-2 2.3-1.34 9.78-4.06 2.04-.55 1.94.07 1.73.68 2.94 1.24 1.45 1.26 1.08 1.78.67 2.21.22 2.53-.31 71.07-.17 1.46-.48 1.47-.76 1.34-.95 1.1-28.54 26.04-2.29 1.79-2.37 1.27-38.93 16.17-12.91 5.36-2.37.7-2.28.11-28.41-2.39-.95-.31-2.94-1.24-.74-.72-.47-1.07-.16-1.32.08-18.1"/><path d="M277.58 158.88l-.98-1.44-.57-2.18.01-2.53.59-2.66 1.13-2.55 1.54-2.22 1.84-1.69 1.97-1 1.44-.18"/></g><g class="E"><path d="M168.25 175.93l-.74-.73-2.94-1.24m2.94 1.24l-.48-1.07-.15-1.32.01-2.45M285.46 42.87l-1.74-.68-1.94-.07-2.04.55-9.78 4.06-2.3 1.34-2.16 2-1.88 2.55-1.48 2.92-.98 3.11-7.13 31.68-.17 1.48-.07 15.96"/><path d="M261.62 50.1l2.94 1.24"/></g><path d="M187.02 177.73l-17.82-1.5-.95-.3-2.94-1.25-.74-.72-.47-1.07-.16-1.32v-.92m124.93-119.9l-.22-2.63-.67-2.21-1.08-1.78-1.44-1.26-2.94-1.25-1.74-.68-1.94-.06-2.04.55-9.78 4.06-2.3 1.34-2.16 2-1.88 2.54-1.48 2.92-.98 3.12-7.13 31.68-.17 1.48-.07 16.09" class="D"/><path d="M96.31 137.34l-.48-.2-.56-.12-.5.11-.41.33-1.94 2.49-.21.17m77.2 28.12l-.48-.21-.56-.12-.5.11-.41.34-1.94 2.48-.21.17m24.17 10.43l.08-16.56" class="E"/><path d="M191.32 180.68l-1.84.76-.46-.19-.28-.17-.25-.27-.2-.34-1.91-4.12-.4-.68-.51-.54-.56-.34-15.5-6.55-1.14 1.46-.2.17-2.76 1.14-.25.06-.28-.07-48.86-20.64-.28-.18-.25-.27-.2-.33-1.91-4.12-.41-.68-.5-.54-.56-.35-15.5-6.55-1.14 1.47-.2.16-2.76 1.15-.25.05-.28-.06-.46-.19.07-16.57" class="D"/><g class="E"><path d="M84.36 113.11l-.03 6.61"/><path d="M165.26 75.26l117.36 49.6v.48l-1.35.49-1.41.39-14.5 3.47-1.41.39-1.27.46-67.21 27.92-.98.29-1.16.16-1.22-.01-1.16-.16-.99-.3-104.5-44.17-.72-.42-.38-.48v-.51"/><path d="M115.35 116.85l-.07.05-.23.46.14.46.48.42.79.33 1 .21 1.1.06 1.09-.09.95-.23.72-.36.41-.43.05-.46-.32-.45-.65-.38-.9-.28-1.07-.13-1.11.01-1.04.17-.84.3-.5.34m32.49 14.99l-.51-.43-.14-.47.23-.45.57-.4.85-.3 1.03-.16 1.11-.02 1.07.14.92.28.63.37.32.46-.05.46-.4.43-.72.35-.96.24-1.09.09-1.1-.06-1-.21-.76-.32m.05-27.66l-.05-.16.19-.37.45-.32.69-.24.83-.13.9-.01.86.11.73.22.52.31.26.36-.04.37-.31.34-.43.22-.16.08-.77.19-.88.07-.89-.05-.81-.17-.64-.27-.39-.34-.06-.21m60.85 16.89l.31-.35.83-1.96v-2l-.83-1.96-1.62-1.88-2.38-1.73-3.06-1.54-3.64-1.29-4.12-1.01-4.46-.7-4.69-.36-4.75-.02-4.68.33-4.47.66-4.12.98-3.64 1.27-3.05 1.52-2.38 1.71-1.63 1.87-.82 1.96v1.99l.82 1.96.29.33m1.57 14.73l.04.17m.15.37l-.06-.06-.04-.12m.41.44l.23.15m.8.31l-.31-.1m.96.24l.37.05m1.81-.02l.36-.05m-1.46.11h.39m1.99-.36l-.3.1m.97-.45l-.19.12m.56-.57l-.01.06-.08.09m.45-60.32l117.36 49.6M177.33 75.5v.03-.06l.05-.07.37-.17m5.05.83l-1.84.76-.45.06-.28-.06-2.76-1.17-.14-.12m2.63 69.88l-.49-.42-.14-.46.23-.46.57-.4.85-.29 1.03-.17 1.11-.02 1.07.14.9.28.65.38.32.44-.05.47-.4.43-.72.35-.96.24-1.08.09-1.11-.06-.99-.21-.79-.33"/><path d="M180.13 91.61l-.17-.07-.49-.42-.14-.46.23-.46.57-.4.85-.29 1.03-.17 1.12-.01 1.06.13.9.28.66.39.31.44-.05.46-.4.43-.72.35-.96.24-1.08.09-1.11-.06-1-.21-.61-.26m12.56 73.9l.03-6.6m8.47-58.4l-.16-.08m-.55-.89v.12m.07.24l.05.15.05.05m1.14.67l.21.06m1.01.19l-.4-.07m1.5.11h-.25m1.1-.07l.22-.04m.74-.18l.19-.08m.7-.39l-.07.08-.18.09m4.71-12.38l-1.84.76-.28.06-.32-.02-2.98-1.26-.05-.06v-.07l.05-.07.37-.17m.82 12.79l.09-.09.01-.06m5.14 31.71l-.04-.05-.12-.37.19-.37.46-.32.68-.24.84-.13.9-.02.86.11.73.23.52.3.26.37-.04.37-.33.35-.58.28-.77.19-.88.08-.89-.05-.8-.17-.64-.27-.35-.29m.61-26.15l-.79-.34-.49-.42-.13-.45.22-.46.57-.4.85-.3 1.04-.17 1.11-.01 1.06.14.91.27.64.38.32.45-.05.46-.4.44-.72.35-.95.23-1.09.1-1.1-.07-1-.2m30.87 12.83l-.14-.47.22-.45.58-.4.84-.3 1.04-.16 1.11-.02 1.06.14.91.27.64.39.32.44-.04.47-.41.43-.72.35-.95.24-1.09.09-1.1-.06-1-.21-.79-.33-.48-.42m7.09-12.17l-.37.17-.05.07v.07l.05.06 2.98 1.26.32.03.29-.07 1.83-.76m23 11.47v.04-.07l.05-.06.37-.17"/><path d="M278.9 118.46l.14.12 2.62 1.11.42.12.45-.06 2.71-1.13m-2.62 6.24l9.74-4.04.72-.41.37-.48"/></g><g class="D"><path d="M177.77 70.77h-.63l-1.15.15-1 .3-9.73 4.04v.48l-1.2.56-.94.58-8.4 6.05-.92.57-1.13.54-67.22 27.92-.71.41-.38.49-.03 7.11.38.49.72.41 104.5 44.17.99.3 1.16.17h1.22l1.16-.15.98-.3 67.22-27.92 1.27-.46 1.4-.39 14.51-3.46 1.4-.39 1.27-.47 9.82-4.07.71-.41.38-.49.03-7.07v-.52l-.38-.48-.71-.42-3.03-1.28-.29-.06-.45.06-3.35 1.39"/><path d="M156.65 120.85l1.31-1.5 2.38-1.72 3.05-1.51 3.64-1.27 4.12-.98 4.47-.67 4.68-.33 4.76.02 4.68.36 4.46.7 4.12 1.01 3.64 1.3 3.06 1.53 2.38 1.74 1.34 1.54-1.32 1.51-2.37 1.72-3.06 1.51-3.62 1.26-4.14.99-4.46.67-4.68.32-4.76-.01-4.68-.37-4.47-.69-4.12-1.01-3.64-1.3-3.05-1.53-2.38-1.74-1.34-1.55"/></g><g class="E"><path d="M94.05 144.94l-.74-.72-2.94-1.24"/><path d="M93.31 144.22l-.47-1.07-.16-1.33.01-1.9M212.35 11.97l-1.73-.68-1.94-.06-2.04.55-9.78 4.06-2.3 1.34-2.17 2-1.87 2.54-1.48 2.92-.98 3.12-7.13 31.68-.17 1.48-.07 15.96"/><path d="M188.52 19.21l2.94 1.24m10.91 20.31l-.07-.03-.29.03-.31.16-.29.28-.16.26-.06.1-.15.41-.05.41.05.37.14.28.23.18.13.02m.91-2.44l.14.09"/></g><path d="M89.82 122.73l-.08 17.85.16 1.32.47 1.08.74.72 2.94 1.24.95.31 18.92 1.59M215.77 19.86l-.22-2.63-.66-2.21-1.09-1.78-1.45-1.27-2.94-1.24-1.73-.68-1.94-.07-2.04.56-9.78 4.06-2.3 1.33-1.84 1.7-.32.31-1.88 2.54-1.48 2.92-.98 3.11-7.13 31.69-.17 1.47-.07 16.1" class="D"/><path d="M211.26 69.18l40.46 17.1" class="E"/><path d="M250.86 104.82l-39.68-16.77.08-18.87 2.76-1.14 38.18 16.14" class="D"/><g class="E"><path d="M123.62 157.06l-.74-.72-2.94-1.24"/><path d="M122.88 156.34l-.48-1.07-.15-1.32v-.92M240.82 24l-1.73-.68-1.94-.06-2.04.55-9.78 4.06-2.3 1.34-2.17 2-1.88 2.54-1.47 2.92-.98 3.12-7.13 31.68-.17 1.48-.07 15.96"/><path d="M216.98 31.24l2.94 1.24"/></g><path d="M119.31 151.79v.91l.15 1.33.48 1.07.74.72 1.91.81 1.03.43.95.31 9.92.84m68.67-32.98l-.23-.86.01-2.53.59-2.66.77-1.75m39.72-36.71l.22-48.93-.22-2.53-.67-2.21-1.08-1.78-1.45-1.27-2.94-1.24-1.73-.68-1.94-.06-2.03.55-9.79 4.06-2.3 1.33-2.17 2.01-1.87 2.54-1.48 2.92-.98 3.12-7.13 31.68-.17 1.48-.07 16.09" class="D"/><path d="M202.44 40.78l-.29-.01-.31.12-.29.24-.24.34-.17.4-.01.05-.07.36.01.38.12.32.2.2" class="E"/><path d="M201.34 43.16l.05.02.27.08.3-.05.3-.19.27-.29.22-.37.12-.41.04-.41-.07-.35-.17-.26-.23-.15-.06-.02" class="D"/><g class="E"><path d="M243.08 166.88l-.43.43-.53.85-.35.96-.11.97v.07m4.16 3.17l-.61-.26-.44-.54-.24-.78-.03-.45.03-.48.24-.98.44-.92.61-.77.7-.52.37-.12.36-.11.66.09m1 2.02l-.11-.83-.34-.64-.51-.39-.63-.09-.7.22-.67.5-.58.74-.43.88-.23.94-.02.46.02.43.23.75.43.52.58.24.67-.07.7-.36m.22-1.07l-1.48.62-.75-1.33.75-1.96 1.48-.63.74 1.34-.74 1.96-2.15-.91"/><path d="M246.33 168.95l1.95.83"/></g><path d="M240.72 169.76l.13.05m.81.35l.11.8.35.67.53.41 3.17 1.29.7-.07.73-.39.07-.06.63-.63.51-.82.34-.92.11-.93v-.08l-.12-.86-.34-.68-.54-.4-3.17-1.29-.7.07-.72.38-.24.23" class="D"/><g class="E"><path d="M304.19 87.75v-.01m.29-3.83l-.29.29-.4.64-.26.72-.09.73v.01m3.1 2.4h0l-.46-.19-.33-.41-.18-.58-.02-.34.02-.36.18-.73.33-.69.46-.58.53-.39.54-.17h0l.5.07m-.43 3.97l-.51.27-.5.05-.43-.18-.32-.39-.16-.55-.03-.32.03-.34.16-.69.32-.66.43-.54.5-.37.51-.16.47.06.38.29.24.48.09.61m-3.11-2.49h.01m1.2 2.11l1.4.59-.53 1.4-1.47-.62.5-1.32"/><path d="M308.36 86.07l-.53-.95-1.07.45-.53 1.4.53.95 1.07-.45"/><path d="M306.36 86.85l-.1.04"/></g><g class="D"><path d="M306.54 88.7l-2.35-.95m-.75-1.45l.09.64.26.5.4.3m2.35.96l.53-.05.54-.29.07-.06.47-.47.38-.6.24-.68.09-.69v-.08l-.09-.65-.26-.5-.4-.3-2.36-.96-.52.05-.54.29-.21.2"/><path d="M250.4 184.73l-.37-.18-1.68-.16-1.81.63-1.48 1.16"/></g><path d="M226.77 43.86l.35.9m-.21-.84l.3.76m-.82-3.65l-.01-.03.01-.05m.41-2.2l.04-.19.05-.14m.96-2.25l-.02.03-.04.09m1.6-2.23l1-.86m-.89.91l.93-.8" class="E"/><path d="M227.79 45.98l-1.4-.81-.98-1.53-.44-2.07.15-2.38.74-2.44 1.23-2.22 1.6-1.78 1.79-1.13 1.79-.37 1.59.44.07.04" class="D"/><path d="M200.46 97.07l.21.46.54.41.83.31 1.03.18 1.11.04 1.07-.12.92-.26.67-.37.34-.44m-.31-.92l.02.43-.32.4-.6.34-.84.23-.98.11-1.01-.03-.94-.17-.75-.28-.5-.37-.18-.42.14-.42" class="E"/><path d="M207.18 99.77v-2.49l-.02-.47-.29-.45-.35-.4-.63-.33-.86-.23-.99-.1-1.01.04-.92.18-.73.29-.47.37-.28.43-.17.46.01 2.56" class="D"/><path d="M248.77 185.17l.57.19" class="E"/><path d="M250.22 184.84l-.66.02-1.57.63-1.51 1.15-.74.87" class="D"/><g class="E"><path d="M240.99 170.84l.06.03-.02-.06m-.16-.52l.06.02-.01-.05m.01-1.24l.06.03v-.03m-.14.66l.06.02v-.05m1.4 2.12l-.11.19-.06-.02.12-.2m-.12.2l-.14-.14.06.02-.04-.04-.13-.18.13-.16m.18.52l.21.15-.06-.02.17.08.07-.18m-.91-2.12l-.2.07.05.02v.19.18l-.05-.03.02.25.05.03.06.33-.05-.02.04.15.02.07.05.02.12.29-.05-.03.1.19.15-.2"/><path d="M241.79 171.42l.14-.16m-.41.41l.05.03-.04-.05m.53.17l.11-.15m-.28-.07l-.05-.02m.57.53l.09-.19m-.55.01l-.06-.02m-.41-1.97l.02-.27.05.02.06-.38-.05-.02.04-.19.02-.09.05.03.12-.39.14.04m-.26 2.44l.13-.11m-.18.09l.16-.14m-.28-.42l.2-.12m-.15.15l.16-.1m-.18-.52l.15-.05m-.47 1.4l.06.02-.03-.05m.29-.95l.15-.08m-.07.66l.14-.11m-.19-1.51l.2-.01"/><path d="M242.31 167.86l-.11-.09-.06-.02-.14.25.06.02-.04.08-.13.29-.05-.03-.1.27.05.02m-.18.66l.14-.01m-.01-.67l.19.05m-.26.36h.13m-.25.65l.16-.03m.49-1.89l.21-.34.09.12m-.98-.07l.05.02-.01.02m1.33-.45l-.07-.14-.25.28-.05-.02.1.16"/><path d="M242.52 167.19l-.17.22.06.02m-.27.32l.16.13m-.24.14l.11.07m-.28.3l.13.05m-.91-.07l.06.02v-.01m.76-1.4l.02-.03-.06-.03m.43-.47l.06.03-.03.03m.65 5.79l.04-.11m-.47.01l.07-.17m.31.25l.03-.11m-.16.09l.05-.14"/><path d="M242.57 167.21l.07.11m1.12-1.59l.06.03h-.06m-.97.33l.06.02-.05.03m.26.76l-.06-.16.28-.23-.06-.02.2-.14.05.02.03.19m-.03-.19l.29-.15-.06-.03.21-.08-.01.23"/><path d="M243.42 166.35l.03.23m.46-.47l.05.02.09-.03.19-.05-.05-.02.2-.03-.05.24m-.38-.11l-.01.18m-1.13.62l-.06-.03.19-.18.05.02"/><path d="M242.95 166.72l.08.22m.25-.43l.03.15m-.03-.82l.06.03-.06.02m.48.33v.2m1.08-.18l.06-.19-.06-.03-.1-.02-.08-.01.05.03h-.27l-.05-.02"/><path d="M244.84 166.02l-.06.19m.12-.16l.25.07m-.93-.35l.06.01-.06-.02m1.09.45l-.09.18m.04-.21l-.1.19m-.72-.35l-.04.21m-.16-.18l-.02.2m.49-.23l-.05.19m.49-.08l-.09.2m.39.16l.06-.11m.09.1l-.04.05m.1-.03l-.04.06"/></g><path d="M243.28 172.29v.01H243l-.05-.02-.13-.02v.02l-.24-.08-.69-.29h0l-.11-.06-.05-.02-.21-.16.01-.02-.1-.09-.05-.02-.04-.05-.13-.18.03-.03-.07-.13-.06-.02-.12-.29.04-.03-.04-.16-.06-.03-.06-.33.05-.03-.01-.2-.06-.02v-.18-.18l.06-.03.02-.22-.06-.02.06-.39h.06l.04-.16.02-.09-.06-.02.12-.38.06.01.1-.26-.06-.02.13-.28.04-.09.05.03.13-.24-.04-.04.21-.33.05.02.15-.19-.04-.06.25-.28.05.02.16-.15-.03-.06.28-.22.05.02.15-.11-.01-.05.29-.16.05.02.15-.06v-.05l.09-.03.19-.05.06.03.14-.03v-.03h.27l.06.02.08.01.05.01v-.01l.25.08.05.02.32.16.25.08.06.02v.01l.11.05.05.03.13.08.08.07-.01.02.09.1.06.02.08.1" class="D"/><g class="E"><path d="M226.98 44.9l.75.32.06.01h.05l.09-.01.02-.01.87-.32-1.27-.53m-.13-.25l-.03-.15-.07-.32-.08-.43-.04-.47-.03-.5.01-.49.03-.52.06-.5.08-.55.11-.5.14-.55.16-.5.19-.54.2-.49.24-.52.24-.47.28-.49.28-.44.32-.46.31-.39.24-.29.11-.13m-1.35 10.48l-.42-1.12-.87.31-.06.02h-.02m-.66-5.32l.7.31m4.69 8.1l-.77.14-.74-.01-.34-.07-.36-.07-.31-.14-.33-.16-.28-.2-.3-.22-.25-.27-.25-.29-.21-.33-.14-.23-.06-.11m2.86 1.13l-.05-.02-.37-.24-.69-.46-.81-1.35-.36-1.78.12-2.04.16-.57.43-1.52 1.01-1.93 1.32-1.6 1.51-1.11 1.55-.49 1.43.15 1.04.48.11.08.68.64m-7.21 12.72h.01m4.8-1.67l-.37.24-.78.48-.38.12-.79.23-.36.01-.74-.03-.33-.11-.65-.29-.28-.22-.53-.53-.2-.32-.37-.74-.13-.4-.18-.91-.05-.46.01-1.02.05-.49.19-1.08.13-.49.39-1.07.2-.47.54-1 .27-.42.67-.87.32-.34.76-.69.34-.24.82-.47.35-.14.81-.22.34-.02.77.04.3.1.68.3.24.21.56.54.18.31.4.76.09.38.22.93.04 1.48"/><path d="M230.28 46.1l.49.33.88.31.12.03 1.13.02.11-.03.54-.16m-2.97-12.91l1.27.54-1.02.97-.59-.72-.07-.06-.04-.03-.06-.04-.16-.07"/><path d="M229.94 34.3l.32-.3m1.59.23l-.58-.71-.04-.04-.04-.04-.06-.04-.04-.02-.75-.32m1.15 12.32l.09.1.49.15m-1.03-.71l-.11-.11"/><path d="M231.19 33.44l.12-.09.26-.19.38-.26.36-.21.41-.21.37-.14.41-.14.36-.07.41-.07h.35l.39.01.33.06.37.09.3.13.34.16.27.2.31.22.5.56.19.32.22.35m-2.91-2.17l-.77-.24m2.3 12.87l-1.08 1.03m-.02.03h-.01"/><path d="M236.34 34.86l-.11-.06-.51-.03m2.58.65l-.03-.05.01-.05m-.01.05l-.08-.15"/></g><g class="D"><path d="M235.35 45.68l-1.16.72-.64.2-.57.3-.78.28-.05.02-.77.14-.74-.01-.77-.16-.75-.32-1.22-.72-.92-1.23.57-.54-.1-.26-.03.01-.08-.01-.03-.01-.75-.32-.25-1.87.18-2.07.6-2.1.97-1.98 1.26-1.71.59.24.35-.28.32-.31-.24-.63 1.54-.96 1.56-.43 1.44.16.75.32.65.29.05.03.58.43.5.56.43.7.02.06-.01.01-.07.37.13.12.06.1.22.4.02.01.05.04.02.05.02.1.25.47.32 1.32.04 1.5v.06l-.25 1.55-.01.04"/><path d="M230.63 44.41l.05.14.25.26m-.56-1.09l-.21-.56-.01-.18m-.05-1.63l-.02.11v.11m.21-1.22l.15-.73.08-.18m.38-.88l.31-.7.11-.16m1.11-1.46l-.13.12-.44.6m1.87-1.74l-.14.06-.51.43m1.33-.76l.54-.21h.13m1.4 9.86l-1.12 1.08m1.12-1.08l.47-.64m.39-.53l.08-.1.04-.09"/></g><g class="E"><path d="M308.08 229.06l.02-.48.19-.74.35-.68.44-.52m1.79 4.71l-.39-.33-.24-.53-.07-.66.12-.73.02-.07.25-.65.42-.62.51-.47.54-.26.52-.02m-.06 3.87l-.51.35-.51.13-.46-.09-.36-.31-.23-.5-.06-.63.1-.68.27-.68.39-.59.48-.45.51-.24.49-.02.42.21.3.4.15.57m-2.45 1.03l.24-.21 1.47.62-1 .88-.81-.53.19-1.42 1-.88.81.54-.96-.41"/><path d="M311.26 229.17l.09-.66m1.38 1.28l.19-1.41"/></g><path d="M309.08 226.64l.03-.03.53-.37.54-.14.49.1 1.88.81.44.22.32.43.16.6v.09l-.02.67-.19.69-.15.34-.18.31-.44.52-.06.06-.54.37-.54.14-.48-.1-1.88-.81-.44-.22-.32-.44-.16-.6.01-.22" class="D"/><g class="E"><path d="M281.18 198.61l-1.41 1.44-1.26 1.69-.83 1.48m5.63-6.05l.41 4.93m29.82-16.52l.65 7.91m-.27-3.23l4.6-2.54-.07-.57"/><path d="M313.79 188.69l.07-.01h.65l.07.01.24-.06.5-.24.32-.28.01-.01.14-.32-.09-.31-.29-.27-.46-.2-.59-.1h-.64l-.07.01m.15 1.91l.41-.03.37-.1m4.3.83l-.15-1.12-.21-.68"/></g><g class="D"><path d="M283.31 197.17l-.6.3-1.51 1.12-1.45 1.47-1.25 1.69-.83 1.47m5.64-6.05l-2.36-28.74m32.59 17.15l-3.48-42.26m3.48 42.26l1.09-.04 3.82 1.61.31.86.11.9.01.61-.15.96-.43.7-4.11 2.31.78 9.45-.02.14-.31 1.26-.37.67"/><path d="M198.74 188.35v3.53l1.84 3.13 1.98.83"/></g><path d="M231.43 223.53l-.07-.03m.07.5l-.44-.19m14.59 29.74l-.41.35-.76.17-.85-.18-7.35-3.11-.85-.53-.77-.83-.61-1.04-.39-1.15-.14-1.14.14-1.04.39-.82.61-.52.77-.18.38.09" class="E"/><g class="D"><path d="M245.58 270.04l-21.49-9.08-1.84-3.13v-34.51"/><path d="M245.58 248.87l-.41-.69-.76-.82-.85-.54-7.35-3.1-.47-.1-.31.66-.14 1.03.14 1.15.39 1.15.61 1.04.76.82.86.54 7.34 3.1.19.04"/></g><g class="E"><path d="M172.2 245.64v-5.89l-1.48.15-13.44.49-1.18.11-1.1.21-.94.32-.5.21-1.32.4-1.54.21-1.63.01-1.54-.22-1.32-.4-23.22-9.82-.53-.26-11.84-6.88-.69-.54-.29-.61"/><path d="M132.61 233.62l-.56-.4-.23-.46.13-.47.49-.42.79-.33 1-.21 1.1-.06 1.09.1.95.24.72.36.41.44.04.47-.32.45-.64.38-.91.27-1.06.14-1.11-.02-1.04-.17-.85-.31m13.68 5.75l.1.07.85.31 1.03.17 1.11.02 1.07-.14.9-.27.65-.38.32-.45-.05-.47-.4-.44-.72-.36-.96-.24-1.08-.09-1.11.05-1 .21-.78.33-.49.42-.14.47.23.46.47.33m3.59 8.37v-5.89m5.67-1.25v5.89m16.65-6.74l1.32-.33.56-.19m19.21-6.51l-.6.2"/></g><path d="M187.93 240.42l-14.41 4.89-1.32.33-1.48.14-13.44.5-1.18.1-1.1.22-.94.31-.5.21-1.32.41-1.54.21h-1.63l-1.54-.21-1.32-.41-23.22-9.81-.53-.26-11.84-6.88-.69-.55-.29-.61v-5.88l.11-.62.52-.58.49-.28m38.18-11.53l-2.63 1.12m54.7 24.75l-1.03.35" class="D"/><g class="E"><path d="M97.3 159.27l.17-.07"/><path d="M98.14 158.33l-.51.73-.21.18-.25.06-.29-.06-.44-.19m18.29 18.83l-.81-.43-.55-.62-15.42-6.54m.66.78l.04.02m-.01-13.46l32.33 13.66.54-.23"/><path d="M103.23 164.01l.12.18.28.24.3.13h.29l.24-.14.16-.26.08-.34-.03-.4-.12-.4-.2-.37-.27-.3-.3-.19-.3-.06-.26.07-.21.2-.12.3-.02.38.07.4.17.4.12.16m10.14 12.82l-.01-.01-.21-.69.11-.9.24-.28.47-.24h.55l.57.24.55.46.46.63.25.5.31 1.01.37.83 15.44 6.5-.11-.16-.12-.59.2-.79.32-.14.22-.17.14-.28.05-.36v-7.81l-.44-.19-.29-.18-.26-.28-.2-.36-1.01-2.28m-16.05 3.59l.05.13.14.15.26.17.3.13m1.36 2.92l.37.52.16.11m-.57-.25l.1-.29"/><path d="M125.67 173.75l-.28-.25-.24-.34-.17-.39-.07-.41.02-.37.12-.31.21-.2.27-.07.29.06.3.19.27.3.2.37.12.41.03.39-.08.35-.16.25-.24.14-.29.01-.15-.05-.15-.08m6.8 11.13l.33.47.71.47.17.07m-1.24-2.55l.91-.39m1.54-.84l-1.84.78m-.74-8.82l1.84-.78m.31 11.58l-.44 1.15m.44-2.64l-.19-.1-.17-.14-.08-.12-.03-.13.06-.15.24-.18m-1.12-7.98l1.84-.78"/></g><path d="M134.48 186.16l-.46-.14-.34-.13-15.86-6.71-.26-.17-.29-.13-.57-.25-.7-.28-1.27-.47-16.19-6.84-.37-.37-.31-.53-.35-.8-.34-.9-.33-.42-.21-.36-.15-.39-.04-.4v-7.82l1.7-.72.5-.7.83-.35m33.85 14.39l.49 1.13.21.35.26.28.29.19.44.18v7.81l-.05.36-.14.28-.22.17-.31.14" class="D"/><g class="E"><path d="M178.03 235.5l.02.03.05.04 29.83 12.6"/><path d="M187.65 237.97l-.02-.01-.23-.13-.11-.16.02-.16.14-.15.25-.12.33-.09.38-.03.38.02.34.07.28.12.16.14.05.16-.08.16-.19.14-.1.04m15.34.87l-16.2-6.85"/><path d="M192.12 233.03v-.01m10.22 11.16l-.02-.01-.22-.13-.11-.16.01-.16.14-.15.25-.12.33-.09.38-.03.38.02.35.07.27.11.17.15.05.16-.08.16-.2.14-.1.04m4.25 4.75v-.03"/></g><g class="D"><path d="M208.2 248.93l-.05.01-.09-.01-.07-.03-29.89-12.63-.05-.03-.02-.03v-.71-.04l.04-.03.05-.03 10.06-3.34.21-.07.19.01 3.37.96.24.09 12.05 5.09"/><path d="M187.65 237.97l.05-.03.33-.08.38-.04.38.02.34.08.12.05-.2.07-.36.06h-.38l-.37-.04-.29-.09m14.69 6.21l.05-.03.33-.08.38-.04.38.02.35.08.11.05-.19.07-.36.06H203l-.37-.04-.29-.09"/></g><path d="M134.46 182.54l-.07-.03m.07.5l-.45-.18m14.51 29.24l-.08.16-.61.53-.77.17-.85-.18-7.35-3.11-.85-.53-.77-.83-.61-1.04-.39-1.15-.13-1.14.13-1.04.39-.82.61-.52.77-.18.39.09" class="E"/><g class="D"><path d="M157.78 232.94l-31.04-13.12-1.84-3.13v-34.51"/><path d="M138.71 206.87l-.24-.4-.39-1.15-.13-1.15.13-1.03.32-.66.46.1 7.35 3.1.85.54.77.82.61 1.04.39 1.15.14 1.15-.14 1.03-.31.66-.47-.1-7.35-3.1-.85-.54-.77-.82-.37-.64"/></g><g class="E"><path d="M205.36 265.65l.51.65.95.55 23.22 9.82.62.22 16.29 5.01 1.29.29 1.43.12 1.46-.05 1.37-.22 1.17-.37 19.29-8.15.21-.11.13-.14v5.89m-63.36-13.18l-.04-.47.32-.45.64-.38.91-.27 1.06-.14 1.11.02 1.04.17.85.31.57.4.22.46-.13.47-.49.42-.08.03-.71.3-1 .21-1.1.06-1.09-.1-.95-.24-.72-.36-.41-.44"/><path d="M223.93 272.04l.19.2.72.36.96.24 1.09.1 1.1-.06 1-.21.78-.33.49-.42.14-.47-.23-.46-.57-.4-.85-.3-1.03-.18-1.11-.01-1.07.13-.9.27-.65.39-.32.45.05.46.21.24m26.47 16.13v-5.88m21.54-11.44v-1.14l-.18.57.18.57 1.36 2.14.04.14-.04.14m-1.36-3.56l.52-.53.83-.45 1.78-.76 5.98-2.52 1.07-.35 1.26-.22v5.88m-10.04 3.83v-1.46m10.04-8.25l1.34-.08 1.35.08 5.07.57.33.02.34-.02v5.89m0-5.89l.31-.05.27-.09 17.74-7.5.85-.47v5.89m0-5.89l.52-.55 7.56-12.79.13-.75"/></g><path d="M316.94 241.59l.76.32 1.02.62.47.72v5.88l-.13.75-7.56 12.8-.52.55-.85.47-17.74 7.5-.27.08-.31.06-.34.02-.33-.02-5.07-.58-1.35-.07-1.34.07-1.26.22-1.07.35-7.71 3.26v4.43l-.04.14-.13.13-.21.12-19.29 8.15-1.17.37-1.37.22-1.46.05-1.43-.13-1.29-.29-16.29-5-.62-.23-23.22-9.81-.95-.56-.51-.65v-6.57l.51-.65.95-.56.5-.21.75-.4.51-.46.24-.5 1.17-5.68.35-.63.77-.56 2.3-1.2" class="D"/><g class="E"><path d="M267.6 62.05l.01.05"/><path d="M267.6 62.41l.07-2.79.62-2.91 1.13-2.83 1.57-2.56 1.9-2.12m-2.26 19.09l-.02-.01m14.61 7.69l-1.09-.31-1.25-.77-.61-.96m.06-.7l3.2 1.36"/></g><path d="M300.24 55.55l-19.19-8.11-1.84-.67-2.07.08-2.15.83-2.1 1.52-.24.23-1.81 2.02-1.5 2.45-1.09 2.71-.59 2.78-.06 2.66v.36l.5 2.48 1.02 2.01 1.49 1.38 11.72 4.95-.06.7.91 11.1" class="D"/><g class="E"><path d="M193.41 200.04l.44.18.29.07.26-.07.21-.18.51-.72m16.58 19.54l-.8-.42-.56-.63-15.41-6.53"/><path d="M194.27 200.26l.18-.08m1.14 11.88l.04.01m33.14-.14l-.83.35-32.32-13.66m4.95 6.77l.04.03.3.13.29-.01.24-.14.01-.01.15-.24.08-.35-.03-.39-.12-.41-.21-.37-.26-.3-.3-.19-.3-.06-.26.07-.21.2-.12.31-.02.37.07.41.17.39.23.34.25.22m9.77 12.42l-.01-.01-.21-.69.11-.89.25-.29.47-.24.54.01.58.24.55.46.03.04-.31-.13-.26-.17-.13-.15-.05-.12m16.04-3.59l1.01 2.28.21.35.26.28.29.19.44.18v7.82l-.05.35-.14.28-.22.17-.33.14-.19.79.12.6.11.16-15.44-6.51-.38-.83-.3-1-.25-.5-.43-.59m1.31 3.3l.11-.28m-.06-.1l.37.53.16.1"/><path d="M222.95 214.86l-.15-.05-.15-.08-.29-.24-.23-.34-.17-.4-.07-.4.02-.38.12-.3.21-.2.26-.07.3.06.3.19.26.29.21.38.12.4.03.4-.08.34-.16.26-.24.13-.29.01m6.5 11.01l.33.46.71.47.17.08m-.63-3.01l1.84-.77m-1.54.84l-.92.38m-.12-9.27l1.84-.77m-.98 1.28l1.83-.77m-.55 11.07L231 227m.27-3.46l-.25.18-.05.15.03.13.08.12.17.14.18.11"/></g><path d="M231.47 227.15L231 227l-.34-.12-15.86-6.71-.26-.18-.29-.13-.57-.24-.71-.28-1.27-.48-16.18-6.84-.37-.36-.32-.54-.35-.8-.33-.9-.33-.42-.22-.35-.14-.4-.05-.4v-7.81l1.71-.72.5-.7.83-.36m33.78 14.25l.56 1.27.21.36.26.28.28.18.44.19v7.81l-.04.36-.15.28-.21.17-.31.13" class="D"/><path d="M301.23 71.91v-.01m4.32 4.61l.05-.04.04-.07.01-.09-.01-.09-.04-.1-.05-.09-.04-.04m.93-11.39l.06-.01m3.14 4.51v-.04m.64.08l-.01-1.04m-.84-2.81l-.01-.01" class="E"/><g class="D"><path d="M301.3 71.42l-.07.48.05 1.31.03.09m1.33 3.19l.4.14m.72.17l.74-.02m.29-.06l-.04.04m1.73-.78l-.93.53-.06.02-.01-.01"/><path d="M305.51 75.79l.58-.33m-.94-10.37l.29-.18 1-.31h.06m2.7.43l-.53-.51m-1.02-.48l.28.11m2.35 4.99l-.08.47m-.57-1.28l.01.73-.08.5"/><path d="M310.28 69.15l-.01-1.05m-.7-2.55l-.14-.26"/></g><g class="E"><path d="M307.48 232.03l-.56-.46m.85-1.49l-.17-.04-.27-.23-.12-.25m-.29-2.96l.56-.94.87-.9 10.98-8.81 1.81-1.11 1.81-.44 1.67.27m-6.89 10.79l.32-.14h.03.03l.02.02.08.2m1.84.36l1.11.46-.76.17-.71-.13-.03.01-.02.01-.03.03-.03.07m.82.77l-.02-.01-.03-.01.05.02.02.03v.22m-.9-1.18l.13.05m.7.86l-.43-.07m1.97.09v.93m-.73-1.86l.75-.46.71-.74.03-.02h.05"/><path d="M322.66 225.14l-1.1-.46m.61-1.04l1.1.47m-.83-5.16l-.41-.18"/><path d="M323.27 220.25l-1.1-.47m.71-.76l-.85-.14"/><path d="M322.86 219.35l-.14.31-.02.03-.02.03-.03.02h-.03l-.4-.07m.4 1.85l1.1.47-.11 1.01-.34 1.06v.03.04l.01.02.02.02.3.15m.12-2.33l-.11-.92-.34-.77v-.03-.04l.01-.04.02-.03.3-.41.03-.02.03-.02.02-.01.03.01"/><path d="M322.86 219.36l.81.35m.2.34l.31.75.02.02h.03.03l.18-.08m1.23 1.36l-1.22.52"/></g><g class="D"><path d="M306.92 231.8l.56.23.87.17 10.98-.46 1.81-.42 1.81-1.1 1.67-1.68 1.39-2.12.99-2.39.52-2.47v-1.4-.95l-.52-2.04-.99-1.55-1.39-.95-1.1-.47-1.67-.27-1.81.44-1.82 1.11-10.97 8.81-.33.35"/><path d="M307.77 227.37l-.17.19-.27.45-.17.5-.05.5.05.45.05.1.28-.11m.42-2.22l-.03.03m10.75-2.74l.07.55.34.77v.05m2.85 1.4v-.55l.01-.04.01-.04.02-.04.99-.99.02-.04.01-.04.01-.04-.01-.03-.01-.03-.22-.29-.02-.02-1.1-.46-.03-.01-.02.01-.03.02-.71.73-.76.47-.65.15m2.63-6.42l.19.04-.04.06-.01.03-.01.04.01.03.34.77.11.92-.11 1.01-.34 1.06-.01.04.01.03.01.03.02.01.3.16 1.1.46.03.01.03-.01.02-.02.03-.03.02-.03.45-1.45.02-.04.03-.03.03-.02.19-.08m-2.56-4.08v-.55"/><path d="M323.87 220.05l-.14-.32-.02-.02-.85-.36.08-.17.01-.03.01-.04-.01-.04-.01-.02"/></g><g class="E"><path d="M302.77 89.25l-.67-.61-.41-.95-3.2-12.73-.26-2.22.27-2.44.77-2.45 1.2-2.28 1.55-1.92 1.76-1.39 1.83-.76 1.76-.07 1.54.64"/><path d="M301.71 72.5l-.08-.2-.02-.02-.02-.01-.03.01-.31.13m1.89.98l-.11-.05m.52-.46l1.1.47-.75.16-.71-.14-.03.01-.03.02-.02.02-.03.06m1.68 14.5l-.18.11-.37.08-.33-.08-.26-.23-.09-.19"/><path d="M303.89 74.27l-.05-.02.03.01.02.01.02.03v.22m-.07-.27l-.41-.07m1.95.11l-.01.9m.83-3.05l-.03-.01-.03.01-.02.01-.72.74-.75.46"/><path d="M305.06 71.67l1.1.47m.61-1.03l-1.11-.47m1.12-3.4l-1.1-.47m.06-.12l.4.08.03-.01.03-.02.02-.03.02-.03.14-.3m-.42-.41l-.4-.17"/><path d="M306.44 66.01l-.88-.15m.57 2.66l1.1.46-.12 1.02-.34 1.05-.01.04.01.03.01.03.02.02.3.15m.13-2.34l-.11-.92-.34-.77v-.03l.01-.04.01-.04.02-.03.3-.4.02-.03.03-.02.03-.01.03.01"/><path d="M307.19 66.7l-.82-.35m1.58 1.39l-.18.08h-.03-.03l-.02-.02-.31-.75m1.79 2.07l-1.22.51"/></g><g class="D"><path d="M305.79 88.4l-.26.28-.95.59-.96.2-.85-.22-1.1-.47-.67-.61-.42-.94-3.19-12.74-.26-2.22.27-2.43.77-2.46 1.2-2.28 1.55-1.91 1.76-1.4 1.83-.76 1.76-.06 1.53.63 1.11.47 1.19 1.28.74 1.83.25 2.22-.28 2.44-3.08 14.33"/><path d="M302.14 71.47l.06.57.34.77v.04m2.84 1.44v-.56-.04l.02-.04.02-.04.99-.99.02-.03.01-.04.01-.04-.01-.03-.01-.03-.21-.29-.02-.02-1.11-.47h-.02-.03l-.03.02-.71.73-.75.46-.63.14m2.63-6.41l.19.04-.04.06-.02.04v.04.03l.34.78.11.92-.12 1.01-.34 1.06-.01.03.01.04.01.02.02.02.3.16 1.1.46.02.01.03-.01.03-.02.03-.03.02-.03.45-1.45.02-.04.03-.03.03-.02.19-.07m-2.53-4.14v-.57m1.96 2.13l-.13-.33-.02-.02-.85-.36.08-.17.01-.04.01-.04-.01-.03-.01-.03-.02-.02-.96-.4"/></g><path d="M236.96 35.09l-1.24-.18-1.35.42-1.32.97-1.15 1.43-.84 1.73-.45 1.83-.06.9.05.85.44 1.47.83 1.03 1.13.48m2.96-1.09l-1.24.65-1.2.11-1.03-.44-.76-.94-.4-1.34-.04-.78.05-.81.41-1.68.77-1.57 1.04-1.3 1.2-.89 1.24-.38 1.13.17.91.7.58 1.15.2 1.49" class="E"/><path d="M233 46.02l-.49-.21m.49.21l1.32-.12 1.36-.7.28-.27 1.13-1.11.92-1.45.6-1.65.21-1.65v-.31l-.22-1.63-.64-1.27-1-.77-.49-.21" class="D"/><g class="E"><path d="M307.72 63.08l-1.71.06-1.78.83-1.67 1.52-1.37 2.04-.92 2.35-.38 2.39.21 2.19.77 1.73 1.26 1.1m8.56-9.78l-.47-1.89-.98-1.36-1.37-.69-1.62.05-1.69.79-1.58 1.44-1.3 1.94-.88 2.23-.36 2.27.2 2.07.74 1.65 1.18 1.04 1.52.33 1.68-.43 1.66-1.13m-4.73.69l-.04-.01-.99-.87-.13-.3"/><path d="M304.9 76.72l-.72.18-1.41-.3-.12-.1m3.85-.51l-.75.52-.5.12m.18-12.19h0m2.29-.38l-.06-.02-1.45.04-.21.1"/><path d="M307.66 64.04l.06-.01 1.27.65.91 1.27.02.09m.41 2.04l-.06 1.55"/></g><g class="D"><path d="M309.25 73.39l-.37.71-1.46 1.72-.18.17-1.75 1.19-1.77.45-1.59-.34-.65-.27-1.25-1.1-.77-1.74-.03-.3-.18-1.88.38-2.39.92-2.35 1.37-2.04 1.67-1.52 1.78-.84 1.71-.05.64.27 1.44.73 1.03 1.44.5 1.98v.28l-.08 2.2-.63 2.28-.61 1.16"/><path d="M305.43 64.44l-.8.38-1.47 1.34-1.22 1.81-.81 2.08-.34 2.11.19 1.94.55 1.23M306 64.18l-.57.26m3.74 4.74l.03-.91"/></g><path d="M317.71 225.3v.04l-.03.04-.06.04-.08.02-.1.02h-.1l-.03-.01m5.04-7.69h.01" class="E"/><g class="D"><path d="M317.82 226.35l-.11-1.05-.03-.04-.06-.04-.08-.02-.1-.01h-.1m.32-.78h-.05-.1l-.1-.01m2 5.24l.48.11m1.4-.01l-.68.09m1.24-.25l.89-.4.25-.19"/><path d="M322.61 228.47l-.2.15-.38.17m-.41-10.66l.73-.37.44-.07m.18-.03h-.04m.81-.65l.24.04m.78.27l.46.28m1.58 3.64v.04l-.09 1.32m-.56-1.27l-.08 1.23"/><path d="M326.78 221.09l.02.11m-.61-2.45l-.03-.07-.03-.06-.43-.54"/></g><g class="E"><path d="M194.5 31.16l.01.05"/><path d="M194.5 31.52l.07-2.79.62-2.91.87-2.18.26-.66 1.57-2.56 1.9-2.11m12.33 26.76l-1.09-.31-1.25-.76-.61-.96m.05-.7l3.21 1.35"/></g><path d="M210.08 54.13l-.91-11.09.05-.7-11.72-4.95-1.48-1.39-1.02-2-.5-2.48v-.36l.06-2.67.59-2.78 1.09-2.7 1.5-2.45 1.81-2.02.24-.23 2.1-1.53 2.15-.83 2.07-.08 1.84.68 19.19 8.11" class="D"/><g class="E"><path d="M304.06 70.32l-.03-.16.01-.18.06-.18.09-.16.12-.13.13-.09.14-.02.11.04.09.09.06.13.01.17-.04.19-.08.17-.1.15-.13.11-.14.05h-.12l-.11-.07-.07-.11m-.88-.14h0l.14.05-.1-.17h0v-.01m.32.13v-.14m-.03.41l-.05-.04-.06-.05-.04-.06-.04-.07m.74.36h0"/><path d="M303.18 70.18h0m.54-1.28h.02l.11.05-.04.01-.14.04"/><path d="M303.74 68.9l-.01-.01m.72.17l-.1-.02m.26.17l.15.27m-.54-.51l-.09-.03-.22.01h-.06"/></g><g class="D"><path d="M303.05 70.67l.46-.22m.55.14l-.18.02-.04-.01-.18-.07-.06-.02-.07-.04-.02-.02m.55.14l.29-.08.14-.05v-.01l.13-.11.03-.03.08-.12.08-.18.04-.18-.01-.17v-.01l-.06-.14-.17-.3m0 0l-.02-.04-.06-.04-.07-.07-.07-.04-.16-.05h-.01"/><path d="M304.22 68.97v-.03-.06l-.02-.04-.24-.38"/></g><g class="E"><path d="M301.69 74.42l-.27-.95-.26-.1.44 1.52.83 1.11.25.11-.83-1.13-.16-.56m-.53-1.05l.28-.12-.16-.07m.14.29h.74l.75-.31.34 1.01.58.77.79.43.9.07v.14m-4.14-3.22l1.53.65v.15m.44-5.01l1.06-1.43 1.15-.98-.37-.63-1.32 1.11-1.15 1.55-.84 1.83-.45 1.87h.74l.4-1.64.78-1.68-.63-.38-.26-.11-.83 1.8-.46 1.9.26.11m1.25 4.64l1.15.6m1.68-.31l-1.15-.03-1.05-.55-.76-1.03-.39-1.32"/><path d="M302.43 76l.58.31m-.1-3.3l.31.91.56.72.05.3m1.73-9.2l-.01.96-.9.82-.79 1.08-.59 1.26-.35 1.3-.75.31m.29-3.81l1.14-1.53 1.34-1.13.25.11m-1.41 9.53l.74.41.81.07-1.75-.74m-.11-1.48l.73-.63.86-1.21.6-1.42.28-1.46-.06-.9"/><path d="M305.11 67.1l-.47.43m1.47 7.94l-.14-.06v.12m-.45-.09l-.19-.32m5.13-5.09l-.75.31-.34 1.29-.6 1.26-.79 1.09-.9.81-.19-.32-1.51-.64m.17-7.13l-.46.43m.39-1.52l1.45.61.19-.16.89.06.79.43.58.77.34 1.01m-3.02 7.75l.37-.33 1.15-.98"/><path d="M307.07 75.75l.01-.96m-.19-.32l.82-.74.75-1.03.31.19m-1.09-8.52l-1.18-.02.25.11.37.63 1.15.03 1.05.55-.11-.6"/><path d="M307.12 66.06v-.97m-.19 1.13l.81.07.74.41.32-.14m-2.05-2.1l1.32.02m-1.57-.13v.36l-.17-.07m1.69 10.33l.02-.02m.42-2.25l.56-1.19.32-1.17h.37"/><path d="M309.34 70.34l-1.54-.65m.68-2.99l.56.72.31.91m-1.61-2.04h0m1.85 3.29l-.14-.06.12-.05m.9-1.45l-.39-1.31-.76-1.04"/></g><g class="D"><path d="M305.52 75.58l-.01.82-.37.33-1.31-.02-.27-.11-.55-.29m6.78-6.65l.14.06.28-.11.26.11-.01.31-.4 1.63-.77 1.68-1.07 1.43-.2.2-1.32 1.11-.25-.11v-.36l-.15-.06m1.31-7.95l1.74.73h.37l.75-.31.01-.31-.44-1.51-.83-1.13-1.14-.59-.24-.11h-.15"/><path d="M309.11 69.14l.06.03"/></g><g class="E"><path d="M318.94 229.04l-.83-1.1-.45-1.52.26.11.44 1.5.83 1.12-.25-.11.71.37m-1.73-2.88l.74-.01.39 1.31.77 1.03 1.06.54 1.15.02m-4.37-3l.28-.12-.13-.06m.85.28l.75-.31v-.16l-1.54-.65m1.07-4.68l-.83 1.8-.45 1.9.26.11.74-.01.75-.31.34-1.3.59-1.26.79-1.09.9-.82v-.96l-1.15.99-1.06 1.43-.63-.38-.25-.1 1.13-1.55 1.33-1.13.26.1-1.32 1.13-1.15 1.55-.83 1.83-.44 1.88m1.27 4.62l1.15.59"/><path d="M319.41 226.21l.34 1 .59.77.79.42.9.06v.12m-1.69-.6l-.05-.3-.56-.72-.32-.91m-.75-1.53l.39-1.64.77-1.68"/><path d="M320.29 227.68l.74.4.81.06.19.32m-.19-.32l-1.78-.75m2.31-7.1l.07.53-.18 1.45-.52 1.45-.8 1.28-.91.9m5.24 0l-.31-.2-.74 1.03-.81.75-1.52-.64m-.35-6.66l-.42.39m.19-.17l.72-.66m1.19-2.26l-.25-.1 1.33.01.24.1-1.32-.01.37.64v.96l-.18.16-1.47-.62m.09.16l-.37-.64m1.75 9.34l.18.32v.96l-.37.32"/><path d="M323.59 228.76l1.15-.99m-1.15.03l.9-.82.79-1.09.59-1.26.34-1.3h-.37l-1.54-.65m-1.66 5.8l-.15-.07v.15m.31-.01h0m.79-9.47l.9.06.79.42.59.76.34 1.01m-2.8-2.09l.81.06.74.41.31-.15m-2.3-2.18v.35l-.14-.05m.76.44l1.15.02 1.06.54.77 1.03.39 1.3m-2.42 6.95l.01-.02"/><path d="M324.96 225.7l.56-1.19.32-1.18m0-2l-.32-.9-.56-.72m-.74-.41h-.01m.33-1.81l.03.02m1.64 5.82l.75-.31m-.84-.44l-.17-.07.13-.05"/><path d="M326.25 222.64h0m-.45-3.96l-.11-.6"/></g><g class="D"><path d="M322.03 228.58v.84l-.37.32h-1.32l-.27-.12-.42-.21m3.15-.86l.17.07v.36l.25.1 1.32-1.12.2-.19 1.06-1.43.77-1.69.39-1.63.01-.32-.26-.11-.28.12-.18-.07m-2.15-2.04l1.74.73h.37l.75-.32.01-.31-.44-1.5-.84-1.12-1.12-.57"/><path d="M325.61 222.13l.05.02"/></g><g class="E"><path d="M325.31 216.57l-1.54-.53-1.74.27-1.77 1.02-1.6 1.68-1.27 2.15-.78 2.39-.23 2.36.37 2.08.6 1.04.31.54 1.36.91m8.16-8.35l-.07-2.14-.61-1.77-1.1-1.19-1.45-.5-1.66.25-1.68.98-1.52 1.59-1.2 2.04-.74 2.26-.21 2.24.34 1.98.87 1.5 1.29.86 1.57.13 1.69-.63 1.63-1.3m-6.13.17l.21.37 1.21.8 1.47.12.39-.15"/><path d="M323.04 229.01l-.38.3-.87.32m3.11-12.22l-.05-.06-1.03-.35-1.54.23-.09.06m4.12 1.62l-.11-.33-1.02-1.12-.33-.11m1.95 3.9l.03.97-.08.39m.05-1.38l-.01-.15"/></g><g class="D"><path d="M316.11 227.72l.91 1.58 1.36.91.64.27 1.66.13 1.78-.66 1.71-1.37.16-.15 1.38-1.84.98-2.18.49-2.28-.01-.19-.07-2.26-.64-1.85-1.15-1.26-.65-.28-1.53-.52-1.74.27-1.77 1.02-1.61 1.68-1.26 2.15-.79 2.39-.22 2.36.37 2.08"/><path d="M318.2 228.6l-.59-1.03-.33-1.84.2-2.09.7-2.11 1.11-1.9 1.42-1.49 1.48-.85m3.51 3.99l.02.6-.06.29"/></g><g class="E"><path d="M320.89 223.52l.14-.07.12-.12.1-.16.07-.18.02-.18-.02-.16-.06-.13-.1-.08-.12-.02-.12.04h-.02l-.13.1-.11.14-.09.17-.03.14-.01.04v.18l.04.14.08.11.11.05.13-.01m-1.18-.46l.02.06.05.1.01.02-.07-.03-.05-.01"/><path d="M319.71 223.21h-.04m.97.38l-.05.01m-.59-.14l-.09-.09-.12-.13m.37-1.21l.09-.03.09-.03.2-.02.06.01m-.07.18l.1-.05"/><path d="M320.22 221.91l.12.06"/><path d="M320.23 221.92l-.01-.01m.88.33l.11.18"/></g><path d="M320.59 223.6l-.17.03h-.05l-.14-.05-.19-.08-.04-.04m.6-1.5l.12.03.16.05.17.11.11.17.05.1.04.08.07.13v.01l.02.16-.02.19-.07.18-.1.16-.13.12-.13.07-.01.01-.24.06m-1.11.15l.11.02.04.01.05-.02.05-.03.04-.04.18-.22m.64.13l-.03.01h-.02m.01-1.64l-.01-.48-.01-.06-.02-.05-.01-.01" class="D"/><g class="E"><path d="M303.11 87.22l.03.05-.06-.02m-.27-1.26l.05.03.01-.05m.05.92l.05.02-.01-.05m-.14-.39l.06.02-.01-.05m.06-.95l-.01.03-.05-.03m.14-.5l.05.02.01-.01m1.03 2.92l.08-.18m.25.26l.04-.14m-.09.12l.04-.14m-.54-.33l-.12.2.05.03.12-.19"/><path d="M303.81 87.74l.17.12.09-.2m-.31.05l-.11-.1.06.02-.03-.03-.1-.14.13-.16m-.16-.32l-.14.12.09.22-.05-.02.08.14.05.02m-.05-.02l.15-.2"/><path d="M303.98 87.86l-.06-.03.13.07.08-.2m-.63-.38l.14-.16m.07.47l.11-.16m.1.36l-.55-.28-.05-.02m.34.2l-.05-.02m.5.21h0"/><path d="M303.37 87.55l-.04-.04m.97.46l.05-.16m-.74-.1h0m.03-2.48l-.14-.03-.09.29-.05-.02-.02.07-.03.14.06.02-.05.3-.06-.03-.01.21.21-.07"/><path d="M303.37 85.7l.14-.01m-.26.49l.05.02v.15.13l-.05-.02.01.19.06.03.05.25-.06-.02.03.12.02.05.05.02m-.05-.02l.17-.15"/><path d="M303.32 86.68l.16-.1m-.22.07l.21-.12m-.17-.33l.15-.05m-.13-.15l.16-.04m-.18.52l.15-.07m-.08.52l.14-.11m-.01-1.62l-.05-.02.2.05m.17-.45l-.11-.07-.03.07-.1.21.13.06m-.39-.74l.05.02-.01.02m.57.26l-.12-.09.17-.26.09.12"/><path d="M303.81 84.52l-.05-.02.16.13m.06-.37l-.06-.02.13-.17.05.02.19-.22.07.15m-1.05 1.66l.2-.01"/><path d="M304.05 84.07l.11.17m-.71.94l.08-.21.05.02m.18-.49l-.11.19.06.02m-.3.78l.14.01m.55-1.41l.08.12m.28-.28l-.08-.22.05.02.06.17m-.06-.17l.21-.17-.05-.03.15-.1.03.23m-.47-.42l.05.02-.04.04m.07.41l-.14.14.05.02m-.33-.29l.03-.04-.05-.02m-.33.36l.05.03-.02.02m1-.37l.04.15m-.03 4.26v-.04m.09-4.5l.06.02.02.18m-.02-.18l.21-.12.01.2m.34-.12l.03-.21-.15.04-.07.02-.01.19m.01-.19l-.06-.02v.24m.58-.11l.06-.19h-.21l-.06-.03-.04.25m.31-.22l-.06-.03.07.01.08.01-.07.2m-.29-.22l-.15.03.06.02m.45-.03l.05.03-.07.2m.07-.2l.19.06m.03.25l.1-.19m-.06-.02l-.09.19"/><path d="M305.54 83.18l-.04.21m-.39-.15l-.15.07.05.02m.03-.33l.06-.01-.06-.02m-.37.08l.06.03-.06.02m1.41.16l-.09.2m-.6-.46l.06.01-.06-.02m1.02.64l.06-.09m-.05-.02l-.06.09m0-.15l-.08.12"/></g><path d="M306.6 83.71l-.13-.17-.05-.02-.06-.06.01-.02-.07-.05-.09-.07-.06-.02-.07-.04h0l-.06-.03-.26-.1-.12-.06-.06-.02-.19-.06V83h-.02l-.06-.01-.06-.02h-.21V83l-.09.01-.06-.02-.15.04-.07.02v.05l-.1.04-.05-.02-.22.12.01.06-.11.07-.05-.02-.21.17.02.06-.11.11-.05-.03-.19.22.03.05-.1.15-.06-.03-.16.26.04.04-.09.18-.06-.03-.03.07-.1.21.06.03-.07.19-.06-.01-.09.29.05.03-.01.06-.03.12h-.06l-.05.3.06.02-.01.16-.06.02-.01.15.01.13.05.03.01.14-.05.03.05.25.05.02.04.12-.04.03.09.22.05.02.05.09-.03.03.1.14.03.03.06.03.06.06-.01.02.16.12.06.02.04.02.03.02m.5.21l-.5-.21m.5.21l.18.06.01-.01.08.01.05.02h.21l.01-.03.06-.01" class="D"/><g class="E"><path d="M307.54 229.63l.06.02-.02-.05m-.13-.4l.05.03v-.06m-.01-.94l.06.03v-.03m-.06.48v.04l-.06-.02m1.3 1.93l.08-.21m.25.29l.04-.16m-.1.14l.04-.16m-.34-.17l-.1.2-.06-.02.13.06.09-.21"/><path d="M308.67 230.63h0m-.13-.06l-.54-.28-.06-.03m.66.33l-.16-.12.1-.16m.38.39l.06-.17m-.89-1.69l-.22.08.06.02-.01.14.01.14.15-.07"/><path d="M307.93 229.22l-.06-.02.02.19.05.02.05.25v.01l-.06-.02.03.11.02.06.06.02.14-.13m-.14.13l.08.22.13-.14m-.27-.1l.19-.17"/><path d="M307.94 229.41l.14-.08m.15 1.12h0m.21.02l-.06-.02.12-.2m-.61-.86l.18-.11m.38.91l-.12.18-.03-.04-.1-.13.14-.17m-.14.17l-.05-.03.15-.19m.03.39l-.05-.02.1.1m-.26-.39l-.05-.03.08.14m-.16-.5l.15-.12m-.41.41l.03.05-.05-.02m.24.25l.05.05m.28.18l-.05-.03m.03-2.48l-.19-.05.06.03.13.03"/><path d="M308.13 227.94l-.09.29.15.01m.27-.71l-.13-.08-.03.06-.1.22.13.05"/><path d="M308.04 228.23l-.06-.02-.02.06-.03.15.06.02.14-.01"/><path d="M307.93 228.42l.21-.02m-.15.04l-.05.3.15-.04m-.22.22l.02-.21.05.03m-.01.2l.16-.05m-.02-.98l.08-.2.05.02m-.57 0l.05.02.01-.01m.85-.37l-.16-.14.06.03.11.09m-.11-.09l.16-.26.09.11m-.31.12l-.1.2.05.02m.78-.84l-.05-.14-.06-.03-.14.15.05.02-.18.22.08.13m.1-.35l.07.15"/><path d="M308.73 226.83l-.06-.02.12.18m.21-.55l.07.21m-.01-.18l.21-.18.03.18m-.63.34l-.13.17.06.02m-.61.09l.01-.02-.06-.02m.29-.43l.05.02-.02.03m.3-.41l.06.02-.04.04m.34-.34l.06.02-.05.03m.34 4.68l.01-.05"/><path d="M309.27 226.29l-.06-.02.15-.11.04.25m-.04-.25l.06.03.02.19m-.02-.19l.22-.12-.06-.03.16-.06-.01.24m.4-.11l.03-.2-.05-.02-.16.02.06.03-.15.04-.07.02-.01.2m.33-.31l-.05.24m.38.02l.07-.22-.05-.02-.08.23m-.74-.07v.17m.34-.09l.03-.21m.15-.03h.21l-.06.21"/><path d="M309.79 226l-.05-.02m.28-.26l.05.03-.06-.01m-.34-.04l.05.03-.06.01m.8.17l-.08-.01-.07-.01.06.02m.14.02l.19.06m-1.4-.2l.05.02-.06.03m1.54.22l-.08.17m.02-.19l-.08.16m.41.08l-.06.08m0-.1l-.05.07m-.29-.33l-.08.18m.36.02l-.06.1"/></g><path d="M311.2 226.42l-.1-.14-.06-.02-.06-.06.01-.02-.06-.06-.1-.06-.06-.02-.07-.04v-.01l-.05-.02-.26-.1-.13-.06-.05-.03-.19-.06-.01.02-.02-.01h-.06l-.06-.03h-.2l-.01.04-.09.01-.06-.02-.14.04-.07.02-.01.05-.1.04-.05-.02-.22.12.01.05-.11.08-.05-.03-.21.18.02.06-.11.1-.05-.02-.19.22.03.05-.1.14-.06-.02-.16.26.05.04-.1.17-.05-.02-.04.06-.09.22.05.02-.07.2-.06-.01-.09.29.06.02-.02.07-.03.12h-.06l-.04.3.05.02-.01.16-.06.02v.14.14l.06.03.01.13-.05.03.03.19.01.07.06.02.03.12-.04.03.09.22.05.02.05.09-.02.03.09.13.04.04.05.02.06.06-.01.02.16.12.06.03.07.03v.01l.5.21.18.06.01-.02.08.02.06.02h.21v-.03l.08-.02" class="D"/><path d="M245.37 187.32h0" class="E"/><g class="D"><path d="M245.6 187.59l-.23-.27"/><path d="M245.35 187.31l.02.01"/></g><path d="M158.24 132.9l.06.47.41.43.73.36.96.24 1.09.09 1.11-.06.99-.2.78-.33.47-.42.13-.46m-.52-.89l.22.42-.11.42-.44.38-.71.3-.9.19-1.01.05-.99-.08-.87-.22-.67-.32-.38-.4-.05-.42" class="E"/><path d="M158.22 135.64l.02-2.74.3-.45.28-.41.58-.35.82-.24.97-.12 1.01.01.95.16.78.27.52.36.28.43.24.46-.02 2.7" class="D"/><g class="E"><path d="M94.05 154.59l.75-2.97m19.97 8.83l-18.44-7.79-.96-.47-.54-.41-.05-.31m26.16 11.59l8.52 3.6m11.29 7.89l.75-2.97-1.23-.39-1.07-.41-3.57-1.51m5.87 2.31l1.31.34 1.3.28 11.15 2.1 1.3.27 1.3.35-.75 2.97"/><path d="M143.97 169.64l.25.12.48.11.21.01.04-.03-.04-.06-.03.09m.03-.09l.13-.04 4.33.19.81.17h.29l-.07-.08-.32-.13m7.78 5.02l1.24.39 1.06.41 27.12 11.45.58.28m-21.45-5.8l18.45 7.79 1.21.49 1.79-1m-2.46 4.49l.75-2.97-.21-.3-.75 2.97.21.3.54.36.83.4 1.19.5"/><path d="M186.15 190.45l.54.36 1.18.54m-1.8-1.42l-.13.22m6.02 6.22l10.7 4.52"/><path d="M202.56 197.56l-8.52-3.61m12.61 8.63l23 9.72 1.31.48 1.51.46 1.58.38 1.48.26 1.25.12 46.08 2.02.22-.01.11-.04.75-2.96-.11.03-.22.01-45.39-1.99-.69-.03-1.25-.13-1.48-.26-1.58-.38-1.51-.45-1.3-.49-21.68-9.16m8.27.36l.29.1.46.08.11-.03-.02-.09.12-.01 4.33.19.81.16h.28v-.03l-.17-.1"/><path d="M217.8 200.69l.02-.08m15.44 12.82l.75-2.98m15.09-8.52l.11.05.06.08h-.28l-.81-.16-4.33-.19-.12.01.02.09-.06.02.02-.09m-.02.09l-.34-.03-.46-.14m41.05 11.35l-.01-.09-.13-.1-.24-.12-3.68-1.55.66.03"/></g><path d="M114.86 163.79l-19.29-8.16-.96-.47-.54-.41-.05-.31.76-2.97.44-.18.88-.03 18.64.82M129.56 170l-10.7-4.53m47.55 16.18l-7-2.96-1.07-.41-1.23-.39-1.31-.34-1.3-.28-11.14-2.1-1.3-.27-1.31-.35-1.23-.39-1.07-.41-4.9-2.07m146.57 32.57l-28.45-12.02" class="D"/><g class="E"><path d="M174.77 240.19l6.66-11.27.35-.38.37-.18.09-.03h-.03l-.06.03.09-.03.46-.03.52.17 9.79 4.13m18.87 22.2l-5.86-16.39-.83-1.51-1.12-1.24-1.23-.79-.33-.14-19.29-8.15-1.1-.29-.99.24m.39-.1l1.86-.62m-1.77.6l1.77-.59-.29.1"/><path d="M182.61 226.07l-.71.24m1.48-.5l.49-.16"/><path d="M183.43 225.8l.45-.15-.5.17.05-.02m21.08 10.35l1.43-.76"/></g><path d="M183.84 225.64l-2.71.89-.75.73-6.72 11.39 1.11 1.54 7.04-2.35m31.56 16.17l-1.49.79-1.41.47-5.86-16.39-.35-.71-.46-.63-.54-.5-.59-.35-9.66-4.09m0 0l-.55.56" class="D"/><g class="E"><path d="M132.77 171.59l-.19-.17-2.94-1.25m2.94 1.25l-.12-.27-.05-.34-.04-12.78m8.93 11.49l3.05.13.05.02.04.03.02.06.01.07"/><path d="M144.45 169.73l-.2-.08"/></g><path d="M141.3 169.52l-5.67-.25-.63 2.48-1.98-.09-.25-.07-2.94-1.24-.19-.18-.12-.26-.05-.34-.03-11.79m34.14 12.72l-13.71-.6h-.06l-.05.04-.06.05" class="D"/><g class="E"><path d="M205.62 69.21l-.8 1.03-.41.34-.51.11-.56-.13-15.98-6.75-.56-.35-.5-.54-.4-.68-1.92-4.11-.2-.34-.25-.27-.28-.17-.46-.2m.87.5l2.75-1.14"/><path d="M186.55 63.19l2.76-1.14m14.84 8.58l.38-.15m2.43-2.89l.1-.03"/></g><path d="M206.22 85.96l-23.51-9.94.08-18.87 2.76-1.14.46.19.27.18.26.26.2.34 1.91 4.12.4.68.51.54.56.34 15.5 6.55 1.14-1.46.2-.16.11-.05" class="D"/><path d="M279.15 205.14l2.93 1.24m-.23 1.01v-.14l.04-.35.11-.36.17-.32.22-.28.26-.2 7.55-4.51.81-.33-2.93-1.24m2.93 1.24l.78-.01 33.15 6.99 2.06.82m-19.57 20.04l-.14-.17-.07-.22" class="E"/><path d="M282.33 207.41l-.48-.02-2.94-1.24V206l.04-.35.11-.35.17-.33.22-.27.26-.2 7.55-4.51.82-.33.77-.01 33.15 6.99 2.06.82 2.94 1.24 1.72 1.51 1.29 2.13.8 2.63.26 3.01-.27 3.24-.81 3.31-1.3 3.21-1.73 2.96-2.07 2.55-9.06 9.5-8.91 3.77" class="D"/><g class="E"><path d="M205.87 202.49l-.19-.18-2.94-1.24"/><path d="M205.68 202.31l-.12-.27-.05-.33-.04-12.79m8.93 11.49l3.05.14.05.01.04.04.02.08"/><path d="M217.35 200.54l.2.09m22.74.92l3.05.13.05.02.04.03.02.08"/><path d="M243.24 201.68l.2.08"/></g><path d="M202.54 188.67l.03 11.8.05.33.12.27.19.17 2.94 1.25.25.06 1.98.09.63-2.48 5.67.25m8.43.45l.03-.03.05-.03.06-.01 17.32.76m8.42.45l.04-.03.05-.04.06-.01 5.26.24.13-.51.05-.33-.01-.31-.08-.26-.13-.2-6.45-6.65-.68-.96-.47-1.22-2.08-8.11" class="D"/><g class="E"><path d="M197.33 218.24l-2.94-1.25m6.92 4.77l-1.86-.95-1.54-1.54-1.16-2.07-.71-2.51-.21-2.53m-.03-13.62v-.55m23.33 63.97v-26.39l-.24-2.83-.72-2.51-1.15-2.07-1.54-1.54-1.86-.95-1.33-.42"/><path d="M214.66 227.95l2.94 1.24"/></g><path d="M223.57 260.09l-4.44 1.87-2.94-1.24v-26.39l-.24-2.84-.71-2.5-1.16-2.07-1.54-1.55-.25-.12-10.98-3.49-2.94-1.24-1.86-.95-1.54-1.54-1.15-2.07-.72-2.51-.24-2.83v-13.87m43.4 46.99l-.25.35-.44.92-.24.64" class="D"/><g class="E"><path d="M235.17 233.98l-2.21-.93"/><path d="M233.64 213.52v14.08l.24 2.84.71 2.5 1.15 2.07 1.54 1.55 1.87.94m2.13.68l.99.32 1.86.94 1.55 1.55 1.15 2.07.71 2.5.24 2.84v32.02l-2.2-.93m.67-37.47l-2.2-.93m4.83 40.28l-1.1-.95m36.1-71.73l-2.21-.94"/><path d="M305.48 209.49l-.97-.28-19.94-.87-.28.05-.28.16-.26.27-.21.34-.14.38-.71 2.79m1.6 42.34l.47-.11.67.07.57.32.44.54 4.5 8.1"/></g><g class="D"><path d="M280.49 211.4l.7-2.79.14-.38.21-.34.26-.27.29-.16.28-.05 19.93.87.98.28 2.2.93.78.71.49 1.07.17 1.35v44.22l-15.98 6.75-2.2-.93-4.45-7.99-.24.07-8.25 3.48-.72.43-.66.63-.57.8-.44.92-4.51 11.91-20.02 8.46-2.2-.93-1.1-.95v-32.02l-.24-2.84-.72-2.5-1.15-2.07-1.54-1.55-.65-.33-2.13-.68-2.21-.93-1.86-.95-1.54-1.54-1.15-2.07-.72-2.51-.24-2.83v-3.2"/><path d="M231.43 212.93v1.6"/></g><g class="E"><path d="M118.08 165.38l-.19-.17-2.94-1.25"/><path d="M117.89 165.21l-.13-.27-.04-.33-.04-13.51m8.93 12.21l.41.02"/></g><path d="M126.61 163.31l-5.67-.25-.63 2.48-1.99-.09-.24-.07-2.94-1.24-.19-.18-.13-.26-.04-.34-.05-14.77m14.73 16.36l-1.98-.84-1.84-3.13v-3.52m132.18 27.91l-.11-1.29-.8-2.63-1.29-2.13-.29-.25" class="D"/><g class="E"><path d="M100.35 177l-2.2-.93m.72-4.89l.19 2.28.72 2.51 1.15 2.07 1.54 1.54 1.86.95m-5.51-22.98v-.54m7.64 24.2l1 .31 1.86.95 1.54 1.54 1.15 2.07.72 2.51.24 2.84v32.02l-2.21-.93"/><path d="M111.44 185.05l-2.21-.93m3.74 39.33l1.1.94"/></g><path d="M96.62 167.65v2.05l.24 2.83.71 2.51 1.15 2.07 1.55 1.54 1.86.95 2.2.93 2.13.68.66.33 1.54 1.54 1.15 2.07.71 2.51.24 2.83v32.03l1.1.94 2.21.93 12.3-5.2m-29.75-63.11v2.9m42.66 43.78l-.25.35-.43.91-.51 1.33" class="D"/><g class="E"><path d="M278.72 100.11l-.8 1.02-.41.34-.51.11-.56-.12-15.98-6.76-.56-.35-.5-.53-.4-.68-1.92-4.12-.2-.34-.25-.27-.28-.17-.46-.19m3.62-.65l-2.75 1.15"/><path d="M259.65 94.09l2.76-1.15m14.84 8.58l.38-.15m2.43-2.89l.1-.02"/></g><path d="M279.33 116.85l-23.52-9.94.08-18.86 2.76-1.15.46.19.27.18.26.27.2.34 1.91 4.11.41.68.5.54.56.35 15.5 6.55 1.14-1.46.2-.17.11-.04" class="D"/><path d="M135.98 192.31l2.94 1.24m3.98 3.53l-1.86-.95-1.54-1.54-1.15-2.07-.71-2.51-.25-2.84v-13.86m23.33 63.97v-26.39l-.24-2.84-.71-2.5-1.15-2.07-1.55-1.55-1.86-.95-1.32-.42m2.36 2.71l2.94 1.24" class="E"/><path d="M168.04 234.19l-7.32 3.09-2.94-1.24v-26.39l-.24-2.84-.71-2.51-1.15-2.07-1.54-1.54-.25-.13-10.99-3.48-2.93-1.24-1.87-.95-1.54-1.54-1.15-2.08-.71-2.5-.24-2.84v-3.45m0-10.41v1.48" class="D"/><g class="E"><path d="M191.18 196.28l-.19-.18-2.94-1.24"/><path d="M190.99 196.1l-.13-.27-.04-.33-.05-14.59m8.94 13.29l.41.02"/></g><path d="M199.71 194.2l-5.67-.25-.63 2.48-1.99-.09-.24-.06-2.94-1.25-.19-.17-.13-.27-.04-.33-.05-14.78" class="D"/><path d="M251.53 184.21l2.93 1.25-.81.33-7.53 4.49m5.13 1.93l1.42.06.74.21.58.53-1.8-.76m1.8.76l.11.24m.36-7.79l.78-.01 27.59 5.81" class="E"/><path d="M245.45 187.69l5.26-3.15.82-.33h.77l30.48 6.42M246.59 192l4.66.21" class="D"/><path d="M183.39 225.53l-.04-.01-.67.07-.57.32-.32.41m11.28-13.29l-5.17-2.19-1.81-1.1-1.66-1.67-1.39-2.12-.98-2.39-.52-2.47v-2.35l.52-2.03.98-1.56 1.39-.95.74-.12" class="E"/><path d="M174.07 237.95l-5.08-2.14-2.21-3.76V181.8m16.34 44.08l.27-.35.67.17 20.54 8.68.72.42.66.63.57.81.44.91 6.63 17.52 2.57 1.08m-29.76-61.74l-.34-.08-.92.15-.66.45-.98 1.56-.52 2.03v2.35l.52 2.46.98 2.39.05.07 1.34 2.05 1.66 1.68 1.81 1.1 3.59 1.52" class="D"/></g><g class="G k"><path d="M-.2-.2h.442v.43H-.2zM0 0h.042v.03H0z" stroke-width=".5" fill="#e6e6e6" class="F"/><path d="M0 .03h.042V0h0v.03H0z" fill-opacity=".118" class="B"/></g><use xlink:href="#B" class="F H O"/><text xml:space="preserve" x="483" y="90.53" font-size="3.56" class="B C W">Pos.</text><text xml:space="preserve" x="494.21" y="90.53" class="B C L W">Arv</text><text xml:space="preserve" x="503.81" y="90.53" font-size="3.62" class="B C W">Nimetus</text><text xml:space="preserve" x="555.59" y="90.53" class="B C W h">Joonise nr.</text><text xml:space="preserve" x="594.28" y="90.53" class="B C J W">Materjal</text><text xml:space="preserve" x="630.63" y="90.53" font-size="3.58" class="B C W">Mt</text><text xml:space="preserve" x="656.04" y="90.53" class="B C J W">Mass</text><g class="F H"><path d="M492.27 86.65v5.05m9.6-5.05v5.05m51.78-5.05v5.05m38.69-5.05v5.05m36.35-5.05v5.05m25.41-5.05v5.05"/><use xlink:href="#C" class="K"/></g><text xml:space="preserve" x="483" y="95.57" class="B C c">1</text><text xml:space="preserve" x="494.21" y="95.57" class="B C c">1</text><text xml:space="preserve" x="503.81" y="95.57" class="B C Q">Emakoda alumine</text><text xml:space="preserve" x="555.59" y="95.57" class="B C Q">FDJ7.01.01.00E</text><text xml:space="preserve" x="594.28" y="95.57" class="B C S">*</text><text xml:space="preserve" x="630.63" y="95.57" class="B C M">-</text><g class="F H"><path d="M492.27 91.7v5.04m9.6-5.04v5.04m51.78-5.04v5.04m38.69-5.04v5.04m36.35-5.04v5.04m25.41-5.04v5.04"/><use xlink:href="#C" y="5.04" class="O"/></g><text xml:space="preserve" x="483" y="100.62" class="B C J">2</text><text xml:space="preserve" x="494.21" y="100.62" class="B C c">1</text><text xml:space="preserve" x="503.81" y="100.62" class="B C Q">Emakoda lemine</text><text xml:space="preserve" x="555.59" y="100.62" class="B C T">FDJ7.01.02.00</text><text xml:space="preserve" x="594.28" y="100.62" class="B C S">*</text><text xml:space="preserve" x="630.63" y="100.62" class="B C M">-</text><g class="F H"><path d="M492.27 96.74v5.04m9.6-5.04v5.04m51.78-5.04v5.04m38.69-5.04v5.04m36.35-5.04v5.04m25.41-5.04v5.04"/><use xlink:href="#B" y="15.13" class="K"/></g><text xml:space="preserve" x="483" y="105.66" class="B C i">3</text><text xml:space="preserve" x="494.21" y="105.66" class="B C c">1</text><text xml:space="preserve" x="503.81" y="105.66" class="B C U">FD-jalg parem</text><text xml:space="preserve" x="555.59" y="105.66" class="B C R">FDJ5V2.01.08.00PD</text><text xml:space="preserve" x="594.28" y="105.66" class="B C M">-</text><text xml:space="preserve" x="630.63" y="105.66" class="B C M">-</text><g class="F H"><path d="M492.27 101.78v5.05m9.6-5.05v5.05m51.78-5.05v5.05m38.69-5.05v5.05m36.35-5.05v5.05m25.41-5.05v5.05"/><use xlink:href="#C" y="15.13" class="O"/></g><text xml:space="preserve" x="483" y="110.71" class="B C L">4</text><text xml:space="preserve" x="494.21" y="110.71" class="B C c">1</text><text xml:space="preserve" x="503.81" y="110.71" class="B C X">FD-jalg</text><text xml:space="preserve" x="555.59" y="110.71" class="B C Q">FDJ5V2.01.08.00D</text><text xml:space="preserve" x="594.28" y="110.71" class="B C M">-</text><text xml:space="preserve" x="630.63" y="110.71" class="B C M">-</text><g class="F H"><path d="M492.27 106.83v5.04m9.6-5.04v5.04m51.78-5.04v5.04m38.69-5.04v5.04m36.35-5.04v5.04m25.41-5.04v5.04"/><use xlink:href="#C" y="20.17" class="K"/></g><text xml:space="preserve" x="483" y="115.75" class="B C e">5</text><text xml:space="preserve" x="494.21" y="115.75" class="B C J">2</text><text xml:space="preserve" x="503.81" y="115.75" class="B C Z">Silinder</text><text xml:space="preserve" x="555.59" y="115.75" class="B C R">sil.90-50-500V</text><text xml:space="preserve" x="594.28" y="115.75" class="B C S">*</text><text xml:space="preserve" x="630.63" y="115.75" class="B C Q">90-50-500</text><g class="F H"><path d="M492.27 111.87v5.04m9.6-5.04v5.04m51.78-5.04v5.04m38.69-5.04v5.04m36.35-5.04v5.04m25.41-5.04v5.04"/><use xlink:href="#B" y="30.26" class="O"/></g><text xml:space="preserve" x="483" y="120.79" class="B C S">6</text><text xml:space="preserve" x="494.21" y="120.79" class="B C J">2</text><text xml:space="preserve" x="503.81" y="120.79" class="B C Z">Silinder</text><text xml:space="preserve" x="555.59" y="120.79" class="B C R">sil.105-50-220</text><text xml:space="preserve" x="594.28" y="120.79" class="B C S">*</text><text xml:space="preserve" x="630.63" y="120.79" class="B C d">105-50-220</text><g class="F H"><path d="M492.27 116.91v5.05m9.6-5.05v5.05m51.78-5.05v5.05m38.69-5.05v5.05m36.35-5.05v5.05m25.41-5.05v5.05"/><path d="M481.06 121.96h185.73V127H481.06z" class="K"/></g><text xml:space="preserve" x="483" y="125.84" font-size="3.48" class="B C">7</text><text xml:space="preserve" x="494.21" y="125.84" class="B C J">2</text><text xml:space="preserve" x="503.81" y="125.84" class="B C T">Lukuklapi kaitse</text><text xml:space="preserve" x="555.59" y="125.84" class="B C Q">FDJ5V2.01.07.01</text><text xml:space="preserve" x="594.28" y="125.84" class="B C Z">S355</text><text xml:space="preserve" x="630.63" y="125.84" class="B C X">Leht 3</text><text xml:space="preserve" x="656.04" y="125.84" class="B C Y">0.7</text><g class="F H"><path d="M492.27 121.96V127m9.6-5.04V127m51.78-5.04V127m38.69-5.04V127m36.35-5.04V127m25.41-5.04V127"/><use xlink:href="#C" y="35.3" class="O"/></g><text xml:space="preserve" x="483" y="130.88" class="B C e">8</text><text xml:space="preserve" x="494.21" y="130.88" class="B C i">3</text><text xml:space="preserve" x="503.81" y="130.88" class="B C Z">Lukuklapp</text><text xml:space="preserve" x="555.59" y="130.88" class="B C N">VBPDE-3_8-A</text><text xml:space="preserve" x="594.28" y="130.88" class="B C S">*</text><text xml:space="preserve" x="630.63" y="130.88" class="B C d">G3/8''</text><text xml:space="preserve" x="656.04" y="130.88" class="B C i">1.0</text><g class="F H"><path d="M492.27 127v5.04m9.6-5.04v5.04m51.78-5.04v5.04m38.69-5.04v5.04m36.35-5.04v5.04M654.1 127v5.04"/><use xlink:href="#B" y="45.39" class="K"/></g><text xml:space="preserve" x="483" y="135.92" class="B C e">9</text><text xml:space="preserve" x="494.21" y="135.92" class="B C V">16</text><text xml:space="preserve" x="503.81" y="135.92" class="B C T">Stutser</text><text xml:space="preserve" x="555.59" y="135.92" class="B C Q">STUTS-3_8</text><text xml:space="preserve" x="594.28" y="135.92" class="B C S">*</text><text xml:space="preserve" x="630.63" y="135.92" class="B C T">3/8-L12</text><g class="F H"><path d="M492.27 132.04v5.05m9.6-5.05v5.05m51.78-5.05v5.05m38.69-5.05v5.05m36.35-5.05v5.05m25.41-5.05v5.05"/><use xlink:href="#C" y="45.39" class="O"/></g><text xml:space="preserve" x="483" y="140.97" class="B C V">10</text><text xml:space="preserve" x="494.21" y="140.97" class="B C J">2</text><text xml:space="preserve" x="503.81" y="140.97" class="B C U">Silindri toru</text><text xml:space="preserve" x="555.59" y="140.97" class="B C Q">FDJ5V2.01.06.01B</text><text xml:space="preserve" x="594.28" y="140.97" class="B C d">E235+N</text><text xml:space="preserve" x="630.63" y="140.97" class="B C h">12x1.5</text><text xml:space="preserve" x="656.04" y="140.97" class="B C Y">0.1</text><g class="F H"><path d="M492.27 137.09v5.04m9.6-5.04v5.04m51.78-5.04v5.04m38.69-5.04v5.04m36.35-5.04v5.04m25.41-5.04v5.04"/><use xlink:href="#C" y="50.43" class="K"/></g><text xml:space="preserve" x="483" y="146.01" class="B C V">11</text><text xml:space="preserve" x="494.21" y="146.01" class="B C J">2</text><text xml:space="preserve" x="503.81" y="146.01" class="B C U">Silindri toru</text><text xml:space="preserve" x="555.59" y="146.01" class="B C Q">FDJ5V2.01.06.02B</text><text xml:space="preserve" x="594.28" y="146.01" class="B C d">E235+N</text><text xml:space="preserve" x="630.63" y="146.01" class="B C h">12x1.5</text><text xml:space="preserve" x="656.04" y="146.01" class="B C Y">0.3</text><g class="F H"><path d="M492.27 142.13v5.04m9.6-5.04v5.04m51.78-5.04v5.04m38.69-5.04v5.04m36.35-5.04v5.04m25.41-5.04v5.04"/><use xlink:href="#B" y="60.52" class="O"/></g><text xml:space="preserve" x="483" y="151.05" class="B C V">12</text><text xml:space="preserve" x="494.21" y="151.05" class="B C J">2</text><text xml:space="preserve" x="503.81" y="151.05" class="B C T">Tihvt</text><text xml:space="preserve" x="555.59" y="151.05" class="B C a">Tift.D26L28</text><text xml:space="preserve" x="594.28" y="151.05" class="B C N">42CrMo4+QT</text><text xml:space="preserve" x="630.63" y="151.05" font-size="3.61" class="B C">- </text><text xml:space="preserve" x="656.04" y="151.05" class="B C Y">0.1</text><g class="F H"><path d="M492.27 147.17v5.05m9.6-5.05v5.05m51.78-5.05v5.05m38.69-5.05v5.05m36.35-5.05v5.05m25.41-5.05v5.05"/><use xlink:href="#C" y="60.52" class="K"/></g><text xml:space="preserve" x="483" y="156.1" class="B C V">13</text><text xml:space="preserve" x="494.21" y="156.1" class="B C L">4</text><text xml:space="preserve" x="503.81" y="156.1" class="B C Z">Liugelaager</text><text xml:space="preserve" x="555.59" y="156.1" class="B C U">FB0925050</text><text xml:space="preserve" x="594.28" y="156.1" class="B C a">Tin Bearing Bronze</text><text xml:space="preserve" x="630.63" y="156.1" class="B C R">50x55 L50</text><g class="F H"><path d="M492.27 152.22v5.04m9.6-5.04v5.04m51.78-5.04v5.04m38.69-5.04v5.04m36.35-5.04v5.04m25.41-5.04v5.04"/><use xlink:href="#B" y="70.61" class="O"/></g><text xml:space="preserve" x="483" y="161.14" class="B C V">14</text><text xml:space="preserve" x="494.21" y="161.14" class="B C L">4</text><text xml:space="preserve" x="503.81" y="161.14" class="B C Z">Liugelaager</text><text xml:space="preserve" x="555.59" y="161.14" class="B C U">FB0927060</text><text xml:space="preserve" x="594.28" y="161.14" class="B C a">Tin Bearing Bronze</text><text xml:space="preserve" x="630.63" y="161.14" class="B C Q">70x75 L60</text><g class="F H"><path d="M492.27 157.26v5.05m9.6-5.05v5.05m51.78-5.05v5.05m38.69-5.05v5.05m36.35-5.05v5.05m25.41-5.05v5.05"/><use xlink:href="#C" y="70.61" class="K"/></g><text xml:space="preserve" x="483" y="166.19" class="B C V">15</text><text xml:space="preserve" x="494.21" y="166.19" class="B C V">10</text><text xml:space="preserve" x="503.81" y="166.19" class="B C T">Heico-Lock seib</text><text xml:space="preserve" x="555.59" y="166.19" class="B C T">M12_DIN25201</text><text xml:space="preserve" x="594.28" y="166.19" class="B C S">*</text><text xml:space="preserve" x="630.63" y="166.19" class="B C j">M12</text><g class="F H"><path d="M492.27 162.31v5.04m9.6-5.04v5.04m51.78-5.04v5.04m38.69-5.04v5.04m36.35-5.04v5.04m25.41-5.04v5.04"/><use xlink:href="#C" y="75.65" class="O"/></g><text xml:space="preserve" x="483" y="171.23" class="B C V">16</text><text xml:space="preserve" x="494.21" y="171.23" class="B C J">2</text><text xml:space="preserve" x="503.81" y="171.23" class="B C T">Heico-Lock seib</text><text xml:space="preserve" x="555.59" y="171.23" class="B C T">M16_DIN25201</text><text xml:space="preserve" x="594.28" y="171.23" class="B C S">*</text><text xml:space="preserve" x="630.63" y="171.23" class="B C j">M16</text><g class="F H"><path d="M492.27 167.35v5.04m9.6-5.04v5.04m51.78-5.04v5.04m38.69-5.04v5.04m36.35-5.04v5.04m25.41-5.04v5.04"/><use xlink:href="#B" y="85.74" class="K"/></g><text xml:space="preserve" x="483" y="176.27" class="B C V">17</text><text xml:space="preserve" x="494.21" y="176.27" class="B C L">4</text><text xml:space="preserve" x="503.81" y="176.27" class="B C R">tapi seib</text><text xml:space="preserve" x="555.59" y="176.27" class="B C N">TS-35.5-40.5-50</text><text xml:space="preserve" x="594.28" y="176.27" class="B C U">S355 </text><text xml:space="preserve" x="630.63" y="176.27" class="B C R">35.5-40.5-50</text><text xml:space="preserve" x="656.04" y="176.27" class="B C Y">0.0</text><g class="F H"><path d="M492.27 172.39v5.05m9.6-5.05v5.05m51.78-5.05v5.05m38.69-5.05v5.05m36.35-5.05v5.05m25.41-5.05v5.05"/><use xlink:href="#C" y="85.74" class="O"/></g><text xml:space="preserve" x="483" y="181.32" class="B C V">18</text><text xml:space="preserve" x="494.21" y="181.32" class="B C S">6</text><text xml:space="preserve" x="503.81" y="181.32" class="B C R">tapi seib</text><text xml:space="preserve" x="555.59" y="181.32" class="B C N">TS-45.5-50.5-60</text><text xml:space="preserve" x="594.28" y="181.32" class="B C U">S355 </text><text xml:space="preserve" x="630.63" y="181.32" class="B C N">45.5-50.5-60</text><text xml:space="preserve" x="656.04" y="181.32" class="B C Y">0.1</text><g class="F H"><path d="M492.27 177.44v5.04m9.6-5.04v5.04m51.78-5.04v5.04m38.69-5.04v5.04m36.35-5.04v5.04m25.41-5.04v5.04"/><use xlink:href="#C" y="90.78" class="K"/></g><text xml:space="preserve" x="483" y="186.36" class="B C V">19</text><text xml:space="preserve" x="494.21" y="186.36" class="B C J">2</text><text xml:space="preserve" x="503.81" y="186.36" class="B C R">tapi seib</text><text xml:space="preserve" x="555.59" y="186.36" class="B C N">TS-65.5-80.5-90</text><text xml:space="preserve" x="594.28" y="186.36" class="B C U">S355 </text><text xml:space="preserve" x="630.63" y="186.36" class="B C R">65.5-80.5-90</text><text xml:space="preserve" x="656.04" y="186.36" class="B C Y">0.1</text><g class="F H"><path d="M492.27 182.48v5.04m9.6-5.04v5.04m51.78-5.04v5.04m38.69-5.04v5.04m36.35-5.04v5.04m25.41-5.04v5.04"/><use xlink:href="#B" y="100.87" class="O"/></g><text xml:space="preserve" x="483" y="191.4" class="B C L">20</text><text xml:space="preserve" x="494.21" y="191.4" class="B C J">2</text><text xml:space="preserve" x="503.81" y="191.4" class="B C N">Tapp lukustusega keermega</text><text xml:space="preserve" x="555.59" y="191.4" class="B C N">TLK-50-267-00</text><text xml:space="preserve" x="594.28" y="191.4" class="B C M">-</text><text xml:space="preserve" x="630.63" y="191.4" class="B C T">50-267</text><text xml:space="preserve" x="656.04" y="191.4" class="B C M">-</text><g class="F H"><path d="M492.27 187.52v5.05m9.6-5.05v5.05m51.78-5.05v5.05m38.69-5.05v5.05m36.35-5.05v5.05m25.41-5.05v5.05"/><use xlink:href="#C" y="100.87" class="K"/></g><text xml:space="preserve" x="483" y="196.45" class="B C L">21</text><text xml:space="preserve" x="494.21" y="196.45" class="B C J">2</text><text xml:space="preserve" x="503.81" y="196.45" class="B C N">Tapp lukustusega keermega</text><text xml:space="preserve" x="555.59" y="196.45" class="B C N">TLK-40-267-00</text><text xml:space="preserve" x="594.28" y="196.45" class="B C M">-</text><text xml:space="preserve" x="630.63" y="196.45" class="B C a">40-267</text><g class="F H"><path d="M492.27 192.57v5.04m9.6-5.04v5.04m51.78-5.04v5.04m38.69-5.04v5.04m36.35-5.04v5.04m25.41-5.04v5.04"/><use xlink:href="#C" y="105.91" class="O"/></g><text xml:space="preserve" x="483" y="201.49" class="B C L">22</text><text xml:space="preserve" x="494.21" y="201.49" class="B C S">6</text><text xml:space="preserve" x="503.81" y="201.49" class="B C R">CRN Mutter</text><text xml:space="preserve" x="555.59" y="201.49" class="B C N">45x1.5_CRN</text><text xml:space="preserve" x="594.28" y="201.49" class="B C S">*</text><text xml:space="preserve" x="630.63" y="201.49" class="B C a">45x1,5</text><text xml:space="preserve" x="656.04" y="201.49" class="B C M">-</text><g class="F H"><path d="M492.27 197.61v5.04m9.6-5.04v5.04m51.78-5.04v5.04m38.69-5.04v5.04m36.35-5.04v5.04m25.41-5.04v5.04"/><use xlink:href="#B" y="116" class="K"/></g><text xml:space="preserve" x="483" y="206.53" class="B C L">23</text><text xml:space="preserve" x="494.21" y="206.53" class="B C L">4</text><text xml:space="preserve" x="503.81" y="206.53" class="B C R">CRN Mutter</text><text xml:space="preserve" x="555.59" y="206.53" class="B C R">35x1.5_CRN</text><text xml:space="preserve" x="594.28" y="206.53" class="B C S">*</text><text xml:space="preserve" x="630.63" y="206.53" class="B C T">35x1,5</text><text xml:space="preserve" x="656.04" y="206.53" class="B C M">-</text><g class="F H"><path d="M492.27 202.65v5.05m9.6-5.05v5.05m51.78-5.05v5.05m38.69-5.05v5.05m36.35-5.05v5.05m25.41-5.05v5.05"/><use xlink:href="#C" y="116" class="O"/></g><text xml:space="preserve" x="483" y="211.58" class="B C L">24</text><text xml:space="preserve" x="494.21" y="211.58" class="B C J">2</text><text xml:space="preserve" x="503.81" y="211.58" class="B C N">Tapp lukustusega keermega</text><text xml:space="preserve" x="555.59" y="211.58" class="B C N">TLK-50-221-00</text><text xml:space="preserve" x="594.28" y="211.58" class="B C M">-</text><text xml:space="preserve" x="630.63" y="211.58" class="B C T">50-221</text><text xml:space="preserve" x="656.04" y="211.58" class="B C M">-</text><g class="F H"><path d="M492.27 207.7v5.04m9.6-5.04v5.04m51.78-5.04v5.04m38.69-5.04v5.04m36.35-5.04v5.04m25.41-5.04v5.04"/><use xlink:href="#B" y="126.09" class="K"/></g><text xml:space="preserve" x="483" y="216.62" class="B C L">25</text><text xml:space="preserve" x="494.21" y="216.62" class="B C J">2</text><text xml:space="preserve" x="503.81" y="216.62" class="B C N">Tapp lukustusega keermega</text><text xml:space="preserve" x="555.59" y="216.62" class="B C N">TLK-50-173-00</text><text xml:space="preserve" x="594.28" y="216.62" class="B C M">-</text><text xml:space="preserve" x="630.63" y="216.62" class="B C T">50-173</text><text xml:space="preserve" x="656.04" y="216.62" class="B C M">-</text><g class="F H"><path d="M492.27 212.74v5.05m9.6-5.05v5.05m51.78-5.05v5.05m38.69-5.05v5.05m36.35-5.05v5.05m25.41-5.05v5.05"/><use xlink:href="#C" y="126.09" class="O"/></g><text xml:space="preserve" x="483" y="221.66" class="B C L">26</text><text xml:space="preserve" x="494.21" y="221.66" class="B C J">2</text><text xml:space="preserve" x="503.81" y="221.66" class="B C N">Tapp lukustusega keermega</text><text xml:space="preserve" x="555.59" y="221.66" class="B C N">TLK-70-174-00</text><text xml:space="preserve" x="594.28" y="221.66" class="B C M">-</text><text xml:space="preserve" x="630.63" y="221.66" class="B C U">70-174</text><g class="F H"><path d="M492.27 217.79v5.04m9.6-5.04v5.04m51.78-5.04v5.04m38.69-5.04v5.04m36.35-5.04v5.04m25.41-5.04v5.04"/><use xlink:href="#C" y="131.13" class="K"/></g><text xml:space="preserve" x="483" y="226.71" class="B C L">27</text><text xml:space="preserve" x="494.21" y="226.71" class="B C J">2</text><text xml:space="preserve" x="503.81" y="226.71" class="B C R">CRN Mutter</text><text xml:space="preserve" x="555.59" y="226.71" class="B C Q">65x2_CRN</text><text xml:space="preserve" x="594.28" y="226.71" class="B C S">*</text><text xml:space="preserve" x="630.63" y="226.71" class="B C d">65x2</text><text xml:space="preserve" x="656.04" y="226.71" class="B C M">-</text><g class="F H"><path d="M492.27 222.83v5.04m9.6-5.04v5.04m51.78-5.04v5.04m38.69-5.04v5.04m36.35-5.04v5.04m25.41-5.04v5.04"/><use xlink:href="#B" y="141.22" class="O"/></g><text xml:space="preserve" x="483" y="231.75" class="B C L">28</text><text xml:space="preserve" x="494.21" y="231.75" class="B C J">2</text><text xml:space="preserve" x="503.81" y="231.75" class="B C N">Tapp lukustusega keermega</text><text xml:space="preserve" x="555.59" y="231.75" class="B C N">TLK-40-193-00</text><text xml:space="preserve" x="594.28" y="231.75" class="B C M">-</text><text xml:space="preserve" x="630.63" y="231.75" class="B C a">40-193</text><g class="F H"><path d="M492.27 227.87v5.05m9.6-5.05v5.05m51.78-5.05v5.05m38.69-5.05v5.05m36.35-5.05v5.05m25.41-5.05v5.05"/><use xlink:href="#C" y="141.22" class="K"/></g><text xml:space="preserve" x="483" y="236.8" class="B C L">29</text><text xml:space="preserve" x="494.21" y="236.8" class="B C V">10</text><text xml:space="preserve" x="503.81" y="236.8" class="B C R">Sisekuuskantpolt</text><text xml:space="preserve" x="555.59" y="236.8" class="B C Q">M12x25_DIN912-8.8</text><text xml:space="preserve" x="594.28" y="236.8" class="B C X">8.8</text><text xml:space="preserve" x="630.63" y="236.8" class="B C f">M12x25</text><g class="F H"><path d="M492.27 232.92v5.04m9.6-5.04v5.04m51.78-5.04v5.04m38.69-5.04v5.04m36.35-5.04v5.04m25.41-5.04v5.04"/><path d="M481.06 237.96h185.73V243H481.06z" class="O"/></g><text xml:space="preserve" x="483" y="241.84" class="B C b">30</text><text xml:space="preserve" x="494.21" y="241.84" class="B C J">2</text><text xml:space="preserve" x="503.81" y="241.84" class="B C R">Sisekuuskantpolt</text><text xml:space="preserve" x="555.59" y="241.84" class="B C Q">M16x35_DIN912-8.8</text><text xml:space="preserve" x="594.28" y="241.84" class="B C X">8.8</text><text xml:space="preserve" x="630.63" y="241.84" class="B C f">M16x35</text><g class="F H"><path d="M492.27 237.96V243m9.6-5.04V243m51.78-5.04V243m38.69-5.04V243m36.35-5.04V243m25.41-5.04V243"/><use xlink:href="#B" y="156.35" class="K"/></g><text xml:space="preserve" x="483" y="246.88" class="B C b">31</text><text xml:space="preserve" x="494.21" y="246.88" class="B C L">4</text><text xml:space="preserve" x="503.81" y="246.88" class="B C U">Polt kraega</text><text xml:space="preserve" x="555.59" y="246.88" class="B C Q">M8x40_DIN6921</text><text xml:space="preserve" x="594.28" y="246.88" class="B C X">8.8</text><text xml:space="preserve" x="630.63" y="246.88" class="B C L">M8x40</text><text xml:space="preserve" x="656.04" y="246.88" class="B C M">-</text><g class="F H"><path d="M492.27 243v5.05m9.6-5.05v5.05m51.78-5.05v5.05m38.69-5.05v5.05m36.35-5.05v5.05M654.1 243v5.05"/><use xlink:href="#C" y="156.35" class="O"/></g><text xml:space="preserve" x="483" y="251.93" class="B C b">32</text><text xml:space="preserve" x="494.21" y="251.93" class="B C J">2</text><text xml:space="preserve" x="503.81" y="251.93" class="B C L">Seib</text><text xml:space="preserve" x="555.59" y="251.93" class="B C U">M8_DIN125</text><text xml:space="preserve" x="594.28" y="251.93" font-size="3.68" class="B C">140 HV</text><text xml:space="preserve" x="630.63" y="251.93" font-size="3.59" class="B C">M8</text><g class="F H"><path d="M492.27 248.05v5.04m9.6-5.04v5.04m51.78-5.04v5.04m38.69-5.04v5.04m36.35-5.04v5.04m25.41-5.04v5.04"/><use xlink:href="#C" y="161.39" class="K"/></g><text xml:space="preserve" x="483" y="256.97" class="B C b">34</text><text xml:space="preserve" x="494.21" y="256.97" class="B C J">2</text><text xml:space="preserve" x="503.81" y="256.97" class="B C T">Nylock mutter</text><text xml:space="preserve" x="555.59" y="256.97" class="B C U">M8_DIN985</text><text xml:space="preserve" x="594.28" y="256.97" class="B C X">8.8</text><text xml:space="preserve" x="630.63" y="256.97" font-size="3.59" class="B C">M8</text><text xml:space="preserve" x="656.04" y="256.97" class="B C f">0.01</text><g class="F H"><path d="M492.27 253.09v5.04m9.6-5.04v5.04m51.78-5.04v5.04m38.69-5.04v5.04m36.35-5.04v5.04m25.41-5.04v5.04"/><use xlink:href="#B" y="171.48" class="O"/></g><text xml:space="preserve" x="483" y="262.01" class="B C b">35</text><text xml:space="preserve" x="494.21" y="262.01" class="B C J">2</text><text xml:space="preserve" x="503.81" y="262.01" class="B C U">Kuuskantpolt</text><text xml:space="preserve" x="555.59" y="262.01" class="B C Q">M8x60_DIN931-8.8</text><text xml:space="preserve" x="594.28" y="262.01" class="B C X">8.8</text><text xml:space="preserve" x="630.63" y="262.01" class="B C L">M8x60</text><text xml:space="preserve" x="656.04" y="262.01" class="B C f">0.03</text><g class="F H"><path d="M492.27 258.13v5.05m9.6-5.05v5.05m51.78-5.05v5.05m38.69-5.05v5.05m36.35-5.05v5.05m25.41-5.05v5.05"/><use xlink:href="#C" y="171.48" class="K"/></g><text xml:space="preserve" x="483" y="267.06" class="B C b">36</text><text xml:space="preserve" x="494.21" y="267.06" class="B C J">2</text><text xml:space="preserve" x="503.81" y="267.06" class="B C L">Mutter</text><text xml:space="preserve" x="555.59" y="267.06" class="B C U">M10_DIN934</text><text xml:space="preserve" x="594.28" y="267.06" class="B C e">8</text><text xml:space="preserve" x="630.63" y="267.06" class="B C j">M10</text><path d="M492.27 263.18v5.04m9.6-5.04v5.04m51.78-5.04v5.04m38.69-5.04v5.04m36.35-5.04v5.04m25.41-5.04v5.04" class="F H"/><g class="G I"><path d="M481.06 91.7v5.04h185.73V91.7zm-365.17 58.65l3.17 1.32.63 2.89 1.01 1.23 3.16 1.33 1.95.3 9.3.94 24.97 10.59 3.88 1.89.27 2.3.35.93 3.82 1.95 2.26.3 15.38 1.28 1.31.62.59 1.64 1 1.27 1.17.03 1.09-.34.27 3.85.98 1.9 3.18 1.3 1.62.31 26.59 2.24h3.1l3.31-.86 24.91-10.4.38.04 1.31 2.25 1.19 3.93 24.75 5.37.32 3.19v3.3l-2.69 2.12-2.21 2.91-.34 1.05 1.39.57 1.53.01 7.01-4.21 1.4.02 32.05 6.72 5.77 2.24 1.3 1.26 1.58 2.27.95 2.89v6.19l-1.28 4.48-1.61 3.2-2.88 4.17-7.7 8.05-.11.58 1.75 1.18-.01 7.19-7.82 13-18.55 8.04-2.8-.01-2.88-.32h-4.27l-1.29.31-8 3.53-.22 4.59-20.27 8.57-2.91.31-2.78-.32-17.62-5.45-23.35-9.97-.66-.62-.01-7.26 2.94-1.87.58-1.65.94-4.51.68-1.07-2.59-6.36-20.13-8.66-15.74 5.22-16.76.86-2.87.98h-5.38l-24.33-10.28-12.8-7.38-.36-.6-.01-6.68 1.03-.9-.03-31.85-.65-3.84-1.27-2.58-1.92-1.92-4.81-1.92-2.23-1.3-1.62-1.89-.66-1.27-.64-2.24-.3-5.15v-11.53l-2.34-1.18.09-1.93.54-1.7 19.66.77.29-3.02zm129.28 35.9l1.63-1.28.63-.33 2.73.13-4.52 2.89zM142.78 204.2l4.53 2.2 1.24 1.96.34 1.69-1.71.89h-1.53l-5.72-2.6-1.32-1.57-.43-1.61.99-2.26zm181.34 10.25l1.98 1.23 1.24 2.61-.01 4.27-.3 1.62-.66 1.59-1.11 1.78-2.22 2.58-1.8 1.08-3.52.64-9.96.25-.71-.25.1-7.36 5.12-4.17 6.4-5.13 2.14-1.07h2.36zm-121.74 22.1l1.31.97-1 .02-2.28-1.02-.07-.3h1.42z"/></g><g class="G I"><use xlink:href="#D"/></g><g class="G I"><use xlink:href="#D" y="5.04"/></g><g class="G I"><path d="M481.06 147.17v5.05h185.73v-5.05zM205.93 95.56l1.27 1.29.01 3.03-1.07.85-4.42-.01-1.05-.55.1-3.84 1.16-.77 2.07-.27zm-42 36.23l.98.94.01 3.36-1.72.84h-3.13l-1.58-.66v-3.73l1.47-1.09 3.02.01z"/></g><g class="G I"><use xlink:href="#D" y="15.13"/></g><g class="G I"><use xlink:href="#E"/></g><g class="G I"><path d="M481.06 162.31v5.04h185.73v-5.04zm-178.1-76.89l.99-1.89.51-.47h1.08l-1.26 1.11-.68 1.24.07 1.85.28.33h-.61l-.39-.64zm6.63 140.87l-1.19 1.37.02 2.52h-.62l-.04-2.51.68-1.25.5-.46 1.76.03z"/></g><g class="G I"><path d="M481.06 167.35v5.04h185.73v-5.04zM245 166.09l-1.09.29-1 .6-1.15 2.39-.01 1.2.68 1.29-.6-.01-.68-.66-.02-2.79 1.18-2.03 1.29-.66h.76z"/></g><g class="G I"><use xlink:href="#E" y="15.13"/></g><g class="G I"><path d="M481.06 177.44v5.04h185.73v-5.04zM230.58 32.9l-.31.98-1.09.5-1.14 1.43-1.33 3.15-.32 2.6.24 2.22.74.49.04 1.43-1.34-1.04-.65-.95-.3-1.63v-2.14l.86-3.31 1.41-2.43 2.58-2.23.8-.48h2.37zm14.59 153.35l1.63-1.28.63-.33h2.7l-1.72.65-1.32.93-.96 1.01-.58.11z"/></g><g class="G I"><use xlink:href="#D" y="45.39"/></g><g class="G I"><path d="M481.06 96.74v5.04h185.73v-5.04zM212.32 11.95l1.91 1.94.96 1.92.64 3.88h-.62l-8.34-3.57h-3.32l-.96.33-2.88 1.92-2.11 2.37-2.29 4.45-.62 2.89v4.07l.3 1.62.65 1.59 1.64 1.89 11.87 5.11.84 10.77h.37l3.54-15.44.98-2.87 1.63-2.86 2.1-2.7 2.56-1.92 4.81-2.24 7.36-2.89 3.34-.01 3.82 1.62 1.33.92 1.28 1.92.92 2.6.32 51.58 6.72 2.91h1.19l6.4-27.89 2.53-5.16 1.73-2.12 2.57-2.24 5.03-2.34 7.36-2.89h3.32l4.48 1.92 1.32 1.25 1.25 2.28.65 3.96-3.23-1.06-6.07-2.58-2.69-.01-1.59.66-1.5 1.06-2.86 2.59-2.6 5.08-.63 2.89.01 3.76.3 1.62.65 1.58 1.63 1.9 11.83 5.15.94 10.28.35.73 3.51-15.41.97-2.86 2.11-3.67 2.72-3.04 2.76-1.73 10.25-4.17 1.28-.32 2.36-.02 3.83 1.62 2.22 1.63 1.3 2.54.65 3.85-.33 71.22-.31 1.93-1.28 2.57-26.25 24.05-4.65 4-2.38 1.46-51.95 21.74-3.31.86h-3.1l-26.59-2.24-1.62-.31-3.18-1.3-.98-1.9-.27-3.85-1.09.34-1.17-.03-1-1.27-.59-1.64-1.31-.62-15.38-1.28-2.26-.3-3.82-1.95-.35-.93-.27-2.3-3.88-1.89-24.97-10.59-9.3-.94-1.95-.3-3.16-1.33-1.01-1.23-.63-2.89-3.17-1.32-.99-1.25-.95-2.25-18.59-1.6-2.88-.96-1.9-.98-.68-1.57-.27-18.95-4.82-2.23-.34-.31v-7.58l3.21-1.6 66.22-27.65 9.61-6.73 1.67-.9.98-.94 9.83-3.95 1.73-.19.3-12.52 7.36-32.36.98-2.87 2.1-3.66 2.73-3.04 2.76-1.73 10.25-4.17 1.28-.32 2.36-.02zm22.76 19.86l.62.33 1.65 1.24.91 1.97.64 1.92v1.71l-.64 2.88-1.6 2.56-1.7 1.51-2.87 1.29h-1.86l-2.55-1.29-1.61-1.27-.65-.95-.3-1.63v-2.14l.86-3.31 1.41-2.43 2.58-2.23.8-.48zm-32.35 9.26l-.01 1.45-.45.53-.94.11-.37-1.09.99-1.32.45-.01zm106.02 20.87l1.29 1.28.95 2.89v2.66l-2.89 13.77.01 1.83.66.62-.01 1.75-1.41 1.8-1.59-.04-.94.7-2.18-.01-1.56-.99-.67-1.9-2.89-11.53-.32-2.78.31-2.59 1.83-4.26 2.26-2.55 2.86-1.62 1.73.01zM205.93 95.56l1.27 1.29.01 3.03-1.07.85-4.42-.01-1.05-.55.1-3.84 1.16-.77 2.07-.27zm-42 36.23l.98.94.01 3.36-1.72.84h-3.13l-1.58-.66v-3.73l1.47-1.09 3.02.01zm78.5 31.07l1.92.65 1.33.91.82 2.38 1.71.86.64.95-.01 1.74-.64 1.6-1.37 1.19-1.55-.01-.59-.35-.34.4-3.66 3.43-8.01 7.38-3.15 1.64h-3.46l-2.51-1.02-1.61-1.27-1.33-2.83-.3-1.62v-3.43l.62-3.22 1.34-3.15 2.07-3.05 2.6-2.53 2.54-1.3 1.62-.3h2.02z"/></g><g class="G I"><use xlink:href="#E" y="30.26"/></g><g class="G I"><use xlink:href="#D" y="55.48"/></g><g class="G I"><path d="M481.06 197.61v5.04h185.73v-5.04zM235.7 32.14l1.65 1.24 1.27 2.63v.72l-1.63-1.71-2.02-.34-2.3 1.27-1.77 2.71-.66 1.91-.01 2.81.68 1.57 1.91 1.01 1.97.09-2.7 1.17h-1.86l-2.2-.99-.71-.94.05-1.02-.74-.49-.24-2.22.32-2.6 1.33-3.15 1.14-1.43 1.09-.5.31-.98 2.12-1.08 2.37-.01zm13.49 153.27l-2.62 1.6-.1-.37 1.95-1.38z"/></g><g class="G I"><use xlink:href="#E" y="45.39"/></g><g class="G I"><path d="M481.06 207.7v5.04h185.73v-5.04zm-156.94 6.75l1.98 1.23 1.24 2.61-.01 4.27-.3 1.62-.66 1.59-1.11 1.78-2.22 2.58-1.8 1.08-3.52.64-9.96.25-.71-.25.1-7.36 5.12-4.17 6.4-5.13 2.14-1.07h2.36zm-10.86 13.1l-.01 2.4-1.09 1.15-1.83.02-2.52-1-.37-.59.05-1.83 1.45-1.74 1.74.01z"/></g><g class="G I"><path d="M481.06 212.74v5.05h185.73v-5.05zM237.35 35.3l1.25 1.64-.01 3.97-.93 1.95-2.09 2.4-1.91.69-.84.01-1.91-1.01-.68-1.57.01-2.81.66-1.91 1.77-2.71 2.3-1.27.71.01zm71.4 26.64l1.29 1.28.95 2.89v2.66l-3.17 15.38-2.27-1.08-1.09-.01-.51.47-.99 1.89-.01 1.54.97.96 1.35.28.3.47-.75.53-2.18-.01-1.56-.99-.67-1.9-2.89-11.53-.32-2.78.31-2.59 1.83-4.26 2.26-2.55 2.86-1.62 1.73.01z"/></g><g class="G I"><path d="M481.06 217.79v5.04h185.73v-5.04zm-238.63-54.93l1.92.65 1.33.91.6 1.33.02 1.06-1.95-1.1h-.75l-1.29.66-1.51 3-.01 1.2 1.02 1.24 2.56 1.01.03.39-11.72 10.78-3.15 1.64h-3.46l-2.51-1.02-1.61-1.27-1.33-2.83-.3-1.62v-3.43l.62-3.22 1.34-3.15 2.07-3.05 2.6-2.53 2.54-1.3 1.62-.3h2.02z"/></g><g class="G I"><use xlink:href="#D" y="85.74"/></g><g class="G I"><use xlink:href="#E" y="70.61"/></g><g class="G I"><path d="M481.06 232.92v5.04h185.73v-5.04zM202.73 41.07l-.01 1.45-.45.53-.94.11-.37-1.09.99-1.32.45-.01zm104.74 42.98l1.3.94-.01 1.75-1.41 1.8-1.18.02-2.55-1.3-.02-1.85.68-1.23.84-.81.73.01zm5.79 143.5l-.01 2.4-1.09 1.15-1.83.02-1.91-.97-.02-2.49 1.18-1.38 1.43.01z"/></g><g class="G I"><use xlink:href="#E" y="-55.48"/></g><g class="G I"><path d="M481.06 237.96V243h185.73v-5.04zm-232.85-70.3l.64.95-.01 1.74-.64 1.6-1.37 1.19-1.54-.01-3.18-1.62-.35-.94v-1.2l1.15-2.39 1-.61h1.42z"/></g><g class="G I"><path d="M481.06 243v5.05h185.73V243z"/></g><g class="G I"><use xlink:href="#D" y="110.96"/></g><g class="G I"><use xlink:href="#D" y="116"/></g><g class="G I"><use xlink:href="#E" y="100.87"/></g><g class="G I"><use xlink:href="#D" y="126.09"/></g><g class="G I"><use xlink:href="#D" y="-30.26"/></g><g class="G I"><use xlink:href="#D" y="-25.22"/></g><g class="G I"><path d="M481.06 116.91v5.05h185.73v-5.05zM226.77 24.5l-.02.35-5.58 2.49-2.56 1.92-2.1 2.7-1.63 2.86-.98 2.87-3.54 15.44h-.37l-.84-10.77-11.87-5.11-1.64-1.89-.65-1.59-.3-1.62v-4.07l.62-2.89 2.29-4.45 2.11-2.37 2.88-1.92.96-.33h3.32zm73.33 31.04l-4.59 1.92-2.76 1.73-2.72 3.04-2.11 3.67-.97 2.86-3.51 15.41-.35-.73-.94-10.28-11.83-5.15-1.63-1.9-.65-1.58-.3-1.62-.01-3.76.63-2.89 2.6-5.08 2.86-2.59 1.5-1.06 1.59-.66 2.69.01zm13.41 129.48l.27.37 1.06.21 3.5 1.63.36.6v2.72l-.36.6-3.93 2.15.43 10.36-.44 1.2-.83-.01-24.37-5.14-1.4-.02-7.01 4.21-1.53-.01-1.39-.57.34-1.05 2.21-2.91 2.69-2.12-.32-7.14-1.6-19.54-.09-2.24 3.33-1.79 7.01-6.12 18.28-16.73.34-.03z"/></g><g class="G I"><path d="M481.06 121.96V127h185.73v-5.04z"/></g><g class="G I"><path d="M481.06 127v5.04h185.73V127z"/></g><g class="G I"><use xlink:href="#E" y="-25.22"/></g><g class="G k"><path opacity=".2" d="M0 0h30v8H0z" class="B"/><path fill="#ffffe1" d="M0 0h30v8H0z" class="F"/><text xml:space="preserve" x="0" y="0" class="B">tooltip</text></g><defs ><path id="B" d="M481.06 86.65h185.73v5.05H481.06z"/><path id="C" d="M481.06 91.7h185.73v5.04H481.06z"/><path id="D" d="M481.06 137.09v5.04h185.73v-5.04z"/><path id="E" d="M481.06 157.26v5.05h185.73v-5.05z"/></defs></svg>