<?xml version="1.0" encoding="UTF-8" standalone="yes"?>
<svg xmlns="http://www.w3.org/2000/svg" xmlns:xlink="http://www.w3.org/1999/xlink" width="420.000mm" height="297.000mm" viewBox="0.000000 0.000000 420.000000 297.000000" stroke-linejoin="round" stroke-linecap="round" fill="none" fill-rule="evenodd">
  <desc>Composer Export</desc>
  <defs></defs>
  <g>
    <path style="fill:#ffffff" d="M419.93,296.91L0.09,296.91L0.09,0.09L419.93,0.09z"></path>
    <path style="fill:#e5e5e5" d="M215.80,13.89L215.68,14.33L214.65,14.70L214.41,14.85L212.82,14.84L212.92,15.49L213.27,16.09L212.82,17.10L211.99,17.12L211.36,16.75L209.94,16.75L209.12,17.21L207.83,19.42L207.21,19.00L206.84,18.39L206.83,16.52L208.36,15.49L213.16,13.56L214.88,13.56z"></path>
    <path style="fill:#e5e5e5" d="M261.20,24.34L261.23,24.57L262.07,24.58L262.64,24.50L265.16,31.20L266.70,34.73L266.75,35.35L272.07,49.36L272.18,50.20L272.67,49.58L276.39,50.73L278.63,52.01L280.25,53.27L280.16,53.61L278.94,53.64L273.82,51.33L273.06,51.36L273.16,52.35L280.79,72.63L281.74,72.54L307.98,61.28L313.27,55.39L313.40,58.31L313.26,58.56L310.47,61.92L309.90,62.19L310.18,62.81L310.20,66.01L310.39,66.95L310.53,67.92L310.70,69.21L310.85,70.17L311.03,71.12L311.16,72.07L310.97,72.29L310.88,72.94L311.32,73.07L314.53,82.53L313.24,83.21L306.46,64.82L306.38,64.20L307.48,63.52L306.82,62.87L306.07,62.86L305.44,63.23L305.24,65.59L304.97,65.96L282.08,75.70L284.55,82.68L284.85,83.35L289.55,95.57L290.14,95.91L289.81,96.21L301.72,127.64L302.56,127.66L327.67,117.07L335.61,137.51L338.83,146.82L338.54,147.91L337.95,148.60L335.45,149.71L334.92,149.70L334.80,149.91L334.09,150.43L333.44,150.71L332.99,150.66L331.85,151.39L331.18,151.66L330.68,151.60L330.26,151.88L329.90,152.33L329.35,152.30L328.84,152.24L328.69,152.43L328.42,152.55L328.01,152.85L327.84,152.99L327.35,153.29L327.11,153.26L326.59,153.20L326.47,153.43L326.27,153.61L325.11,154.24L324.66,154.18L323.36,155.08L322.77,154.80L322.92,155.33L322.65,155.45L322.21,155.17L322.01,155.64L321.10,156.03L320.53,155.76L320.68,156.29L320.41,156.41L319.97,156.13L319.77,156.60L316.56,158.01L316.12,157.72L315.92,158.21L315.02,158.60L314.45,158.33L314.59,158.85L314.33,158.96L313.90,158.71L313.51,158.79L313.65,159.32L314.21,160.41L336.53,151.03L337.27,150.38L338.24,151.99L338.75,152.01L340.14,151.43L340.10,150.07L339.68,149.44L340.15,148.24L340.14,146.85L338.54,142.04L329.23,117.70L329.25,116.54L330.22,115.78L338.85,138.53L341.45,144.90L348.79,151.01L350.76,152.89L351.67,154.87L352.82,159.87L353.00,160.84L353.78,164.04L353.96,165.00L355.38,171.09L355.57,172.04L355.52,175.46L355.21,176.75L353.47,179.82L351.54,181.41L349.89,182.06L348.24,182.06L345.31,180.77L337.93,175.67L336.43,176.30L334.78,176.30L331.81,175.05L316.09,164.09L315.68,164.13L315.77,165.12L344.46,240.64L344.69,241.55L345.28,242.95L345.16,244.57L343.50,245.52L330.62,250.77L308.43,191.70L247.57,30.90L246.83,30.97L246.19,29.25L259.67,23.60L259.68,23.16L260.74,23.18z"></path>
    <path style="fill:#e5e5e5" d="M231.53,73.80L241.79,78.28L243.07,79.56L243.40,80.61L242.10,81.29L242.12,79.59L220.33,70.25L219.27,70.27L218.75,71.05L213.29,80.61L210.10,79.21L208.82,77.93L208.44,77.35L208.45,73.88L209.60,71.52L211.71,69.45L213.49,68.35L214.44,68.02L217.76,68.02z"></path>
    <path style="fill:#e5e5e5" d="M229.93,115.77L231.88,117.36L226.62,119.61L222.78,121.03L222.26,118.63L221.19,118.10L220.37,116.68L219.37,116.06L217.00,116.40L205.58,121.32L201.96,123.14L200.34,125.08L200.98,125.10L212.84,120.24L215.50,119.91L215.72,121.01L217.78,121.21L215.64,122.13L215.20,121.84L215.00,122.32L212.52,123.49L211.69,123.47L210.39,122.46L209.96,122.46L200.03,126.66L198.87,127.42L197.24,124.11L195.31,119.60L194.92,119.56L194.06,120.06L193.40,118.02L193.39,114.57L196.65,108.22L198.56,105.00L199.36,104.23L200.22,104.05L201.55,104.05L202.39,104.24z"></path>
    <path style="fill:#e5e5e5" d="M162.68,133.06L162.67,134.14L147.47,161.24L143.84,162.84L143.33,162.82L143.59,163.41L83.74,271.16L82.42,272.73L68.69,278.54L66.71,278.52L128.53,167.66L128.78,167.56L128.89,167.75L131.60,167.67L128.78,167.56L129.83,165.39L153.53,122.79L153.70,122.80z"></path>
    <path style="fill:#e5e5e5" d="M238.76,133.60L238.95,134.56L238.95,135.77L199.37,152.65L198.75,152.65L199.17,147.28L200.06,146.79L200.45,146.82L200.67,149.83L201.05,150.09L202.61,150.07L203.00,139.56L204.07,139.43L204.35,140.32L204.49,141.92L204.49,142.26L204.52,144.74L205.49,144.63L237.95,130.85z"></path>
    <path style="fill:#ffffff" d="M352.98,173.73L352.96,175.47L352.64,176.42L351.24,178.23L349.74,178.61L348.76,177.97L348.50,177.20L348.50,175.55L349.77,173.24L351.07,172.48z"></path>
    <path style="fill:#00001c" d="M214.65,14.70L215.68,14.33L216.17,14.55z"></path>
    <path style="fill:#00001c" d="M272.67,49.58L272.18,50.20L272.07,49.36z"></path>
    <path style="fill:#00001c" d="M303.08,54.73L301.78,54.55L303.09,54.46z"></path>
    <path style="fill:#00001c" d="M220.41,54.73L219.45,54.55L220.42,54.47z"></path>
    <path style="fill:#00001c" d="M215.64,122.13L215.00,122.32L215.20,121.84z"></path>
    <path style="fill:#00001c" d="M238.95,134.56L238.76,133.60L238.91,133.71z"></path>
    <path style="fill:#00001c" d="M322.77,154.80L323.36,155.08L322.92,155.33z"></path>
    <path style="fill:#00001c" d="M322.65,155.45L322.01,155.64L322.21,155.17z"></path>
    <path style="fill:#00001c" d="M320.53,155.76L321.10,156.03L320.68,156.29z"></path>
    <path style="fill:#00001c" d="M320.41,156.41L319.77,156.60L319.97,156.13z"></path>
    <path style="fill:#00001c" d="M316.56,158.01L315.92,158.21L316.12,157.72z"></path>
    <path style="fill:#00001c" d="M314.45,158.33L315.02,158.60L314.59,158.85z"></path>
    <path style="fill:#00001c" d="M314.33,158.96L313.65,159.32L313.51,158.79L313.90,158.71z"></path>
    <path style="fill:#00001c" d="M143.33,162.82L143.84,162.84L143.59,163.41z"></path>
    <path style="fill:#00001c" d="M128.89,167.75L128.78,167.56L131.60,167.67z"></path>
    <path style="fill:#e5e5e5" d="M199.43,10.66L198.42,10.71L199.50,10.33z"></path>
    <path style="fill:#e5e5e5" d="M214.85,15.58L216.51,15.49L216.52,16.22L215.70,17.44L215.11,17.53L214.84,17.14z"></path>
    <path style="fill:#e5e5e5" d="M218.38,18.64L217.42,20.70L214.56,22.00L213.47,22.33L213.81,21.25L215.39,18.64z"></path>
    <path style="fill:#e5e5e5" d="M209.72,17.83L211.71,17.74L211.72,18.13L210.71,19.75L209.75,18.99z"></path>
    <path style="fill:#e5e5e5" d="M212.54,20.92L213.28,20.91L213.34,21.34L212.76,22.17L212.42,22.68L211.33,22.56L209.73,21.87L209.73,21.39L210.71,20.62z"></path>
    <path style="fill:#e5e5e5" d="M196.86,23.85L195.75,24.73L194.75,24.75L194.23,24.44L195.66,24.24L196.59,22.95L196.93,21.54z"></path>
    <path style="fill:#e5e5e5" d="M210.94,25.76L224.54,20.00L224.53,20.36L223.71,21.23L209.98,27.04L207.80,27.04L207.05,26.36L207.42,25.73z"></path>
    <path style="fill:#e5e5e5" d="M246.27,27.33L246.28,28.40L245.86,28.69L245.21,28.76L245.31,27.34z"></path>
    <path style="fill:#e5e5e5" d="M208.45,27.99L210.30,28.00L224.85,21.92L224.84,22.28L207.51,53.40L207.16,54.56L206.34,55.37L205.69,55.68L204.81,55.85L186.22,72.16L183.83,73.94L179.73,75.92L180.45,74.40L206.46,27.64z"></path>
    <path style="fill:#e5e5e5" d="M241.81,30.22L240.40,30.65L240.10,29.90L240.68,29.48L241.19,29.44z"></path>
    <path style="fill:#e5e5e5" d="M293.71,40.14L294.52,42.27L294.51,44.87L292.94,45.64L292.41,45.64L292.12,43.65L290.59,42.90L290.07,42.66L288.90,44.07L283.32,41.76L290.05,39.51L292.40,39.17z"></path>
    <path style="fill:#e5e5e5" d="M239.53,43.18L240.16,42.80L240.72,41.68L241.15,41.74L241.20,42.50L240.04,43.69L239.53,43.70z"></path>
    <path style="fill:#e5e5e5" d="M304.30,44.60L305.08,46.13L305.27,47.09L305.23,49.88L304.88,50.84L304.27,50.77L302.25,49.80L302.60,49.55L302.69,48.13L301.23,47.41L301.04,47.20L300.53,47.37L300.29,47.48L299.46,48.56L293.88,46.24L297.21,45.39L300.94,43.99L303.02,43.69z"></path>
    <path style="fill:#e5e5e5" d="M280.29,45.53L280.06,44.63L281.43,43.97L282.15,43.97L282.25,45.74L281.60,45.92z"></path>
    <path style="fill:#e5e5e5" d="M300.71,53.42L302.25,52.62L302.97,52.62L303.09,54.46L301.78,54.55L300.72,53.91z"></path>
    <path style="fill:#e5e5e5" d="M218.46,54.17L218.27,53.32L220.32,52.62L220.42,54.47L219.45,54.55z"></path>
    <path style="fill:#e5e5e5" d="M280.11,61.96L282.20,61.32L282.18,63.32L280.97,63.19L280.20,62.90z"></path>
    <path style="fill:#e5e5e5" d="M181.66,77.22L180.58,76.99L179.20,77.13L179.24,76.46L179.73,75.92z"></path>
    <path style="fill:#e5e5e5" d="M186.36,78.93L187.75,79.78L186.66,79.58L182.18,77.66L181.66,77.22L182.53,77.30z"></path>
    <path style="fill:#e5e5e5" d="M299.78,79.24L301.10,80.20L300.97,80.87L300.44,80.86L299.46,79.88L297.22,78.91L295.48,78.61L298.51,78.59z"></path>
    <path style="fill:#e5e5e5" d="M189.99,80.74L188.91,80.54L187.75,79.78L188.62,79.87z"></path>
    <path style="fill:#e5e5e5" d="M192.44,81.49L193.84,82.34L192.75,82.14L190.51,81.18L189.99,80.74L190.86,80.83z"></path>
    <path style="fill:#e5e5e5" d="M196.08,83.30L194.99,83.10L193.84,82.34L194.71,82.43z"></path>
    <path style="fill:#e5e5e5" d="M198.32,84.26L197.24,84.07L196.08,83.30L196.95,83.39z"></path>
    <path style="fill:#e5e5e5" d="M200.77,85.01L202.17,85.86L201.08,85.67L198.84,84.71L198.32,84.26L199.19,84.35z"></path>
    <path style="fill:#e5e5e5" d="M204.41,86.83L203.32,86.63L202.17,85.86L203.04,85.95z"></path>
    <path style="fill:#e5e5e5" d="M209.10,88.54L210.50,89.39L209.41,89.19L204.92,87.27L204.41,86.83L205.28,86.91z"></path>
    <path style="fill:#e5e5e5" d="M212.74,90.35L211.65,90.15L210.50,89.39L211.37,89.48z"></path>
    <path style="fill:#e5e5e5" d="M215.19,91.10L216.58,91.95L215.50,91.75L213.25,90.79L212.74,90.35L213.61,90.44z"></path>
    <path style="fill:#e5e5e5" d="M218.83,92.91L217.74,92.72L216.58,91.95L217.45,92.04z"></path>
    <path style="fill:#e5e5e5" d="M221.07,93.87L219.98,93.68L218.83,92.91L219.70,93.00z"></path>
    <path style="fill:#e5e5e5" d="M223.52,94.62L224.91,95.48L223.83,95.28L221.59,94.32L221.07,93.87L221.94,93.96z"></path>
    <path style="fill:#e5e5e5" d="M227.16,96.44L226.07,96.24L224.91,95.48L225.78,95.57z"></path>
    <path style="fill:#e5e5e5" d="M231.85,98.15L233.24,99.00L232.16,98.80L227.67,96.88L227.16,96.44L228.03,96.53z"></path>
    <path style="fill:#e5e5e5" d="M235.49,99.96L234.40,99.76L233.24,99.00L234.11,99.09z"></path>
    <path style="fill:#e5e5e5" d="M240.18,101.67L241.57,102.52L240.49,102.33L236.00,100.41L235.49,99.96L236.36,100.05z"></path>
    <path style="fill:#e5e5e5" d="M243.82,103.49L242.73,103.29L241.57,102.52L242.44,102.61z"></path>
    <path style="fill:#e5e5e5" d="M246.27,104.24L247.66,105.09L246.58,104.89L244.33,103.93L243.82,103.49L244.69,103.57z"></path>
    <path style="fill:#e5e5e5" d="M256.52,109.34L256.01,109.88L255.55,109.67L254.65,108.35L252.15,107.01L253.02,107.10L253.63,107.46L254.61,107.56L254.58,104.22z"></path>
    <path style="fill:#e5e5e5" d="M249.90,106.05L248.82,105.85L247.66,105.09L248.53,105.18z"></path>
    <path style="fill:#e5e5e5" d="M252.15,107.01L251.06,106.81L249.90,106.05L250.77,106.14z"></path>
    <path style="fill:#e5e5e5" d="M256.01,109.88L256.88,110.04L256.88,110.42L256.19,110.36z"></path>
    <path style="fill:#e5e5e5" d="M284.40,169.27L284.41,172.60L284.09,173.24L283.32,173.80L282.68,173.77L283.14,172.92L283.12,169.91L266.12,125.08L266.02,123.79L266.69,123.39L267.08,123.45z"></path>
    <path style="fill:#e5e5e5" d="M172.90,136.73L172.47,136.73L172.47,135.92L172.90,135.92z"></path>
    <path style="fill:#e5e5e5" d="M259.40,172.48L258.44,173.26L258.43,172.13z"></path>
    <path style="fill:#e5e5e5" d="M253.63,173.12L254.60,173.77L252.58,174.74L251.62,174.86L251.62,169.60L253.35,168.96z"></path>
    <path style="fill:#e5e5e5" d="M293.04,250.98L303.30,255.45L324.10,264.13L327.65,264.75L333.31,264.75L337.18,264.13L361.93,253.63L362.62,253.23L362.61,253.60L360.51,255.42L337.58,265.17L333.21,265.99L328.07,266.00L325.84,265.67L322.52,264.75L294.00,252.58L292.07,250.93L292.07,250.32z"></path>
    <path style="fill:#e5e5e5" d="M55.94,265.80L55.95,268.60L56.29,270.29L55.66,270.65L55.30,269.91L55.30,265.47L56.19,264.41L56.32,264.44z"></path>
    <path style="fill:#e5e5e5" d="M61.45,271.30L61.11,271.64L61.00,270.47L61.40,270.47z"></path>
    <path style="fill:#e5e5e5" d="M59.06,272.08L60.49,272.27L59.48,272.81z"></path>
    <path style="fill:#e5e5e5" d="M31.31,277.22L56.93,288.13L62.67,290.40L66.21,291.02L71.88,291.02L75.42,290.40L81.16,288.13L99.39,280.41L101.10,279.43L100.53,280.59L98.79,281.73L80.84,289.41L75.10,291.68L71.78,292.27L66.31,292.27L62.99,291.68L52.76,287.49L33.21,279.16L30.99,277.86L30.18,276.30z"></path>
    <path style="fill:#000020" d="M204.42,3.51L203.45,3.84L204.21,3.30z"></path>
    <path style="fill:#000020" d="M202.68,4.39L202.55,3.99L203.45,3.84z"></path>
    <path style="fill:#000020" d="M202.18,4.47L201.20,4.81L201.97,4.26z"></path>
    <path style="fill:#000020" d="M200.44,5.35L200.31,4.96L201.20,4.81z"></path>
    <path style="fill:#000020" d="M196.09,7.04L195.11,7.38L195.88,6.82z"></path>
    <path style="fill:#000020" d="M194.25,7.46L195.11,7.38L194.88,7.82L194.34,7.80z"></path>
    <path style="fill:#000020" d="M225.15,19.44L225.04,19.03L225.41,18.97z"></path>
    <path style="fill:#000020" d="M212.98,22.54L212.42,22.68L212.76,22.17z"></path>
    <path style="fill:#000020" d="M262.07,24.58L261.23,24.57L261.20,24.34z"></path>
    <path style="fill:#000020" d="M195.64,24.90L194.75,24.75L195.75,24.73z"></path>
    <path style="fill:#000020" d="M243.51,28.17L242.39,28.72L242.30,28.37L243.47,28.04z"></path>
    <path style="fill:#000020" d="M241.19,29.44L240.68,29.48L241.02,28.90z"></path>
    <path style="fill:#000020" d="M239.02,30.09L237.90,30.64L237.82,30.29L238.99,29.96z"></path>
    <path style="fill:#000020" d="M294.51,44.87L294.52,42.27L294.64,42.39z"></path>
    <path style="fill:#000020" d="M290.48,44.78L290.42,43.01L290.59,42.90z"></path>
    <path style="fill:#000020" d="M281.60,45.92L282.25,45.74L283.46,45.93z"></path>
    <path style="fill:#000020" d="M305.27,47.09L305.08,46.13L305.23,46.24z"></path>
    <path style="fill:#000020" d="M300.53,47.37L301.04,47.20L301.23,47.41L300.72,47.53z"></path>
    <path style="fill:#000020" d="M303.08,54.73L303.09,54.46L304.29,54.57z"></path>
    <path style="fill:#000020" d="M220.41,54.73L220.42,54.47L221.95,54.57z"></path>
    <path style="fill:#000020" d="M205.69,55.68L206.34,55.37L206.52,55.53z"></path>
    <path style="fill:#000020" d="M313.40,58.31L313.27,55.39L313.56,54.86z"></path>
    <path style="fill:#000020" d="M309.90,62.19L310.47,61.92L310.18,62.81z"></path>
    <path style="fill:#000020" d="M310.39,66.95L310.20,66.01L310.35,66.12z"></path>
    <path style="fill:#000020" d="M310.70,69.21L310.53,67.92L310.67,68.03z"></path>
    <path style="fill:#000020" d="M311.03,71.12L310.85,70.17L310.99,70.28z"></path>
    <path style="fill:#000020" d="M311.32,73.07L310.88,72.94L310.97,72.29L311.16,72.07L311.34,72.20z"></path>
    <path style="fill:#000020" d="M239.84,82.21L239.43,82.10L239.90,81.84z"></path>
    <path style="fill:#000020" d="M285.03,83.06L284.85,83.35L284.55,82.68z"></path>
    <path style="fill:#000020" d="M204.35,140.32L204.07,139.43L204.30,139.47z"></path>
    <path style="fill:#000020" d="M177.00,141.10L177.33,140.86L177.71,138.17L177.71,143.77L177.33,141.40z"></path>
    <path style="fill:#000020" d="M204.49,142.26L204.49,141.92L205.27,142.04z"></path>
    <path style="fill:#000020" d="M334.80,149.91L334.92,149.70L335.45,149.71L335.37,150.13z"></path>
    <path style="fill:#000020" d="M330.81,152.12L330.26,151.88L330.68,151.60z"></path>
    <path style="fill:#000020" d="M328.69,152.43L328.84,152.24L329.35,152.30L329.29,152.67z"></path>
    <path style="fill:#000020" d="M328.60,152.93L328.01,152.85L328.42,152.55z"></path>
    <path style="fill:#000020" d="M326.47,153.43L326.59,153.20L327.11,153.26L327.04,153.63z"></path>
    <path style="fill:#000020" d="M353.00,160.84L352.82,159.87L352.96,159.99z"></path>
    <path style="fill:#000020" d="M315.48,163.48L315.07,163.59L315.18,163.18z"></path>
    <path style="fill:#000020" d="M353.96,165.00L353.78,164.04L353.92,164.15z"></path>
    <path style="fill:#000020" d="M355.57,172.04L355.38,171.09L355.52,171.20z"></path>
    <path style="fill:#000020" d="M344.69,241.55L344.46,240.64L344.63,240.72z"></path>
    <path style="fill:#c8c8d2" d="M329.79,251.00L330.62,250.77L343.50,245.52L343.24,246.14L329.49,251.95L326.99,251.95L325.28,251.34L325.26,250.98z"></path>
    <path style="fill:#ffffff" d="M344.30,163.18L343.93,163.50L342.37,165.20L341.79,167.76L340.68,167.45L340.77,164.88L341.77,163.31L342.59,162.84L343.69,162.84z"></path>
    <g id="Actor_2.0">
      <g style="stroke:#000000;stroke-width:0.176;stroke-opacity:0.25">
        <path d="M327.74,251.17L327.88,251.56L327.85,251.56L327.57,251.52L327.31,251.46L327.08,251.38L326.34,251.07"></path>
        <path d="M327.85,251.18L327.99,251.56"></path>
        <path d="M329.98,250.96L328.85,251.44L328.65,251.51L328.40,251.55L328.13,251.56L327.88,251.56L328.08,252.09"></path>
        <path d="M343.58,245.54L343.51,245.36"></path>
        <path d="M343.56,245.42L343.52,245.36"></path>
      </g>
      <g style="stroke:#000000;stroke-width:0.529;stroke-opacity:0.25">
        <path d="M343.53,245.35L343.56,245.42L343.60,245.66L343.51,245.89L343.31,246.09L342.99,246.27L329.81,251.84L329.39,251.97L328.90,252.06L328.36,252.10L327.80,252.08L327.24,252.01L326.72,251.89L326.26,251.73L311.03,245.30L310.65,245.10L310.37,244.88L310.24,244.69"></path>
      </g>
    </g>
    <g id="Actor_7.0">
      <g style="stroke:#000000;stroke-width:0.176">
        <path d="M194.97,25.26L194.97,24.71"></path>
        <path d="M195.14,24.74L195.14,25.19"></path>
        <path d="M194.72,24.66L194.72,24.68L194.70,24.72L194.68,24.75L194.65,24.77L194.61,24.78L194.57,24.77L194.53,24.75L194.49,24.72L194.46,24.68L194.43,24.63L194.41,24.57L194.40,24.52L194.40,24.46L194.40,24.45"></path>
        <path d="M193.89,18.58L194.45,18.53L195.05,18.69L195.66,19.04L196.22,19.56L196.71,20.23L197.09,20.99L197.34,21.80L197.45,22.61L197.40,23.37L197.21,24.02L196.88,24.53L196.43,24.86"></path>
        <path d="M195.71,25.08L195.71,25.10L195.69,25.14L195.67,25.17L195.64,25.19L195.60,25.20L195.56,25.19L195.52,25.17L195.48,25.14L195.44,25.09L195.42,25.04L195.40,24.99L195.39,24.93L195.38,24.91L195.39,24.88L195.40,24.83L195.42,24.80L195.44,24.77L195.48,24.76"></path>
        <path d="M196.08,24.95L195.89,24.99L195.78,25.48"></path>
        <path d="M195.59,24.79L195.56,24.77L195.53,24.76"></path>
      </g>
      <g style="stroke:#000000;stroke-width:0.529">
        <path d="M194.23,24.33L194.33,24.86L194.97,25.26L195.14,25.19L195.14,25.33L195.78,25.48L195.98,25.39L196.08,24.95L196.43,24.86L196.62,24.78L197.07,24.44L197.41,23.94L197.60,23.28L197.64,22.72L197.65,22.53L197.54,21.72L197.29,20.91L196.90,20.15L196.42,19.48L195.85,18.96L195.36,18.67L195.25,18.60L194.65,18.45L194.09,18.50L193.89,18.58L193.40,18.83L193.02,19.27L192.77,19.87L192.66,20.59L192.68,20.85"></path>
        <path d="M194.72,24.62L194.73,24.63L194.72,24.66L194.69,24.64L194.65,24.59"></path>
        <path d="M195.71,25.08L195.68,25.05L195.64,25.01L195.61,24.96L195.59,24.90L195.58,24.85L195.58,24.82L195.58,24.80L195.59,24.79L195.60,24.80L195.64,24.83L195.67,24.88L195.69,24.93L195.71,24.99L195.71,25.05L195.71,25.08"></path>
        <path d="M196.75,21.27L196.74,21.25"></path>
      </g>
    </g>
    <g id="Actor_1.0">
      <g style="stroke:#000000;stroke-width:0.176">
        <path d="M283.47,41.89L290.26,39.47L291.35,39.25L292.37,39.40"></path>
        <path d="M292.02,45.50L292.15,44.81L292.15,44.12L292.02,43.51L291.76,43.02L291.39,42.67L290.94,42.50L290.42,42.50L290.23,42.56"></path>
      </g>
      <g style="stroke:#000000;stroke-width:0.529">
        <path d="M281.82,41.19L288.61,38.77L289.70,38.55L290.72,38.71L292.37,39.40L293.24,39.92L293.92,40.76L294.37,41.88L294.55,43.20L294.46,44.66L294.37,45.06"></path>
        <path d="M288.54,44.03L288.88,43.53L289.36,43.03L289.89,42.68L290.23,42.56L290.37,42.82L290.50,43.43L290.50,44.11L290.37,44.81"></path>
      </g>
    </g>
    <g id="Actor_1.1">
      <g style="stroke:#000000;stroke-width:0.176">
        <path d="M194.50,116.33L212.80,108.60"></path>
        <path d="M219.78,116.11L220.54,116.40L221.45,117.18L222.14,118.29L222.56,119.68L222.71,121.26"></path>
        <path d="M220.99,116.79L220.17,116.44"></path>
        <path d="M239.58,82.29L243.50,80.63"></path>
        <path d="M241.32,81.55L242.15,80.29L242.55,79.57"></path>
        <path d="M242.15,80.29L243.00,79.80"></path>
        <path d="M255.33,109.25L255.37,109.24"></path>
        <path d="M256.32,108.83L256.25,108.87"></path>
        <path d="M289.12,94.97L295.06,92.46"></path>
      </g>
      <g style="stroke:#000000;stroke-width:0.529">
        <path d="M198.84,127.58L199.25,126.57L200.16,125.01L201.26,123.67L202.48,122.60L203.76,121.88L216.94,116.31L218.22,115.95L219.44,115.98L219.78,116.11L220.63,116.83L221.31,117.95L221.74,119.33L221.89,120.91L222.71,121.26L231.97,117.35"></path>
        <path d="M241.60,79.17L241.44,79.46L239.58,82.29L228.35,87.03"></path>
        <path d="M286.71,88.61L294.16,91.76L294.54,91.97L294.90,92.27L295.22,92.65L295.51,93.10L295.73,93.59"></path>
      </g>
    </g>
    <g id="Actor_1.2">
      <g style="stroke:#000000;stroke-width:0.176">
        <path d="M342.63,168.75L342.28,168.42L342.03,167.94L341.90,167.35L341.89,167.03L341.90,166.69L342.03,166.00L342.28,165.31L342.63,164.68L343.07,164.14L343.56,163.73L344.07,163.47L344.58,163.38L345.05,163.46"></path>
      </g>
      <g style="stroke:#000000;stroke-width:0.529">
        <path d="M343.37,162.75L345.05,163.46L345.45,163.72L345.75,164.13L345.94,164.66L346.01,165.29L345.94,165.97L345.75,166.67L345.45,167.33L345.05,167.92L344.58,168.40L344.07,168.74L343.56,168.92L343.07,168.92L342.63,168.75L341.04,168.08"></path>
      </g>
    </g>
    <g id="Actor_1.3">
      <g style="stroke:#000000;stroke-width:0.176">
        <path d="M259.98,173.44L259.98,172.78"></path>
        <path d="M300.86,91.42L301.12,91.31L302.22,90.62L303.08,89.61L303.65,88.33L303.91,86.86L303.82,85.28L303.41,83.68L302.70,82.15L301.71,80.80L300.52,79.68L299.20,78.87L297.81,78.42L296.44,78.35L295.17,78.67L284.64,83.12"></path>
        <path d="M307.19,73.66L307.17,73.67L307.23,73.59L307.49,73.46"></path>
        <path d="M338.74,147.45L313.08,158.30"></path>
      </g>
      <g style="stroke:#000000;stroke-width:0.529">
        <path d="M260.03,173.44L259.83,173.43L259.65,173.39L258.71,172.99"></path>
        <path d="M289.59,96.18L300.86,91.42L301.56,90.98L302.42,89.97L302.99,88.69L303.25,87.22L303.17,85.63L302.75,84.03L302.04,82.51L301.06,81.15L299.87,80.04L298.54,79.23L297.15,78.78L295.78,78.71L294.51,79.03L284.66,83.19"></path>
        <path d="M306.29,71.45L306.16,71.46L306.09,71.44L305.96,71.34L305.88,71.20L305.86,71.04L305.87,70.96L305.90,70.90L305.99,70.81L303.86,66.28"></path>
        <path d="M313.31,158.91L337.91,148.51L338.24,148.34L338.50,148.06L338.69,147.68L338.79,147.22L338.81,146.71L338.73,146.17L338.57,145.62L327.67,116.84L307.58,74.19L307.45,74.20L307.38,74.17L307.25,74.08L307.17,73.93L307.14,73.77L307.17,73.67L307.51,73.49"></path>
      </g>
    </g>
    <g id="Actor_1.4">
      <g style="stroke:#000000;stroke-width:0.176">
        <path d="M172.98,136.67L172.97,136.01L172.97,136.06"></path>
        <path d="M219.94,120.34L218.51,120.05L216.98,119.90L215.42,119.90L213.90,120.05L212.48,120.34L211.26,120.75L199.83,125.58"></path>
        <path d="M207.03,55.34L207.05,55.31L207.13,55.28"></path>
        <path d="M207.05,55.31L206.61,54.69"></path>
        <path d="M216.20,120.96L216.20,119.90"></path>
      </g>
      <g style="stroke:#000000;stroke-width:0.529">
        <path d="M172.97,136.06L172.98,136.70L173.00,136.74L173.11,136.81L174.02,137.20"></path>
        <path d="M199.10,126.94L211.26,121.81L212.48,121.39L213.89,121.11L215.42,120.96L216.98,120.96L218.20,121.08"></path>
        <path d="M219.58,69.89L218.46,71.32L218.39,71.42L213.26,80.66"></path>
      </g>
    </g>
    <g id="Actor_1.5">
      <g style="stroke:#000000;stroke-width:0.176">
        <path d="M281.46,54.65L281.54,54.52"></path>
        <path d="M294.18,46.41L300.97,43.99L302.06,43.78L303.08,43.93"></path>
        <path d="M300.95,47.09L301.14,47.02L301.65,47.02L302.10,47.20L302.47,47.55L302.73,48.04L302.86,48.65L302.86,49.34L302.73,50.03"></path>
      </g>
      <g style="stroke:#000000;stroke-width:0.529">
        <path d="M279.81,53.96L280.25,53.21"></path>
        <path d="M292.53,45.72L299.32,43.30L300.41,43.08L301.43,43.23L303.08,43.93L303.95,44.44L304.63,45.28L305.08,46.40L305.26,47.73L305.17,49.19L304.82,50.69L304.74,50.88"></path>
        <path d="M301.08,49.33L301.21,48.64L301.21,47.95L301.08,47.34L300.95,47.09L300.60,47.21L300.07,47.56L299.59,48.06L299.25,48.56"></path>
      </g>
    </g>
    <g id="Actor_1.6">
      <g style="stroke:#000000;stroke-width:0.176">
        <path d="M254.44,103.85L254.33,104.89L254.71,107.48L254.69,107.58L254.62,107.67L254.52,107.73L254.42,107.74L179.70,76.16"></path>
        <path d="M210.14,79.25L209.50,78.85L208.71,77.90L208.25,76.71L208.14,75.35L208.39,73.90L208.99,72.46L209.91,71.09L211.08,69.88L212.44,68.90L213.91,68.21L215.41,67.85L216.85,67.84L218.14,68.17L241.21,77.92L242.29,78.59L243.08,79.54L243.23,79.94"></path>
        <path d="M207.66,54.80L208.06,54.42L208.89,53.68L209.50,53.20L209.61,53.02L209.62,52.78L209.49,52.54L209.23,52.32L208.95,52.18L208.19,51.86"></path>
        <path d="M240.75,67.68L208.48,54.04"></path>
        <path d="M209.56,52.66L209.56,53.11"></path>
        <path d="M218.18,53.57L218.32,53.31L218.59,53.09L219.04,52.86L219.57,52.71L220.15,52.62L220.81,52.59L221.45,52.64L222.04,52.74L222.54,52.91L222.94,53.13L223.19,53.37L223.29,53.64L223.23,53.91L223.02,54.17L222.65,54.39L222.17,54.57L221.60,54.70L220.97,54.76L220.33,54.75L219.71,54.67L219.16,54.53L218.84,54.40L218.71,54.34L218.38,54.11L218.20,53.85L218.18,53.57"></path>
        <path d="M238.82,62.59L238.80,62.53"></path>
        <path d="M281.86,55.39L282.31,53.41L281.51,51.27L279.48,49.29L276.36,47.59L272.31,46.26L270.57,45.94"></path>
        <path d="M308.02,64.49L308.02,61.32L307.70,61.49L280.76,72.88"></path>
        <path d="M280.09,62.69L279.99,62.55L279.97,62.28L280.11,62.01L280.40,61.77L280.83,61.57L281.36,61.42L281.97,61.32L282.61,61.30L283.24,61.34L283.83,61.45L284.34,61.62L284.73,61.83L284.99,62.08L285.09,62.35L285.03,62.62L284.81,62.87L284.45,63.10L283.97,63.28L283.39,63.40L282.77,63.46L282.12,63.45L281.51,63.38L280.95,63.24L280.50,63.05L280.17,62.81L280.09,62.69"></path>
        <path d="M280.95,45.83L281.51,45.97L282.12,46.04L282.77,46.05L283.39,45.99L283.97,45.87L284.45,45.69L284.81,45.46L285.03,45.21L285.09,44.94L284.99,44.67L284.73,44.42L284.34,44.21L283.83,44.04L283.24,43.93L282.61,43.89L281.97,43.91L281.36,44.01L280.83,44.16L280.41,44.36L280.11,44.60L279.97,44.87L279.99,45.14L280.17,45.40L280.50,45.64L280.95,45.83"></path>
        <path d="M300.91,53.15L300.71,53.31L300.57,53.58L300.59,53.85L300.77,54.11L301.10,54.34L301.55,54.53L302.11,54.67L302.72,54.75L303.36,54.76L303.99,54.70L304.56,54.57L305.05,54.39L305.41,54.17L305.63,53.91L305.69,53.64L305.58,53.37L305.33,53.13L304.94,52.91L304.43,52.74L303.84,52.64L303.20,52.59L302.56,52.62L301.96,52.71L301.43,52.86L301.00,53.07L300.91,53.15"></path>
        <path d="M308.02,61.32L308.24,61.13L313.28,55.29L313.40,55.07L313.40,54.85"></path>
      </g>
      <g style="stroke:#000000;stroke-width:0.529">
        <path d="M206.76,54.42L207.66,54.80L207.28,55.18L206.91,55.42L206.41,55.63L205.90,55.74L205.41,55.72L205.08,55.62L185.43,72.90L182.72,74.63L179.76,75.86L179.66,75.99L179.67,76.13L180.41,76.95"></path>
        <path d="M209.83,78.46L210.14,79.25L210.57,79.52L233.64,89.27L234.93,89.60L236.37,89.59L237.87,89.23L239.35,88.54L240.71,87.56L241.88,86.35L242.79,84.99L243.39,83.54L243.65,82.09L243.54,80.73L243.23,79.94L242.80,79.68L219.73,69.93L218.44,69.59L217.00,69.61L215.50,69.97L214.03,70.66L212.67,71.64L211.50,72.84L210.58,74.21L209.98,75.66L209.73,77.10L209.83,78.46"></path>
        <path d="M230.24,39.91L210.10,48.42"></path>
        <path d="M256.19,108.49L256.30,109.24L256.28,109.34L256.22,109.42L256.11,109.48L256.01,109.50L255.28,109.20"></path>
        <path d="M307.88,64.57L308.02,64.49L308.24,64.30L313.28,58.46L313.40,58.24L313.40,54.85L313.29,54.63L313.06,54.43L312.73,54.26L266.28,34.63"></path>
        <path d="M275.84,59.89L277.22,59.38L280.10,57.59L281.83,55.56L281.86,55.39L281.51,54.44L279.48,52.46L276.36,50.76L272.31,49.43L271.85,49.34"></path>
        <path d="M281.79,75.61L305.18,65.72"></path>
      </g>
    </g>
    <g id="Actor_1.7">
      <g style="stroke:#000000;stroke-width:0.176">
        <path d="M272.92,52.16L281.60,55.83"></path>
        <path d="M305.10,65.76L305.18,65.79L305.18,64.68"></path>
        <path d="M305.94,63.73L307.26,63.17"></path>
        <path d="M305.18,63.26L305.52,63.40L305.70,63.50L305.86,63.64L306.01,63.82L306.14,64.03L306.24,64.25L313.07,83.01L313.20,83.32L328.73,116.30L328.96,116.83L339.71,145.24L340.00,146.23L340.14,147.22L340.11,148.15L339.92,148.98L339.58,149.67L339.09,150.19L338.50,150.50"></path>
        <path d="M306.38,71.63L306.65,71.51L306.66,71.52L307.76,74.08L307.49,74.20"></path>
        <path d="M340.01,148.57L341.33,148.01"></path>
      </g>
      <g style="stroke:#000000;stroke-width:0.529">
        <path d="M272.42,50.83L281.61,54.72"></path>
        <path d="M337.48,150.82L338.50,150.50L339.82,149.94L340.41,149.63L340.89,149.11L341.24,148.42L341.43,147.59L341.46,146.66L341.32,145.67L341.02,144.68L330.27,116.27L330.05,115.75L314.52,82.76L314.39,82.45L307.56,63.70L307.46,63.47L307.33,63.26L307.18,63.08L307.01,62.94L306.84,62.85L306.50,62.70L305.18,63.26L305.18,64.68"></path>
        <path d="M324.01,154.91L323.80,154.89"></path>
        <path d="M335.48,137.45L335.67,137.18L335.09,136.42"></path>
      </g>
    </g>
    <g id="Actor_1.8">
      <g style="stroke:#000000;stroke-width:0.176">
        <path d="M314.63,161.95L314.43,161.86"></path>
        <path d="M313.94,160.56L337.48,150.61"></path>
        <path d="M348.45,182.05L347.41,181.59L320.30,162.66L318.76,161.94L318.58,161.93"></path>
        <path d="M337.48,151.11L337.48,151.24L338.47,152.09L340.28,151.32L340.28,149.70"></path>
        <path d="M340.28,151.32L338.63,150.63"></path>
        <path d="M340.70,167.63L341.01,168.06L341.42,168.32L341.75,168.38"></path>
        <path d="M341.22,145.02L341.12,145.01"></path>
        <path d="M343.97,163.01L343.88,162.93L343.44,162.75L342.94,162.76L342.73,162.83"></path>
        <path d="M351.02,172.30L351.11,172.27L351.67,172.27L352.18,172.47L352.58,172.85L352.87,173.40L353.02,174.07L353.02,174.83L352.87,175.64L352.58,176.42L352.18,177.15L351.67,177.77L351.11,178.25L350.51,178.55L349.93,178.65L349.39,178.55L348.93,178.26L348.66,177.89"></path>
      </g>
      <g style="stroke:#000000;stroke-width:0.529">
        <path d="M313.48,159.36L335.83,149.91L337.48,150.61L337.48,151.11L338.63,150.63L338.63,150.44"></path>
        <path d="M314.43,161.86L314.63,161.95L314.89,161.97L317.01,161.80L318.58,161.93L318.65,161.96L345.76,180.90L346.81,181.35L348.45,182.05L349.64,182.08L350.89,181.68L352.13,180.88L352.86,180.14L353.28,179.72L354.25,178.29L354.99,176.68L355.46,174.98L355.61,173.32L355.44,171.79L351.63,155.19L351.25,154.01L350.69,153.02L349.97,152.24L341.49,145.17L341.22,145.02L341.11,144.98"></path>
        <path d="M342.73,162.83L342.41,162.94L341.90,163.28L341.42,163.77L341.01,164.37L340.70,165.05L340.51,165.76L340.44,166.46L340.51,167.10L340.70,167.63"></path>
        <path d="M349.74,177.32L349.46,177.55L348.87,177.85L348.66,177.89L348.58,177.79L348.37,177.18L348.29,176.45L348.37,175.66L348.58,174.86L348.93,174.10L349.39,173.42L349.93,172.87L350.51,172.48L351.02,172.30L351.22,172.70L351.37,173.38L351.37,174.14L351.22,174.94L350.94,175.73L350.53,176.46L350.03,177.08L349.74,177.32"></path>
      </g>
    </g>
    <g id="Actor_1.9">
      <g style="stroke:#000000;stroke-width:0.176">
        <path d="M262.43,24.44L262.36,24.52L262.07,24.67L260.93,25.19L247.74,30.76L245.07,31.82L241.59,33.06L230.18,36.68L229.27,36.93L229.12,36.94"></path>
        <path d="M327.51,251.17L244.58,32.01"></path>
        <path d="M345.33,243.64L262.39,24.48"></path>
      </g>
      <g style="stroke:#000000;stroke-width:0.529">
        <path d="M230.16,36.39L229.47,36.71L229.19,36.86L229.12,36.94L257.39,111.64"></path>
        <path d="M281.23,174.66L306.98,242.71L307.31,243.18L307.87,243.62L308.64,244.02L323.86,250.45L324.79,250.77L325.84,251.01L326.95,251.15L328.07,251.18L329.15,251.11L330.13,250.93L330.96,250.66L344.14,245.09L344.78,244.74L345.20,244.33L345.36,243.85L345.29,243.40L262.43,24.44L261.92,24.53L261.29,24.72"></path>
      </g>
    </g>
    <g id="Actor_1.10">
      <g style="stroke:#000000;stroke-width:0.176">
        <path d="M198.36,11.11L199.49,10.63"></path>
        <path d="M198.38,11.09L198.35,11.10"></path>
      </g>
      <g style="stroke:#000000;stroke-width:0.529">
        <path d="M200.78,12.07L200.76,12.03L199.61,10.70L199.58,10.67L199.54,10.65L199.51,10.63L199.47,10.63L199.44,10.64L198.38,11.09"></path>
      </g>
    </g>
    <g id="Actor_1.11">
      <g style="stroke:#000000;stroke-width:0.176">
        <path d="M253.34,168.90L252.04,169.45L251.92,169.49L251.78,169.52L251.62,169.54L251.47,169.54L251.31,169.52L251.17,169.49L251.05,169.45L230.62,160.82L230.52,160.76L230.45,160.71L230.42,160.64"></path>
        <path d="M251.55,174.82L251.55,169.54"></path>
      </g>
      <g style="stroke:#000000;stroke-width:0.529">
        <path d="M232.15,159.75L230.62,160.40L230.52,160.45L230.45,160.51L230.42,160.57L230.42,165.92L230.45,165.99L230.52,166.04L230.62,166.10L251.05,174.73L251.17,174.77L251.31,174.80L251.47,174.82L251.62,174.82L251.78,174.80L251.92,174.77L252.04,174.73L254.44,173.72"></path>
      </g>
    </g>
    <g id="Actor_1.12">
      <g style="stroke:#000000;stroke-width:0.176">
        <path d="M314.72,162.62L314.86,162.68L333.74,175.82L334.78,176.27"></path>
        <path d="M323.80,154.84L323.80,154.96L323.83,154.98"></path>
        <path d="M337.97,136.44L337.88,136.36"></path>
      </g>
      <g style="stroke:#000000;stroke-width:0.529">
        <path d="M337.94,175.43L337.22,175.90L335.97,176.30L334.78,176.27L333.13,175.57L332.09,175.12L314.93,163.18"></path>
        <path d="M323.80,154.84L323.80,154.47"></path>
        <path d="M338.22,150.58L338.27,150.78"></path>
        <path d="M337.99,136.65L337.99,136.56L337.97,136.44L337.84,136.26"></path>
      </g>
    </g>
    <g id="Actor_1.13">
      <g style="stroke:#000000;stroke-width:0.176">
        <path d="M109.32,158.95L192.25,9.89"></path>
        <path d="M129.89,167.65L154.41,123.58"></path>
        <path d="M180.34,76.97L180.37,76.91"></path>
        <path d="M181.32,75.20L207.68,27.83"></path>
        <path d="M192.57,8.86L192.29,9.52L192.22,10.26L192.37,11.06L192.73,11.86L193.28,12.64L204.69,25.91L205.41,26.61L206.10,27.10L206.26,27.21L207.19,27.68L208.17,27.98L209.13,28.11L210.04,28.06L210.84,27.84L224.03,22.26L224.69,21.87L225.17,21.33"></path>
      </g>
      <g style="stroke:#000000;stroke-width:0.529">
        <path d="M162.84,133.38L147.57,160.81L147.16,161.22L146.52,161.58L133.34,167.15L132.51,167.41L131.53,167.59L130.45,167.66L129.33,167.63L128.21,167.49L127.17,167.25L126.24,166.93L111.01,160.50L110.25,160.10L109.69,159.66L109.36,159.19L109.28,158.72L109.45,158.26L192.57,8.86L193.06,8.32L193.72,7.93L206.90,2.35L207.71,2.13L208.01,2.11"></path>
        <path d="M225.10,18.50L225.38,19.13L225.53,19.93L225.46,20.67L225.17,21.33L206.05,55.71"></path>
      </g>
    </g>
    <g id="Actor_7.1">
      <g style="stroke:#000000;stroke-width:0.176">
        <path d="M58.92,271.90L58.92,271.90L58.89,271.92L58.86,271.95L58.85,272.00L58.84,272.05L58.85,272.10L58.86,272.16L58.89,272.21L58.92,272.26L58.95,272.30L58.99,272.32L59.04,272.34L59.08,272.34L59.11,272.32L59.14,272.30L59.16,272.26L59.17,272.22"></path>
        <path d="M58.34,266.14L58.90,266.09L59.33,266.20L59.50,266.25L60.10,266.60L60.66,267.12L60.79,267.30L61.15,267.79L61.53,268.55L61.79,269.36L61.89,270.17L61.85,270.93L61.65,271.58L61.39,271.99L61.32,272.09L60.87,272.42"></path>
        <path d="M60.52,272.51L60.34,272.55L60.22,273.04"></path>
        <path d="M59.42,272.82L59.42,272.15"></path>
        <path d="M60.16,272.64L60.15,272.68L60.13,272.72L60.10,272.74L60.06,272.76L60.02,272.76L59.98,272.74L59.94,272.71L59.91,272.68L59.87,272.63L59.85,272.58L59.83,272.52L59.83,272.47L59.83,272.42L59.85,272.37L59.87,272.34L59.91,272.32L59.94,272.31L59.98,272.32L60.02,272.34L60.03,272.35"></path>
        <path d="M59.58,272.75L59.58,272.21"></path>
      </g>
      <g style="stroke:#000000;stroke-width:0.529">
        <path d="M57.63,270.43L57.68,270.55L58.13,271.26L58.66,271.85L58.77,272.42L59.42,272.82L59.58,272.75L59.58,272.89L60.22,273.04L60.42,272.95L60.52,272.51L60.87,272.42L61.07,272.34L61.52,272.00L61.85,271.50L62.05,270.84L62.09,270.09L61.98,269.28L61.73,268.47L61.35,267.71L60.86,267.04L60.30,266.52L59.70,266.16L59.10,266.01L58.53,266.06L58.34,266.14L57.85,266.39L57.47,266.83L57.21,267.43L57.11,268.15L57.15,268.94L57.35,269.76L57.63,270.43"></path>
        <path d="M59.04,271.99L59.04,272.02L59.06,272.07L59.08,272.13L59.11,272.18L59.15,272.21L59.17,272.22L59.17,272.21L59.17,272.19L59.17,272.16L59.16,272.10L59.14,272.05"></path>
        <path d="M60.16,272.63L60.16,272.64L60.14,272.63L60.10,272.59L60.07,272.55L60.05,272.49L60.03,272.44L60.03,272.38L60.03,272.35L60.06,272.37L60.10,272.42L60.13,272.47L60.15,272.52L60.16,272.58L60.16,272.63"></path>
      </g>
    </g>
    <g id="Actor_3.0">
      <g style="stroke:#000000;stroke-width:0.176">
        <path d="M57.24,268.69L57.31,268.12L57.50,267.64L57.79,267.28L57.97,267.15L58.16,267.06L58.60,267.00L59.07,267.10L59.44,267.30L59.54,267.36L59.99,267.75L60.38,268.25L60.70,268.84L60.92,269.47L61.02,270.11L61.01,270.72L60.89,271.20L60.88,271.25L60.64,271.67L60.31,271.96L59.90,272.10L59.44,272.08L59.19,271.99L58.97,271.91L58.50,271.58"></path>
        <path d="M60.13,272.26L60.57,272.10L60.94,271.79L61.20,271.32L61.34,270.75L61.34,270.43L61.35,270.09L61.24,269.40L61.00,268.71L60.66,268.07L60.23,267.52L59.98,267.31L59.74,267.09L59.23,266.82L58.72,266.71L58.24,266.78"></path>
        <path d="M58.46,266.71L58.67,266.64L59.17,266.66L59.68,266.85L60.19,267.21L60.65,267.70L60.89,268.07L61.04,268.30L61.33,268.97L61.51,269.66L61.56,270.34L61.48,270.96L61.28,271.49L60.96,271.88L60.73,272.02"></path>
      </g>
      <g style="stroke:#000000;stroke-width:0.529">
        <path d="M58.46,266.71L58.24,266.78L58.03,266.87L57.84,267.01L57.52,267.40L57.32,267.93L57.24,268.55L57.24,268.69L57.29,269.32L57.45,269.96L57.72,270.58L58.08,271.13L58.50,271.58L58.61,271.69L59.12,272.04L59.63,272.23L60.13,272.26L60.56,272.12L60.73,272.02"></path>
      </g>
    </g>
    <g id="Actor_4.0">
      <g style="stroke:#000000;stroke-width:0.176">
        <path d="M237.02,40.35L237.04,39.80L237.16,39.32L237.26,39.11L237.39,38.94L237.69,38.67L238.07,38.55L238.49,38.58L238.92,38.75L239.34,39.05L239.73,39.47L240.05,39.98L240.29,40.54L240.44,41.13L240.48,41.69L240.40,42.21L240.23,42.65L239.96,42.97L239.62,43.16L239.22,43.21L238.79,43.12L238.36,42.88L237.95,42.51"></path>
        <path d="M240.11,43.46L240.52,43.23L240.84,42.85L241.05,42.33L241.13,41.71L241.11,41.37L241.09,41.03L240.92,40.34L240.63,39.66L240.24,39.06L239.79,38.56L239.28,38.20L238.77,38.00L238.27,37.97L237.82,38.12"></path>
        <path d="M238.40,37.89L238.79,37.85L239.30,37.96L239.82,38.25L240.30,38.68L240.73,39.23L241.07,39.88L241.30,40.57L241.41,41.26L241.39,41.91L241.24,42.48L240.98,42.94L240.66,43.21"></path>
      </g>
      <g style="stroke:#000000;stroke-width:0.529">
        <path d="M240.66,43.21L240.61,43.25L240.11,43.46L239.64,43.52L239.13,43.40L238.61,43.12L238.13,42.69L237.95,42.51L237.59,42.05L237.31,41.51L237.11,40.93L237.02,40.35L237.02,40.11L237.04,39.45L237.19,38.88L237.31,38.64L237.46,38.43L237.82,38.12L238.32,37.90L238.40,37.89"></path>
      </g>
    </g>
    <g id="Actor_4.1">
      <g style="stroke:#000000;stroke-width:0.176">
        <path d="M193.80,23.98L194.23,24.27L194.66,24.44L195.07,24.45L195.45,24.33L195.75,24.06L195.97,23.67L196.09,23.19L196.10,22.64L196.00,22.05L195.80,21.48L195.52,20.94L195.16,20.48L194.75,20.12L194.32,19.89L193.89,19.80L193.49,19.85L193.31,19.93L193.15,20.05L192.89,20.38L192.71,20.82L192.65,21.34"></path>
        <path d="M193.65,19.28L194.12,19.21L194.63,19.32L195.15,19.60L195.63,20.02L196.06,20.57L196.41,21.21L196.64,21.90L196.76,22.59L196.75,22.92L196.74,23.25L196.60,23.83L196.34,24.29L195.98,24.61L195.54,24.76"></path>
        <path d="M196.22,24.49L196.45,24.35L196.77,23.96L196.97,23.43L197.05,22.81L197.02,22.40L197.00,22.13L196.82,21.43L196.53,20.77L196.38,20.55L196.14,20.17L195.68,19.67L195.17,19.32L194.66,19.13L194.16,19.11L193.94,19.18"></path>
      </g>
      <g style="stroke:#000000;stroke-width:0.529">
        <path d="M193.94,19.18L193.65,19.28L193.44,19.38L193.24,19.52L192.93,19.91L192.73,20.43L192.65,21.05L192.65,21.34L192.69,21.91L192.84,22.50L193.09,23.06L193.41,23.56L193.80,23.98L194.02,24.19L194.53,24.54L195.04,24.74L195.54,24.76L196.05,24.58L196.22,24.49"></path>
      </g>
    </g>
    <g id="Actor_6.0">
      <g style="stroke:#000000;stroke-width:0.176">
        <path d="M235.84,31.33L235.98,31.31L236.28,31.23L236.70,31.10L237.24,30.91L237.86,30.69L238.51,30.45L239.16,30.20L239.76,29.96L240.29,29.74L240.69,29.56L240.96,29.43L241.07,29.36L241.46,30.41"></path>
        <path d="M237.14,30.78L236.93,30.88L236.80,30.94L236.79,30.97L236.88,30.96L236.95,30.94L237.06,30.91L237.34,30.82L237.68,30.71L238.07,30.56L238.49,30.41L238.90,30.25L239.07,30.19L239.29,30.10L239.62,29.96L239.88,29.84L239.97,29.80L240.05,29.76L240.12,29.71L240.08,29.70L239.95,29.73L239.71,29.80L239.40,29.91L239.03,30.04L238.62,30.18L238.20,30.34L237.80,30.50L237.44,30.65L237.14,30.78"></path>
        <path d="M236.79,30.97L236.80,30.99"></path>
        <path d="M240.12,29.71L240.13,29.73"></path>
        <path d="M246.00,27.27L245.90,27.34L245.63,27.48L245.22,27.66L244.70,27.87L244.10,28.12L243.45,28.37L242.80,28.61L242.18,28.83L241.64,29.01L241.21,29.15L240.92,29.23L240.78,29.24"></path>
        <path d="M241.73,28.88L241.74,28.86L241.86,28.79L242.08,28.69L242.38,28.56L242.74,28.41L243.14,28.25L243.56,28.10L243.97,27.95L244.34,27.82L244.65,27.72L244.88,27.65L245.02,27.62L245.06,27.62L244.99,27.67L244.82,27.76L244.68,27.82L244.56,27.87L244.23,28.01L243.84,28.16L243.43,28.32L243.01,28.48L242.62,28.62L242.28,28.74L242.00,28.82L241.81,28.87L241.73,28.88L241.73,28.90"></path>
        <path d="M240.84,29.38L241.01,29.34L241.07,29.36"></path>
        <path d="M245.06,27.62L245.07,27.64"></path>
      </g>
      <g style="stroke:#000000;stroke-width:0.529">
        <path d="M246.40,28.33L246.00,27.27L245.95,27.26L245.73,27.31L245.37,27.41L244.88,27.57L244.30,27.78L243.66,28.01L243.00,28.26L242.37,28.51L241.80,28.74L241.34,28.94L241.00,29.09L240.81,29.20L240.78,29.24L240.84,29.38L240.79,29.39L240.43,29.50L239.94,29.66L239.36,29.86L238.88,30.04L238.72,30.10L238.06,30.34L237.43,30.59L236.87,30.82L236.40,31.02L236.06,31.18L235.87,31.29L235.84,31.33L236.21,32.29"></path>
      </g>
    </g>
    <g id="Actor_7.2">
      <g style="stroke:#000000;stroke-width:0.176">
        <path d="M239.02,43.44L239.01,43.48L238.99,43.52L238.97,43.54L238.93,43.56L238.89,43.56L238.85,43.54L238.81,43.52L238.77,43.48L238.74,43.43L238.72,43.38L238.70,43.32L238.70,43.27L238.70,43.22L238.72,43.18"></path>
        <path d="M238.19,37.36L238.76,37.31L239.36,37.47L239.96,37.82L240.52,38.34L241.01,39.01L241.39,39.77L241.64,40.58L241.75,41.39L241.70,42.15L241.51,42.80L241.18,43.31L240.73,43.64"></path>
        <path d="M240.38,43.72L240.19,43.77L240.08,44.25"></path>
        <path d="M239.27,44.04L239.27,43.44"></path>
        <path d="M240.01,43.86L240.00,43.90L239.98,43.93L239.96,43.96L239.92,43.97L239.88,43.97L239.84,43.96L239.80,43.93L239.76,43.89L239.73,43.85L239.71,43.79L239.69,43.74L239.69,43.68L239.69,43.63L239.71,43.59L239.73,43.56L239.76,43.54L239.80,43.53L239.84,43.54L239.88,43.56L239.89,43.56"></path>
        <path d="M239.44,43.47L239.44,43.97"></path>
      </g>
      <g style="stroke:#000000;stroke-width:0.529">
        <path d="M238.37,42.90L238.52,43.06L238.63,43.64L239.27,44.04L239.44,43.97L239.44,44.11L240.08,44.25L240.28,44.17L240.38,43.72L240.73,43.64L240.93,43.55L241.37,43.22L241.71,42.72L241.86,42.21L241.90,42.06L241.95,41.31L241.84,40.50L241.59,39.69L241.20,38.92L240.72,38.26L240.15,37.73L239.78,37.52L239.55,37.38L238.95,37.23L238.39,37.28L238.19,37.36L237.70,37.61L237.32,38.05L237.07,38.65L236.96,39.37L237.01,40.16L237.02,40.23"></path>
        <path d="M240.01,43.80L240.01,43.85L240.01,43.86L240.00,43.85L239.96,43.81L239.93,43.76L239.90,43.71L239.89,43.66L239.88,43.60L239.89,43.56L239.92,43.59L239.96,43.64L239.98,43.69L240.00,43.74L240.01,43.80"></path>
        <path d="M238.91,43.28L238.91,43.29L238.94,43.35L238.97,43.39L239.01,43.43L239.02,43.44L239.02,43.43L239.03,43.41L239.02,43.38L239.02,43.34"></path>
      </g>
    </g>
    <g id="Actor_2.1">
      <g style="stroke:#000000;stroke-width:0.176">
        <path d="M49.44,271.13L111.00,160.49"></path>
        <path d="M61.63,266.31L61.32,265.83L60.40,264.85L59.39,264.15L58.36,263.77L57.37,263.73L56.49,264.05L55.76,264.69L55.25,265.62L54.97,266.77L54.95,268.09L55.18,269.48L55.66,270.85L56.35,272.13L57.21,273.22L58.19,274.07L59.22,274.62L60.23,274.83L61.18,274.69L61.68,274.38"></path>
        <path d="M57.20,263.79L56.59,264.34L56.30,264.77L56.07,265.27L55.79,266.42L55.77,267.74L55.94,268.71"></path>
        <path d="M67.34,278.70L129.15,167.61"></path>
      </g>
      <g style="stroke:#000000;stroke-width:0.529">
        <path d="M143.86,162.70L82.77,272.49L82.57,272.70L82.25,272.87L69.06,278.44L68.65,278.58L68.16,278.67L67.62,278.70L67.06,278.69L66.50,278.62L65.98,278.50L65.51,278.34L50.29,271.91L49.91,271.71L49.63,271.49L49.46,271.25L49.42,271.01L49.51,270.79L110.90,160.44"></path>
        <path d="M55.94,268.71L56.01,269.13L56.48,270.50L57.18,271.78L58.04,272.87L59.01,273.72L60.04,274.27L61.06,274.48L61.68,274.38L61.99,274.20L62.61,273.42L63.01,272.36L63.16,271.12L63.05,269.76L62.69,268.36L62.10,267.03L61.63,266.31"></path>
      </g>
    </g>
    <g id="Actor_2.2">
      <g style="stroke:#000000;stroke-width:0.176">
        <path d="M30.03,276.10L31.17,277.10L32.79,277.96L34.35,278.62L32.79,277.96"></path>
        <path d="M34.35,278.62L37.47,279.94L35.91,279.28"></path>
        <path d="M37.47,279.94L42.16,281.92L40.59,281.26"></path>
        <path d="M39.41,270.89L67.42,282.73"></path>
        <path d="M39.41,269.51L53.54,263.54"></path>
        <path d="M42.16,281.92L45.28,283.24L43.72,282.58"></path>
        <path d="M45.28,283.24L48.40,284.56L46.84,283.90"></path>
        <path d="M48.40,284.56L53.09,286.53L51.52,285.88"></path>
        <path d="M53.09,286.53L56.21,287.85L54.65,287.19"></path>
        <path d="M56.21,287.85L60.81,289.80L59.33,289.17"></path>
        <path d="M60.81,289.80L62.85,290.49L65.20,290.96L64.01,290.72"></path>
        <path d="M65.20,290.96L67.74,291.21L70.35,291.21L72.89,290.96L74.94,290.55L73.38,290.86"></path>
        <path d="M70.67,282.73L92.09,273.67"></path>
        <path d="M74.94,290.55L75.24,290.49L77.28,289.80L79.63,288.81L78.07,289.47"></path>
        <path d="M79.63,288.81L82.75,287.49L81.19,288.15"></path>
        <path d="M82.75,287.49L87.43,285.51L85.87,286.17"></path>
        <path d="M92.09,272.30L84.63,269.15"></path>
        <path d="M87.43,285.51L90.56,284.19L89.00,284.85"></path>
        <path d="M90.56,284.19L93.68,282.87L92.12,283.53"></path>
        <path d="M93.68,282.87L98.36,280.89L96.80,281.55"></path>
        <path d="M98.36,280.89L98.71,280.74L100.33,279.88L101.47,278.89"></path>
      </g>
      <g style="stroke:#000000;stroke-width:0.529">
        <path d="M85.23,268.08L98.71,273.78L100.33,274.64L101.47,275.63L102.03,276.68L102.05,276.71L102.05,277.81L101.47,278.89L100.64,280.26L99.59,281.18L98.09,281.97L76.67,291.03L74.78,291.66L72.61,292.10L70.25,292.33L67.84,292.33L65.58,292.11L65.49,292.10L63.31,291.66L61.42,291.03L33.41,279.19L31.91,278.39L30.86,277.47L30.03,276.10L29.45,275.03L29.45,273.92L30.03,272.85L31.17,271.85L32.79,270.99L54.21,261.94L54.48,261.85"></path>
      </g>
    </g>
    <g id="Actor_2.3">
      <g style="stroke:#000000;stroke-width:0.176">
        <path d="M60.07,266.38L60.04,266.36L60.02,266.35"></path>
        <path d="M60.40,266.61L60.54,266.71L60.82,267.00"></path>
        <path d="M61.25,267.57L61.01,267.20L60.88,267.06"></path>
        <path d="M61.38,267.78L61.40,267.80L61.42,267.85"></path>
      </g>
    </g>
    <g id="Actor_6.1">
      <g style="stroke:#000000;stroke-width:0.176">
        <path d="M212.32,22.67L213.65,20.29L213.31,20.64L212.84,20.88L212.27,20.99L211.64,20.97L210.99,20.81L210.35,20.53L209.77,20.15L209.28,19.68L208.91,19.16L208.70,18.62L208.64,18.09L208.75,17.61L207.66,19.57"></path>
        <path d="M208.75,17.61L209.02,17.21L209.42,16.91L209.94,16.73L210.55,16.69L211.20,16.78L211.85,17.00L212.22,17.20L212.46,17.33L213.00,17.76L213.43,18.26L213.73,18.80L213.86,19.34L213.84,19.84L213.65,20.29"></path>
        <path d="M209.68,18.83L209.76,19.04L209.99,19.38L210.31,19.67L210.68,19.92L210.85,20.00L211.08,20.10L211.50,20.20L211.91,20.21L212.27,20.14L212.57,19.99L212.78,19.76L212.90,19.48L212.92,19.16L212.83,18.81L212.64,18.47L212.37,18.15L212.03,17.88L211.63,17.67L211.22,17.52L210.80,17.47L210.42,17.50L210.08,17.61L209.83,17.80L209.66,18.06L209.59,18.36L209.62,18.70L209.68,18.83"></path>
        <path d="M212.34,14.78L212.61,15.45L212.91,16.85L212.91,16.92"></path>
        <path d="M212.62,17.46L212.94,16.88"></path>
        <path d="M218.59,18.20L218.25,18.55L217.78,18.79L217.21,18.91L216.58,18.88L215.93,18.73L215.29,18.45L214.70,18.06L214.22,17.59L213.85,17.07L213.64,16.53L213.58,16.00L213.69,15.52"></path>
        <path d="M214.93,17.29L215.24,17.59L215.42,17.70L215.62,17.83L216.02,18.01L216.44,18.11L216.84,18.13L217.21,18.06L217.50,17.90L217.72,17.68L217.84,17.39L217.86,17.07L217.77,16.73L217.58,16.39L217.31,16.07L216.96,15.79L216.57,15.58L216.16,15.44L215.74,15.38L215.36,15.41L215.02,15.52L214.76,15.71L214.59,15.97L214.53,16.28L214.56,16.61L214.67,16.88L214.70,16.96L214.93,17.29"></path>
      </g>
      <g style="stroke:#000000;stroke-width:0.529">
        <path d="M212.94,16.88L212.92,16.33L212.68,15.22L212.49,14.74"></path>
        <path d="M212.94,16.88L213.69,15.52L213.95,15.12L214.36,14.82L214.88,14.65L215.49,14.60L216.13,14.69L216.79,14.91L217.40,15.25L217.94,15.68L218.37,16.18L218.66,16.71L218.80,17.25L218.77,17.76L218.59,18.20L217.09,20.90"></path>
      </g>
    </g>
    <g id="Actor_1.14">
      <g style="stroke:#000000;stroke-width:0.176">
        <path d="M209.73,6.30L210.70,5.90"></path>
      </g>
      <g style="stroke:#000000;stroke-width:0.529">
        <path d="M209.72,6.29L210.65,5.90L210.68,5.90L210.71,5.90L210.75,5.91L210.79,5.94L210.82,5.97L211.96,7.30L211.99,7.33"></path>
      </g>
    </g>
    <g id="Actor_1.15">
      <g style="stroke:#000000;stroke-width:0.176">
        <path d="M193.33,10.23L193.99,9.04"></path>
        <path d="M224.83,19.55L224.47,19.96L223.97,20.25L210.79,25.82L210.19,25.99L209.51,26.03L208.78,25.93L208.05,25.70L207.35,25.35L206.72,24.90L206.18,24.38L194.76,11.10L194.35,10.52L194.08,9.92L193.97,9.32L194.02,8.77L194.23,8.27"></path>
        <path d="M198.68,11.48L198.11,10.82L199.59,10.19L199.32,10.69"></path>
        <path d="M199.59,10.19L201.09,11.93L199.86,12.45"></path>
        <path d="M206.58,17.26L206.61,16.97L206.81,16.51L207.15,16.13L207.61,15.85L212.88,13.63L213.45,13.47L214.08,13.43L214.76,13.52L215.44,13.74L216.09,14.06L216.69,14.48L217.19,14.97L217.47,15.30"></path>
        <path d="M207.76,27.00L208.42,25.82"></path>
        <path d="M210.05,6.68L209.48,6.01L210.96,5.39L210.68,5.90"></path>
        <path d="M211.23,7.65L212.46,7.13L210.96,5.39"></path>
        <path d="M215.10,13.63L214.45,14.79"></path>
        <path d="M219.62,18.89L218.98,20.03"></path>
        <path d="M218.63,16.65L218.90,16.96L219.29,17.51L219.54,18.07L219.64,18.63L219.59,19.15L219.39,19.61L219.05,19.99L218.96,20.04"></path>
      </g>
      <g style="stroke:#000000;stroke-width:0.529">
        <path d="M193.39,10.94L193.42,11.11L193.69,11.71L194.10,12.29L205.52,25.56L206.06,26.09L206.69,26.54L207.39,26.89L208.12,27.11L208.85,27.21L209.53,27.18L210.13,27.01L223.31,21.43L223.81,21.14L224.17,20.74L224.83,19.55L225.05,19.06L225.10,18.50L224.99,17.90L224.72,17.30L224.30,16.72L220.15,11.89L212.89,3.44L212.35,2.92L211.71,2.47L211.01,2.12L210.28,1.89L209.56,1.79L208.88,1.83L208.27,2.00L195.09,7.57L194.60,7.87L194.23,8.27L193.57,9.46L193.36,9.95L193.31,10.51L193.39,10.94"></path>
        <path d="M199.86,12.45L199.61,12.56L198.68,11.48"></path>
        <path d="M218.45,18.44L218.63,18.69L218.88,19.25L218.98,19.81L218.96,20.04L218.59,20.26L213.32,22.49L212.75,22.65L212.12,22.68L211.44,22.59L210.76,22.38L210.11,22.05L209.52,21.64L209.01,21.14L207.66,19.57L207.30,19.15L206.91,18.61L206.66,18.05L206.56,17.49L206.58,17.26L206.95,17.04L212.22,14.81L212.79,14.65L213.42,14.62L214.10,14.71L214.41,14.81"></path>
        <path d="M210.05,6.68L210.98,7.76L211.23,7.65"></path>
      </g>
    </g>
    <g id="Actor_1.16">
      <g style="stroke:#000000;stroke-width:0.176">
        <path d="M215.98,122.02L214.58,121.04"></path>
      </g>
      <g style="stroke:#000000;stroke-width:0.529">
        <path d="M215.58,122.19L214.01,121.09"></path>
      </g>
    </g>
    <g id="Actor_1.17">
      <g style="stroke:#000000;stroke-width:0.176">
        <path d="M260.68,23.11L260.63,23.17L260.41,23.28L260.05,23.46L259.55,23.67L246.37,29.24L245.77,29.49L245.09,29.76L244.36,30.04L243.63,30.31L242.93,30.57L242.30,30.79L241.76,30.97L230.34,34.59L229.93,34.71L229.66,34.78L229.55,34.79"></path>
        <path d="M235.03,32.60L235.04,32.62"></path>
        <path d="M236.12,32.07L235.59,32.30L235.25,32.46L235.05,32.57L235.00,32.62L235.11,32.62L235.36,32.56L235.75,32.44L237.46,31.90L237.96,31.73L238.55,31.53L239.21,31.29L239.89,31.03L240.56,30.77L241.20,30.52L241.76,30.29L247.04,28.06L247.50,27.86L247.84,27.70L248.04,27.59L248.09,27.54L247.98,27.54L247.73,27.60L247.35,27.72L246.30,28.05"></path>
        <path d="M243.57,29.97L242.18,30.55L243.68,30.08L243.72,30.06L243.67,29.93L243.57,29.97"></path>
        <path d="M244.66,31.92L244.00,30.18"></path>
        <path d="M243.67,29.93L245.16,29.45L243.72,30.06"></path>
        <path d="M254.50,25.35L253.55,25.75L255.05,25.27L255.09,25.26L255.04,25.12L254.50,25.35"></path>
        <path d="M255.09,25.26L256.53,24.65L255.04,25.12"></path>
        <path d="M260.65,23.14L261.31,24.88"></path>
      </g>
      <g style="stroke:#000000;stroke-width:0.529">
        <path d="M246.18,27.74L247.29,27.33L247.93,27.11L248.47,26.93L259.88,23.31L260.30,23.18L260.57,23.11L260.68,23.11L261.34,24.85L261.29,24.91L261.07,25.03L260.71,25.20L260.21,25.41L247.03,30.98L246.35,31.26L245.75,31.50L245.02,31.78L244.29,32.06L243.59,32.31L242.96,32.53L242.42,32.71L231.00,36.33L230.59,36.46L230.32,36.52L230.21,36.53L229.55,34.79L229.60,34.73L229.81,34.61L230.18,34.44L230.67,34.22L236.08,31.94"></path>
      </g>
    </g>
    <g id="Actor_1.18">
      <g style="stroke:#000000;stroke-width:0.176">
        <path d="M177.69,138.36L177.72,138.42L177.79,138.48L177.89,138.53L198.32,147.17L198.44,147.21L198.58,147.24L198.74,147.25L198.89,147.25L199.05,147.24L199.19,147.21L199.31,147.17L200.61,146.62"></path>
        <path d="M198.82,147.25L198.82,152.53"></path>
        <path d="M204.25,145.08L237.91,130.85"></path>
        <path d="M204.14,139.63L204.35,139.62L205.10,139.67L205.80,139.80L206.40,139.99L206.86,140.25L207.16,140.54L207.28,140.86L207.21,141.18L206.95,141.48L206.53,141.75L205.96,141.96L205.28,142.10L204.54,142.17L204.25,142.17"></path>
      </g>
      <g style="stroke:#000000;stroke-width:0.529">
        <path d="M239.07,135.64L199.31,152.45L199.19,152.49L199.05,152.52L198.89,152.53L198.74,152.53L198.58,152.52L198.44,152.49L198.32,152.45L177.89,143.81L177.79,143.76L177.72,143.70L177.69,143.64L177.69,138.29L177.72,138.22L177.79,138.17L177.89,138.11L179.42,137.47"></path>
        <path d="M199.47,128.99L221.76,119.57"></path>
      </g>
    </g>
    <g id="Actor_1.19">
      <g style="stroke:#000000;stroke-width:0.176">
        <path d="M167.66,81.14L179.16,77.48L180.48,76.93"></path>
        <path d="M174.02,136.61L174.02,137.72L172.20,136.95L172.97,136.63"></path>
        <path d="M172.20,136.95L172.20,135.69L173.52,136.24"></path>
        <path d="M178.88,137.70L178.89,137.46L178.96,137.31L179.09,137.25L179.18,137.26L179.33,137.36L179.45,137.52L179.53,137.73L179.54,137.84L180.19,138.11"></path>
        <path d="M179.16,77.48L253.07,108.72L264.58,122.10L265.05,122.72L265.46,123.41L265.79,124.15L282.85,169.26L283.15,170.25L283.29,171.24L283.26,172.18L283.07,173.01L282.72,173.70L282.24,174.21L281.65,174.52"></path>
        <path d="M202.31,150.17L202.58,149.95L202.77,149.63L202.89,149.23L202.94,148.78L202.94,141.00L202.90,140.56L202.80,140.10L202.64,139.66L194.03,120.27L193.50,118.78L193.20,117.27L193.15,115.82L193.35,114.50L193.80,113.37L198.14,105.57L198.75,104.75L199.51,104.19L200.46,103.91"></path>
        <path d="M193.17,116.55L194.49,115.99"></path>
        <path d="M200.43,146.28L200.27,146.18L200.11,146.18L200.01,146.29L199.97,146.47"></path>
        <path d="M202.45,150.06L203.76,149.50"></path>
        <path d="M204.17,139.77L202.85,140.33"></path>
        <path d="M232.93,160.40L232.27,160.12L232.26,160.02L232.18,159.81L232.07,159.65L231.91,159.55L231.75,159.55L231.64,159.66L231.61,159.98"></path>
        <path d="M253.16,168.56L253.00,168.46L252.84,168.47L252.74,168.58L252.70,168.76"></path>
        <path d="M253.07,108.72L254.39,108.16"></path>
        <path d="M258.84,173.04L258.22,173.31L260.03,174.07L260.03,172.96"></path>
        <path d="M258.22,173.31L258.22,172.04L259.54,172.60"></path>
        <path d="M283.16,172.59L284.48,172.03"></path>
      </g>
      <g style="stroke:#000000;stroke-width:0.529">
        <path d="M232.93,160.40L252.70,168.76L253.16,168.56L253.32,168.82L253.36,169.03L253.36,172.62L253.85,173.47L266.32,178.74L266.89,178.91L267.44,178.96L267.96,178.86L281.65,174.52L282.97,173.97L283.56,173.65L284.04,173.14L284.39,172.45L284.58,171.62L284.61,170.68L284.47,169.70L284.17,168.71L267.10,123.60L266.77,122.85L266.37,122.16L265.90,121.54L254.39,108.16L180.48,76.93L168.97,80.58L167.19,81.36L166.78,81.71L166.45,82.17L149.38,112.85L149.09,113.60L148.95,114.47L148.97,115.42L149.17,116.42L149.51,117.40L149.99,118.32L150.59,119.13L164.27,135.04L164.79,135.57L165.34,136.00L165.92,136.30L177.69,141.28"></path>
        <path d="M174.02,136.61L174.02,136.45L173.52,136.24"></path>
        <path d="M180.19,138.11L199.97,146.47L200.43,146.28L200.59,146.54L200.63,146.75L200.63,149.92L201.29,150.20L201.65,150.30L202.00,150.29L203.63,149.61L203.89,149.39L204.09,149.07L204.21,148.67L204.25,148.22L204.25,140.44L204.22,140.00L204.12,139.55L203.95,139.10L195.35,119.71L194.81,118.22L194.52,116.72L194.47,115.26L194.67,113.94L195.12,112.81L199.46,105.01L200.06,104.20L200.46,103.91L201.39,103.91L202.42,104.21L229.82,115.79L230.84,116.36L231.83,117.19L232.72,118.23L233.49,119.44L234.10,120.76L238.44,132.23L238.88,133.75L239.09,135.23L239.04,136.65L238.74,137.90L238.20,138.94L229.60,151.05L229.43,151.36L229.33,151.73L229.30,152.14L229.30,159.92L229.34,160.41L229.46,160.91L229.66,161.39L229.92,161.84L230.23,162.22L230.42,162.38"></path>
        <path d="M260.03,172.96L260.03,172.81L259.54,172.60"></path>
      </g>
    </g>
    <g id="Actor_1.20">
      <g style="stroke:#000000;stroke-width:0.176">
        <path d="M212.65,123.42L210.68,122.05"></path>
      </g>
      <g style="stroke:#000000;stroke-width:0.529">
        <path d="M212.24,123.59L210.28,122.22"></path>
      </g>
    </g>
    <g id="Actor_2.4">
      <g style="stroke:#000000;stroke-width:0.176">
        <path d="M296.65,252.67L298.22,253.33L294.32,251.68L292.69,250.82L291.56,249.83"></path>
        <path d="M298.22,253.33L302.90,255.31L301.34,254.65"></path>
        <path d="M300.93,244.61L328.95,256.45"></path>
        <path d="M300.93,243.24L306.32,240.96"></path>
        <path d="M302.90,255.31L306.02,256.63L304.46,255.97"></path>
        <path d="M306.02,256.63L309.14,257.95L307.58,257.29"></path>
        <path d="M309.14,257.95L313.83,259.93L312.27,259.27"></path>
        <path d="M313.83,259.93L316.95,261.25L315.39,260.59"></path>
        <path d="M316.95,261.25L321.64,263.23L320.07,262.57"></path>
        <path d="M321.64,263.23L322.33,263.52L324.37,264.21L326.72,264.69L329.27,264.93L331.87,264.93L334.42,264.69L336.77,264.21L337.25,264.05L336.77,264.21"></path>
        <path d="M324.37,264.21L323.20,263.81"></path>
        <path d="M332.19,256.45L353.62,247.40"></path>
        <path d="M337.25,264.05L338.81,263.52L341.93,262.20L340.37,262.86"></path>
        <path d="M341.93,262.20L345.06,260.88L343.49,261.54"></path>
        <path d="M353.62,246.02L344.88,242.33"></path>
        <path d="M345.06,260.88L349.74,258.90L348.18,259.56"></path>
        <path d="M349.74,258.90L352.86,257.58L351.30,258.24"></path>
        <path d="M352.86,257.58L355.99,256.26L354.42,256.92"></path>
        <path d="M355.99,256.26L360.23,254.47L359.11,254.94"></path>
        <path d="M360.23,254.47L361.86,253.61L362.99,252.61"></path>
      </g>
      <g style="stroke:#000000;stroke-width:0.529">
        <path d="M305.89,239.82L294.32,244.72L292.69,245.58L291.56,246.57L290.98,247.65L290.98,248.75L291.56,249.83L292.38,251.20L293.43,252.11L294.93,252.91L322.95,264.75L324.84,265.39L327.01,265.83L329.36,266.06L331.78,266.06L334.13,265.83L336.30,265.39L338.19,264.75L359.61,255.70L361.12,254.90L362.17,253.98L362.99,252.61L363.57,251.54L363.57,250.44L362.99,249.36L361.86,248.36L360.23,247.50L344.29,240.76"></path>
      </g>
    </g>
    <g id="Actor_1.21">
      <g style="stroke:#000000;stroke-width:0.176"></g>
      <g style="stroke:#000000;stroke-width:0.529">
        <path d="M311.46,74.40L310.11,65.98L309.96,64.37L310.05,62.94L310.35,61.86"></path>
      </g>
    </g>
    <g></g>
    <g></g>
    <g id="paperID" visibility="hidden" opacity="0.00" transform="scale(0.000100)">
      <path style="stroke:#000000;stroke-width:0.500;fill:#e6e6e6;fill-rule:evenodd" d="M-2000.00,-2000.00L2420.00,-2000.00L2420.00,2297.00L-2000.00,2297.00zM0.00,0.00L420.00,0.00L420.00,297.00L0.00,297.00z"></path>
      <path style="fill:#000000;fill-opacity:0.118" d="M3.00,297.00L420.00,297.00L420.00,3.00L423.00,3.00L423.00,300.00L3.00,300.00z"></path>
    </g>
    <g>
      <g>
        <path style="stroke:#000000;stroke-width:0.353;fill:#f0f0ff" d="M432.41,102.48L632.23,102.48L632.23,108.90L432.41,108.90z"></path>
        <text xml:space="preserve" fill="#000000" stroke-width="0" x="434.88" y="107.42" font-size="4.53" opacity="1.00" font-family="MS Shell Dlg" font-weight="bold">Pos.</text>
        <text xml:space="preserve" fill="#000000" stroke-width="0" x="449.15" y="107.42" font-size="4.72" opacity="1.00" font-family="MS Shell Dlg" font-weight="bold">Arv</text>
        <text xml:space="preserve" fill="#000000" stroke-width="0" x="461.37" y="107.42" font-size="4.61" opacity="1.00" font-family="MS Shell Dlg" font-weight="bold">Nimetus</text>
        <text xml:space="preserve" fill="#000000" stroke-width="0" x="515.16" y="107.42" font-size="4.67" opacity="1.00" font-family="MS Shell Dlg" font-weight="bold">Joonise nr.</text>
        <text xml:space="preserve" fill="#000000" stroke-width="0" x="556.87" y="107.42" font-size="4.58" opacity="1.00" font-family="MS Shell Dlg" font-weight="bold">Materjal</text>
        <text xml:space="preserve" fill="#000000" stroke-width="0" x="591.22" y="107.42" font-size="4.56" opacity="1.00" font-family="MS Shell Dlg" font-weight="bold">Mt</text>
        <text xml:space="preserve" fill="#000000" stroke-width="0" x="618.17" y="107.42" font-size="4.51" opacity="1.00" font-family="MS Shell Dlg" font-weight="bold">Kaal</text>
        <path style="stroke:#000000;stroke-width:0.353" d="M446.68,102.48L446.68,108.90"></path>
        <path style="stroke:#000000;stroke-width:0.353" d="M458.90,102.48L458.90,108.90"></path>
        <path style="stroke:#000000;stroke-width:0.353" d="M512.69,102.48L512.69,108.90"></path>
        <path style="stroke:#000000;stroke-width:0.353" d="M554.40,102.48L554.40,108.90"></path>
        <path style="stroke:#000000;stroke-width:0.353" d="M588.75,102.48L588.75,108.90"></path>
        <path style="stroke:#000000;stroke-width:0.353" d="M615.70,102.48L615.70,108.90"></path>
      </g>
      <g id="Line1">
        <path style="stroke:#000000;stroke-width:0.353;fill:#ffffff" d="M432.41,108.90L632.23,108.90L632.23,115.32L432.41,115.32z"></path>
        <text xml:space="preserve" fill="#000000" stroke-width="0" x="434.88" y="113.84" font-size="3.88" opacity="1.00" font-family="MS Shell Dlg">1</text>
        <text xml:space="preserve" fill="#000000" stroke-width="0" x="449.15" y="113.84" font-size="3.88" opacity="1.00" font-family="MS Shell Dlg">1</text>
        <text xml:space="preserve" fill="#000000" stroke-width="0" x="461.37" y="113.84" font-size="4.76" opacity="1.00" font-family="MS Shell Dlg">Emakoda</text>
        <text xml:space="preserve" fill="#000000" stroke-width="0" x="515.16" y="113.84" font-size="4.85" opacity="1.00" font-family="MS Shell Dlg">AJ5.01.00</text>
        <text xml:space="preserve" fill="#000000" stroke-width="0" x="556.87" y="113.84" font-size="4.37" opacity="1.00" font-family="MS Shell Dlg">-</text>
        <text xml:space="preserve" fill="#000000" stroke-width="0" x="591.22" y="113.84" font-size="4.37" opacity="1.00" font-family="MS Shell Dlg">-</text>
        <text xml:space="preserve" fill="#000000" stroke-width="0" x="618.17" y="113.84" font-size="4.64" opacity="1.00" font-family="MS Shell Dlg">139.6</text>
        <path style="stroke:#000000;stroke-width:0.353" d="M446.68,108.90L446.68,115.32"></path>
        <path style="stroke:#000000;stroke-width:0.353" d="M458.90,108.90L458.90,115.32"></path>
        <path style="stroke:#000000;stroke-width:0.353" d="M512.69,108.90L512.69,115.32"></path>
        <path style="stroke:#000000;stroke-width:0.353" d="M554.40,108.90L554.40,115.32"></path>
        <path style="stroke:#000000;stroke-width:0.353" d="M588.75,108.90L588.75,115.32"></path>
        <path style="stroke:#000000;stroke-width:0.353" d="M615.70,108.90L615.70,115.32"></path>
      </g>
      <g id="Line2">
        <path style="stroke:#000000;stroke-width:0.353;fill:#f0f0ff" d="M432.41,115.32L632.23,115.32L632.23,121.74L432.41,121.74z"></path>
        <text xml:space="preserve" fill="#000000" stroke-width="0" x="434.88" y="120.26" font-size="4.58" opacity="1.00" font-family="MS Shell Dlg">2</text>
        <text xml:space="preserve" fill="#000000" stroke-width="0" x="449.15" y="120.26" font-size="4.58" opacity="1.00" font-family="MS Shell Dlg">2</text>
        <text xml:space="preserve" fill="#000000" stroke-width="0" x="461.37" y="120.26" font-size="4.76" opacity="1.00" font-family="MS Shell Dlg">Sisejalg</text>
        <text xml:space="preserve" fill="#000000" stroke-width="0" x="515.16" y="120.26" font-size="4.85" opacity="1.00" font-family="MS Shell Dlg">AJ4.03.00</text>
        <text xml:space="preserve" fill="#000000" stroke-width="0" x="556.87" y="120.26" font-size="4.37" opacity="1.00" font-family="MS Shell Dlg">-</text>
        <text xml:space="preserve" fill="#000000" stroke-width="0" x="591.22" y="120.26" font-size="4.37" opacity="1.00" font-family="MS Shell Dlg">-</text>
        <text xml:space="preserve" fill="#000000" stroke-width="0" x="618.17" y="120.26" font-size="4.57" opacity="1.00" font-family="MS Shell Dlg">18.5</text>
        <path style="stroke:#000000;stroke-width:0.353" d="M446.68,115.32L446.68,121.74"></path>
        <path style="stroke:#000000;stroke-width:0.353" d="M458.90,115.32L458.90,121.74"></path>
        <path style="stroke:#000000;stroke-width:0.353" d="M512.69,115.32L512.69,121.74"></path>
        <path style="stroke:#000000;stroke-width:0.353" d="M554.40,115.32L554.40,121.74"></path>
        <path style="stroke:#000000;stroke-width:0.353" d="M588.75,115.32L588.75,121.74"></path>
        <path style="stroke:#000000;stroke-width:0.353" d="M615.70,115.32L615.70,121.74"></path>
      </g>
      <g id="Line3">
        <path style="stroke:#000000;stroke-width:0.353;fill:#ffffff" d="M432.41,121.74L632.23,121.74L632.23,128.16L432.41,128.16z"></path>
        <text xml:space="preserve" fill="#000000" stroke-width="0" x="434.88" y="126.68" font-size="4.47" opacity="1.00" font-family="MS Shell Dlg">3</text>
        <text xml:space="preserve" fill="#000000" stroke-width="0" x="449.15" y="126.68" font-size="4.58" opacity="1.00" font-family="MS Shell Dlg">2</text>
        <text xml:space="preserve" fill="#000000" stroke-width="0" x="461.37" y="126.68" font-size="4.81" opacity="1.00" font-family="MS Shell Dlg">Lukustusrngaga srm</text>
        <text xml:space="preserve" fill="#000000" stroke-width="0" x="515.16" y="126.68" font-size="4.75" opacity="1.00" font-family="MS Shell Dlg">LR-25-91</text>
        <text xml:space="preserve" fill="#000000" stroke-width="0" x="556.87" y="126.68" font-size="4.84" opacity="1.00" font-family="MS Shell Dlg">42CrMo4+QT</text>
        <text xml:space="preserve" fill="#000000" stroke-width="0" x="591.22" y="126.68" font-size="4.80" opacity="1.00" font-family="MS Shell Dlg">25x91</text>
        <text xml:space="preserve" fill="#000000" stroke-width="0" x="618.17" y="126.68" font-size="4.74" opacity="1.00" font-family="MS Shell Dlg">0.38</text>
        <path style="stroke:#000000;stroke-width:0.353" d="M446.68,121.74L446.68,128.16"></path>
        <path style="stroke:#000000;stroke-width:0.353" d="M458.90,121.74L458.90,128.16"></path>
        <path style="stroke:#000000;stroke-width:0.353" d="M512.69,121.74L512.69,128.16"></path>
        <path style="stroke:#000000;stroke-width:0.353" d="M554.40,121.74L554.40,128.16"></path>
        <path style="stroke:#000000;stroke-width:0.353" d="M588.75,121.74L588.75,128.16"></path>
        <path style="stroke:#000000;stroke-width:0.353" d="M615.70,121.74L615.70,128.16"></path>
      </g>
      <g id="Line4">
        <path style="stroke:#000000;stroke-width:0.353;fill:#f0f0ff" d="M432.41,128.16L632.23,128.16L632.23,134.58L432.41,134.58z"></path>
        <text xml:space="preserve" fill="#000000" stroke-width="0" x="434.88" y="133.10" font-size="4.72" opacity="1.00" font-family="MS Shell Dlg">4</text>
        <text xml:space="preserve" fill="#000000" stroke-width="0" x="449.15" y="133.10" font-size="4.58" opacity="1.00" font-family="MS Shell Dlg">2</text>
        <text xml:space="preserve" fill="#000000" stroke-width="0" x="461.37" y="133.10" font-size="4.81" opacity="1.00" font-family="MS Shell Dlg">Lukustusrngaga srm</text>
        <text xml:space="preserve" fill="#000000" stroke-width="0" x="515.16" y="133.10" font-size="4.77" opacity="1.00" font-family="MS Shell Dlg">LR-25-124</text>
        <text xml:space="preserve" fill="#000000" stroke-width="0" x="556.87" y="133.10" font-size="4.84" opacity="1.00" font-family="MS Shell Dlg">42CrMo4+QT</text>
        <text xml:space="preserve" fill="#000000" stroke-width="0" x="591.22" y="133.10" font-size="4.80" opacity="1.00" font-family="MS Shell Dlg">25x124</text>
        <text xml:space="preserve" fill="#000000" stroke-width="0" x="618.17" y="133.10" font-size="4.74" opacity="1.00" font-family="MS Shell Dlg">0.52</text>
        <path style="stroke:#000000;stroke-width:0.353" d="M446.68,128.16L446.68,134.58"></path>
        <path style="stroke:#000000;stroke-width:0.353" d="M458.90,128.16L458.90,134.58"></path>
        <path style="stroke:#000000;stroke-width:0.353" d="M512.69,128.16L512.69,134.58"></path>
        <path style="stroke:#000000;stroke-width:0.353" d="M554.40,128.16L554.40,134.58"></path>
        <path style="stroke:#000000;stroke-width:0.353" d="M588.75,128.16L588.75,134.58"></path>
        <path style="stroke:#000000;stroke-width:0.353" d="M615.70,128.16L615.70,134.58"></path>
      </g>
      <g id="Line5">
        <path style="stroke:#000000;stroke-width:0.353;fill:#ffffff" d="M432.41,134.58L632.23,134.58L632.23,141.00L432.41,141.00z"></path>
        <text xml:space="preserve" fill="#000000" stroke-width="0" x="434.88" y="139.51" font-size="4.48" opacity="1.00" font-family="MS Shell Dlg">5</text>
        <text xml:space="preserve" fill="#000000" stroke-width="0" x="449.15" y="139.51" font-size="4.58" opacity="1.00" font-family="MS Shell Dlg">2</text>
        <text xml:space="preserve" fill="#000000" stroke-width="0" x="461.37" y="139.51" font-size="4.72" opacity="1.00" font-family="MS Shell Dlg">Seib</text>
        <text xml:space="preserve" fill="#000000" stroke-width="0" x="515.16" y="139.51" font-size="4.78" opacity="1.00" font-family="MS Shell Dlg">M24_DIN125</text>
        <text xml:space="preserve" fill="#000000" stroke-width="0" x="556.87" y="139.51" font-size="4.69" opacity="1.00" font-family="MS Shell Dlg">140 HV</text>
        <text xml:space="preserve" fill="#000000" stroke-width="0" x="591.22" y="139.51" font-size="4.65" opacity="1.00" font-family="MS Shell Dlg">M24</text>
        <text xml:space="preserve" fill="#000000" stroke-width="0" x="618.17" y="139.51" font-size="4.74" opacity="1.00" font-family="MS Shell Dlg">0.03</text>
        <path style="stroke:#000000;stroke-width:0.353" d="M446.68,134.58L446.68,141.00"></path>
        <path style="stroke:#000000;stroke-width:0.353" d="M458.90,134.58L458.90,141.00"></path>
        <path style="stroke:#000000;stroke-width:0.353" d="M512.69,134.58L512.69,141.00"></path>
        <path style="stroke:#000000;stroke-width:0.353" d="M554.40,134.58L554.40,141.00"></path>
        <path style="stroke:#000000;stroke-width:0.353" d="M588.75,134.58L588.75,141.00"></path>
        <path style="stroke:#000000;stroke-width:0.353" d="M615.70,134.58L615.70,141.00"></path>
      </g>
      <g id="Line6">
        <path style="stroke:#000000;stroke-width:0.353;fill:#f0f0ff" d="M432.41,141.00L632.23,141.00L632.23,147.42L432.41,147.42z"></path>
        <text xml:space="preserve" fill="#000000" stroke-width="0" x="434.88" y="145.93" font-size="4.46" opacity="1.00" font-family="MS Shell Dlg">6</text>
        <text xml:space="preserve" fill="#000000" stroke-width="0" x="449.15" y="145.93" font-size="4.58" opacity="1.00" font-family="MS Shell Dlg">2</text>
        <text xml:space="preserve" fill="#000000" stroke-width="0" x="461.37" y="145.93" font-size="4.76" opacity="1.00" font-family="MS Shell Dlg">Silinder</text>
        <text xml:space="preserve" fill="#000000" stroke-width="0" x="515.16" y="145.93" font-size="4.81" opacity="1.00" font-family="MS Shell Dlg">sil.40-28-750B</text>
        <text xml:space="preserve" fill="#000000" stroke-width="0" x="556.87" y="145.93" font-size="4.45" opacity="1.00" font-family="MS Shell Dlg">*</text>
        <text xml:space="preserve" fill="#000000" stroke-width="0" x="591.22" y="145.93" font-size="4.83" opacity="1.00" font-family="MS Shell Dlg">40-28-750</text>
        <text xml:space="preserve" fill="#000000" stroke-width="0" x="618.17" y="145.93" font-size="4.57" opacity="1.00" font-family="MS Shell Dlg">11.0</text>
        <path style="stroke:#000000;stroke-width:0.353" d="M446.68,141.00L446.68,147.42"></path>
        <path style="stroke:#000000;stroke-width:0.353" d="M458.90,141.00L458.90,147.42"></path>
        <path style="stroke:#000000;stroke-width:0.353" d="M512.69,141.00L512.69,147.42"></path>
        <path style="stroke:#000000;stroke-width:0.353" d="M554.40,141.00L554.40,147.42"></path>
        <path style="stroke:#000000;stroke-width:0.353" d="M588.75,141.00L588.75,147.42"></path>
        <path style="stroke:#000000;stroke-width:0.353" d="M615.70,141.00L615.70,147.42"></path>
      </g>
      <g id="Line7">
        <path style="stroke:#000000;stroke-width:0.353;fill:#ffffff" d="M432.41,147.42L632.23,147.42L632.23,153.83L432.41,153.83z"></path>
        <text xml:space="preserve" fill="#000000" stroke-width="0" x="434.88" y="152.35" font-size="4.43" opacity="1.00" font-family="MS Shell Dlg">7</text>
        <text xml:space="preserve" fill="#000000" stroke-width="0" x="449.15" y="152.35" font-size="4.48" opacity="1.00" font-family="MS Shell Dlg">8</text>
        <text xml:space="preserve" fill="#000000" stroke-width="0" x="461.37" y="152.35" font-size="4.82" opacity="1.00" font-family="MS Shell Dlg">Stopperrngas</text>
        <text xml:space="preserve" fill="#000000" stroke-width="0" x="515.16" y="152.35" font-size="4.80" opacity="1.00" font-family="MS Shell Dlg">D25x1.2_DIN471</text>
        <text xml:space="preserve" fill="#000000" stroke-width="0" x="556.87" y="152.35" font-size="4.45" opacity="1.00" font-family="MS Shell Dlg">*</text>
        <text xml:space="preserve" fill="#000000" stroke-width="0" x="591.22" y="152.35" font-size="4.80" opacity="1.00" font-family="MS Shell Dlg">25x1.2</text>
        <text xml:space="preserve" fill="#000000" stroke-width="0" x="618.17" y="152.35" font-size="4.77" opacity="1.00" font-family="MS Shell Dlg">2.15</text>
        <path style="stroke:#000000;stroke-width:0.353" d="M446.68,147.42L446.68,153.83"></path>
        <path style="stroke:#000000;stroke-width:0.353" d="M458.90,147.42L458.90,153.83"></path>
        <path style="stroke:#000000;stroke-width:0.353" d="M512.69,147.42L512.69,153.83"></path>
        <path style="stroke:#000000;stroke-width:0.353" d="M554.40,147.42L554.40,153.83"></path>
        <path style="stroke:#000000;stroke-width:0.353" d="M588.75,147.42L588.75,153.83"></path>
        <path style="stroke:#000000;stroke-width:0.353" d="M615.70,147.42L615.70,153.83"></path>
      </g>
    </g>
    <g id="hotspot.0" opacity="0">
      <path style="fill:#00ff00;fill-rule:evenodd" d="M432.41,108.90L432.41,115.32L632.23,115.32L632.23,108.90zM212.35,2.95L219.07,10.65L224.53,17.04L225.45,19.32L225.46,20.73L210.66,47.31L210.59,47.97L211.58,47.87L230.26,39.84L229.18,36.89L229.94,36.39L229.91,34.50L235.60,32.12L236.56,32.18L242.64,29.90L246.24,28.38L246.88,27.41L260.68,23.16L261.25,24.58L262.36,24.44L266.46,34.70L280.86,40.81L283.03,40.81L289.43,38.54L291.13,38.87L293.74,40.43L294.33,41.75L294.55,44.78L296.24,44.41L299.02,43.35L301.70,43.35L303.31,43.99L304.59,45.28L305.22,47.21L305.22,49.23L304.80,50.73L313.23,54.58L313.25,58.54L310.32,62.02L310.35,67.07L311.61,74.78L314.18,81.82L329.89,115.45L341.11,144.92L350.12,152.25L351.35,154.22L355.52,172.16L355.52,174.82L355.20,176.10L354.24,178.35L352.35,180.62L350.63,181.78L347.82,181.78L345.26,180.50L338.22,175.65L337.48,175.64L336.85,176.02L334.04,176.02L331.83,175.02L315.43,163.47L315.08,163.45L345.28,243.28L345.16,244.56L331.70,250.33L329.80,250.98L325.72,250.98L322.85,250.01L307.81,243.58L306.81,242.34L281.22,174.75L267.63,178.91L265.80,178.58L254.64,173.77L251.93,174.76L251.08,174.75L230.57,166.07L230.27,162.21L229.58,161.29L229.59,151.09L238.58,138.30L238.91,137.35L238.90,135.93L238.51,135.90L199.73,152.31L197.87,152.31L177.93,143.74L177.75,141.36L165.24,135.93L162.82,133.68L149.09,158.06L147.15,161.25L132.77,167.37L127.72,167.36L124.83,166.40L110.13,159.96L109.46,159.33L109.43,158.15L192.93,8.39L206.74,2.33L208.36,2.03L210.72,2.01zM217.75,15.49L218.74,16.76L218.74,17.84L217.16,20.77L213.19,22.55L211.33,22.55L209.77,21.87L207.21,18.98L206.84,18.40L206.76,17.10L212.38,14.83L212.98,16.17L213.26,16.22L214.43,14.83L216.81,14.83zM196.34,19.28L197.59,21.56L197.59,23.62L197.27,24.26L196.17,25.08L194.69,25.10L193.07,22.87L192.75,21.92L192.75,20.05L193.40,18.79L195.35,18.68zM240.53,38.20L241.80,40.14L241.80,42.52L241.49,43.17L240.14,44.09L239.19,44.05L237.28,41.46L237.30,38.02L238.48,37.24L239.22,37.24zM290.51,42.99L290.49,44.45L289.15,44.35L288.76,44.08L288.86,43.50L289.74,42.68L290.18,42.66zM299.33,48.46L300.65,47.14L301.05,47.17L301.10,49.22L299.72,48.82zM211.70,123.14L212.03,123.60L201.09,128.36L199.41,128.71L199.13,128.31L199.06,126.99L209.63,122.47L210.71,122.48zM351.38,173.09L351.36,174.51L350.72,176.11L349.76,177.39L348.71,177.72L348.44,177.34L348.46,175.44L349.60,173.07L350.63,172.43L351.02,172.46z"></path>
    </g>
    <g id="hotspot.1" opacity="0">
      <path style="fill:#00ff00;fill-rule:evenodd" d="M432.41,115.32L432.41,121.74L632.23,121.74L632.23,115.32zM124.83,166.40L127.72,167.36L132.77,167.37L143.72,162.82L85.32,267.93L85.71,268.28L95.69,272.44L100.85,274.96L102.13,276.92L102.13,277.67L101.46,278.95L100.20,280.58L98.47,281.73L76.46,291.12L73.16,291.98L64.93,291.98L62.36,291.35L33.53,279.17L31.31,277.86L30.32,276.61L29.67,275.34L29.67,273.48L31.18,271.79L54.66,261.63L110.95,160.58L111.38,160.58zM306.81,242.34L307.81,243.58L322.85,250.01L325.72,250.98L329.80,250.98L331.70,250.33L345.16,244.56L345.28,243.28L344.59,241.67L344.51,241.03L344.92,240.99L356.48,245.85L362.29,248.69L363.55,250.31L363.55,251.74L362.27,253.98L360.37,255.29L338.13,264.76L334.59,265.71L326.69,265.71L322.84,264.76L293.68,252.26L292.43,251.27L291.10,249.08L291.15,247.25L292.30,245.85L295.29,244.35L305.45,240.05L305.89,240.03zM60.49,266.62L62.06,269.22L61.96,271.18L60.42,272.85L59.16,272.76L57.55,270.20L57.22,269.25L57.22,267.72L57.90,266.47L59.15,266.01z"></path>
    </g>
    <g id="hotspot.2" opacity="0">
      <path style="fill:#00ff00;fill-rule:evenodd" d="M432.41,121.74L432.41,128.16L632.23,128.16L632.23,121.74zM60.81,267.91L61.41,269.23L61.43,271.28L60.65,272.12L59.47,272.15L57.91,270.81L57.54,270.22L57.53,267.38L58.41,266.63L59.16,266.64z"></path>
    </g>
    <g id="hotspot.3" opacity="0">
      <path style="fill:#00ff00;fill-rule:evenodd" d="M432.41,128.16L432.41,134.58L632.23,134.58L632.23,128.16zM195.70,19.60L196.95,21.56L196.95,23.63L196.22,24.49L194.37,24.45L193.07,22.87L192.75,21.91L192.74,20.37L193.60,19.31L195.35,19.31zM239.87,38.23L240.83,39.51L241.44,41.41L241.15,42.51L240.42,43.40L239.21,43.39L237.65,42.05L237.28,41.46L237.31,38.67L238.14,37.89L239.23,37.89z"></path>
    </g>
    <g id="hotspot.4" opacity="0">
      <path style="fill:#00ff00;fill-rule:evenodd" d="M432.41,134.58L432.41,141.00L632.23,141.00L632.23,134.58z"></path>
    </g>
    <g id="hotspot.5" opacity="0">
      <path style="fill:#00ff00;fill-rule:evenodd" d="M432.41,141.00L432.41,147.42L632.23,147.42L632.23,141.00zM217.75,15.49L218.74,16.76L218.74,17.84L217.16,20.77L213.19,22.55L211.33,22.55L209.77,21.87L207.21,18.98L206.84,18.40L206.76,17.10L212.38,14.83L212.98,16.17L213.26,16.22L214.43,14.83L216.81,14.83zM246.09,27.50L246.28,28.40L242.64,29.90L236.35,32.25L235.90,31.45L239.12,29.91L245.55,27.30z"></path>
    </g>
    <g id="hotspot.6" opacity="0">
      <path style="fill:#00ff00;fill-rule:evenodd" d="M432.41,147.42L432.41,153.83L632.23,153.83L632.23,147.42zM196.34,19.28L197.59,21.56L197.59,23.62L197.27,24.26L196.17,25.08L194.63,25.07L194.57,24.76L196.22,24.49L196.95,23.63L196.95,21.56L195.70,19.60L195.35,19.31L193.60,19.33L193.07,19.77L193.07,19.15L193.60,18.67L195.35,18.68zM240.53,38.20L241.80,40.14L241.80,42.52L241.36,43.36L240.32,43.62L241.15,42.51L241.44,41.41L240.83,39.51L239.87,38.23L239.23,37.89L238.14,37.88L237.29,38.68L237.28,38.05L238.48,37.24L239.22,37.24zM240.32,43.62L240.16,44.12L239.18,44.05L238.76,43.73L238.77,43.36zM60.49,266.62L62.06,269.22L62.06,270.96L61.61,271.78L60.59,272.39L61.43,271.29L61.41,269.23L60.81,267.91L59.16,266.63L57.75,266.68L58.74,266.00zM59.84,272.44L60.59,272.39L60.43,272.86L59.16,272.76L58.68,271.83z"></path>
    </g>
    <g id="ToolTip" visibility="hidden" opacity="0" transform="translate(0,0)">
      <rect id="ToolTipShadow" opacity="0.20" fill="black" stroke="none" x="0" y="0" width="30" height="8"></rect>
      <rect id="ToolTipBG" fill="#ffffe1" stroke="black" x="0" y="0" width="30" height="8"></rect>
      <text xml:space="preserve" id="ToolTipText" fill="black" x="0" y="0" width="30" height="8">tooltip</text>
    </g>
  </g>
</svg>
