<?xml version="1.0" encoding="UTF-8" standalone="yes"?>
<svg xmlns="http://www.w3.org/2000/svg" xmlns:xlink="http://www.w3.org/1999/xlink" width="420.000mm" height="297.000mm" viewBox="0.000000 0.000000 420.000000 297.000000" stroke-linejoin="round" stroke-linecap="round" fill="none" fill-rule="evenodd">
  <desc>Composer Export</desc>
  <defs></defs>
  <g>
    <path style="fill:#ffffff" d="M419.93,296.91L0.09,296.91L0.09,0.09L419.93,0.09z"></path>
    <path style="fill:#e5e5e5" d="M244.54,21.41L244.53,24.04L244.25,25.42L242.98,26.08L240.40,26.51L240.38,23.48L242.37,23.22L244.35,20.91z"></path>
    <path style="fill:#e5e5e5" d="M224.29,47.48L224.19,63.33L223.67,63.53L221.79,63.67L221.68,47.18L222.36,47.00L223.30,47.17z"></path>
    <path style="fill:#e5e5e5" d="M205.71,49.39L205.94,50.96L205.81,51.69L203.58,52.44L203.21,50.74L203.98,49.23L205.27,49.07z"></path>
    <path style="fill:#e5e5e5" d="M175.39,49.74L176.00,46.25L177.09,44.45L178.89,42.40L183.37,39.51L187.55,37.61L191.39,36.32L196.51,35.03L203.24,34.07L209.12,33.74L209.12,46.36L204.40,46.70L201.20,47.02L197.03,47.66L194.91,48.18L188.19,50.10L183.48,52.12L178.84,55.22L178.38,55.23L176.42,52.66z"></path>
    <path style="fill:#e5e5e5" d="M117.49,64.20L117.54,64.61L114.91,66.85L65.28,109.49L64.32,112.11L64.33,113.43L67.49,130.19L78.07,184.65L79.03,185.24L79.04,186.00L79.38,185.99L79.35,187.86L80.26,192.77L80.61,193.02L69.50,197.72L69.32,197.79L69.45,201.85L69.43,203.35L64.29,193.62L62.35,189.16L61.61,184.67L62.59,178.25L66.53,158.16L66.53,154.54L59.16,115.45L59.14,112.65L61.94,109.68L67.08,105.53L73.61,100.84L116.69,63.87z"></path>
    <path style="fill:#e5e5e5" d="M307.96,62.48L307.38,63.24L305.77,64.55L304.15,64.48L223.10,98.78L221.65,100.22L218.62,101.36L215.31,102.14L214.03,102.28L212.42,102.14L212.51,89.80L217.99,88.88L305.40,51.97L307.34,50.70L307.83,49.99z"></path>
    <path style="fill:#e5e5e5" d="M160.41,82.45L160.45,128.41L157.85,129.67L144.05,88.56L143.97,76.69L144.93,76.01L145.34,76.00z"></path>
    <path style="fill:#e5e5e5" d="M196.93,97.83L200.81,99.72L201.10,145.57L198.74,146.56L198.22,146.55L184.43,104.89L184.45,93.78L185.43,93.02z"></path>
    <path style="fill:#e5e5e5" d="M216.02,107.63L216.19,108.96L216.45,109.81L213.81,110.77L213.91,107.86L214.43,107.42L215.85,107.41z"></path>
    <path style="fill:#e5e5e5" d="M173.86,141.44L174.70,141.42L176.15,139.12L177.72,142.99L190.52,148.45L190.86,184.95L191.46,186.06L179.21,191.41L178.02,191.41L174.83,190.09L170.96,183.38L170.74,182.62L171.96,182.40L170.87,182.41L170.74,182.62L152.62,190.10L150.34,191.99L149.19,193.73L144.43,205.70L144.07,151.30L143.93,206.32L143.93,214.99L143.62,215.42L140.45,217.03L139.46,217.02L139.91,216.49L140.21,151.75L141.09,148.78L142.33,146.17L143.12,144.72L143.42,142.14L146.97,140.60L146.62,139.79L146.22,139.75L142.68,141.40L130.19,151.97L129.00,153.35L128.36,155.27L128.35,210.94L129.02,212.36L123.15,215.10L121.52,215.52L121.94,212.29L124.20,204.62L125.48,197.25L125.80,155.92L126.13,154.32L128.69,152.08L151.09,132.83L153.38,132.73z"></path>
    <path style="fill:#e5e5e5" d="M215.96,139.11L216.17,140.34L216.50,141.49L214.78,142.06L213.81,142.18L213.89,139.56L214.43,138.80L215.52,138.78z"></path>
    <path style="fill:#e5e5e5" d="M367.39,177.28L367.56,179.09L367.56,181.03L367.38,182.83L366.77,184.86L360.69,211.45L360.04,214.64L359.85,216.91L360.05,217.87L364.51,230.13L364.68,231.63L364.68,233.89L364.50,235.38L363.85,237.30L357.14,251.41L354.77,252.57L336.09,260.55L335.25,260.60L335.19,260.79L334.97,260.98L330.64,262.77L329.75,262.79L329.38,263.32L327.32,264.23L327.03,260.57L325.39,256.41L325.01,256.38L313.22,261.32L312.72,262.80L311.08,262.96L303.92,265.80L302.04,267.44L295.81,277.23L293.08,278.66L276.88,285.53L266.14,290.20L266.14,286.82L268.40,288.57L268.06,282.37L268.04,275.41L269.19,272.40L272.58,266.49L283.02,249.06L284.72,243.07L291.12,214.87L291.44,211.57L290.65,207.69L366.74,175.37z"></path>
    <path style="fill:#e5e5e5" d="M217.16,196.65L194.69,206.22L191.90,206.93L191.04,206.89L191.04,197.45L194.28,196.84L217.16,187.23z"></path>
    <path style="fill:#e5e5e5" d="M154.65,205.59L155.49,204.83L175.35,196.50L177.75,196.20L177.74,205.58L177.21,205.78L175.88,205.93L157.52,213.58L157.22,221.62L156.57,222.25L130.20,233.37L128.16,233.82L126.88,233.98L126.25,233.81L126.35,224.71L130.52,223.75L156.58,212.65L157.20,211.53L154.66,207.38z"></path>
    <path style="fill:#ffffff" d="M326.71,229.49L327.65,230.15L328.64,231.43L328.30,233.79L327.65,235.70L325.60,239.09L322.43,242.01L318.57,243.92L315.69,244.90L314.50,244.91L313.25,244.23L312.63,243.20L312.88,242.61L312.46,242.54L312.44,240.93L312.66,240.00L313.87,237.30L315.18,235.08L316.65,233.35L319.21,231.43L324.34,229.18L325.48,229.15L325.72,229.95L325.84,229.08L326.51,229.10z"></path>
    <path style="fill:#00001f" d="M206.23,49.69L205.94,50.96L205.71,49.39z"></path>
    <path style="fill:#00001f" d="M207.14,52.74L207.51,51.99L207.51,53.41L207.19,53.34z"></path>
    <path style="fill:#00001f" d="M216.19,108.96L216.02,107.63L216.18,107.73z"></path>
    <path style="fill:#00001f" d="M217.39,111.05L217.76,110.30L217.76,111.72L217.45,111.65z"></path>
    <path style="fill:#00001f" d="M216.49,139.40L216.17,140.34L215.96,139.11z"></path>
    <path style="fill:#00001f" d="M217.34,142.66L217.76,141.70L217.77,143.44z"></path>
    <path style="fill:#00001f" d="M90.07,196.97L89.71,196.93L89.92,196.18z"></path>
    <path style="fill:#00001c" d="M222.36,47.00L221.68,47.18L221.15,46.86z"></path>
    <path style="fill:#00001c" d="M224.29,47.48L223.30,47.17L224.51,47.17z"></path>
    <path style="fill:#00001c" d="M297.22,50.83L295.69,50.70L297.27,50.63z"></path>
    <path style="fill:#00001c" d="M125.50,50.83L123.97,50.70L125.54,50.63z"></path>
    <path style="fill:#00001c" d="M341.57,169.20L341.42,169.36L341.44,168.51z"></path>
    <path style="fill:#00001c" d="M170.74,182.62L170.87,182.41L171.96,182.40z"></path>
    <path style="fill:#00001c" d="M211.45,186.08L210.16,185.90L211.46,185.83z"></path>
    <path style="fill:#00001c" d="M69.45,201.85L69.32,197.79L69.50,197.72z"></path>
    <path style="fill:#00001c" d="M144.43,205.70L144.12,206.35L143.93,206.32L144.07,151.30z"></path>
    <path style="fill:#00001c" d="M107.00,214.59L105.71,214.42L107.01,214.34z"></path>
    <path style="fill:#00001c" d="M326.51,229.10L325.84,229.08L325.99,228.84L326.67,228.82z"></path>
    <path style="fill:#00001c" d="M330.53,262.92L329.38,263.32L329.75,262.79L330.64,262.77z"></path>
    <path style="fill:#00001c" d="M230.03,266.50L228.74,266.32L230.04,266.24z"></path>
    <path style="fill:#000020" d="M210.81,14.51L211.44,14.35L212.98,14.53z"></path>
    <path style="fill:#000020" d="M242.44,19.34L241.32,19.29L241.81,19.00z"></path>
    <path style="fill:#000020" d="M244.53,24.04L244.54,21.41L244.67,21.55z"></path>
    <path style="fill:#000020" d="M115.22,59.18L115.55,48.46L115.55,62.40z"></path>
    <path style="fill:#000020" d="M307.96,62.48L307.83,49.99L308.10,48.46z"></path>
    <path style="fill:#000020" d="M254.54,68.78L254.40,68.56L255.26,68.68z"></path>
    <path style="fill:#000020" d="M167.87,68.98L168.52,68.81L169.73,69.00z"></path>
    <path style="fill:#000020" d="M276.96,101.31L277.33,101.37L277.39,101.74L277.03,101.67z"></path>
    <path style="fill:#000020" d="M209.61,102.31L212.42,102.14L214.03,102.28z"></path>
    <path style="fill:#000020" d="M343.99,171.91L343.24,171.85L344.07,171.56z"></path>
    <path style="fill:#000020" d="M216.16,179.18L215.75,179.29L215.86,178.88z"></path>
    <path style="fill:#000020" d="M367.56,181.03L367.56,179.09L367.68,179.20z"></path>
    <path style="fill:#000020" d="M211.45,186.08L211.46,185.83L213.30,185.93z"></path>
    <path style="fill:#000020" d="M88.82,197.17L89.71,196.93L90.07,196.97L90.26,197.18z"></path>
    <path style="fill:#000020" d="M107.00,214.59L107.01,214.34L108.85,214.45z"></path>
    <path style="fill:#000020" d="M143.93,214.99L143.93,206.32L144.12,206.35z"></path>
    <path style="fill:#000020" d="M360.05,217.87L359.85,216.91L360.00,217.02z"></path>
    <path style="fill:#000020" d="M325.72,229.95L325.48,229.15L325.84,229.08z"></path>
    <path style="fill:#000020" d="M364.68,233.89L364.68,231.63L364.80,231.75z"></path>
    <path style="fill:#000020" d="M124.71,233.99L126.25,233.81L126.88,233.98z"></path>
    <path style="fill:#000020" d="M312.63,243.20L312.46,242.54L312.88,242.61z"></path>
    <path style="fill:#000020" d="M335.19,260.79L335.25,260.60L336.09,260.55z"></path>
    <path style="fill:#000020" d="M230.03,266.50L230.04,266.24L231.56,266.35z"></path>
    <path style="fill:#000020" d="M271.64,274.57L271.46,273.39L271.60,273.26z"></path>
    <path style="fill:#e5e5e5" d="M207.50,12.07L208.67,11.31L211.36,10.99L211.44,14.35L210.81,14.51L209.09,14.23L207.84,13.55L207.51,13.23z"></path>
    <path style="fill:#e5e5e5" d="M250.43,30.34L252.34,29.35L254.30,29.25L254.30,32.58L252.34,32.49L250.43,31.50z"></path>
    <path style="fill:#e5e5e5" d="M165.52,30.34L166.69,29.57L168.43,29.57L168.45,32.27L166.91,32.11L165.86,31.82L165.53,31.50z"></path>
    <path style="fill:#e5e5e5" d="M293.32,48.57L294.22,47.84L297.21,47.17L297.27,50.63L295.69,50.70L294.00,50.10L293.32,49.47z"></path>
    <path style="fill:#e5e5e5" d="M121.64,48.27L123.12,47.51L125.48,47.17L125.54,50.63L123.97,50.70L122.58,50.43L121.64,49.77z"></path>
    <path style="fill:#e5e5e5" d="M237.31,50.74L236.33,51.14L235.29,51.49L234.58,49.80z"></path>
    <path style="fill:#e5e5e5" d="M241.19,52.64L241.18,53.41L240.84,54.02L239.56,53.27L238.20,51.67L238.18,51.32L238.88,51.34z"></path>
    <path style="fill:#e5e5e5" d="M164.56,66.54L166.47,65.55L168.43,65.46L168.52,68.81L167.87,68.98L166.15,68.69L164.91,68.02L164.57,67.69z"></path>
    <path style="fill:#e5e5e5" d="M251.47,67.96L251.25,66.73L253.21,65.77L254.28,65.77L254.40,68.56L252.34,68.36z"></path>
    <path style="fill:#e5e5e5" d="M187.98,73.92L187.71,74.29L185.64,75.10L184.00,75.20L184.01,72.52L184.63,72.17L186.26,71.89L186.60,70.94L187.33,70.39L187.84,69.58L187.97,69.62z"></path>
    <path style="fill:#e5e5e5" d="M139.57,77.04L139.92,76.67L139.92,79.36L139.57,78.99z"></path>
    <path style="fill:#e5e5e5" d="M300.48,82.21L299.14,83.23L299.12,81.89L300.44,81.81z"></path>
    <path style="fill:#e5e5e5" d="M207.50,84.80L209.30,83.71L211.36,83.72L211.36,87.05L209.41,86.95L207.50,85.97z"></path>
    <path style="fill:#e5e5e5" d="M280.60,102.95L280.46,103.61L279.58,103.63L278.59,102.91L278.54,102.63L279.92,102.28z"></path>
    <path style="fill:#e5e5e5" d="M281.85,103.58L281.85,105.32L280.76,106.79L278.50,107.11L279.27,107.50L279.36,107.81L277.32,107.08L277.58,106.53L277.92,106.19L280.45,105.20L281.22,104.69L281.19,102.61z"></path>
    <path style="fill:#e5e5e5" d="M244.06,105.79L242.75,107.26L242.74,105.59L243.75,105.48z"></path>
    <path style="fill:#e5e5e5" d="M141.81,107.77L142.49,110.01L139.91,111.09L139.56,110.36L139.56,108.48L140.53,107.50L141.19,107.40z"></path>
    <path style="fill:#e5e5e5" d="M197.29,153.58L197.16,154.19L194.92,154.97L194.65,154.58L194.66,153.34L195.20,152.58L196.30,152.59z"></path>
    <path style="fill:#e5e5e5" d="M206.53,162.82L206.24,188.62L205.78,189.12L202.58,190.77L201.94,190.76L202.38,190.22L202.67,156.45z"></path>
    <path style="fill:#e5e5e5" d="M314.85,159.96L314.81,162.20L314.25,162.69L311.82,163.52L313.27,163.83L311.30,163.84L310.27,163.19L310.96,162.83L310.95,162.55L314.09,160.95L314.19,159.63L313.45,159.63L313.08,159.98L312.62,160.00L311.49,158.98L311.79,158.68L313.53,158.78L313.92,158.36z"></path>
    <path style="fill:#e5e5e5" d="M135.16,161.28L135.11,161.66L134.37,161.92L132.44,162.36L132.53,160.41L133.06,159.95L133.49,159.94z"></path>
    <path style="fill:#e5e5e5" d="M344.65,167.69L344.68,168.09L342.90,169.60L342.39,169.63L341.57,169.20L341.44,168.51L342.07,167.46L344.01,167.33z"></path>
    <path style="fill:#e5e5e5" d="M298.16,170.57L301.41,170.88L300.32,171.21L298.81,171.20L297.19,170.89L295.16,169.64L295.15,169.28L295.58,169.22z"></path>
    <path style="fill:#e5e5e5" d="M196.98,172.12L197.31,172.92L195.96,173.53L194.92,173.88L194.65,173.48L194.66,172.25L195.20,171.48L196.30,171.49z"></path>
    <path style="fill:#e5e5e5" d="M135.16,180.19L135.11,180.56L134.37,180.83L132.44,181.27L132.53,179.31L133.07,178.85L133.82,178.84z"></path>
    <path style="fill:#e5e5e5" d="M207.45,183.78L208.77,182.82L211.35,182.39L211.46,185.83L210.16,185.90L208.77,185.63L207.45,184.67z"></path>
    <path style="fill:#e5e5e5" d="M299.80,186.60L299.83,186.99L298.37,188.51L297.85,188.53L297.23,188.17L296.87,188.57L296.86,186.96L297.72,186.23L299.16,186.23z"></path>
    <path style="fill:#e5e5e5" d="M232.81,197.15L232.71,257.06L226.40,259.75L226.39,256.82L228.34,250.76L229.61,244.66L230.25,238.26L230.25,199.39L229.62,196.18L229.20,195.21L231.44,194.21L231.84,194.25z"></path>
    <path style="fill:#e5e5e5" d="M135.13,199.22L133.40,200.05L132.43,200.17L132.53,198.21L133.07,197.75L133.82,197.75z"></path>
    <path style="fill:#e5e5e5" d="M224.86,199.77L224.07,199.70L222.25,200.48L221.79,199.07L222.43,198.08L223.88,198.08z"></path>
    <path style="fill:#e5e5e5" d="M102.95,212.49L104.55,211.24L106.91,210.90L107.01,214.34L105.71,214.42L104.32,214.15L103.40,213.47z"></path>
    <path style="fill:#e5e5e5" d="M224.21,217.28L224.85,218.68L224.07,218.60L222.25,219.38L221.80,217.98L222.16,217.03L223.21,216.66z"></path>
    <path style="fill:#e5e5e5" d="M121.60,219.97L122.49,219.25L125.48,218.58L125.51,222.26L123.65,222.11L121.98,221.48L121.63,221.17z"></path>
    <path style="fill:#e5e5e5" d="M224.21,236.19L224.86,237.59L223.74,237.48L222.25,238.28L221.80,236.88L222.16,235.93L223.21,235.56z"></path>
    <path style="fill:#e5e5e5" d="M207.50,256.21L209.41,255.22L211.36,255.13L211.36,258.46L209.09,258.36L207.84,257.69L207.51,257.36z"></path>
    <path style="fill:#e5e5e5" d="M226.09,263.89L227.25,263.14L229.94,262.81L230.04,266.24L228.74,266.32L226.42,265.70L226.08,265.39z"></path>
    <path style="fill:#ffffff" d="M154.32,88.54L154.34,90.90L154.00,91.52L152.60,93.00L151.11,93.02L150.44,91.77L150.31,90.99L150.54,90.05L151.63,88.20L152.29,87.86L153.04,87.86z"></path>
    <path style="fill:#ffffff" d="M194.67,105.53L195.04,106.14L195.02,107.22L194.69,108.18L193.30,109.99L191.38,110.10L190.87,108.94L190.87,107.96L191.82,105.64L193.11,104.89z"></path>
    <path style="fill:#ffffff" d="M67.51,180.13L68.77,180.50L70.74,180.76L71.34,182.08L71.35,184.76L70.71,186.37L69.02,187.88L67.17,187.83L66.85,187.27L66.24,187.22L65.23,184.99L65.23,182.49L66.55,179.93L67.17,179.81z"></path>
    <path style="fill:#ffffff" d="M361.28,233.68L361.31,235.71L360.87,236.56L359.08,238.93L357.36,240.09L355.52,240.07L355.18,239.46L355.18,237.92L356.83,234.76L358.40,233.45L359.25,233.01L360.33,233.01z"></path>
    <path style="fill:#ffffff" d="M278.03,269.23L277.68,271.27L276.26,273.69L274.07,275.35L272.12,275.42L271.64,274.57L271.60,273.26L271.82,272.75L272.54,272.27L272.50,271.26L274.36,269.24L275.96,268.24L276.71,268.24z"></path>
    <g id="Actor_.0">
      <g style="stroke:#000000;stroke-width:0.176">
        <path d="M221.58,46.84L221.58,63.83"></path>
      </g>
      <g style="stroke:#000000;stroke-width:0.529">
        <path d="M217.90,46.51L217.90,64.21"></path>
        <path d="M241.17,52.59L240.78,54.07"></path>
      </g>
    </g>
    <g id="Actor_.1">
      <g style="stroke:#000000;stroke-width:0.176">
        <path d="M157.76,129.62L144.08,88.65L143.85,87.66L140.17,86.10"></path>
        <path d="M140.09,75.14L143.77,76.70L143.77,86.57L143.85,87.66"></path>
        <path d="M143.77,75.44L143.77,76.70L145.27,76.07"></path>
        <path d="M151.19,93.17L150.66,92.77L150.33,92.13L150.21,91.28L150.33,90.34L150.67,89.40L151.19,88.56L151.83,87.93L152.54,87.55L153.22,87.49L153.82,87.73L154.25,88.26L154.48,89.02L154.51,89.47L154.48,89.93L154.25,90.88L153.82,91.78L153.22,92.53L152.54,93.04L151.83,93.26L151.19,93.17"></path>
      </g>
      <g style="stroke:#000000;stroke-width:0.529">
        <path d="M160.46,128.48L157.76,129.62L154.08,128.06L140.40,87.09L140.17,86.10L140.09,85.01L140.09,75.14L141.28,74.38"></path>
      </g>
    </g>
    <g id="Actor_.2">
      <g style="stroke:#000000;stroke-width:0.176">
        <path d="M180.67,103.22L184.35,104.78L184.58,105.76L198.26,146.74"></path>
        <path d="M180.59,92.26L184.27,93.82L184.27,103.69L184.35,104.78"></path>
        <path d="M185.77,93.18L184.27,93.82L184.27,92.55"></path>
        <path d="M191.17,109.90L190.83,109.24L190.71,108.40L190.83,107.45L191.17,106.51L191.69,105.68L192.33,105.04L193.04,104.67L193.72,104.60L194.32,104.85L194.75,105.38L194.98,106.14L195.01,106.58L194.98,107.05L194.75,108.00L194.32,108.90L193.72,109.65L193.04,110.16L192.33,110.38L191.69,110.29L191.17,109.90"></path>
      </g>
      <g style="stroke:#000000;stroke-width:0.529">
        <path d="M201.05,145.56L198.26,146.74L194.58,145.18L180.90,104.21L180.67,103.22L180.59,102.13L180.59,92.26L181.78,91.50"></path>
      </g>
    </g>
    <g id="Actor_.3">
      <g style="stroke:#000000;stroke-width:0.176">
        <path d="M217.77,143.13L217.58,143.75L217.15,144.28L216.55,144.53L215.87,144.46L215.16,144.09L214.51,143.45L214.00,142.62L213.66,141.68L213.54,140.74L213.66,139.89L214.00,139.24L214.51,138.84L215.16,138.75L215.87,138.98L216.07,139.13"></path>
        <path d="M217.77,111.67L217.58,112.29L217.15,112.82L216.55,113.07L215.87,113.00L215.16,112.63L214.51,111.99L214.00,111.16L213.66,110.22L213.54,109.27L213.66,108.43L214.00,107.78L214.51,107.38L215.16,107.29L215.87,107.52L216.07,107.67"></path>
      </g>
      <g style="stroke:#000000;stroke-width:0.529">
        <path d="M200.96,99.61L200.96,145.17L200.99,145.38L201.06,145.58L201.16,145.77L201.30,145.91L201.45,146.01L202.44,146.43L203.71,147.18L204.89,148.31L205.91,149.73L231.43,193.24L232.21,194.88L232.70,196.60L232.87,198.30L232.87,256.82L232.90,257.02L232.97,257.23L233.07,257.41L233.21,257.56L233.36,257.65L265.78,271.35"></path>
        <path d="M216.34,141.28L216.45,141.58L216.97,142.41L217.62,143.05L217.77,143.13L217.81,142.99L217.84,142.55L217.81,142.09L217.58,141.13L217.14,140.23L216.55,139.49L216.07,139.13L216.00,139.70L216.11,140.64L216.34,141.28"></path>
        <path d="M217.24,111.22L216.97,110.95L216.45,110.12L216.11,109.18L216.00,108.24L216.07,107.67L216.55,108.03L217.14,108.77L217.58,109.67L217.81,110.62L217.84,111.09L217.81,111.53L217.77,111.67L217.62,111.59L217.24,111.22"></path>
        <path d="M271.86,272.19L272.37,272.41"></path>
      </g>
    </g>
    <g id="Actor_.4">
      <g style="stroke:#000000;stroke-width:0.176">
        <path d="M238.91,52.65L236.45,53.69L235.69,52.62L235.11,51.39L234.45,49.65"></path>
        <path d="M236.45,53.69L237.34,54.53L238.29,55.10L242.89,57.04"></path>
      </g>
      <g style="stroke:#000000;stroke-width:0.529">
        <path d="M224.28,47.22L224.28,63.51"></path>
        <path d="M244.54,55.66L240.75,54.06L239.80,53.50L238.91,52.65L238.15,51.58L237.85,50.95"></path>
      </g>
    </g>
    <g id="Actor_.5">
      <g style="stroke:#000000;stroke-width:0.529">
        <path d="M296.69,188.29L296.69,187.91"></path>
        <path d="M319.28,240.02L313.47,237.57"></path>
      </g>
    </g>
    <g id="Actor_.6">
      <g style="stroke:#000000;stroke-width:0.176">
        <path d="M221.91,237.75L221.83,237.05L221.91,236.42L222.16,235.93L222.55,235.64L223.03,235.58L223.55,235.74L224.06,236.12L224.50,236.68L224.82,237.34L225.00,238.05L225.00,238.71L224.82,239.29L224.51,239.68L224.06,239.87L223.55,239.82L223.03,239.54L222.55,239.07L222.16,238.45L221.91,237.75"></path>
        <path d="M221.91,218.87L221.83,218.17L221.91,217.54L222.16,217.06L222.55,216.77L223.03,216.70L223.55,216.86L224.06,217.24L224.50,217.80L224.82,218.47L225.00,219.17L225.00,219.85L224.82,220.41L224.50,220.81L224.06,220.99L223.55,220.94L223.03,220.66L222.55,220.19L222.16,219.57L221.91,218.87"></path>
        <path d="M221.91,200.00L221.83,199.29L221.91,198.67L222.16,198.18L222.55,197.89L223.03,197.82L223.55,197.99L224.06,198.37L224.50,198.92L224.82,199.59L225.00,200.30L225.00,200.68L225.00,200.97L224.82,201.54L224.51,201.93L224.06,202.11L223.55,202.06L223.03,201.79L222.55,201.31L222.16,200.69L221.91,200.00"></path>
      </g>
      <g style="stroke:#000000;stroke-width:0.529">
        <path d="M223.28,253.39L218.51,251.38L217.29,249.29L217.29,187.21L217.10,184.40L216.54,181.52L215.64,178.65L215.45,178.14"></path>
      </g>
    </g>
    <g id="Actor_.7">
      <g style="stroke:#000000;stroke-width:0.176">
        <path d="M223.10,98.83L223.99,100.28L221.91,102.07"></path>
        <path d="M223.99,100.28L224.27,100.56L236.13,110.57L237.22,111.66L235.14,113.45"></path>
        <path d="M279.94,189.81L282.02,188.02L281.37,186.65L238.11,112.93L237.22,111.66"></path>
        <path d="M242.99,107.62L242.70,107.28L242.48,106.86L242.40,106.42L242.45,106.02L242.64,105.70L242.94,105.49L243.31,105.41L243.73,105.48L244.14,105.69L244.50,106.01L244.77,106.41L244.93,106.84L244.94,107.27L244.82,107.64L244.57,107.91L244.44,107.97L244.23,108.05L243.83,108.06L243.41,107.92L242.99,107.62"></path>
        <path d="M268.25,274.78L265.40,272.60"></path>
        <path d="M281.38,196.97L283.46,195.18L284.11,196.55L289.71,206.08L290.66,208.08L291.26,210.20L291.47,212.28L291.26,214.17L283.92,246.22L283.05,248.84L281.65,251.55L270.18,270.39L268.68,273.35L267.82,276.20L267.67,278.73L268.61,288.81"></path>
        <path d="M274.99,268.56L275.54,268.24L276.53,268.00L277.33,268.17L277.84,268.74L278.01,269.65L277.83,270.79L277.31,272.05L276.50,273.29L275.51,274.37L274.43,275.17L273.38,275.62L272.47,275.65L271.81,275.27L271.46,274.50L271.47,273.48L271.62,272.96"></path>
        <path d="M283.46,195.18L283.09,193.78L282.39,189.44L282.02,188.02"></path>
        <path d="M291.26,210.20L367.36,178.04"></path>
        <path d="M296.64,187.90L296.73,187.20L297.08,186.59L297.64,186.19L298.36,186.05L299.14,186.18L299.92,186.57L300.60,187.17L301.10,187.93L301.39,188.75L301.42,189.55L301.19,190.25L300.73,190.76L300.08,191.03L299.32,191.04"></path>
        <path d="M299.31,83.61L299.15,83.42L298.94,83.00L298.85,82.56L298.91,82.16L299.09,81.84L299.39,81.63L299.77,81.55L300.19,81.62L300.60,81.83L300.96,82.15L301.23,82.55L301.38,82.98L301.40,83.41L301.28,83.78L301.03,84.05L300.69,84.19L300.28,84.20L299.86,84.06L299.47,83.79L299.31,83.61"></path>
        <path d="M325.58,228.75L325.66,228.72L327.15,228.99L328.15,229.94L328.58,231.51L328.39,233.52L327.60,235.79L326.29,238.08L324.58,240.19L322.64,241.90L320.67,243.04L317.01,244.58L315.17,245.06L313.68,244.79L312.68,243.84L312.41,242.86"></path>
        <path d="M329.97,262.87L328.02,257.45L327.50,256.63L326.69,256.18L325.63,256.12L325.50,256.16"></path>
        <path d="M344.00,172.16L344.75,172.15L345.40,171.88L345.86,171.37L346.09,170.67L346.06,169.87L345.78,169.05L345.27,168.29L344.59,167.69L343.82,167.30L343.03,167.17L342.32,167.31L341.76,167.71L341.40,168.32L341.31,169.02"></path>
        <path d="M358.45,233.29L359.00,232.97L359.99,232.73L360.79,232.90L361.30,233.47L361.47,234.38L361.29,235.52L360.76,236.78L359.96,238.02L358.97,239.10L357.88,239.90L356.83,240.34L355.93,240.38L355.27,240.00L354.92,239.25L354.93,238.21L355.08,237.69"></path>
      </g>
      <g style="stroke:#000000;stroke-width:0.529">
        <path d="M221.33,101.14L221.91,102.07L222.18,102.35L234.06,112.38L235.14,113.45L236.03,114.72L279.29,188.44L279.94,189.81L280.31,191.21L281.01,195.57L281.38,196.97L282.03,198.34L287.62,207.87L288.11,208.89L288.42,209.97L288.52,211.03L288.42,212.00L281.08,244.02L280.20,246.67L278.81,249.37L267.34,268.21L265.83,271.17L264.97,274.02L264.82,276.55L265.76,286.63L268.61,288.81L295.61,277.40L300.74,268.97L301.78,267.50L303.00,266.19L304.31,265.13L305.63,264.41L324.40,256.47L325.50,256.16L327.13,260.69L329.97,262.87L356.98,251.46L363.24,238.33L364.34,235.41L364.74,232.75L364.42,230.56L360.05,218.42L359.73,216.44L360.01,214.06L367.36,182.03L367.56,180.12L367.36,178.04L366.76,175.92L365.80,173.92L360.21,164.39L359.31,163.13L358.22,162.03L354.55,158.94L353.45,157.83L352.55,156.57L309.30,82.84L308.65,81.48L308.28,80.08L306.01,66.01L305.92,65.66L305.75,65.32L305.08,64.18L223.10,98.83L221.02,100.61L221.33,101.14"></path>
        <path d="M271.68,272.92L271.62,272.96L271.83,272.26L272.50,271.00L273.41,269.83L274.46,268.87L274.99,268.56L274.46,269.87L273.66,271.11L272.66,272.19L271.68,272.92"></path>
        <path d="M297.19,189.58L297.79,190.27L298.53,190.77L299.32,191.04L299.30,190.54L299.02,189.72L298.51,188.96L297.83,188.36L297.06,187.97L296.64,187.90L296.79,188.78L297.19,189.58"></path>
        <path d="M312.29,242.42L312.41,242.86L314.14,242.42L317.82,240.86L319.80,239.72L321.73,238.01L323.45,235.90L324.76,233.61L325.55,231.34L325.74,229.33L325.58,228.75L323.84,229.19L320.16,230.74L318.19,231.88L316.25,233.59L314.54,235.70L313.23,237.99L312.44,240.26L312.25,242.27L312.29,242.42"></path>
        <path d="M341.86,170.70L342.47,171.39L343.20,171.89L344.00,172.16L343.98,171.66L343.69,170.84L343.19,170.08L342.51,169.48L341.73,169.09L341.31,169.02L341.46,169.90L341.86,170.70"></path>
        <path d="M355.08,237.69L356.12,236.92L357.12,235.84L357.92,234.60L358.45,233.29L357.92,233.60L356.87,234.56L355.95,235.73L355.28,236.99L355.08,237.69"></path>
      </g>
    </g>
    <g id="Actor_.8">
      <g style="stroke:#000000;stroke-width:0.176"></g>
      <g style="stroke:#000000;stroke-width:0.529">
        <path d="M193.77,142.76L160.46,128.69L160.46,82.49"></path>
      </g>
    </g>
    <g id="Actor_.9">
      <g style="stroke:#000000;stroke-width:0.176">
        <path d="M262.27,106.40L261.40,107.82L261.08,109.59L261.35,111.53L262.18,113.46L293.43,166.71L294.74,168.43L296.40,169.79L298.26,170.64L300.12,170.90L301.81,170.55L326.35,160.17L327.70,159.24"></path>
        <path d="M260.72,109.15L261.24,108.70"></path>
        <path d="M296.81,170.66L297.33,170.21"></path>
      </g>
      <g style="stroke:#000000;stroke-width:0.529">
        <path d="M260.66,110.77L260.83,111.98L261.66,113.91L292.90,167.15L294.22,168.88L295.88,170.23L297.74,171.08L299.60,171.35L301.29,171.00L325.83,160.62L327.18,159.69L327.70,159.24L328.57,157.82L328.89,156.06L328.62,154.12L327.79,152.18L296.55,98.94L295.24,97.21L293.57,95.86L291.72,95.01L289.85,94.74L288.17,95.09L263.62,105.47L262.27,106.40L261.75,106.85L260.88,108.27L260.56,110.03L260.66,110.77"></path>
      </g>
    </g>
    <g id="Actor_.10">
      <g style="stroke:#000000;stroke-width:0.176">
        <path d="M143.63,111.79L143.59,112.07L143.25,112.72L142.74,113.12L142.09,113.21L141.38,112.98L140.70,112.47L140.11,111.73L139.67,110.83L139.44,109.87L139.44,108.97L139.67,108.21L140.11,107.68L140.70,107.43L141.38,107.50L141.94,107.79"></path>
        <path d="M140.09,80.23L139.67,79.37L139.44,78.41L139.44,77.51L139.67,76.75L140.09,76.24"></path>
        <path d="M150.62,127.29L151.34,126.67L152.36,126.11L153.38,125.99"></path>
      </g>
      <g style="stroke:#000000;stroke-width:0.529">
        <path d="M118.71,209.20L90.01,197.07L89.95,196.40L89.78,195.89L89.51,195.43L89.16,195.06L88.79,194.82L84.32,192.94L82.73,191.95L81.30,190.41L80.16,188.47L79.26,185.83L79.00,185.39L78.67,185.02L78.31,184.78L77.94,184.67L64.46,114.55L64.30,112.85L64.46,111.29L64.96,109.98L65.73,109.01L117.75,64.32"></path>
        <path d="M142.63,110.77L143.15,111.43L143.63,111.79L143.71,111.22L143.59,110.28L143.25,109.34L142.74,108.51L142.09,107.87L141.94,107.79L141.90,107.93L141.87,108.37L141.90,108.84L142.13,109.79L142.56,110.69L142.63,110.77"></path>
        <path d="M153.08,126.25L153.39,125.99"></path>
      </g>
    </g>
    <g id="Actor_.11">
      <g style="stroke:#000000;stroke-width:0.176">
        <path d="M118.02,211.60L121.70,213.16L121.55,214.74L121.55,215.69"></path>
        <path d="M121.70,213.16L122.13,211.55L122.29,211.10L123.77,206.28L124.85,201.43L125.51,196.63L125.73,191.94L125.73,156.16L125.83,155.19L126.14,154.37L126.63,153.76L150.50,133.25L150.90,132.91L151.54,132.55L152.28,132.47L153.07,132.67L174.58,141.76L176.89,140.78"></path>
        <path d="M125.99,154.78L128.80,153.59"></path>
        <path d="M165.68,138.00L145.11,146.69"></path>
        <path d="M153.50,126.33L150.51,127.60"></path>
        <path d="M176.29,139.01L176.05,139.11L176.05,137.66L153.07,127.95L151.32,127.51L149.70,127.68"></path>
        <path d="M170.60,182.48L171.27,182.31L172.45,182.44L173.47,183.01L174.25,183.98L178.50,191.62"></path>
        <path d="M174.58,141.76L176.05,139.11"></path>
        <path d="M176.05,137.66L178.87,136.47"></path>
      </g>
      <g style="stroke:#000000;stroke-width:0.529">
        <path d="M153.43,126.11L149.70,127.68L148.30,128.47L124.02,149.32L122.95,150.66L122.28,152.46L122.05,154.60L122.05,190.38L121.83,195.07L121.17,199.88L120.09,204.73L118.60,209.55L118.45,209.99L118.02,211.60L117.87,213.18L117.87,214.13L121.55,215.69L129.22,212.45"></path>
        <path d="M191.57,186.10L178.50,191.62L174.82,190.07L170.60,182.48L170.00,182.63L152.64,189.97L151.37,190.72L150.19,191.85L149.17,193.28L148.39,194.91L144.14,206.15L143.89,206.25"></path>
      </g>
    </g>
    <g id="Actor_.12">
      <g style="stroke:#000000;stroke-width:0.176">
        <path d="M307.96,49.74L306.95,51.05L305.04,52.17L228.51,84.51L219.13,88.47L216.49,89.28L213.39,89.71L210.13,89.71L207.04,89.28L204.40,88.47L118.49,52.17L116.57,51.05L115.59,49.77L115.57,62.33"></path>
        <path d="M115.59,49.77L115.57,48.37"></path>
        <path d="M121.97,50.03L121.43,49.44L121.37,48.82L121.80,48.22L122.66,47.71L123.87,47.34L125.29,47.16L126.78,47.19L128.16,47.41L129.29,47.82L129.77,48.16L130.05,48.36L130.36,48.98L130.18,49.60L129.52,50.16L129.05,50.40L128.47,50.61L127.14,50.88L125.66,50.96L124.21,50.83L122.93,50.51L121.97,50.03"></path>
        <path d="M164.93,68.18L164.39,67.60L164.33,66.97L164.75,66.37L165.62,65.86L166.82,65.49L168.25,65.31L169.73,65.34L171.12,65.57L172.25,65.97L173.01,66.51L173.32,67.13L173.13,67.75L172.48,68.32L172.01,68.55L171.43,68.76L170.11,69.03L168.62,69.11L167.17,68.98L165.89,68.66L164.93,68.18"></path>
        <path d="M165.17,30.96L165.31,30.46L165.84,30.00L166.23,29.81L166.69,29.65L167.77,29.42L168.97,29.36L170.13,29.46L171.16,29.72L171.94,30.11L172.37,30.58L172.42,31.09L172.08,31.58L171.38,31.99L170.41,32.28L169.26,32.43L168.06,32.41L166.94,32.22L166.03,31.90L165.41,31.46L165.17,30.96"></path>
        <path d="M244.90,55.35L245.86,54.49L247.55,51.98L248.20,49.38L247.81,46.77L246.38,44.23L243.95,41.83L240.60,39.63L236.42,37.71L231.53,36.11L226.07,34.89L220.20,34.07L214.08,33.68L207.90,33.74L201.83,34.23L196.05,35.15L190.72,36.48L185.99,38.16L182.00,40.16L178.87,42.41L176.69,44.86L175.52,47.42L175.39,50.03L176.30,52.62L178.24,55.10L178.56,55.35"></path>
        <path d="M179.21,73.92L179.11,73.79"></path>
        <path d="M179.63,74.37L179.82,74.49"></path>
        <path d="M180.85,74.95L180.54,74.85"></path>
        <path d="M182.16,75.23L181.79,75.18"></path>
        <path d="M183.23,75.33L183.60,75.32"></path>
        <path d="M185.06,75.21L184.71,75.27"></path>
        <path d="M186.35,74.90L186.16,74.98L185.84,75.05"></path>
        <path d="M187.71,74.10L187.86,73.96L187.90,73.85"></path>
        <path d="M186.98,74.64L187.22,74.52L187.32,74.44"></path>
        <path d="M188.02,73.31L188.04,73.35L188.01,73.47"></path>
        <path d="M207.28,85.13L207.35,85.75L207.89,86.34L208.84,86.82L210.12,87.14L211.57,87.27L213.05,87.19L214.38,86.91L214.97,86.70L215.43,86.47L216.09,85.91L216.27,85.28L215.97,84.67L215.21,84.13L214.07,83.72L212.69,83.49L211.20,83.47L209.78,83.65L208.57,84.01L207.71,84.52L207.28,85.13"></path>
        <path d="M207.35,13.14L207.88,13.72L208.85,14.20L210.12,14.52L211.58,14.65L213.05,14.57L214.39,14.30L214.97,14.09L215.44,13.85L216.09,13.29L216.27,12.67L215.97,12.05L215.21,11.51L214.07,11.11L212.69,10.88L211.20,10.85L209.78,11.03L208.57,11.40L207.71,11.91L207.28,12.51L207.35,13.14"></path>
        <path d="M236.33,25.76L236.11,25.65L236.02,25.55"></path>
        <path d="M235.68,25.19L235.57,25.07L235.56,24.96"></path>
        <path d="M236.91,26.05L237.07,26.13L237.37,26.21"></path>
        <path d="M238.14,26.40L238.35,26.45L238.69,26.48"></path>
        <path d="M239.56,26.56L239.92,26.57"></path>
        <path d="M241.61,26.44L241.28,26.50L241.03,26.52"></path>
        <path d="M242.71,26.19L242.38,26.28"></path>
        <path d="M243.48,25.86L243.66,25.78L243.78,25.69"></path>
        <path d="M244.44,24.80L244.50,24.60L244.48,24.56"></path>
        <path d="M244.20,25.32L244.32,25.22L244.33,25.16"></path>
        <path d="M250.30,31.29L250.84,31.88L251.80,32.35L253.08,32.68L254.53,32.81L256.01,32.73L257.34,32.45L257.91,32.25L258.39,32.01L259.04,31.44L259.23,30.82L258.92,30.21L258.16,29.67L257.03,29.26L255.64,29.03L254.16,29.01L252.74,29.19L251.53,29.55L250.66,30.06L250.24,30.66L250.30,31.29"></path>
        <path d="M251.32,67.77L251.08,67.27L251.23,66.77L251.75,66.31L252.14,66.12L252.60,65.95L253.68,65.73L254.87,65.67L256.04,65.77L257.07,66.03L257.85,66.42L258.29,66.89L258.33,67.40L257.99,67.88L257.29,68.30L256.32,68.59L255.17,68.74L253.97,68.72L252.85,68.53L251.94,68.20L251.32,67.77"></path>
        <path d="M293.80,50.03L293.26,49.44L293.20,48.82L293.62,48.22L294.48,47.71L295.69,47.34L297.12,47.16L298.60,47.19L299.98,47.42L301.12,47.82L301.88,48.36L302.18,48.97L302.00,49.60L301.35,50.16L300.88,50.40L300.30,50.61L298.96,50.88L297.49,50.96L296.03,50.83L294.76,50.51L293.80,50.03"></path>
      </g>
      <g style="stroke:#000000;stroke-width:0.529">
        <path d="M221.83,99.91L219.13,101.06L216.49,101.87L213.39,102.29L210.13,102.29L207.04,101.87L204.40,101.06L118.49,64.75L116.57,63.64L115.57,62.33"></path>
        <path d="M115.57,48.37L116.57,47.06L118.49,45.94L204.40,9.63L207.04,8.82L210.13,8.40L213.39,8.40L216.49,8.82L219.13,9.63L305.04,45.94L306.95,47.06L307.96,48.37L307.96,62.33L307.96,59.40"></path>
        <path d="M178.62,55.28L178.56,55.35L181.14,57.41L184.92,59.47L189.47,61.24L194.67,62.66L200.35,63.68L206.37,64.29L212.53,64.45L218.68,64.18L224.63,63.47L230.21,62.34L235.26,60.83L237.54,59.95L239.63,58.98L243.20,56.85L244.90,55.35L243.95,54.41L240.60,52.22L236.42,50.29L231.53,48.70L226.07,47.47L220.20,46.65L214.08,46.27L207.90,46.32L201.83,46.82L196.05,47.74L190.72,49.06L185.99,50.75L182.00,52.74L178.87,55.00L178.62,55.28"></path>
        <path d="M307.96,62.33L306.95,63.64L305.32,64.58"></path>
        <path d="M307.96,49.77L307.96,48.94L307.96,49.77"></path>
        <path d="M307.96,48.94L307.96,48.37"></path>
      </g>
    </g>
    <g id="Actor_.13">
      <g style="stroke:#000000;stroke-width:0.176">
        <path d="M207.45,53.36L207.41,53.64L207.07,54.29L206.56,54.68L205.91,54.77L205.20,54.55L204.52,54.04L203.93,53.29L203.49,52.40L203.26,51.44L203.26,50.53L203.49,49.78L203.93,49.24L204.52,49.00L205.20,49.07L205.76,49.36"></path>
      </g>
      <g style="stroke:#000000;stroke-width:0.529">
        <path d="M207.45,53.36L206.97,53.00L206.38,52.26L205.95,51.36L205.72,50.40L205.69,49.94L205.72,49.50L205.76,49.36"></path>
        <path d="M205.76,49.36L205.91,49.44L206.56,50.08L207.07,50.91L207.41,51.85L207.53,52.79L207.45,53.36"></path>
      </g>
    </g>
    <g id="Actor_.14">
      <g style="stroke:#000000;stroke-width:0.176">
        <path d="M69.39,197.69L88.65,209.90L89.52,210.35L120.94,223.63L122.70,224.17L124.76,224.45L126.94,224.45L129.00,224.17L130.76,223.63L155.63,213.12L156.46,212.66L156.98,212.13L156.98,221.57"></path>
        <path d="M86.82,195.72L87.99,196.22L88.30,196.39L88.47,196.60L88.51,196.96L88.61,197.08L88.81,197.19L89.07,197.26L89.38,197.30L89.70,197.30L90.00,197.26L90.26,197.18"></path>
        <path d="M102.96,212.50L103.38,211.91L104.25,211.39L105.46,211.02L106.88,210.84L108.37,210.87L109.75,211.10L110.88,211.50L111.64,212.04L111.95,212.66L111.77,213.28L111.11,213.84L110.06,214.29L108.73,214.56L107.25,214.64L105.80,214.51L104.52,214.19L103.56,213.71L103.02,213.13L102.96,212.50"></path>
        <path d="M122.30,221.66L121.97,221.49L121.43,220.91L121.37,220.28L121.80,219.68L122.66,219.17L123.87,218.80L125.29,218.62L126.78,218.65L128.16,218.88L129.29,219.28L130.05,219.82L130.36,220.44L130.18,221.06L129.52,221.62L128.47,222.07L127.14,222.35L125.66,222.42L124.21,222.29L122.93,221.97L122.30,221.66"></path>
        <path d="M125.85,224.45L125.85,233.89"></path>
        <path d="M154.39,205.76L154.21,206.33L154.39,206.90L154.39,205.76L154.91,205.23L155.74,204.77L174.51,196.84L175.59,196.49L176.85,196.27L176.85,205.71"></path>
        <path d="M154.39,206.90L156.98,210.99L157.16,211.56L156.98,212.13"></path>
        <path d="M157.16,213.61L157.16,211.56"></path>
        <path d="M176.85,196.27L178.19,196.20L179.54,196.27L189.22,197.37L190.57,197.44L191.92,197.37L191.92,206.80"></path>
        <path d="M191.92,197.37L193.17,197.15L194.25,196.80L217.28,187.07"></path>
        <path d="M207.35,184.60L207.89,185.19L208.84,185.66L210.12,185.99L211.58,186.11L213.05,186.04L214.38,185.76L215.44,185.32L216.09,184.75L216.27,184.13L215.97,183.52L215.21,182.98L214.02,182.56L212.69,182.34L211.20,182.32L209.78,182.50L208.57,182.86L207.71,183.37L207.28,183.97L207.35,184.60"></path>
      </g>
      <g style="stroke:#000000;stroke-width:0.529">
        <path d="M217.29,196.50L194.25,206.23L193.17,206.58L191.92,206.80L190.57,206.88L189.22,206.80L179.54,205.71L178.19,205.63L176.85,205.71L175.59,205.93L174.51,206.28L157.16,213.61L157.16,221.00L156.98,221.57L156.46,222.10L155.63,222.55L130.76,233.07L129.00,233.61L127.13,233.86L126.94,233.89L124.76,233.89L122.70,233.61L120.94,233.07L89.52,219.79L88.65,219.34L69.39,207.13L69.39,197.69L80.44,193.03L86.82,195.72"></path>
        <path d="M216.37,180.97L206.24,176.69"></path>
      </g>
    </g>
    <g id="Actor_.15">
      <g style="stroke:#000000;stroke-width:0.176">
        <path d="M58.98,186.34L61.83,186.56"></path>
        <path d="M69.39,203.64L63.13,191.31L62.03,188.26L61.63,184.87L61.95,181.41L66.32,159.57L66.64,156.41L66.36,153.29L59.01,115.05L58.91,113.99L59.01,113.02L59.32,112.20L59.81,111.59L65.40,106.78L66.29,106.07L64.21,102.52"></path>
        <path d="M59.01,113.02L64.72,110.60"></path>
        <path d="M66.42,187.49L67.40,188.01L68.48,188.05L69.54,187.60L70.44,186.72L71.10,185.50L71.45,184.08L71.44,182.60L71.09,181.22L70.42,180.10L69.50,179.36L68.45,179.08L67.37,179.29L67.08,179.48"></path>
        <path d="M66.29,106.07L67.39,105.29L71.07,102.78L72.16,101.99L73.05,101.28L116.31,64.12L116.73,63.73"></path>
        <path d="M72.16,101.99L70.08,98.45"></path>
        <path d="M115.57,61.13L114.88,59.96"></path>
      </g>
      <g style="stroke:#000000;stroke-width:0.529">
        <path d="M69.39,203.64L66.55,203.41L60.28,191.08L59.19,188.03L58.78,184.64L59.10,181.18L63.47,159.34L63.80,156.19L63.51,153.07L56.17,114.83L55.96,112.75L56.17,110.84L56.77,109.23L57.72,108.04L63.32,103.23L64.21,102.52L65.30,101.74L68.98,99.23L70.08,98.45L70.97,97.73L114.23,60.57L114.88,59.96L115.25,59.48L115.57,58.92"></path>
        <path d="M65.61,186.55L66.42,187.49L66.69,187.38L67.60,186.50L68.26,185.28L68.60,183.85L68.60,182.37L68.24,181.00L67.57,179.88L67.08,179.48L66.38,179.96L65.58,181.02L65.07,182.36L64.90,183.84L65.08,185.28L65.61,186.55"></path>
      </g>
    </g>
    <g id="Actor_.16">
      <g style="stroke:#000000;stroke-width:0.176">
        <path d="M202.45,266.72L202.45,257.28L203.12,258.16L204.40,258.90L235.82,272.18L236.88,272.55L265.19,280.52"></path>
        <path d="M202.45,257.28L202.45,256.37"></path>
        <path d="M207.42,257.24L207.56,257.52L208.32,258.06L209.45,258.46L210.84,258.69L212.32,258.72L213.74,258.54L214.95,258.17L215.82,257.66L216.24,257.06L216.18,256.43L215.64,255.85L214.68,255.37L213.40,255.05L211.95,254.92L210.47,255.00L209.14,255.27L208.09,255.72L207.44,256.28L207.25,256.90L207.42,257.24"></path>
        <path d="M225.77,264.89L225.97,265.30L226.73,265.84L227.86,266.24L229.25,266.47L230.73,266.50L232.15,266.32L233.36,265.95L234.23,265.44L234.65,264.84L234.59,264.21L234.05,263.63L233.09,263.15L231.81,262.83L230.36,262.70L228.88,262.78L227.55,263.05L226.50,263.50L225.85,264.06L225.66,264.68L225.77,264.89"></path>
        <path d="M265.76,290.12L265.76,286.63"></path>
        <path d="M283.19,282.76L283.19,282.65"></path>
        <path d="M311.85,262.76L311.85,261.78"></path>
        <path d="M327.13,264.19L327.13,260.69"></path>
        <path d="M343.08,257.45L343.08,257.33"></path>
      </g>
      <g style="stroke:#000000;stroke-width:0.529">
        <path d="M202.45,266.72L203.12,267.60L204.40,268.34L235.82,281.62L236.88,281.98L265.76,290.12L276.81,285.45L276.81,285.34"></path>
        <path d="M217.29,249.30L204.40,254.75L203.12,255.49L202.45,256.37"></path>
        <path d="M292.76,278.60L292.76,278.71L283.68,282.55L283.19,282.76L283.06,282.70"></path>
        <path d="M303.27,265.97L309.52,263.33L310.59,262.98L311.85,262.76L313.20,262.69L314.55,262.76L327.13,264.19L336.70,260.14L336.70,260.03"></path>
        <path d="M354.13,252.67L354.13,252.78L344.46,256.86L343.08,257.45L342.95,257.39"></path>
      </g>
    </g>
    <g id="Actor_.17">
      <g style="stroke:#000000;stroke-width:0.176">
        <path d="M194.65,173.38L194.60,173.18L194.60,172.51L194.77,171.94L195.09,171.55L195.53,171.37L196.04,171.42L196.57,171.69L197.05,172.17L197.43,172.79L197.68,173.48L197.77,174.18L197.69,174.80L197.68,174.81L197.43,175.30L197.05,175.59L196.57,175.66L196.04,175.49L195.53,175.11L195.09,174.56L194.77,173.89L194.65,173.38"></path>
        <path d="M194.60,154.30L194.60,153.63L194.77,153.07L195.09,152.67L195.53,152.49L196.04,152.54L196.57,152.82L197.05,153.29L197.43,153.91L197.68,154.61L197.77,155.31L197.68,155.93L197.43,156.42L197.05,156.71L196.57,156.78L196.04,156.61L195.53,156.23L195.09,155.68L194.77,155.01L194.60,154.30"></path>
        <path d="M201.08,191.32L202.31,190.26L202.31,155.75"></path>
        <path d="M202.31,190.26L206.24,188.60"></path>
      </g>
      <g style="stroke:#000000;stroke-width:0.529">
        <path d="M206.24,162.44L206.24,188.60L205.01,189.66L201.08,191.32L192.49,187.68L190.53,184.34L190.53,148.50"></path>
      </g>
    </g>
    <g id="Actor_.18">
      <g style="stroke:#000000;stroke-width:0.176">
        <path d="M133.19,201.46L132.75,200.91L132.42,200.24L132.25,199.53L132.25,198.86L132.42,198.29L132.75,197.90L133.19,197.72L133.70,197.77L134.22,198.04L134.70,198.52L135.09,199.14L135.34,199.83L135.42,200.53L135.34,201.16L135.09,201.65L134.70,201.94L134.22,202.01L133.70,201.84L133.19,201.46"></path>
        <path d="M133.56,182.86L133.19,182.58L132.75,182.03L132.42,181.36L132.25,180.65L132.25,179.98L132.42,179.42L132.75,179.02L133.19,178.84L133.70,178.89L134.22,179.17L134.70,179.64L135.09,180.26L135.34,180.96L135.42,181.66L135.34,182.28L135.09,182.77L134.70,183.06L134.22,183.13L133.70,182.96L133.56,182.86"></path>
        <path d="M133.56,163.99L133.19,163.71L132.75,163.15L132.42,162.49L132.25,161.78L132.25,161.10L132.42,160.54L132.75,160.14L133.19,159.96L133.70,160.01L134.22,160.29L134.70,160.76L135.09,161.38L135.34,162.08L135.42,162.78L135.34,163.41L135.09,163.89L134.70,164.19L134.22,164.25L133.70,164.09L133.56,163.99"></path>
        <path d="M143.89,214.95L139.96,216.61L138.74,217.66"></path>
        <path d="M139.96,216.61L139.96,154.53L140.15,151.88L140.70,149.46L141.61,147.36L143.12,144.64L143.32,144.05L143.34,143.34L147.27,141.68"></path>
        <path d="M143.34,143.34L143.18,142.59L142.85,141.87L142.57,141.38"></path>
      </g>
      <g style="stroke:#000000;stroke-width:0.529">
        <path d="M128.18,210.31L128.18,210.69L130.15,214.03L138.74,217.66L142.66,216.00L143.89,214.95L143.89,152.87L144.08,150.22L144.63,147.80L145.54,145.70L147.05,142.98L147.25,142.39L147.27,141.68L147.10,140.93L146.78,140.21L146.50,139.72L142.57,141.38L129.61,152.51L128.84,153.48L128.35,154.79L128.18,156.35L128.18,210.31"></path>
      </g>
    </g>
    <g id="Actor_.19">
      <g style="stroke:#000000;stroke-width:0.529">
        <path d="M80.30,193.09L78.77,185.13"></path>
      </g>
    </g>
    <g id="Actor_.20">
      <g style="stroke:#000000;stroke-width:0.176">
        <path d="M222.59,255.79L226.27,257.35L226.70,255.74L226.85,255.29L228.34,250.47L229.42,245.62L230.08,240.82L230.30,236.13L230.30,200.35L230.07,198.02L229.39,195.64L228.32,193.40L204.04,152.03L202.65,150.06L201.02,148.51L199.27,147.48L176.29,137.77"></path>
        <path d="M204.66,148.09L201.83,149.29"></path>
        <path d="M217.84,142.52L217.31,142.75"></path>
        <path d="M226.27,257.35L226.12,258.93L226.12,259.88"></path>
        <path d="M229.73,196.83L232.44,195.68"></path>
      </g>
      <g style="stroke:#000000;stroke-width:0.529">
        <path d="M232.90,257.02L226.12,259.88L222.44,258.33L222.44,257.38L222.59,255.79L223.01,254.18L223.17,253.74L224.66,248.92L225.74,244.07L226.39,239.26L226.61,234.57L226.61,198.80L226.51,197.73L226.20,196.66L225.71,195.64L201.44,154.26L200.81,153.37L200.07,152.67L199.27,152.20L177.77,143.11L176.29,139.22L176.29,137.77L179.12,136.57"></path>
      </g>
    </g>
    <g id="Actor_.21">
      <g style="stroke:#000000;stroke-width:0.176">
        <path d="M235.48,21.54L235.66,22.16L236.31,22.73L237.35,23.17L238.16,23.34L238.69,23.45L240.16,23.53L241.61,23.40L242.89,23.08L243.86,22.61L244.40,22.02L244.47,21.40"></path>
        <path d="M244.07,20.79L244.01,21.36L243.51,21.89L242.64,22.32L241.47,22.62L240.14,22.73L239.77,22.71L238.80,22.66L237.59,22.41L236.63,22.00L236.04,21.48L235.88,20.92L236.17,20.36"></path>
      </g>
      <g style="stroke:#000000;stroke-width:0.529">
        <path d="M244.48,24.66L244.47,21.40L244.07,20.79L243.69,20.24L242.91,19.77L241.81,19.44L240.51,19.27L239.16,19.29L237.90,19.50L236.86,19.87L236.17,20.36L235.79,20.92L235.48,21.54L235.49,24.72"></path>
      </g>
    </g>
    <g id="Actor_.22">
      <g style="stroke:#000000;stroke-width:0.176">
        <path d="M309.38,160.83L309.68,161.53L310.28,162.32L311.06,162.93L311.27,163.02"></path>
        <path d="M310.57,160.47L310.41,160.02L310.35,159.71L310.32,159.27L310.36,158.99L310.48,158.60L310.61,158.38L310.85,158.08L311.07,157.94L311.41,157.77L311.68,157.73L312.10,157.70L312.39,157.77L312.83,157.88L313.11,158.05L313.53,158.29L313.77,158.54L314.12,158.89L314.30,159.19L314.54,159.61L314.63,159.94L314.75,160.37L314.74,160.69L314.71,161.10L314.61,161.37L314.45,161.70L314.25,161.90L313.97,162.12L313.71,162.23L313.34,162.32L313.04,162.31L312.62,162.26L312.31,162.15L311.90,161.96L311.61,161.76L311.24,161.44L311.01,161.18L310.73,160.77L310.57,160.47"></path>
        <path d="M312.00,160.55L311.88,160.46L311.64,160.29L311.62,160.02L311.54,159.13L311.51,158.86L311.73,158.77L312.44,158.47L312.65,158.38L312.89,158.56L313.67,159.15L313.91,159.33L313.94,159.60L314.01,160.48L314.04,160.75L313.12,161.14L312.90,161.23L312.67,161.05L312.00,160.55"></path>
        <path d="M312.65,158.38L311.70,159.20L311.55,159.26"></path>
        <path d="M311.70,159.20L312.96,160.15L313.05,161.17"></path>
        <path d="M312.96,160.15L313.91,159.33"></path>
      </g>
      <g style="stroke:#000000;stroke-width:0.529">
        <path d="M309.38,160.83L309.30,160.64L309.20,159.75L309.38,158.96L309.82,158.34L310.00,158.19L310.66,157.82L310.94,157.68L311.72,157.60L311.98,157.62L312.76,157.81L313.51,158.25L314.14,158.89L314.59,159.66L314.81,160.47L314.77,161.25L314.74,161.53L314.43,162.22L314.25,162.48L313.69,162.98L313.51,163.13L312.77,163.36L311.92,163.29L311.27,163.02"></path>
      </g>
    </g>
    <g id="Actor_.23">
      <g style="stroke:#000000;stroke-width:0.176">
        <path d="M276.82,101.61L276.21,102.22L275.88,103.06L275.88,104.05L276.19,105.08L276.80,106.04L277.62,106.83L278.58,107.35L279.57,107.55L280.48,107.42L281.21,106.96"></path>
      </g>
      <g style="stroke:#000000;stroke-width:0.529">
        <path d="M281.80,104.97L281.85,105.30L281.81,105.78L281.68,106.23L281.21,106.96L280.86,107.26L280.13,107.72L279.22,107.85L278.24,107.65L277.28,107.12L276.45,106.34L275.85,105.38L275.53,104.35L275.53,103.36L275.86,102.52L276.47,101.91L276.82,101.61L277.65,101.31L278.61,101.35L278.74,101.40"></path>
      </g>
    </g>
    <g id="Actor_.24">
      <g style="stroke:#000000;stroke-width:0.176">
        <path d="M179.06,70.62L179.48,71.22L180.34,71.73L181.55,72.09L182.98,72.27L184.46,72.25L185.84,72.02L186.98,71.61L187.74,71.07L188.04,70.46"></path>
        <path d="M187.48,69.26L187.64,69.82L187.36,70.38L187.00,70.64L186.67,70.87L185.64,71.24L184.38,71.45L183.02,71.48L181.84,71.33L181.73,71.31L180.63,70.98L179.84,70.51L179.45,69.97L179.51,69.39"></path>
      </g>
      <g style="stroke:#000000;stroke-width:0.529">
        <path d="M188.03,73.39L188.04,70.46L187.86,69.84L187.48,69.26L186.88,68.74L185.92,68.34L184.71,68.09L183.37,68.01L182.04,68.13L180.88,68.42L180.00,68.86L179.51,69.39L179.12,69.99L179.06,70.62L179.04,73.54"></path>
      </g>
    </g>
    <g id="Actor_.25">
      <g style="stroke:#000000;stroke-width:0.176">
        <path d="M309.80,157.82L309.19,158.42L308.86,159.27L308.86,160.26L309.17,161.29L309.78,162.25L310.60,163.03L311.56,163.55L312.55,163.76L312.60,163.75L313.46,163.62L314.19,163.16"></path>
      </g>
      <g style="stroke:#000000;stroke-width:0.529">
        <path d="M311.72,157.60L311.59,157.55L310.63,157.52L309.80,157.82L309.45,158.12L308.84,158.72L308.51,159.57L308.51,160.56L308.83,161.59L309.43,162.55L310.26,163.33L311.21,163.85L312.20,164.06L313.11,163.92L313.84,163.46L314.19,163.16L314.66,162.43L314.79,161.98L314.83,161.50L314.78,161.17"></path>
      </g>
    </g>
    <g id="Actor_.26">
      <g style="stroke:#000000;stroke-width:0.176">
        <path d="M278.29,106.81L278.08,106.73L277.31,106.12L276.70,105.33L276.40,104.63"></path>
        <path d="M278.26,105.24L278.03,104.97L277.75,104.57L277.59,104.27L277.43,103.82L277.37,103.51L277.34,103.06L277.38,102.78L277.50,102.39L277.63,102.17L277.87,101.87L278.09,101.73L278.44,101.56L278.71,101.52L279.12,101.49L279.41,101.56L279.85,101.67L280.14,101.84L280.55,102.09L280.80,102.33L281.14,102.69L281.32,102.99L281.57,103.41L281.66,103.73L281.77,104.17L281.76,104.48L281.74,104.89L281.63,105.16L281.47,105.50L281.27,105.69L280.99,105.92L280.73,106.02L280.36,106.11L280.06,106.11L279.65,106.05L279.33,105.95L278.92,105.75L278.63,105.56L278.26,105.24"></path>
        <path d="M279.92,105.03L279.69,104.84L279.03,104.35L278.90,104.26L278.66,104.08L278.64,103.81L278.63,103.68L278.56,102.93L278.54,102.66L278.75,102.57L279.46,102.27L279.67,102.18L279.91,102.36L280.69,102.94L280.93,103.12L280.96,103.39L281.04,104.27L281.06,104.55L280.85,104.63L280.14,104.93L279.92,105.03"></path>
        <path d="M280.07,104.96L279.98,103.94L278.72,103.00L279.67,102.18"></path>
        <path d="M279.98,103.94L280.93,103.12"></path>
        <path d="M278.72,103.00L278.57,103.06"></path>
      </g>
      <g style="stroke:#000000;stroke-width:0.529">
        <path d="M276.40,104.63L276.32,104.44L276.22,103.55L276.40,102.75L276.85,102.13L277.02,101.99L277.68,101.62L277.96,101.48L278.75,101.40L279.00,101.41L279.78,101.61L280.53,102.05L281.16,102.69L281.61,103.45L281.83,104.27L281.80,105.04L281.77,105.32L281.46,106.02L281.27,106.28L280.71,106.78L280.54,106.92L279.79,107.15L278.94,107.08L278.29,106.81"></path>
      </g>
    </g>
    <g></g>
    <g></g>
    <g id="paperID" visibility="hidden" opacity="0.00" transform="scale(0.000100)">
      <path style="stroke:#000000;stroke-width:0.500;fill:#e6e6e6;fill-rule:evenodd" d="M-2000.00,-2000.00L2420.00,-2000.00L2420.00,2297.00L-2000.00,2297.00zM0.00,0.00L420.00,0.00L420.00,297.00L0.00,297.00z"></path>
      <path style="fill:#000000;fill-opacity:0.118" d="M3.00,297.00L420.00,297.00L420.00,3.00L423.00,3.00L423.00,300.00L3.00,300.00z"></path>
    </g>
    <g id="ToolTip" visibility="hidden" opacity="0" transform="translate(0,0)">
      <rect id="ToolTipShadow" opacity="0.20" fill="black" stroke="none" x="0" y="0" width="30" height="8"></rect>
      <rect id="ToolTipBG" fill="#ffffe1" stroke="black" x="0" y="0" width="30" height="8"></rect>
      <text xml:space="preserve" id="ToolTipText" fill="black" x="0" y="0" width="30" height="8">tooltip</text>
    </g>
  </g>
</svg>
