<svg xmlns="http://www.w3.org/2000/svg" width="1587.402" height="1122.52" viewBox="0 0 420 297" stroke-linejoin="round" stroke-linecap="round" fill="none" fill-rule="evenodd" xmlns:v="https://vecta.io/nano"><style><![CDATA[.B{stroke-width:.529}.C{stroke-width:.176}.D{stroke-opacity:.25}.E{opacity:0}.F{fill:#0f0}.G{fill:#e5e5e5}.H{visibility:hidden}]]></style><path d="M419.93 296.91H.09V.09h419.84z" fill="#fff"/><path d="M149.37 122.06l.33-.55 4.92-1.94-2.14 4.16-1.22.36-1.26.64.33 1.84-.05.24-.49-.41-.74-3.88.16-.12.34.52-.04-.74z" class="G"/><path d="M150 124.73l1.26-.64-.25.63.21 1.86-.89-.01z" fill="#fff"/><path d="M158.95 122.1l.27.36.85.15.11-.18.68-.28.17 1.94-.96.43-.97.27-.51-.47.86-.25-.74.05-.12.2-.69-.3.61-.4-.25-.61.19-.56h-.67l.11.52-.16.17.17.88-.46-.13-.36-1.72.26-.65 1.23-.35zm-6.13 2.87l-1.19.08 1.13.41.06-.49h.34l.12.2.82-.16.63-.35-.13 1.5.32.51-.94.71-.46-.26-.15-.45-1.15-.12.15-.55-.77-.27.24.77-.62.08-.21-1.86.25-.63 1.22-.36z" fill="#e2e6f7"/><path d="M369.65 39.15l.15 2.49.18 2.58.14 2.23.18 2.26.14 2.22.18 2.58.14 2.23.18 2.26.29 2.68-.33 1.37-1.23 1.71-.02 2.25.15 2.54.18 2.27.14 2.22.18 2.58.14 2.22.18 2.27.26 2.04.36.6 1 .6.46.89.16 1.96.14 2.22.18 2.58.15 2.22.17 2.27.15 2.54.17 2.26.15 2.22.17 2.27-.04 1.48-.64 2.24-4.75 8.7-1.98.94-.01-1.65 2.61-9.36-1.31.74-2.62 9.28.13.5.13.58-31.27 114.6-.74.54-.24 1.04-18.26 7.71-.3-.74-.51-.07-.72-.15 4.66-17.4 26.69-97.71.31.04-.03-7.03.35-.94-1.4-22.22.61-1.32.8-1.12-.34-8.77-.62-9.31-.65-.95-2.07-.89.02-.31.4-.31-.28-8.41-1.08-13.77 28.33-11.92zM251.9 86.52l-.29 1.06-1.6.45v-1.75l1.05-.22.55-.78.25-.01zm-33.32 11.3l2.04-2.47 3.53-1.92 4.72-1.37 2.56-.32 3.32-.01v4.29l-5.37.66-5.33 1.46-3.24 1.89-.95 1.01-.48.02-.34-.34zm63.43 5.99l-.3.44-2.35 1.21h-.58l-.43-.4-.08-.19-.8.15-32.16 13.73-2.11 1.14-.15.83-2.55 1.23-2.76.84-1.29-.15.09-4.32 3.87-.94 40.7-17.29.77-.81zm-57.34 5.06v1.37l-.61 1.04-1.29.13.03-1.4 1.01-.57.67-1.08zm-7.57 6.87l-.24.55-.16.1-.04 2.81-.17 1.17-1.43 2.09-1.79 2.71-1.58 4.25-.03 3.66.66 2.22.61.36h.99l-.34-1.3v-4.08l.87-2.98 2.21-3.87 1.42-2.11.32-.96.27-3.25.28-.4.72-.02 10.55 4.5-.28 18.08-.36.93-3.9 1.54h-1.54l-1.79-.45-.76-.58-.73.01.35.38 1.14.19 1.54 1.07v.71l-.79-.08.1 1.3 3.52 16.97.01 1.72-.44 1.16-25.63 10.94-.51-.02-.63-1.27-1.72.4-.26-.38-.29-2.93-.64-10.9-.02-4.08 4.83-12.47 1.61-.77-1.41.02-.95.32-3.07 3.02-2.59 2.85-7.98 8.04-2.6 2.85-6.88 6.9-.47 1.13-1.39.87-1-.03 8.01-8.68 19.57-21.75 2.24-2.28.42-.01 6.75 2.97.63.09.04-2.1-9.62-3.84-1.65-1.22-.71-1.36 1.39.17-.03-5.79.86-2.98 1.89-3.23 1.74-2.75.33-.95.31-3.25.64-.11zm123.38-3.22l.32 2.39-.64 1.62-1.82 1.13-.98.2-.77-.17-.16-.4 1.05-.24.76-1.82-.05-2.02.39.64.59.02v-1.19l1.04-.46zm-175.9 3.58l-.71.29.24 1.51.18.97.46 2.23.01.99-.16.35-.26-.09-.42-3.05-.29-1.64-.34-.6-1.3 2.36-.6-.11-.45-.68 2-2.8 1-.1zm133.43 45.72l.2.92.14.68.18.92.16.69-.14.64-18.59-36.23.31-1.97zm28.22-22.69l-1.45 2.14.01 1.97.47 2.54.19.94.14.68.17.92.14.68.2.95-.09.26-.68-.03-1.21-6.22-.02-2.8 1.82-2.35 3.59-3.86h.37zm-99.5 6.12l.49 2.77.19.94.14.68.18.92.14.68.17.95 1.9 7.95-1.4.84-.52-.01-.98-3.87-2.23-10.89-.1-1.64.73-.01zm91.12 3.76l-.24.04-2.91 3.21-1.41 1.87-.21.92v.66l.18 1.27.13.69.14.83.2-.5.9-.35-.71 1.59-.17.12.15.85.46 2.55.19.94.14.68.18.92.14.68.18.95.76 4.19.16.85.17-.52 5.21-9.89.18-.01.25.89.78 4.48v.97l-.17 1.49-.88 2.71-.18.07-.33.9-3.13 5.9-.18 1.76-.87-.12-4.37-22.86-.02-3.45 1.81-2.35 3.57-3.83.12.03zm-151.66 9.95l.3 6.62-9.11 13.9-1.11 2.8-.23 3.55-3.09 1.4h-1.53l-1.89-.99-1.39-1.17-.15-.49 1.52.53.32-5.16.64-2.57 3.07-4.94 7.84-11.7 4.52-2.07zm8.31 3.5l-.3 3.41-.95 1.01-1.63.58-.1 4.79 3.3 2.79 2.09 2.13.16 3.45.16-3.13 4.67 4.25 4.41 1.95.47 1.82.23 1.19-.03-1.05-.2-.14.23-1.54.62.36.19 1.48.17 1.63.15 1.26.18 1.3-.01 3.11-5.48 6.06-16.31 16.37-2.59 2.86-16.31 16.37-2.59 2.85-15.67 15.73-2.6 2.85-8.51 8.5-.28.04-.3.55-.24.17-6.38 6.15-.33 1.87-3.91 1.85-3.19 1.06-.27-.75-.7-.03-2.22.98.1.76-.37.62-11.23 4.83.02-.6 3.53-2.93 4.08-3.3 2.35-1.2.04-.75-.35-.36-1.41.38-2.47 1.72-.01-.62 8.35-8.37 2.59-2.85 15.67-15.73 2.59-2.85 15.99-16.05 2.59-2.85 16.31-16.37 2.6-2.86 5.73-5.9-1.27-11.21-.35-.97-.37-.04-3.46 1.42-2.44.74-.12-.83-1.26-.66-1-.92-.55-.74 1.53.53.31-5.49.98-2.87 10.58-16 4.55-2.05zm-21.13-8.77l-7.02 17.72-.33 1.6.01 1.61.26 2.36.98 3.17-1.64 4.15-.32.38-2.8 5.3-.22.61-1.46 2.82.02.84-2.51 2.72-4.08 2.07-4.76.46.68-1.71 23.23-45.74.3-.08zM299.94 174l.17 2.76-.46.82-1.78 1.11-1.62 2.57-.04-.65 3.48-6.85.2-.08zm-96.6 1.8l.85-.76 20.82-8.66h1.41l.09 4.32-1.3.3-21.01 8.85-.2 3.01-.36.6-6.47 2.81-2.28.1.02-4.27 2.97-.88 6-2.66.14-.96-.68-.65zm97.89 2.66l.19.94.08.58-.26.42-1.09 2.55-.17 2.57-2.44 1.16-1.42.42-.17-.52-.58.64-.52-.21.11-1.31 2.93-5.46.89.39 1.9-3.71h.36zm2.25 13.44l.18 1.63-.02 3.41-.22.36-.31.08-1.76.53.02.48 1.94 2.25-.38.37-.32 1.69-10.01 4.24-.22-.52.05 2.16.15.96.21.93 1.2 3.68.61.94.02 1.26.21.55.18.97 2.19 7.16 2.43 8.53.18.95.15.97.01 3.87-.52 1.79-1.59 2.26-1.4.89-.65.06.1-.61.67-.67.97-2.55-.02-4.28-2.57-9.28-4.81-16.35-.01-3.77.69-1.23 1.29-1.27 4.8-3.21.62-.67.65-1.59-.02-3-.3-1.62-.45-1 5.69-2.67.22.06zm-24.54 36.64l-.58.8-13.29 5.65-1.51-.35-2.9-1.98-.08-.3 1.75.44.26-6.41 2.17-4.24 9.26-13.81 4.65-1.89zm-174.83 11.51l-2 4.06-.44.13-.06.85-.9 2.68-.31 2.27-.64.11.07-1.98 2.61-7.64 1.04-.82zm-68.97 22.13l1.59 1.93 1.15 3.11-.04.23-7.41 1.37.56-1.07v-2.39l-.32-.58h-1.31l-1.07-.4-.55.77v2.19l1.01 1.27 1.68.21-4.26 4.05-.06 1.27.36.26-1.37.62-.95.1-1.52-4.59-.01-3.13 1.19-2.02.76-.56.99-.67.56-.06v-.32l.33.03 1.92-.67v-.32l.33.03 3.03-1.11.95-.24 1.19.03z" class="G"/><path d="M215.31 108.56l-.99-.18.99-.09zm20.48 90.03l-.97-.18.98-.09zm-119.2 33.64l-.94-.2h.95zm-12.15 7.67l-.33.15-.63-.34h.96z" fill="#00001c"/><path d="M153.46 181.37l-.56-.26.48-.44zm-124.1 83.41h1.31l.32.58v2.39l-.56 1.07-1.68-.21-1.01-1.27v-2.19l.55-.77z" fill="#fff"/><g fill="#c3c8db"><path d="M160.07 122.61l-.85-.15.96-.03zm-1.56 1.01l-.61.4-.17-.88.16-.17.37.04zm.08.7l.12-.2.74-.05zm-5.31.85l-.12-.2.94.04zm-1.65-.12l1.19-.08-.06.49zm.74.95l-.15.55-.38-.05-.24-.77z"/><path d="M152.22 126.55l1.15.12.15.45z"/></g><g fill="#000020"><path d="M369.98 44.22l-.18-2.58.13.12zm.32 4.49l-.18-2.26.13.12zm.32 4.8l-.18-2.58.13.12zm.32 4.49l-.18-2.26.13.12zm-.96 12.82l-.18-2.27.13.12zm.32 4.8l-.18-2.58.13.12zm.32 4.49l-.18-2.27.13.12zm-135.48 2.01l.67-.18.88.2zm137.72 4.08l-.16-1.96.13.12zm-120.96.32l-.04-1.25.47-.02zM373.18 91l-.18-2.58.13.12zm.32 4.49l-.17-2.27.12.12zm-36.85 1.58l-.24-.06.22-1.13zm37.17 3.22l-.17-2.26.12.12zm-91.81 3.52l-.13-4.53.28-.53zm92.13.97l-.17-2.27.12.12zm-129.52.53l-.72-.11.87-.1zm34.33 1.94l-.17-1.79h.58zm-63.64 1.31v-.27l.87.12zm9.36 1.68v-1.37l.15.15zm108.77 1.79l-.11-.41.37-.06zm32.69 5.95l-.47.25-.13-.58zm-201.84.89l-.18-.97.14.12zm.47 3.22l-.01-.99.15.14zm-.42.26l.26.09-.01.5-.34-.09zm70.26.47l1.85-.18 1.29.15zm-30.48 1.79l.58-.27-.05.82zm-53.01 2.17l-.83.03.05-.24.89.01zm-3.82 6.39l-.57.42.17-.56zm20.47 1.3l-.53-.15.7-.29z"/><path d="M146.62 134.48l-.11-.73.21-.16zm2.13 4.02l.51-.16.31.13.13.28-.07.21zm2.69.77l-1.21-.13 1.31-.04zm174.01 7.45l-.19-.94.14.12zm.31 1.6l-.17-.92.14.1zm-98.35.64l-.19-.94.15.12zm98.69.99l-.2-.95.16.1zm-8.04-.11l-.21-.83.18.1zm-90.33.72l-.18-.92.14.1zm.31 1.63l-.17-.95.15.1zm85.22 4.79l-.18-1.27.14.11zm1.2.05l.37.06-.2.56zm-.73.97l-.2.5-.14-.83zm.17 2.21l-.15-.85.17-.12zm-75.34.82l-.41-.11.47-.26zm59.65 1.71l-.2-.92.17.08zm16.34.96l-.19-.94.15.12zm.32 1.6l-.18-.92.15.1zm.32 1.63l-.18-.95.15.1zM225.21 171l1.3-.3 1.85.17zm4.59.2l1.2-.19.97.16zm86.48.25l-.17.52-.16-.85zm5.27 1.45l-.41.16.33-.9.18-.07zm-21.61 1.1l-.05-.32.57-.22v.68zm-54.3.41l-.41.1.06-.76zm55.6 5.99l.26-.42.25.91zm-153.72.39l.39-1.61.08 5.4zm6.28-.43l-.34 1.01-.08-.7.42-.57zm139.36 2.18l-1.33.16-.52-.3zm-105.17 4.9l-.17-1.63.13.12zm-31.68.66l-.8-.2.36-.26.17-1.81.23-.01zm32.01 1.9l-.18-1.3.14.11zm-45.14.8l-.89-.21.22-.61zm160.15-.16l-.22-.06.19-1.47zm-.22 6.74l.31-.08.18.15.02 2.07zm-67.32 1.21l.01-.27 1.21.11zm-112.84.48l-2.7.01.77-.31zm121.51 3.18l.34-.15.53.2zm48.14 4.69l-.17 1.64-.05-2.16zm2.41 10.93l-.18-.97.15.11zm-168.76 3.52l-1.22-.22 1.22-.05zm138.91 9.41l-.18.26-.28-.89.17-.13zm-152.37 1.1l-2.5-.15 2.48-.04zm3.8.33l.01-.2.36-.13 1.18.17zm183.22 2.28l-.18-.95.14.12zm.16 4.84l-.01-3.87.13.11zm-195.53.55v-.19l1.53.05zm208.66 1.49l.52-.23.72.15zm-.47.69l-1.12-.06.67-.39.46.06zm-12.5.99l-1.45-.11 1.56-.1zm-181.68 21.98l-.78.24.3-.55.28-.04zm-80.61 2.4l.04-.23.8.1zm49.34 3.34l-1.63.04.63-.42z"/></g><g class="G"><path d="M333.72 9.53l.88-.49.74.01-.09 1.33-1.55-.02zm21.84 16.89l-.01.38-.97-.11-8.81-5.05.01-.39.76-.04zm-13.43 5.74l-.04.42-.66-.07-1.33-.72-.06-.31h1.08zm18.85 6.09l-1.64.01-8.76-5.1v-.37l.43-.05zm-14.09 5.49l.02.36-.67-.06-1.33-.72-.07-.3h1.08zM234.08 80.97l.88-.49.73.01.12 1.45-.67.18-1.08-.32zm20.81 8.63l1.67-.41-.04 1.73-.97-.11-.64-.37zm-41.01 0l1.33-.12v1.1l-1.33-.13zm122.72 8.68l-.74-.12.55-1.15.24.06zm-60.97.21l.64-.38 1.08.01.01 1.43-1.64-.12zm-82.98 0l.64-.38 1.08.01.01 1.43-1.64-.12zm144.71 1.09l-.37.71-.29-.09.17-.81zm-.96.8l.07.53-3.07 3.44.01-.6 2.25-3.69zm-88.69 3.34l.54.34-1.87.78-1.61.26.74-1.21.88-.32zm7.58 4.27l-.09-.75 1.34-.14-.02 1.11zm-42.04-.76l1.22-.46.72-.01.12 1.53-.99.09-1.08-.31zm122.7 2.88l-.41-.1.49-.64zm1.65 4.02v1.44l-1.17 1.72-1.14.11-.37-.35 1.37-.55.26-1.01.37-.3.02-1.59.31-.06zm-58.94-.82l-.68.67-.09-.77zm-44.69 2.8l.64-.37h1.09l.02 1.4-1.19-.14-.49-.3zm-74.31 1.26l1.05-.37-.32.81-.65-.11zm-.2 2.53l-.89 1.27-1.23.35-1.51.67-.8 1.51-.51.37-.98.25 2.89-5.7 1.43.02zm88.08 3.24l-.83.85-3.02-2.49-.1-.59.8-.34zm-86.96-1.7l-.94.35.48-.93z"/><path d="M247.56 125.04l-2.91 7.48v4.09l6.75 21.45.03 8.78-.79.55-.62-.01.09-9-6.73-21.78-.01-3.13 3.34-9.48.2.1zm-71.55-.95l1.68-.35-.76 1.02h-.49zm-.53 2.22l-2.26 2.7-2.77 2.67-.12-.87-.08.74.2.13-.09.57-.65.64v-2.04l-.65-2.26-.31-.35-.13-.91 5.61-2.26zm75.23-.84l-.05-.73.71-.06zm-.26 2.12l3.51 1 22.14 18.23 4.12 3.24-.04.29-1.55.01-8.33-7.04-17.3-14.1-1.15-.51-1.65-.15-1.4-.66-.07-.27 1.39-.35zm-82.99 1.95l.97 2.58-.5 1.91-.7.29-6.6-3.49 5.13-2.27.74-.02zm-14.42 4.75l.38 2.11-.65.43-.03-2.86z"/><path d="M152.09 134.92l.21 1.81.47.1-.1.24.3.47-.23.77-1.2.79-1.31.04-.6-.18.07-.21 1.4-.47.66-1.58v-2.06zm-1.68 0l.32.05.41.64-.01 1.42-.32.65-1.24.79-.31-.13 1.23-1.63zm-3.71 2.76l-1.15.5-1.51 2.69v-.98l1.64-3.18.3-1.1zm181.03 12.52l-.46.94-.37-.1.65-1.02zm-93.75 12.32l.64-.64h1.08v1.43l-1.29-.13zm6.52 1.58l-.42 3.89-6.39 2.9-1.72.28-.97-.16.09-4.31 2.59-.62 6.09-2.62.4.04zm-6.99.44l-.81.61-.66-.04 1.46-.94zm-33.07 13.08l1.83-.07.47-.25.01.38-.78.6-1.2-.01-22.15-9.35-.05-.32.73-.01zm-16.59-.74l-.18-.85.65-.38 1.08.01v1.43zm8.97 3.85l-.23-.9.36-.33 1.46-.28-.04 1.72zm125.01-.01l.51-.13 1.52-2.37.13.03-1.01 3.32-.6-.1zm-15.77 1.9l.33 1.82-.99.65-.38-.39.01-1.24.72-1.49zm-14.29 2.02l4.06-1.94 1.33-.16 2.19-.1-1.68 3.94-.96-.1zm-128.72 7.41l-.78.82.56-1.36.41-.26zm80.43 1.84l.34.38 20.58 8.69v.38l-.67-.06-20.85-9.04.02-.53.58-.12zm-130.63 0h-.79l-.94 1.66-.51 2.65-3.14-.12-1.19-.3 6.12-5.44 12.66-2.21-.04.69-2.58 8.04-3.75-.15-5.45-.32-2.16-.19.01-.71 1.43-.86.65-1.63.03-.76zm186.46.63l.31 1.68-.32 1.71-.78.82-1.25.72-.53-.16.01-.3.95-1.08.31-2.36-.04-.97.4.64.59.03.02-1.04z"/><path d="M158.08 193.65l-.76.83.55-1.37.4-.24zm134.59 1.5l.31.06.42.63-.01 1.43-.77 1.15-1.55.36-.37-.36 1.28-.32.76-1.16z"/><path d="M156.89 195.37l-.03-.65.46-.24zm-.55 1l-.41.6v-.7l.35-.08zm77.73.89l1.63-.46.1 1.52-.98.09-.76-.32zm8.98 3.85l.54-.47 1.08.01.13 1.45-.34.15-1.43-.3zm27.28 5.46l-2.36 1.17-.28.36.05 4.89 1.01-.44-.02.35-6.72 10.02-1.28 2.95-.36 4.06-3.31 1.53-.86.01-2.22-1.03-1.01-.92-.47-.61 1.5.37.26-6.1 1.52-3.6 9.96-14.72 4.6-1.93zm-147.99 14.5v.53l-5.38 10.3-.36.13h-.95l-2.86-.13-.02-.19 5.57-10.86 1.15-.03zm3.91.32l.88-.01-.12.45-.56.01zm-19.83 9l-.57.23.07-1.67 2.78-8.12.3-.31.87-.17 1.33.01.24.18-.02.73-3.35 10.18h-.83l-.62-1.06-.04-1.24zm201.13-3.93l-2.67 5.4v-.98l2.48-4.61zm-15.84 7.78l.31.05.42.64-.03 3.01-1.03.53.05.47-1.05.53-1.72-.44 1.4-.23.76-1.16.29-3.03.33 1.31-.09 1.64.35.08.44-.66zm1.45.59l-.24-.84.12-.02z"/><path d="M289.75 235.23l.36.02.4 1-.34 1.7-1.51 1.08-.81-.22-.36-.35 1.62-.29.35-.93.36-.3zm3.62 2.74l-.21-3.14.18.15zm-183.93 2.44l.53 1.15.01.99-.19.56-4.82 4.78-.03-.64 3.73-7.18zM303.01 236l-2.63 5.15.08 1.58-.22.13-.27-1.83 3.04-5.75zM83.42 263.15l.79-.3-.15.62-.58.01zm-6.43 2.22l.96-1.28 1.1-.49 1.3-2.37-.71 2.95-1.69 1.54-.56.03zm43.05.61l-1.61 3.03-1.24 1.65-4.29 2.12-1-.02 6.11-6.09 1.37-.57.34-.71zm-30.42.02v2.72l-.78 1.14-1.66.93-1-.38.88-1.37.3-2.9 1.94-.72z"/><path d="M85.99 266.62l.38-.01.05 2.75-1.1.86.86.19-.63.42-1.15-.31-.34-.32 1.27-.65.78-1.56zm-7.6 1.44l-.64.67v-1.95l1.31-1.06z"/></g><path d="M336.47 100.91l-.07-.53.3-.18.29.09zm-58.12 4.15l-.88-.04.8-.15zm80.18 5.2l.08-.26.86-.04-.2.37zm-141.87 8.94l.04-2.81.16-.1zm-67.11 3.72l-.34-.52.16-.34.14.12zm130.72 4.55l-.31 1.97-.12-2.19zm-109.82 4.21l-.2-.13.08-.74zm45.25-.01l-.19.7-.01-1.57zm106.22 30.77l-.25-.89.2.01zm-23.39 1.9l-.18-.92.15.1zm.32 1.52l-.3-.19.14-.64.15.12zm23.85 2.03v-.97l.15.14zm-21.28 11.51l-.19-.94.14.12zm-124.19-1.91l-.16 3.13-.16-3.45zm124.83 5.13l-.31-.65.29-.23zm-140.18 2.27l.03-1.23.21-.03zm138.54.42l-.44.21.17-2.57zm-144.15.51l-.23.01.23-3.55zm139.85 1.28l-.21.23-.54-.11.58-.64zm-130.01 1.35l.36.07.07.36-.37-.06zm137.55 5.08l-.18-1.63.13.12zm-10.92 5.76l-.77-.23.78-.07zM111.2 220.36l-1.33-.01 1.22-.16zm11.14.71l-2.85-.25 2.81.05zm4.79.31l-.88.01v-.27l.86.05zm-20.51 9.01h-.2l.16-1.24zm3.36 12.16l-.01-.99.15.13zm-8.37 2.54l.06-.85.44-.13z" fill="#00001c"/><path d="M161.07 121.79l-.21.36-.68.28-.96.03-.27-.36.69-.31.94-.35zm-3.29.66h.67l-.19.56-.37-.04zm-3.05 2.21l-.63.35-.94-.04.38-.65.98-.25.51-.37z" fill="#ced4df"/><g fill="#fff"><path d="M361.32 109.72v.35l-1.4.58-1.33.09-.06-.48.74.07.2-.37 1.21-.62zm-21.37 4.32l-.36.63.26-.82z"/><path d="M338.87 115.91l-.02-1 .74-.24zm-132.62 8.8l-.01 1.75-.33.63-1.07.89-.84-.02-.39-1.16.01-.99.5-1.2.53.55.05-.82.6-.25zm12.19 5.13l-.02 1.1-1.09 1.81-1.61.13-.21-.51.19-.7.79-1.05.31-1.33.63-.1zm3.91 11.45l-1.14-.19-.35-.38.73-.01zm-4.87-.47l-14.89 6.39-.66.07.1-.62 14.67-6.27.76.05zm-62.21 39.67l.03 2.04-1.3 1.6-.99.26-.65-1-.01-1.24.3-.42.74.47.07-.83.34-1.01v-.26zm8.33 3.53l.03 2.04-1.3 1.59-.98.25-.68-.67.04-.86.96-.66.21-.82.24-1.26zm23.41 2.68l-.23-1.19.2.14zm-19.44 10.34l-.2-.14.09-1.06zm127.42.27l-.32.32-.1-1.51.38.02z"/><path d="M168.43 200.8h-.77l-.09-3.76.17.15zm1.28.83l-.73.35-1.01.08v-.75zm90.01 23.07l.02 1.73-.64 1.27-.73.55-1.31.08-.25-.92.02-1.66.86-1.39.79-.3zm8.33 3.53l.02 1.72-.64 1.28-.73.54-1.3.08-.42-.79.18-.26-.29-.76 1.15-2.16.79-.29zM87.59 266.95h.37l-.01 2.1-.36-.09z"/></g><g stroke="#000"><g class="C D"><path d="M151.31 123.97l.18 1.47-.45.89"/><path d="M152.47 124.3l-.05.1-1.55.45m.62.59l1.72 1.03 1.55-.45"/><path d="M151.4 125.67l.03-.29.15-.24.27-.16.34-.06.37.04.02.01.39.14.35.22.25.28.02.01.16.31.03.16v.15.02l-.09.25-.21.2m-2.05-.92l.05.16m-.02-.43l.14-.22.25-.14.31-.06.36.04.36.14.33.21.24.26.15.29.04.14v.14l-.09.25m-1.69-.15l.37.14.34.22.01.01m-.55-.25l.07.02.22.11.07.05m.55.29l.27-.54"/><path d="M154.19 124.89l.11.33-.03.31-.17.25-.28.16-.36.06-.41-.04-.41-.15-.37-.24-.28-.3-.18-.33-.03-.17v-.16l.09-.28.23-.21.32-.12h.03"/><path d="M152.1 124.47l.1.29.2.28.29.24.31.16.03.01.37.09.34-.01.29-.1"/><path d="M152.05 124.35l-.08.25v.14l.03.14.15.29.25.26.32.21.36.13.36.04.32-.05.12-.07.12-.08.14-.21m.82-1.25l-.16.26-.28.16-.24.04-.13.02-.41-.04-.41-.15-.36-.24-.29-.3-.17-.33-.04-.17v-.16l.1-.28"/><path d="M152.1 123.89l.22-.21.31-.11m.36.35l-.2-.27-.09-.28.03-.26.14-.21.15-.09m1.81.84l.04.11-.03.26-.14.22-.25.15-.32.05-.3-.03-.05-.01-.36-.13-.33-.21-.2-.21-.05-.05-.15-.29-.03-.14v-.14l.09-.25.19-.19.1-.03m-.62 1.64l.14.09m-.49-.15l.03-.29.15-.24.27-.15.08-.02m-.47.56l.14-.22.22-.13m1.06 1.23l.59.35.17 1.48m-.96-.16l-.14.06m1.28-1.73l.03-.3-.1-.31"/><path d="M154.14 125.43l.45-.88"/><path d="M154.15 125.38l.21-.2.1-.26-.01-.16-.03-.15-.04-.07"/><path d="M154.22 125.25l.09-.25v-.14l-.03-.12m.53-1.05l.02.06v.13l-.08.24-.19.18-.28.1h-.33"/></g><g class="B D"><path d="M152.62 123.59l-1.31.38-.44.88.17 1.48.6.35m1.84.03l-.31.11h-.01-.36l-.4-.09-.37-.19-.31-.26-.22-.3-.1-.31"/><path d="M151.4 125.65l.06-.13-.03.27-.03-.1"/><path d="M153.47 126.71l.03-.26-.09-.29-.2-.28-.29-.24-.35-.17-.36-.09-.35.01-.28.1-.18.17m.74.95l.2.1"/><path d="M152.5 124.39l-.9 1.77m1.35.67l.89-1.76"/><path d="M154.89 123.54l.1.31-.03.3-.47.93-.16.25-.28.17-.37.06-.41-.04-.41-.15-.37-.24-.28-.3-.17-.33-.04-.17v-.16l.1-.28.47-.93.22-.21.32-.11"/><path d="M154.11 124.95l.06.18-.03.27.08-.15-.19.18.12-.05-.31.11-.37.01-.39-.09-.38-.19-.31-.26-.22-.3-.1-.32.03.13.03-.27-.08.15.2-.18.18-.07m.6-.13l-.04-.05.28.23.33.17.35.08-.07-.01m.55.06l.16.1.17 1.47-.45.89-.9.26m.06-.46l-.12.04.2-.18-.07.13"/></g><g class="C D"><path d="M157.23 123.75l.44-.89-.2-1.48"/><path d="M157.02 122.26l1.53-.47.07-.14m.34 3.11l.45-.89-1.74-1.01m1.07 1.32l-.02-.02-.34-.22-.35-.12m.16.11l.06.02.22.11.08.06"/><path d="M160.35 122.28l.11.31-.02.31-.16.26-.27.17-.37.07-.4-.04-.42-.15-.37-.23-.29-.3-.17-.33-.04-.17-.01-.16.09-.28.22-.22.32-.12h.03"/><path d="M157.56 123.08l.03-.3.14-.24.26-.16.34-.06.37.03h.02l.39.14.35.22.26.27.02.02.17.31.03.16.01.15-.09.27-.2.2"/><path d="M160.31 122.78l-.13.22-.24.15-.16.03-.16.03-.36-.04-.36-.12-.32-.21-.26-.26-.07-.14-.08-.15-.04-.14v-.14l.08-.25m-.61 1.44l.05.15"/><path d="M158.55 121.79l.18.11m-.49-.15l.02-.29.15-.24.25-.16.11-.02m-.5.84l.1.29.21.28.29.23.35.17.36.09.34-.02.28-.1m-1.53-1.58h0l-.24.15-.14.22"/><path d="M157.62 122.93l.14-.22.24-.15.31-.06.36.04.36.12.32.21.26.26.15.29.04.14v.14l-.08.25m1.22-2.14l-.24.15-.36.07-.41-.04-.41-.15-.37-.23-.29-.3-.18-.33-.04-.17-.01-.16.1-.28"/><path d="M158.81 120.96h-.02l-.32.12-.22.22m.91.03l-.2-.27-.09-.28.02-.26.13-.21.18-.11m1.62 1.46l-.19.12-.31.06-.36-.04-.36-.12-.33-.21-.25-.26-.16-.29-.03-.14-.01-.14.08-.25.2-.19.12-.05m.19 3.72l1.53-.47"/><path d="M159.74 122.48l.54.32.21 1.48m-.96-.14l-.16.06m1.42-2.57l-.06.06-.27.1-.33.01m.15 1l.45-.89"/><path d="M160.56 121.94l.02.05.04.15v.15l-.08.28-.21.2"/><path d="M160.39 122.63l.08-.25v-.14l-.02-.09m.21.31l.02-.31-.09-.27"/></g><g class="B D"><path d="M160.61 121.84l.12.07.21 1.49-.45.88-1.53.48-1.73-1.01-.21-1.49.45-.88 1.34-.42"/><path d="M158.31 124.01l.2.09m.16-2.32l-.9 1.77"/><path d="M159.66 124.09l-.31.12-.37.01-.39-.09-.38-.18-.31-.26-.23-.3-.11-.31"/><path d="M157.56 123.04l.06-.11-.02.27-.03-.09"/><path d="M157.56 123.06l.17-.17.28-.1.34-.02.37.09.34.16.3.24.2.28.1.29-.02.27m1.33-2.25l-.31.61-.16.26-.27.17-.36.07-.41-.04-.41-.15-.37-.23-.29-.3-.18-.33-.04-.17-.01-.16.09-.28.48-.93.21-.22.33-.12h.01m1 2.32l.05.16-.02.27.08-.15-.19.19.13-.05-.31.11-.37.02-.39-.09-.38-.18-.31-.26-.23-.3-.1-.32.03.13.02-.27-.08.15.19-.19.2-.08"/><path d="M160.01 122.47l-.9 1.76m.54-.13l-.12.04.19-.19-.08.15m-.43-2.73l-.05-.04.29.23.33.16.35.08-.06-.01"/></g><g class="C"><path d="M231.93 202.52v-4.55l.4.52.77.45 8.95 3.78.57.21v4.55m-10.69-10.07v.56m2.05-.54l.31-.28.51-.21.64-.13.72-.04.7.06.61.16.47.23.26.28.03.3-.21.29-.41.25-.59.18-.68.08-.72-.01-.67-.11-.55-.2-.37-.26-.14-.29.09-.3m8.64 5.5l.66.15 18.88 3.61"/><path d="M243 201.07l-.13.11-.09.3.15.3.36.26.55.2.67.11.72.01.68-.09.59-.17.42-.25.2-.29-.03-.3-.26-.28-.46-.24-.62-.15-.7-.06-.72.03-.64.14-.51.21-.18.16m28.6 7.43l-3.68-.7"/></g><path d="M259.46 210.74l-16.18-3.1-.66-.16-.57-.2-8.95-3.78-.77-.45-.4-.53m0-5.11l.4-.52.77-.45 5.28-2.23.51-.16m30.01 18.49l-1.4-.27" class="B"/><g class="C"><path d="M243.91 119.76l-.91.6"/><path d="M244.22 119.17l-.15.11-.11.16-.06.21.01.23.08.23.12.22.17.17 3.07 2.54.63.66.49.78.31.86.34.89.56.78.72.6.81.35.8.05.76.03.78.26.73.48 25.41 21.02.2.13.21.06h.2l.18-.08m-37.16-30.14l.01-.01"/><path d="M247.32 124.68l.91-.59m1.81 3.22l-.91.6m1.81-1.97l.21.1.23.02.21-.06.15-.14.1-.2.02-.24-.06-.26-.12-.25-.18-.2-.22-.14-.23-.07-.22.02-.19.1-.13.18-.06.22.02.2m1.78 3.54l.91-.59m24.91 17.54l.16-.09.18-.01.2.05.19.12.15.18.11.2.04.22-.01.21-.08.17-.14.12-.17.05-.2-.01-.19-.09-.18-.15-.13-.2-.08-.21-.01-.22.05-.19.11-.15m-.34-32.01l-.01-.2.06-.22.13-.18.18-.1.22-.02.23.06.22.15.18.2.13.25.06.25-.03.25-.09.2-.16.14-.2.06-.23-.02-.22-.1m2.19 35.53l-.91.59"/></g><g class="B"><path d="M243 120.24l.01.23.07.23.12.22.17.18 3.07 2.53.63.66.49.78.31.86.34.89.56.79.73.6.8.34.8.05.76.03.78.26.73.48 25.41 21.02.2.13.21.06h.21l.17-.08.91-.59.14-.14.08-.18.02-.22-1.36-31.19.07-.82.28-.71.46-.54.47-.59.23-.78-.04-.89-.3-.9-.53-.81-.52-.76-.35-.85-.15-.86-.16-3.76-.04-.24-.1-.22-.15-.2-.19-.16-.2-.09-.21-.03-.19.04-33.52 14.16-1.06.7-.11.17-.05.2"/><path d="M250.47 125.28v-.06l.12.08.18.21.13.24.04.19-.22-.18-.16-.23-.09-.25m27.72-10.87l-.2-.17-.16-.23-.09-.25-.01-.06.12.08.19.2.12.25.04.19-.01-.01"/></g><path d="M201.34 147.65l16.77-7.09" class="C"/><path d="M222.79 142.54l4.05 19.63-.73 2.09-25.82 10.91m16.96-34.97l-15.57 6.58" class="B"/><g class="C"><path d="M238.81 193.88l.01-.01h.03l.2.05.95.06.96-.13.68-.41"/><path d="M239.05 193.92l21.26 8.98"/></g><path d="M260.65 203.57l-20.82-8.8-.9-.68-.11-.13-.02-.05.01-.03 1.66-.51.08-.01 1.09.08.16-.1.64-.85.4-1.13 2.8-12.86.13-1.2-.12-1.28-.49-2.66" class="B"/><g class="C"><path d="M158.06 188.81l-1.78-.75m2.17-6.2l-1.78-.75"/><path d="M160.23 190.78l-.25-.13-1.67-1.44-.19-.24-.12-.32-.04-.37v-3.67l.2-1.83.58-1.84.91-1.7 9.71-14.55.23-.29.26-.23.28-.16 3.71-1.57.19-.04.16.04m-13.7 24.54l.18.46.39.37.49.14.56-.12.55-.35.5-.56.38-.69.23-.76.04-.74-.13-.64-.31-.48-.45-.25-.53-.01-.45.19"/><path d="M167.95 163.53l1.77.75m1.75 6.62v1.2l.01.09.04.07.05.05.07.01.07-.01.06-.03"/></g><g class="B"><path d="M176.93 177.1v3.16l-.04.41-.12.42-.19.39-1.68 2.86-.24.35-.29.27-.31.18-13.24 5.6-.31.07-.28-.03-1.78-.75-.25-.14-1.67-1.44-.19-.23-.12-.32-.04-.37v-3.67l.2-1.83.58-1.84.91-1.7 9.72-14.55.23-.29.25-.23.28-.16 3.72-1.57.18-.04.16.04 1.78.75.13.11.09.18.03.22v2.43l-.02.11"/><path d="M160.4 186.17l.05.71.04.1.4-.26.49-.55.38-.69.23-.76.05-.74-.1-.44-.11.05-.54.46-.44.63-.31.74-.14.75m11.07-15.27v-3.2l.01-.1.04-.1.05-.09.07-.07.07-.05 1.76-.74"/></g><path d="M146.51 135.07l.1-.73.29-.56.44-.34.56-.07.6.18.58.44.51.64.37.77.2.81v.78l-.19.65-.37.46-.51.21-.59-.06-.3-.13-.3-.19m2.09.36l.42-.52.22-.73v-.88l-.22-.92-.41-.85-.01-.02-.57-.72-.67-.49-.68-.21-.62.08" class="C"/><path d="M147.97 132.81l-.52.22-.5.39-.33.63-.11.82v.2l.1.8.29.81.45.71.55.54.18.17.34.22.34.14.66.07.58-.25.52-.21" class="B"/><path d="M334.06 116.36l.59.42.6.17.54-.1.44-.35.27-.58.09-.73-.12-.81-.3-.8-.46-.7-.56-.53-.6-.3-.58-.04-.5.23-.36.48-.11.31-.07.35m3.24 3.68l.49-.4.3-.65.1-.83-.13-.91-.34-.9-.52-.8-.63-.6-.68-.33-.66-.04" class="C"/><g class="B"><path d="M336.72 116.83l-.55.23-.62.11-.68-.19-.67-.47-.14-.15-.52-.62-.38-.76-.22-.82-.01-.78v-.24l.08-.4.13-.35.4-.53.56-.26.56-.24m25.81-1.99l-.19.28"/><path d="M295.78 187.41l6.71-2.83m-2.13 13.59l3.39-1.43m-1.51-13.43v.02l.02.07m17-34.34l-5.54 10.75"/></g><path d="M285.79 235.45l.05-.75.25-.61.41-.4.53-.14.6.12.59.38.53.6.41.74.15.41.1.41.04.79-.14.69-.34.51-.47.27-.58.01-.6-.26-.57-.49m2.1.95l.54-.3.37-.58.17-.78-.06-.89-.11-.46-.16-.46-.46-.84-.6-.67-.68-.43-.67-.14-.6.16" class="C"/><path d="M289.37 238.46l-.52.22-.65.02-.68-.29-.65-.56-.12-.12-.48-.68-.33-.79-.15-.81v-.18l.06-.85.28-.68.46-.45.52-.22" class="B"/><path d="M152.83 180.96l.46-.45.16-.32.02-.06" class="C"/><path d="M152.67 181l.16-.04.52-.22" class="B"/><path d="M81.95 266.64l.14-.7.32-.51.47-.29.57-.03.6.25.58.48.48.67.34.79.16.81-.04.76-.23.61-.19.24-.22.17-.52.16-.6-.11-.6-.37m-.21-4.85l.64-.02.68.27.65.55.55.75.38.89.18.92-.02.42-.02.43-.27.7-.2.26-.25.2" class="C"/><path d="M83.56 264.49l-.56.23-.53.33-.37.58-.15.79v.22l.06.8.25.81.42.74.53.58.17.16.67.41.67.13.6-.18.56-.23" class="B"/><g class="C"><path d="M299.01 166.48l-4.83 9.36-3.14 6.13"/><path d="M291.09 181.79h.01m4.03.62l.36-.15"/><path d="M295.01 182.49l.24-.15.18-.25 4.79-9.3m.08.4l-3.42 6.63m16.52-21.66l1.11-.47.12-.03.15.01.03.01"/></g><path d="M299 166.42l-7.91 15.37-.07.14.05.18.17.2.1.08 3.39.14.28-.04.36-.16.24-.14.18-.25 1.09-2.12m18.09-22.45l-.24-.07-.28-.02-.25.06-.88.37" class="B"/><path d="M288.75 195.17l.1-.72.29-.56.45-.34.55-.07.3.06.3.13.59.44.5.64.38.77.19.81v.78l-.2.65-.37.45-.51.21-.58-.06-.61-.32m2.1.36l.42-.51.22-.73v-.88l-.22-.92-.15-.31-.27-.56-.57-.72-.66-.49-.34-.15-.34-.07-.63.08" class="C"/><path d="M292.75 198.18l-.52.22-.58.24-.66-.07-.68-.36-.18-.17-.55-.54-.44-.72-.29-.8-.1-.81v-.2l.11-.82.33-.63.5-.38.52-.22" class="B"/><g class="C"><path d="M139.35 140.5l4.78-9.41 1.56-3.12 3.14-6.17-.02.07.02.34.14.33.95 4.45m-6.21 13.93l-.36.15"/><path d="M143.23 141.15l.24-.15.18-.25 2.4-4.72m-2.58-3.75l5.4-10.62-.04.14m-3.61 16.4l.93-1.82m4.13-9.54l-.95-4.45-.36.15m-.1-.88l.03-.11"/><path d="M149.33 122.39l-.05-.22-.01-.03.03-.23.1-.21.14-.14 5.24-2.21"/><path d="M149.54 121.56l-.32-.35m10.27-3.86l1.45-.61m3.22 5.8l.09-.18.11-.32.03-.38-.05-.42-1.01-4.68m.11-.13l.23-.1"/><path d="M164.73 121.7l-.36.15"/></g><path d="M155.09 118.73l-5.87 2.48-.12.09-.2.25-5.43 10.73-4.11 8.11-.02.22.07.23.16.23 3.38.12.28-.04.36-.15.24-.15.18-.25 1.21-2.4 1.51-.63m12.23-20.47l2.29-.97m2.38.14l.04.06 1.02 4.76.05.42-.03.38-.11.32-.26.52" class="B"/><path d="M157.6 118.81l-.16-.01m-.28.22l.18-.09m-.37.47l.07-.09m.8-.55l.14.07m9.21 10.45l-8.11-9.69m9.29 12.61v-.02" class="C"/><path d="M170.36 132.06V132l-.26-1.42-.56-1.36-.78-1.18-8.1-9.68-.94-.87-.16-.11-1.04-.5-.24-.02-1.02-.05-.25.09-.88.42-.19.17-.64.83-2.83 5.57-.05.22.06.25.15.24.24.22.28.16.31.09.31.02.2-.05.06-.02.18-.15 2.83-5.56.3-.38.26-.12.38.02.55.26.64.6 8.02 9.59.58.86.4 1.01.2 1.03-.03.83-.24.76-.44.87" class="B"/><g class="C"><path d="M333.13 112.4v-.01l.08-.23.23-.64.13-.16.41-.42.18-.09.53-.16.22.01.6.12.22.1.61.38.2.18.55.61.17.23.42.77.11.27.26.85.05.27.05.84-.02.24-.15.73-.08.19-.35.55-.14.11-.5.31-.17.03-.61.03-.19-.06-.64-.25-.19-.15m-.92-5.49l.01-.02.12-.04m2.41 6.01l.31-.02.08-.01.71-.36.51-.62.28-.88.02-1.02-.22-1.08-.46-1.07-.65-.92-.78-.69-.8-.37-.77-.04-.87.35-.06.04-.46.5m1.49.07l-.27-.05-.06.02"/><path d="M335.45 110.39l.75-.32-.16.47-.31-.07-.28-.08.16-.47.03-.05.03-.04.03-.02.48-.2m.49 7.91l-.38.03.04.04.02.03m-.06-.07h-.04m.91.21l-.18.02.08-.01m-.14-1.1l.21-.14.03-.06m-.96-6.4l.01-.01.01-.02m2.48 7.07l.47-.19m-.55-2.71l.02.39.05.39.77-.32-.05-.57-.16.07-.04.01-.03.01-.05.01h-.02l-.49.01"/><path d="M338.69 114.99l.49-.01h.04.04l.05-.02h.02l.47-.2m-1.14-3.39l-.48.2"/><path d="M339.42 114.1h-.01m.05.57h.02"/></g><g class="B"><path d="M335.1 117.05l.22.17.85.32.07.01h.01l.1.07.03.01h.03l.02-.01.24-.1.06-.01.2.25.03.02h.03l.92-.1.04-.01.48-.2.74-.55.48-.95.15-1.21-.32-.09-.06-.57.3-.13-.38-1.36-.68-1.24-.9-.99-1-.61-.47.2-.02.01-.03.03-.02.03-.04-.43-.94.11-.47.2-.03.02-.75.55-.02.04-.4.79-.09.1-.04.07-.31.87v.04"/><path d="M335.39 111.44l.07.01.27.15m1.76 4.24l-.01.08-.14.24m.01-2.49l-.12-.36-.05-.09m-.5-.8l.07.07.19.32m-.88-1.01l.07.04.25.26m1.12 2.03l.03.09.03.36m0 .86l.06-.31-.01-.1"/></g><g class="C"><path d="M296.83 224.35l10.42 1.87-7.44 15.18.41 1.49"/><path d="M300.37 241.16l-.56.24m7.44-15.18l.63-.26"/></g><path d="M300.58 242.74l-.36.15-2.33.19" class="B"/><g class="C"><path d="M348.86 8.43l-15.73 6.65v-.31l-.1-.61-3.14-.96-.92-.41-.49-.52m1.37 14.16l.79-.33m11.19 47.07l.94.29-.14-.32-.07-.39-1.43-20.92-.09-.54-.17-.54-10.08-24.02-.13-.42-.03-.42.05-.4 2.38-9.09.08-.66-.01-.66m-.04-.53v-.02l-.1.72-.04.11m-.17.49l.15-.29"/><path d="M333.03 14.16v.78m4.63-4.61l.41-.23.24-.31-.03-.3-.3-.26-.53-.2-.21-.03-.5-.08-.81-.01-.82.08-.74.18-.59.24-.36.3-.11.3.17.29.42.23.17.04m6.97 40.72l28.46-12.03"/><path d="M342.16 32.74l-.05.02h-.13l-.12-.04-.23-.13m3.06 60.43l.95.29-.17.4-.23.36-.56.7-.23.35-.17.4-.94-.29m.06-21.08l.94.29-.21-.25-.26-.14-.62-.2-.27-.14-.21-.25m-.66-40.7l.11-.05.09-.08.08-.24m1.2-15.23l-.11.04-.08.09-.06.12-.06.24m1.42 108.33h.01m.89.74l-.18-.16-.08-.27-.4-5.79.01-.19.04-.22.55-2.01.07-.38 4.98-2.1m-5.64 4.71l-.91-.75"/><path d="M345.61 117.7v-.42l-1.43-20.91.01-.42.09-.43m.06-21.08l.15.32.07.39.5 7.35.68 9.97-.01.42-.09.42m.86-49.13l.22.13.13.05h.12l.06-.03"/><path d="M346.97 44.36l.11-.05.09-.09.08-.24m1.2-15.23l-.11.05-.08.08-.06.13-.06.24m2.45 86.25l-.11.02-.08-.03-.08-.12m.09-.52l.12-.11.1-.03.09.01.08.06.06.09.02.12m4.16-88.07l.23.13.13.04h.12l.06-.02"/><path d="M355.8 26.72l-.08.24-.09.09-.11.04m4.39 11.42l.22.13.13.05h.12l.06-.02m1.17 71.78l-.14-.68-.29-.55-.43-.35-.52-.12-.18.04"/><path d="M360.67 38.31l-.09.24-.08.09-.12.05m5.89 79.51l2.74-10.04.07-.38 4.98-2.1"/><path d="M368.67 107.47l.42.21.1-.06.08-.1.07-.12.03-.14v-.15l-.04-.11-.07-.07-.09-.04-.09.01-.1.05-.08.08-.07.13-.04.13-.01.13-.76.33m1.07-.07l-.01.1"/></g><g class="B"><path d="M328.5 12.49l-.01-.79.49-.58.92-.51 7.11-3.01 1.28-.41 1.49-.27 1.57-.09 1.49.09 1.27.26 3.14.97.76.04 1.25.36 1.03.57 8.15 4.64.32.24.27.32.21.38 10.08 24.02.18.54.08.55 1.43 20.91-.01.43-.09.42-.17.4-.23.36-.56.7-.23.35-.16.4-.1.43-.01.42 1.19 17.32.06.38.15.33.21.24.26.14.63.2.26.15.21.24.14.33.07.38 1.43 20.92v.42l-.07.38-.55 2.01-.08.23-.11.24-4.07 7.67-.27.42-.33.38-.38.32-.37.21-1.56.66-.9-.75 2.65-9.7-6.41 2.7-.94-.29-.14-.68-.3-.55-.18-.14-.38.08-.54.35-.47.54-.36.68-.21.76-.04.76-7.17 3.03-.47-.14-.1.19-.02.13.01.13.02.06.27.14-.07.48-2.74 10.02-1.56.67-.34.09-.28-.04-.9-.74-.19-.17-.08-.27-.39-5.78v-.2l.05-.22.55-2 .02-.17.01-.18-1.44-20.91.02-.42.09-.43.17-.4.22-.35.57-.7.22-.36.17-.4.09-.42.02-.42-1.19-17.32-.07-.39-.14-.32-.21-.25-.26-.14-.63-.2-.26-.14-.21-.25-.14-.32-.07-.39-1.43-20.92-.04-.23-.08-.23L330 27.07l-.13-.43-.04-.42.06-.4 2.38-9.09.27-.45.24-.43.17-.49-2.98-.92-.92-.41-.48-.51-.07-1.03"/><path d="M334.5 10.68l-.43-.11.38-.16.74-.17.82-.09.81.02.71.11.13.05-.07.04-.67.21-.79.14-.83.03-.8-.07m8.77 6.98l-3.5 13.36-.02.14.02.16.07.15.09.12.11.09 1.59.91m6.51-3.33l-3.51 13.36-.01.13.02.17.06.14.09.13.12.09 1.59.9m-.89-22.62l9.43 5.36m4.87 11.59l-9.43-5.36"/></g><path d="M336.71 98.17l-.77-.13-.14.64-.13.7-.11.72-3.05 5.3m3.05-5.3l.99.16-.92 1.59m.31-3.81l.13-.51.12-.34.1-.15.35.06m.13 1.86l-.11.59-.11.71m-.26-3.22l.24-1.54" class="C"/><path d="M336.09 89.09l-3.86 16.23-.06.47" class="B"/><path d="M314.8 241.14l.14.93m-1.17.16l-.14-.93m19.81-7.05l-.14-.86" class="C"/><path d="M311.14 241.85l2.63.38 1.17-.16 18.5-7.82.01-.33-.09-.56" class="B"/><path d="M104.48 239.72l-3.64 7.18m13.42-26.45l-5.72 11.26m13.89-10.79l-5.71 11.27" class="B"/><path d="M155.13 197.66l4.34-7.2" class="C"/><path d="M155.72 197.41l-.59.25-2.66-10.42" class="B"/><g class="C"><path d="M345.3 42.6l-.67.28m2.85 1.01h-.13l-.12-.05-1.69-.96-.11-.09-.1-.12-.06-.15-.02-.15.01-.14 3.54-13.46.05-.13.09-.09.11-.04"/><path d="M348.99 28.53l-.6.25m2.08 4.39l.07-.25.05-.12.09-.09.11-.05h.13l.12.05 9.6 5.47.12.04h.13"/></g><path d="M350.47 33.17l-2.74 10.46-.06.12-.08.09-.91.38h-.11m13.41-5.67h.12l.79-.33.11-.04.09-.09.05-.13.49-1.88.02-.14-.02-.16-.06-.14-.1-.12-.11-.09-12.06-6.88-.13-.04h-.12l-.6.25" class="B"/><g class="C"><path d="M70.41 259.63h0m6.41 6.13l.33-.64.37-.54.36-.41.87.38"/><path d="M77.88 264.17l.34-.24.28-.05.2.15 2.37-4.43m-2.37 4.43l.57.25"/></g><path d="M79.55 264.4l-.28-.12-.18.03-.34.24-.37.41-.36.55-.33.63-.87-.38-7.35-4.48.32-.73.25-.54.37-.38 15.04-13.88" class="B"/><path d="M193.46 105.71l-.14.98" class="C"/><path d="M192.43 105.27l-.41 2.86" class="B"/><g class="C"><path d="M340.44 31l-.67.28m2.84 1.02h-.12l-.13-.05-1.68-.96-.12-.09-.09-.13-.06-.14-.03-.15.02-.15 3.53-13.46.06-.12.08-.09.11-.05"/><path d="M344.13 16.93l-.65.27m12.55 9.43h-.13l-.13-.05-9.59-5.47-.13-.05h-.12l-.11.05-.09.09-.06.12-.06.25"/></g><path d="M345.61 21.57l-2.74 10.47-.06.12-.09.09-.9.38h-.12m13.41-5.67h.12l.8-.33.11-.05.08-.09.06-.12.49-1.88.02-.15-.03-.15-.06-.15-.09-.12-.11-.09-12.06-6.87-.13-.05h-.13l-.65.27" class="B"/><path d="M358.53 110.74l.06.05.7.12-34.46 126.06M339 215.1l.16-.6-5.06 18.47m5.06-18.47l8.23-30m0 0l.41-1.5-.41 1.5m.41-1.5l.2-.72-.2.72m.2-.72l1.86-6.78m0 0l2.05-7.5m0 0l.42-1.5-.42 1.5m.42-1.5l1.23-4.5m0 0l.41-1.5-.41 1.5m.41-1.5l4.11-15m0 0l.42-1.5-.42 1.5m.42-1.5l.41-1.5-.41 1.49m.51-1.88l-.1.39.41-1.5-.31 1.11m.31-1.11l5.18-18.89m-5.21-11.2l1.61-.67m-.36-.7l-1.66.7" class="C"/><path d="M318.31 150.88l-.45-2.38m6.37 88.36l.6.11 8.89-3.76.38-.24.17-.21 30.41-111.26m1.03-3.77l-1.03 3.77" class="B"/><g class="C"><path d="M167.01 134.3l1.05-.44m9.72-14.37l.62.61.58.72.59 1.07"/><path d="M177.94 119.65l-.01-.01"/></g><path d="M149.73 142.23l-28.89 56.93m25.74-17.44l-7.26 14.3m23.08-72.47l-8.77 3.71m15.81-6.68l-5.12 2.16m15.28-.88l-.53-.96-.54-.68-.75-.73-1.35-.85-1.35-.27-1.2.33-2.43 1.03" class="B"/><g class="C"><path d="M295.63 147.8l21.17-24.01 20.91-23.8m-30.02 126.23l.12.02.05-.03.04-.08m-.12-.32l-.11-.04-.07.02-.05.12m5.33 15.47l-.43.11-.35.28m6.92-60.02l-.28.25-.34.07-.38-.09-.37-.25-.33-.37-.26-.47-.16-.51-4.54-23.65-.1-1.23.2-1.09.47-.83 4.57-5.19.27-.19.38-.04"/><path d="M313.07 154.65l-.71.3m32.83-28.57l-31.41 114.91"/><path d="M327.33 151.32l-.27.26-.34.07-.38-.09-.37-.25-.34-.37-.26-.47-.15-.51-1.24-6.43-.09-1.24.19-1.08.48-.84 4.59-5.21.31-.21.34-.02"/><path d="M324 141.75l.7-.3m2.88-30.45l9.94-11.29m.41.61l.03.09.33.44 5.86 8.65m13.93 1.93l.5-.21"/></g><g class="B"><path d="M337.52 99.71l-41.25 46.85-.46.63-.23.77.01.81 7.49 38.88.79 7.32-.47 6.82-1.73 5.97-2.89 4.78-4.03 4.84m63.78-106.64l.06.05-.01.43-34.46 126.05-8.89 3.76-.58.15-.54.08-1.23.12-.07.09-.71.3-11.52.97-.35-1.28 7.46-15.24.21-.09v-.12l-.03-.08-.09-.12-.23.1-10.84-1.95"/><path d="M313.28 157.5l-.21-1.07-.1-1.23.2-1.09.47-.83 4.51-5.12.33.1.36.25.32.37.25.46.15.5 3.18 16.56.1 1.11-.14 1-3.52 12.9-.16.34-.29-.07-.37-.25-.33-.37-.26-.47-.16-.51-4.33-22.58m12.14-10.5l-.72-3.77-.1-1.24.2-1.08.47-.84 4.53-5.14.04-.01.4.16.39.33.32.46.21.53.09.55-.05.49-3.7 13.54-.17.34-.28-.06-.37-.25-.34-.37-.25-.47-.16-.51-.51-2.66"/></g><path d="M358.41 110.79l.03-.02.01-.04.07-.25.01-.04-.01-.05-.01-.04-.02-.05-.07-.1m-.09.59l-.03-.02-.03-.03-.03-.03-.01-.02m.29-.3l.36-.15" class="C"/><path d="M358.33 110.79h.01l.04.01.03-.01.35-.15.03-.02.02-.04.07-.26v-.04-.04l-.01-.04-.03-.05-.21-.34" class="B"/><path d="M336.78 99.07h0" class="C"/><path d="M344.15 109.5l-6.82-10.07-.36-.16-.19-.2-4.57-66.75" class="B"/><g class="C"><path d="M23.2 275.41l.86-.17-1.37-4.22-.3-1.54.07-1.54.45-1.39.77-1.09 1.02-.7 7.12-3 1.17-.24m-11.16 5.89l.85-.16m.59 15.6l.04-1.2"/><path d="M46.02 289.08l-3.79 1.6-.17-.06-18.4-8.71-.27-.16-.17-.19-.06-.19.01-4.72.39-.62 3.92-1.66m-4.31 2.28l-.04 1.2.02-.25m.91-2.36l-.5.79m4.83-11.89l.43-.18.64.02.61.29.54.52.39.7.2.8v.81l-.21.75-.39.59-.54.37-.62.12-.12-.03"/><path d="M42.23 290.68h.17l14.33-2.8.7-.17.41 1.27m-.41-1.27l2.55-.83.41 1.27m-.41-1.27l.69-.17 11.87-2.31.23-.04h.14l.02.05m.02 1.62l-.41-1.26-.03-.04.31.96m-.28-.92h.14l.24-.04 14.33-2.8.13-.04.1-.08 1.37-1.38.71 1.11 6.5-5.26.37-.28.44-.28.43-.25.39-.18 1.56-.66-6.09 6.19-.15.12"/><path d="M72.91 284.36l.04.04-.08.07-.29.19-.07.07M92.92 281l-4.97 2.1.23-.18 1.38-1.38m-.71-1.11l6.5-5.25.38-.29.43-.28.71 1.11"/><path d="M92.7 281.1l-.19.07m3.65-6.56l.43-.24.39-.19 1.07-.45m1.2.9l-.67-1.05m1.39 4.06l-.29-.89m3.94-.3l-.39-1.2m7.55-1.89l-.37-1.14m1.82-1.63l-1.32 1.33m-.08.09l.51 1.17m.11-.01h.01l-.03.01.23-.18 6.08-6.19-.71-1.11m-5.6 7.48l-.08.03"/><path d="M111.46 273.17l4.93-2.09m1.35-4.27l1.56-.66.32-.11.22-.03-.71-1.11m.71 1.11l.09.06"/></g><g class="B"><path d="M112.23 270.59l4.8-4.89 1.56-.66.32-.11.22-.03.1.06.7 1.11-.03.14-1.85 3.2-.08.12-1.33 1.37-.25.18-5.04 2.13-.01-.03-.49.15-.07.03.02.06-7.18 3.03-.58.13-1.04.3-1.13.38-.63.25-.27.13.1.31-7.07 2.99-.08.06-.17.08-4.81 2.02-.28.1-14.33 2.8-.24.03h-.14l-.03-.03-.1-.31-11.74 2.29-.69.17-.83.26-1.31.45-.79.22-.32.07-14.33 2.8h-.38l-.41-.13-18.4-8.71-.27-.16-.17-.19-.05-.2v-4.71l-.08-.72.03-1.04.12-.68-1.36-4.22-.31-1.54.08-1.54.44-1.39.78-1.09 1.02-.7 7.11-3.01 2.03-.4"/><path d="M28.5 268.56l-.28-.2-.47-.62-.3-.76-.1-.82.11-.79.3-.67.47-.49.16-.07.21.01.62.28.53.52.39.7.21.8-.01.82-.2.74-.4.59-.42.3-.51-.13-.31-.21m9.24-1.01l-.82-2.54-.66-1.39-.93-1.12-1.13-.72-1.2-.25m65.05 12.2l.49-.21.03.05"/></g><g class="C"><path d="M24.64 277.81l52.81-10.3-.02.61.12.61.71-.3-.06-.3.01-.31.09-.27.15-.22.25-.27"/><path d="M25.69 273.54l1.61-.31.42-.03.24.12.04.26-.17.37-.08.09m49.8-5.31l12.33 10.86m-12.43-12.08l.18-.55.3-.44 1.41-1.45"/><path d="M78.26 268.43l.01.01"/></g><path d="M69.57 261.34l-39.35 7.67-.43.3-4.1 4.23.53.8 1.53-.3-.29.35-2.34 2.43-.3.44-.18.55-.02.61.12.61 21.13 10 .23.08.22-.01 42.05-8.19" class="B"/><path d="M169.39 201.45l-.79-.55-.89.01m.89-.01l-1.52-6.41" class="C"/><path d="M186.17 183.67l2.11 8.92-.4 1.05-18.49 7.81-.9.01-.78-.55-.13-.52" class="B"/><g class="C"><path d="M101.9 275.81l76.46-77.77 8.89-3.76.44-.32"/><path d="M111.59 220.29l-3.6 11.39m-1.19-33.34l.26-.83.44-.15.43-.25.38-.32.29-.37.18-.38.4-1.26.05-.36-.07-.31-.21-.23-.18-.08"/><path d="M107.66 196.3l.46.65m-1.06.56l-.46-.65m1.58-5.34l.46.65-.4 1.26.12-.02-.1.32m.38-1.56l11.8-1.89.54-.34.56-.2.39-.09 3.63.21"/><path d="M108.24 193.43l-.01-.01M118.82 264l1.18-1.2-2.78 2.82m3.99-75.76l-2.89 9.15m2.12-8.73l-.46-.65m.02 73.17l3-3.05m0 0L136.5 246"/><path d="M127.36 222.03l-.71.3"/><path d="M128.54 223.3l-.71-.04-.37-.1-.36-.24-.33-.37-.25-.45-.16-.49-.04-.47m16.74-30.27l-1.09-.06m35.95 7.04l.44.19m8.38-14.13l.53 4.42m.73 3.06l.38-.15"/></g><g class="B"><path d="M110.83 272.02l-8.93 3.79-.29-.12m6.52-82.14l.13.18.39.02.12.05-.05.33-.4 1.26-.18.38-.29.37-.38.32-.43.25-.44.15-.16.5m19.28-7.83l-3.08-.18-.37-.08-.73-.04-.8.12-.76.28-11.8 1.89-.1.33m29.91 52.65l1.47-1.5-22.22 22.61"/><path d="M127.06 221.19l.02.11.15.5.25.45.33.37.36.24.35.09M139.46 243l48.23-49.04.25-.41.11-.35"/><path d="M139.5 242.96l3-3.06m.72-49.36l-1.09-.06m45.4-6.24l.85 7-.13.53-.04.5"/></g><g class="C"><path d="M100.65 198.02l-22.39 70.75m-.01-.26v-.02"/><path d="M84.68 248.22l4.5-14.22m0 0l2.38-7.5-.47 1.5m.47-1.5l1.9-6-.47 1.5m.47-1.5l1.89-6-.94 3"/><path d="M94.5 217.19l3.72-11.69m-2.28 69.25l71.6-72.83M95.35 214.5l5.25-16.59-.02-.04.69.22-.59-.1.06.01"/><path d="M98.22 205.5l.47-1.5-.47 1.5m.47-1.5l1.92-6.05-.01-.04.5.14.25.05-.08.01h.13l-.64.01h.17m.76 53.07l-.11.1-.31.19-.39.01-.41-.18-.38-.35-.3-.46-.21-.55-.07-.54.07-.48 2.44-7.7.45-.86.68-.53.42-.07"/><path d="M101.32 198.1l-.05-.01.09.01-.75-.15.05.11.24.14.78-.08-.05.01m-.33-.05l-.55-.32"/><path d="M101.34 198.15l-.44.05.1.07.3.1 27.42 1.59 5.08-.56.57-.29m-25.74-6.94l-6.88 5.94.26-.04 4.61.26"/><path d="M101.67 198.12l.08-.01m-.95-.04l-.14-.01.61.05-.55-.02.6.02m.04-.01l.14.01h-.1"/><path d="M101.5 198.11h.21m-.48-.02l-.35-.09m.07 0l.32.09-.62-.27.05.03m.49.19l-.51-.24.04.02m-.1.06l-.04-.01m.1.12l-.05-.01m2.18 42.12l.71-.3m2.5-8.76l.71-.3m13.44 1.56l-.38.25-.77.11-11.82-.68-.37-.1-.36-.24-.32-.37-.26-.45-.15-.5-.05-.49.07-.43 2.42-7.65.45-.86.68-.54.42-.07m-3.34-22.93l.01.24.08.13h.15l.22-.12"/><path d="M109.68 220.32l-.71.3m-.83-27.11l-.01-.01m47.89 3.42l-.41.68.04.16-.01.09-.06.07-.06.02-.12-.07-.09-.14-.01-.14m10.33-8.89l1.41 11.55-.08.61.14.51.34.48.37.24.45.1.5-.1 8.89-3.75"/><path d="M167.04 200.25l.71-.3"/></g><g class="B"><path d="M90.03 279.46l-.6-.26-10.71-9.44-.3-.49-.15-.42-.02-.34 6.43-20.29 15.9-50.35.17-.11 7.05-6.08.83.49-.4 1.26-.09.08-.1.32-.27.3-.28.38-.25.42-.21.42-.16.4-.4 1.26-.07.33.45.26-.23.73 22.81 1.33 4.94-.55 3.89-1.96 3.6-3.82 2.54-5.18 2.78-8.22m-51.81 98.64l5.82-2.46 76.46-77.77.06-.4"/><path d="M100.3 249.65l-.08-.54.07-.49 2.44-7.69.45-.86.39-.3.43-.08 4.59.27.37.1.38.26.32.38.25.47.15.51.03.5-.09.44-.2.32-8.11 8.25h-.1l-.41-.18-.37-.35-.31-.47-.2-.54m6.1-20.12l.05.49.16.5.25.45.32.37.36.24.37.1 11.82.68.44-.06.26-.17 7.82-7.96.2-.33.1-.43-.03-.5-.15-.51-.25-.47-.33-.38-.37-.26-.38-.1-16.88-.98-.43.07-.39.3-.45.86-2.42 7.66-.07.43m49.62-32.61l3.8-6.31m8.39 10.66l-.17.04-.17-.03-.18-.12-.13-.26-.02-.39.21-.56-1.41-11.55"/></g><path d="M281.76 182.76l-26.64-51.95m24.61-4.01l18.64 36.34m-7.18 18.46l-5.62 2.38" class="C"/><path d="M298.33 162.94l-18.6-36.27" class="B"/><g class="C"><path d="M214.24 138.44l9.7 4.1m17.23 7.61l-1.16-2.25-.32-.33-.16-.47.01-.11-.26-.52-.1-.14-.11-.1-.12-.06h-.11l-.1.06-.03.04"/><path d="M240.01 147.9l-.47-.91m10.7 20.39l.05-.04.03-.07.01-.09v-6.94l-.11-1.36-.33-1.38-6.43-20.45-.29-1.31-.02-1.25.23-1.1 3.05-8.38.23-.89.02-.24"/><path d="M243.16 135.12l1.18-.5m4.22 14.4l1.01 3.19"/></g><g class="B"><path d="M199.63 126.7l-3.47 8.09-.33 1.11-.11 1.27v4.79m7.18-24.3v-.18l-.23-1.3-2.08-7.46m13.07 29.96l10.28 4.35m17.23 7.12l8.74 17.05.05.08.07.07.07.04.07.01 1.25-.52.05-.04.03-.07.01-.09v-6.94l-.11-1.36-.33-1.39-1.5-4.78"/><path d="M248.56 149.02l-3.92-12.47-.28-1.31-.03-1.25.24-1.1 2.9-7.97"/></g><g class="C"><path d="M190.2 103.75V102m0 0v-1.49V102m0-1.49V99v1.51m0-1.88V99m0 .2l.48.63.93.54L204 105.6l28.51 12.05 1.27.39 1.5.21h1.57l.15-.02 1.35-.19 1.27-.39 40.9-17.28.93-.54.48-.63v4.55m-88.77-4.18l-.46-.24-.26-.28-.03-.3.2-.29.42-.25.59-.18.68-.08.72.01.67.11.55.2.36.26.15.29-.09.31-.31.27-.24.11-.27.1-.64.14-.72.03-.7-.06-.62-.15"/><path d="M213.45 108.1l.46.23.62.16.7.06.71-.04.65-.13.27-.1.23-.11.32-.28.09-.3-.15-.29-.37-.27-.55-.19-.66-.11-.72-.01-.69.08-.58.18-.42.25-.2.29.03.3.26.28m.12-18.1l.03.25.21.23.37.18.5.13.57.05.57-.03.52-.11.22-.08.19-.09.26-.22.07-.25-.12-.24-.3-.21-.44-.15-.54-.09-.58-.01-.55.07-.48.14-.33.2-.17.23m39.13 11.19l.24-.2.71-2.43-1.18-2.4-2.97-2.11-4.42-1.58-.58-.09-4.82-.8-5.79-.1-5.56.7-4.71 1.42-3.37 2-1.65 2.34.24 2.45.7.77m.82 9.73l-.06-.06v-.05m.23.29l.03.04.06.03m.49.22l-.15-.05m.59.16l.19.03m1.22.02l.18-.02m-.89.05h.19m1.81-.41l-.11.06m-.53.2l.16-.04m.83-.73v-.05m-.12.36l.04-.04.01-.04m9.4 5.73l-.03-.31.21-.29.41-.24.59-.18.69-.09.71.02.67.11.55.19.37.26.14.3-.09.3-.31.27-.23.12-.28.1-.64.13-.71.04-.71-.06-.61-.16-.47-.23-.26-.28m.07-35.52l-.1.14.03.31.26.28.47.23.61.16.71.06.71-.04.64-.13.28-.1.23-.12.31-.27.09-.3-.14-.29-.37-.27-.55-.19-.67-.11-.71-.02-.69.09-.59.18-.41.24-.11.15"/><path d="M247.79 87.52l.04.04.06.03m-.33-.35l.01.04.03.03m-.06-.31v.02m.69.74l.15.05m.45.12l.18.03m.51.04h.2m.51-.02l.19-.03m1.45-.87v-.05m-.37.57l-.1.05m.35-.26l.04-.04.01-.03m-.92.54l.17-.06m3.89 2.77l-.26-.29-.03-.3.2-.29.42-.25.58-.17.69-.09.72.01.67.11.54.2.37.26.15.3-.09.3-.32.27-.23.12-.27.09-.65.14-.71.04-.7-.07-.62-.15-.46-.23m.36 17.44l-.21-.23-.03-.24.17-.24.34-.2.47-.14.55-.07.58.01.54.09.44.16.3.21.12.24-.07.24-.26.22-.18.1-.23.08-.52.1-.57.03-.57-.05-.5-.12-.37-.19m20.12-8.96l-.03-.3.21-.29.42-.25.58-.18.69-.08.72.01.66.11.55.2.37.26.15.29-.09.31-.32.27-.23.11-.28.1-.64.14-.71.03-.7-.06-.62-.15-.46-.24-.27-.28m6.51 1.3v.56m0-1.71v-.35"/></g><g class="B"><path d="M190.2 103.75l.48.64.93.53 40.9 17.29 1.27.39 1.5.21h1.57l1.5-.21 1.27-.39 3.48-1.47m-52.9-21.39V99v4.34m0-4.34v-.47m0 0l.48-.63.93-.54 40.9-17.29 1.27-.39 1.5-.2h1.57l1.5.2 1.27.39 9.95 4.21m-29.56 16.22l-.47.66 1.4 1.51 3.75 1.87 4.98 1.25 5.67.51 5.75-.31 5.2-1.07 2.22-.8 1.88-.93 2.31-2-.23-.47-2.97-2.11-4.42-1.58-5.4-.89-5.79-.1-5.56.7-4.71 1.42-3.37 1.99-.24.35m31.79-15.28l28.72 12.14.93.54.48.63v4.94m0 .28l-.48.64-.93.53-1.75.74"/><path d="M281.93 103.24V102m0-1.65v-1.82"/><path d="M281.93 98.68v.17"/></g><path d="M236.87 96.09l.64.54.67.29.64-.01.53-.3.14-.19m4.89.5l6.74 2.84m-6.49 5.5l.41-.87.79-.67.82-.19" class="C"/><path d="M238.68 96.12l.01.01.68.29h.12l.18-.28m6.04 8.9l.01-.09.51-1.06.42-.36.17-.04 1.1.24.61.38" class="B"/><g class="C"><path d="M207.24 136.98l-2.42-1.02-.19-.05-.21.04-.14.11-29.98 33.12m29.48-35.6l.2-.09"/><path d="M203.42 133.64l.65-.11m8.75 3.23l-.28.11-.1.01-.1-.02-4.75-2.01m4.87 4.31v-2.28"/></g><path d="M203.88 133.45l-.46.19-.5.37-29.99 33.13 1.37 2.04 3.06-1.29m24.88-25.38l5-5.53 5.15 2.17.1.01.09-.02 2.38-1.01" class="B"/><path d="M168.34 135l26.13-28.87m33.39-9.25l6.21 9.3" class="C"/><path d="M167.91 134.77l26.1-28.83m41.35.35l-6.43-9.63" class="B"/><g class="C"><path d="M147.92 127.83l1.55-.17 1.68.54 15.85 8.34 1.41 1.04 1.25 1.49 9.82 14.71.67.79.75.52.77.21 1.9.09m-22.81 29.51l1.14-1.35m6.19-20.31l.09-.04-.06.02-.06.04-.03.07-.01.14m.16-.27l.08.02.09.04"/><path d="M180.52 154.83l2.37-1"/></g><path d="M147.88 181.27l-.78-1.5-.92-3.3-.17-3.21.61-2.78 6.81-17.06.38-1.74-.11-2.01-.59-2.05-1.01-1.9-4.77-7.03-1.11-2.09-.67-2.26-.15-2.21.37-1.95.87-1.48 1.28-.87 2.37-1 1.55-.17 1.68.54 15.85 8.34 1.41 1.04 1.25 1.49 9.82 14.71.67.79.75.52.77.21.5.02m-28.34 33.4l-.58.08-2.44-.74-.1-.07m7.33-.64l1.4-1.02" class="B"/><g class="C"><path d="M147.98 184.55l1.78.76m-1.39-7.71l1.78.76"/><path d="M165.89 158.93l-.16-.04-.18.04-3.72 1.57-.28.16-.25.23-.23.29-9.72 14.55-.91 1.7-.58 1.85-.2 1.82v3.67l.04.38.12.31.19.24 1.67 1.44.25.14m1.71-7.25l.45-.19.53.01.45.26.31.47.14.64-.05.74-.23.76-.38.7-.36.4-.13.15-.56.35-.56.12-.49-.14-.39-.37-.18-.46"/><path d="M159.65 160.03l1.77.75"/></g><g class="B"><path d="M156.18 185.68l-3.66 1.55-.31.08-.28-.03-1.78-.75-.24-.14-1.68-1.44-.19-.24-.12-.31-.04-.38v-3.67l.2-1.82.58-1.85.92-1.7 9.71-14.55.23-.29.26-.23.27-.16 3.72-1.57.18-.04.17.04 1.77.75.14.11.08.18.03.22v6.67"/><path d="M152.12 183l.03.37.04.1.4-.25.49-.56.38-.69.23-.76.05-.74-.1-.44-.11.05-.54.46-.44.63-.31.74-.14.76.02.33"/></g><g class="C"><path d="M223.94 143.22v-1.49"/><path d="M263.24 205.07l-29.83-58.17-.51-.8-.71-.73-.68-.41-7.52-3.18-.03-.02-.02-.02v-.02"/><path d="M232.54 145.73l4.29-1.82m25.2 62.35l.74-.49"/></g><g class="B"><path d="M224.18 141.6l-.19.08-.05.04v2.3l.01.02 7.56 3.2.19.11.21.21.14.23 29.98 58.47.59-.25m-22.34-57.59l-.3.12-.09-.03-.04-.03-1.69-3.3-.28-.17-1.26-1.32-.65-.62-.03-.15-6.56-2.77"/><path d="M261.06 186.19l-9.85-19.22"/></g><path d="M201.41 127.16l-1.77-.75m5.08 7.39l-1.63-1.07-.59-.94-.55-.87-.57-2.39.07-2.75.69-2.87 1.25-2.73 1.71-2.35.64-.87.5-1.01-1.78-.75m.13 8.96l.04-.04.26-.13.25-.08.48.01.4.23.28.42.12.58-.04.67-.2.68-.35.62-.44.5-.5.32-.5.1-.45-.12-.34-.33-.21-.51v-.07m3.45-15.32l-1.77-.75m1.17 5.01l.32-1.07.11-1.06v-1.52l.02-.25.09-.25.13-.22.13-.14" class="C"/><g class="B"><path d="M205.26 110.69l-.13.14-.13.22-.08.25-.03.25v1.52l-.11 1.05-.32 1.08-.49 1.01-.65.87-1.71 2.35-1.25 2.73-.69 2.87-.03.97-.04 1.78.57 2.39 1.15 1.81 1.62 1.07 1.78.75 8.32 3.04.13.02"/><path d="M204 126.43l-.39.44-.22.14-.04-.56.13-.68.27-.66.4-.57.44-.38.05.24-.04.67-.2.68-.34.62-.06.06"/></g><g class="C"><path d="M213.39 132.22l-1.78-.75"/><path d="M216.69 138.86l-1.62-1.07-.57-.9-.58-.91-.57-2.39.07-2.75.69-2.87 1.25-2.73 1.71-2.35.65-.87.5-1.01-1.78-.75m.13 8.96l.04-.04.25-.13.25-.08.48.01.4.23.28.42.13.58-.05.67-.2.68-.34.62-.45.5-.5.32-.5.1-.45-.12-.34-.33-.2-.51-.01-.07m3.46-15.32l-1.78-.75"/><path d="M218.22 121.01l.31-1.07.11-1.06v-1.52l.03-.25.08-.25.13-.22.13-.14"/></g><g class="B"><path d="M229.9 121.11v18.08l-.03.25-.08.24-.13.23-.17.17-.18.12-3.98 1.68-.16.04-.15-.02-8.33-3.04-1.78-.75-1.62-1.07-1.15-1.81-.56-2.39.06-2.75.69-2.87 1.26-2.73 1.7-2.35.65-.87.5-1.01.31-1.08.11-1.05v-1.52l.03-.25.08-.25.13-.22.13-.14"/><path d="M215.36 132v.07l.22-.14.45-.5.34-.62.21-.68.04-.67-.05-.24-.44.38-.4.57-.28.66-.13.68.04.49"/></g><path d="M230.33 161.15l-1.77.97-.64-1.27-.4-1.31-2.8-13.59-.13-1.16.05-.45m8.69 19.95l-1.61.88-.06-.09-.08-.07-1.22-.9-.96-.88-.84-1.11m3.16 3.05l.04.1.02.1.01.07-.43.38m.43-.38l1.41-.77" class="C"/><path d="M226.31 163.69l5.05 2.13.94-.51.9-.64.05-.1.06-.14.02-.14-.01-.12-.01-.04-.03-.04-.2-.24-.95-.7-.96-.88-.84-1.12-.64-1.26-.4-1.32-2.77-13.44" class="B"/><g class="C"><path d="M182.18 181.94v-4.56l-.37-.28-10.29-9.61m32.45 15.31v-4.56l-.41.51-.75.43-5.27 2.23-1.06.32-1.25.17h-1.31l-1.25-.17-1.06-.32-8.94-3.78-.49-.25"/><path d="M184.27 177.1l-.46-.23-.26-.28-.03-.31.2-.29.42-.25.59-.17.68-.09.59.01h.13l.67.11.55.2.36.26.15.3-.09.3-.31.27-.51.22-.65.13-.71.04-.7-.07-.62-.15m8.17 2.9l-.03.04.03.3.26.29.46.23.62.15.7.06.71-.03.65-.14.51-.21.31-.27.09-.3-.15-.3-.36-.26-.55-.2-.67-.11-.72-.01-.68.09-.59.17-.42.25-.17.25m2.13 6.46v-4.56m8.6-5.35l-.04-.05.04-.54v.59l.3.46.2.18.34.52-.04.53"/><path d="M203.17 175.96l.41-.5.75-.43 13.08-5.53 6.53-2.76 1.02-.31 1.19-.18v4.56m-22.14 6.9v2.06m22.14-13.52l1.26-.01 1.22.14.43.08 1.22.15 1.26-.02v4.56m0-4.56l1.19-.17 1.02-.32 5.28-2.23.77-.45.16-.2m-6.06-.72l.21-.29.41-.24.59-.18.69-.09.71.02.67.11.55.19.37.26.14.3-.09.3-.31.27-.11.05-.4.17-.64.13-.71.04-.71-.06-.61-.16-.47-.23-.26-.28-.03-.31m6.31 1.19v3.49"/></g><g class="B"><path d="M240.21 167.45v-.95.95l-.41.53-.77.45-5.28 2.23-1.02.32-1.19.17-1.26.02-1.22-.15-.43-.08-1.22-.15-1.26.02-1.19.17-1.02.32-.44.19-19.17 8.1-.32.18v2.5l-.04.53-.41.5-.75.43-5.27 2.23-1.06.33-1.25.17h-1.31l-1.25-.17-1.06-.33-8.94-3.78-.49-.24-.37-.28-10.34-9.65m57.55-14.75l.49.12.58.21 8.92 3.77"/><path d="M240.21 166.5v-2.81"/></g><g class="C"><path d="M260.6 232.15l1.78.75m-1.39-7.7l1.78.75"/><path d="M264.55 234.87l-.24-.14-1.68-1.44-.19-.23-.12-.32-.04-.37v-3.67l.2-1.83.58-1.84.92-1.7 9.71-14.55.23-.29.26-.23.27-.16 3.72-1.57.18-.04.17.04m-13.71 24.54l.19.46.38.37.49.14.56-.12.56-.36.01-.01.48-.54.39-.69.22-.76.05-.74-.14-.64-.31-.48-.44-.25-.54-.01-.45.19"/><path d="M272.27 207.62l1.78.75"/></g><g class="B"><path d="M260.82 232.5l.03.04 1.68 1.44.24.14 1.78.75.29.03.3-.07 13.03-5.51.18-.11.17-.18.13-.22.08-.25.03-.25v-21.27l-.03-.22-.08-.18-.13-.11-1.78-.75-.17-.04-.18.04-3.72 1.57-.27.16-.26.23-.23.29-9.71 14.55-.92 1.7-.58 1.84-.2 1.83v3.67l.04.37.12.32.16.19"/><path d="M264.81 231.07l.4-.26.49-.55.39-.69.22-.76.05-.74-.1-.44-.11.05-.53.46-.45.63-.31.73-.14.76.05.7.04.11"/></g><g class="C"><path d="M254.08 229.39l-1.78-.75m2.17-6.2l-1.78-.75"/><path d="M270.22 203.02l-.17-.04-.18.04-3.72 1.57-.27.16-.26.23-.23.29-9.71 14.55-.92 1.7-.58 1.85-.2 1.82v3.67l.04.38.12.31.19.24 1.68 1.44.24.14m1.72-7.25l.44-.19.54.01.44.26.31.47.14.64-.05.74-.22.76-.39.69-.44.5-.05.06-.56.35-.55.12-.5-.14-.38-.37-.19-.46"/><path d="M263.97 204.11l1.78.76m1.75 6.62v1.2l.01.08.03.08.06.04.06.02.08-.02.93-.39"/></g><g class="B"><path d="M260.5 229.77l-3.65 1.55-.31.08-.29-.03-1.78-.76-.24-.13-1.68-1.44-.19-.24-.11-.32-.04-.37v-3.67l.19-1.83.59-1.84.91-1.7 9.71-14.55.23-.29.26-.23.27-.16 3.72-1.57.18-.04.17.04 1.78.75.13.11.08.18.03.22v2.43l-.03.25-.08.25-.13.22-.17.18-.18.11-2.13.91-.08.04-.06.07-.06.09-.03.1-.01.1v3.21"/><path d="M256.47 226.5l-.04.26.04.7.04.1.4-.25.5-.56.38-.69.22-.76.05-.74-.09-.44-.12.05-.53.46-.45.63-.31.74-.09.5"/></g><g class="C"><path d="M261.51 186.06l-2.37 1.01"/><path d="M265.49 188.74l-1.29.85-.67.22-.75-.12-.77-.44-2.58-2.06-.19-.11-.19-.03-.17.06"/><path d="M263.16 189.75l2.23-.94m29.6 55.85l1.59-1.72.92-2.52.17-3.07-.62-3.3-6.8-22.81-.38-2.06.11-1.91.59-1.56 1.01-1.04 4.77-3.01 1.11-1.14.67-1.7.15-2.08-.38-2.26-.87-2.22-1.27-1.95-1.55-1.48-1.68-.88-15.85-5.05-1.41-.16-1.25.44"/><path d="M289.98 207.27l2.37-1"/></g><path d="M266.68 202.87l-7.86-15.33-.04-.09-.01-.1v-.1l.03-.07.08-.07 2.37-1 .17-.06.19.03.19.11 2.58 2.06.77.44.34.05 8.53-5.56 2.37-1.01 1.25-.44 1.41.17 15.85 5.05 1.68.88 1.55 1.48 1.28 1.95.87 2.21.37 2.27-.15 2.08-.67 1.7-1.11 1.14-4.77 3.01-1.01 1.04-.59 1.56-.11 1.9.38 2.06 6.81 22.82.61 3.3-.17 3.07-.92 2.52-1.59 1.72-2.37 1-2.1.74-2.39-.3-2.44-1.33-2.25-2.21-1.82-2.88-5.23-10.54m-6.08-20.79l-2.3-.98" class="B"/><path d="M181.7 119.53l-4.47-2.35-1.68-.54-1.55.17" class="C"/><path d="M183.08 118.01l-3.48-1.83-1.68-.54-1.55.17-2.37 1-1.27.87-.87 1.48-.09.43" class="B"/><path d="M287.48 184.59l5.08-2.15m-.24 24.3l10.24-4.32m-8.5 12.66l4.02-1.7" class="C"/><path d="M291.1 181.77l-5.35 2.26m8.36 31.2l3.74-1.58m4.88-11.64l-.07.07-.08.14-.03.1.01.1.03.09.06.08.11.07.09.01" class="B"/><g class="C"><path d="M177.23 167.79l23.26 9.83.38.21.16.11 1.61-.48m-2.88-3.17l-1.77.54-.49-1.34-.23-1.39-.85-14.4.04-1.24.29-1.11 4.6-11.67.02-.09v-.09l-.03-.1-.04-.1-.05-.08-.67-.2"/><path d="M197.99 174.83l.71 1.16.89.91.9.72m.54.32l.1.09.13.14-.05.28m.05-.28l1.41-.43m-1.3-34.24l1.77-.54m-1.89.26l1.77-.53"/></g><path d="M177 167.31l-.02.01.25.47 1.57 1.19 22.41 9.47.94-.29.52-.42.01-.07-.01-.11-.03-.1-.05-.1-.07-.07-1.16-.92-.89-.91-.71-1.17-.49-1.33-.23-1.39-.85-14.41.04-1.23.29-1.11 4.6-11.67.02-.09v-.1l-.03-.1-.04-.09-.05-.08-.67-.21-1.77.54L177 167.31" class="B"/><path d="M295.82 187.34v-.08" class="C"/><path d="M295.68 182.09l-1.39 2.69-.42 1.32-.02.52m1.99.76l-.02-.12.03-.83.24-.76 2.16-4.2m5.2 19.51l-2.54-3.04m1.92-.81l.82.98m13.94-18.14l4.23-8.21m-2.88 9.97l.32-.63" class="B"/><g class="C"><path d="M148.67 138.43l.22.17.64.23.2.06.6-.04.17-.03.5-.31.13-.12.34-.56.08-.19.15-.73.02-.25-.06-.83-.06-.28-.25-.84-.12-.27-.43-.77-.17-.23-.55-.61-.2-.17-.61-.38-.22-.09-.6-.11-.22-.01-.53.17-.18.09-.4.43-.13.17-.22.64-.08.23v.12m1.78-1.18l-.14-.02-.17.07m1.72 6.14l.74-.07.08-.01.69-.35.51-.61.28-.85.03-1.02-.22-1.11-.46-1.07-.65-.93-.75-.67-.8-.38-.79-.06-.9.37-.07.04-.42.48m.01-.01l.1-.21m2.83 6.53l-.21-.07m.81-7.62l-.48.2-.03.02-.04.04-.03.04-.26.43.28.2.3.19.27-.44.03-.04.04-.03.03-.01.07-.04"/><path d="M149.85 132.04l.77-.33m-.28 6.43l-.15.11-.12.01m.74-.55l-.11.18-.1.07m.26-6.08l-.07-.05m1.34 5.55l.77-.33.05-.3-.07.03-.04.01-.03.01-.06-.01-.5-.11-.07.36-.05.34.49.11h.04.03.05l.02-.01.47-.2"/><path d="M152.91 137.06l-.01-.01m.06-.3h-.01m-.56-2.65l.47-.2"/></g><g class="B"><path d="M148.67 138.42l.24.2.85.3.07.02.05-.01.69.23.04.01.92-.14h.04l.48-.2.73-.59.45-.96-.32-.22.05-.31.39-.17-.08-1.32-.41-1.36-.69-1.23-.9-.96-.4.16-.08-.04-.17-.12.07-.4-1.01-.33-.93.14-.47.2-.03.02-.73.58-.02.04-.35.73-.12.14-.04.06-.3.88v.15"/><path d="M149.48 133.09l.2.11.12.13m-1-.54l.2.03.14.08m2.01 3.74l.03-.16-.03-.28m-.06.84l-.04.24-.07.12m.02-2.1l.09.27.02.18m-.47-1.34l.14.25.07.18m-.45-.83l-.1-.17-.19-.19"/></g><g class="C"><path d="M339.2 116.87l.32-.4.32-1.05v-1.25l-.32-1.32-.59-1.24-.82-1.03-.95-.7-.97-.31-.89.12m2.21.53l-.39-.28-.17-.06m-.26-.08l-.51-.16m2.96 7.3l-.21.26-.31.13"/><path d="M338.78 117.21l.09-.04.06-.07m-.41-5.88l-.46-.59-.2-.14m1.43 2.03l-.42-.87-.18-.22m.99 4.28l.09-.3v-.43m-.44 1.62l.13-.15.07-.24m.19-2.24l.05.21v.57m-.43-2.11l.12.24.24 1.01"/></g><path d="M338.56 117.37l.89-.33.72-.55.46-.9.16-1.16-.16-1.31-.46-1.29-.72-1.15-.89-.88-.97-.52-.95-.09-1.34.5-.03.02" class="B"/><g class="C"><path d="M296.96 179.66l.07.15.13.16.15.14.36.25.41.16.41.06.08-.01m-1.58-.96l.01.03.21.31.3.26.18.09"/><path d="M297.96 179.89l-.24.46-.7-.79m1.5.95h-.25l-.39-.1-.11-.06"/><path d="M297.72 180.35l.71.06"/></g><path d="M296.49 180.59l.07.14.12.16.15.15.36.25.41.16.41.05.37-.05.29-.16.18-.24.27-.54m.07-.02l.39.03.14-.26" class="B"/><path d="M290.5 190.54l1.03-.27 1.16.24 1.15.73 1.03 1.15.79 1.44.47 1.57.1 1.54-.29 1.33-.44.68-.2.31-.92.53" class="C"/><path d="M291.62 198.9l.48.41 1.17.5 1.11-.02.27-.12.93-.53.64-.98.28-1.34-.09-1.53-.47-1.58-.8-1.43-1.03-1.15-1.15-.74-1.16-.24-1.03.28-.27.11-.79.77-.47 1.18-.04.59" class="B"/><g class="C"><path d="M150.01 125.55l1.07 1.19m.42-.76l-.06-.11-.06-.31.07-.28.2-.21.3-.13.37-.03.4.08.38.18.33.25.24.3.12.32-.01.3-.14.25-.25.17-.34.08-.39-.03-.39-.13-.36-.21-.29-.28-.12-.21m6.93-1.9l-.36-.22-.29-.28-.18-.31-.06-.32.08-.28.2-.21.29-.13.37-.02.4.08.38.17.33.26.24.3.12.32-.01.3-.13.25-.26.17-.33.08-.33-.03h-.06l-.4-.13m2.85-.55l.24.26"/><path d="M161.36 123.62l.07-.03"/></g><path d="M149.81 124.65l2.89-1.22m6.16-2.58l-.01-.02-3.29 1.39m6.04 1.67l-.08-.1-.09-.2-.15-.06-1.04-1.15" class="B"/><g class="C"><path d="M87.56 270.53l.72-.54.47-.9.16-1.16-.15-1.3-.46-1.3-.71-1.15-.9-.89-.97-.52-.94-.1-.47.19m.02.04v.01m1.15-.1l.21.02.04.02m.44.24l.48.26.11.11m.91.98l-.14-.22-.55-.55"/><path d="M88.35 265.67l-.11-.31-.46-.73m.9 4.45h0l.16-1.15-.15-1.28-.32-.91"/></g><path d="M87.5 270.53h.06l1.3-.61.6-.73.32-1.04v-.03l.01-1.22-.31-1.31-.6-1.25-.81-1.03-.94-.71-.98-.32-.89.12-.96.44" class="B"/><path d="M291.41 239.87l.93-.54.64-.98.29-1.33V237l-.1-1.52-.47-1.57-.79-1.44-1.03-1.15-1.16-.74-1.15-.24-1.03.28" class="C"/><path d="M288.66 238.98l.48.41 1.17.5 1.1-.02.28-.12.92-.53.64-.99.29-1.33-.1-1.54-.47-1.57-.79-1.44-1.03-1.15-1.16-.73-1.15-.24-1.03.28-.27.11-.8.77-.47 1.18-.04.6" class="B"/><path d="M298.43 177.1l1.96-.83-.75 1.46-1.96.82.75-1.45-.06-.17m-.69 1.62l-.12-.05m1.13 2.2l2.22-4.32m-.52-.11l-.73-1.84" class="C"/><path d="M301.51 179.5l-2.82 1.2-1.44-1.6" class="B"/><path d="M152.63 139.47l.8-.77.47-1.17.09-1.46-.29-1.57-.41-1-.23-.53-.92-1.31-1.11-.96-1.17-.49-1.1.02" class="C"/><path d="M149.26 138.74l.03.04 1.16.73 1.15.24 1.03-.28.27-.11.8-.77.47-1.18.09-1.45-.28-1.58-.64-1.52-.93-1.32-1.1-.95-1.17-.5-1.11.02-.27.12-.93.53-.64.99-.29 1.33.01.06" class="B"/><path d="M302.04 184.66h0m.14-1.46h0l.03-.06" class="C"/><path d="M300.21 185.54l-.16-.67v-1.31l.03-.18.35-1.15 1.17-2.27m.46 4.79l-.02-.09v-.9l.18-.58" class="B"/><g class="C"><path d="M84.17 270.17l.18.14.64.24.19.06.6-.04.18-.03.49-.31.14-.11.34-.56.08-.19.16-.73.01-.25-.05-.83-.06-.27-.25-.85-.12-.27-.42-.77-.17-.23-.55-.61-.2-.18-.61-.38-.22-.09-.61-.12h-.21l-.53.16-.18.09-.4.42-.14.17-.22.64-.08.23v.04m1.53-1.06l.12-.04.2.03m-1.42-.04l.46-.51.07-.04.81-.34-.26.05.08-.48.01-.04.03-.04m2.59 7.86l-.03-.01-.03-.02-.3-.27.06-.01.08-.01.74-.38.49-.64.27-.89v-1.05l-.24-1.09-.46-1.03-.66-.91-.78-.67-.83-.36-.76-.01.27-.07.02-.12-.55.24m-.23-.31l.34-.25m1.5 7.62h0l.74-.06m-1.69-7.68l-.03.03-.02.04-.06.37"/><path d="M86.31 270.49l.21-.05.3.28m-1.21-.75h.04l.04-.04m.49-.35l-.02.04-.03.02m.21-5.95l.47-.2m1.39 5.8l.47-.2m-.03-2.57l-.47.2-.07.03-.07.02-.47.14-.14-.39-.12-.4.46-.14.08-.02.07-.03.2-.08"/><path d="M87.56 266.91l.78-.32-.25-.74"/><path d="M88.35 266.59h-.01"/></g><g class="B"><path d="M84.17 270.17l.2.16.84.3.07.02.09.06.04.01.97.17h.04.02l.38-.17.04.04.05.02h.02l.04-.01.47-.2.75-.54.48-.94.16-1.21-.19-1.36-.29.07-.24-.74.27-.12-.68-1.25-.89-.99-.99-.62-1-.18-.47.2-.02.01v.01l-.04-.1-.47.2-.03.02-.75.54-.02.04-.43.82-.09.1-.04.06-.3.89v.07"/><path d="M83.78 263.03h.01m1.55 2.09l-.18-.19-.14-.08m-.68-.33l.14.02.2.11m1.86 4.19l-.03.17-.1.18m.18-1.62l-.03-.27-.06-.19m.13.91l.02.19-.04.24m-.97-3.01l.13.13.15.24m.24.41l.1.17.09.27"/></g><path d="M152.82 181.51l.73-.05.07-.02m-1.17-.04l.2.07.6-.03.18-.02.24-.15m-.55.39h0m-.01-.82h.01l.03-.02m.57-.44l-.07.12-.16.1" class="C"/><path d="M152.45 181.41l.23.08.07.02h.07m0 0l.26.14.04.01m.43.03l-.43-.03" class="B"/><path d="M163.43 116.36l.09-.04m.73-.2l.11.04m-.59 0h.09" class="C"/><path d="M159.34 119.9l-.73 1.47-.01.23.09.25.19.24.26.19.3.14.31.06.29-.02.18-.06.05-.04.16-.16.31-.63m16.03 3.41l-.28-.34-9.36-9.12-1.07-.81-.15-.08-1.16-.45h-1.1l-.25.01-.95.45-.21.12-.69.85-.13.19-1.12 2.22m1.42 1.61l1.48-2.9.32-.41.34-.16h.5l.66.26.73.56 9.36 9.12.31.37" class="B"/><path d="M224.6 109.08l-.21.29-.42.25-.58.17-.69.09-.71-.01-.67-.11-.55-.2-.37-.26-.15-.3m.28-.58l-.08.28.05.1.08.17.34.23.5.18.6.1.66.01.62-.08.54-.16.38-.22.18-.27-.02-.27" class="C"/><path d="M224.6 110.68v-1.6l-.03-.3-.19-.29-.24-.26-.42-.21-.57-.14-.64-.06-.64.04-.59.12-.46.19-.29.25-.19.28-.09.3.01 1.6" class="B"/><g class="C"><path d="M290.91 198.53l.19.13.19.13.64.19.19.04.58-.09.17-.05.47-.36.13-.14.3-.59.07-.21.11-.76v-.25l-.09-.84-.07-.28-.29-.84-.13-.26-.45-.74-.18-.23-.57-.56-.21-.16-.61-.33-.22-.08-.59-.06-.21.01-.51.23-.18.1-.37.47-.12.18-.18.68-.05.19m.48-1.24l.29-.39.07-.05.84-.41.75-.04.8.3.79.62.26.32.43.55.51 1.05.27 1.08.04 1.04-.22.93-.46.69-.69.4-.82.16.08.1.03.02m-2.03-6.27l.11-.06.2.01m1.72 5.48l.16-.03.1-.08m-.37.83h-.03l-.08-.01-.08-.03m-1-7.15l.7-.3-.12.4-.3-.05-.28-.05.14-.47.02-.05.04-.04.03-.02.47-.2"/><path d="M291.77 191.57l.03-.1.02-.04m1.05 6.6l.15-.12.05-.1m-.38 1.17l.07.08m1.05-6.24l.47-.2m.35 5.82l.47-.2m.49-2.27l-.47.2h-.02l-.05.02h-.04l-.04.01-.49.04-.07-.4-.04-.4.48-.04.08-.01h.03l.04-.02.18-.07"/><path d="M294.48 196.24l.77-.33-.08-.61"/><path d="M295.25 195.91h.02"/></g><g class="B"><path d="M288.9 194.08l.25-.93.04-.06.21-.28.25-.62.02-.04.69-.64.04-.02.47-.2.9-.2.05.34h.01l.03-.04.02-.01.47-.2 1.01.53.92.91.74 1.2.45 1.35-.29.13.09.61.32.06-.08 1.26-.41 1.01-.69.64-.48.2-.93.21h-.03l-.03-.02-.18-.21-.31.13h-.02-.04l-.02-.01-.3-.16-.76-.21-.41-.29"/><path d="M292.58 194.06l-.15-.24-.13-.12m-1.15-.79l-.04-.02h-.04m.91.51l-.19-.18-.14-.06m1.74 3.08l.03.18-.03.25m-.04.42l-.02.16-.09.2m-.16.32l-.01.04m.26-2.02l-.04-.28-.07-.18m-.38-.88l.1.16.11.27"/></g><g class="C"><path d="M287.88 238.56l.29.2.19.13.64.17.19.04.58-.11.17-.05.46-.37.13-.14.29-.61.07-.2.1-.77v-.25l-.11-.85-.07-.27-.3-.84-.13-.26-.46-.74-.18-.22-.57-.56-.21-.15-.61-.32-.22-.07-.6-.05-.2.02-.51.23-.17.11-.36.48-.12.19-.18.68-.04.21"/><path d="M286.46 232.71l.01.13-.06.08m.06-.08l.19-.27m.63.45l.17-.08h.13m.33.01l.11.01m.84 6.07l.35.09.08.02.85-.18.48-.24.51-.58.29-.83.06-1.02-.2-1.11-.44-1.07-.64-.94-.74-.69-.82-.42-.8-.07-.39.13-.31.15-.36.19m-.01-.33l.35-.29"/><path d="M289.74 238.25l-.14.13-.13.02m-1.01-7.03l.47-.2m1.18 6.72l-.03.07-.1.08m.93-5.8l-.47.2-.03.01-.05.04-.04.03-.35.34.24.31.27.3.35-.35.01-.01.05-.04.04-.02.02-.01.16-.07-.35-.41"/><path d="M289.97 232.86l.77-.32m.26 5.86l.76-.32-.46-.21-.16.27-.14.26.45.21h.02l.05.02.05-.01h.02l.48-.2"/><path d="M291.76 238.08l.03.01m.28-2.47l.47-.2m-1.4-2.46l-.03.01"/></g><g class="B"><path d="M287.87 238.55l.52.36.48.12 1 .32.04.01.92-.14.04-.01.47-.2.73-.59-.28-.33h.01l.06.01.03-.01.48-.2.26-1.14-.09-1.33-.41-1.35-.7-1.23-.29.12-.1-.14-.28-.26-.02-.02.17-.3-.97-.75-1.01-.32-.92.15-.47.19-.03.03-.38.3-.34.28-.02.03-.01.02v.03l.03.26-.02.01-.07.05-.04.05-.15.06-.03.02-.01.02-.06.26-.2.28-.04.05-.23.94v.01"/><path d="M288.03 232.96h.08l.14.06m1.29 1l-.11-.16-.19-.18m-.32-.29l-.12-.11-.21-.1m1.81 3.86l-.03.25-.05.14m-.15.33l-.06.13m.33-1.26l.01-.17-.04-.28m-.12-.68l.02.04.01.06m-.52-1.19l.16.23.07.18"/></g><path d="M247.54 85.28l.02.3.24.29.45.24.61.16.69.07.72-.03.65-.13.52-.21.33-.27.11-.3m-.31-.57l.11.27-.09.27-.3.25-.48.19-.59.11-.65.03-.57-.06h-.07l-.55-.15-.41-.21-.22-.26-.02-.28" class="C"/><path d="M251.87 87.14l.01-1.74-.13-.3-.18-.27-.32-.24-.49-.19-.61-.1-.65-.02-.63.07-.54.16-.39.22-.21.26-.19.29-.01 1.74m-94.13 95.07l-.97-.62" class="B"/></g><g class="E H"><path d="M-.2-.2h.442v.43H-.2zM0 0h.042v.03H0z" stroke="#000" stroke-width=".5" fill="#e6e6e6"/><path d="M0 .03h.042V0h0v.03H0z" fill="#000" fill-opacity=".118"/></g><g class="E F"><path d="M239.24 79.87l9.91 4.18-1.28.75v2.78l.94.33h1.86l1.09-.51.27-2.09 28.2 11.88 1.62 1.26.02 5.6-3.05 1.76.43 5.18.65.94.99 1.92.01 1.07-1.32 2.22.01 5.04.3 4.82 10.27 19.85 8.34 16.65.33 3.33-7.41 14.39-.11.97 1.74.22 2.29.03-1.11 2.53-.34 1.69 1.73.64 1.59-3.82 1.18-2.03 1.38-1.18.87-.47.75.03.04.42-1.03 2.24-.27 2.94-4.01 1.82-.01.34.83.55 2.19 2.6 1.29 3.2.22 3.94.41.24 2.27 2.53-.01 1.74-1.61 5.44-3.33 5.32-4.15 2.2 5.55 19.29.02 5.24-.74 1.82-1.65 1.88-4.12 1.65-1.52-.02-1.62-.31-2.2-1.32-2.59-2.85-2.23-3.86-4.17-8.32-.45.6-12.77 5.5h-1.86l-2.84-1.96-.34-.31-.29-2.55-3 1.29h-1.86l-2.84-1.96-.34-.3v-5.34l.63-2.57 2.48-4.25 3.65-5.36v-.73l-16.72-3.19-9.89-4.2-.34-.31.01-5.98 7.56-3.33 2.04-.2.98-1.59 2.87-13.14v-2.99l-.3-1.94-4.84-9.61-.28 3.35-.47.49-6.69 2.92-7.95.07-20.8 8.67-.3 3.23-.46.49-7.01 2.92-3.77-.01-1.91-.65-8.95-3.87-4.83-4.49-.31 4-2.21 3.56-12.96 5.61-1.51.35-2.53-1.34-1.33-1.56-2.55-.66-1.91.04-2.54-1.34-.98-.94-.31-3.54-1-2.21-.64-2.24.02-4.72.63-2.57 6.43-16 .31-1.29.01-3-1.62-3.83-5.74-8.67-.68-2.21v-3.78l1.19-2.33 3.21-1.6 2.01-.35.98.36 14.08 7.38 1.18-.02 11.04-12.06v-1.09l-1.92-1.94-.98-.61-1.27-.29-2.71.96-.64-.01 1.1-1.82 3.38-1.74 2.06.01 4.16 1.97.83-.03 8.36-9.29.43-.53.31-2.42-1.93-1.23v-6.3l42.51-18.04 1.28-.32h3.31zm63.65 117.26l.77-.29-.01 1.05-.7-.45zM224.5 108.7v2.07l-.44.51-3.14.05-.38-.27v-2.66l.61-.35 2.71.01zm-72.41 22.44l.99 1.25.94 1.94.27 1.6-.27 2.07-.34.63-1.04.87h-2.19l-2.52-1.65-.99-1.24-.34-.97.01-1.19.68-2.86 1.46-1.41 1.74-.01zm79.75 16.36l6.42 12.48.33 1.08-.64-.07-8.37-3.55-.65-.63-2.36-11.54.13-.03zm-79.05 34.21l-.23-.57 1.15-.97-.01 1.09-.32.59zm7.92 4.99l.02-.66.62-.16zM294 191.06l1.33 1.57.93 1.95v3.64l-.41.55-1.29.95-1.53.01-3.17-1.96-1-1.89.01-1.52.86-2.99.95-.97 2.38.01zm-37.52 35.34l1.04-1.96.3-.07v1.74l-.78 1.18-.53-.01zm34.66 4.69l.98 1.27 1.25 2.59.02 3.01-.34.63-1.36 1.19h-1.55l-2.84-1.64-.97-.96-.35-.92.01-2.18 1-2.84.81-.79h2.06zm-24.99-1.46l-.79 1.18-.62.1.09-.99 1.02-1.95.3-.07z"/></g><g class="E F"><path d="M160.42 118l7.71 9.27 1.9 2.9.34 2.05-2.29 2.25-.01-.63.36-1.72-.97-2.58-8.65-10.25-.65-.35-.76-.02-3.08 5.92-1.63-.1v-1.19l3.25-6.06.82-.46h2.06zm141.37 62.35l.23 4.41-1.61.66-.01-2.93 1.18-2.37z"/></g><g class="E F"><path d="M167.13 115.45l9.34 9.29v.74l-.98.98-9.95-9.74-.63-.33-1.44-.01-1.59 2.93-.49.01-.69-.97v-1.2l1.51-2.36 1.28-.64h1.42zm-6.4 6.04l-.33.79-1.28-.11-.33-.33-.02-.83.67-1.06zm157.19 57.72l3.36-6.08-1.33 5.53-.97 2.91-.6-.09-.7-1.31zm-21.03 1.88l1.27.33-.95 2.06-1.59 3.82-1.73-.64.34-1.69 2.2-4.19zm6.75 17l-.02 1.41-.32.94-1.97-2.01-.07-.63.64-.36h1.09z"/></g><g class="E F"><path d="M150.19 133.67l.93 1.96-.09 1.63-.95.96-1.84-.03-1.3-1.58-.44-1.93.79-1.49.84-.48h.74zm142.25 60.24l.93 1.95-.08 1.63-.96.96h-1.55l-1.23-1.01-.69-1.56v-1.53l.53-1.07.65-.31 1.43-.01zm-3.55 39.44l1 1.24.61 1.67-.33 1.69-.73.55-1.84-.03-1.27-1.29-.35-.92-.01-2.19.97-.96 1.31-.11z"/></g><g class="E F"><path d="M251.75 84.98l.01 2.42-1.09.51h-1.86l-.94-.33.01-2.78.83-.44h2.06zM224.5 108.7v2.07l-.44.51-3.14.05-.38-.27v-2.66l.61-.35 2.71.01z"/></g><g class="E F"><path d="M336.63 112.24l.96 1.92.01 1.41-.33.63-1.07.89h-.86l-1.27-.69-.99-1.89v-1.87l.85-1.06 1.75.01zM85.15 265.03l1.26 1.62-.11 2.91-1.28.67-1.49-.37-.96-.96-.36-.93-.01-2.51 1.53-1.06h.43z"/></g><g class="E F"><path d="M164.57 120.25l.01 2.1-.28.29-2.29-2.74-.04-.82 1.51-2.71.12.05zm-5.54-3.2l2-.69-.65 1.46-.57-.12zm.14 2.55l-.14.97-2.59 1.32-.64-.02 1.6-2.95.76.02zm3.18 3.83l-.41.39-.56-.03-.69-.95-.06-1.01.37-.01zm-9.58-.14l-2.61 1.24.05 2.26-3.37 1.79-1.19 2.33v3.78l.69 2.21.34.36-.03.37-1.39.58-1.18 2.35-.73.54-2.17-.02-1.74-.22.12-.97 9.48-18.41 3.89-1.87 2.01-.68zm160.66 34.47l.67-.39h.71l-.95 2.08-.34-.72zm-13.66 12.48l.34 3.32-3.32 6.61-1.57 2.27-2.17-.03-1.74-.22.11-.97 7.33-14.23.37-.01z"/></g><g class="E F"><path d="M339.23 110.27l1.24 2.29.33 2.35-.79 1.84-.61.11.4-2.1-.38-.61.11-.93-.95-1.98-1.3-1.25-1.13-.24-.01-.36 1.46-.04zM88.68 264.07l.93 1.95.01 2.7-.8 1.17h-.61l.44-.53-.01-2.71-1.24-2.58-1.66-1.24-.75-.33 2.07-.01z"/></g><g class="E F"><path d="M181.9 181.74l4.46 1.95 1.3.94.3 2.91.34 5.24-.65 1.27-11.84 11.88-2.59 2.85-16.31 16.37-2.59 2.86-15.99 16.05-2.59 2.85-18.08 18.16 1.42-.04.68.68-.01.74-1.41 2.47-1.82 2.03-11.01 4.69-3.85 1.27-1.85 1.04-11.58 5.08-14.45 2.89-2.22-.02-9.94 1.92-3.18.98L44 291.66l-2.47.02-18.35-8.89-.21-8.12-1.3-4.46-.01-2.17 1.14-2.38 2.08-1.13 6.3-2.67 2.02-.34 1.62.66 1.32 1.24 1.56 3.91 1.17-.01 30.54-6 1.15-1.73 13.62-12.65 1.49-1.72 15.02-47.45 7.07-6.07 12.82-2.24h4.93l.03.4-4.68 9.21 4.94.32h5.67l2.9-.3 4.12-2.29 1.41-1.79 2.15-4.26 1.27-.33 1.7-4.07 2.14-6.18.77 1.26.31 3.54.98.94 2.54 1.34 1.91-.04 2.55.66 1.33 1.56 2.53 1.34 1.51-.35 12.96-5.61 2.21-3.56.31-4zm-21.19 4.96l.02-.66.62-.16zm-52.19 7.18l.01 1.14-1.12 1.51-.62.1.09-.99 1.35-2.05zm13.79 26.98l.03.4-5.62 10.82-6.61-.33-1.42-.32 5.48-10.89zm5.76.92l.33 1.09-1.01-.77-.1-.62.42-.05zm-19.22 18.27l.6.37.69 1.26-.11.98-8.06 8.32-.82.01-.68-.95.01-1.87 1.83-4.25 2.21-4.19zm-20.17 24.02l.93 1.95.01 2.7-.46.82-1.57.99h-2.81l-1.89-1.32-.68-1.24v-2.5l.9-1.99 1.88-.99h2.07zm-58.95.95l.61 1.33.01 1.07-.67 1.28-1.28-.11-.66-.93-.33-1.85.58-1.39 1.07-.02z"/></g><g class="E F"><path d="M349.13 8.42l9.94 5.77 9.27 22.12 1.28 3.53.96 13.77.34 8.13-1.42 2.11 1.08 16.36.32 2.56 1.64.93 1.58 21.2-.65 3.29-2.89 5.44-2.04 3.41-1.91 1.02-.52-.09-.33-.3-31.39 114.84-.48.48-.61 1.31-18.23 7.72-6.11-.02-10.91.97 1.08-1.51.66-1.58-.02-5.24-4.94-17.32 4.2-5.11 2.67-4.38 1.61-5.45.31-2.89v-7.47l-1.6-10.25-6.09-31.4.01-3.41 33.85-38.56 2.36-2.45 3.83-16.35-.64-12.28-3.2-45.18-1.94-4.46-.01-3.14 2.26-7.99.38-1.09-1.34-.61-1.92-.64-.62-.35-.36-.59.02-1.85 2.56-1.28 7.26-2.99 3.64-.31zm-14.55 1.92l2.71.12-2.32.26zm4.65 99.93l1.24 2.29.33 2.35-.96 1.94-2.37.86-1.83-.32-1.88-1.33-.68-1.55v-1.86l1.14-2.38 1.97-.92 1.41-.01zm21.17-.82l-.82.61-.66.05v-.72l.67-.4.76.04zm-29.86 25.84l.65.97-.02 1.4-2.89 10.56-.97 2.92-.6-.1-.69-.96-1.25-6.76-.02-2.15 1.17-1.71 3.83-4.47zm-12.48 13.74l.28 1.78.98-1.71.33.95 3.21 17.7-2.91 10.91-.97 2.91-.6-.09-.69-1.29-4.46-23.09-.02-3.12 4.38-5.23z"/></g><g class="E F"><path d="M360.4 109.45l-.82.61-.66.05v-.72l.67-.4.76.04zm-183.96 9.2l.98.61 1.92 1.94v1.09l-2.41 2.47h-.48l-4.53-4.54-.1-.58 3.35-1.28zm-3.51 5.42l2.27 1.94-.02.76-4.34 4.72-.6.12-.2-1.44-1.91-2.9-3.69-4.5 4.18-1.9h1.09zm-7.37 3.2l2.22 2.91.65 2.34-.67 1.95-.62-.08-13.28-7.13 8.05-3.53.71.04zm164.98 8.02l.65.97-.02 1.4-2.89 10.56-.97 2.92-.6-.1-.69-.96-1.25-6.76-.02-2.15 1.17-1.71 3.83-4.47zm-178.47 10.28l1.62 3.83-.01 3-.31 1.29-6.43 16-.63 2.57-.02 4.72.66 2.23.01 1.39-7.06 14.41-1.41 1.79-4.12 2.29-2.9.3h-5.67l-4.94-.32 28.87-56.7zm167.58 4.48l3.21 17.7-.97 3.88-4.19 8.01-3.96-19.98 5.58-10.56zm-16.97 35.21l.94 6.76.03 4.62-1.96.92-1.06.36-.21-3.98-1.29-3.2-2.19-2.6-.83-.55.01-.34 6.23-2.58zm-180.37 35.6l.03.4-5.62 10.82-6.61-.33-1.42-.32 5.48-10.89zm-13.46 19.19l.6.37.69 1.26-.11.98-8.06 8.32-.82.01-.68-.95.01-1.87 1.83-4.25 2.21-4.19z"/></g><g class="E F"><path d="M152.09 131.14l.99 1.25.94 1.94.27 1.6-.27 2.07-.34.63-1.04.87-2.23-.01-.37-.35 1.96-.28.98-.98.07-1.14.33-.36-.33-2.04-1.6-2.57-1.28-.64h-1.42l-.63.33-.88 1.07.04-.94 1.47-1.41 1.74-.01zM294 191.06l1.33 1.57.93 1.95v3.64l-.41.55-1.29.95-1.56.03-.45-.64 1.37-.01 1.38-1.2.32-1.7-.66-2.57-1.59-1.94-1.57-.61-1.47.62-.6.12.09-.62.86-.8 2.38.01zm-2.86 40.03l.98 1.27 1.25 2.59.02 3.01-.34.63-1.36 1.19h-1.56l-.73-.35 2.06-.51.92-1 .03-2.97-.62-1.62-1.93-1.91-2.06-.01-.86.46.01-.62.85-.8h2.06z"/></g><g class="E F"><path d="M337.27 109.99l1.31 1.25.95 1.98-.11.93.38.61-.29 1.44-.59 1.01-1.45.5-1.64-.36 1.44-1.15.33-.63-.01-1.41-.96-1.92-.95-.65-1.98.11v-.62l.88-1.08.66-.36zm-185.82 21.78l1.6 2.57.33 2.04-.33.36-.07 1.14-.98.98-2.56-.01-.34-.33 1.71-.85.32-.64-.01-1.4-.93-1.96-1.32-.96h-.74l-.87.48-.03-.65.89-1.08.63-.33h1.42zm1.17 49.37l1.1-.64-.14.98-.9-.03zm140.75 10.55l1.59 1.94.66 2.57-.32 1.7-1.38 1.2-1.18.02-1.4-.36 1.72-.85.32-.64-.01-1.41-.93-1.95-.97-.95-2.06.14.05-.66 1.25-1.05 1.09-.31zm-1.58 41.64l.62 1.62-.03 2.97-1.33 1.22h-1.88l-.71-.33 1.59-.67.46-1.18-.34-2.01-1.28-1.6-.64-.35-1.73.15.32-1.1.96-.64 2.06.01zM87.4 264.07l1.24 2.58.02 2.71-1.09 1.15-2.61.08.02-.35 1.32-.68.11-2.91-1.26-1.62-.99-.63-1.09.38-.63-.01.67-1.29 1.24-.67h1.42z"/></g><g class="E F"><path d="M159.12 122.18l1.31.29.97 1.46-7.17 3.08h-1.2l-.97-.38-1.66.15-.27-.73.03-1.52 2.22-.76.33.98 1.61.09 1.48-2.68 2.66-.95zm142.26 57.44l-1.61.65-1.26.22-.99-.99-.02-.83 2.8-5.28.13.03z"/></g><g class="E F"><path d="M159.44 121.54l1.29.31.03 2.06-.76.53-1.53-.01-1.03-.57-.38-1.69.78-.85.97-.73zm-6.41 2.57l1.62.29.01 1.75-.75.88-.88-.01-1.92-.67-.03-1.86 1.64-1.34zm145.85 56.72l-.03.39-1.98-.09-.02-1.22.28-.41.39-.03z"/></g><g class="E H"><path opacity=".2" fill="#000" d="M0 0h30v8H0z"/><path fill="#ffffe1" stroke="#000" d="M0 0h30v8H0z"/><text xml:space="preserve" fill="#000" x="0" y="0">tooltip</text></g></svg>