<?xml version="1.0" encoding="UTF-8" standalone="yes"?>
<svg xmlns="http://www.w3.org/2000/svg" xmlns:xlink="http://www.w3.org/1999/xlink" width="420.000mm" height="297.000mm" viewBox="0.000000 0.000000 420.000000 297.000000" stroke-linejoin="round" stroke-linecap="round" fill="none" fill-rule="evenodd">
  <desc>Composer Export</desc>
  <defs></defs>
  <g>
    <path style="fill:#ffffff" d="M419.90,296.90L0.10,296.90L0.10,0.10L419.90,0.10z"></path>
    <path style="fill:#000020" d="M326.55,165.79L326.60,210.28L326.71,210.46L326.35,210.58L325.83,210.27L326.13,165.62L326.66,165.59z"></path>
    <path style="fill:#e5e5e5" d="M219.16,31.28L219.27,31.96L219.27,33.24L219.41,34.78L219.44,33.25L219.61,32.29L220.12,29.42L220.83,29.28L221.69,29.48L221.85,31.63L222.03,34.23L222.31,36.94L223.25,37.00L223.54,36.60L224.85,36.73L224.85,36.23L226.16,36.36L226.45,35.95L227.75,36.09L227.75,35.58L229.06,35.71L229.35,35.31L230.66,35.44L230.66,34.94L231.97,35.06L232.26,34.66L233.94,34.61L234.93,35.60L235.09,38.73L235.27,41.33L235.41,44.22L235.59,46.82L235.74,49.38L235.91,52.31L236.06,54.87L236.24,57.47L236.38,60.36L236.56,62.96L236.70,65.52L236.88,68.45L237.03,71.01L237.20,73.61L237.35,76.50L237.53,79.10L237.67,81.67L237.85,84.59L238.18,86.69L237.85,86.65L95.43,118.36L93.08,118.71L90.28,73.39L90.25,67.33L91.15,66.61L91.99,66.24L92.68,66.13L93.19,66.04L93.44,65.66L94.74,65.78L94.89,65.61L95.59,65.48L96.09,65.39L96.35,65.01L97.65,65.14L97.80,64.96L98.48,64.83L99.19,64.60L99.78,64.48L100.59,64.32L100.56,63.99L101.88,64.08L101.53,63.81L101.13,56.61L101.37,56.11L102.62,55.77L103.12,56.38L104.72,56.29L112.33,54.48L113.31,54.49L113.89,54.96L113.88,57.16L113.86,58.02L114.02,57.82L114.22,54.56L114.27,52.94L115.60,52.84L116.24,53.00L116.46,54.89L116.61,57.78L116.66,60.26L116.84,60.34L117.07,60.55L117.69,60.56L117.97,60.17L119.27,60.29L119.43,60.12L120.12,59.99L120.63,59.91L120.88,59.53L122.18,59.65L122.33,59.48L123.03,59.35L123.53,59.26L123.79,58.88L125.09,59.00L125.24,58.83L125.93,58.70L126.44,58.61L126.70,58.24L127.99,58.36L128.14,58.18L128.84,58.06L129.34,57.97L129.60,57.59L130.90,57.71L130.91,57.21L132.22,57.34L132.51,56.94L133.81,57.07L133.81,56.57L135.12,56.69L135.41,56.29L136.71,56.42L136.72,55.92L138.03,56.05L138.32,55.65L139.62,55.78L139.62,55.28L140.93,55.40L141.22,55.00L142.52,55.13L142.53,54.63L143.84,54.76L144.13,54.35L145.13,54.43L145.41,54.04L146.71,54.16L146.87,53.99L147.56,53.86L148.07,53.77L148.32,53.39L149.62,53.51L149.77,53.34L150.47,53.21L150.97,53.13L151.23,52.75L152.53,52.87L152.68,52.70L153.37,52.57L153.88,52.48L154.14,52.10L155.43,52.22L155.58,52.05L156.28,51.92L156.78,51.83L157.04,51.46L158.34,51.58L158.49,51.41L159.18,51.28L159.69,51.19L159.95,50.81L161.25,50.94L161.25,50.43L162.56,50.56L162.85,50.16L164.15,50.29L164.16,49.79L165.47,49.91L165.76,49.51L167.06,49.64L167.06,49.14L168.37,49.27L168.66,48.87L169.96,49.00L169.97,48.50L171.28,48.62L171.57,48.22L172.87,48.35L172.87,47.85L174.18,47.98L174.48,47.57L175.48,47.65L175.76,47.26L177.06,47.38L177.21,47.21L177.91,47.08L178.41,46.99L178.67,46.61L179.97,46.73L180.12,46.56L180.81,46.43L181.32,46.35L181.58,45.97L182.87,46.09L183.02,45.92L183.72,45.79L184.22,45.70L184.48,45.32L185.78,45.44L185.93,45.27L186.62,45.14L187.13,45.06L187.39,44.68L188.68,44.80L188.84,44.63L189.53,44.50L190.04,44.41L190.29,44.03L191.59,44.16L191.60,43.66L192.91,43.78L193.20,43.38L194.50,43.51L194.50,43.01L195.81,43.14L196.10,42.73L197.40,42.86L197.41,42.36L198.72,42.49L199.01,42.09L200.31,42.22L200.31,41.72L201.62,41.84L201.91,41.44L203.22,41.57L203.22,41.07L204.54,41.25L204.75,41.03L205.32,40.99L205.84,40.86L206.11,40.48L207.45,40.51L207.09,40.24L206.82,38.52L206.47,32.82L206.65,32.61L208.16,32.26L208.47,32.71L209.95,32.71L217.35,31.09L217.60,30.94L218.83,30.94z"></path>
    <path style="fill:#e5e5e5" d="M281.80,119.23L281.62,119.85L275.83,124.10L253.42,129.06L247.39,130.53L247.20,133.24L246.33,134.29L245.65,134.36L245.13,134.40L245.02,134.88L244.43,134.96L244.33,134.33L244.60,133.85L244.46,131.17L245.33,131.04L245.57,132.27L245.54,131.16L245.33,131.04L245.48,130.83L246.89,130.63L246.90,129.89L245.89,128.59L245.24,128.23L243.57,128.31L243.20,127.94L280.71,119.58L281.05,119.21L280.87,118.85L281.45,118.77z"></path>
    <path style="fill:#e5e5e5" d="M235.35,130.11L234.77,130.23L234.26,131.00L226.95,135.00L225.89,135.26L223.07,135.84L197.86,141.48L196.92,140.83L195.53,139.56L194.12,138.93L234.16,129.88L235.26,129.92z"></path>
    <path style="fill:#e5e5e5" d="M309.45,132.81L300.64,134.71L300.03,135.07L297.64,135.52L276.01,140.36L274.08,141.08L273.21,140.83L274.08,141.08L270.64,143.15L267.81,143.22L267.86,144.38L268.18,144.72L268.48,199.61L267.87,200.04L267.58,200.82L266.68,201.47L265.03,201.76L263.75,202.09L262.13,202.41L260.85,202.74L259.23,203.06L258.24,203.01L258.47,145.13L259.72,145.08L259.36,144.74L260.09,144.06L258.27,144.39L257.39,144.36L257.98,144.93L257.87,145.16L257.72,202.98L257.93,203.14L257.92,203.33L227.03,210.24L226.41,210.59L226.18,221.03L225.56,221.39L225.22,151.81L218.24,153.28L217.77,153.56L217.70,210.37L218.82,211.24L218.79,211.97L218.38,212.25L199.83,216.30L199.72,198.94L199.58,216.29L199.57,238.59L199.67,238.83L200.34,238.65L200.32,238.32L202.07,238.32L202.45,238.20L203.25,238.00L203.22,237.68L204.98,237.68L205.34,237.55L206.82,237.35L207.47,237.70L209.44,239.96L210.22,240.34L211.57,240.32L213.15,239.30L215.23,235.89L217.78,234.77L217.75,234.45L219.64,234.49L220.69,234.12L220.65,233.80L221.94,233.98L221.95,233.48L223.70,233.48L224.08,233.35L224.88,233.16L224.85,232.84L226.61,232.84L226.98,232.71L227.78,232.52L227.75,232.19L229.51,232.19L229.89,232.06L230.69,231.87L230.66,231.54L232.42,231.54L232.79,231.42L233.60,231.22L233.57,230.90L235.32,230.90L235.70,230.77L236.50,230.58L236.47,230.25L238.36,230.29L239.41,229.93L239.38,229.61L241.27,229.65L242.31,229.28L242.28,228.96L244.17,229.00L245.22,228.64L245.19,228.32L247.08,228.35L248.13,227.99L248.09,227.67L249.98,227.71L251.03,227.34L251.00,227.02L252.29,227.20L252.29,226.70L254.05,226.70L254.42,226.57L255.22,226.38L255.20,226.06L256.95,226.06L257.33,225.93L258.13,225.74L258.10,225.41L259.86,225.41L260.23,225.28L261.04,225.09L261.01,224.76L262.76,224.77L263.14,224.64L263.94,224.45L263.91,224.12L265.67,224.12L266.04,223.99L266.85,223.80L266.82,223.47L268.71,223.51L269.76,223.15L269.72,222.83L271.61,222.87L272.66,222.50L272.63,222.18L274.52,222.22L275.57,221.86L275.53,221.54L277.42,221.58L278.47,221.21L278.44,220.89L280.33,220.93L281.38,220.57L281.34,220.25L282.63,220.42L282.64,219.92L284.39,219.92L284.77,219.80L285.57,219.60L285.54,219.28L287.30,219.28L287.67,219.15L288.48,218.96L288.45,218.63L290.20,218.63L290.58,218.50L291.38,218.31L291.35,217.99L293.11,217.99L293.48,217.86L294.29,217.67L294.26,217.34L296.01,217.34L296.39,217.21L297.19,217.02L297.16,216.69L299.05,216.73L300.10,216.37L300.07,216.05L301.96,216.09L303.01,215.72L302.97,215.40L304.86,215.44L305.91,215.08L305.88,214.76L307.77,214.80L308.82,214.43L308.79,214.11L310.68,214.15L312.11,213.83L313.37,214.45L314.93,216.49L315.61,216.78L317.15,216.75L319.17,214.90L320.48,212.66L321.71,211.51L321.70,211.21L323.45,211.21L323.83,211.08L324.63,210.89L324.60,210.56L326.35,210.58L326.71,210.46L327.55,210.32L327.18,210.05L327.13,166.04L335.30,164.16L335.51,163.98L336.42,164.37L337.23,165.08L337.28,219.77L336.97,220.18L336.62,208.33L336.39,208.28L335.10,208.54L333.88,208.65L334.95,208.74L335.10,208.54L336.33,208.52L336.47,220.50L336.47,222.13L335.97,223.63L301.97,242.57L296.67,243.66L169.48,272.07L158.95,274.52L157.60,274.49L190.98,255.87L191.35,255.27L191.60,240.53L191.27,240.58L190.99,253.99L190.40,253.83L189.84,253.51L189.57,253.43L189.40,253.19L189.20,197.92L190.23,197.33L190.97,196.46L199.45,194.65L199.72,198.46L199.74,194.47L199.52,194.42L199.23,194.23L199.09,193.51L198.89,193.38L198.15,191.83L179.34,170.24L179.35,169.70L180.48,169.42L181.12,169.16L181.07,168.99L180.47,169.17L178.10,168.96L177.65,168.27L178.29,167.64L179.40,167.34L178.34,167.09L177.83,166.53L177.45,162.47L176.38,162.48L176.26,162.68L173.79,163.49L172.18,163.45L164.81,165.17L164.73,164.81L165.37,164.40L308.74,132.46L309.80,132.44z"></path>
    <path style="fill:#e5e5e5" d="M196.94,141.64L197.57,141.80L197.33,144.00L196.64,145.38L195.39,145.64L194.53,143.46L194.49,141.49L195.74,141.14L196.21,140.83z"></path>
    <path style="fill:#e5e5e5" d="M193.29,142.40L193.18,145.74L192.39,146.64L191.76,146.53L192.31,144.43L192.31,142.92L192.99,142.12z"></path>
    <path style="fill:#e5e5e5" d="M181.86,142.52L181.36,142.84L176.39,146.37L174.00,146.81L169.14,147.90L168.30,147.94L168.35,148.26L168.79,148.50L170.39,150.22L170.38,150.65L169.84,151.34L169.51,151.70L166.90,152.30L156.61,154.58L155.90,154.37L150.33,152.82L150.13,152.62L149.99,152.15L149.45,152.30L146.56,153.08L146.27,153.11L143.65,153.59L132.00,156.20L131.44,156.03L137.30,151.83L140.22,150.87L182.92,141.47z"></path>
    <path style="fill:#e5e5e5" d="M336.63,162.49L336.34,163.64L335.46,163.78L335.09,163.74L333.94,163.80L333.80,164.00L330.90,164.64L329.61,164.97L327.99,165.28L326.66,165.59L326.13,165.62L326.50,164.77L335.34,162.71L335.68,162.90L335.50,162.06L335.80,161.48L335.98,161.49z"></path>
    <path style="fill:#e5e5e5" d="M188.84,195.36L187.96,195.42L188.85,195.55L189.56,195.96L189.55,196.92L189.20,197.92L186.48,197.69L185.38,197.35L186.99,195.38L187.97,194.76L189.40,194.75z"></path>
    <path style="fill:#e5e5e5" d="M198.88,193.66L197.89,194.34L196.61,194.67L194.98,194.98L193.70,195.32L192.08,195.63L190.79,195.97L189.82,195.85L190.21,195.06L198.89,193.38z"></path>
    <path style="fill:#e5e5e5" d="M186.24,253.03L185.38,252.87L186.24,252.84z"></path>
    <path style="fill:#ffffff" d="M218.47,33.33L218.46,35.10L218.00,35.64L217.05,35.60L216.29,36.08L215.44,35.93L215.33,36.12L214.56,36.26L213.38,36.72L212.57,36.60L212.48,36.82L211.66,36.92L211.24,36.88L210.46,37.39L209.57,37.14L209.07,35.96L208.94,34.66L209.49,34.45L218.10,32.70z"></path>
    <path style="fill:#ffffff" d="M103.43,58.18L109.68,56.79L109.83,59.76L109.63,59.95L108.57,59.81L108.22,60.14L107.30,60.13L106.93,60.46L105.66,60.46L105.32,60.78L104.81,60.85L103.79,60.20z"></path>
    <path style="fill:#ffffff" d="M335.51,163.98L335.30,164.16L327.13,166.04L327.18,210.05L327.55,210.32L326.71,210.46L326.60,210.28L326.55,165.79L326.66,165.59L327.99,165.28L329.61,164.97L330.90,164.64L333.80,164.00L335.09,163.74L335.46,163.78z"></path>
    <path style="fill:#00001c" d="M219.61,32.29L219.44,33.25L219.27,33.24L219.27,31.96L219.47,31.95z"></path>
    <path style="fill:#00001c" d="M114.02,57.82L113.86,58.02L113.88,57.16z"></path>
    <path style="fill:#00001c" d="M245.57,132.27L245.33,131.04L245.54,131.16z"></path>
    <path style="fill:#00001c" d="M257.39,144.36L258.27,144.39L257.98,144.93z"></path>
    <path style="fill:#00001c" d="M191.54,146.68L191.76,146.53L192.39,146.64z"></path>
    <path style="fill:#00001c" d="M149.45,152.30L149.99,152.15L150.13,152.62z"></path>
    <path style="fill:#00001c" d="M156.61,154.58L156.36,154.75L155.71,154.74L155.90,154.37z"></path>
    <path style="fill:#00001c" d="M154.06,159.18L153.87,159.73L153.89,158.49z"></path>
    <path style="fill:#00001c" d="M215.86,161.26L216.21,161.22L216.21,161.92L215.86,161.89z"></path>
    <path style="fill:#00001c" d="M176.26,162.68L176.38,162.48L177.45,162.47L177.83,166.53L177.58,166.64L177.32,166.57L177.13,162.80z"></path>
    <path style="fill:#00001c" d="M335.68,162.90L335.34,162.71L335.50,162.06z"></path>
    <path style="fill:#00001c" d="M212.96,166.15L212.53,166.15L212.53,165.72L212.96,165.72z"></path>
    <path style="fill:#00001c" d="M181.12,169.16L180.48,169.42L180.47,169.17L181.07,168.99z"></path>
    <path style="fill:#00001c" d="M199.23,194.23L197.89,194.34L198.88,193.66L198.89,193.38L199.09,193.51z"></path>
    <path style="fill:#00001c" d="M188.85,195.55L187.96,195.42L188.84,195.36z"></path>
    <path style="fill:#00001c" d="M189.55,196.92L189.56,195.96L189.82,195.85L190.79,195.97z"></path>
    <path style="fill:#00001c" d="M199.72,198.46L199.45,194.65L199.52,194.42L199.74,194.47z"></path>
    <path style="fill:#00001c" d="M257.92,203.33L257.93,203.14L258.24,203.01L259.23,203.06z"></path>
    <path style="fill:#00001c" d="M215.86,206.13L216.21,206.10L216.21,206.80L215.86,206.76z"></path>
    <path style="fill:#00001c" d="M212.52,210.59L213.95,210.58L213.19,210.96L212.59,210.90z"></path>
    <path style="fill:#00001c" d="M199.83,216.30L199.58,216.29L199.72,198.94z"></path>
    <path style="fill:#00001c" d="M336.97,220.18L336.70,220.56L336.47,220.50L336.33,208.52L336.39,208.28L336.62,208.33z"></path>
    <path style="fill:#00001c" d="M325.62,227.51L325.40,222.10L325.62,222.21z"></path>
    <path style="fill:#00001c" d="M211.68,252.17L211.52,247.28L211.67,247.38z"></path>
    <path style="fill:#000020" d="M220.83,29.28L220.12,29.42L219.97,29.13z"></path>
    <path style="fill:#000020" d="M218.83,30.94L217.60,30.94L218.82,30.49z"></path>
    <path style="fill:#000020" d="M219.47,31.95L219.27,31.96L219.16,31.28L219.44,31.10z"></path>
    <path style="fill:#000020" d="M208.16,32.26L206.65,32.61L207.00,32.03L208.10,32.07z"></path>
    <path style="fill:#000020" d="M222.03,34.23L221.85,31.63L221.99,31.75z"></path>
    <path style="fill:#000020" d="M216.29,36.08L215.33,36.12L215.44,35.93z"></path>
    <path style="fill:#000020" d="M213.38,36.72L212.48,36.82L212.57,36.60z"></path>
    <path style="fill:#000020" d="M210.46,37.39L209.63,37.34L209.57,37.14z"></path>
    <path style="fill:#000020" d="M205.32,40.99L204.75,41.03L204.87,39.80z"></path>
    <path style="fill:#000020" d="M235.27,41.33L235.09,38.73L235.22,38.85z"></path>
    <path style="fill:#000020" d="M189.53,44.50L188.84,44.63L188.66,44.30z"></path>
    <path style="fill:#000020" d="M186.62,45.14L185.93,45.27L185.76,44.94z"></path>
    <path style="fill:#000020" d="M183.72,45.79L183.02,45.92L182.85,45.59z"></path>
    <path style="fill:#000020" d="M180.81,46.43L180.12,46.56L179.95,46.23z"></path>
    <path style="fill:#000020" d="M235.59,46.82L235.41,44.22L235.54,44.34z"></path>
    <path style="fill:#000020" d="M177.91,47.08L177.21,47.21L177.04,46.88z"></path>
    <path style="fill:#000020" d="M159.18,51.28L158.49,51.41L158.32,51.08z"></path>
    <path style="fill:#000020" d="M156.28,51.92L155.58,52.05L155.41,51.72z"></path>
    <path style="fill:#000020" d="M235.91,52.31L235.74,49.38L235.87,49.50z"></path>
    <path style="fill:#000020" d="M153.37,52.57L152.68,52.70L152.51,52.37z"></path>
    <path style="fill:#000020" d="M115.60,52.84L114.27,52.94L114.39,52.72z"></path>
    <path style="fill:#000020" d="M150.47,53.21L149.77,53.34L149.60,53.01z"></path>
    <path style="fill:#000020" d="M113.73,53.31L114.27,52.94L114.22,54.56z"></path>
    <path style="fill:#000020" d="M147.56,53.86L146.87,53.99L146.70,53.66z"></path>
    <path style="fill:#000020" d="M113.31,54.49L112.33,54.48L113.19,54.32z"></path>
    <path style="fill:#000020" d="M116.46,54.89L116.24,53.00L116.43,53.05z"></path>
    <path style="fill:#000020" d="M102.62,55.77L101.37,56.11L101.46,55.65L102.68,55.51z"></path>
    <path style="fill:#000020" d="M236.24,57.47L236.06,54.87L236.19,54.99z"></path>
    <path style="fill:#000020" d="M128.84,58.06L128.14,58.18L127.97,57.86z"></path>
    <path style="fill:#000020" d="M98.41,58.02L97.88,58.32L97.94,57.55L98.35,57.53z"></path>
    <path style="fill:#000020" d="M125.93,58.70L125.24,58.83L125.07,58.50z"></path>
    <path style="fill:#000020" d="M123.03,59.35L122.33,59.48L122.16,59.15z"></path>
    <path style="fill:#000020" d="M110.22,56.94L110.22,59.29L110.71,59.67L109.83,59.76L109.68,56.79L109.87,56.58L110.71,56.54z"></path>
    <path style="fill:#000020" d="M208.27,59.72L207.64,60.05L207.97,59.48z"></path>
    <path style="fill:#000020" d="M120.12,59.99L119.43,60.12L119.25,59.79z"></path>
    <path style="fill:#000020" d="M116.84,60.34L116.66,60.26L116.61,57.78L116.74,57.90z"></path>
    <path style="fill:#000020" d="M236.56,62.96L236.38,60.36L236.51,60.48z"></path>
    <path style="fill:#000020" d="M99.78,64.48L99.19,64.60L99.50,63.99z"></path>
    <path style="fill:#000020" d="M98.48,64.83L97.80,64.96L97.63,64.63z"></path>
    <path style="fill:#000020" d="M95.59,65.48L94.89,65.61L94.72,65.28z"></path>
    <path style="fill:#000020" d="M92.68,66.13L91.99,66.24L91.81,65.93z"></path>
    <path style="fill:#000020" d="M236.88,68.45L236.70,65.52L236.84,65.64z"></path>
    <path style="fill:#000020" d="M237.20,73.61L237.03,71.01L237.16,71.13z"></path>
    <path style="fill:#000020" d="M237.53,79.10L237.35,76.50L237.48,76.62z"></path>
    <path style="fill:#000020" d="M118.41,80.67L118.07,81.29L117.90,80.54L118.09,80.37z"></path>
    <path style="fill:#000020" d="M102.06,83.60L102.14,83.36L102.88,83.39L102.97,83.89z"></path>
    <path style="fill:#000020" d="M237.85,84.59L237.67,81.67L237.80,81.78z"></path>
    <path style="fill:#000020" d="M281.45,118.77L280.87,118.85L280.65,118.54L281.35,118.57z"></path>
    <path style="fill:#000020" d="M242.71,127.61L241.64,127.61L241.58,127.27L242.37,127.27z"></path>
    <path style="fill:#000020" d="M239.80,128.26L239.07,128.31L238.68,127.91L239.46,127.92z"></path>
    <path style="fill:#000020" d="M246.45,134.49L246.33,134.29L247.19,134.41z"></path>
    <path style="fill:#000020" d="M245.56,134.83L245.02,134.88L245.13,134.40L245.65,134.36z"></path>
    <path style="fill:#000020" d="M244.43,134.96L244.21,135.18L243.83,135.07L244.33,134.33z"></path>
    <path style="fill:#000020" d="M235.22,135.49L235.09,135.10L235.97,134.92z"></path>
    <path style="fill:#000020" d="M226.43,135.43L225.89,135.26L226.95,135.00z"></path>
    <path style="fill:#000020" d="M236.38,136.76L236.37,136.38L237.61,136.17L238.28,136.19L238.45,136.36z"></path>
    <path style="fill:#000020" d="M189.10,139.56L188.40,139.56L188.32,139.21L188.75,139.21z"></path>
    <path style="fill:#000020" d="M197.86,141.48L197.57,141.80L196.94,141.64L196.92,140.83z"></path>
    <path style="fill:#000020" d="M196.51,145.80L195.30,145.92L195.39,145.64L196.64,145.38z"></path>
    <path style="fill:#000020" d="M195.15,146.13L194.43,146.04L195.30,145.92z"></path>
    <path style="fill:#000020" d="M189.39,147.44L188.45,147.19L188.62,146.99L189.53,146.97z"></path>
    <path style="fill:#000020" d="M187.77,147.77L187.17,147.55L187.24,147.21L187.90,147.30z"></path>
    <path style="fill:#000020" d="M168.30,147.94L169.14,147.90L168.79,148.50L168.35,148.26z"></path>
    <path style="fill:#000020" d="M169.51,151.70L169.84,151.34L170.34,151.52z"></path>
    <path style="fill:#000020" d="M146.76,159.63L146.40,159.72L146.27,153.11L146.56,153.08z"></path>
    <path style="fill:#000020" d="M336.61,164.10L336.42,164.37L335.51,163.98L335.46,163.78L336.34,163.64z"></path>
    <path style="fill:#000020" d="M333.80,164.00L333.94,163.80L335.09,163.74z"></path>
    <path style="fill:#000020" d="M177.47,167.79L177.18,167.58L177.32,166.57L177.58,166.64z"></path>
    <path style="fill:#000020" d="M121.28,174.73L120.87,174.84L120.97,174.43z"></path>
    <path style="fill:#000020" d="M267.54,201.33L266.68,201.47L267.58,200.82z"></path>
    <path style="fill:#000020" d="M323.83,211.08L323.45,211.21L322.93,210.88z"></path>
    <path style="fill:#000020" d="M296.39,217.21L296.01,217.34L295.49,217.02z"></path>
    <path style="fill:#000020" d="M293.48,217.86L293.11,217.99L292.59,217.66z"></path>
    <path style="fill:#000020" d="M290.58,218.50L290.20,218.63L289.68,218.31z"></path>
    <path style="fill:#000020" d="M287.67,219.15L287.30,219.28L286.78,218.95z"></path>
    <path style="fill:#000020" d="M284.77,219.80L284.39,219.92L283.87,219.60z"></path>
    <path style="fill:#000020" d="M336.47,222.13L336.47,220.50L336.70,220.56z"></path>
    <path style="fill:#000020" d="M266.04,223.99L265.67,224.12L265.15,223.80z"></path>
    <path style="fill:#000020" d="M263.14,224.64L262.76,224.77L262.24,224.44z"></path>
    <path style="fill:#000020" d="M260.23,225.28L259.86,225.41L259.34,225.09z"></path>
    <path style="fill:#000020" d="M257.33,225.93L256.95,226.06L256.43,225.73z"></path>
    <path style="fill:#000020" d="M254.42,226.57L254.05,226.70L253.53,226.38z"></path>
    <path style="fill:#000020" d="M235.70,230.77L235.32,230.90L234.80,230.58z"></path>
    <path style="fill:#000020" d="M232.79,231.42L232.42,231.54L231.90,231.22z"></path>
    <path style="fill:#000020" d="M229.89,232.06L229.51,232.19L228.99,231.87z"></path>
    <path style="fill:#000020" d="M226.98,232.71L226.61,232.84L226.09,232.51z"></path>
    <path style="fill:#000020" d="M224.08,233.35L223.70,233.48L223.18,233.16z"></path>
    <path style="fill:#000020" d="M205.34,237.55L204.98,237.68L204.46,237.35z"></path>
    <path style="fill:#000020" d="M202.45,238.20L202.07,238.32L201.55,238.00z"></path>
    <path style="fill:#000020" d="M199.57,238.59L199.58,216.29L199.83,216.30z"></path>
    <path style="fill:#000020" d="M186.24,253.03L186.24,252.84L188.13,252.88z"></path>
    <path style="fill:#000020" d="M189.67,254.29L189.28,254.21L189.57,253.43L189.84,253.51z"></path>
    <path style="fill:#e5e5e5" d="M202.61,108.71L202.62,108.04L203.26,107.88z"></path>
    <path style="fill:#e5e5e5" d="M150.35,120.31L150.24,119.90L150.61,119.84z"></path>
    <path style="fill:#e5e5e5" d="M305.31,126.01L304.28,126.01L304.30,125.45L304.65,125.35z"></path>
    <path style="fill:#e5e5e5" d="M307.57,128.60L306.57,128.60L306.14,127.88L306.59,127.61z"></path>
    <path style="fill:#e5e5e5" d="M309.51,130.86L308.48,130.86L308.50,130.30L308.85,130.19z"></path>
    <path style="fill:#e5e5e5" d="M243.21,131.46L243.59,131.45L243.63,132.92L243.25,132.15z"></path>
    <path style="fill:#e5e5e5" d="M241.63,131.75L241.95,131.80L242.36,132.44L242.34,133.87L241.58,135.70L239.03,136.10L238.75,135.73L238.28,136.19L237.61,136.17L238.47,134.52L238.70,132.41L239.08,132.41L239.40,134.19L240.27,133.08L241.39,133.11L241.40,133.85L241.00,134.84L241.05,135.51L241.69,134.19z"></path>
    <path style="fill:#e5e5e5" d="M236.11,133.08L237.53,132.80L237.51,134.21L237.06,134.73L235.97,134.92L236.17,133.41z"></path>
    <path style="fill:#e5e5e5" d="M184.42,141.21L185.06,140.84L187.12,140.50L186.90,141.01L185.04,141.83L184.53,141.84z"></path>
    <path style="fill:#e5e5e5" d="M187.15,143.90L186.41,144.78L185.42,144.87L185.42,143.11L186.20,142.80z"></path>
    <path style="fill:#e5e5e5" d="M188.31,143.79L191.00,143.09L191.02,145.50L190.56,146.33L189.53,146.97L188.62,146.99L188.45,147.19L187.90,147.30L187.24,147.21L188.45,145.49z"></path>
    <path style="fill:#e5e5e5" d="M323.37,146.97L322.95,147.08L323.06,146.66z"></path>
    <path style="fill:#e5e5e5" d="M187.17,147.55L186.03,147.32L187.24,147.21z"></path>
    <path style="fill:#e5e5e5" d="M325.63,149.55L325.21,149.66L325.32,149.25z"></path>
    <path style="fill:#e5e5e5" d="M156.15,157.45L154.06,159.18L153.89,158.49L154.40,157.63L155.89,157.00z"></path>
    <path style="fill:#e5e5e5" d="M176.06,166.36L176.26,162.68L177.13,162.80L177.32,166.57L177.18,167.58z"></path>
    <path style="fill:#e5e5e5" d="M187.43,255.49L190.06,255.57L163.10,270.60L156.68,273.90L155.09,273.51L155.11,273.20L154.20,273.25L152.57,272.24L152.55,271.72L153.24,270.64L154.22,272.27L155.03,272.25L186.52,254.82z"></path>
    <path style="fill:#ffffff" d="M219.41,34.78L219.27,33.24L219.44,33.25z"></path>
    <path style="fill:#ffffff" d="M216.24,43.35L216.23,44.12L215.84,44.78L214.91,44.66L214.51,43.45L214.79,43.05L215.89,43.00z"></path>
    <path style="fill:#ffffff" d="M225.26,56.92L224.79,58.22L223.83,58.25L224.63,57.67L224.61,56.95L223.96,57.34L223.60,57.34L223.55,56.71L223.84,56.27L224.89,56.27z"></path>
    <path style="fill:#ffffff" d="M112.77,59.22L111.48,59.16L110.71,59.67L110.22,59.29L110.22,56.94L110.71,56.54L112.87,56.25z"></path>
    <path style="fill:#ffffff" d="M209.09,60.18L209.13,60.89L208.62,61.78L207.99,61.79L208.47,61.22L208.45,60.46L208.03,60.43L207.45,60.92L207.43,60.30L207.64,60.05L208.27,59.72z"></path>
    <path style="fill:#ffffff" d="M110.61,66.59L110.52,68.25L109.32,68.25L109.34,66.69z"></path>
    <path style="fill:#ffffff" d="M119.65,79.83L119.68,81.27L119.20,81.80L118.58,81.80L119.04,81.24L119.06,80.77L118.76,80.48L118.41,80.67L118.09,80.37L118.71,79.87z"></path>
    <path style="fill:#ffffff" d="M102.97,83.89L102.77,84.41L102.11,84.50L102.06,83.60z"></path>
    <path style="fill:#ffffff" d="M103.54,84.86L103.20,85.16L103.15,84.47L103.53,83.71z"></path>
    <path style="fill:#ffffff" d="M259.36,144.74L259.72,145.08L258.47,145.13L258.24,203.01L257.93,203.14L257.72,202.98L257.87,145.16L257.98,144.93L258.27,144.39L260.09,144.06z"></path>
    <path style="fill:#ffffff" d="M214.29,159.56L212.84,160.22L211.89,161.52L211.32,164.59L210.96,164.55L210.67,163.78L210.35,164.53L209.37,164.48L208.98,164.20L209.06,160.63L210.59,158.93L211.22,158.60L212.65,158.60z"></path>
    <path style="fill:#ffffff" d="M214.93,161.48L214.48,161.83L213.88,162.92L213.90,163.80L213.29,163.83L212.53,163.56L212.63,161.63L213.15,161.18L214.64,161.19z"></path>
    <path style="fill:#ffffff" d="M199.45,194.65L190.97,196.46L190.23,197.33L189.20,197.92L189.55,196.92L190.79,195.97L192.08,195.63L193.70,195.32L194.98,194.98L196.61,194.67L197.89,194.34L199.23,194.23L199.52,194.42z"></path>
    <path style="fill:#ffffff" d="M213.97,204.18L213.95,204.52L212.97,204.90L211.89,206.40L211.32,209.47L210.96,209.43L210.67,208.65L210.35,209.40L209.37,209.35L208.98,209.08L209.09,205.21L211.33,203.23L211.69,203.18z"></path>
    <path style="fill:#ffffff" d="M213.89,207.78L213.93,208.76L212.53,208.43L212.63,206.50L213.15,206.05L214.90,206.05z"></path>
    <path style="fill:#ffffff" d="M336.33,208.52L335.10,208.54L336.39,208.28z"></path>
    <path style="fill:#ffffff" d="M334.95,208.74L333.88,208.65L335.10,208.54z"></path>
    <path style="fill:#ffffff" d="M332.19,209.19L332.33,208.99L333.39,208.97z"></path>
    <path style="fill:#ffffff" d="M332.04,209.39L330.98,209.30L332.19,209.19z"></path>
    <path style="fill:#ffffff" d="M329.28,209.84L329.43,209.64L330.48,209.62z"></path>
    <path style="fill:#ffffff" d="M329.14,210.03L328.07,209.94L329.28,209.84z"></path>
    <path style="fill:#ffffff" d="M324.38,220.55L325.40,222.10L321.32,222.86L317.80,223.80L317.87,229.13L317.24,229.03L316.95,223.46L314.65,222.54L312.92,221.99L312.90,220.92L314.52,220.57L314.86,220.27L320.77,219.28z"></path>
    <path style="fill:#ffffff" d="M218.78,243.83L219.78,244.82L219.76,245.55L212.62,247.16L212.29,252.72L211.92,252.73L211.68,252.17L211.67,247.38L211.52,247.28L210.38,246.42L207.68,245.56L207.67,244.49L208.95,244.14L209.29,243.83L214.48,242.87L215.54,242.86z"></path>
    <g id="Actor_.0">
      <g style="stroke:#000000;stroke-width:0.176">
        <path d="M274.46,221.96L258.38,203.42"></path>
        <path d="M258.28,203.13L258.28,145.46L267.35,143.43"></path>
        <path d="M258.28,145.46L257.52,145.23"></path>
        <path d="M261.40,143.56L258.38,145.23L266.96,143.31"></path>
        <path d="M258.38,145.23L258.32,145.05"></path>
        <path d="M270.87,144.65L270.86,144.82L270.82,144.91L270.78,144.95L270.70,144.99L270.62,144.99L270.16,144.88L269.43,144.80L268.65,144.77L268.23,144.68L267.91,144.51L267.75,144.34"></path>
        <path d="M285.33,219.53L269.79,201.61"></path>
        <path d="M269.04,199.47L269.04,144.79"></path>
        <path d="M274.05,140.73L269.79,143.09"></path>
        <path d="M300.61,134.80L326.53,164.69L326.15,165.55L299.67,135.01"></path>
        <path d="M327.01,210.22L327.01,166.07L326.25,165.84L326.25,210.39"></path>
        <path d="M326.53,164.69L335.61,162.66L335.48,162.24L335.50,162.01L335.56,161.92L335.65,161.79L335.87,161.73L336.12,161.85"></path>
        <path d="M326.25,165.84L335.24,163.83L335.36,163.82L335.49,163.40L335.47,162.97L335.61,162.66"></path>
        <path d="M326.15,165.55L335.23,163.52L335.47,162.97"></path>
        <path d="M327.01,166.07L336.23,164.01"></path>
        <path d="M337.27,164.76L337.23,165.02L337.05,165.10L336.79,165.05L336.50,164.83L336.25,164.50L336.09,164.04L335.36,163.82"></path>
        <path d="M335.78,161.75L335.50,162.10"></path>
        <path d="M337.25,219.60L337.25,164.92"></path>
      </g>
      <g style="stroke:#000000;stroke-width:0.529">
        <path d="M273.52,222.17L258.00,204.27L258.38,203.42L267.45,201.39L268.13,201.84L268.67,202.00L269.07,201.99L269.47,201.85L269.59,201.78L270.09,201.35L270.58,200.76L270.84,200.29L270.87,200.20L270.86,199.98L270.77,199.78L270.70,199.71L270.62,199.67L270.16,199.56L269.43,199.48L268.78,199.46L268.28,199.57L267.96,199.79L267.62,200.22L267.42,200.76L267.35,201.10L258.28,203.13L257.52,202.90L257.52,145.23L258.32,145.05L258.06,144.30"></path>
        <path d="M268.32,144.44L268.08,144.42L267.75,144.34L267.59,144.15L267.35,143.43L266.96,143.31L267.45,143.20L267.71,143.08L268.20,142.90L268.74,142.79L269.12,142.80L269.59,142.94L270.09,143.32L270.58,143.93L270.84,144.49L270.87,144.65L269.72,144.51L268.73,144.48L268.32,144.44"></path>
        <path d="M336.42,220.84L336.50,220.70L336.79,220.27L337.23,219.70L337.27,219.44L337.27,164.76L336.95,164.46L336.37,164.22L336.25,164.06L336.21,163.96L336.20,163.73L336.43,162.98L336.40,162.27L336.12,161.85L304.09,124.90L303.74,124.68L302.94,124.32"></path>
      </g>
    </g>
    <g id="Actor_.1">
      <g style="stroke:#000000;stroke-width:0.176">
        <path d="M121.92,174.34L155.38,155.79L155.74,155.68L156.13,155.72L156.53,155.91L156.89,156.25L164.64,165.17L164.89,164.60L309.80,132.23"></path>
        <path d="M156.13,274.07L156.53,274.12L156.89,274.00L157.19,273.84L156.13,274.07L155.74,273.88L155.52,273.68"></path>
        <path d="M164.89,164.60L157.15,155.67L156.66,155.23L156.13,154.97L155.61,154.92"></path>
        <path d="M156.13,154.97L301.05,122.60"></path>
        <path d="M156.66,274.88L157.15,274.72L190.50,256.26L190.92,255.91L191.24,255.38L211.76,250.80"></path>
        <path d="M157.19,273.84L190.25,255.53L190.56,255.27L190.80,254.88L190.96,254.38L191.01,253.82L191.01,240.60L191.51,240.75L191.51,253.97L191.44,254.72L191.24,255.38"></path>
        <path d="M164.64,165.17L169.10,164.18"></path>
        <path d="M217.85,153.29L169.46,164.10"></path>
        <path d="M177.29,162.44L217.78,153.39"></path>
        <path d="M191.51,240.75L205.87,237.55L206.64,237.51L206.14,237.36L205.36,237.40L191.05,240.62"></path>
        <path d="M199.66,216.62L219.14,212.27"></path>
        <path d="M206.64,237.51L207.36,237.74L207.98,238.22L209.04,239.80L209.84,240.34L210.78,240.51L211.76,240.29L212.70,239.70L213.51,238.80L214.57,236.75L215.18,235.99L214.68,235.84L214.06,236.60L213.00,238.65L212.20,239.55L211.28,240.13L210.28,240.36L209.72,240.26"></path>
        <path d="M208.93,244.27L208.93,243.96L213.62,242.91L213.62,243.16"></path>
        <path d="M211.27,240.40L210.77,240.25"></path>
        <path d="M214.68,235.84L215.40,235.29L216.17,234.98L282.14,220.24"></path>
        <path d="M215.18,235.99L215.90,235.44L216.68,235.13L311.26,214.00L312.03,213.96"></path>
        <path d="M217.58,154.62L217.58,154.89L217.72,154.85"></path>
        <path d="M266.44,142.43L218.20,153.21"></path>
        <path d="M317.15,227.25L220.13,248.93"></path>
        <path d="M226.18,210.69L258.34,203.51"></path>
        <path d="M226.18,151.52L258.08,144.39"></path>
        <path d="M320.07,212.30L320.57,212.45L319.96,213.21L318.90,215.25L318.10,216.16L317.16,216.75L316.17,216.97L315.23,216.80L315.11,216.71"></path>
        <path d="M316.16,216.71L316.66,216.86"></path>
        <path d="M318.50,219.48L319.01,219.37L319.01,219.62"></path>
        <path d="M320.57,212.45L321.29,211.89L322.07,211.59L336.42,208.38"></path>
        <path d="M325.52,225.38L336.15,223.01"></path>
      </g>
      <g style="stroke:#000000;stroke-width:0.529">
        <path d="M120.79,233.18L120.83,233.55L120.92,233.90"></path>
        <path d="M120.76,176.58L120.76,175.82L120.83,175.07L121.03,174.41L121.35,173.88L121.77,173.54L155.12,155.07L155.61,154.92L300.52,122.54L301.05,122.60L301.58,122.86L302.06,123.30L309.80,132.23L309.55,132.80L266.44,142.43"></path>
        <path d="M282.14,220.24L310.75,213.85L311.53,213.81L312.76,214.19L313.37,214.68L314.43,216.25L315.11,216.71L315.67,216.82L316.65,216.60L317.59,216.00L318.40,215.10L319.45,213.06L320.07,212.30L320.79,211.74L321.56,211.44L335.92,208.23L336.42,208.38L336.42,221.60L336.36,222.35L336.15,223.01L335.83,223.53L335.41,223.88L302.06,242.35L301.58,242.50L300.00,242.85L156.66,274.88L156.13,274.82L155.61,274.56L155.12,274.12L154.24,273.10"></path>
        <path d="M169.10,164.18L169.46,164.10"></path>
        <path d="M217.72,154.59L217.58,154.62L217.63,153.89L217.85,153.29"></path>
        <path d="M218.20,153.21L217.85,153.29"></path>
        <path d="M266.36,201.64L266.28,201.34"></path>
        <path d="M314.32,220.73L314.32,220.42L318.50,219.48"></path>
      </g>
    </g>
    <g id="Actor_.2">
      <g style="stroke:#000000;stroke-width:0.176"></g>
      <g style="stroke:#000000;stroke-width:0.529">
        <path d="M148.06,158.98L148.09,158.92L148.89,158.23L149.76,158.04"></path>
      </g>
    </g>
    <g id="Actor_.3">
      <g style="stroke:#000000;stroke-width:0.176">
        <path d="M225.31,221.39L225.31,151.62"></path>
        <path d="M239.25,128.47L240.04,128.65L240.81,129.18L241.47,130.02L241.93,130.99"></path>
        <path d="M241.30,128.72L240.42,128.92"></path>
        <path d="M241.93,131.00L243.44,135.29"></path>
      </g>
      <g style="stroke:#000000;stroke-width:0.529">
        <path d="M217.72,153.58L217.72,210.41L218.17,210.64L218.58,211.06L218.91,211.61L219.14,212.26L219.24,212.94L219.20,213.59L219.04,214.17L225.31,221.39L226.18,221.20L226.18,151.42"></path>
        <path d="M234.89,130.68L220.25,138.78L219.20,139.66L218.45,140.88"></path>
        <path d="M244.32,135.10L242.84,130.88L242.35,129.82L241.68,128.99L240.92,128.46L240.13,128.28L239.25,128.47L238.51,128.67L237.33,129.33"></path>
      </g>
    </g>
    <g id="Actor_.4">
      <g style="stroke:#000000;stroke-width:0.176">
        <path d="M318.52,229.73L318.27,229.62L318.08,229.42L317.95,229.13L317.91,228.80L317.91,224.69L317.84,223.97L317.62,223.28L317.29,222.69L316.86,222.24L316.40,221.99L312.86,220.93"></path>
        <path d="M313.46,220.80L313.88,220.70L313.97,220.72L314.09,220.73L314.21,220.74L314.33,220.73L314.43,220.71L314.51,220.69L314.55,220.66L314.56,220.63L314.53,220.60L314.47,220.57L314.32,220.53"></path>
        <path d="M318.18,229.52L317.42,229.29"></path>
        <path d="M317.45,222.98L325.07,221.28"></path>
        <path d="M319.44,219.46L319.51,219.48L319.54,219.52L319.53,219.55L319.48,219.58L319.44,219.59"></path>
      </g>
      <g style="stroke:#000000;stroke-width:0.529">
        <path d="M318.50,219.48L318.86,219.59L318.95,219.61L319.06,219.62L319.18,219.62L319.30,219.62L319.40,219.60L319.44,219.59L319.44,219.46L320.47,219.23L324.01,220.29L324.48,220.54L324.90,220.99L325.23,221.58L325.45,222.27L325.52,222.99L325.52,227.10L325.48,227.45L325.36,227.79L325.16,228.08L324.92,228.30L324.64,228.41L318.79,229.72L318.52,229.73L317.76,229.50L317.52,229.39L317.32,229.19L317.20,228.91L317.15,228.57L317.15,224.46L317.12,224.10L317.01,223.76L316.84,223.46L316.63,223.24L316.40,223.11L312.86,222.05L312.86,220.93L313.46,220.80"></path>
      </g>
    </g>
    <g id="Actor_.5">
      <g style="stroke:#000000;stroke-width:0.176">
        <path d="M193.77,141.41L193.82,141.50L193.85,141.58"></path>
      </g>
      <g style="stroke:#000000;stroke-width:0.529">
        <path d="M194.87,144.42L194.94,143.82L194.81,142.57L194.41,141.37L193.80,140.35L193.04,139.63L192.21,139.28L191.74,139.31"></path>
      </g>
    </g>
    <g id="Actor_.6">
      <g style="stroke:#000000;stroke-width:0.176">
        <path d="M184.53,142.79L184.87,142.12L185.37,141.70L185.96,141.58L186.27,141.63L186.58,141.77L187.17,142.24L187.66,142.96L188.00,143.83L188.16,144.77L188.10,145.67L187.85,146.44L187.43,147.00L186.88,147.27L186.27,147.24L185.65,146.90L185.10,146.30"></path>
        <path d="M185.56,145.34L186.27,146.16L187.28,145.60L187.28,143.88L186.51,142.99L185.26,143.27L185.26,145.00L185.56,145.34"></path>
        <path d="M185.26,145.00L186.87,144.64L187.28,145.11"></path>
        <path d="M185.26,143.27L186.27,142.71L186.51,142.99"></path>
        <path d="M187.07,147.43L187.66,147.13L188.11,146.55L188.24,146.14L188.37,145.72L188.43,144.76L188.26,143.76L187.90,142.83L187.38,142.06L186.75,141.56L186.41,141.41L186.08,141.36L185.45,141.49"></path>
        <path d="M186.87,144.64L186.87,143.40"></path>
        <path d="M191.14,145.01L191.21,144.63L191.15,143.64L190.89,142.65L190.47,141.86"></path>
      </g>
      <g style="stroke:#000000;stroke-width:0.529">
        <path d="M191.14,145.01L191.05,145.54L190.68,146.25L190.16,146.70L187.07,147.43L186.41,147.39L185.76,147.03L185.17,146.39L185.10,146.30L184.68,145.49L184.43,144.57L184.38,143.64L184.53,142.79L184.56,142.65L184.93,141.93L185.45,141.49L188.54,140.76L189.19,140.79L189.85,141.15L190.44,141.80L190.47,141.86"></path>
        <path d="M196.66,140.65L196.69,140.66L197.02,140.92L197.29,141.32L197.48,141.81L197.57,142.33L197.54,142.84L197.40,143.27L197.28,143.42"></path>
      </g>
    </g>
    <g id="Actor_.7">
      <g style="stroke:#000000;stroke-width:0.176">
        <path d="M234.81,131.93L235.16,131.95L235.50,132.14L235.81,132.47L236.04,132.92L236.18,133.44L236.21,133.96L236.13,134.43L235.94,134.81L235.66,135.04"></path>
        <path d="M247.11,133.01L247.27,132.11L247.22,131.11L246.95,130.13L246.50,129.27"></path>
      </g>
      <g style="stroke:#000000;stroke-width:0.529">
        <path d="M237.12,134.71L235.66,135.04L235.33,135.11L234.98,135.00L234.65,134.74L234.38,134.34L234.19,133.85L234.10,133.33L234.13,132.82L234.27,132.39L234.51,132.08L234.81,131.93L236.28,131.60"></path>
        <path d="M245.20,134.41L246.22,134.17L246.74,133.73L247.11,133.01L247.14,132.87L247.29,132.02L247.24,131.09L246.99,130.17L246.57,129.36L246.50,129.27L245.91,128.63L245.26,128.27L244.60,128.23L243.83,128.42"></path>
      </g>
    </g>
    <g id="Actor_.8">
      <g style="stroke:#000000;stroke-width:0.176">
        <path d="M202.31,108.38L202.41,108.08L200.12,105.82"></path>
        <path d="M200.08,105.95L200.01,106.13"></path>
        <path d="M202.41,108.08L203.29,107.88"></path>
        <path d="M233.63,131.13L233.69,131.23L233.76,131.31"></path>
        <path d="M234.08,131.13L234.09,131.06L234.08,130.94L234.04,130.82L234.36,130.58"></path>
        <path d="M235.70,129.60L235.83,129.83"></path>
        <path d="M241.27,127.98L242.05,128.04L242.83,128.48L243.53,129.23L244.08,130.24L244.22,130.59L244.57,131.74L244.68,132.93L244.55,134.04L244.23,134.84"></path>
        <path d="M243.32,128.07L242.44,128.26"></path>
        <path d="M244.62,133.49L245.49,133.29"></path>
      </g>
      <g style="stroke:#000000;stroke-width:0.529">
        <path d="M200.08,105.95L200.12,105.82L201.00,105.62L203.29,107.88L203.07,108.52"></path>
        <path d="M222.07,137.78L220.83,136.28"></path>
        <path d="M234.36,130.58L235.70,129.60L236.57,129.40L236.62,129.49"></path>
        <path d="M244.88,134.97L245.06,134.77L245.43,133.85L245.56,132.73L245.45,131.54L245.10,130.39L244.95,130.04L244.40,129.04L243.71,128.28L242.93,127.85L242.14,127.78L241.27,127.98L240.56,128.28L240.46,128.35"></path>
      </g>
    </g>
    <g id="Actor_.9">
      <g style="stroke:#000000;stroke-width:0.176">
        <path d="M147.72,117.53L150.01,119.78L149.86,120.22"></path>
        <path d="M147.67,117.66L147.57,117.97"></path>
        <path d="M150.89,119.59L150.01,119.78"></path>
        <path d="M176.04,146.37L176.37,146.36L176.61,146.24L176.04,146.37L175.91,146.32"></path>
        <path d="M176.79,146.12L176.66,146.22L176.61,146.24"></path>
        <path d="M179.20,144.57L179.19,144.71L179.16,144.80L179.10,144.87L179.03,144.90L178.95,144.89L178.87,144.85L178.80,144.77L178.75,144.67"></path>
        <path d="M181.96,142.29L181.64,142.53L181.68,142.64L181.69,142.76L181.67,142.89L181.64,142.96L181.58,143.03L181.51,143.06L181.43,143.05L181.35,143.01L181.28,142.93L181.20,142.78"></path>
        <path d="M184.83,142.13L184.11,142.29"></path>
        <path d="M183.29,141.30L183.57,141.80L183.92,142.18L184.31,142.40L184.67,142.43"></path>
        <path d="M188.86,139.68L189.65,139.75L190.42,140.19L191.12,140.94L191.67,141.94L191.82,142.29L192.17,143.45L192.28,144.64L192.15,145.75L191.78,146.67L191.59,146.88"></path>
        <path d="M190.91,139.77L190.04,139.97"></path>
        <path d="M192.21,145.19L193.09,145.00"></path>
      </g>
      <g style="stroke:#000000;stroke-width:0.529">
        <path d="M150.67,120.23L150.89,119.59L148.60,117.33L147.72,117.53L147.67,117.66"></path>
        <path d="M171.26,151.42L168.43,147.99"></path>
        <path d="M179.14,144.31L179.20,144.48L179.20,144.57L178.75,144.67L176.79,146.12"></path>
        <path d="M181.96,142.29L183.29,141.30L184.17,141.11L184.45,141.61L184.80,141.99L184.88,142.03"></path>
        <path d="M192.47,146.68L192.65,146.47L193.02,145.55L193.16,144.44L193.05,143.25L192.70,142.10L192.55,141.75L192.00,140.74L191.30,139.99L190.52,139.56L189.74,139.49L188.86,139.68L188.15,139.99L186.44,141.25"></path>
      </g>
    </g>
    <g id="Actor_.10">
      <g style="stroke:#000000;stroke-width:0.176">
        <path d="M208.99,164.36L210.37,164.78L211.20,165.17L211.81,165.47L211.30,165.09L210.90,164.51L210.65,163.80L210.56,163.00L210.52,162.13L210.37,161.11L211.20,160.50L211.81,159.97L212.34,159.41L212.86,158.72"></path>
        <path d="M210.37,161.11L208.99,160.70"></path>
        <path d="M216.12,162.02L216.04,161.41L216.00,161.15L215.74,160.56L215.63,160.35L215.21,159.93L215.05,159.79L214.52,159.60L214.32,159.55L213.75,159.59L213.54,159.64L212.97,159.92L212.77,160.06L212.28,160.54L212.11,160.76L211.74,161.39L211.62,161.66L211.42,162.38L211.37,162.67L211.34,163.39L211.37,163.68L211.53,164.33L211.62,164.58L211.95,165.08L212.11,165.27L212.56,165.57L212.77,165.67L213.30,165.74L213.54,165.75L214.09,165.57L214.32,165.49L214.83,165.09L215.05,164.92L215.36,164.49"></path>
        <path d="M210.37,164.78L210.52,163.83L210.56,163.00L210.65,162.16L210.90,161.33L211.30,160.58L211.81,159.97L212.40,159.53L213.05,159.27L213.70,159.24L214.30,159.42"></path>
        <path d="M213.22,165.79L212.56,165.73L211.81,165.47L212.34,165.75L212.86,166.05"></path>
        <path d="M214.49,164.55L214.24,164.75L213.67,164.94L213.11,164.88L212.62,164.59L212.27,164.08L212.08,163.43L212.08,162.69L212.27,161.95L212.62,161.29L212.94,160.95L213.11,160.78L213.67,160.47L214.24,160.40L214.77,160.58L215.20,160.99L215.42,161.47"></path>
        <path d="M213.01,164.82L213.41,164.86L213.99,164.67L214.24,164.48"></path>
        <path d="M214.22,160.41L214.52,160.51L214.94,160.91L215.17,161.39"></path>
        <path d="M215.30,159.97L215.35,160.02"></path>
      </g>
      <g style="stroke:#000000;stroke-width:0.529">
        <path d="M215.36,164.48L215.04,164.94L214.30,165.52L214.24,165.54L213.43,165.81L213.35,165.81L213.22,165.79L212.86,166.05L211.48,165.64L210.65,165.25L210.04,164.94L209.51,164.66L208.99,164.36L208.84,163.32L208.80,162.47L208.84,161.64L208.99,160.70L209.51,160.00L210.04,159.44L210.65,158.91L211.48,158.31L212.86,158.72L213.68,159.11L214.30,159.42L214.92,159.63L214.99,159.68L215.30,159.97L215.35,160.00L215.35,160.02L215.59,160.25L215.63,160.31L216.01,161.12L216.13,162.04"></path>
      </g>
    </g>
    <g id="Actor_.11">
      <g style="stroke:#000000;stroke-width:0.176">
        <path d="M235.18,135.32L235.62,135.79L235.78,135.96L236.28,136.22L236.46,136.31L236.95,136.33L237.13,136.32L237.57,136.11L237.72,136.00L238.07,135.57L238.17,135.38L238.38,134.78L238.43,134.53L238.49,133.82L238.48,133.54L238.37,132.80L238.30,132.51L238.04,131.82L237.91,131.56L237.54,131.00L237.37,130.79L236.92,130.42L236.72,130.29L236.24,130.14L236.03,130.11L235.59,130.20L235.39,130.26L235.02,130.58L234.86,130.74L234.61,131.26L234.50,131.49"></path>
        <path d="M235.67,135.04L235.86,135.25L236.36,135.50L236.85,135.51L237.28,135.28L237.61,134.83L237.80,134.20L237.84,133.47L237.70,132.72L237.42,132.03L237.02,131.47L236.55,131.10L236.05,130.97L235.58,131.08L235.19,131.43L234.96,131.90"></path>
        <path d="M236.06,130.97L235.87,131.01L235.48,131.36L235.26,131.83"></path>
        <path d="M236.98,135.44L236.65,135.44L236.16,135.18L235.96,134.97"></path>
        <path d="M235.71,130.06L236.39,129.87L236.93,129.82L236.41,129.75L235.92,129.64"></path>
        <path d="M238.94,136.30L239.02,135.58L239.19,134.87L238.91,135.50L238.51,135.97L238.02,136.24L237.72,136.31"></path>
        <path d="M239.98,129.55L238.38,129.90L237.54,129.87L236.93,129.82L237.48,129.99L238.03,130.37L238.52,130.94L238.91,131.64L239.31,132.39L239.89,133.27L241.49,132.91"></path>
        <path d="M238.38,129.90L238.61,130.85L238.91,131.64L239.19,132.43L239.34,133.28L239.33,134.12L239.19,134.87L239.46,134.15L239.89,133.27"></path>
      </g>
      <g style="stroke:#000000;stroke-width:0.529">
        <path d="M238.68,136.36L238.09,136.34L237.72,136.31L237.36,136.39L237.26,136.39L236.57,136.38L236.49,136.34L235.81,135.99L235.19,135.34L235.16,135.29L235.01,135.01"></path>
        <path d="M234.37,132.26L234.50,131.52L234.51,131.45L234.88,130.70L234.93,130.64L235.48,130.15L235.56,130.11L235.71,130.06L235.92,129.64L237.52,129.29L238.36,129.32L238.98,129.37L239.49,129.44L239.98,129.55L240.56,130.42L240.96,131.18L241.26,131.96L241.49,132.91L241.41,133.71L241.24,134.41L240.97,135.13L240.58,135.93"></path>
      </g>
    </g>
    <g id="Actor_.12">
      <g style="stroke:#000000;stroke-width:0.176">
        <path d="M238.11,86.90L93.19,119.27L93.01,118.70L92.92,118.10L89.96,68.71L90.00,68.10L90.18,67.53L90.48,67.04L90.87,66.68L91.31,66.49L99.47,64.66L233.30,34.77L233.76,34.76"></path>
        <path d="M89.82,67.20L90.33,67.29"></path>
        <path d="M130.17,155.67L130.86,155.52L130.56,155.66L130.17,155.67L129.78,155.53L129.40,155.24L93.80,120.20L93.46,119.78L93.19,119.27"></path>
        <path d="M102.75,83.05L102.93,83.03L103.22,83.13L103.47,83.35L103.64,83.68L103.72,84.06L103.69,84.48L103.56,84.87L103.35,85.19L103.07,85.42L102.76,85.52L102.45,85.49L102.32,85.41"></path>
        <path d="M109.87,66.10L110.07,66.08L110.37,66.18L110.61,66.40L110.78,66.72L110.86,67.11L110.83,67.52L110.70,67.91L110.49,68.24L110.21,68.47L109.90,68.57L109.59,68.54L109.47,68.46"></path>
        <path d="M118.85,79.45L119.03,79.43L119.32,79.53L119.57,79.76L119.74,80.08L119.82,80.47L119.79,80.88L119.66,81.27L119.45,81.59L119.17,81.82L118.86,81.92L118.55,81.89L118.43,81.82"></path>
        <path d="M130.73,156.41L131.20,156.19L136.45,152.30L136.83,152.05L137.33,151.79L138.44,151.35L138.95,151.21L187.70,140.32"></path>
        <path d="M272.11,120.70L138.65,150.51L137.59,150.85L136.54,151.35L136.15,151.61L130.86,155.52"></path>
        <path d="M137.61,151.67L137.32,150.97"></path>
        <path d="M147.73,118.13L147.26,117.67L147.70,117.57"></path>
        <path d="M150.78,119.89L151.04,120.15L150.36,120.30"></path>
        <path d="M181.67,142.63L181.29,142.71L178.81,144.55L179.19,144.47"></path>
        <path d="M192.26,139.30L237.63,129.16"></path>
        <path d="M200.28,106.39L199.81,105.93L200.11,105.86"></path>
        <path d="M202.91,108.56L203.59,108.41L203.23,108.06"></path>
        <path d="M207.71,61.87L207.84,61.94L208.15,61.98L208.46,61.87L208.74,61.64L208.95,61.32L209.08,60.93L209.11,60.52L209.03,60.13L208.86,59.81L208.61,59.58L208.32,59.48L208.14,59.51"></path>
        <path d="M214.86,44.92L214.98,44.99L215.29,45.02L215.60,44.92L215.88,44.69L216.09,44.37L216.22,43.98L216.25,43.57L216.17,43.18L216.00,42.85L215.76,42.63L215.46,42.53L215.26,42.56"></path>
        <path d="M224.24,55.91L224.42,55.89L224.72,55.99L224.96,56.21L225.13,56.53L225.21,56.92L225.18,57.33L225.05,57.72L224.84,58.05L224.56,58.28L224.25,58.38L223.94,58.35L223.82,58.27"></path>
        <path d="M232.29,132.12L233.84,130.97L234.07,130.92"></path>
        <path d="M281.69,119.54L281.59,119.44L281.33,119.43L280.93,119.49L243.10,127.94"></path>
        <path d="M281.64,119.49L281.35,118.80"></path>
      </g>
      <g style="stroke:#000000;stroke-width:0.529">
        <path d="M176.79,146.12L130.73,156.41L130.22,156.43L129.69,156.24L129.19,155.86L93.58,120.81L93.14,120.26L92.78,119.58L92.54,118.81L92.42,118.02L89.46,68.62L89.50,68.02L89.67,67.45L89.97,66.96L90.36,66.60L90.81,66.40L232.80,34.68L233.25,34.67L233.76,34.76L234.18,34.94L234.53,35.28L234.77,35.76L234.88,36.34L237.84,85.73L237.92,86.32L238.11,86.90L238.37,87.41L238.71,87.82L272.11,120.70L280.64,118.79L281.05,118.73L281.30,118.75L281.39,118.84L281.69,119.54L281.61,119.71L281.36,119.93L276.11,123.82L275.65,124.04L247.06,130.42"></path>
        <path d="M102.56,85.33L102.32,85.41L102.17,85.33L101.96,85.05L101.84,84.69L101.81,84.28L101.89,83.88L102.06,83.51L102.31,83.23L102.63,83.06L102.73,83.05L102.97,83.27L103.14,83.59L103.21,83.98L103.19,84.39L103.06,84.78L102.84,85.11L102.56,85.33"></path>
        <path d="M109.47,68.46L109.32,68.37L109.10,68.10L108.98,67.74L108.96,67.33L109.03,66.92L109.21,66.56L109.46,66.28L109.75,66.11L109.87,66.10L110.11,66.32L110.28,66.64L110.35,67.03L110.33,67.44L110.20,67.83L109.99,68.15L109.71,68.38L109.47,68.46"></path>
        <path d="M117.93,80.94L117.91,80.69L117.99,80.28L118.17,79.92L118.42,79.63L118.71,79.47L118.83,79.46L119.07,79.67L119.24,79.99L119.31,80.38L119.29,80.79L119.16,81.18L118.94,81.51L118.67,81.74L118.43,81.82L118.28,81.73L118.06,81.45L117.94,81.09L117.93,80.94"></path>
        <path d="M150.36,120.30L150.01,120.38L147.73,118.13"></path>
        <path d="M197.37,141.52L227.43,134.81"></path>
        <path d="M200.28,106.39L202.56,108.64L202.91,108.56"></path>
        <path d="M207.96,61.79L207.71,61.87L207.56,61.78L207.35,61.50L207.23,61.14L207.20,60.74L207.28,60.33L207.46,59.97L207.71,59.69L208.00,59.52L208.12,59.51L208.36,59.72L208.53,60.05L208.60,60.44L208.58,60.85L208.45,61.24L208.23,61.56L207.96,61.79"></path>
        <path d="M214.39,44.23L214.50,44.55L214.71,44.83L214.86,44.92L215.10,44.84L215.38,44.61L215.59,44.28L215.72,43.89L215.75,43.48L215.67,43.09L215.50,42.77L215.26,42.56L215.15,42.57L214.85,42.74L214.60,43.02L214.43,43.38L214.35,43.79L214.39,44.23"></path>
        <path d="M223.32,57.40L223.31,57.14L223.38,56.73L223.56,56.37L223.81,56.09L224.10,55.92L224.22,55.91L224.46,56.13L224.63,56.45L224.71,56.84L224.68,57.25L224.55,57.64L224.34,57.96L224.06,58.19L223.82,58.27L223.67,58.18L223.45,57.91L223.33,57.55L223.32,57.40"></path>
      </g>
    </g>
    <g id="Actor_.13">
      <g style="stroke:#000000;stroke-width:0.176">
        <path d="M193.01,141.86L193.01,141.86"></path>
        <path d="M193.04,141.93L193.04,141.93"></path>
      </g>
      <g style="stroke:#000000;stroke-width:0.529">
        <path d="M192.60,146.65L192.84,146.43L193.29,145.52L193.47,144.38L193.39,143.13L193.04,141.91L192.46,140.85L191.72,140.06L190.90,139.64L190.67,139.63"></path>
      </g>
    </g>
    <g id="Actor_.14">
      <g style="stroke:#000000;stroke-width:0.176">
        <path d="M120.76,176.57L120.75,177.10L120.98,178.09L120.97,178.31L120.93,178.39L120.81,178.48L120.74,178.47L120.23,178.27L119.91,177.97"></path>
        <path d="M152.98,272.35L120.95,235.40"></path>
        <path d="M152.98,157.79L120.95,175.52"></path>
        <path d="M150.43,158.57L151.49,157.98L150.45,158.56"></path>
        <path d="M151.49,157.98L153.16,157.06L152.61,157.36"></path>
        <path d="M153.09,272.51L152.81,272.10L152.78,271.38L152.99,270.73L153.03,270.65L153.10,270.61L153.17,270.60L153.25,270.62L153.38,270.75L153.82,271.69L154.56,272.62L155.01,272.96L187.05,255.22"></path>
        <path d="M154.01,156.59L153.94,156.62L154.06,156.56L153.88,156.66L153.44,157.02L153.09,157.48L152.81,158.27L152.78,159.36L152.99,160.24L153.03,160.34L153.17,160.48L153.24,160.50L153.38,160.45L153.21,160.49"></path>
        <path d="M151.67,157.88L153.94,156.62"></path>
        <path d="M153.38,160.45L153.82,159.68L154.56,158.79L155.80,157.73L156.16,157.34L156.39,156.95L156.44,156.66L156.32,156.21L156.00,156.95L155.74,157.00L155.03,157.34L154.53,157.62L154.23,157.85L153.94,158.20L153.75,158.73L153.73,159.46L153.79,159.73"></path>
        <path d="M154.41,156.35L154.06,156.56"></path>
        <path d="M154.82,157.46L154.62,157.57"></path>
        <path d="M156.32,274.00L156.44,273.87L156.39,273.77L156.20,273.65"></path>
        <path d="M155.36,273.72L155.54,273.31L156.04,273.56"></path>
        <path d="M155.54,273.31L155.31,273.18L155.01,272.96"></path>
        <path d="M187.05,195.34L155.01,158.40"></path>
        <path d="M155.74,157.00L155.36,155.92"></path>
        <path d="M156.08,157.43L155.94,157.06L156.00,156.95"></path>
        <path d="M156.32,156.21L156.75,156.11"></path>
        <path d="M190.62,255.19L190.11,255.30L189.55,255.52L189.12,255.65L188.52,255.72L187.93,255.66L187.34,255.44L186.59,254.88L185.85,253.96L185.46,253.12L185.43,252.90L185.44,252.79L185.48,252.71L185.54,252.65L185.60,252.62L185.84,252.66L185.46,252.75"></path>
        <path d="M186.31,252.77L185.84,252.66"></path>
        <path d="M186.34,197.50L185.46,197.69"></path>
        <path d="M189.83,196.32L190.59,196.55L190.36,197.18L190.11,197.54L189.66,197.92L189.10,198.15L188.45,198.26L187.46,198.23L186.37,198.10L185.68,197.95L185.54,197.84L185.44,197.64L185.43,197.42L185.46,197.32L185.85,196.62L186.59,195.73L187.34,195.09L187.93,194.78L188.51,194.65L189.12,194.70L189.63,194.87L190.11,195.17L189.73,196.03"></path>
        <path d="M188.06,252.93L188.06,198.25"></path>
        <path d="M190.98,254.13L190.59,254.21L190.41,253.76L190.11,253.41L189.65,253.14L189.44,253.08"></path>
        <path d="M190.11,255.30L189.73,254.22"></path>
        <path d="M190.59,254.21L190.23,254.11"></path>
        <path d="M190.59,196.55L199.66,194.52"></path>
        <path d="M190.11,195.17L199.18,193.14"></path>
      </g>
      <g style="stroke:#000000;stroke-width:0.529">
        <path d="M157.27,273.79L156.32,274.00L156.20,273.65L156.04,273.56L155.36,273.72L154.80,273.36L153.44,272.74L153.09,272.51L121.06,235.57L120.78,235.15L120.75,234.44L120.98,233.68L120.97,233.46L120.93,233.35L120.81,233.19L120.23,232.95L119.91,232.65L119.91,177.97L119.95,177.72L120.39,177.15L120.76,176.57L120.78,176.00L121.06,175.21L121.31,174.81L121.53,174.57L121.68,174.48L148.64,159.56L148.52,159.63"></path>
        <path d="M150.43,158.57L148.46,159.66"></path>
        <path d="M156.17,155.74L155.36,155.92L154.41,156.35L150.00,158.81L150.45,158.56"></path>
        <path d="M199.66,238.67L199.66,194.52L198.90,194.29L189.83,196.32L189.59,197.13L189.27,197.59L188.95,197.81L188.54,197.94L188.41,197.96L187.75,197.94L187.02,197.86L186.56,197.75L186.48,197.71L186.36,197.55L186.31,197.33L186.34,197.12L186.60,196.66L187.09,196.07L187.59,195.64L188.06,195.43L188.44,195.41L188.98,195.54L189.47,195.82L189.73,196.03L198.80,194.00L199.18,193.14L173.26,163.25"></path>
        <path d="M186.31,252.81L186.34,252.92L186.60,253.48L187.09,254.10L187.59,254.47L187.71,254.53L188.12,254.62L188.52,254.62L189.05,254.50L189.73,254.22L190.23,254.11L189.83,253.99L189.76,253.67L189.70,253.53L189.56,253.21L189.43,253.08L189.08,252.99L188.45,252.94L187.46,252.91L186.32,252.77L186.31,252.81"></path>
      </g>
    </g>
    <g id="Actor_.15">
      <g style="stroke:#000000;stroke-width:0.176">
        <path d="M176.42,162.54L176.42,166.89"></path>
        <path d="M190.36,139.40L191.15,139.57L191.92,140.10L192.58,140.94L193.04,141.91"></path>
        <path d="M192.41,139.64L191.53,139.84"></path>
        <path d="M194.55,146.22L193.08,142.00L193.04,141.93"></path>
      </g>
      <g style="stroke:#000000;stroke-width:0.529">
        <path d="M169.56,151.80L170.31,150.58L170.47,150.45"></path>
        <path d="M177.29,167.90L177.29,162.35"></path>
        <path d="M195.43,146.02L193.95,141.80L193.46,140.74L192.79,139.91L192.03,139.38L191.24,139.20L190.36,139.40L189.96,139.51"></path>
      </g>
    </g>
    <g id="Actor_.16">
      <g style="stroke:#000000;stroke-width:0.176">
        <path d="M213.13,253.27L212.88,253.17L212.69,252.96L212.56,252.68L212.52,252.34L212.52,248.23L212.45,247.52L212.23,246.83L211.90,246.23L211.47,245.79L211.00,245.54L207.47,244.47"></path>
        <path d="M208.07,244.34L208.49,244.25L208.58,244.27L208.70,244.28L208.82,244.28L208.93,244.27L209.04,244.26L209.12,244.23L209.16,244.20L209.17,244.17L209.14,244.14L209.08,244.12L208.93,244.07"></path>
        <path d="M212.03,252.84L212.79,253.06"></path>
        <path d="M212.06,246.53L219.68,244.83"></path>
        <path d="M214.05,243.00L214.12,243.03L214.15,243.06L214.14,243.09L214.09,243.12L214.05,243.13"></path>
      </g>
      <g style="stroke:#000000;stroke-width:0.529">
        <path d="M208.07,244.34L207.47,244.47L207.47,245.60L211.00,246.66L211.24,246.78L211.45,247.00L211.62,247.30L211.73,247.65L211.76,248.00L211.76,252.11L211.81,252.45L211.93,252.73L212.13,252.94L212.37,253.04L213.13,253.27L213.40,253.27L219.25,251.96L219.53,251.84L219.77,251.63L219.96,251.34L220.09,251.00L220.13,250.64L220.13,246.53L220.06,245.82L219.84,245.13L219.51,244.53L219.09,244.09L218.62,243.84L215.08,242.77L214.05,243.00L214.05,243.13L214.01,243.14L213.91,243.16L213.79,243.17L213.67,243.17L213.56,243.15L213.47,243.13L213.11,243.03"></path>
      </g>
    </g>
    <g id="Actor_.17">
      <g style="stroke:#000000;stroke-width:0.176">
        <path d="M238.39,128.83L239.20,128.85L240.03,129.27L240.77,130.06L241.34,131.12L241.69,132.34L241.78,133.59L241.59,134.73L241.15,135.64L240.90,135.86"></path>
      </g>
      <g style="stroke:#000000;stroke-width:0.529">
        <path d="M241.49,135.73L241.73,135.51L242.18,134.60L242.36,133.46L242.28,132.21L241.93,130.99L241.35,129.93L240.61,129.14L239.79,128.72L238.97,128.70L238.39,128.83L237.66,129.22L237.61,129.29"></path>
      </g>
    </g>
    <g id="Actor_.18">
      <g style="stroke:#000000;stroke-width:0.176">
        <path d="M192.39,139.29L192.45,139.38"></path>
        <path d="M195.12,145.15L196.50,144.84L196.13,145.22L195.72,145.56L195.45,145.75"></path>
        <path d="M194.34,141.26L194.65,141.47L194.60,141.95"></path>
        <path d="M194.65,141.47L196.25,141.11L196.49,142.08L196.60,142.93L196.61,143.79L196.50,144.84"></path>
        <path d="M196.25,141.11L195.81,140.48L195.35,139.97L194.78,139.48L194.49,139.28"></path>
        <path d="M197.24,143.89L197.26,143.62L197.32,142.91L197.28,142.62L197.18,141.88L197.08,141.60L196.83,140.91L196.67,140.67L196.31,140.11"></path>
      </g>
      <g style="stroke:#000000;stroke-width:0.529">
        <path d="M195.36,145.82L195.45,145.75L195.67,145.70L196.31,145.43L196.39,145.39L196.45,145.32L196.94,144.74L197.24,143.91L197.25,143.86L197.33,142.90L197.19,141.88L196.84,140.92L196.33,140.13L196.29,140.08L195.64,139.52L195.57,139.49L194.87,139.24L194.78,139.24L194.49,139.28L193.99,138.93L192.39,139.29L192.33,139.33"></path>
      </g>
    </g>
    <g id="Actor_.19">
      <g style="stroke:#000000;stroke-width:0.176">
        <path d="M180.44,169.36L180.05,169.32L179.64,169.45L179.27,169.74L179.10,169.98"></path>
      </g>
      <g style="stroke:#000000;stroke-width:0.529">
        <path d="M180.75,171.89L180.77,171.87L181.02,171.40L181.15,170.89L181.15,170.37L181.02,169.91L180.77,169.56L180.44,169.36L178.92,168.90"></path>
      </g>
    </g>
    <g id="Actor_.20">
      <g style="stroke:#000000;stroke-width:0.176">
        <path d="M242.74,130.66L242.71,130.57L242.66,130.48"></path>
      </g>
      <g style="stroke:#000000;stroke-width:0.529">
        <path d="M243.76,133.50L243.83,132.90L243.69,131.64L243.30,130.44L242.69,129.43L241.92,128.71L241.10,128.36L240.63,128.39"></path>
      </g>
    </g>
    <g id="Actor_.21">
      <g style="stroke:#000000;stroke-width:0.176">
        <path d="M214.77,164.64L214.40,164.51L214.11,164.23L213.91,163.82L213.85,163.33L213.91,162.80L214.11,162.31L214.40,161.89L214.74,161.63L214.77,161.60L215.18,161.47L215.57,161.51"></path>
      </g>
      <g style="stroke:#000000;stroke-width:0.529">
        <path d="M214.05,161.05L215.57,161.51L215.90,161.72L216.15,162.07L216.28,162.52L216.28,163.04L216.15,163.56L215.90,164.02L215.57,164.37L215.18,164.59L214.77,164.64L213.26,164.18"></path>
      </g>
    </g>
    <g id="Actor_.22">
      <g style="stroke:#000000;stroke-width:0.176">
        <path d="M180.99,169.87L180.91,169.26L180.87,169.00L180.61,168.41L180.50,168.19L180.08,167.78L179.92,167.64L179.39,167.45L179.19,167.40L178.62,167.44L178.41,167.49L177.84,167.77L177.64,167.91L177.46,168.09"></path>
        <path d="M180.29,169.31L180.07,168.83L179.64,168.43L179.11,168.25L178.54,168.32L177.97,168.63L177.95,168.65"></path>
        <path d="M177.29,167.15L177.73,166.57"></path>
        <path d="M177.29,167.37L177.92,167.12L178.53,167.09L178.57,167.08L179.17,167.27"></path>
        <path d="M179.09,168.25L179.39,168.35L179.81,168.76L180.04,169.24"></path>
        <path d="M180.17,167.82L180.22,167.87"></path>
      </g>
      <g style="stroke:#000000;stroke-width:0.529">
        <path d="M180.17,167.82L179.86,167.52L179.79,167.48L179.17,167.27L178.55,166.96L177.73,166.57L177.29,166.44"></path>
        <path d="M181.00,169.88L180.88,168.97L180.50,168.15L180.46,168.09L180.22,167.87"></path>
        <path d="M180.17,167.82L180.22,167.85L180.22,167.87"></path>
      </g>
    </g>
    <g id="Actor_.23">
      <g style="stroke:#000000;stroke-width:0.176">
        <path d="M146.81,152.82L146.88,152.89L147.77,153.26L154.65,155.33"></path>
        <path d="M149.58,152.30L149.58,152.43"></path>
        <path d="M149.64,152.19L149.61,152.21L149.55,152.40L149.73,152.58L150.11,152.74L156.62,154.69"></path>
        <path d="M197.04,144.45L199.36,145.14"></path>
      </g>
      <g style="stroke:#000000;stroke-width:0.529">
        <path d="M146.47,152.90L146.47,159.86"></path>
        <path d="M197.36,143.32L201.70,144.62"></path>
      </g>
    </g>
    <g id="Actor_.24">
      <g style="stroke:#000000;stroke-width:0.176">
        <path d="M204.84,32.73L203.87,33.82L203.82,33.89L203.80,33.98L203.79,34.07L203.80,34.18L205.06,40.88"></path>
        <path d="M203.70,33.60L204.02,33.65"></path>
        <path d="M206.89,40.47L206.43,32.89L204.89,32.64"></path>
        <path d="M206.43,32.89L207.88,32.25L207.97,32.23L207.72,32.19L207.63,32.21L206.47,32.72L205.56,32.57"></path>
        <path d="M208.32,59.69L208.32,59.84L208.24,60.25L208.06,60.62L207.81,60.91L207.51,61.08L207.28,61.10L207.44,61.15L207.76,61.12L208.06,60.95L208.32,60.66L208.49,60.29L208.54,60.06"></path>
        <path d="M207.28,61.10L207.22,61.08"></path>
        <path d="M208.31,59.90L207.62,59.79"></path>
        <path d="M208.65,34.60L208.36,33.12L217.98,30.97L218.45,30.97"></path>
        <path d="M207.97,32.23L208.06,32.24L208.14,32.30L208.20,32.38L208.24,32.49L208.36,33.12"></path>
        <path d="M221.66,29.49L220.17,29.50L220.08,29.52L219.99,29.58L219.92,29.66L219.87,29.77L219.85,29.89L219.57,34.05L219.50,34.48L219.34,34.87L219.10,35.20L218.82,35.44L218.49,35.57L210.23,37.42L209.90,37.43L209.77,37.39"></path>
        <path d="M215.60,44.28L215.59,44.28"></path>
        <path d="M215.38,44.61L215.38,44.61"></path>
        <path d="M215.11,44.83L215.10,44.84"></path>
        <path d="M215.51,42.78L215.50,42.77"></path>
        <path d="M215.68,43.11L215.67,43.09"></path>
        <path d="M215.75,43.49L215.75,43.48"></path>
        <path d="M215.72,43.88L215.72,43.90"></path>
        <path d="M215.38,33.09L218.07,32.49L218.16,32.49L218.25,32.53L218.32,32.60L218.37,32.70L218.39,32.82L218.45,35.45L218.24,35.53L215.45,36.15"></path>
        <path d="M219.84,29.24L221.11,29.45L219.92,29.46L219.83,29.48L219.74,29.54L219.67,29.62L219.62,29.73L219.60,29.85L219.32,34.01L219.25,34.43L219.09,34.83L218.85,35.16L218.56,35.40L218.45,35.45"></path>
        <path d="M218.29,32.56L217.97,32.51"></path>
        <path d="M218.78,31.11L218.88,31.16L219.24,31.53L219.46,32.01"></path>
        <path d="M219.96,29.62L219.71,29.58"></path>
        <path d="M224.63,56.48L224.59,56.70L224.42,57.07L224.16,57.35L223.86,57.52L223.54,57.56L223.38,57.50"></path>
      </g>
      <g style="stroke:#000000;stroke-width:0.529">
        <path d="M203.96,41.13L203.37,35.07L203.38,34.45L203.55,33.86L203.85,33.34L204.25,32.96L204.71,32.76L204.84,32.73L204.88,32.67L204.89,32.64L205.20,32.51L205.56,32.57L214.96,30.47L215.43,30.47L218.45,30.97L218.78,31.11L218.73,30.84L218.72,30.74L218.73,30.64L218.75,30.55L218.80,30.49L219.77,29.40L219.81,29.33L219.84,29.24L220.12,29.24L221.66,29.49L222.11,37.07"></path>
        <path d="M209.84,37.38L209.77,37.39L209.59,37.33L209.33,37.11L209.12,36.79L209.00,36.41L208.65,34.60L215.38,33.09L215.45,36.15L209.98,37.38L209.84,37.38"></path>
        <path d="M215.13,42.58L215.14,42.59L215.36,42.87L215.48,43.23L215.51,43.65L215.43,44.06L215.25,44.43L215.00,44.71L214.75,44.85"></path>
        <path d="M223.33,57.49L223.38,57.50L223.61,57.48L223.91,57.31L224.16,57.02L224.34,56.66L224.42,56.24L224.41,56.08"></path>
      </g>
    </g>
    <g id="Actor_.25">
      <g style="stroke:#000000;stroke-width:0.176">
        <path d="M99.67,64.42L98.41,57.72L98.40,57.62L98.41,57.52L98.43,57.44L98.48,57.37L99.45,56.28"></path>
        <path d="M98.31,57.14L98.63,57.20"></path>
        <path d="M101.50,64.02L101.04,56.44L99.50,56.18"></path>
        <path d="M101.04,56.44L102.49,55.79L102.58,55.77L102.33,55.73L102.24,55.75L101.08,56.27L100.17,56.12"></path>
        <path d="M101.83,84.63L102.05,84.70L102.37,84.66L102.67,84.49L102.92,84.21L103.10,83.84L103.15,83.61"></path>
        <path d="M102.93,83.24L102.93,83.39L102.85,83.80L102.67,84.17L102.42,84.45L102.12,84.62L101.89,84.65"></path>
        <path d="M102.23,83.33L102.92,83.45"></path>
        <path d="M102.58,55.77L102.67,55.79L102.75,55.84L102.81,55.92L102.85,56.03L103.26,58.14"></path>
        <path d="M102.97,56.67L112.59,54.52L113.06,54.51"></path>
        <path d="M116.27,53.04L114.78,53.05L114.69,53.07L114.60,53.12L114.53,53.21L114.48,53.32L114.46,53.44L114.18,57.59L114.11,58.02L113.95,58.42L113.71,58.75L113.42,58.99L113.10,59.12L104.84,60.96L104.51,60.98L104.38,60.93"></path>
        <path d="M109.99,68.15L109.99,68.16"></path>
        <path d="M109.72,68.38L109.71,68.38"></path>
        <path d="M110.36,67.04L110.36,67.03"></path>
        <path d="M110.21,67.82L110.20,67.83"></path>
        <path d="M110.12,66.32L110.11,66.32"></path>
        <path d="M110.06,59.70L112.85,59.08L113.06,58.99L113.00,56.37L112.98,56.25L112.93,56.15L112.86,56.07L112.77,56.03L112.68,56.04L109.99,56.64"></path>
        <path d="M113.06,58.99L113.17,58.94L113.46,58.70L113.70,58.37L113.86,57.98L113.93,57.55L114.21,53.39L114.23,53.27L114.28,53.17L114.35,53.08L114.44,53.03L114.53,53.01L115.72,53.00L114.45,52.79"></path>
        <path d="M112.90,56.11L112.58,56.06"></path>
        <path d="M113.39,54.66L113.49,54.71L113.85,55.07L114.06,55.55"></path>
        <path d="M114.57,53.17L114.32,53.12"></path>
        <path d="M119.24,80.03L119.20,80.24L119.03,80.61L118.77,80.90L118.47,81.07L118.15,81.10L117.99,81.05"></path>
      </g>
      <g style="stroke:#000000;stroke-width:0.529">
        <path d="M116.72,60.61L116.27,53.04L114.72,52.78L114.45,52.79L114.42,52.88L114.38,52.95L113.41,54.03L113.36,54.10L113.34,54.19L113.33,54.28L113.34,54.39L113.39,54.66L113.06,54.51L110.04,54.01L109.57,54.02L100.17,56.12L99.81,56.06L99.50,56.18L99.49,56.21L99.45,56.28L99.32,56.31L98.86,56.51L98.46,56.89L98.16,57.40L97.99,58.00L97.98,58.62L98.56,64.67"></path>
        <path d="M103.94,60.65L104.20,60.87L104.38,60.93L104.59,60.92L110.06,59.70L109.99,56.64L103.26,58.14L103.61,59.96L103.73,60.34L103.94,60.65"></path>
        <path d="M109.74,66.12L109.75,66.13L109.97,66.41L110.09,66.78L110.12,67.19L110.04,67.60L109.86,67.97L109.61,68.26L109.36,68.40"></path>
        <path d="M119.02,79.63L119.03,79.79L118.95,80.20L118.77,80.57L118.52,80.85L118.22,81.02L117.99,81.05L117.94,81.03"></path>
      </g>
    </g>
    <g id="Actor_.26">
      <g style="stroke:#000000;stroke-width:0.176">
        <path d="M208.99,209.19L210.37,209.60L211.20,209.99L211.81,210.30L212.34,210.58L212.86,210.88"></path>
        <path d="M208.99,205.52L210.37,205.94L211.20,205.33L211.81,204.80L212.34,204.24L212.86,203.55"></path>
        <path d="M213.22,210.62L212.56,210.55L211.81,210.30L211.30,209.92L210.90,209.34L210.65,208.62L210.56,207.83L210.52,206.96L210.37,205.94"></path>
        <path d="M215.36,209.31L215.05,209.75L214.83,209.92L214.32,210.31L214.09,210.40L213.54,210.57L213.30,210.56L212.77,210.50L212.56,210.39L212.11,210.09L211.95,209.91L211.62,209.41L211.53,209.15L211.37,208.51L211.34,208.22L211.37,207.50L211.42,207.21L211.62,206.49L211.74,206.22L212.11,205.59L212.28,205.37L212.77,204.89L212.97,204.75L213.54,204.47L213.75,204.42L214.32,204.38L214.52,204.42L215.05,204.62L215.21,204.76L215.63,205.17L215.74,205.39L216.00,205.97L216.04,206.24L216.12,206.85"></path>
        <path d="M210.37,209.60L210.52,208.65L210.56,207.83L210.65,206.98L210.90,206.16L211.30,205.41L211.81,204.80L212.40,204.35L213.05,204.10L213.70,204.06L214.30,204.24"></path>
        <path d="M214.49,209.38L214.24,209.58L213.67,209.76L213.11,209.71L212.62,209.41L212.27,208.91L212.08,208.25L212.08,207.52L212.27,206.78L212.62,206.12L213.11,205.60L213.67,205.30L214.24,205.23L214.77,205.41L215.20,205.81L215.42,206.29"></path>
        <path d="M213.01,209.65L213.41,209.69L213.99,209.50L214.24,209.30"></path>
        <path d="M215.17,206.22L214.94,205.74L214.52,205.33L214.22,205.23"></path>
        <path d="M215.30,204.80L215.35,204.85"></path>
      </g>
      <g style="stroke:#000000;stroke-width:0.529">
        <path d="M215.36,209.31L215.04,209.77L214.30,210.34L214.24,210.37L213.43,210.64L213.35,210.63L213.22,210.62L212.86,210.88L211.48,210.47L210.65,210.07L210.04,209.77L209.51,209.49L208.99,209.19L208.84,208.15L208.80,207.30L208.84,206.47L208.99,205.52L209.51,204.83L210.04,204.27L210.65,203.73L211.48,203.13L212.86,203.55L213.68,203.94L214.30,204.24L214.92,204.46L214.99,204.50L215.30,204.80L215.35,204.82L215.35,204.85L215.59,205.07L215.63,205.13L216.01,205.95L216.13,206.86"></path>
      </g>
    </g>
    <g id="Actor_.27">
      <g style="stroke:#000000;stroke-width:0.176">
        <path d="M215.57,206.33L215.18,206.30L214.77,206.43L214.40,206.72L214.11,207.13L213.91,207.63L213.85,208.15L213.91,208.64L214.11,209.05L214.40,209.34L214.77,209.46"></path>
      </g>
      <g style="stroke:#000000;stroke-width:0.529">
        <path d="M214.05,205.88L215.57,206.33L215.90,206.54L216.15,206.89L216.17,206.95L216.28,207.35L216.28,207.87L216.15,208.38L215.90,208.84L215.57,209.20L215.18,209.41L214.77,209.46L213.26,209.01"></path>
      </g>
    </g>
    <g></g>
    <g></g>
    <g id="paperID" visibility="hidden" opacity="0.00" transform="scale(0.000100)">
      <path style="stroke:#000000;stroke-width:0.500;fill:#e6e6e6;fill-rule:evenodd" d="M-2000.00,-2000.00L2420.00,-2000.00L2420.00,2297.00L-2000.00,2297.00zM0.00,0.00L420.00,0.00L420.00,297.00L0.00,297.00z"></path>
      <path style="fill:#000000;fill-opacity:0.118" d="M3.00,297.00L420.00,297.00L420.00,3.00L423.00,3.00L423.00,300.00L3.00,300.00z"></path>
    </g>
    <g id="ToolTip" visibility="hidden" opacity="0" transform="translate(0,0)">
      <rect id="ToolTipShadow" opacity="0.20" fill="black" stroke="none" x="0" y="0" width="30" height="8"></rect>
      <rect id="ToolTipBG" fill="#ffffe1" stroke="black" x="0" y="0" width="30" height="8"></rect>
      <text xml:space="preserve" id="ToolTipText" fill="black" x="0" y="0" width="30" height="8">tooltip</text>
    </g>
  </g>
</svg>
