<?xml version="1.0" encoding="UTF-8" standalone="yes"?>
<svg xmlns="http://www.w3.org/2000/svg" xmlns:xlink="http://www.w3.org/1999/xlink" width="420.000mm" height="297.000mm" viewBox="0.000000 0.000000 420.000000 297.000000" stroke-linejoin="round" stroke-linecap="round" fill="none" fill-rule="evenodd">
  <desc>Composer Export</desc>
  <defs></defs>
  <g>
    <path style="fill:#ffffff" d="M419.77,296.90L0.10,296.90L0.10,0.10L419.77,0.10z"></path>
    <path style="fill:#e5e5e5" d="M343.39,105.42L343.14,106.38L342.66,107.58L342.71,110.82L336.57,119.22L335.81,119.75L328.36,126.81L315.52,138.79L313.63,138.80L309.49,135.87L309.18,135.45L309.30,134.11L340.08,105.32L343.41,105.20z"></path>
    <path style="fill:#e5e5e5" d="M183.18,165.48L183.18,166.01L179.40,168.14L180.39,168.14L182.86,167.11L182.93,167.36L104.24,252.58L102.64,254.52L92.76,258.84L87.59,261.43L87.59,260.82L110.21,236.29L119.43,226.17L130.69,214.21L135.23,209.07L165.34,176.60L165.67,176.49L168.20,177.49L169.75,177.48L171.04,176.52L176.18,167.47L177.93,165.03L178.98,164.57L179.21,165.02L179.60,164.51L181.13,164.57z"></path>
    <path style="fill:#00001c" d="M343.79,105.82L343.14,106.38L343.39,105.42z"></path>
    <path style="fill:#00001c" d="M176.51,170.90L176.32,171.21L175.45,171.54L175.51,171.06L176.37,170.59z"></path>
    <path style="fill:#e5e5e5" d="M394.46,17.71L394.64,19.04L394.78,20.95L394.96,23.23L395.11,25.47L395.28,27.74L395.43,29.98L395.60,32.26L395.75,34.49L395.93,36.77L396.07,39.01L396.25,41.29L396.40,43.52L396.57,45.80L396.72,48.04L396.89,50.00L397.04,52.23L397.22,54.51L397.36,56.75L397.54,59.02L397.69,61.26L397.86,63.54L398.01,65.78L398.18,68.05L398.33,70.29L398.51,72.57L398.65,74.80L398.83,77.08L398.98,79.00L399.15,81.27L399.30,83.51L399.47,85.79L399.62,88.03L399.80,90.30L399.94,92.54L400.12,94.82L400.27,97.06L400.44,99.33L400.59,101.57L400.76,103.85L400.74,106.64L398.46,109.84L396.73,111.99L388.14,117.91L383.01,120.51L320.30,210.69L320.61,213.47L320.61,215.42L320.44,216.92L319.15,219.51L317.09,221.05L316.44,221.02L317.86,219.18L318.50,217.57L318.82,214.55L318.36,213.55L317.39,214.85L315.92,217.89L312.93,221.02L303.15,225.17L300.95,225.16L300.35,225.54L299.03,228.08L296.88,229.51L296.88,228.89L297.86,227.56L298.51,225.95L298.50,221.01L297.53,217.79L293.65,207.48L292.68,203.94L292.38,201.98L292.38,197.25L293.24,193.91L294.98,191.14L299.45,188.19L300.77,185.32L300.77,180.36L300.09,178.45L299.99,177.49L302.94,176.12L303.32,176.17L303.67,177.15L304.00,179.74L303.66,181.13L303.03,181.77L302.84,183.41L302.60,183.60L302.51,184.44L302.44,185.37L302.25,185.54L303.47,185.51L305.65,184.72L307.21,182.74L307.85,180.80L307.88,176.16L307.21,175.53L305.88,174.86L305.83,174.57L306.89,173.71L346.58,120.16L347.18,120.04L349.15,120.58L349.33,121.59L349.15,123.09L347.23,128.00L347.22,129.37L347.54,129.87L348.21,129.44L348.20,129.80L341.84,138.74L341.40,138.87L341.17,139.55L340.88,139.92L340.39,140.19L340.51,140.64L340.14,141.23L339.67,141.32L338.71,142.87L338.80,143.44L338.06,143.93L336.62,145.79L336.21,145.96L336.38,146.73L335.91,147.56L335.59,147.22L317.83,171.10L317.84,173.43L315.28,177.23L314.79,177.04L314.62,176.47L314.46,177.35L314.61,178.12L311.28,182.93L306.81,184.87L307.85,187.77L302.92,194.93L302.42,195.26L298.43,196.80L299.46,199.87L295.61,205.32L295.59,206.83L299.49,216.83L300.46,216.84L301.09,218.42L301.75,223.09L370.24,124.54L370.77,124.25L368.57,124.22L368.08,123.63L371.72,118.58L371.38,110.72L365.46,29.48L377.20,24.38L376.90,22.90L376.86,22.04L376.73,21.95L377.09,21.09L377.70,20.72L379.80,20.73L380.39,21.05L380.39,21.41L379.35,22.05L379.01,26.58L380.00,26.58L381.70,25.05L382.24,22.36L393.53,17.48L394.28,17.48z"></path>
    <path style="fill:#e5e5e5" d="M358.15,105.68L363.37,103.52L363.16,104.79L360.54,106.80L359.21,106.82L358.13,106.52z"></path>
    <path style="fill:#e5e5e5" d="M176.59,114.61L179.49,114.57L180.30,116.44L180.45,117.60L180.90,117.01L182.45,118.42L183.07,119.58L181.97,120.37L180.91,120.62L180.80,118.75L180.66,120.61L180.67,122.24L180.20,123.56L179.82,124.00L178.98,124.25L177.56,123.96L174.33,121.99L173.91,117.82L175.03,117.13L174.01,116.50L174.03,115.70L175.21,114.23L175.96,114.23z"></path>
    <path style="fill:#e5e5e5" d="M160.82,138.11L161.30,141.25L161.49,142.22L161.76,142.95L161.45,144.04L141.85,169.01L141.64,169.06L141.33,169.64L131.46,182.41L129.45,183.94L127.40,184.40L124.90,184.24L95.98,221.15L95.96,221.74L96.94,221.63L97.30,222.28L97.61,224.64L93.31,226.84L91.79,226.49L90.48,225.55L90.11,224.20L92.21,223.40L93.44,223.26L92.21,223.23L90.71,222.70L90.83,221.77L121.42,182.75L121.42,182.28L122.31,182.32L159.52,134.91z"></path>
    <path style="fill:#e5e5e5" d="M304.54,175.52L305.18,175.15L305.58,175.20L306.10,177.36L306.30,178.32L306.30,179.31L305.93,181.46L304.84,182.95L303.89,182.99L304.96,181.45L305.27,180.15L305.27,178.12z"></path>
    <path style="fill:#e5e5e5" d="M210.25,181.81L207.99,182.13L205.75,182.27L204.13,182.14L204.22,180.04L210.16,179.71z"></path>
    <path style="fill:#e5e5e5" d="M295.32,222.19L295.05,222.27L294.24,221.98L294.62,221.65L294.00,221.29L293.36,221.41L292.67,222.71L292.72,223.96L293.02,223.99L293.33,223.25L294.02,224.36L295.09,223.50L294.84,224.54L291.94,226.53L291.29,226.60L291.38,225.61L291.75,225.00L291.74,221.97L291.33,220.66L294.22,219.35L294.94,219.37z"></path>
    <path style="fill:#e5e5e5" d="M77.76,247.03L78.02,247.74L77.96,247.95L76.27,248.73L76.29,249.05L75.59,249.20L75.68,247.55L77.19,246.74z"></path>
    <path style="fill:#ffffff" d="M294.62,221.65L294.24,221.98L295.05,222.27L295.09,223.50L294.02,224.36L293.33,223.25L293.02,223.99L292.72,223.96L292.67,222.71L293.36,221.41L294.00,221.29z"></path>
    <path style="fill:#000020" d="M369.57,13.16L368.77,13.46L368.66,12.92z"></path>
    <path style="fill:#000020" d="M394.64,19.04L394.46,17.71L394.63,17.81z"></path>
    <path style="fill:#000020" d="M394.96,23.23L394.78,20.95L394.91,21.07z"></path>
    <path style="fill:#000020" d="M395.28,27.74L395.11,25.47L395.24,25.59z"></path>
    <path style="fill:#000020" d="M364.64,30.08L364.29,35.07L364.27,29.44z"></path>
    <path style="fill:#000020" d="M395.60,32.26L395.43,29.98L395.56,30.10z"></path>
    <path style="fill:#000020" d="M395.93,36.77L395.75,34.49L395.88,34.61z"></path>
    <path style="fill:#000020" d="M396.25,41.29L396.07,39.01L396.20,39.13z"></path>
    <path style="fill:#000020" d="M396.57,45.80L396.40,43.52L396.53,43.64z"></path>
    <path style="fill:#000020" d="M396.89,50.00L396.72,48.04L396.85,48.16z"></path>
    <path style="fill:#000020" d="M397.22,54.51L397.04,52.23L397.17,52.35z"></path>
    <path style="fill:#000020" d="M397.54,59.02L397.36,56.75L397.49,56.87z"></path>
    <path style="fill:#000020" d="M397.86,63.54L397.69,61.26L397.82,61.38z"></path>
    <path style="fill:#000020" d="M398.18,68.05L398.01,65.78L398.14,65.89z"></path>
    <path style="fill:#000020" d="M398.51,72.57L398.33,70.29L398.46,70.41z"></path>
    <path style="fill:#000020" d="M398.83,77.08L398.65,74.80L398.78,74.92z"></path>
    <path style="fill:#000020" d="M399.15,81.27L398.98,79.00L399.10,79.12z"></path>
    <path style="fill:#000020" d="M399.47,85.79L399.30,83.51L399.43,83.63z"></path>
    <path style="fill:#000020" d="M399.80,90.30L399.62,88.03L399.75,88.15z"></path>
    <path style="fill:#000020" d="M400.12,94.82L399.94,92.54L400.07,92.66z"></path>
    <path style="fill:#000020" d="M400.44,99.33L400.27,97.06L400.39,97.17z"></path>
    <path style="fill:#000020" d="M363.27,100.32L363.60,100.36L363.69,103.19L363.51,103.19z"></path>
    <path style="fill:#000020" d="M347.18,100.81L346.76,100.70L347.24,100.44z"></path>
    <path style="fill:#000020" d="M400.76,103.85L400.59,101.57L400.72,101.69z"></path>
    <path style="fill:#000020" d="M344.02,105.52L343.79,105.82L343.39,105.42L343.41,105.20z"></path>
    <path style="fill:#000020" d="M370.37,113.86L370.69,113.91L370.73,116.01z"></path>
    <path style="fill:#000020" d="M164.92,115.53L165.62,115.53L165.58,115.88L164.95,115.88z"></path>
    <path style="fill:#000020" d="M166.87,117.45L167.24,117.51L167.30,117.88L166.93,117.82z"></path>
    <path style="fill:#000020" d="M180.67,122.24L180.66,120.61L180.91,120.62z"></path>
    <path style="fill:#000020" d="M180.35,124.02L181.80,124.26L178.98,124.25L179.82,124.00L180.20,123.56z"></path>
    <path style="fill:#000020" d="M370.24,124.54L368.57,124.22L370.77,124.25z"></path>
    <path style="fill:#000020" d="M154.36,127.79L153.95,127.89L154.06,127.48z"></path>
    <path style="fill:#000020" d="M156.47,128.78L157.38,128.61L157.70,128.75z"></path>
    <path style="fill:#000020" d="M158.09,130.08L158.65,129.90L158.97,130.04z"></path>
    <path style="fill:#000020" d="M156.79,133.62L157.72,133.46L158.05,133.60z"></path>
    <path style="fill:#000020" d="M309.30,134.11L309.18,135.45L309.15,133.94z"></path>
    <path style="fill:#000020" d="M341.75,139.22L341.17,139.55L341.40,138.87L341.84,138.74z"></path>
    <path style="fill:#000020" d="M339.47,142.44L338.71,142.87L339.67,141.32L340.14,141.23z"></path>
    <path style="fill:#000020" d="M336.21,145.96L336.62,145.79L336.38,146.73z"></path>
    <path style="fill:#000020" d="M304.33,162.75L304.22,162.33L304.59,162.27z"></path>
    <path style="fill:#000020" d="M184.36,165.88L183.18,166.01L183.18,165.48z"></path>
    <path style="fill:#000020" d="M183.74,167.11L182.93,167.36L182.86,167.11L183.46,166.81z"></path>
    <path style="fill:#000020" d="M301.75,167.59L301.64,167.17L302.01,167.11z"></path>
    <path style="fill:#000020" d="M141.86,169.28L141.33,169.64L141.64,169.06L141.85,169.01z"></path>
    <path style="fill:#000020" d="M176.95,170.65L176.51,170.90L176.37,170.59L176.67,170.35z"></path>
    <path style="fill:#000020" d="M298.42,171.96L299.12,171.96L299.09,172.31L298.46,172.31z"></path>
    <path style="fill:#000020" d="M303.60,172.59L303.97,172.65L304.03,173.02L303.66,172.96z"></path>
    <path style="fill:#000020" d="M306.30,178.32L306.10,177.36L306.24,177.48z"></path>
    <path style="fill:#000020" d="M122.09,179.22L121.22,179.05L121.54,178.90L121.95,178.92L122.22,179.05z"></path>
    <path style="fill:#000020" d="M207.99,182.13L210.25,181.81L212.43,181.99z"></path>
    <path style="fill:#000020" d="M202.60,182.31L204.13,182.14L205.75,182.27z"></path>
    <path style="fill:#000020" d="M302.51,184.44L302.60,183.60L302.84,183.41L303.32,183.58z"></path>
    <path style="fill:#000020" d="M288.49,197.55L288.07,197.44L288.55,197.18z"></path>
    <path style="fill:#000020" d="M93.89,196.99L93.78,198.32L93.74,196.83z"></path>
    <path style="fill:#000020" d="M83.47,212.17L82.86,212.26L82.31,211.96L83.40,211.97z"></path>
    <path style="fill:#000020" d="M320.61,215.42L320.61,213.47L320.74,213.59z"></path>
    <path style="fill:#000020" d="M105.04,218.54L104.93,218.12L105.30,218.06z"></path>
    <path style="fill:#000020" d="M79.10,234.21L80.52,234.21L80.14,234.58L79.48,234.58z"></path>
    <path style="fill:#00001c" d="M376.90,22.90L376.73,21.95L376.86,22.04z"></path>
    <path style="fill:#00001c" d="M363.63,104.71L363.16,104.79L363.37,103.52L363.51,103.19L363.69,103.19z"></path>
    <path style="fill:#00001c" d="M360.43,106.97L359.21,106.82L360.54,106.80z"></path>
    <path style="fill:#00001c" d="M174.38,111.27L174.23,110.41L174.37,110.27z"></path>
    <path style="fill:#00001c" d="M180.90,117.01L180.45,117.60L180.30,116.44z"></path>
    <path style="fill:#00001c" d="M180.91,120.62L180.66,120.61L180.80,118.75z"></path>
    <path style="fill:#00001c" d="M349.33,121.59L349.15,120.58L349.47,120.04z"></path>
    <path style="fill:#00001c" d="M341.09,140.19L340.51,140.64L340.39,140.19L340.88,139.92z"></path>
    <path style="fill:#00001c" d="M161.49,142.22L161.30,141.25L161.45,141.36z"></path>
    <path style="fill:#00001c" d="M179.21,165.02L178.98,164.57L179.60,164.51z"></path>
    <path style="fill:#00001c" d="M187.61,167.46L186.91,167.46L186.82,167.11L187.26,167.11z"></path>
    <path style="fill:#00001c" d="M314.79,177.04L314.46,177.35L314.62,176.47z"></path>
    <path style="fill:#00001c" d="M297.55,182.44L297.27,181.90L297.60,181.58z"></path>
    <path style="fill:#00001c" d="M302.25,185.54L302.44,185.37L303.47,185.51z"></path>
    <path style="fill:#00001c" d="M295.09,223.50L295.05,222.27L295.32,222.19z"></path>
    <path style="fill:#00001c" d="M92.21,223.40L92.21,223.23L93.44,223.26z"></path>
    <path style="fill:#00001c" d="M78.36,247.40L78.02,247.74L77.76,247.03L78.05,247.07z"></path>
    <path style="fill:#e5e5e5" d="M368.66,12.92L368.96,12.32L370.41,12.33L370.11,13.11L369.57,13.16z"></path>
    <path style="fill:#e5e5e5" d="M351.12,93.90L353.67,97.16L352.37,97.53L350.64,98.52L349.96,98.56L349.97,98.20L351.61,97.18L352.37,96.94L352.04,95.87L350.38,93.94L350.00,93.59L350.73,93.59z"></path>
    <path style="fill:#e5e5e5" d="M346.24,104.57L345.82,104.68L345.93,104.26z"></path>
    <path style="fill:#e5e5e5" d="M364.34,106.63L363.76,107.07L364.21,105.87z"></path>
    <path style="fill:#e5e5e5" d="M363.67,107.62L363.11,108.03L363.32,107.27L363.76,107.07z"></path>
    <path style="fill:#e5e5e5" d="M353.65,109.10L353.67,112.13L353.00,114.05L352.70,113.98L352.67,113.25L352.40,112.94L351.60,112.93L350.43,114.06L350.20,115.10L349.42,115.34L349.46,114.75L350.11,113.41L350.00,109.11L353.06,107.79z"></path>
    <path style="fill:#e5e5e5" d="M363.03,108.59L362.46,108.99L362.68,108.24L363.11,108.03z"></path>
    <path style="fill:#e5e5e5" d="M177.60,109.69L176.26,111.80L175.66,111.72L174.38,111.27L174.37,110.27L174.87,109.41L175.99,109.14z"></path>
    <path style="fill:#e5e5e5" d="M362.44,109.31L362.04,109.89L362.01,109.24L362.46,108.99z"></path>
    <path style="fill:#e5e5e5" d="M348.93,110.59L348.68,109.75L348.80,109.73z"></path>
    <path style="fill:#e5e5e5" d="M361.49,110.57L360.85,111.26L361.09,110.45z"></path>
    <path style="fill:#e5e5e5" d="M360.77,111.82L360.21,112.22L360.42,111.47L360.85,111.26z"></path>
    <path style="fill:#e5e5e5" d="M360.18,112.53L359.78,113.12L359.76,112.47L360.21,112.22z"></path>
    <path style="fill:#e5e5e5" d="M349.13,112.44L348.38,113.95L347.42,113.97L348.18,113.42L348.83,111.81L348.93,110.59L349.11,110.75z"></path>
    <path style="fill:#e5e5e5" d="M359.23,113.80L358.59,114.48L358.84,113.67z"></path>
    <path style="fill:#e5e5e5" d="M358.51,115.04L357.95,115.45L358.16,114.69L358.59,114.48z"></path>
    <path style="fill:#e5e5e5" d="M351.11,115.55L350.45,115.57L350.20,115.10z"></path>
    <path style="fill:#e5e5e5" d="M357.87,116.01L357.30,116.41L357.52,115.66L357.95,115.45z"></path>
    <path style="fill:#e5e5e5" d="M357.28,116.73L356.88,117.31L356.85,116.66L357.30,116.41z"></path>
    <path style="fill:#e5e5e5" d="M356.33,117.99L355.69,118.68L355.93,117.86z"></path>
    <path style="fill:#e5e5e5" d="M171.45,118.52L171.80,118.48L171.80,119.18L171.45,119.15z"></path>
    <path style="fill:#e5e5e5" d="M355.61,119.24L355.05,119.64L355.26,118.89L355.69,118.68z"></path>
    <path style="fill:#e5e5e5" d="M354.96,120.20L354.40,120.60L354.61,119.85L355.05,119.64z"></path>
    <path style="fill:#e5e5e5" d="M354.38,120.92L353.98,121.50L353.95,120.85L354.40,120.60z"></path>
    <path style="fill:#e5e5e5" d="M338.46,121.71L339.15,122.64L337.74,123.33L336.88,123.33L336.88,121.79L337.41,121.33L337.85,121.31z"></path>
    <path style="fill:#e5e5e5" d="M342.46,121.89L342.71,124.07L341.95,124.93L340.02,125.89L338.04,125.88L339.53,125.41L340.42,124.00L340.41,122.11L341.63,121.65L342.33,121.67z"></path>
    <path style="fill:#e5e5e5" d="M353.43,122.18L352.79,122.87L353.03,122.06z"></path>
    <path style="fill:#e5e5e5" d="M164.05,124.56L164.40,124.92L164.34,125.61L163.96,125.91L163.39,127.60L161.96,128.74L158.97,130.04L158.65,129.90L159.84,128.23L160.50,126.96L160.49,124.90L160.09,123.59L162.98,122.27L163.36,122.32z"></path>
    <path style="fill:#e5e5e5" d="M352.71,123.43L352.15,123.83L352.36,123.08L352.79,122.87z"></path>
    <path style="fill:#e5e5e5" d="M352.12,124.14L351.72,124.73L351.69,124.08L352.15,123.83z"></path>
    <path style="fill:#e5e5e5" d="M158.78,124.22L159.15,124.23L159.53,126.62L158.75,128.12L157.70,128.75L157.38,128.61L158.24,127.93L158.89,126.32z"></path>
    <path style="fill:#e5e5e5" d="M351.17,125.41L350.53,126.09L350.77,125.28z"></path>
    <path style="fill:#e5e5e5" d="M350.45,126.65L349.89,127.06L350.10,126.30L350.53,126.09z"></path>
    <path style="fill:#e5e5e5" d="M349.80,127.62L349.24,128.02L349.45,127.27L349.89,127.06z"></path>
    <path style="fill:#e5e5e5" d="M349.22,128.33L348.82,128.92L348.79,128.27L349.24,128.02z"></path>
    <path style="fill:#e5e5e5" d="M156.56,129.75L156.60,130.53L155.87,131.08L155.32,131.06L155.30,129.46L155.66,129.09z"></path>
    <path style="fill:#e5e5e5" d="M158.59,133.26L158.05,133.60L157.72,133.46L158.23,132.66z"></path>
    <path style="fill:#e5e5e5" d="M188.76,140.41L188.12,140.53L188.15,138.71L188.50,138.73z"></path>
    <path style="fill:#e5e5e5" d="M168.25,141.94L166.60,145.01L166.08,145.12L166.79,143.58L167.58,142.29L167.16,141.64L167.93,141.63z"></path>
    <path style="fill:#e5e5e5" d="M166.08,145.12L165.91,145.36L165.53,145.32L165.62,144.91z"></path>
    <path style="fill:#e5e5e5" d="M124.37,158.13L125.52,158.10L126.26,157.73L126.34,159.52L101.46,200.80L101.12,201.63L100.06,203.28L99.54,203.31L98.28,202.59L94.40,199.37L93.78,198.32L93.89,196.99L117.13,158.73L118.12,157.79L119.56,157.51z"></path>
    <path style="fill:#e5e5e5" d="M223.40,157.91L222.58,157.91L222.58,157.47L223.40,157.47z"></path>
    <path style="fill:#e5e5e5" d="M230.79,161.13L230.35,161.13L230.35,160.70L230.79,160.70z"></path>
    <path style="fill:#e5e5e5" d="M188.86,165.54L188.24,166.00L188.14,164.19L188.50,164.20z"></path>
    <path style="fill:#e5e5e5" d="M166.30,167.81L165.96,169.19L164.87,170.67L162.09,172.12L162.07,171.11L162.44,170.50L162.31,165.87L165.67,164.59z"></path>
    <path style="fill:#e5e5e5" d="M304.37,169.11L304.33,169.49L302.27,170.19L302.37,168.54L302.92,168.08L303.34,168.08z"></path>
    <path style="fill:#e5e5e5" d="M307.88,168.74L308.21,170.82L305.93,172.42L304.83,172.75L305.26,171.43L305.91,170.69L305.93,168.87L306.78,168.41L307.56,168.38z"></path>
    <path style="fill:#e5e5e5" d="M319.98,169.11L321.07,168.73L320.42,169.83L320.10,169.75z"></path>
    <path style="fill:#e5e5e5" d="M263.37,170.67L263.65,171.79L262.60,172.12L262.62,170.34L263.03,170.29z"></path>
    <path style="fill:#e5e5e5" d="M161.47,169.53L160.86,170.54L159.97,170.93L161.14,168.89L161.45,167.44z"></path>
    <path style="fill:#e5e5e5" d="M159.83,171.13L158.73,171.02L159.97,170.93z"></path>
    <path style="fill:#e5e5e5" d="M125.67,175.86L125.59,177.18L124.26,178.12L122.22,179.05L121.95,178.92L122.75,177.90L123.43,176.54L123.29,175.22L125.04,174.51z"></path>
    <path style="fill:#e5e5e5" d="M121.54,174.83L121.85,175.66L121.49,175.98L119.75,176.32L119.84,174.66L121.15,174.54z"></path>
    <path style="fill:#e5e5e5" d="M200.54,177.08L200.36,175.87L202.45,175.23L202.42,177.27z"></path>
    <path style="fill:#e5e5e5" d="M297.54,180.05L297.60,181.58L297.27,181.90L296.51,181.30L296.52,181.00L295.46,180.97L294.94,182.07L294.87,183.43L295.23,183.41L295.60,182.61L295.83,183.73L296.78,183.55L297.25,183.28L296.76,184.54L292.93,186.51L290.63,186.50L292.59,186.17L293.68,184.68L293.92,183.64L294.29,183.34L293.87,180.07L296.95,178.74z"></path>
    <path style="fill:#e5e5e5" d="M121.54,178.90L121.22,179.05L120.71,178.73z"></path>
    <path style="fill:#e5e5e5" d="M293.04,181.31L293.04,183.72L292.71,184.35L291.66,185.23L290.33,185.23L291.72,184.66L292.67,183.03L292.67,180.69z"></path>
    <path style="fill:#e5e5e5" d="M285.33,192.67L284.18,192.72L284.18,192.35L285.03,191.97z"></path>
    <path style="fill:#e5e5e5" d="M238.08,192.00L239.38,191.32L240.46,191.31L240.48,193.37L239.27,193.23L238.18,192.95z"></path>
    <path style="fill:#e5e5e5" d="M284.89,193.21L285.57,193.25L287.24,197.47L286.14,197.59L285.60,195.21z"></path>
    <path style="fill:#e5e5e5" d="M263.37,195.80L263.72,197.53L262.71,197.56L262.71,195.60L263.07,195.49z"></path>
    <path style="fill:#e5e5e5" d="M130.58,186.66L124.97,195.95L125.00,196.97L124.35,197.55L121.77,200.49L121.79,199.88L130.08,186.43z"></path>
    <path style="fill:#e5e5e5" d="M258.85,188.85L252.76,194.39L246.87,196.92L246.79,196.57L255.97,190.51L258.46,188.72z"></path>
    <path style="fill:#e5e5e5" d="M86.02,215.51L82.95,216.79L82.32,216.92L82.31,216.54L85.05,215.18L82.86,212.26L83.47,212.17z"></path>
    <path style="fill:#e5e5e5" d="M290.56,222.17L290.31,221.33L290.43,221.31z"></path>
    <path style="fill:#e5e5e5" d="M290.78,224.03L289.72,225.56L288.73,225.55L289.80,224.66L290.45,223.38L290.56,222.17L290.74,222.32z"></path>
    <path style="fill:#e5e5e5" d="M97.59,226.61L97.58,225.98L98.18,225.47L98.55,225.48z"></path>
    <path style="fill:#e5e5e5" d="M85.99,228.10L85.99,229.82L85.67,231.11L85.37,231.45L85.04,232.68L84.75,232.66L84.04,233.04L84.09,232.43L84.37,231.93L83.64,231.93L81.79,233.70L81.77,233.06L82.45,231.44L82.11,227.58L85.36,226.18z"></path>
    <path style="fill:#e5e5e5" d="M95.12,229.24L93.72,230.80L93.72,230.18L95.07,229.08z"></path>
    <path style="fill:#e5e5e5" d="M81.07,231.68L80.11,232.64L78.45,232.62L80.17,232.06L81.02,230.30L81.18,230.35z"></path>
    <path style="fill:#e5e5e5" d="M82.44,233.67L83.06,233.52L82.77,234.32L82.43,234.26z"></path>
    <path style="fill:#e5e5e5" d="M91.25,233.43L89.85,234.99L89.85,234.37L91.20,233.28z"></path>
    <path style="fill:#e5e5e5" d="M17.70,237.12L17.65,237.57L16.60,237.47L16.24,237.13L17.34,236.76z"></path>
    <path style="fill:#e5e5e5" d="M87.38,237.62L85.98,239.19L85.98,238.56L87.33,237.47z"></path>
    <path style="fill:#e5e5e5" d="M83.51,241.81L82.11,243.38L82.11,242.75L83.46,241.66z"></path>
    <path style="fill:#e5e5e5" d="M79.64,246.00L78.36,247.40L78.05,247.07L79.59,245.85z"></path>
    <path style="fill:#e5e5e5" d="M108.93,254.86L108.93,255.62L105.21,259.68L77.19,271.66L76.19,271.63L81.04,266.79L92.02,260.35L104.40,255.18L103.94,254.20L104.77,254.03L108.03,254.04z"></path>
    <path style="fill:#ffffff" d="M162.12,125.02L161.84,125.77L161.33,125.66L161.38,125.00L161.68,124.58L162.74,124.56z"></path>
    <path style="fill:#ffffff" d="M161.84,125.77L162.65,125.19L163.39,125.20L163.42,126.32L162.65,127.22L162.09,127.19z"></path>
    <path style="fill:#ffffff" d="M165.68,167.74L165.67,168.88L165.21,169.42L164.25,169.41L164.24,168.08L163.69,169.18L163.40,169.13L163.59,167.46L164.26,166.79L164.96,166.78L164.98,167.55L165.36,167.48z"></path>
    <path style="fill:#ffffff" d="M176.17,171.70L175.54,171.78L175.45,171.54L176.32,171.21z"></path>
    <path style="fill:#ffffff" d="M309.97,220.70L309.34,220.79L309.34,220.42L310.74,219.67z"></path>
    <g id="Actor_.0">
      <g style="stroke:#000000;stroke-width:0.176">
        <path d="M164.39,114.15L165.92,114.14L167.53,114.84L169.05,116.17L170.11,117.68"></path>
      </g>
      <g style="stroke:#000000;stroke-width:0.529">
        <path d="M163.54,114.62L164.39,114.15L165.28,113.77L166.81,113.76L168.42,114.46L169.94,115.79L171.21,117.61L172.07,119.68"></path>
      </g>
    </g>
    <g id="Actor_.1">
      <g style="stroke:#000000;stroke-width:0.176">
        <path d="M357.61,96.36L357.60,96.37"></path>
        <path d="M363.65,101.01L363.48,100.80L361.73,98.67L361.55,98.55"></path>
      </g>
      <g style="stroke:#000000;stroke-width:0.529">
        <path d="M363.68,98.12L363.51,97.92L361.50,96.51L359.45,95.97L357.61,96.36L357.60,96.36"></path>
      </g>
    </g>
    <g id="Actor_.2">
      <g style="stroke:#000000;stroke-width:0.176">
        <path d="M303.07,183.57L304.25,182.67L305.02,181.17L305.29,179.24L305.02,177.09L304.25,174.95L303.07,173.05L301.59,171.59L299.98,170.74L298.41,170.59L297.49,170.97"></path>
      </g>
      <g style="stroke:#000000;stroke-width:0.529">
        <path d="M301.84,170.88L300.87,170.36L299.31,170.21L297.96,170.77L297.49,170.97"></path>
        <path d="M302.54,183.64L303.07,183.57L303.96,183.19L305.14,182.29L305.91,180.80L306.18,178.87L305.91,176.72L305.14,174.57L304.72,173.89"></path>
      </g>
    </g>
    <g id="Actor_.3">
      <g style="stroke:#000000;stroke-width:0.176">
        <path d="M295.21,206.26L364.59,106.42"></path>
        <path d="M301.32,224.96L371.23,124.35"></path>
        <path d="M309.14,221.09L308.88,221.13L308.78,221.06L308.78,220.90L308.90,220.69L309.11,220.43L309.40,220.16L309.73,219.91L310.06,219.70L310.37,219.56L310.61,219.50L310.77,219.52L310.82,219.64L310.75,219.82L310.59,220.06L310.33,220.33L310.02,220.59L309.69,220.83L309.36,221.01L309.14,221.09"></path>
      </g>
      <g style="stroke:#000000;stroke-width:0.529">
        <path d="M295.15,206.00L364.46,106.25"></path>
        <path d="M382.87,120.31L313.11,220.70L312.58,221.06L303.22,225.02L302.52,225.17L301.72,225.11L300.91,224.82L300.65,224.67L301.29,223.00L301.39,221.08L301.38,220.90L301.06,218.52L300.22,216.16L298.93,214.04L297.62,212.69"></path>
      </g>
    </g>
    <g id="Actor_.4">
      <g style="stroke:#000000;stroke-width:0.176">
        <path d="M360.43,17.71L360.29,18.23L360.35,18.80L362.37,25.87L362.64,26.45L363.09,27.01L364.54,28.47L364.85,28.85L365.16,29.39L365.36,29.99L365.44,30.48L371.74,117.64L371.73,118.10L371.64,118.51L371.47,118.85L368.54,123.05L368.29,123.49L368.21,123.84L367.48,122.88"></path>
        <path d="M365.16,29.39L377.41,24.22"></path>
        <path d="M366.75,14.46L366.99,14.15L367.13,13.63L367.01,12.41L367.22,11.84"></path>
        <path d="M368.21,123.84L368.30,124.06"></path>
        <path d="M371.09,14.24L371.33,14.08L371.49,13.78L371.50,13.43L371.34,13.06L371.04,12.72L370.62,12.43L370.14,12.23L369.65,12.15L369.19,12.18L368.83,12.34L368.59,12.59L368.50,12.92L368.56,13.18"></path>
        <path d="M371.68,118.30L400.65,106.06"></path>
        <path d="M378.53,26.41L379.02,26.67L379.72,26.68L380.44,26.38L381.10,25.79L381.63,24.99L381.98,24.04L382.08,23.45L382.02,22.77L381.79,22.17L381.41,21.66L381.18,21.44L380.67,21.13L379.73,20.76L378.76,20.61L377.88,20.69L377.16,20.99L376.69,21.49L376.51,22.12L376.52,22.16"></path>
        <path d="M381.85,22.34L394.13,17.15"></path>
      </g>
      <g style="stroke:#000000;stroke-width:0.529">
        <path d="M360.61,21.88L359.98,19.68L359.92,19.11L360.05,18.59L360.43,17.71L360.76,17.28L361.27,16.96L366.15,14.90L366.66,14.59L366.75,14.46L366.64,13.29L366.85,12.72L367.22,11.84L367.67,11.39L368.34,11.11L369.15,11.02L370.04,11.13L371.70,11.70L372.48,11.83L373.22,11.81L373.87,11.64L378.75,9.57L379.41,9.40L380.15,9.38L380.92,9.51L381.69,9.78L390.75,13.88L391.46,14.27L392.06,14.77L393.50,16.23L393.82,16.61L394.13,17.15L394.33,17.75L394.41,18.24L400.70,105.39L400.70,105.85L400.60,106.26L400.44,106.60L397.51,110.81L397.11,111.31L396.58,111.85L395.97,112.37L395.30,112.86L387.22,118.30L386.56,118.71L385.94,119.01L373.60,124.23L373.07,124.41L372.66,124.45L368.56,124.16L368.30,124.06L367.57,123.11L367.48,122.88L367.56,122.53L367.81,122.10L370.73,117.89L370.81,117.74L370.84,117.57L370.85,117.37L364.55,30.22L364.52,30.01L364.43,29.75L364.30,29.52L364.17,29.36L362.72,27.90L362.27,27.34L362.00,26.75L360.61,21.88"></path>
        <path d="M369.63,14.22L370.12,14.36L370.61,14.39L371.02,14.29L371.09,14.24L370.97,13.95L370.66,13.60L370.25,13.31L369.77,13.11L369.28,13.03L368.82,13.07L368.56,13.18L368.58,13.29L368.82,13.65L369.18,13.98L369.63,14.22"></path>
        <path d="M377.84,25.48L377.77,25.27L377.70,24.98L377.49,24.39L377.21,23.80L376.86,23.26L376.64,22.84L376.52,22.16L376.79,21.87L377.51,21.57L378.39,21.49L379.36,21.65L380.30,22.02L380.81,22.32L381.03,22.51L381.15,22.69L381.21,22.91L381.20,23.18L381.09,23.77L380.74,24.72L380.21,25.53L379.55,26.11L378.84,26.42L378.53,26.41L378.41,26.35L377.95,25.74L377.84,25.48"></path>
      </g>
    </g>
    <g id="Actor_.5">
      <g style="stroke:#000000;stroke-width:0.176">
        <path d="M345.80,104.25L345.59,104.22L345.27,104.31L344.87,104.50L344.44,104.78L344.02,105.11L343.67,105.46L343.42,105.78L343.31,106.04L343.33,106.06"></path>
        <path d="M343.31,106.04L343.28,105.78"></path>
        <path d="M352.95,113.59L352.75,113.56L352.43,113.65L352.03,113.84L351.60,114.12L351.18,114.45L350.83,114.80L350.58,115.12L350.47,115.38L350.68,115.25L350.72,115.30L350.46,115.48"></path>
        <path d="M350.72,115.30L350.80,115.39L350.99,115.39L351.27,115.29L351.30,115.28L351.60,115.12L351.95,114.88L352.27,114.61L352.53,114.34L352.69,114.11L352.70,114.09L352.77,113.90L352.71,113.79L352.55,113.76L352.29,113.83L351.97,113.99L351.62,114.21L351.29,114.48L351.01,114.75L350.81,115.01L350.72,115.22L350.68,115.25"></path>
        <path d="M350.47,115.38L349.98,114.75"></path>
      </g>
      <g style="stroke:#000000;stroke-width:0.529">
        <path d="M343.30,106.08L343.27,105.79L343.28,105.78L343.27,105.70L343.37,105.48L343.59,105.19L343.90,104.89L344.10,104.73L344.27,104.59L344.65,104.35L345.01,104.17L345.06,104.16L345.29,104.10L345.47,104.12L345.80,104.25L346.10,104.64"></path>
        <path d="M352.42,112.89L352.95,113.59L353.02,113.73L352.94,113.97L352.73,114.27L352.40,114.62L352.00,114.96L351.56,115.25L351.15,115.47L350.81,115.59L350.57,115.59L350.46,115.48L349.96,114.82"></path>
      </g>
    </g>
    <g id="Actor_.6">
      <g style="stroke:#000000;stroke-width:0.176">
        <path d="M343.28,109.57L343.44,108.57L343.86,107.81L344.49,107.37L345.27,107.29L346.12,107.58L346.62,107.97L346.93,108.21L347.30,108.64L347.62,109.12L348.12,110.20L348.38,111.34L348.36,112.41L348.07,113.30L347.53,113.91L346.81,114.18L345.99,114.07L345.15,113.60"></path>
        <path d="M344.60,106.98L345.45,106.89L346.36,107.21L347.25,107.90L347.64,108.36L348.00,108.89L348.55,110.06L348.82,111.30L348.81,111.88L348.80,112.47L348.48,113.43L347.90,114.10"></path>
        <path d="M348.25,113.95L348.08,114.02"></path>
      </g>
      <g style="stroke:#000000;stroke-width:0.529">
        <path d="M348.24,113.96L348.08,114.02L347.90,114.10L347.12,114.39L346.23,114.27L345.32,113.76L345.15,113.60L344.39,112.82L343.78,111.81L343.40,110.69L343.28,109.57L343.28,109.37L343.45,108.29L343.91,107.47L344.60,106.98L345.09,106.80"></path>
      </g>
    </g>
    <g id="Actor_.7">
      <g style="stroke:#000000;stroke-width:0.176">
        <path d="M155.66,166.74L155.73,165.69L156.07,164.84L156.64,164.29L157.38,164.09L158.22,164.26L159.05,164.79L159.79,165.62L160.36,166.65L160.70,167.79L160.77,168.89L160.56,169.85L160.10,170.57L159.44,170.95L158.64,170.96L158.22,170.83L157.79,170.61L157.00,169.92"></path>
        <path d="M159.76,171.15L160.49,170.73L160.99,169.96L161.21,168.92L161.21,168.82L161.14,167.71L160.77,166.48L160.15,165.36L159.34,164.46L158.44,163.88L157.53,163.69L156.73,163.91"></path>
        <path d="M160.74,170.35L161.09,170.15"></path>
      </g>
      <g style="stroke:#000000;stroke-width:0.529">
        <path d="M157.37,163.64L156.73,163.91L156.11,164.51L155.74,165.43L155.66,166.57L155.66,166.74L155.87,167.87L156.33,168.97L157.00,169.92L157.11,170.03L157.98,170.78L158.44,171.02L158.90,171.16L159.76,171.15L160.45,170.86"></path>
      </g>
    </g>
    <g id="Actor_.8">
      <g style="stroke:#000000;stroke-width:0.176">
        <path d="M353.32,97.04L353.01,96.84L352.38,96.90L351.51,97.23L350.49,97.78L349.43,98.50L348.44,99.31L348.34,99.42L346.78,100.74L346.66,100.99"></path>
        <path d="M358.04,106.47L357.96,106.14L356.54,103.38L354.66,101.13L352.51,99.62L350.32,99.03L348.34,99.42L353.30,97.32"></path>
        <path d="M349.27,99.02L349.62,98.73L350.39,98.21L351.12,97.81L351.75,97.58L352.20,97.53L352.42,97.68L352.42,97.69"></path>
      </g>
      <g style="stroke:#000000;stroke-width:0.529">
        <path d="M363.65,101.38L363.23,100.56L361.34,98.30L359.19,96.80L357.01,96.20L355.03,96.59L353.30,97.32L353.32,97.04L350.97,93.88L350.66,93.67L350.04,93.73L349.17,94.06L348.15,94.61L347.08,95.33L346.10,96.14L345.29,96.96L344.98,97.33L344.75,97.68L344.54,98.24L344.68,98.58L346.52,101.05"></path>
      </g>
    </g>
    <g id="Actor_.9">
      <g style="stroke:#000000;stroke-width:0.176">
        <path d="M340.87,104.09L340.70,105.11L340.04,105.33L339.54,105.67L309.38,133.94L309.03,134.48"></path>
        <path d="M336.40,119.28L315.07,139.27"></path>
        <path d="M335.70,147.65L335.51,147.00L335.50,146.88"></path>
        <path d="M341.13,139.83L339.79,141.09"></path>
        <path d="M340.70,105.11L341.47,105.01L342.29,105.04L343.59,105.19"></path>
      </g>
      <g style="stroke:#000000;stroke-width:0.529">
        <path d="M344.05,104.21L342.46,104.02L341.64,103.99L340.87,104.09L340.21,104.32L339.71,104.65L309.55,132.93L309.20,133.46L309.03,134.48L309.02,135.08L309.34,135.70L309.97,136.25L313.75,138.77L314.12,138.76L314.54,138.85L314.87,138.98L315.02,139.13L315.09,139.31L315.10,139.51L314.94,139.89L317.17,145.25"></path>
        <path d="M324.72,163.45L324.19,162.16"></path>
        <path d="M336.40,146.63L336.35,145.73"></path>
        <path d="M340.22,141.14L338.67,142.59"></path>
      </g>
    </g>
    <g id="Actor_.10">
      <g style="stroke:#000000;stroke-width:0.176">
        <path d="M347.07,107.44L346.59,107.06L345.66,106.74L344.80,106.83L344.10,107.32L344.09,107.34"></path>
        <path d="M344.23,105.43L345.42,105.30L346.70,105.75L347.94,106.71L348.50,107.36L349.00,108.09L349.61,109.42L349.76,109.74L350.15,111.47L350.12,113.10L349.67,114.46L348.86,115.39"></path>
        <path d="M347.36,114.35L348.18,114.02L348.15,114.06L347.36,114.35L347.25,114.34"></path>
        <path d="M349.52,115.11L350.02,114.90"></path>
        <path d="M348.18,114.02L348.74,113.38L349.07,112.40L349.07,112.19"></path>
        <path d="M349.99,114.85L349.97,114.85L349.97,114.83"></path>
        <path d="M350.15,114.48L350.17,114.45L350.27,114.31"></path>
        <path d="M350.00,114.72L350.01,114.70L350.07,114.60"></path>
        <path d="M349.99,114.76L349.97,114.82"></path>
        <path d="M350.39,114.15L350.42,114.11L350.56,113.94"></path>
        <path d="M351.08,113.39L351.11,113.36L351.30,113.20"></path>
        <path d="M350.91,113.56L350.74,113.73L350.71,113.76"></path>
        <path d="M352.44,112.91L352.43,112.90L352.43,112.90"></path>
        <path d="M352.04,112.84L351.87,112.86L351.85,112.87"></path>
        <path d="M351.47,113.07L351.50,113.05L351.68,112.96"></path>
        <path d="M352.33,112.86L352.20,112.81L352.18,112.81"></path>
      </g>
      <g style="stroke:#000000;stroke-width:0.529">
        <path d="M350.03,114.91L349.52,115.11L348.86,115.39L347.77,115.79L346.52,115.63L345.24,114.91L344.08,113.72L343.15,112.19L343.13,112.11L342.57,110.48L342.39,108.77L342.63,107.26L343.16,106.29L343.27,106.10L344.23,105.43L347.80,103.92L348.99,103.80L350.27,104.24L351.51,105.21L352.06,105.85L352.56,106.59L353.15,107.86L353.33,108.23L353.71,109.96L353.68,111.60L353.24,112.95L352.83,113.42"></path>
        <path d="M349.07,112.19L349.09,111.22L348.81,109.96L348.25,108.77L347.89,108.23L347.49,107.76L347.07,107.44"></path>
      </g>
    </g>
    <g id="Actor_.11">
      <g style="stroke:#000000;stroke-width:0.176">
        <path d="M314.35,219.31L314.35,219.31"></path>
      </g>
      <g style="stroke:#000000;stroke-width:0.529">
        <path d="M300.11,225.35L301.16,224.90"></path>
        <path d="M316.28,216.13L316.28,216.20L315.57,218.07L314.35,219.31L313.96,219.48"></path>
      </g>
    </g>
    <g id="Actor_.12">
      <g style="stroke:#000000;stroke-width:0.176">
        <path d="M93.67,197.47L93.88,196.93L116.96,158.71L117.50,158.13L118.30,157.72L118.40,156.80"></path>
        <path d="M126.71,158.96L100.34,202.62"></path>
        <path d="M118.30,157.72L119.28,157.52L120.31,157.56L125.49,158.34L125.67,158.57L125.98,158.79L126.31,158.92L126.56,158.95L126.77,158.96L126.95,158.93L127.27,158.73L128.76,159.98"></path>
        <path d="M120.88,201.30L129.56,186.92L130.05,186.42L130.69,186.22L130.76,186.23"></path>
        <path d="M125.91,157.76L125.82,158.68"></path>
        <path d="M125.49,158.34L125.59,157.42"></path>
        <path d="M128.16,158.36L127.27,158.73"></path>
        <path d="M127.32,158.71L127.41,158.65"></path>
        <path d="M145.87,174.24L140.82,170.04"></path>
      </g>
      <g style="stroke:#000000;stroke-width:0.529">
        <path d="M129.29,159.30L128.16,158.36L127.84,158.41L127.52,158.35L127.03,158.19L126.40,158.00L126.07,157.88L125.76,157.65L125.59,157.42L120.41,156.64L119.37,156.60L118.40,156.80L117.60,157.21L117.06,157.79L93.97,196.01L93.77,196.56L93.67,197.47L93.69,198.05L93.93,198.61L94.37,199.13L98.59,202.88L98.93,202.92L99.30,203.02L99.59,203.16L99.68,203.26L99.75,203.38"></path>
        <path d="M102.71,212.34L105.00,218.49"></path>
        <path d="M133.35,187.80L132.14,186.79L131.41,186.35L130.76,186.23L130.45,186.55L122.80,199.22"></path>
        <path d="M146.45,173.61L141.36,169.36"></path>
      </g>
    </g>
    <g id="Actor_.13">
      <g style="stroke:#000000;stroke-width:0.176">
        <path d="M364.19,29.38L363.63,104.35"></path>
        <path d="M379.08,21.60L379.05,26.33"></path>
      </g>
      <g style="stroke:#000000;stroke-width:0.529">
        <path d="M370.63,114.30L364.24,105.97L363.84,105.31L363.63,104.65L364.19,29.38"></path>
      </g>
    </g>
    <g id="Actor_.14">
      <g style="stroke:#000000;stroke-width:0.176">
        <path d="M100.43,223.44L99.66,223.33L98.36,222.63L97.14,221.49L96.39,220.40"></path>
        <path d="M100.79,222.23L99.01,222.98"></path>
      </g>
      <g style="stroke:#000000;stroke-width:0.529">
        <path d="M89.81,214.81L90.32,214.60L91.00,214.56"></path>
        <path d="M97.61,218.84L97.90,219.25L98.92,220.74L100.14,221.88L101.30,222.50"></path>
      </g>
    </g>
    <g id="Actor_.15">
      <g style="stroke:#000000;stroke-width:0.176">
        <path d="M154.77,127.56L155.57,128.25L155.99,128.47L156.41,128.61L157.21,128.59L157.87,128.21L158.33,127.50L158.54,126.54L158.47,125.43L158.13,124.30L157.56,123.26L156.82,122.43L155.99,121.90L155.16,121.73L154.41,121.93L153.84,122.49L153.50,123.33L153.43,124.38"></path>
        <path d="M154.50,121.55L155.31,121.34L156.21,121.52L157.11,122.10L157.92,123.00L158.54,124.13L158.91,125.36L158.99,126.56L158.76,127.61L158.26,128.38L157.54,128.79"></path>
        <path d="M158.51,127.99L159.06,127.69"></path>
        <path d="M159.03,127.71L159.07,127.69"></path>
      </g>
      <g style="stroke:#000000;stroke-width:0.529">
        <path d="M157.96,128.62L157.54,128.79L156.67,128.81L156.21,128.66L155.75,128.42L154.88,127.67L154.77,127.56L154.10,126.62L153.64,125.52L153.43,124.38L153.43,124.22L153.51,123.08L153.88,122.16L154.50,121.55L154.92,121.37"></path>
      </g>
    </g>
    <g id="Actor_.16">
      <g style="stroke:#000000;stroke-width:0.176">
        <path d="M154.85,165.01L76.61,249.71"></path>
        <path d="M88.59,260.79L166.17,176.80"></path>
        <path d="M175.51,171.36L175.89,171.08L176.24,170.86L176.57,170.69L176.85,170.59L177.04,170.56L177.13,170.60L177.10,170.73L176.96,170.91L176.72,171.13L176.42,171.37L176.07,171.60L175.73,171.80L175.42,171.94L175.18,172.01L175.04,172.00L175.01,171.91L175.06,171.83"></path>
        <path d="M178.09,169.00L182.91,166.96L183.46,166.59"></path>
      </g>
      <g style="stroke:#000000;stroke-width:0.529">
        <path d="M154.91,164.46L76.37,249.49"></path>
        <path d="M183.85,165.70L183.80,166.02L183.46,166.59L101.91,254.88"></path>
      </g>
    </g>
    <g id="Actor_.17">
      <g style="stroke:#000000;stroke-width:0.176">
        <path d="M75.28,248.46L11.48,244.31"></path>
        <path d="M77.70,246.60L75.93,247.34L75.71,247.47L75.52,247.65L75.29,248.15L75.26,248.77L75.44,249.47L75.81,250.17L84.24,262.95L84.43,263.30"></path>
        <path d="M77.93,247.80L76.18,248.54L76.08,248.61L76.03,248.68L76.00,248.78L76.01,248.90L76.12,249.17L76.36,249.48L76.70,249.79L82.76,258.98"></path>
      </g>
      <g style="stroke:#000000;stroke-width:0.529">
        <path d="M78.40,267.47L16.49,254.70L16.20,254.59L15.91,254.39L15.65,254.11L15.44,253.76L11.50,245.99L11.36,245.30L11.38,244.61L11.57,244.00L11.73,243.76L11.91,243.51L12.35,243.21L25.05,237.84L25.57,237.74L79.80,241.27"></path>
        <path d="M85.25,262.80L85.14,262.57L82.76,258.98"></path>
      </g>
    </g>
    <g id="Actor_.18">
      <g style="stroke:#000000;stroke-width:0.176">
        <path d="M76.21,223.97L77.37,223.74L78.64,224.07L79.90,224.95L81.00,226.26L81.83,227.87L82.29,229.60L82.34,231.26L81.97,232.68L81.22,233.70L80.17,234.21"></path>
        <path d="M79.26,225.89L78.60,225.42L77.67,225.18L76.83,225.35L76.52,225.61"></path>
        <path d="M77.20,225.27L77.13,225.32"></path>
        <path d="M79.43,232.77L79.71,232.78L80.47,232.41L81.01,231.67L81.28,230.64L81.28,230.63"></path>
        <path d="M81.93,233.41L82.02,233.31"></path>
        <path d="M82.03,233.30L82.14,233.17"></path>
        <path d="M81.88,233.47L81.87,233.48L81.87,233.51"></path>
        <path d="M82.19,233.12L82.35,232.95"></path>
        <path d="M82.50,232.79L82.56,232.74L82.69,232.61"></path>
        <path d="M83.67,231.84L83.73,231.81L83.87,231.76"></path>
        <path d="M83.08,232.26L82.93,232.38L82.87,232.44"></path>
        <path d="M84.19,231.69L84.08,231.69L84.04,231.70"></path>
        <path d="M83.49,231.96L83.33,232.05L83.27,232.10"></path>
        <path d="M84.42,231.75L84.35,231.69L84.32,231.69"></path>
      </g>
      <g style="stroke:#000000;stroke-width:0.529">
        <path d="M77.43,223.45L76.21,223.97L75.30,224.74L74.74,225.98L74.57,227.54L74.83,229.26L75.49,230.96L75.94,231.73L76.47,232.43L77.66,233.54L78.94,234.16L80.17,234.21L81.87,233.54"></path>
        <path d="M77.77,223.30L77.53,223.41"></path>
        <path d="M77.98,223.22L78.17,223.13"></path>
        <path d="M81.28,230.63L81.24,229.43L80.91,228.18L80.31,227.01L79.51,226.06L79.26,225.89"></path>
        <path d="M78.46,223.01L78.33,223.07"></path>
        <path d="M78.56,222.98L79.78,222.46L80.93,222.23L82.21,222.57L83.46,223.44L84.56,224.75L85.39,226.36L85.85,228.09L85.90,229.75L85.54,231.17L84.79,232.19L84.76,232.21"></path>
      </g>
    </g>
    <g id="Actor_.19">
      <g style="stroke:#000000;stroke-width:0.176">
        <path d="M360.22,107.00L359.90,107.26L358.83,107.76L357.58,107.75L356.27,107.23L355.00,106.23L353.90,104.85L352.15,102.72L350.13,101.31L348.09,100.77L346.24,101.16"></path>
        <path d="M347.43,130.15L364.24,105.96"></path>
        <path d="M356.92,107.49L358.70,106.73"></path>
      </g>
      <g style="stroke:#000000;stroke-width:0.529">
        <path d="M363.63,104.45L363.24,104.64L360.22,107.00L359.36,107.00L358.05,106.47L356.79,105.48L355.68,104.10L353.93,101.97L351.92,100.56L349.87,100.01L348.03,100.41L346.24,101.16L344.81,102.45L343.94,104.48L343.91,104.88"></path>
        <path d="M348.03,129.89L347.43,130.15L347.19,129.24L347.14,128.35L347.30,127.57L349.05,122.88L349.36,121.38L349.29,119.67L348.85,117.90L348.06,116.22L347.74,115.79"></path>
      </g>
    </g>
    <g id="Actor_.20">
      <g style="stroke:#000000;stroke-width:0.176">
        <path d="M77.09,231.84L77.91,232.42L78.75,232.64L79.51,232.49L80.11,231.98L80.48,231.17L80.59,230.14L80.41,229.01L79.99,227.90L79.69,227.38L79.34,226.92L79.06,226.66L78.56,226.20L77.71,225.79L76.91,225.76L76.22,226.09L75.73,226.76L75.48,227.69"></path>
        <path d="M79.86,232.68L80.51,232.13L80.92,231.24L81.03,230.13L80.85,228.90L80.58,228.22L80.38,227.69L80.05,227.13L79.68,226.63L78.83,225.84L77.91,225.40L77.03,225.36"></path>
      </g>
      <g style="stroke:#000000;stroke-width:0.529">
        <path d="M80.23,232.53L79.86,232.68L79.04,232.85L78.13,232.60L77.23,231.98L77.09,231.84L76.36,230.98L75.82,229.93L75.52,228.79L75.48,227.69L75.49,227.47L75.75,226.46L76.28,225.73L77.03,225.36L77.25,225.26"></path>
      </g>
    </g>
    <g id="Actor_.21">
      <g style="stroke:#000000;stroke-width:0.176">
        <path d="M284.91,221.19L284.91,221.20"></path>
        <path d="M286.24,224.54L287.04,225.23L287.46,225.45L287.88,225.58L288.68,225.57L289.35,225.19L289.81,224.48L290.01,223.52L289.94,222.41L289.61,221.27L289.03,220.24L288.29,219.41L287.46,218.88L286.63,218.71L285.89,218.91L285.31,219.46L284.98,220.31L284.91,221.36"></path>
        <path d="M289.01,225.77L289.73,225.35L290.23,224.58L290.46,223.54L290.42,222.94L290.38,222.34L290.01,221.10L289.39,219.98L288.59,219.08L287.68,218.50L286.78,218.31L285.97,218.53"></path>
        <path d="M289.98,224.97L290.34,224.77"></path>
      </g>
      <g style="stroke:#000000;stroke-width:0.529">
        <path d="M289.70,225.48L289.01,225.77L288.14,225.79L287.68,225.64L287.22,225.40L286.36,224.65L286.24,224.54L285.57,223.59L285.11,222.49L284.91,221.36L284.91,221.19L284.98,220.05L285.35,219.13L285.97,218.53L286.62,218.26"></path>
      </g>
    </g>
    <g id="Actor_.22">
      <g style="stroke:#000000;stroke-width:0.176">
        <path d="M288.47,184.07L289.27,184.75L289.69,184.98L290.11,185.11L290.91,185.10L291.57,184.71L292.03,184.00L292.24,183.04L292.17,181.94L291.83,180.80L291.26,179.77L290.52,178.94L289.69,178.41L288.86,178.23L288.11,178.44L287.54,178.99L287.20,179.84L287.13,180.88"></path>
        <path d="M291.24,185.30L291.96,184.88L292.46,184.11L292.47,184.07L292.69,183.07L292.61,181.86L292.24,180.63L291.62,179.50L290.82,178.60L289.91,178.03L289.01,177.84L288.20,178.06"></path>
        <path d="M292.21,184.50L292.77,184.19"></path>
        <path d="M292.73,184.21L292.77,184.19"></path>
      </g>
      <g style="stroke:#000000;stroke-width:0.529">
        <path d="M291.66,185.12L291.24,185.30L290.37,185.31L289.91,185.17L289.45,184.93L288.59,184.18L288.47,184.07L287.80,183.12L287.34,182.02L287.13,180.88L287.13,180.72L287.21,179.58L287.58,178.66L288.20,178.06L288.62,177.88"></path>
      </g>
    </g>
    <g id="Actor_.23">
      <g style="stroke:#000000;stroke-width:0.176">
        <path d="M85.50,215.30L85.04,215.24L84.28,215.44L83.32,215.88L82.26,216.52L81.21,217.29L80.29,218.09L79.04,219.08L78.85,219.46"></path>
        <path d="M90.48,225.85L90.21,224.77L88.83,221.99L86.97,219.70L84.83,218.14L82.64,217.49L80.64,217.82L85.58,215.73"></path>
        <path d="M80.64,217.82L80.29,218.09"></path>
        <path d="M84.69,216.11L84.63,215.96L84.29,215.92L83.75,216.07L83.06,216.39L82.30,216.84L81.54,217.39L81.45,217.47"></path>
        <path d="M90.61,215.05L88.46,217.79L88.19,218.72L88.30,219.78L88.78,220.87L89.59,221.85L90.63,222.62L91.79,223.11L92.94,223.25L93.97,223.04L94.75,222.49L96.23,220.61"></path>
      </g>
      <g style="stroke:#000000;stroke-width:0.529">
        <path d="M78.84,219.47L76.84,216.70L76.89,216.27L77.28,215.64L77.98,214.88L78.90,214.07L79.95,213.31L81.01,212.67L81.97,212.23L82.72,212.02L83.19,212.09L85.50,215.30L85.63,215.62L85.58,215.73L87.32,214.99L89.32,214.67L90.61,215.05L118.70,179.19"></path>
        <path d="M97.56,224.61L96.89,221.95L96.23,220.61L124.85,184.07"></path>
      </g>
    </g>
    <g id="Actor_.24">
      <g style="stroke:#000000;stroke-width:0.176">
        <path d="M6.85,243.27L7.54,242.83L7.30,243.47L7.24,244.20L7.61,253.34L7.73,254.11L8.02,254.87L9.03,256.86L9.15,257.05L9.31,257.24L15.97,254.43"></path>
        <path d="M7.54,242.83L7.93,242.32L8.46,241.98"></path>
        <path d="M7.78,242.42L7.79,242.42"></path>
        <path d="M9.31,257.24L9.50,257.37L9.66,257.43L74.95,270.89L75.10,270.90L75.24,270.85L75.35,270.77L78.69,267.15L79.14,266.71L79.72,266.24L80.39,267.27L79.82,267.74L79.37,268.18L76.03,271.79L75.77,272.00"></path>
        <path d="M13.22,239.97L13.34,239.92L13.87,239.58L14.27,239.08L13.58,239.51"></path>
        <path d="M14.27,239.08L14.50,238.43L14.65,236.88L14.96,236.18L15.47,235.66"></path>
        <path d="M16.06,237.27L16.32,236.99L16.69,236.83L17.11,236.83L17.54,237.00L17.94,237.30L18.25,237.71L18.46,238.18L18.52,238.66L18.45,239.11L18.24,239.46L17.91,239.69L17.64,239.74"></path>
        <path d="M75.26,270.84L75.17,270.88"></path>
        <path d="M79.72,266.24L80.37,265.77L81.06,265.32L89.43,260.28L90.11,259.90L90.73,259.60L96.58,257.13"></path>
        <path d="M80.39,267.27L81.05,266.79L81.74,266.35L90.10,261.31L90.79,260.93L91.41,260.63L103.75,255.42L104.28,255.23L104.67,255.16L108.48,255.05L108.71,255.10"></path>
      </g>
      <g style="stroke:#000000;stroke-width:0.529">
        <path d="M96.58,257.13L103.07,254.39L103.60,254.20L103.99,254.13L107.80,254.02L108.03,254.08L108.71,255.10L108.77,255.28L108.64,255.56L108.34,255.93L105.00,259.55L104.73,259.76L75.77,272.00L75.45,272.10L75.10,272.08L9.81,258.62L9.44,258.49L9.00,258.18L8.61,257.74L8.34,257.30L7.33,255.30L7.04,254.55L6.92,253.78L6.56,244.64L6.62,243.91L6.85,243.27L7.25,242.76L8.46,241.98L13.22,239.97L13.58,239.51L13.82,238.87L13.96,237.31L14.27,236.61L14.78,236.10L15.47,235.66L16.13,235.38L16.89,235.36L17.68,235.60L19.07,236.50L19.76,236.75L20.44,236.81L21.06,236.66L25.94,234.60L26.57,234.45L27.25,234.50L27.94,234.75L28.58,235.18L32.16,238.17"></path>
        <path d="M16.66,239.45L17.08,239.68L17.51,239.77L17.64,239.74L17.76,239.54L17.84,239.10L17.77,238.62L17.57,238.14L17.25,237.73L16.86,237.43L16.42,237.27L16.06,237.27L15.90,237.69L15.90,238.16L16.03,238.64L16.30,239.09L16.66,239.45"></path>
      </g>
    </g>
    <g id="Actor_.25">
      <g style="stroke:#000000;stroke-width:0.176">
        <path d="M98.86,224.34L97.08,225.09L97.41,225.15L98.09,225.53L77.86,247.43"></path>
        <path d="M78.95,219.40L80.88,219.29L82.94,220.10L84.90,221.75L86.53,224.05L87.56,225.54L88.78,226.68L90.08,227.38L91.37,227.57L92.51,227.24L93.40,226.74"></path>
        <path d="M91.21,226.27L89.43,227.03"></path>
        <path d="M97.08,225.09L96.75,225.04L96.15,225.20"></path>
        <path d="M98.09,225.53L98.76,225.24"></path>
      </g>
      <g style="stroke:#000000;stroke-width:0.529">
        <path d="M99.43,224.53L99.20,224.40L98.53,224.28L97.94,224.45L96.15,225.20L93.40,226.74L93.15,226.81L91.87,226.62L90.56,225.93L89.34,224.79L88.32,223.30L86.68,221.00L84.72,219.35L82.66,218.53L80.73,218.65L78.95,219.40L77.37,220.42L76.32,222.25L76.16,223.20"></path>
        <path d="M78.54,247.14L77.86,247.43L77.68,246.51L77.71,245.66L77.93,244.93L80.10,240.68L80.55,239.28L80.61,237.63L80.29,235.86L79.64,234.19"></path>
      </g>
    </g>
    <g id="Actor_.26">
      <g style="stroke:#000000;stroke-width:0.176">
        <path d="M120.15,178.22L119.78,177.86L119.28,177.08L118.96,176.21L118.84,175.33L118.94,174.53L119.25,173.91L119.73,173.53L120.33,173.43L120.98,173.63L121.63,174.09L122.18,174.78L122.60,175.62L122.82,176.51L122.83,177.36L122.63,178.08L122.23,178.58L121.68,178.83L121.04,178.78L120.38,178.44L120.15,178.22"></path>
        <path d="M120.22,177.35L119.97,177.03L119.69,176.48L119.55,175.89L119.54,175.33L119.67,174.85L119.94,174.52L120.30,174.36L120.72,174.39L121.15,174.61L121.56,175.00L121.88,175.51L122.09,176.09L122.17,176.67L122.11,177.19L121.90,177.60L121.87,177.63L121.59,177.86L121.19,177.92L120.76,177.79L120.33,177.48L120.22,177.35"></path>
        <path d="M118.84,175.33L118.84,175.14L118.95,174.26L119.29,173.57L119.82,173.15L120.49,173.04L121.22,173.26L121.93,173.77L122.55,174.54L122.82,175.07L123.01,175.47L123.26,176.46L123.27,177.40L123.05,178.20L122.60,178.76L122.00,179.03L121.29,178.98L120.56,178.60L120.38,178.44"></path>
        <path d="M119.82,173.15L122.24,172.12L122.78,172.07L123.36,172.35L123.97,172.92L124.27,173.28L124.78,174.02L125.09,174.59L125.48,175.52L125.64,176.40L125.50,177.16L125.32,177.47L125.06,177.72L124.36,178.03L124.33,178.03"></path>
        <path d="M124.36,178.03L122.00,179.03"></path>
        <path d="M154.73,128.41L154.51,128.86L154.40,129.75L154.40,129.93L154.50,129.14L154.81,128.51"></path>
        <path d="M154.40,129.93L154.52,130.82L154.84,131.69L155.34,132.46L156.12,133.21L156.85,133.58L157.56,133.64L158.17,133.37L158.41,133.06"></path>
        <path d="M155.95,133.05L156.61,133.38L157.24,133.43L157.79,133.19L158.17,132.70"></path>
        <path d="M155.50,129.12L155.23,129.46L155.10,129.93L155.11,130.49L155.25,131.08L155.53,131.63L155.89,132.09L156.32,132.40L156.75,132.53L157.15,132.46L157.47,132.21L157.62,131.89"></path>
        <path d="M157.70,133.58L158.52,133.23"></path>
        <path d="M162.11,113.68L162.48,112.97L162.81,112.66L163.87,111.81L164.29,111.67L165.61,111.39L166.08,111.44L167.53,111.77L168.01,111.98L169.47,112.89L169.92,113.27L171.25,114.67L171.63,115.17L172.72,116.94L173.00,117.51L173.74,119.51L173.90,120.10L174.18,121.84"></path>
        <path d="M164.29,114.20L164.46,114.03L165.50,113.57L164.12,114.17L163.86,114.44"></path>
        <path d="M172.18,119.80L171.48,117.92L170.25,115.99L168.73,114.53L167.08,113.69L165.50,113.57"></path>
        <path d="M180.64,119.45L180.16,116.80L179.27,114.57L178.22,115.90L177.59,116.59L177.17,116.83L176.68,116.98L175.57,117.02L174.40,116.70L173.29,116.06L172.35,115.17L171.70,114.12L171.39,113.04L171.48,112.02L171.94,111.20L173.69,108.97L173.22,109.80L173.14,110.81L173.44,111.90L174.09,112.94L175.03,113.83L176.14,114.47L177.32,114.79L178.42,114.75L178.91,114.60L179.34,114.37L179.97,113.67"></path>
        <path d="M174.87,112.59L174.83,112.55L174.35,111.79L174.13,111.01L174.19,110.28L174.52,109.68L175.09,109.29L175.82,109.13L176.66,109.24L177.49,109.59L178.24,110.15L178.82,110.85L179.17,111.63L179.25,112.40L179.05,113.07L178.60,113.57L178.29,113.74L177.94,113.85L177.14,113.87L176.30,113.64L175.49,113.18L174.87,112.59"></path>
        <path d="M174.24,111.38L174.91,111.46L175.75,111.81L176.49,112.37L177.07,113.08L177.42,113.86"></path>
      </g>
      <g style="stroke:#000000;stroke-width:0.529">
        <path d="M161.62,143.46L130.90,182.72L129.24,183.90L127.09,184.35L124.82,184.06L122.53,183.11L120.49,181.58L118.90,179.65L117.95,177.52L117.72,175.30L118.27,173.45L118.33,173.32L154.09,127.61"></path>
        <path d="M162.09,113.67L162.56,112.77L163.98,111.59L164.11,111.50L169.90,109.05L171.82,108.60L173.69,108.97L174.46,108.42L175.49,108.21L176.64,108.35L177.80,108.84L178.84,109.61L179.55,110.48L179.65,110.59L180.13,111.68L180.24,112.74L179.97,113.67L179.27,114.56L180.16,116.78L180.64,119.39L180.55,121.94L179.88,124.03L179.81,124.14L179.59,124.42"></path>
      </g>
    </g>
    <g id="Actor_.27">
      <g style="stroke:#000000;stroke-width:0.176">
        <path d="M167.57,146.84L166.85,146.00"></path>
        <path d="M169.62,144.06L169.61,144.07"></path>
      </g>
      <g style="stroke:#000000;stroke-width:0.529">
        <path d="M168.16,142.11L166.37,145.32L166.35,145.38L166.35,145.42L166.85,146.00"></path>
      </g>
    </g>
    <g id="Actor_.28">
      <g style="stroke:#000000;stroke-width:0.176">
        <path d="M164.42,169.98L164.12,169.83L163.90,169.53L163.86,169.36L163.79,169.11L163.82,168.62L163.96,168.11L164.22,167.65L164.55,167.28L164.62,167.52L164.35,167.82L164.15,168.19L164.03,168.59L164.01,168.99L164.10,169.32L164.27,169.56L164.52,169.68L164.81,169.66L165.11,169.51L165.39,169.24L165.61,168.88L165.75,168.48L165.79,168.08L165.73,167.73L165.58,167.46L165.35,167.31L165.07,167.29L164.77,167.41L164.74,167.14L165.11,166.99L165.46,167.02"></path>
        <path d="M164.55,167.28L163.84,166.98"></path>
        <path d="M164.77,167.41L164.56,167.32"></path>
        <path d="M164.74,167.14L164.02,166.84"></path>
      </g>
      <g style="stroke:#000000;stroke-width:0.529">
        <path d="M164.78,166.73L165.46,167.02L165.75,167.20L165.94,167.54L166.01,167.98L166.01,168.04L165.96,168.48L165.78,168.98L165.51,169.43L165.16,169.76L164.79,169.95L164.42,169.98L163.73,169.69"></path>
      </g>
    </g>
    <g id="Actor_.29">
      <g style="stroke:#000000;stroke-width:0.176">
        <path d="M75.66,223.67L75.98,224.16"></path>
        <path d="M75.82,223.60L76.12,224.05"></path>
        <path d="M82.50,234.17L82.48,234.06L82.59,233.88L82.28,233.69L82.02,233.30"></path>
        <path d="M82.28,233.69L82.16,233.90L82.19,234.01"></path>
        <path d="M84.79,232.25L84.65,232.21L84.38,232.27L84.00,232.43L83.57,232.67L83.12,232.96L82.71,233.27L82.40,233.56L82.14,233.17"></path>
        <path d="M82.40,233.56L82.69,233.76L82.78,233.73L83.04,233.49L83.36,233.25L83.72,233.02L84.07,232.83L84.37,232.70L84.59,232.65L84.70,232.68L84.69,232.80L84.56,232.98L84.33,233.20L84.02,233.45L83.67,233.69L83.31,233.89L83.00,234.03L82.75,234.10L82.61,234.09L82.59,234.00L82.69,233.83L82.59,233.88"></path>
        <path d="M82.60,233.70L82.69,233.83"></path>
        <path d="M82.69,233.76L82.97,233.51L83.33,233.23L83.73,232.98L84.11,232.77L84.44,232.63L84.69,232.57L84.81,232.61"></path>
      </g>
      <g style="stroke:#000000;stroke-width:0.529">
        <path d="M78.64,222.94L78.17,222.23L78.03,222.19L77.76,222.25L77.39,222.41L76.95,222.65L76.50,222.94L76.10,223.25L75.78,223.54L75.82,223.60L75.66,223.67L75.54,223.88L75.57,224.00L75.79,224.33"></path>
        <path d="M84.48,231.78L84.79,232.25L84.81,232.61L84.80,232.73L84.66,232.93L84.40,233.18L84.06,233.46L83.67,233.72L83.28,233.94L82.93,234.10L82.66,234.18L82.50,234.17L82.19,234.01L81.87,233.53"></path>
      </g>
    </g>
    <g id="Actor_.30">
      <g style="stroke:#000000;stroke-width:0.176">
        <path d="M179.44,114.35L183.10,118.08L184.13,119.45L184.63,120.86L184.53,122.19L184.18,122.78"></path>
        <path d="M182.20,133.02L197.88,126.39"></path>
        <path d="M188.70,139.24L188.70,140.00"></path>
        <path d="M206.97,130.32L206.88,130.44L206.89,130.52L206.97,130.61"></path>
        <path d="M212.19,132.47L212.02,132.46L211.73,132.49L211.54,132.49L211.21,132.41L211.08,132.34L211.03,132.27L211.03,132.18L211.09,132.11L211.25,132.02"></path>
        <path d="M263.35,170.79L263.35,171.55"></path>
        <path d="M281.62,161.87L281.53,161.99L281.54,162.07L281.62,162.16"></path>
        <path d="M285.90,163.57L285.74,163.65L285.68,163.73L285.68,163.82L285.73,163.88L285.85,163.96L286.19,164.04L286.39,164.04L286.66,164.00L286.84,164.02"></path>
        <path d="M291.47,169.71L295.92,167.82"></path>
        <path d="M295.01,169.83L296.30,169.38"></path>
        <path d="M297.27,171.03L297.48,170.94"></path>
      </g>
      <g style="stroke:#000000;stroke-width:0.529">
        <path d="M166.85,117.67L169.14,116.70L174.19,121.85L175.66,123.03L177.42,123.91L179.29,124.41L181.12,124.47L182.69,124.09L183.86,123.30L184.18,122.78L184.25,121.74L183.76,120.32L182.73,118.96L179.87,116.04"></path>
        <path d="M180.17,112.04L182.73,110.95L197.75,126.27L197.88,126.39L198.03,126.47L206.88,130.21L206.96,130.28L206.97,130.61L207.07,130.67L207.41,130.74L207.79,130.71L208.55,130.41"></path>
        <path d="M191.19,141.11L188.73,140.06L188.70,140.02L188.70,139.24"></path>
        <path d="M212.19,132.47L281.53,161.76L281.61,161.83L281.62,162.16L281.72,162.22L282.06,162.29L282.44,162.26L283.20,161.96"></path>
        <path d="M263.35,170.79L263.35,171.57L263.38,171.61L265.85,172.66"></path>
        <path d="M299.91,167.15L296.06,167.82L295.92,167.82L295.78,167.78L286.84,164.02"></path>
        <path d="M297.23,170.98L297.48,170.94L297.61,171.36"></path>
      </g>
    </g>
    <g id="Actor_.31">
      <g style="stroke:#000000;stroke-width:0.176">
        <path d="M186.90,167.00L186.96,167.30"></path>
        <path d="M188.70,165.42L188.70,164.52L188.70,165.40L188.71,165.45L188.73,165.48L189.83,165.95"></path>
        <path d="M191.04,165.32L190.80,165.22"></path>
        <path d="M263.35,196.97L263.35,196.07"></path>
        <path d="M265.69,196.87L265.45,196.77"></path>
      </g>
      <g style="stroke:#000000;stroke-width:0.529">
        <path d="M175.05,171.84L176.74,170.10L179.18,168.12L181.65,166.57L183.77,165.67"></path>
        <path d="M187.68,167.32L187.39,167.41L187.12,167.41L186.96,167.30L186.58,166.86"></path>
        <path d="M191.19,166.53L189.83,165.95"></path>
        <path d="M263.35,196.07L263.35,196.99L263.38,197.03L265.85,198.08"></path>
        <path d="M298.23,196.72L299.42,199.86"></path>
      </g>
    </g>
    <g id="Actor_.32">
      <g style="stroke:#000000;stroke-width:0.529">
        <path d="M315.48,176.75L314.35,177.21"></path>
      </g>
    </g>
    <g id="Actor_.33">
      <g style="stroke:#000000;stroke-width:0.176">
        <path d="M285.10,191.96L286.18,191.62"></path>
        <path d="M287.26,197.67L288.49,197.28"></path>
      </g>
      <g style="stroke:#000000;stroke-width:0.529">
        <path d="M285.20,191.82L285.16,191.85L285.11,191.92L285.09,192.00L285.09,192.10L285.11,192.19L287.12,197.49L287.16,197.58L287.23,197.65L287.30,197.69L287.38,197.71L287.45,197.69L288.49,197.36"></path>
        <path d="M293.90,198.55L303.00,194.70"></path>
      </g>
    </g>
    <g id="Actor_.34">
      <g style="stroke:#000000;stroke-width:0.176">
        <path d="M287.15,180.45L287.13,180.23L287.21,179.65"></path>
        <path d="M291.37,178.53L291.40,178.56L291.34,178.48L290.38,177.77L289.40,177.45L288.49,177.58L287.76,178.13L287.29,179.05L287.22,179.56"></path>
        <path d="M286.51,179.20L286.90,177.90L287.64,176.99L288.66,176.56L289.83,176.68L291.04,177.32L292.14,178.41L293.04,179.84L293.53,181.22L293.61,181.44L293.81,183.06L293.61,184.50L293.04,185.63L292.14,186.30L291.04,186.45L289.83,186.07L288.66,185.20"></path>
        <path d="M288.75,177.84L288.83,177.78L289.14,177.73"></path>
        <path d="M292.49,186.50L293.43,185.78L294.04,184.59L294.26,183.06L294.16,182.31L294.04,181.35L293.43,179.64L292.49,178.13L291.31,176.97L290.41,176.49L290.03,176.29L288.79,176.17L287.72,176.62"></path>
        <path d="M291.40,178.56L292.17,179.53L292.78,180.79L293.10,182.12L293.14,182.78L293.10,183.39L292.78,184.46L292.17,185.20L291.34,185.55L290.38,185.45L289.40,184.93L288.96,184.50"></path>
        <path d="M290.01,177.77L289.67,177.66L289.57,177.68"></path>
        <path d="M292.31,184.75L292.24,184.83L291.96,184.95"></path>
        <path d="M290.47,177.91L290.59,177.95L290.92,178.20"></path>
        <path d="M293.04,183.36L293.10,183.16L293.12,182.91"></path>
        <path d="M292.90,183.82L292.81,184.14L292.60,184.40"></path>
        <path d="M293.14,182.69L293.13,182.70"></path>
        <path d="M294.75,182.36L294.70,182.87L294.74,183.29L294.75,183.30L294.87,183.62L294.88,183.63"></path>
        <path d="M294.96,183.69L295.09,183.80L295.10,183.81"></path>
        <path d="M294.88,181.85L294.88,181.87L294.80,182.17"></path>
        <path d="M294.97,181.66L295.09,181.41L295.11,181.40"></path>
        <path d="M295.41,181.05L295.39,181.07L295.24,181.24"></path>
        <path d="M295.62,180.94L295.44,181.04"></path>
        <path d="M295.68,180.90L295.75,180.87L295.88,180.86"></path>
        <path d="M296.06,180.85L296.13,180.85L296.26,180.90"></path>
        <path d="M301.50,173.45L302.58,174.80L303.37,176.43L303.78,178.16L303.78,179.81"></path>
      </g>
      <g style="stroke:#000000;stroke-width:0.529">
        <path d="M296.01,184.98L292.49,186.50L291.31,186.66L290.03,186.26L288.79,185.33L288.66,185.20L287.64,183.92L286.90,182.38L286.51,180.75L286.51,179.20L286.51,178.96L286.93,177.58L287.72,176.62L291.24,175.10"></path>
        <path d="M302.67,182.04L303.37,181.19L303.78,179.81L303.79,179.58L303.79,178.02L303.39,176.39L302.65,174.85L301.64,173.58L301.50,173.45L300.26,172.52L298.98,172.11L298.46,172.18"></path>
      </g>
    </g>
    <g id="Actor_.35">
      <g style="stroke:#000000;stroke-width:0.176">
        <path d="M293.39,224.49L293.09,224.32L292.89,223.99L292.81,223.56L292.85,223.06L293.02,222.55L293.29,222.10L293.63,221.76L293.75,221.87L294.06,222.00L294.37,221.91L294.64,221.95L294.86,222.12L295.00,222.41L295.04,222.77L294.97,223.18L294.82,223.57L294.58,223.91L294.30,224.16L294.00,224.29L293.72,224.29L293.48,224.15L293.32,223.89L293.25,223.54L293.29,223.14L293.42,222.74L293.64,222.38L293.91,222.10L293.89,222.00L293.59,222.30L293.35,222.70L293.20,223.15L293.16,223.59L293.23,223.97L293.41,224.26L293.67,224.41L293.99,224.42"></path>
        <path d="M294.93,222.02L294.69,221.82L294.39,221.78L294.06,221.89L293.82,221.63L293.33,221.42"></path>
        <path d="M293.14,221.55L293.63,221.76"></path>
        <path d="M294.06,222.00L294.06,221.89"></path>
        <path d="M293.89,222.00L293.75,221.87"></path>
        <path d="M293.82,221.63L294.20,221.51L294.54,221.56"></path>
      </g>
      <g style="stroke:#000000;stroke-width:0.529">
        <path d="M294.09,221.37L294.54,221.56L294.81,221.78L294.93,222.02L295.09,222.33L295.13,222.74L295.06,223.18L294.89,223.62L294.63,224.00L294.32,224.28L293.99,224.42L293.74,224.50L293.39,224.49L292.93,224.30"></path>
      </g>
    </g>
    <g id="Actor_.36">
      <g style="stroke:#000000;stroke-width:0.176">
        <path d="M285.51,217.02L286.64,216.71L287.91,216.98L289.17,217.78L290.30,219.04L291.17,220.62L291.69,222.35L291.79,224.03L291.48,225.49L290.77,226.57L289.76,227.16"></path>
        <path d="M288.70,218.85L287.91,218.35L286.99,218.16L286.17,218.38L286.04,218.50"></path>
        <path d="M290.70,223.59L290.50,224.53L289.99,225.31L289.25,225.74L289.08,225.74"></path>
        <path d="M292.72,224.17L292.75,224.20L292.84,224.24"></path>
        <path d="M292.56,223.89L292.57,223.95L292.64,224.04"></path>
        <path d="M292.52,223.70L292.50,223.64"></path>
        <path d="M293.33,221.42L293.33,221.42"></path>
        <path d="M293.47,221.38L293.71,221.31L294.08,221.37L294.09,221.37"></path>
      </g>
      <g style="stroke:#000000;stroke-width:0.529">
        <path d="M284.04,220.41L284.02,220.75L284.33,222.47L285.04,224.15L286.05,225.59L287.26,226.64L287.91,226.97L288.55,227.18L289.76,227.16L293.33,225.65L294.34,225.07L295.04,223.99L295.36,222.52L295.25,220.84L294.74,219.12L293.87,217.54L293.63,217.28L292.74,216.28L291.47,215.47L290.20,215.21L289.08,215.51L285.51,217.02L284.64,217.86L284.13,219.15L284.04,220.41"></path>
        <path d="M290.70,223.59L290.73,223.47L290.65,222.25L290.27,220.99L289.64,219.85L288.82,218.93L288.70,218.85"></path>
        <path d="M292.48,223.48L292.48,223.57L292.50,223.64"></path>
        <path d="M292.80,222.01L292.75,222.10L292.69,222.25"></path>
        <path d="M292.54,222.76L292.57,222.59L292.61,222.49"></path>
        <path d="M292.50,223.00L292.48,223.10L292.48,223.26"></path>
        <path d="M293.47,221.38L293.33,221.42L293.33,221.42"></path>
        <path d="M292.92,221.82L293.00,221.69L293.08,221.63"></path>
        <path d="M293.33,221.42L293.17,221.56"></path>
      </g>
    </g>
    <g id="Actor_.37">
      <g style="stroke:#000000;stroke-width:0.176">
        <path d="M202.33,171.94L200.06,172.89L194.68,175.17L194.89,174.35L195.25,166.27L195.19,165.36L194.94,164.42L193.98,161.83L193.77,160.91L193.86,160.06L192.60,161.14"></path>
        <path d="M195.03,179.09L195.03,176.81L194.74,176.39L194.56,175.80L194.68,175.17"></path>
        <path d="M195.03,176.81L195.63,177.16L201.51,179.65L202.33,179.90L203.28,180.02L204.29,180.02L209.48,179.63L211.49,179.62L213.40,179.87L215.03,180.37L231.09,187.16L232.27,187.85L232.87,188.65L232.84,189.50L232.47,190.40"></path>
        <path d="M194.56,176.93L194.56,175.80"></path>
        <path d="M193.93,166.44L195.19,165.36"></path>
        <path d="M193.86,160.06L194.22,159.35"></path>
        <path d="M200.78,177.17L200.49,177.03L200.10,176.69L199.99,176.32L200.18,175.96L200.63,175.64L201.30,175.40L202.12,175.26L203.00,175.25L203.85,175.35L204.56,175.57L205.08,175.87L205.33,176.23L205.29,176.60L204.97,176.95L204.40,177.24L203.64,177.43L202.78,177.50L201.91,177.46L201.11,177.29L200.78,177.17"></path>
        <path d="M202.80,182.25L202.80,179.96"></path>
        <path d="M212.45,179.75L212.45,182.03"></path>
        <path d="M232.06,194.61L232.06,192.32"></path>
        <path d="M231.91,192.12L232.21,192.53L232.80,192.87L238.68,195.35L239.52,195.61L239.52,197.89"></path>
        <path d="M232.57,188.25L232.57,190.16"></path>
        <path d="M237.91,192.27L237.88,192.33L237.99,192.70L238.37,193.04L239.00,193.30L239.79,193.47L240.66,193.51L241.53,193.44L242.28,193.24L242.85,192.96L243.17,192.61L243.21,192.24L242.96,191.88L242.45,191.58L241.73,191.36L240.88,191.26L240.00,191.27L239.18,191.41L238.51,191.65L238.06,191.97L237.91,192.27"></path>
        <path d="M239.52,195.61L240.51,195.73L241.93,195.81L243.08,195.63L243.57,195.42L243.32,195.52"></path>
        <path d="M243.57,195.42L243.64,195.39"></path>
        <path d="M244.15,197.92L245.42,197.31L253.23,192.39L254.05,191.85L252.79,189.70"></path>
        <path d="M244.38,197.81L245.13,197.50L244.38,197.81"></path>
        <path d="M245.13,197.50L246.69,196.84L245.13,197.50"></path>
        <path d="M243.62,195.39L244.16,195.17L249.47,191.82L249.02,191.63L249.13,191.58"></path>
        <path d="M245.42,197.31L251.38,194.86L250.08,195.39"></path>
        <path d="M246.69,196.84L247.10,196.67"></path>
        <path d="M249.47,191.82L251.03,190.83"></path>
        <path d="M251.38,194.86L251.65,194.75L251.64,194.75"></path>
        <path d="M250.56,195.19L250.23,195.33"></path>
        <path d="M251.84,194.67L251.65,194.75"></path>
        <path d="M251.81,194.68L251.83,194.68"></path>
        <path d="M254.05,191.85L254.77,191.33L256.63,189.93L257.38,189.41L258.23,188.88L256.97,186.73"></path>
        <path d="M258.23,188.88L259.11,188.39L259.92,188.00"></path>
      </g>
      <g style="stroke:#000000;stroke-width:0.529">
        <path d="M204.57,172.75L204.45,172.79L203.05,172.20L202.65,172.13L202.41,172.01L202.25,171.86L202.14,171.66L202.11,171.30L194.81,158.87L194.22,159.35L192.95,160.43L192.60,161.14L192.51,161.99L192.72,162.91L193.68,165.51L193.93,166.44L193.99,167.35L193.63,175.43L193.78,176.26L194.12,177.28L194.56,178.07L194.74,178.68L195.03,179.09L195.63,179.45L201.51,181.93L202.33,182.18L203.28,182.31L204.29,182.30L209.48,181.92L211.49,181.90L213.40,182.16L215.03,182.66L231.09,189.44L232.27,190.13L232.47,190.40L231.92,191.70L231.91,192.12L231.91,194.41L232.21,194.81L232.80,195.16L238.68,197.64L239.52,197.89L240.51,198.02L242.86,198.14L244.15,197.92L252.34,194.46L252.63,194.27L259.92,188.00L258.66,185.85L257.85,186.24L256.97,186.73L256.12,187.26L255.37,187.78L253.51,189.18L252.79,189.70L251.97,190.24L251.03,190.83"></path>
        <path d="M250.70,195.14L250.40,195.26"></path>
      </g>
    </g>
    <g id="Actor_.38">
      <g style="stroke:#000000;stroke-width:0.176">
        <path d="M156.05,114.04L158.29,113.75L160.71,114.56L163.06,116.37L178.48,132.11L180.78,134.08L183.19,135.44L270.51,172.34L272.92,173.02L275.22,172.99L290.64,170.29L292.99,170.46L295.41,171.70L297.65,173.88L299.43,176.75L300.58,179.99L300.94,183.23L300.49,186.10L299.27,188.28L297.42,189.53L294.77,191.25L292.93,194.20L292.06,198.12L292.26,202.61L293.50,207.26L297.74,218.48L298.53,221.39L298.69,224.22L298.22,226.70L297.13,228.65L295.55,229.86"></path>
        <path d="M157.67,118.54L157.88,118.38L158.13,118.35"></path>
        <path d="M159.34,118.32L159.42,118.35"></path>
        <path d="M162.38,128.40L162.70,128.26L162.88,128.03"></path>
        <path d="M164.43,125.60L164.35,125.77L164.22,125.87L164.05,125.90L163.87,125.84"></path>
        <path d="M168.02,146.04L167.51,146.96L167.62,147.11L167.69,147.29L167.73,147.48L167.72,147.66L167.67,147.80L167.58,147.90L167.46,147.95L167.33,147.94L167.19,147.87L167.06,147.76L165.42,145.85L165.31,145.69L165.24,145.51L165.20,145.32L165.21,145.15L165.26,145.00L165.35,144.90L165.46,144.85L165.60,144.86L165.74,144.93L165.87,145.05L167.31,142.44L167.21,142.29L167.13,142.10L167.09,141.92L167.10,141.74L167.15,141.60L167.24,141.49L167.36,141.45L167.49,141.46L167.63,141.52L167.76,141.64L168.15,142.09L167.31,142.44"></path>
        <path d="M165.87,145.05L166.73,144.68"></path>
        <path d="M168.15,142.09L168.59,142.61"></path>
        <path d="M169.68,177.51L170.60,177.00L171.31,176.11L176.77,166.28L177.66,165.18L178.81,164.53L179.41,164.47"></path>
        <path d="M169.62,144.08L169.61,144.25L169.57,144.40L169.48,144.50L169.36,144.55L169.23,144.54L169.08,144.47L168.95,144.35"></path>
        <path d="M189.68,165.17L188.74,164.77L188.72,164.59L188.66,164.40L188.56,164.23L188.44,164.10L188.30,164.01L188.16,163.98L188.04,164.01L187.94,164.10L187.87,164.23L187.85,164.40L187.87,165.87L187.94,166.05L188.04,166.22L188.16,166.36L188.30,166.44L188.44,166.47L188.56,166.44L188.66,166.36L188.72,166.23L188.74,166.06L190.30,166.72L190.33,166.90L190.39,167.09L190.49,167.26L190.61,167.39L190.75,167.48L190.89,167.51L191.01,167.48L191.11,167.39L191.17,167.26L191.19,167.09L191.19,165.81L191.16,165.57"></path>
        <path d="M188.74,166.06L189.41,165.78"></path>
        <path d="M189.68,139.89L188.74,139.50L188.72,139.31L188.66,139.13L188.56,138.96L188.44,138.82L188.30,138.74L188.16,138.71L188.04,138.74L187.94,138.82L187.87,138.95L187.85,139.12L187.85,140.41L187.87,140.59L187.94,140.78L188.04,140.95L188.16,141.08L188.30,141.17L188.44,141.20L188.56,141.17L188.66,141.08L188.72,140.95L188.74,140.78L190.30,141.44L190.33,141.63L190.39,141.81L190.49,141.98L190.61,142.12L190.75,142.20L190.89,142.23L191.01,142.20L191.11,142.12L191.17,141.99L191.19,141.82L191.19,140.53L191.16,140.30"></path>
        <path d="M188.74,140.78L189.58,140.43"></path>
        <path d="M190.30,166.72L190.97,166.44"></path>
        <path d="M190.26,165.42L190.30,165.43L190.33,165.27L190.39,165.13L190.49,165.05L190.61,165.02L190.75,165.05L190.92,165.17"></path>
        <path d="M190.57,165.32L190.30,165.43"></path>
        <path d="M191.14,141.09L190.30,141.44"></path>
        <path d="M190.26,140.14L190.30,140.16L190.33,139.99L190.39,139.86L190.49,139.77L190.61,139.74L190.75,139.77L190.92,139.90"></path>
        <path d="M190.30,140.16L190.57,140.05"></path>
        <path d="M206.24,173.45L204.45,172.70L204.45,172.79"></path>
        <path d="M222.52,157.88L222.53,158.01L222.62,158.25L222.75,158.47L222.92,158.63L223.11,158.73L223.28,158.75L223.44,158.68L223.55,158.55L223.61,158.35L223.61,158.11L223.55,157.88L223.44,157.63L223.28,157.44L223.11,157.31L222.92,157.25L222.75,157.27L222.62,157.37L222.53,157.54L222.50,157.76L222.52,157.88"></path>
        <path d="M230.86,161.95L230.68,161.93L230.50,161.84L230.33,161.67L230.20,161.45L230.11,161.21L230.08,160.97L230.11,160.75L230.20,160.58L230.33,160.47L230.50,160.45L230.68,160.51L230.86,160.64L231.01,160.84L231.13,161.07L231.19,161.32L231.19,161.55L231.13,161.75L231.01,161.89L230.86,161.95"></path>
        <path d="M265.80,197.12L265.85,197.36L265.85,198.64L265.82,198.81L265.76,198.94L265.66,199.03L265.54,199.06L265.40,199.03L265.26,198.94L265.14,198.81L265.04,198.64L264.97,198.45L264.95,198.27L263.39,197.61L263.37,197.77L263.31,197.91L263.21,197.99L263.09,198.02L262.95,197.99L262.81,197.90L262.69,197.77L262.59,197.60L262.52,197.42L262.50,195.95L262.52,195.78L262.59,195.65L262.69,195.56L262.81,195.53L262.95,195.56L263.09,195.65L263.21,195.78L263.31,195.95L263.37,196.14L263.39,196.32L264.32,196.72"></path>
        <path d="M263.39,197.61L264.06,197.33"></path>
        <path d="M265.80,171.84L265.85,172.08L265.85,173.37L265.82,173.53L265.76,173.67L265.66,173.75L265.54,173.78L265.40,173.75L265.26,173.66L265.14,173.53L265.04,173.36L264.97,173.18L264.95,172.99L263.39,172.33L263.37,172.50L263.31,172.63L263.21,172.72L263.09,172.74L262.95,172.71L262.81,172.63L262.69,172.49L262.59,172.33L262.52,172.14L262.50,170.67L262.52,170.50L262.59,170.37L262.69,170.28L262.81,170.26L262.95,170.29L263.10,170.38L263.21,170.51L263.31,170.67L263.37,170.86L263.39,171.05L264.32,171.44"></path>
        <path d="M263.39,172.33L264.23,171.98"></path>
        <path d="M264.95,198.27L265.62,197.98"></path>
        <path d="M265.57,196.72L265.40,196.60L265.26,196.57L265.14,196.60L265.04,196.68L264.97,196.81L264.95,196.98L264.91,196.97"></path>
        <path d="M264.95,196.98L265.22,196.87"></path>
        <path d="M264.95,172.99L265.79,172.64"></path>
        <path d="M265.57,171.45L265.40,171.32L265.26,171.29L265.14,171.32L265.04,171.41L264.97,171.54L264.95,171.71L264.91,171.69"></path>
        <path d="M265.22,171.59L264.95,171.71"></path>
        <path d="M288.48,197.52L288.39,197.70L288.28,197.77L286.64,198.29L286.51,198.30L286.37,198.25L286.23,198.15L286.12,198.00L286.03,197.82L285.98,197.64L285.97,197.46L286.01,197.30L286.08,197.18L286.19,197.11L284.74,193.29L284.61,193.29L284.47,193.25L284.34,193.14L284.22,193.00L284.13,192.82L284.08,192.63L284.08,192.45L284.11,192.29L284.19,192.18L284.30,192.11L285.88,191.61"></path>
        <path d="M284.74,193.29L285.42,193.00"></path>
        <path d="M286.19,197.11L286.87,196.83"></path>
        <path d="M287.80,196.52L286.38,192.76L286.49,192.70L286.55,192.60"></path>
        <path d="M293.15,174.84L292.08,174.75L291.94,174.81"></path>
        <path d="M294.45,175.43L294.43,175.42"></path>
        <path d="M294.80,175.69L294.86,175.74"></path>
        <path d="M293.58,174.98L293.53,174.96"></path>
        <path d="M296.67,184.47L295.81,185.11L295.67,185.13"></path>
        <path d="M296.64,177.99L296.62,177.95"></path>
        <path d="M295.95,176.90L296.00,176.97"></path>
        <path d="M295.65,176.52L295.63,176.50"></path>
        <path d="M296.86,184.23L296.88,184.19"></path>
        <path d="M297.58,181.86L297.59,181.79"></path>
        <path d="M297.42,180.16L297.43,180.22"></path>
        <path d="M296.86,178.44L296.89,178.52"></path>
        <path d="M297.31,179.69L297.29,179.63"></path>
      </g>
      <g style="stroke:#000000;stroke-width:0.529">
        <path d="M152.92,121.77L152.76,120.60L153.12,117.67L154.26,115.40L156.05,114.04L157.83,113.29L160.07,113.00L162.49,113.80L164.84,115.62L180.26,131.36L182.56,133.33L184.97,134.68L272.29,171.59L274.70,172.27L277.00,172.24L292.42,169.54L294.77,169.71L297.19,170.95L299.43,173.13L301.22,176.00L302.36,179.24L302.72,182.47L302.27,185.35L301.05,187.53L299.20,188.78L296.55,190.49L294.71,193.45L293.84,197.36L294.04,201.86L295.28,206.51L299.53,217.73L300.31,220.63L300.48,223.46L300.00,225.96L298.91,227.90L297.33,229.11L295.55,229.86L293.60,230.24L291.47,229.75L286.25,227.55L285.10,226.86L284.02,225.84L283.10,224.54L282.39,223.06L276.92,208.61L276.04,206.76L274.89,205.13L273.54,203.85L272.10,203.00L252.11,194.55"></path>
        <path d="M156.05,129.54L158.93,133.84L160.77,138.35L161.64,143.00L161.44,147.33L160.20,150.93L155.95,158.56L155.17,160.80L155.00,163.49L155.09,164.01"></path>
        <path d="M158.70,172.36L160.09,173.82L162.23,175.13L167.45,177.34L168.60,177.63L169.68,177.51L171.46,176.76L172.38,176.24L173.09,175.36L178.56,165.53L179.41,164.47L180.16,164.39L181.60,164.75L193.87,169.94"></path>
        <path d="M158.81,118.27L159.08,118.23L159.34,118.32"></path>
        <path d="M160.07,118.56L160.37,118.66L160.62,118.85"></path>
        <path d="M161.33,119.40L161.62,119.62L161.83,119.89"></path>
        <path d="M163.57,126.91L163.48,127.26L163.29,127.50"></path>
        <path d="M163.81,124.17L163.87,124.42L164.05,124.52L164.22,124.68L164.35,124.90L164.44,125.14L164.47,125.38L164.44,125.60L163.87,125.84L163.82,126.03"></path>
        <path d="M163.55,123.00L163.48,122.67L163.29,122.27"></path>
        <path d="M162.38,120.60L162.70,121.01L162.85,121.32"></path>
        <path d="M168.59,142.61L169.40,143.55L169.58,143.89L169.62,144.07L168.95,144.35L168.02,146.04"></path>
        <path d="M190.26,165.42L189.68,165.17"></path>
        <path d="M190.26,140.14L189.68,139.89"></path>
        <path d="M191.16,165.57L191.01,165.27L190.92,165.17L190.57,165.32"></path>
        <path d="M190.57,140.05L190.92,139.90L191.01,139.99L191.16,140.30"></path>
        <path d="M249.24,191.72L249.24,191.63L249.13,191.58L206.24,173.45"></path>
        <path d="M264.91,196.97L264.32,196.72"></path>
        <path d="M265.22,196.87L265.57,196.72L265.66,196.82L265.80,197.12"></path>
        <path d="M264.91,171.69L264.32,171.44"></path>
        <path d="M265.22,171.59L265.57,171.45L265.66,171.54L265.80,171.84"></path>
        <path d="M285.88,191.61L286.07,191.58L286.21,191.63L286.36,191.75L286.46,191.88L286.55,192.05L286.60,192.24L286.60,192.42L286.55,192.60"></path>
        <path d="M287.80,196.52L287.83,196.59L287.96,196.58L288.10,196.63L288.23,196.74L288.35,196.88L288.44,197.06L288.49,197.25L288.48,197.52L288.29,197.55L288.13,197.48"></path>
        <path d="M293.15,174.84L293.33,174.85L293.53,174.96"></path>
        <path d="M294.79,175.68L294.62,175.52L294.46,175.44"></path>
        <path d="M294.86,175.74L295.63,176.50"></path>
        <path d="M294.43,175.42L293.58,174.98"></path>
        <path d="M296.65,178.01L296.77,178.20L296.86,178.44"></path>
        <path d="M295.66,176.52L295.81,176.67L295.95,176.90"></path>
        <path d="M296.62,177.95L296.00,176.97"></path>
        <path d="M296.67,184.47L296.77,184.40L296.86,184.23"></path>
        <path d="M297.44,182.89L297.39,183.20L296.88,184.19"></path>
        <path d="M297.58,181.43L297.61,181.65L297.59,181.79"></path>
        <path d="M297.57,181.94L297.56,182.01"></path>
        <path d="M297.31,179.69L297.39,179.92L297.42,180.16"></path>
        <path d="M297.29,179.63L296.89,178.52"></path>
      </g>
    </g>
    <g id="Actor_.39">
      <g style="stroke:#000000;stroke-width:0.176">
        <path d="M154.96,128.69L156.13,129.57L157.34,129.95L158.44,129.80L159.33,129.12L159.91,128.00L160.11,126.55L159.91,124.94L159.87,124.83L159.33,123.33L158.44,121.91L157.34,120.81L156.13,120.18L154.96,120.06L153.94,120.48L153.20,121.39L152.81,122.69"></path>
        <path d="M153.45,123.95L153.42,123.73L153.51,123.14"></path>
        <path d="M157.66,122.03L157.70,122.05L157.64,121.98L156.68,121.26L155.69,120.95L154.79,121.08L154.06,121.63L153.59,122.55L153.52,123.06"></path>
        <path d="M154.01,120.11L155.09,119.67L156.33,119.79L157.61,120.47L158.79,121.62L159.73,123.14L160.34,124.84L160.56,126.55L160.34,128.09L159.73,129.28L158.79,129.99"></path>
        <path d="M155.26,128.00L155.69,128.43L156.68,128.95L157.64,129.04L158.47,128.70L159.08,127.95L159.40,126.89L159.44,126.27L159.40,125.62L159.08,124.28L158.47,123.02L157.70,122.05"></path>
        <path d="M155.05,121.34L155.13,121.27L155.44,121.23"></path>
        <path d="M156.31,121.26L155.97,121.16L155.87,121.17"></path>
        <path d="M157.21,121.69L156.89,121.45L156.77,121.41"></path>
        <path d="M158.26,128.45L158.54,128.33L158.61,128.24"></path>
        <path d="M159.20,127.32L159.11,127.64L158.90,127.89"></path>
        <path d="M159.42,126.41L159.40,126.65L159.34,126.85"></path>
        <path d="M159.44,126.17L159.43,126.19"></path>
        <path d="M161.42,127.30L161.39,127.30L161.30,127.22"></path>
        <path d="M161.05,126.82L161.04,126.80L161.02,126.59"></path>
        <path d="M161.19,127.13L161.18,127.12L161.11,126.97"></path>
        <path d="M161.23,125.26L161.18,125.36L161.14,125.51"></path>
        <path d="M161.02,126.11L161.00,126.37L161.00,126.39"></path>
        <path d="M161.10,125.65L161.04,125.87L161.04,125.92"></path>
        <path d="M161.78,124.51L161.69,124.56L161.61,124.65"></path>
        <path d="M161.96,124.41L162.05,124.36L162.15,124.36"></path>
        <path d="M162.53,124.38L162.43,124.34L162.34,124.35"></path>
        <path d="M161.33,125.04L161.39,124.91L161.47,124.82"></path>
        <path d="M167.80,116.94L167.99,117.18"></path>
      </g>
      <g style="stroke:#000000;stroke-width:0.529">
        <path d="M162.31,128.48L158.79,129.99L157.61,130.16L156.33,129.75L155.09,128.82L154.96,128.69L153.94,127.42L153.20,125.88L152.81,124.24L152.81,122.69L152.81,122.46L153.23,121.08L154.01,120.11L157.53,118.60"></path>
        <path d="M168.02,117.17L167.94,117.07L167.80,116.94L166.56,116.01L165.28,115.61L164.88,115.66"></path>
      </g>
    </g>
    <g id="Actor_.40">
      <g style="stroke:#000000;stroke-width:0.176">
        <path d="M176.11,105.57L178.34,105.28L180.77,106.08L183.11,107.90L198.53,123.63L200.83,125.60L203.24,126.96L290.56,163.86L292.98,164.54L295.27,164.52L304.04,162.98"></path>
        <path d="M182.51,119.89L182.75,119.79L182.92,119.57"></path>
        <path d="M189.73,169.04L190.59,168.55"></path>
        <path d="M209.73,131.42L208.80,131.02L208.78,130.84L208.71,130.65L208.62,130.48L208.49,130.35L208.35,130.26L208.21,130.23L208.09,130.26L207.99,130.35L207.93,130.48L207.91,130.68"></path>
        <path d="M210.62,131.57L210.36,131.68L210.38,131.51L210.44,131.38L210.54,131.30L210.67,131.27L210.78,131.29L210.98,131.42"></path>
        <path d="M210.36,131.68L210.32,131.66"></path>
        <path d="M211.21,131.82L211.25,132.06L211.25,132.43"></path>
        <path d="M284.38,162.96L283.45,162.57L283.36,162.20L283.27,162.03L283.14,161.90L283.00,161.81L282.87,161.78L282.74,161.81L282.64,161.89L282.58,162.03L282.56,162.23"></path>
        <path d="M285.63,162.97L285.45,162.85L285.32,162.82L285.19,162.84L285.09,162.93L285.03,163.06L285.01,163.23L284.97,163.21"></path>
        <path d="M285.01,163.23L285.27,163.12"></path>
        <path d="M285.86,163.37L285.90,163.61L285.90,163.98"></path>
        <path d="M307.78,187.83L306.62,184.78"></path>
        <path d="M315.60,221.39L317.19,220.17L318.27,218.23L318.75,215.74L318.57,212.85"></path>
        <path d="M317.63,172.92L317.62,172.84"></path>
        <path d="M317.48,171.70L317.49,171.81"></path>
        <path d="M320.12,170.06L319.54,168.43"></path>
      </g>
      <g style="stroke:#000000;stroke-width:0.529">
        <path d="M173.33,108.90L174.32,106.93L176.11,105.57L177.89,104.81L180.12,104.52L182.55,105.33L184.90,107.15L200.32,122.88L202.61,124.85L205.03,126.21L292.35,163.11L294.76,163.79L297.06,163.76L304.42,162.47"></path>
        <path d="M178.98,109.78L179.13,109.76L179.45,109.86"></path>
        <path d="M180.74,110.43L180.43,110.19L180.14,110.09"></path>
        <path d="M181.40,110.93L181.68,111.15L181.83,111.34"></path>
        <path d="M190.73,168.61L189.73,169.04L188.66,169.15L187.50,168.86L183.08,166.99"></path>
        <path d="M210.62,131.57L210.98,131.42L211.07,131.52L211.21,131.82"></path>
        <path d="M210.32,131.66L209.73,131.42"></path>
        <path d="M285.86,163.37L285.72,163.08L285.63,162.97L285.27,163.12"></path>
        <path d="M284.97,163.21L284.38,162.96"></path>
        <path d="M311.88,221.36L313.66,221.77L315.60,221.39L317.39,220.63L318.97,219.42L320.05,217.48L320.53,214.99L320.37,212.16L320.00,210.79"></path>
        <path d="M317.63,172.92L317.66,173.18L317.59,173.70"></path>
        <path d="M317.62,172.84L317.49,171.81"></path>
        <path d="M317.40,171.32L317.45,171.44L317.48,171.70"></path>
        <path d="M321.48,168.11L321.27,167.52L320.79,166.75"></path>
      </g>
    </g>
    <g id="Actor_.41">
      <g style="stroke:#000000;stroke-width:0.529">
        <path d="M181.96,120.16L180.59,120.73"></path>
      </g>
    </g>
    <g id="Actor_.42">
      <g style="stroke:#000000;stroke-width:0.176">
        <path d="M295.74,170.20L295.86,170.03L296.73,168.88L297.10,168.64L298.29,168.04L298.73,167.97L300.13,167.96L300.61,168.08L301.38,168.39"></path>
        <path d="M298.09,170.71L298.60,170.28L298.39,170.32L297.76,170.85"></path>
        <path d="M298.60,170.28L299.87,170.03L301.51,170.48L301.71,170.61L301.62,170.44L301.38,169.55L301.36,168.69L301.55,167.96L301.94,167.44L302.48,167.18L303.11,167.21L303.77,167.53L304.38,168.10L304.86,168.82L304.88,168.87L305.22,169.74L305.35,170.62L305.27,171.42L304.97,172.06L304.50,172.45L303.91,172.57L303.25,172.39L302.62,171.95L302.75,172.08L303.46,172.58L304.19,172.78L304.85,172.65L305.38,172.21L305.70,171.50L305.80,170.61L305.65,169.63L305.28,168.66L304.72,167.81L304.04,167.18L303.31,166.82L302.60,166.79L302.00,167.08L301.60,167.62L301.59,167.47L301.93,166.30"></path>
        <path d="M302.27,185.35L303.22,185.53L303.63,185.58L304.99,185.24L305.35,185.11L306.45,184.20L306.72,183.90L307.46,182.50L307.61,182.06L307.93,180.28L307.96,179.74L307.83,177.75L307.72,177.15L307.26,175.49"></path>
        <path d="M302.62,171.95L302.04,171.27L301.71,170.61"></path>
        <path d="M302.33,170.53L302.66,171.03L303.07,171.41L303.50,171.62L303.92,171.64L304.28,171.47L304.53,171.12L304.66,170.64L304.65,170.19L304.64,170.08L304.49,169.49L304.21,168.94L303.84,168.49L303.41,168.20L302.98,168.08L302.58,168.16L302.27,168.42L302.08,168.84L302.02,169.37L302.11,169.95L302.33,170.53"></path>
        <path d="M301.36,168.69L301.36,168.47L301.57,167.66L301.60,167.62"></path>
        <path d="M302.60,166.79L304.96,165.79L305.52,165.89L306.12,166.30L306.73,166.96L307.03,167.37L307.31,167.80L307.79,168.72L308.09,169.64L308.12,170.48L308.02,170.84L307.85,171.16L307.59,171.43L307.27,171.63L304.85,172.65"></path>
        <path d="M303.23,183.49L303.45,183.51L303.75,183.36L303.57,183.35"></path>
        <path d="M314.37,177.04L314.21,175.22L313.21,175.92L311.07,176.38L308.78,176.11L306.48,175.17L304.92,174.03L305.60,175.37L306.19,177.59L306.25,179.73L305.77,181.55L305.34,182.28L304.80,182.86L303.75,183.36"></path>
        <path d="M304.92,174.03L304.42,173.67L303.51,172.59"></path>
        <path d="M304.45,166.01L304.46,165.99L304.44,166.01"></path>
        <path d="M307.00,162.57L308.16,161.01L304.46,165.99"></path>
        <path d="M308.16,161.01L336.10,123.27"></path>
        <path d="M337.20,125.23L336.64,124.55L336.61,124.49L336.22,123.72L335.98,122.83L335.96,121.98L336.15,121.25L336.53,120.73L337.07,120.47L337.43,120.49L337.71,120.50L338.37,120.82L338.98,121.39L339.48,122.15L339.82,123.02L339.95,123.91L339.86,124.71L339.57,125.34L339.10,125.74L338.50,125.86L337.85,125.68L337.20,125.23L337.35,125.36L338.06,125.87L338.79,126.06L339.41,125.94L339.45,125.93L339.97,125.49L340.30,124.79L340.39,123.90L340.25,122.91L339.88,121.95L339.32,121.10L338.64,120.46L337.90,120.11L337.20,120.07L336.60,120.36L336.17,120.94L335.96,121.75L335.96,121.98"></path>
        <path d="M337.25,124.30L336.93,123.81L336.71,123.24L336.62,122.65L336.68,122.12L336.87,121.70L337.18,121.44L337.58,121.37L338.01,121.48L338.43,121.78L338.81,122.24L339.09,122.77L339.24,123.36L339.26,123.93L339.13,124.41L338.88,124.75L338.52,124.92L338.10,124.90L337.67,124.69L337.25,124.30"></path>
        <path d="M337.20,120.07L339.56,119.08L340.12,119.17L340.72,119.59L341.33,120.25L341.63,120.65L341.91,121.09L342.39,122.01L342.68,122.93L342.72,123.77L342.62,124.13L342.44,124.45L342.19,124.71L341.87,124.91L339.45,125.93"></path>
        <path d="M342.58,114.63L339.04,119.30"></path>
        <path d="M346.85,115.67L347.51,116.46L348.51,117.18"></path>
      </g>
      <g style="stroke:#000000;stroke-width:0.529">
        <path d="M295.71,170.19L296.83,168.68L296.95,168.59L298.54,167.73L301.93,166.30L302.12,165.63L302.17,165.51L342.68,110.79"></path>
        <path d="M311.25,182.82L305.74,185.15L303.99,185.63L303.85,185.65L302.25,185.39"></path>
        <path d="M347.44,130.74L314.87,174.74L314.77,174.83L314.21,175.22L314.37,177.07L314.14,178.68"></path>
      </g>
    </g>
    <g id="Actor_.43">
      <g style="stroke:#000000;stroke-width:0.176">
        <path d="M295.43,181.03L295.92,181.24L295.57,181.57L295.29,182.00L295.10,182.50L295.04,183.00L295.10,183.45L295.28,183.80L295.56,184.00"></path>
        <path d="M296.16,183.96L295.85,183.93L295.60,183.75L295.44,183.44L295.39,183.05L295.44,182.67L295.45,182.60L295.61,182.16L295.86,181.77L296.17,181.49L296.19,181.60L295.91,181.86L295.68,182.21L295.53,182.60L295.48,183.01L295.53,183.37L295.68,183.64L295.90,183.80L296.18,183.83L296.48,183.72L296.77,183.49L297.01,183.16L297.18,182.77L297.26,182.36L297.24,181.99L297.12,181.69L296.91,181.50L296.80,181.47L296.64,181.43L296.34,181.51L296.34,181.39L296.67,181.30L296.97,181.37L297.19,181.59"></path>
        <path d="M295.62,180.92L296.11,181.13L296.34,181.39"></path>
        <path d="M296.17,181.49L296.07,181.39L296.34,181.51"></path>
        <path d="M296.07,181.39L295.92,181.24"></path>
        <path d="M296.11,181.13L296.48,181.04L296.82,181.12"></path>
      </g>
      <g style="stroke:#000000;stroke-width:0.529">
        <path d="M286.79,178.03L286.60,178.33L286.41,178.83L286.35,179.33L286.41,179.78L286.51,179.97"></path>
        <path d="M296.38,180.93L296.82,181.12L297.08,181.36L297.19,181.59L297.33,181.92L297.35,182.34L297.28,182.74L297.27,182.78L297.08,183.22L296.81,183.58L296.49,183.84L296.16,183.96L295.91,184.04L295.56,184.00L295.11,183.81"></path>
      </g>
    </g>
    <g id="Actor_.44">
      <g style="stroke:#000000;stroke-width:0.176">
        <path d="M159.45,164.23L158.66,163.73L157.74,163.54L156.92,163.76L156.80,163.88"></path>
        <path d="M156.27,162.40L157.40,162.09L158.66,162.36L159.93,163.16L161.06,164.42L161.93,166.00L162.44,167.73L162.55,169.41L162.47,169.79L162.23,170.87L161.53,171.95L160.52,172.54"></path>
        <path d="M161.46,168.97L161.25,169.91L160.74,170.69L160.01,171.11L159.84,171.12"></path>
        <path d="M163.68,169.66L163.62,169.66L163.55,169.60"></path>
        <path d="M163.36,169.37L163.40,169.47L163.45,169.51"></path>
        <path d="M163.26,169.02L163.27,169.15L163.30,169.21"></path>
        <path d="M164.34,166.72L164.27,166.72L164.23,166.75"></path>
        <path d="M164.52,166.70L164.66,166.70L164.72,166.72"></path>
      </g>
      <g style="stroke:#000000;stroke-width:0.529">
        <path d="M155.50,168.82L155.79,169.53L156.81,170.97L158.02,172.01L158.66,172.35L159.30,172.56L160.52,172.54L164.08,171.03L165.10,170.45L165.80,169.37L166.07,168.11L166.11,167.90L166.01,166.22L165.49,164.49L164.62,162.92L164.31,162.57L163.49,161.66L162.23,160.85L160.96,160.59L159.83,160.89L156.27,162.40L155.40,163.24L154.88,164.53L154.77,166.13L155.09,167.85L155.50,168.82"></path>
        <path d="M159.45,164.23L159.58,164.31L160.40,165.23L161.03,166.37L161.40,167.62L161.48,168.85L161.46,168.97"></path>
        <path d="M163.26,169.00L163.26,169.02"></path>
        <path d="M163.38,167.79L163.40,167.72L163.49,167.54"></path>
        <path d="M163.27,168.30L163.27,168.22L163.32,168.03"></path>
        <path d="M163.74,167.12L163.62,167.26L163.59,167.32"></path>
        <path d="M163.24,168.79L163.23,168.72L163.25,168.54"></path>
        <path d="M164.03,166.86L163.92,166.92L163.86,166.99"></path>
        <path d="M164.14,166.79L164.23,166.75"></path>
      </g>
    </g>
    <g id="Actor_.45">
      <g style="stroke:#000000;stroke-width:0.176">
        <path d="M152.70,122.34L152.80,122.43L152.81,122.44"></path>
        <path d="M152.80,122.43L152.75,122.93L152.81,123.27"></path>
        <path d="M152.87,122.17L152.94,122.02"></path>
        <path d="M162.00,127.55L161.71,127.37L161.52,127.04L161.44,126.61L161.49,126.11L161.04,125.92"></path>
        <path d="M163.18,124.63L162.84,124.58L162.46,124.69L162.32,124.80L162.10,124.96L161.79,125.36L161.56,125.85L161.76,125.89L161.94,125.51L162.17,125.22L162.19,125.19L162.48,124.97L162.78,124.88L163.05,124.92L163.27,125.10L163.40,125.39L163.44,125.76L163.38,126.16L163.22,126.56L163.18,126.62L162.98,126.90L162.70,127.14L162.40,127.27L162.11,127.26L161.88,127.11L161.72,126.85L161.69,126.68L161.66,126.50L161.70,126.10L161.49,126.11"></path>
        <path d="M161.70,126.10L161.06,125.83"></path>
        <path d="M161.56,125.85L161.09,125.65"></path>
      </g>
      <g style="stroke:#000000;stroke-width:0.529">
        <path d="M152.84,122.36L152.79,122.33L152.70,122.34L152.65,122.78L152.72,123.17L152.81,123.33"></path>
        <path d="M153.10,121.51L152.96,121.68L152.76,122.11L152.87,122.17L152.89,122.18"></path>
        <path d="M162.63,124.40L163.18,124.63L163.45,124.86L163.62,125.22L163.66,125.68L163.58,126.18L163.38,126.68L163.09,127.10L162.73,127.41L162.36,127.57L162.00,127.55L161.44,127.32"></path>
      </g>
    </g>
    <g></g>
    <g></g>
    <g id="paperID" visibility="hidden" opacity="0.00" transform="scale(0.000100)">
      <path style="stroke:#000000;stroke-width:0.500;fill:#e6e6e6;fill-rule:evenodd" d="M-2000.00,-2000.00L2420.00,-2000.00L2420.00,2297.00L-2000.00,2297.00zM0.00,0.00L420.00,0.00L420.00,297.00L0.00,297.00z"></path>
      <path style="fill:#000000;fill-opacity:0.118" d="M3.00,297.00L420.00,297.00L420.00,3.00L423.00,3.00L423.00,300.00L3.00,300.00z"></path>
    </g>
    <g id="ToolTip" visibility="hidden" opacity="0" transform="translate(0,0)">
      <rect id="ToolTipShadow" opacity="0.20" fill="black" stroke="none" x="0" y="0" width="30" height="8"></rect>
      <rect id="ToolTipBG" fill="#ffffe1" stroke="black" x="0" y="0" width="30" height="8"></rect>
      <text xml:space="preserve" id="ToolTipText" fill="black" x="0" y="0" width="30" height="8">tooltip</text>
    </g>
  </g>
</svg>
