<svg xmlns="http://www.w3.org/2000/svg" width="1587.402" height="1122.52" viewBox="0 0 420 297" stroke-linejoin="round" stroke-linecap="round" fill="none" fill-rule="evenodd" xmlns:v="https://vecta.io/nano"><style><![CDATA[.B{stroke-width:.529}.C{stroke-width:.176}.D{opacity:0}.E{fill:#0f0}.F{stroke-opacity:.25}.G{visibility:hidden}]]></style><path d="M419.93 296.91H.09V.09h419.84z" fill="#fff"/><g fill="#e5e5e5"><path d="M261.5 13.09l.02 1.99-.18.86-.65.61-1.7.36v-2.06l1.35-.56 1.02-1.38zm-31.88 13.9l-1.07.02-1.17.45-.76 2.12-1.71.59-.62-.01-.76-.6-1.07.01-1.5.76-.3 1.94-1.75 1.81-.49.01-.34-.33-.67-3.11 1.16-2.39 2.7-2.42 3.44-1.69 3.83-1.3 5.13-.95 5.25-.34.01 5.89-.52.2-2.29.15-3.18.32-2.19.37-.4-.63zm26.26 2.92l4.5 2.22.41.58-.3.03-1.6.03-.35-.01-.99-.3-1.66-.62-.62-.43-.31-.55-.28-.05-.71-.6-1.43-.09-.9-.26-.11.19-1.33.74-.18.07-.04 1.51-.61.48-.67-.06.77-.55.31-1.92 1.02-.36-.01-.32-.79-.3.22-.84 1.5.12z"/><path d="M233.65 29.77l.18 1.32-.12.8-.52.32-2.51.85-.84.05-.04.23-1.57 2.66-1.96 2.58-.62.09.12-.95 2.89-4.49.21-4.92 1.48-.45.07 2.26.15 2.16.03-2.16.15-.31 2.69-.9zm-9.31 4.82l-.07.28-.15.12.39 1.52v.36l-.18.95-.17.23-.63-.09-1.29-.7.02-1.13.32-.34.2-4.92 1.41-.44zm33.35-1.6l-.95.45-.31 1.94-.95.02.35-.27.37-1.91 1.33-.53zm43.54 4.82l-.77.89-4.02 2.1-.93-.03-45.91 19.54-.42.26-.42 1.08-1.02.93-1.27-.13-.1-.24 1.19-.17.29-.79-1.82.62-.67.28-1.09.46-2.05.26-1.29-.14.1-5.93 2.91-.28 14.72-6.12 41.16-17.46 1.28-.9zm-86.04 15.48l3.07 1.49-.03.96-.15 1.51-.96 2.24-2.7 3.7-1.8 3.66-1.24 4.9-.01 3.24.86 3.05 1.37.6.64.09-.34-2.36v-4.4l.97-3.84 2.14-4.26 2.67-3.74.65-1.28.53-3.03.4-.02 14.41 6.12-.3 21.27-6.49 2.82-.22.67-4.08-1.51-.5-.18-.11.5-.47.89.03 27.79-40.16 16.97-3.84 1.42.08-27.93 19.8-27.95 1.05-.02 4.48 1.94 3.84 1.42V78.6l-8.32-3.2-2.55-1.62-1.35-1.94-.03-.33 1.03.39.98.1-.34-1.72V64.6l1.19-3.94 1.73-3.39 2.54-3.55.97-2.24.28-1.99.37-.37zM185.9 58.3l.2 1.33-.06.54-1.07-.18-1.32 1-.5.02v-1.2l1.61-.97.22-1.39.77-.3zm3.32 2.79l8.72-3.61-.69 1.69-1.57 4.9-.54.59-7.26 3.07-1.62.1-.1-.21 1.48-.44.96-.96.51-1.1 2.04-.84.45-1.19.23.89-.03-.75-.2-.14-.1-.54-.66.45-1.28.26zm60.34 25.05l-.17.17.86.53-.08.32-1.13.07-.82.51-.69.22-.41-.3.1-.94 1.28-.66.59-1.73.37-.01zm2.48 3.67l.77.62.05.31-.25.48-.31-.13-.01-.36-1.21.41-2.07-.94.01-.35 2.72-.96zm4.17 7.1l.63.09.52-2.07.99-.66.43-.02.48.57.01 1.32-.61 1.36-2.15.02-9-3.9-.06-.3.37-.01zm12.28 36.3l.23 1.58-.36.61-.45 2.7-3.04 27.12-4.64 5.31-4.99 5.57-2.33 2.17-1.01-.03 7.75-10.86.07-30.35 8.32-3.6.35-.35zm-114.15 3l.22 5.59 1.04 1.18-.94 1.11-7.01 13.87-.2 1.28.12 8.14.96.96h.99l-.02-8.9.98-2.88 6.43-12.15 1.57-1.31 1.33-.77.3.29.2 5.6.41.24.67.93 7.72 8.31.3.78-2.91 5.45-1.73 2.44-7.02 3.23-4.26 1.57h-1.65l-1.79-.65-1 .64-70.16 98.68-1.28 1.28-7.9 3.35-.07-1.42-2.6 2.57-8.29 3.56-2.29-.02 71.86-101.29v-.26l.94-.62 8.44-11.78-.01-.73-.51-.94.78.3 1 .1-.02-8.34.63-2.57 6.44-12.46 1.15-1.42 1.61-.96 5.28-2.27zm91.79 2.84l-.82.86-7.78 3.43-2.72.47-.53-.04.03-5.9 3.85-.95 6.87-3.06.96-.91zm-48.88 10.78l3.2-1.6 25.2-10.68 2.67-.35.12 5.95-1.63.3-.84.2-26.15 10.99-1.5.44-.1-2.48-.14-.1-.85-1.14zm.82 5.24v4.17l-.95 1.04-7.33 3.24-2.03.45-1.52-.03v-5.9l3.24-.6 7.36-3.21 1.1-.76zm76.05 35.65l.23.52-.02 4.87.06.22 2-.15 1.04.3 1.33.17.19.14-5.55 10.93-1.48 4.03-.22 5.72-.3.34-3.11 1.46h-2.81l-2.85-1.63-.75-1.32 1.37.19.3-9.35 1.84-4.25 5.58-10.44 2.57-2.06zm15.26 2.78l-.01 4.87.12.5 2.07-.17 5.76.97 1.52.13.19-5.85 2.67-.99v5.89l-2.01.88-8.98 17.29-2.14 2.34-10.03 4.39-2.17.01-2.84-1.33-1.01-.97-.1-.61 1.4.15.31-9.67 6.96-13.86 2.02-1.83 5.32-2.4.49-.29zM43.64 263.37v1.61l.17.97.34 1.29-.67.09-.36-.96-.01-3.8.45-.51zm273.75 7.15l32.03 12.19 2.57.63 2.57.31h4.7l4.59-.86 27.24-11.53 1.64-1.05v.37l-.78.91-1.6 1.28-26.83 11.29-3.4.7-1.27.14h-3.87l-2.55-.33-3.32-.91-30.43-11.54-2.22-1.3-.42-1zm-298.6 3.85l27.24 12.8 6.7 2.91 3.55.62h4.7l2.59-.3 3.83-1.29 25.09-10.79 1-.74v.37l-.98 1.03-1.73 1.15-24.04 10.25-2.87.97-3.87.66-4.89-.4-1.73-.25-4.15-1.62-30.08-14.13-1.97-1.61v-.61z"/></g><path d="M48.7 262.14l-.95.83-1.43-.08-.95 1.31-.15 1.08.23.94.46 1.6.11.49.44.07.65-.2.62.7 1.17.13.07-.2.68-.71 1.22-.59-.02 2.17-.93 1.31-.88.39-.13-.22h-.74l-.13.22-1.06-.54-1.57-1.31-1.26-2.29-.34-1.29.01-.98v-1.6l.13-.35 3.77-1.65z" fill="#e3e3e3"/><path d="M270.01 210.25l-.01 2.4-1.1 1.79-1.26.68-1.26-.27-.27-.69.01-2.19.99-1.89.5-.46 1.42.01zM47.75 262.97l1.14.84.85 2.09-.01 1.33-.08.87-.68.71-1.24.07-.62-.7 1.39.15.75-.89v-1.75l-1.26-1.91-.56-.18-.13-.15-.84.14-.42.4.01 2.27 1.06 1.92-.65.2-.55-.56-.46-1.6-.23-.94.15-1.08.95-1.31z" fill="#fff"/><path d="M43.82 264.97l-.18.01v-1.61h.18zm5.08 4.04l-1.17-.13 1.24-.07zm.14 2.37h-1l.13-.22h.74z" fill="#525266"/><path d="M240.17 9.2l-.84-.14.9-.08zm11.36 20.85l.11-.19.9.26-.51.15zm-17.7 1.04l-.18-1.32.13.13zm16.15 1.28l.04-1.51.18-.07zm-19.41-.09l-.15-2.16h.18zm27.97.48l-.85.23-.16-.3.02-.23zm.35.01l1.6-.03-.86.42-.54-.06zm-9.89 7.4l.55-.2.68.16zm-10.93.78l-1.64-.19 1.52.05zm-19.84 14.79l.03-.96.77.08zm31.25 5.35l-.3-.52.42-.26zm-32.83 12.25l-.14.68-.05-1.2zm80.61 4.78l-.34 2.93-.17.01.07-3.15zm-72.68 7.05l-.61.32.11-.5zm24.81 1.14l.17-.17.31-.06.29.09.09.67zm-51.07 68.77l-.25-.01-.13-1.6.14-.97.14.1zM143.23 157l.13-.26.56.22-.11.31zm10.74 4.67l.46-.14-.22 1.56zm85.01 18.16l1.35-.14.18.17zm32.94 37.71l-.22-.07.22-5.72z" fill="#00001c"/><path d="M49.88 263.46l.81 2.14.2.96-.02.95-1.22.59.08-.87.15-1.21-.14-.12-.85-2.09-1.14-.84.95-.83zm-5.93-.44l-.13.35h-.18l-.08-1.31.25.02zm-.14 2.93l-.17-.97.18-.01zm2.1 1.87l.55.56-.44-.07z" fill="#d4d4d4"/><path d="M258.14 12.05l-.75.06.29-.52.49.05zm3.38 3.03l-.02-1.99.15.11zm-14.38 12.85l.74.08.08.35h-.43zm3.08.57l-1.19-.2 1.08.01zm-19.47-.01v1.32l-.15.31h-.18l-.07-2.26zm24.52 2.92l-.79-.24.2-.36.28.05zm-25.47 1.93l.04-.23.84-.05zm-5-3.03l-.46 4.28-.15-4.16.1-.27.62.01zm-.68 4.68l.15-.12.24 1.64zm77.11 2.82l-.13-5.77.28-1.2zm-69.4 2.43l-.41-.11.48-.26zm13.19.56l-4.63.01 1.06-.35zm-10.17-.19l-1.85-.13 1.86-.02zm32.33 3.07l.67-.19.88.21zm-68.94 3l-.11-.42.37-.06zm-13.49 1.81l-.27.46-.24-8.18.32-.02zm55.21 7.02l.33-.16.89.2zm-53.86 4.12l-.2-1.33.13.12zm60.27 2.58l.1.24.15.87-1.26-1.17.67-.28zm-7.28.69l1.84-.17 1.29.14zm-43.95 1.76l.54-.59-.03 2.81zm-8.98 2.96l-.44-.31.19-1zm64 18.55l-.29-.09.26-.77zm.59 1.24l-.58-.25.08-.32.25.11zm2.11 3.33l-.05-.31.63-.16.61.15-.49.4zm6.41 5.4l-.01-1.32.16.12zm37.81-14.45l-.19 19.47-.14-20.1.17-.01zm-146.33 53.72l.35.27-.71.09.08-4.65zm61.69.36l-1.22-.15.22-.15zm33.69 3.28l-.14-6.1.28-.87zm-19.32 4.4l1.63-.3 1.84.17zm-41.96 13.32l.65-.18 1.21.19zm13.22 2.47v-4.17l.25.01zm76.26 36.87l.02-4.87.12.12zm15.04 2.26l.01-4.87.15.11zm-17.97 19.44l.3-.34.22.07-.02 1.85z" fill="#000020"/><g fill="#e5e5e5"><path d="M237.93 7.6l.85-.46h1.41l.04 1.84-.9.08-1.07-.31-.34-.33zm-27.02 12.02l.65-.61 1.39-.35.01 1.75-1.62-.13zm54.58-.5l.84-.44h1.42l.02 2.06-1.54-.16-.76-.29zm27.22 11.87l1.18-.79h1.08l.01 2.07-1.64-.1-.63-.37zm-109.57-.34l1.19-.44 1.07-.01.01 2.07-1.64-.1-.62-.35zm79.48 3.4l-.09.35-.58.05-.92-1.05-.24-.69zm-4.49 3.53l-2.02.98-5.88 1.57-.68-.16 7.6-3.31.34-.33zm-73.37 2.87l-.2.3-.32.02-.83-.34-.04-.3.74-.01zm51.67.31l-1.58-.15.01-.15 16.24-6.71-.03 1.71-2.56 1.27-9.38 4.09-1.06.13-.12-.14zm-47.2 1.63l-3.19 4.32-.1-5.62.39-.03zm76.47.3l.63-.63h1.42l.1 1.43-.67.19-1.05-.33zm-55.01-.51l1.2-.43 1.06-.01.01 2.06-1.93-.12-.33-.32zm14.65 5.03l-1.26.65-1.31.11v-2.05l1.28-.32 1.13-1.2.29-.08zm70.7 4.65l-.76.6v-.67l.68-.11zm-58.12 2.19l1.54-.79h.72l.11 2.09-.33.16-1.4-.27-.63-.37zm-61.18 9.18l1.39.85-1.08-.2-2.38-.92-4.75-2.33h.72zm75.62-.97l2.62 2.58-.04.39-.41.29-.87-.04-2.54-2.25-.76.01.09-.66-.47-.67 1.14-.61z"/><path d="M187.93 62.61l.7.77-3.44 1.62-1.28.11-3.23.01-1.38-.28-1.17-.76 1.18.11h2.78l1.59-.34 2.57-1.58 1.39-.64z"/><path d="M185.91 66.31l-.19 1-.75-.12.09-1.98.13-.21.53.14zm73.16 1.52l-.02-.64 1.32-.14zm-2.88 2.4l-2.94 11.61-1.33.96-.64-.01.75-1.52 3.24-12.55.29-.04zm2.87 1.03l3.25.6 1.93 1.27 31.73 28.85-1.62.34-17.61-16.06-4.49-3.84-10.6-9.59-1.47-.51-1.97-.14-1.07-.65-.1-.59 1.09-.37zm110.9 170.4l-.3.45-1.09.33-71.49-160.75-.16-.64.34-2.93zM263.59 84.33l.3 1.32.01 2.36-.41 1.19-1.98 1.54-5.41 2.31-1.5-.34-1.06-.65 1.99-.89.65-.75-.02-.63h-1.04l-1.07.63-.61-.15-.24-2.03 10.08-4.25zm30.67 11.9l-.72.1.03-.41.75-.06zm-56.34 36l1.19-.79 1.08.01.01 2.06-1.64-.1-.63-.36zm-22.02 3.72l-.04.4-1.1.6-.51-.03-1.27-.97-.54-.18-1-.3.74-.5 2.07.01zm-30.28 14.42l.6-.33 1.75-.01-.37.35-1.62.34zm-14.34.13l1.18-.79 1.42.01v2.05l-1.64-.1-.96-.68zm-61.19 1.27l1.93-.79-1.57 2.08-.39-.4zm73.04 3.53l1.54-.8h.72l.11 2.09-.65.18-1.37-.31-.35-.34zm-65.12 9.19l.79-.33-.03 1.06-2.97 4.17-.36-.09 2.66-4.05zm119.92 13.88l.85-.46h1.42l.13 1.78-1.35.14-1.06-.64zm11.85 4.78l1.19-.43 1.07-.01.01 2.06-1.64-.1-.62-.35zm52.27 8.65l-1.02.65-.1-.37.7-.43zm70.47 49.53l7.71 17.33-.15.99-.61-.01-.56-1.94-7.07-15.69-.09-.99.42-.05zm6.38 20.85l-.77.98-.49.02-.8-2.29 1.02-.68.39.04zm-335.09-.1l-.25-.02.22-.75.67-.22zm333.56 2l-.02.5-.31.3-.42-.42-.06-.7.43-.04zm-327.64 3.15l.01-1.33.14.12zm-.82 4.36h-.74l-.13-.21h1z"/></g><path d="M49.25 265.69v1.75l-.75.89-1.39-.15-1.06-1.92-.01-2.27.42-.4.97.01.56.18z" fill="#e3e3e3"/><path d="M47.72 261.37l-3.77 1.65-.14-.94.64-.99 1.57-.53zm-.29 2.23l-.97-.01.84-.14zm3.46 2.96l-.2-.96.15.11z" fill="#ccc"/><path d="M247.56 62.04l-1.19.17-.34-.34 1.82-.62zm-43.26 1.83l.02 2.36-.64 1.28-.99.63-.96.25-.91-.8-.19-1.3.2-.91 1.57-2.06.31-.09zm-12.47.11l-.23-.89.2.14zm28.52 6.9l-.03 1.43-.32.95-.91 1.33-1.68.54-.9-1.11.14-.68 1.03-1.12.36-1.89.27-.39.39-.04zm-74.65 86.83l-.03 1.74-.32.95-1.39 1.82-1.93.1-.28-.75 1.36-1.16.64-1.6.06-1.54.11-.31.79.12zm-3.56 1.12l-.04-.66.89-1.1.24-.07zm14.14 3.7l-.02 1.08-.97 2.25-1.05.87-1.63.08-.33-.79 1.26-1.27.67-1.66.22-1.56.87.01zm124.3 52.21l-.01 2.39-.97 1.6-.75.53-1.19.36-.98-.64-.26-.77.02-1.63.92-1.47.97-.2.63-1.13z" fill="#fff"/><g stroke="#000"><g class="C F"><path d="M45.31 265l.06.84.26.87.43.79.57.63m.23-4.84l-.56.15-.44.43-.26.64-.05.8.16.87.35.84.51.72.61.53.64.27.61-.01.51-.29"/><path d="M46.42 267.93l.53.34.54.11.47-.13.37-.35.22-.55.04-.67-.13-.73-.16-.38-.14-.32-.43-.61-.51-.44-.27-.15-.27-.08-.51.01-.43.24-.29.46-.14.62"/><path d="M46.37 263.6l-.4.4-.25.6-.05.75.15.81.33.79.48.68.57.49.6.25.57-.01m-.47.31l.57-.15.43-.43.13-.32.13-.32.06-.8-.16-.87-.36-.84-.5-.72-.61-.53-.33-.17-.32-.1-.61.01-.51.29"/><path d="M46.62 263.5l.2-.06m1.8 4.82l.24-.14"/></g><g class="B F"><path d="M45.36 266.01l.22.72.36.67.48.53.21.2.63.41.64.13.53-.14.04-.01.47-.28.35-.54.16-.74-.05-.84-.26-.87-.44-.79-.56-.63-.64-.41-.64-.13-.53.14-.03.01-.48.28-.35.54-.16.74v.3l.05.71"/><path d="M46.79 267.59l-.17-.23m.14-.01l-.36-.5-.33-.79-.15-.81.05-.75.25-.61.4-.39-.25.1.53-.14.6.12.59.38.53.59.41.74.25.81.05.8-.15.68-.33.51-.48.27.25-.1-.57.01-.6-.26-.57-.49-.12-.17m-.87-1.63l.03.14m.23.67l.08.19m1.4-3.84l1.29-.55m.78 5.67l1.37-.59"/></g><path d="M45.36 260.73l.9-.08m.56 6.95l-.16-.16m4.41.19l-.24-.41-.81-2.41-.12-1.16" class="C F"/><path d="M44.37 261.41l.99-.68.25-.1m2.01 2.25l1.3-.55m.79 5.65l1.36-.58" class="B F"/><path d="M254.14 36.28l.07.02.21.11.39.34.32.46.23.54.1.56-.03.49" class="C"/><path d="M242.4 40.98l11.22-4.73.39-.01.13.04 2.59-1.09m4.64-1.41l.08.05.32.35.09.17" class="B"/><g class="C"><path d="M188.67 64.08l.02-.24-.02-.19-.06-.19-.1-.17-.02-.02m-.34.14l-.02.05-.01.06.01.07.03.06.03.06.05.05.05.03h.05l.04-.01.04-.04.01-.06"/><path d="M188.24 63.37l.05.02.02.02m.82.14l.13-.02.14.04.14.11.02.02"/></g><path d="M186.39 60.33l.01-.42m2.02 3.64l-.04-.07-.04-.05-.03-.02v.03l.01.07.02.06.04.07.05.04h0 0l.01-.03-.01-.03-.01-.07m.04.62l-.61-.45-.11-.13m.96-.36l.1.15.06.19.01.19-.01.24m.09-.04v-.01l.01-.17.07-.14.1-.09.19-.07.12-.03.15.04.13.11.02.02" class="B"/><path d="M247.56 33.5l.08.03.2.1.39.34.33.46.22.54.1.56-.03.51-.11.28" class="C"/><path d="M231.18 40.17l15.86-6.7.39-.01.13.04 2.6-1.09m.99 2.89l-2.41 1.02-.06.13-.27.27-10.18 4.3m17.05-9.45l-.09-.17-.31-.35-.09-.05" class="B"/><path d="M169.93 60.7h.01" class="C"/><path d="M186.71 60.2l-2.77 1.17-.6.18-.7.1h-.74l-.7-.1-.59-.18-9.31-3.93-.37-.1-.4.09-.41.26-.36.4-.28.51-.17.55-.03.55.1.46.23.35.32.19m.01 0l9.48 3.99 1.02.31 1.2.17h1.26l1.2-.17 1.02-.31.35-.14 3.18-1.35" class="B"/><path d="M249.97 63.75l.7-.85.07-.24" class="C"/><path d="M251.05 62.94l-.45.55-.63.26-.95.4-1.1-.11-1.13-.6-1.04-1.02-.26-.41m3.73-.4l.14-.17.15-.49m.07-.43l.01-.17v-.08" class="B"/><path d="M250.72 87.24l-.01.05m1.67 3.11l.08.15.06.19.02.19-.02.28m.9-.39l-.02-.03-.14-.11-.14-.04-.13.02m-1.01-.09l-.01.02.01.07.03.07.03.06.05.04.05.03.05.01.04-.02.04-.03.02-.06m.87.17l-.03.01-.04.03" class="C"/><path d="M252.16 90.5v.01l.01.07.02.07.04.06.05.05h.01v-.03-.03l-.02-.07-.03-.07-.04-.06-.02-.01m1.43.25l-.03-.03-.13-.11-.15-.04-.13.02-.18.08-.11.08-.06.13-.02.18v.04m-.1.04l.02-.28-.01-.19-.06-.19-.08-.15" class="B"/><path d="M225.46 44.65l-.2.39-.49.35-.72.26-.88.14-.95.02-.91-.12-.39-.12-.38-.11-.55-.33-.27-.38m.29-.78l-.03.36.24.35.5.3.7.21.83.11.86-.02.81-.13.66-.23.44-.32.18-.35-.1-.37" class="C"/><path d="M225.45 46.77l.01-2.12-.12-.4-.24-.37-.38-.33-.61-.25-.78-.16-.85-.05-.85.07-.74.19-.56.28-.32.34-.25.38-.04.4-.01 2.11" class="B"/><g class="C"><path d="M261.74 216.04l1.88.79m10.31-26.07l-.22-.05-.24.06-.51.21-1.13.69-1.03 1.06-.85 1.33-5.75 11.27-.67 1.79-.24 1.81v6.14l.14 1.24.39 1.04.62.78.84.72.81.46m2.04-10.1l.05-.03.72-.07.63.26.45.56.24.8v.95l-.24 1.01-.45.95-.63.78-.72.54-.74.24-.68-.1-.55-.41-.22-.43"/><path d="M269.44 191.41l1.88.79m2.94 2.67v1.59l1.01-.43"/></g><g class="B"><path d="M274.26 194.87v-3.43l-.04-.29-.11-.24-.18-.15-1.88-.79-.21-.05-.25.05-.51.22-1.13.69-1.03 1.05-.85 1.34-5.75 11.27-.67 1.79-.23 1.8v6.14l.13 1.25.39 1.04.62.78.84.72.81.45 1.88.8.94.1 1.02-.26 3.86-1.63"/><path d="M265.84 213.92l-.11-.81.12-1 .36-.99.55-.88.68-.67.69-.36.22.72v.96l-.25 1-.45.95-.63.79-.72.54-.31.09-.14-.26-.01-.08m12.94.27l-.36.37-1.12.68-.55.23"/></g><path d="M259.94 33.31l.47.36.01.02-.48-.38-.79-.36m1.27.74l.17.13m.7-.15l.31.46.11.16" class="C"/><path d="M261.72 34.29l-.42-.61-.03-.03-.56-.5-.61-.27-.07-.02-.59-.01-.09.02-.2.08-.46-.2-.32.13" class="B"/><path d="M252.57 30.17l.79.36.49.38-.02-.02-.47-.36m1.35.36l.31.46.12.16m-1.29-.6l.16.13" class="C"/><path d="M255.14 31.52l-.42-.62-.03-.03-.56-.5-.6-.27-.08-.02-.59-.01-.08.02-.21.08-.45-.2-.32.13" class="B"/><path d="M102.55 164.91l.27-.39m72.22-101.66l-64.34 90.58m28.23 12.02l-8.77 12.35m13.61-19.16l-2.1 2.95m35.46-101.69l12.37-17.42m44.41-7.4l-1.25.53-1.08.26-1.19-.24-1.2-.73-.29-.31m3.76 1.02l2.25 2.97" class="C"/><path d="M150.21 170.33l-16.74 7.08-.54.18-.61.14-1.4.12-1.52-.09-1.49-.3-1.31-.47-22.39-10.47-1-.6-.59-.68-.13-.67.08-.16m7.92-11.25l64.24-90.44m14.46-20.36l-12.37 17.41m52.77-26.29l.85.9 1.2.73 1.2.24 1.07-.26 2.25 2.97m2.26 2.98l-.06-.07" class="B"/><g class="C"><path d="M201.41 144.37L188.1 150l-.26.05-.28-.05-.27-.15-.24-.24-.18-.29-7.33-16.52-.11-.32-.03-.32v-19.02-7.93l.03-.29 43.85-18.53m-43.85 46.09l43.85-18.53"/><path d="M179.43 104.92l.11-.23 19.88-27.99.18-.15.22-.06.24.06 8.1 3.42.28.08.33.05h.35l.33-.05.28-.08 1.5-.64m-23.81 70.59l-1.54.73m12.63-76.52l-.04.01m17.06 64.35l1.55-.74-.71-1.18-.95-.94-1.09-.6-1.13-.21-1.05.21-9.4 3.97-.3.21"/><path d="M208.94 78.5v1.6m5.93 55.23l-1.53.73m3.74 1.69l13.3-5.62"/></g><path d="M224.22 84.99l-.83 1.17-.11.23-.04.29v26.95l.04.32.11.32 7.33 16.52.1.33.01.32-.07.3-.16.24-.22.15-1.54.73-13.31 5.63-.7-1.19-.95-.94-1.09-.6-1.13-.21-1.05.21-8.16 3.45-.58.4-.62.94-.29 1.19.05 1.32.4 1.31-1.53.73-13.32 5.63-.26.05-.28-.05-.27-.15-.24-.24-.18-.29-7.33-16.52-.36-1.09-.12-1.07v-16.66-10.29l.12-.98.36-.78 19.88-27.99.59-.53.04-.01" class="B"/><g class="C"><path d="M224.27 34.7l-1.56.66-.09.22-.82 1.33m-1-4.8l.03-.03.02-.04.01-.06v-1.12"/><path d="M221.18 30.1l.22-.05.24.05.31.13.25.16.21.23.18.3.11.32.04.33v3.52l-.03.27"/><path d="M224.07 30.11l-1.57.66"/></g><path d="M222.64 37.44l1.54-2.53.09-.21.03-.27v-3.52l-.04-.33-.11-.33-.17-.29-.22-.24-.24-.15-.15-.06-.16-.07-.25-.05-.21.05-1.57.66-.17.15-.11.23-.04.29v.09" class="B"/><path d="M255.35 68.1l-3.8 14.77" class="C"/><path d="M198.16 46.15l1.8 8.54m2.13 10.06l-.24-1.13m54.34 6.64l-3.08 11.96" class="B"/><g class="C"><path d="M245.88 89.08l.74.31m.18-1.61l.27-.74.44-.56.54.24-.39.5-.22.57m-1.56-.4l.34-1.12.66-.88.9-.46.99-.02v1.19l-.67.05-.59.33m.54.24l.52-.28.51-.06-.31-.28m1.26 1.18l-.01-.07-.07-.19-.12-.11-.16-.03-.19.04-1.08.46m-.45-3l1.13-.01.23-.08.28-.05.29-.02.28.02.23.06.18.11.09.13v.15l-.09.13-.18.11 1.13.96.98 1.33.72 1.56.38 1.61-.64-.01-.33-1.4-.66-1.44-.9-1.22-.99-.85.31-.54m-1.6 9.08l.29.26"/><path d="M250.08 85.47v1.18l.67.62.58.82.45.94.26.97.92.38m-4.19-5.47l.31-.54m0 2.01l.23-.09.28-.06.29-.04.2.01m.28 1.22v-.51m3.2 5.29l.04-.13h-.36m-1.2-.51l-.01-.15-.04.13m.04-.13l2.04-.86.13-.07m-1.77.76l-.68-.5-.04-.05m1.89 1.38l2.03-.86.21-.12.2-.19.16-.25.11-.26.03-.28-.03-.24-.11-.21-.16-.13-.2-.05-.21.05-2.03.86m6.31-10.21l1.12.59 1.18 1.16.95 1.52.61 1.72.22 1.72-.22 1.53-.27.54"/></g><path d="M248.03 87.87l-.12.08-2.03.86v.27l.24 1.01m2.28-2.71l-.96.41-.64-.01-.92-.39v-.27l.37-1.28.72-.96.98-.5 9.47-3.96 1.08-.45 1.25.12.16.09m-9.8 14.39l.28.25h.31m-1.43-.61l-.19.06-.31-.27m6.88-.91l6.56-2.75.95-.72.34-.66" class="B"/><g class="C"><path d="M272.24 220.47l1.88.8"/><path d="M276.58 223.74l-.81-.45-.84-.73-.62-.77-.39-1.05-.13-1.24v-6.14l.23-1.81.67-1.78 5.75-11.28.85-1.33 1.03-1.05 1.13-.69 5.21-2.21.24-.05.22.05m-10.5 20.43l.05-.03.72-.07.63.26.45.56.25.8v.96l-.25 1-.45.95-.63.79-.72.53-.74.24-.68-.1-.55-.41-.22-.42"/><path d="M279.93 195.84l1.88.79m8.65 1.85l-1.01.43v-1.59"/></g><g class="B"><path d="M299.47 199.69l-8.68 16.93-.85 1.32-1.03 1.05-1.12.69-9.25 3.9-1.01.26-.95-.1-1.88-.79-.81-.46-.84-.72-.62-.78-.39-1.04-.13-1.24v-6.14l.23-1.81.67-1.79 5.75-11.27.85-1.33 1.03-1.06 1.13-.69 5.21-2.2.25-.05.21.05 1.88.79.18.15.11.23.04.3v3.43"/><path d="M276.48 218.7l.31-.1.72-.54.63-.78.46-.95.24-1.01v-.95l-.22-.73-.69.37-.68.67-.55.88-.36.99-.12.99.12.89.14.27"/></g><g class="C"><path d="M233.43 32.26l-.54.53-.73.2-.81-.17-.16-.1m11.48-5.15l6.84 2.89v1.56l-.01.11-.04.09-.06.06-.5.17-.3.36-.1.3m2.68 2.1l-.14.42-.31.35-.42.13-.48-.1-.14-.09"/><path d="M249.46 32.22l.68-.29v-1.21l5.95 2.52v1.56l-.01.11-.04.09.68-.29V33.5l4.73 2"/><path d="M249.4 32.28l.74-.31v-.04m.94-2.13l-1.57.66m.63 1.51v.24m0-1.49l.94-.39m4.96 4.67l-.07.06-.49.17-.31.36-.09.3"/><path d="M255.97 35.06l.75-.32v-.03m-.63-1.47l1.57-.66m-.94 2.16v.25m0-1.49l.94-.39"/></g><path d="M232.76 32.06l.16.1.51.1.02-.01.33-.83.07-1.02-.21-1.11-.45-1.08-.12-.18m13.25-.24l4.76 2.01v.53l.63-.27 5.95 2.52v.53l.62-.27 4.06 1.72m-11.16.65l.03-.09.01-.62-.16-.65-.3-.61-.5-.6-.06-.11-.04-.13-.02-.12v-.07l-.07.23m7.72 5.4l.01-.56-.16-.65-.31-.61-.49-.6-.07-.11-.04-.13-.01-.12v-.07l-.07.23" class="B"/><path d="M346.65 251.88L270.76 80.89m99.05 161.19L296.76 77.5m58.72 194.28l-.74-1.66m23.9-8.13l-.74-1.67" class="C"/><path d="M254.64 96.49l11.03 24.86m31.09-44l73.1 164.71m8.1 18.24l.62 1.39.13.6-.34.57-.34.26-.45.22-18.79 7.94-.53.19-.62.15-1.4.17-1.52-.02-1.49-.2-1.3-.37-22.39-8.46-1-.51-.6-.58-27.65-62.3" class="B"/><g class="C"><path d="M160.48 133.09l.26-.23.14-.04.15.04m25.61-42.36l-5.93.96-1.06.4"/><path d="M180.9 91.34l.01-.01"/></g><path d="M184.88 149.03l-23.24-15.35-.17-.17-.15-.25-.11-.28-.05-.06-.04-.02-.09-.04-.55.23-.22.05-.24-.05-7.02-2.97-.1-.06-.09-.09-.06-.12-.05-.13-.02-.13.02-.12.04-.09 26.07-36.7.84-.82 1.26-.53 1.05-.4 4.94-.8" class="B"/><path d="M195.6 66.31l2.35.99m4.37 8.78l-2.15-1.41-1.51-2.38-.01-.01-.74-3.16.08-3.63.91-3.79 1.66-3.61 2.25-3.1.86-1.16.66-1.33-2.35-.99m-1.41 15.57l.01.11.27.67.45.44.58.16.66-.14.65-.42.59-.65.45-.82.27-.89.05-.88-.16-.75-.37-.56-.52-.3-.63-.02-.33.11-.34.18-.06.05m2.19-10.87l.41-1.42.15-1.4v-.69" class="C"/><g class="B"><path d="M213.48 80.12l-.17-.02-10.99-4.02-2.35-.99-2.15-1.42-1.51-2.39-.75-3.15.08-3.64.92-3.79 1.65-3.6 2.25-3.11.86-1.15.66-1.33.42-1.42.14-1.4V48"/><path d="M200.84 66.91l-.27.17-.05-.71.17-.9.36-.87.53-.74.56-.49.06.3-.05.87-.27.9-.45.82-.59.65"/></g><g class="C"><path d="M250.79 60.32l-1.28.61"/><path d="M251.23 59.52l-.21.15-.15.22-.08.27v.31l.08.32.15.29.21.25 3.82 3.48.78.89.59 1.07.34 1.17.39 1.21.68 1.07.9.83 1.03.47 1.03.09.98.04.99.37.93.65 31.66 28.85.25.17.27.09.26-.01.23-.1m-41.52-34.82l1.28-.61"/><path d="M258.28 70.63l-1.28.61m1.96-3.56l-.01-.14.09-.31.18-.23.25-.14.28-.02.3.09.27.2.23.28.14.33.06.35-.04.33-.14.27-.21.19-.27.08-.29-.03-.29-.15-.05-.04m1.53 3.71l1.28-.61m31.06 25.06l-.06-.2-.01-.29.08-.26.15-.2.21-.12.24-.02.25.08.24.17.19.24.12.28.05.3-.04.28-.11.23-.18.16-.23.07-.25-.03-.25-.13-.21-.2-.1-.16m1.54 5.23l1.29-.61m-1.28-49.26v-.14l.09-.31.18-.23.24-.14.29-.02.29.09.28.2.22.28.15.33.06.35-.05.33-.13.27-.21.19-.27.08-.3-.03-.29-.15-.04-.04"/></g><g class="B"><path d="M249.74 61.69l.21.25 3.82 3.48.78.89.58 1.07.35 1.16.39 1.22.68 1.07.9.83 1.03.47 1.03.09.98.04.99.37.92.65 31.67 28.84.25.18.26.09.27-.01.23-.1 1.28-.61.19-.18.11-.25.04-.3.11-42.26.14-1.11.4-.95.64-.73.65-.8.34-1.05v-1.21l-.34-1.22-.64-1.1-.63-1.04-.4-1.15-.13-1.17.01-5.1-.04-.32-.12-.31-.18-.27-.23-.21-.26-.13-.27-.05-.25.06-44.27 18.7-1.28.61-.21.15-.15.22-.08.27v.31l.07.32.16.29"/><path d="M259.07 68.23l.18.31.21.2.01-.04-.06-.35-.15-.33-.22-.28-.08-.06v.2l.11.35M293.36 97l-.03-.09.09.19-.06-.1m2.02-43.57l.1.09v-.04l-.05-.35-.15-.34-.22-.28-.09-.05.01.2.1.35.19.31.11.11"/></g><g class="C"><path d="M137.25 163.43l1.88.79m2.47 2.47l-.81-.45-.84-.72-.62-.78-.39-1.04-.14-1.24v-6.14l.24-1.81.67-1.79 5.75-11.27.85-1.33 1.03-1.06 1.13-.69 5.21-2.2.24-.05.22.05m-12.64 25.48l.22.42.55.42.68.09.74-.23.72-.54.63-.79.45-.94.24-1.01v-.95l-.24-.8-.45-.56-.63-.26-.72.07-.05.03"/><path d="M144.95 138.79l1.88.8m7.81 2.2l-.18.07v-1.59"/></g><g class="B"><path d="M154.46 140.27v-3.43l-.03-.29-.12-.23-.17-.15-1.88-.8-.22-.05-.24.05-5.21 2.21-1.13.69-1.03 1.05-.85 1.33-5.75 11.28-.67 1.78-.23 1.81v6.14l.13 1.24.39 1.05.62.77.84.73.81.45 1.88.79.94.11 1.02-.26 3.86-1.63"/><path d="M141.27 160.29l-.03.2.12.89.14.27.31-.09.72-.54.63-.79.45-.95.25-1v-.96l-.22-.72-.69.36-.68.67-.55.88-.36.99-.09.79m10.99 2.57l.55-.23 1.12-.69.36-.36"/></g><path d="M250.35 28.4l-.51.87" class="C"/><path d="M247.66 27.99l-.17.29m-7.18 12.73l7.54-3.18.49.65" class="B"/><g class="C"><path d="M300.8 192.52l.07-.06.05-.09.01-.11-.01-.13-.04-.13-26.07-58.74-.84-1.53-1.06-1.3-8.61-8.67-.65-.55-.68-.37-.27-.12m29.49 67.86l.2-.15.06-.01.08.02"/><path d="M300.89 192.42l1.26-.53"/></g><path d="M253.22 178.24l38.41 10.39.29.03.27-.08.34-.14.02.01.19.11.14.15.26.46.22.23.24.15 7.02 2.97.1.02.08-.02 1.26-.53.06-.05.05-.1.02-.11-.02-.13-.04-.13-26.06-58.74-.85-1.53-1.05-1.3-8.62-8.67-.65-.55-.67-.37-.28-.11-1.25.52 5.03 11.35.14.24.3.38.11.2.45 1.01.07.21.04.25-.01.23-.06.17-.07.12-.23.23-.12.23-.06.25-3.32 29.07-.16.59-.31.49-11.28 12.5" class="B"/><g class="C"><path d="M183.22 39.83l.28.37"/><path d="M183.51 39.95l-.01.03v.44m.9.12l.09-.01.27-.05m.91.39h0l.04 6.39"/></g><path d="M182.98 39.73l.52.69.34.19.56-.07m.05 8.49l-.05-8.49" class="B"/><g class="C"><path d="M228.86 88.52v-2.41m0-.07v.14l.11.14.2.12 8.1 3.42.84.53.75.82.59 1.03 19.88 44.79.36 1.09 9.14-3.86"/><path d="M238.48 90.8l7.6-3.21m18.82 77.33l-5.21 2.2-.36.78-7.33 10.32-.1.18-.01.13"/><path d="M259.69 167.12l.12-.98v-26.95l-.12-1.07"/></g><g class="B"><path d="M253.34 178.1l-1.01.42-.22.07-.15.01-.07-.07-1.54-2.03.01-.13.1-.18 7.33-10.32.11-.23.03-.29V138.4l-.03-.32-.11-.32-19.88-44.79-.17-.3-.22-.25-.25-.15-8.1-3.42-.2-.12-.11-.14v-2.55l.11-.14.2-.12 6.5-2.75.11-.03.27-.02.13.02.12.03 8.56 3.62.84.53.18.2"/><path d="M246.72 88.46l-.26-.46-.55-.6"/></g><g class="C"><path d="M147.75 167.86l1.88.79"/><path d="M152.09 171.13l-.81-.46-.84-.72-.62-.77-.39-1.05-.13-1.24v-6.14l.23-1.81.67-1.79 5.75-11.27.85-1.33 1.03-1.05 1.13-.69.51-.22.25-.05.22.05m-5.81 18.44l.05-.03.72-.07.63.26.45.56.25.8v.96l-.25 1-.45.95-.63.78-.72.54-.74.24-.68-.1-.55-.41-.22-.42"/><path d="M155.44 143.23l1.88.79m3.11 4.18l-.17.08v-1.59"/></g><g class="B"><path d="M169.38 157.99L166.3 164l-.85 1.33-1.03 1.05-1.12.68-9.25 3.91-1.01.26-.95-.1-1.88-.8-.81-.45-.84-.72-.62-.78-.07-.2-.32-.84-.13-1.25v-6.14l.23-1.8.67-1.79 5.75-11.27.85-1.33 1.03-1.06 1.13-.69.52-.22.24-.05.22.05 1.88.8.17.14.11.24.04.29v3.43"/><path d="M151.99 166.09l.31-.1.72-.54.63-.79.46-.94.24-1.01v-.95l-.22-.73-.69.36-.68.68-.55.88-.36.98-.12 1 .12.89.14.27"/></g><g class="C"><path d="M181.86 60.34l.34-1.12.66-.89.9-.46.99-.01v1.18l-.67.06-.59.32.54.24-.39.5-.22.57m.58 4.29l.08.11.67.62v1.19l-.99-.85m.17.16h0m-1.15-5.53l.27-.74.44-.56m.54.24l.52-.28.51-.06-.31-.28m-.82-1.72h1.13l.23-.08.28-.06.29-.02.28.02.23.07.18.1.09.14v.14l-.09.14-.18.1 1.13.96.99 1.33.71 1.57.38 1.6h-.64l-.33-1.41-.66-1.43-.9-1.23-.99-.85v.73l-.2-.01-.29.04-.28.07-.23.08m-.31 7.62l.31.27"/><path d="M184.75 65.75l.31-.54-.39-.38m2.83 2.93l.99-.5.71-.96.38-1.28-.64-.01-.92-.39-.01-.26-.21.56-.39.5-.52.28-.52.06.18-.09.09-.08v-.09l-.09-.09-.18-.08-.22-.09-.29-.07-.29-.03-.28.01-.23.06m-.68-4.89l1.08-.45.19-.05.16.03.12.12.07.18.01.07m-.95-2.9l-.31.54m4.19 7.15l-.33 1.12-.66.89-.9.46-.99.01m1.96-2.87l-.26.75-.45.56-.58.32-.67.06v.88"/><path d="M186.37 65.76l-.31.55m0-7.17v.45l.67.63.58.81.45.94.26.97.92.39"/><path d="M186.34 59.85v.51m-.28-1.95l.31-.54m1.64 6.49l.4-.17-.68-.51-.05-.07m.73.58l1.64-.69.12-.08m-.59 1.6l2.03-.86.21-.13.2-.19.16-.24.11-.27.03-.27-.03-.25-.11-.2-.16-.13-.2-.05-.21.04-2.03.86m9.37-7.24l-.76-1.21-1.18-1.16-1.12-.6"/></g><path d="M184.01 60.82l-.12.07-1.79.76m13.79-8.53l-.16-.08-1.25-.12-1.08.44-9.47 3.96-.98.5-.72.96-.37 1.29v.27l.92.38.64.01.96-.41m-1.32 4.82l.7.95.17.16 1.13.96.23-.06.28-.02.29.02.2.04v.3l.31.28 1.13-.01 8.18-3.43" class="B"/><path d="M108.97 151.69l-4.02 5.7-4.09 5.67m13.93 6.84l.18-.16 2.96-4.16.11-.24.03-.29-.04-.33-.11-.33-.18-.29-8.35-11.02-.28-.48-.17-.62.06-.57.3-.46m2.89-.17l-1.88.79-.18.11-.15.23-.04.29.09.31.14.23 3.93 5.19m3.95 6.95l.79-.33" class="C"/><path d="M114.1 157.93l4.42 5.84.18.29.11.33.05.32-.04.3-.1.24-2.96 4.16-.18.16-.79.33-.23.05-.25-.06-12.66-5.92-.1-.06-.47-.43-.22-.42.06-.27.3-.45 8.08-11.39.37-.23 3.65-1.54" class="B"/><g class="C"><path d="M380.32 259.29l-.36.13-.37.15-23.68 10.01-1.48.65-8.08-18.22m25.86-10.92l2.48 5.62 2.85 6.36"/><path d="M372.17 241.09l2.7 6.02"/></g><path d="M336.63 258.36l-.2-.44-.1-.33-.04-.32.05-.29.11-.23.18-.15 8.35-3.96 1.02-.47 1.37-.6 24.14-10.21.66-.27.07-.01 5.3 11.99 2.78 6.22-1.01.44-.18.07-.75.32-23.11 9.77-.74.32-.1.02-.99-.05-.72-.1-12.66-4.78-.26-.16-.23-.24-.18-.31-2.76-6.23" class="B"/><g class="C"><path d="M186.32 60.36l-1.01-.43m6.58 2.92l-.06-.02h0l-.12.01-.12.06-.12.11-.1.15-.06.17-.02.17.02.11v.04l.07.11.09.07.12.01.13-.05.12-.1.1-.14.07-.16.03-.17-.01-.16-.05-.13-.09-.08.02-.05-.06-.11m-.52 1.22l-.12-.08-.08-.14-.03-.19.03-.21.08-.21.11-.19.06-.05.09-.09.16-.07.15-.01.07.11-.13.01-.14.06-.13.13-.11.16-.07.19-.02.19.03.16.01.02.06.11.1.07.13.01"/><path d="M191.83 62.83l.02-.05m-.07-.11l-.32-.14m.55.36l-.1-.09"/></g><g class="B"><path d="M183.61 60.65l1.01.43m1.71-.72l-1.02-.43m6.16 2.6l.38.16.11.1.05.1.06.14.01.17-.03.19-.08.19-.11.15h0l-.14.11-.14.05-.1.04-.15-.02-1.57-.66"/><path d="M224.24 34.77l.2 1.97-.24 1.41"/></g><path d="M245.92 61.82l.19.17.27.14.27.09.51-.01.43-.25.3-.46.12-.56m-.38 1.55l.51-.29.35-.54.16-.74-.02-.24m.27-.11l.01.24-.16.73-.35.54-.32.19" class="C"/><path d="M248.08 62.27l-.19.11-.26.11-.61.01-.32-.1-.33-.17-.46-.4" class="B"/><g class="C"><path d="M46.83 268.82l.29-.24.07.02m-.58-.93l.61.51.64.26.6-.05.11-.07m-1.91-4.88l-.05.01-.51.29-.33.56-.14.74.08.85.3.86.47.76-.35.61m.82.31l-.01.03-.02.05-.04.03h-.05l-.05-.02-.05-.04-.04-.06-.03-.06-.02-.07v-.07l.02-.05.04-.04.04-.01.05.01.04.02m-.69-.68v.04l-.02.02-.01.02-.04.03h-.05l-.05-.02-.05-.04-.04-.05-.03-.07-.02-.07.01-.06.02-.06.03-.03.04-.02.05.01.04.02"/><path d="M46.48 267.51l.19-.08m-.25-4.57l.75-.02.79.35.73.67.6.91.39 1.04.13 1.06-.14.93-.4.7-.61.39"/></g><g class="B"><path d="M45.38 265.91l-.13-1.05.15-.93.41-.69.61-.38.19-.08.75-.02.78.35.74.67.6.91.39 1.04.13 1.06-.15.93-.4.7-.6.39-.19.08-.75.03-.72-.32-.17.14-.19.08-.57-.54.35-.61.19-.08.61.51.64.26.52-.04.38-.26.31-.58.11-.76-.11-.86-.32-.85-.48-.74-.6-.54-.65-.29h-.55l-.37.22-.34.56-.13.74.08.86.3.85.47.76-.36.61-.18.08-.48-.71.11-.45-.38-1.05"/><path d="M46.08 267.25l.04.06.02.07.01.07-.01.02-.03-.03-.04-.05-.03-.07-.02-.07v-.06l.06.06m.81.95l.03.07.03.06v.07.03l-.03-.03-.05-.06-.03-.06-.01-.07v-.06l.01.01.05.04"/></g><path d="M255.75 13.68l.3.38.57.32.79.22.57.07.35.04.94-.03.88-.16.7-.27.46-.35.17-.39m-.39-.76l.13.36-.15.35-.42.32-.64.25-.8.14-.86.03-.49-.06-.34-.04-.72-.2-.52-.29-.27-.35v-.36" class="C"/><path d="M261.46 15.62l.02-2.11-.15-.4-.24-.36-.41-.33-.62-.25-.79-.15-.86-.03-.84.08-.73.2-.54.29-.29.34-.25.38-.01.4-.01 2.12" class="B"/><g class="C"><path d="M250.34 87.44l-1.05-.44m6.09 3.98l-.1-.12-.05-.16-.01-.21.05-.21.1-.2.14-.17.15-.11.16-.04-.02.11.05.02.05-.13"/><path d="M255.8 89.87l-.01.02-.12.03-.13.09-.1.13-.08.16-.04.17v.17l.04.13.08.09.11.04.13-.02.12-.08.11-.12.09-.15.05-.17.01-.17-.03-.14-.07-.11-.11-.05m-.03-.13l-.37-.16"/></g><path d="M248.68 88.15l-1.04-.44v-.01m2.73-.27l-1.04-.44m6.15 2.6l.42.17.12.07.09.13.04.18-.01.21-.06.21-.05.09-.06.1-.14.16-.16.09-.15.03-.14-.05-1.59-.67" class="B"/><path d="M246.88 63.02v-.56m-.23 0l-.02.05-.03.04-.05.02-.05-.01-.05-.03-.04-.04-.04-.06-.03-.07v-.07-.06l.01-.02m1.24.64l-.02.06-.03.04-.05.01h-.05l-.05-.03-.04-.05-.04-.06-.03-.06-.01-.07.01-.07.03-.04.04-.03.04-.01.05.02.03.02m.47.13l-.18.06-.11.46m-.61-.73v.46m1.4-.41l.5-.57.27-.84-.01-.7" class="C"/><g class="B"><path d="M246.01 61.92l.16.18.1.55.61.37.16-.06v.13l.61.14.19-.08.1-.44.5-.16.18-.08.51-.57.27-.84-.01-.7"/><path d="M246.64 62.37l.01.02v.03.03.01l-.01-.01-.05-.04-.03-.06-.01-.03m1.02.4l-.03-.07-.05-.05-.02-.02-.01.03.01.07.03.06.03.07.05.04h.01 0v-.07l-.02-.06"/><path d="M229.66 33.37l4.02-1.71"/></g><g class="C"><path d="M245.98 91.6v-.46.49m0-.49v-.16.16m0-.64v.48-.53m2.91-.29l.44.25 1.51.64"/><path d="M249.2 90.34l-.11-.14m1.55.77l1.7-.85-.65.33m5.58 7.16l-.28-.27-.17-.42-.03-.51.1-.55.22-.54.33-.46.39-.34.21-.11.2-.06h.39"/></g><g class="B"><path d="M245.98 91.63v.02l.19.49.47.61.32.35.83.49 9.48 4.02.36.1.41-.09.4-.26.37-.4.27-.51.17-.55.03-.54-.1-.47-.22-.35-.33-.19-7.79-3.3"/><path d="M245.98 90.47v1.18m4.77-4.38l-2.96 1.25-.83.49-.32.34-.47.62-.19.48m6.72-.18l-1.86.78"/></g><g class="C"><path d="M301.18 31.69l-.65.84-1.22.71-6.73 2.84-47.29 19.99-1.69.52-1.97.27h-2.08l-1.98-.27-1.68-.52-54.02-22.83-1.22-.71-.65-.84m2.96-.19l.35.38.61.3.82.21.92.08.94-.05.86-.18.36-.12.31-.16.41-.36.12-.4-.2-.39-.48-.34-.72-.26-.89-.15-.94-.01-.91.11-.77.23-.55.33-.27.38.03.4"/><path d="M210.33 42.69l.27-.39.55-.32.77-.24.91-.11.95.02.88.14.72.26.49.34.19.4-.11.39-.42.36-.31.16-.36.13-.84.17-.95.05-.93-.08-.82-.21-.61-.3-.34-.37-.04-.4m1.37-22.26l.64.16.75.07.76-.04.69-.15.29-.1.25-.13.33-.29.1-.32-.16-.31-.39-.28-.58-.21-.72-.12-.76-.01-.74.09-.62.19-.44.26-.22.31.03.33.28.3.51.25m50.9 13.76l.95-1.4.19-2.46-1.27-2.4-2.65-2.2-3.85-1.85-4.83-1.38-5.48-.84-5.8-.23-5.76.39-5.35.98-4.6 1.51-3.58 1.94-2.31 2.26-.91 2.44.55 2.45.69.81m1.37 13.08l.03.05.11.07m-.33-.39l-.05-.06.01-.05m.75.72l.15.06m.79.22l-.2-.04m1.11.14l-.21-.01m1.15-.02l-.21.02m1.08-.18l-.19.05m.74-.25l.14-.07m.46-.35l-.03.05-.05.04m.22-.38l.03-.05-.02-.06m12.68 8.24l.61.31.81.2.93.08.94-.05.85-.17.37-.13.3-.16.42-.36.12-.39-.2-.4-.48-.34-.73-.26-.88-.14-.95-.02-.91.11-.77.24-.55.32-.27.39.04.4.35.37m-.39-47.1l.04.4.35.38.61.3.81.21.93.08.94-.05.85-.18.37-.13.3-.15.42-.36.12-.4-.2-.39-.48-.34-.73-.26-.88-.15-.95-.01-.91.11-.77.23-.55.33-.27.38"/><path d="M255.78 15.9l-.04-.05v-.03m.25.38l.09.08m1.38.53l-.24-.05m-.56-.17l-.18-.08m1.63.38l.26.02m.93-.04l-.24.03m1.8-.46l-.16.08m-.53.19l-.22.06m1.51-1.07l.01.05-.01.04m-.24.4l.06-.04.02-.06m4.38 26.62l.22-.31.45-.26.62-.19.73-.09.77.01.71.12.59.21.39.28.16.32-.1.32-.34.29-.24.12-.3.11-.68.14-.76.04-.75-.07-.66-.16-.5-.25-.27-.3-.04-.33m.1-22.28l-.26-.13-.35-.38-.03-.4.27-.38.55-.33.77-.23.91-.11.94.01.89.15.72.26.37.26.12.08.19.39-.12.4-.42.36-.3.15-.36.13-.86.18-.94.05-.92-.08-.82-.21-.35-.17m26.8 11.08l-.04-.41.27-.38.55-.33.77-.23.91-.11.95.01.88.15.72.26.49.34.19.39-.12.4-.41.36-.31.16-.36.12-.85.18-.94.05-.93-.08-.81-.21-.62-.3-.34-.37"/></g><g class="B"><path d="M180 37.51v-1.37 1.58l.65.83 1.22.71 54.02 22.83 1.68.52 1.98.27h2.08l1.97-.27 1.69-.52 4.88-2.06"/><path d="M180 37.72v-6.29m0 0v-.61l.65-.84 1.22-.71 54.02-22.83 1.68-.52 1.98-.27h2.08l1.97.27 1.69.52 13.13 5.55m-28.01 16.52l3.69-.67 5.76-.39 5.8.24 5.48.83 4.83 1.38 3.85 1.85 2.65 2.2.13.24-.67.97-2.97 2.12-1.93.92-2.19.82-5.02 1.25-5.59.69-5.83.08-5.69-.54-5.19-1.12-4.37-1.63-3.28-2.03-1.28-1.51 1.98-1.94.23-.12"/><path d="M224.17 30.32l2.79-.92m68.79 11.36l3.56-1.5 1.22-.71.65-.83v-6.9l-.65-.84-1.22-.71-37.93-16.03"/><path d="M301.18 37.72v-1.58m0-4.71V33"/></g><g class="C"><path d="M32.05 267.69L104 166.39m-56.2 94.97l-.36-.29-1.36-.49-1.27.12-1.03.71-.69 1.22-.27 1.6.18 1.81.61 1.83.98 1.64 1.23 1.27 1.37.78 1.32.18 1.17-.41.07-.08"/><path d="M43.74 263.08l.13-.78.69-1.22.6-.41m11.88 18.7l72.21-101.64m-60.4 95.92l1.2-1.2-.59 2.18"/></g><g class="B"><path d="M146.29 174.66l.18-.23-68.59 96.55-.17.14-.22.11-8.03 3.4-.73-.53.12-.45-2.12 2.13-8.03 3.39-.57.16-.71.07-.75-.05-.75-.15-.65-.24-22.39-10.46-.5-.3-.3-.34-.07-.34.17-.31 71.68-100.9"/><path d="M43.77 265.57l.01.14.62 1.83.97 1.64 1.23 1.27 1.36.77 1.33.19.46-.16.8-.9.49-1.43.04-1.73-.4-1.84-.81-1.76-1.11-1.47-.96-.76-4.06 1.72-.14.82.17 1.67m103.82-92.71l1.11-1.57-2.23 3.14m2.55-3.59l-.32.45.3-.45"/></g><path d="M356.33 273.21l-.64-1.43m21.61-7.44l-.33-.74" class="C"/><path d="M377 263.59l.27.6.07.3-.17.29-.18.12-.22.12-18.79 7.94-.27.09-.3.08-.7.08-.76-.01-.75-.1-.65-.19-22.39-8.46-.5-.25-.3-.29-.26-.58" class="B"/><path d="M319.33 271.31l1.57.59-2.73-1.03-2.04-1.08-1.07-1.29m8.98 4.59l1.58.59-4.72-1.78m34.74 4.03l-31.3-11.83m0-1.23l3.49-1.47m.93 13.47l1.58.6-4.72-1.79m6.29 2.38l1.57.6-3.14-1.19m3.14 1.19l4.72 1.78m0 0l4.72 1.78m0 0l3.15 1.19-1.58-.59m1.58.59l3.39 1.29 1.33.35-1.33-.35m13.91.19l1.57-.49-2.62.82-3.3.5-3.46.08-3.29-.35-1.48-.4m7.94-7.19l25.05-10.59m-18.84 17.13l.18-.06 25.05-10.59 2.04-1.16 1.07-1.34m-14.61-7.14l5.11 1.93" class="C"/><path d="M378.26 260.98l11.92 4.51 2.03 1.07 1.07 1.3v1.39l-.78 1.39-.99 1.24-1.88 1.08-25.06 10.59-2.59.81-3.05.47-3.2.07-3.05-.33-2.59-.69-31.3-11.83-1.88-.99-.99-1.2-.86-1.36v-1.39l1.07-1.34 2.04-1.17 9.33-3.94" class="B"/><g class="C"><path d="M169.44 158.04v-6.02l-.52-.44-18.35-20.32-.07-.13m18.94 20.89l.74.39 11.69 4.94 1.4.43 1.65.22h1.73l.54-.07 1.11-.15 1.4-.43 6.75-2.86.95-.54.55-.62v6.02"/><path d="M171.22 150.98l.34.37.62.31.81.2.93.08.69-.03.25-.02.85-.17.67-.28.42-.36.11-.4-.19-.39-.48-.35-.06-.02-.67-.24-.88-.14-.95-.02-.91.12-.77.23-.54.32-.28.39.04.4m11.71 4.59l.03.37.35.37.61.31.82.21.92.08.94-.05.85-.18.32-.13.36-.15.41-.36.12-.4-.2-.39-.48-.34-.72-.26-.89-.15-.94-.02-.91.12-.77.23-.55.33-.27.38v.03m2.85 8.45V158m12.28-2.74v-2.6l-.11.67m-.95-2.3v-.87l-.11.67.35.65.47.52.35.66"/><path d="M197 150.16l.55-.63.95-.54 26.24-11.09 1.27-.4 1.49-.23v6.02m0-6.02l1.58-.05 1.55.15 1.23.2 1.55.15 1.58-.05v6.02m-5.2-14.98l.73-.15.67-.29.41-.36.12-.39-.19-.4-.49-.34-.72-.26-.88-.14-.69-.02m6.24 11.31l1.49-.23 1.27-.4 6.75-2.86 1.02-.59.54-.69v5.65"/><path d="M238.73 133.46l-.61-.31-.35-.37-.04-.4.27-.38.55-.33.77-.23.91-.12.95.02.88.14.73.26.48.35.2.39-.12.4-.42.36-.67.28-.85.18-.94.04-.93-.08-.81-.2m7.33 5.46v-2.21m0-1.57v1.57m0-3.55v.41-1.03m0 .36v-.71"/></g><g class="B"><path d="M152.8 129.94l-.14.04-1.84.78-.19.11-.11.12-.02.14v4.79m5.2 7.04l-1.24-1.37m91.6-2.67l-.54.69-1.02.59-6.75 2.86-1.27.4-1.49.23-1.58.05-1.55-.15-1.23-.2-1.55-.14-1.58.04-1.49.23-1.27.4-7.66 3.24-18.58 7.86-.44.24v3.42l-.11.67-.55.63-.95.53-6.75 2.86-1.4.43-1.65.22h-1.73l-1.65-.22-1.4-.43-11.69-4.94-.74-.39-.52-.43-8.66-9.6"/><path d="M161.09 132.88l-.06-.02m67.1-7.9l2.74.44 1.04.22.9.31 11.69 4.94 1.02.6.54.69v.03m0 6.69v-.86"/><path d="M246.06 132.16v6.02"/></g><g class="C"><path d="M227.29 27.52l.22-.05.24.05.31.13.24.15.22.24.17.29.12.33.03.33v3.52l-.03.27-.09.22-3.1 5.06-.44.45"/><path d="M226.96 28.27v1.13.06l-.03.04-.03.03-.04.01-.05-.01-.11-.04m2.11 3.29l1.57-.66m-1.77-3.93l1.56-.66"/></g><path d="M226.96 28.27v-.08l.04-.29.11-.23.18-.15 1.56-.66.22-.05.24.05.32.13.24.15.22.24.17.29.11.33.04.33v3.52l-.03.27-.09.21-3.11 5.07-.96 1.01-.62.26" class="B"/><g class="C"><path d="M235.12 179.22l.54.7 1.01.59 11.7 4.94.9.31v6.02m-14.15-13.29v.04m3.27 1.11l-.48-.34-.2-.4.12-.39.42-.36.67-.29.85-.17.94-.05.93.08.81.21.61.3.35.37.04.4-.27.39-.55.32-.78.24-.9.11-.95-.02-.88-.14-.73-.26m10.88 6.12l1.04.22 48.1 7.76.31.02h.31v6.02"/><path d="M249.46 183.86v.01l.19.39.49.34.72.26.88.15.95.01.91-.11.77-.23.55-.33.27-.38-.04-.4-.34-.38-.62-.3-.81-.21-.93-.08-.94.05-.85.18-.67.28-.42.36-.11.39m49.57 9.9l.3-.05.25-.08 1.85-.78.2-.12.11-.14"/></g><g class="B"><path d="M235.12 185.04v.2l.54.7 1.01.59 11.7 4.94.9.31 1.04.22 17.01 2.74"/><path d="M235.12 185.22v.02-6.71m16.79-4.39l-1.36-.13-1.23-.2-1.55-.14-1.58.04-1.49.23-1.27.41-6.76 2.85-1.01.59-.54.7m44.1 18.17l-4.96-.8m27.24-3.63l.13.08.1.14v6.16l-.1.14-.2.12-1.85.78-.25.08-.3.05-.31.01-.31-.03-8.96-1.45"/></g><g class="C"><path d="M211.42 73l2.35.99"/><path d="M218.13 82.77l-2.14-1.42-.48-.76-1.04-1.63-.75-3.15.09-3.64.91-3.79 1.66-3.61 2.25-3.1.85-1.15.66-1.34-2.34-.99m-1.41 15.58v.11l.27.66.45.44.59.16.65-.14.66-.42.58-.65.45-.82.27-.89.06-.87-.17-.76-.36-.56-.53-.3-.62-.01-.34.1-.33.18-.07.06m2.19-10.88l.42-1.41.14-1.4v-.7"/></g><g class="B"><path d="M218.35 54.68v.7l-.14 1.39-.41 1.42-.66 1.34-.86 1.15-2.25 3.1-1.66 3.61-.91 3.79-.09 3.63.75 3.16 1.52 2.39 2.14 1.41 2.35 1 10.73 3.91"/><path d="M216.66 73.59l-.27.18-.05-.72.16-.9.37-.86.52-.75.56-.48.07.3-.06.87-.26.89-.45.82-.59.65m18.92-11.63v21.11"/></g><g class="C"><path d="M55.06 290.53l1.51.25-3.3-.55-2.8-.97-31.3-14.63-2.03-1.29-1.07-1.49m40.8 10.74l-31.3-14.63m0-1.37l10.08-4.26m20.92 28.45l3.46.08 1.32-.16-1.32.16m1.32-.16l1.97-.25 2.81-.84 25.05-10.59 2.04-1.2 1.07-1.44"/><path d="M59.95 282.66l25.06-10.59m0-1.37l-5.2-2.43"/></g><path d="M80.63 267.12l10.56 4.93 2.03 1.29 1.07 1.49v1.55l-.86 1.32-.99 1.33-1.89 1.12-25.05 10.58-2.59.78-3.05.38-3.2-.07-3.05-.51-2.59-.9-31.3-14.63-1.88-1.19-.99-1.38-.78-1.35v-1.55l1.07-1.44 2.04-1.21L37.3 260" class="B"/></g><g class="D G"><path d="M-.2-.2h.442v.43H-.2zM0 0h.042v.03H0z" stroke="#000" stroke-width=".5" fill="#e6e6e6"/><path d="M0 .03h.042V0h0v.03H0z" fill="#000" fill-opacity=".118"/></g><g class="D E"><path d="M244.67 6.2l13.47 5.78-1.43.28-.82.78-.01 3.09.32.32 1.28.33 2.48.01 1.27-.66.32-2.6.73-.01 37.17 15.75 1.63 1.25-.01 7.19-.32.65-4.53 2.26.68 1.45.29 6.76 1.64 3.16v2.71l-1.64 2.2-.3 1.62-.01 19.14 72.98 164.14.94-.09.64-.39.76-.01.33.35 7.72 17.35-.05.38-2.05.89.08.61.39.65-.14 1.28-5.76 2.57L358 271.5h-5.06l-24.63-9.34-9-19.83-18.91-42.64-.94.12-6.41 12.5-3.21 5.76-1.55 1.33-10.4 4.38-.85-.01-1.93-.68-1.59-.97-.96-.96-.36-.93-.3-2.61-.4-.03-3.85 1.68h-1.53l-2.84-1.32-1.3-1.27-.35-.93.01-8.9.97-2.87 4.53-8.67-.03-.39-.63-.36-17.35-2.84-12.45-5.17-1.3-.94v-7.58l3.2-1.6 5.67-2.35 1.28-.32h6.72l5.57-7.89-.01-28-19.86-44.86-1.29-.95-7.79-3.42-.22-2.02-4.31-1.61-.84 1.04.01 28.45 4.5 10.24 4.16.96 13.44 5.78.36.6v6.88l-.75.85-7.61 3.28-2.66.55h-2.14l-2.56-.32h-3.31l-1.28.32-27.55 11.54-.2 4.29-.46.49-5.33 2.36-4.25 1.52h-4.09l-3.83-1.3-9.95-4.19-.7.02-3.77 6.84-1.69 1.51-9.61 4.17h-2.81l-.61-.36h-1.09l-16.95 7.09-4.09-.01-2.87-.97-22.41-10.6-.65-.62-.64-1.29-.98-.63.01-1.16 8.54-11.65 3.82-1.62 61.21-86.2 5.22 1.98h4.74l2.56-1.01 1.93.07.51-.48.87.09.63.38.7-.19.27-.52-.62-.61-1.85.85-1.1-.17-.64-.65-.87-2.01-1.68-.59-1.3.47.3.51-.3.33h-3.51l-3.24-1.28-.38-.36 7.5-10.75-.02-8.13-.94-.34-.36-.6-2.86-1.63v-7.9l1.5-1.06L236.56 6.2l1.28-.32h5.55zm-10.89 23.69l.01 1.76-.31.57-1.09-.11-1.27.7-.98.1.33-4.28 2.69-.62zm21.16 1.31l-.64.02-2.07-1 1.75-.01zm-3.85 2.53l.02 1.44-2.92 1.57-9.38 4.07-2.47-.01-3.52-.32-1.41-.3 15.71-6.76 3.03-.96zm10.27.02l-1 .02-1.07-.68h1.42zm-4.14 2.19l.63 1.78-.33.32-6.13 1.89-6.18.87-2.26.01 10.59-4.5 3.28-.96zm-32.77.67l-.3 1.43-.62-.08-.77-.71 1.42-2.23zm.37 7.06l.64.96-.12 2.58-1.26.66-2.82-.01-1.37-.55.08-3.24.86-.73 1.76-.27zm24.97 18.28l1 .63.32.46-1.4.84-2.18.01-1.99-1.95 3.97-1.6zm-57.65 1.24l-.27.52-.7.19-.63-.38-.87-.09 1.85-.85zm60.21 26.95l1.71.22-.74.54-.97.22-.62-.35-.46.27.4.39 7.41 3.19.02 1.73-.77 1.17-1.18.01-9.89-4.21-.98-.95-.03-2.47.87-1.05 1.08-.56-.07-.73 2.2-.62.17-.01zm3.87-.06l-.35.81-.96-.09-.85-.44.74-.58 1.13.01zm11.97 119.4l.2 1.55-1.28 2.57-.96.66-.41-1.12.61-2.22.96-1.29.76-.29zm8.18 6.97l.53-1.07 1.75-.94-.11 1.95-1.32 1.91-.83.03z"/></g><g class="D E"><path d="M186.03 60.34l-.62.43-1.02.25-.41-.39.99-.64zm6.11 2.85l-.27.52-.7.19-1.07-.68 1.42-.64zm55.95 24.38l.6-.33h1.44l-.75.69-1.23-.04zm8.13 2.51l-.35.81-.96-.08-.73-.67.61-.35h1.14z"/></g><g class="D E"><path d="M189.55 63.55l-.35.34-1.28-.03-.05-.32.75-.3zm63.76 27.35l-1 .24-.4-.42.29-.29.49-.01z"/></g><g class="D E"><path d="M260.99 12.62l.36.6-.12 2.91-1.27.66-2.48-.01-1.28-.33-.32-.32.01-3.09.83-.78 2.34-.32zm-36.17 31.05l.64.96-.12 2.58-1.26.66-2.82-.01-1.37-.55.08-3.24.86-.73 1.76-.27z"/></g><g class="D E"><path d="M180.57 61.32h3.46l2.66-1.02.36.3 1.21 2.74-3.59 1.51h-4.74L170 60.68l-.68-.64.02-.88.85-1.43.36-.31.74.01zm71.81 28.96l-1.12.78.42.36 7.4 3.2.02 1.73-.77 1.17-1.18.01-9.89-4.21-.98-.95-.03-2.47.87-1.05 3.64-1.57z"/></g><g class="D E"><path d="M125.81 176.64l2.87.97 4.09.01 15.39-6.48.41.05.04.4-67.71 95.18.04.52 6.42 2.91 5.44 2.88 1.3 1.58v2.06l-1.42 2.11-1.58.97-20.19 8.65-7.35 2.91-2.26.3h-5.34l-3.22-.62-3.83-1.62-29.44-13.81-1.62-.95-1.63-2.53.02-2.14 1.81-1.71 19.2-8.36 17.1-23.91 49.52-69.62zm-77.17 86.78l1.24 2.28.02 2.06-.74.86-1.85-.07-1.28-.59-.78-3.53 1.06-1.53 1.33-.1zm341.48 1.97l2.22 1.3 1.02 1.25-.01 1.09-.98 1.92-1.93 1.59-21.78 9.3-5.78 2.22-2.66.55h-6.94l-3.85-.95-31.07-11.87-1.58-.98-1.65-2.19v-1.55l1.2-1.36 3.63-1.82 6.95-3.03.72.03.68 1.28 24.63 9.33H358l14.72-6.11 5.77-2.56.02-1.66zm-341.8-1.33l.93 1.63.01 1.75-.76.88-1.21-.35-.92-1-.36-.92v-1.86l.54-.77.76.01z"/></g><g class="D E"><path d="M224.45 36.61l-.3 1.43-.62-.08-.77-.71 1.42-2.23z"/></g><g class="D E"><path d="M49.59 263.11l1.26 2.58-.03 1.73-.62.36-.65-3.02-1.32-1.62-.38-.31 1.07-.36zm-.34 2.26v2.39l-.66.63-.96.23-1.58-1.01-.37-.59-.33-2.17.67-1.28 1.63-.12z"/></g><g class="D E"><path d="M233.78 29.89l-.01 1.72-2.65 1.2-.98.1.33-4.28 2.69-.62zm12.36 32.02l2.61-1.26.13.75-.76.9-1.59-.01z"/></g><g class="D E"><path d="M249.81 61.91l.98.67.32.46-1.4.84-2.18.01-.73-.67 1.44-.48 1.23-1.43zm-3.48.37l-.01.4-.72-.46-.06-.33h.4z"/></g><g class="D E"><path d="M249.2 61.77l-.6.36.57-1.48zm-1.96.85l.49-.05.87-.44-.71.9-1.33-.14.02-.64zm-198.6 200.8l1.24 2.28.02 2.06-.74.86-1.85-.07-1.28-.59-.78-3.53 1.06-1.53 1.33-.1zm-.32.64l.93 1.63.01 1.75-.76.88-1.21-.35-.92-1-.36-.92v-1.86l.54-.77.76.01z"/></g><g class="D E"><path d="M251.09 33.73l.02 1.44-2.92 1.57-9.38 4.07-2.47-.01-3.52-.32-1.41-.3 15.71-6.76 3.03-.96zm6.13 2.21l.63 1.78-.33.32-6.13 1.89-6.18.87-2.26.01 10.59-4.5 3.28-.96z"/></g><g class="D E"><path d="M254.94 31.2l-.64.02-2.07-1 1.75-.01zm6.42 2.55l-1 .02-1.07-.68h1.42z"/></g><g class="D G"><path opacity=".2" fill="#000" d="M0 0h30v8H0z"/><path fill="#ffffe1" stroke="#000" d="M0 0h30v8H0z"/><text xml:space="preserve" fill="#000" x="0" y="0">tooltip</text></g></svg>