<svg xmlns="http://www.w3.org/2000/svg" width="1587.402" height="1122.52" viewBox="0 0 420 297" stroke-linejoin="round" stroke-linecap="round" fill="none" fill-rule="evenodd" xmlns:v="https://vecta.io/nano"><style><![CDATA[.B{stroke-width:.529}.C{stroke-width:.176}.D{visibility:hidden}]]></style><path d="M419.93 296.91H.09V.09h419.84z" fill="#fff"/><path d="M244.54 21.41l-.01 2.63-.28 1.38-1.27.66-2.58.43-.02-3.03 1.99-.26 1.98-2.31zm-20.25 26.07l-.1 15.85-.52.2-1.88.14-.11-16.49.68-.18.94.17zm-18.58 1.91l.23 1.57-.13.73-2.23.75-.37-1.7.77-1.51 1.29-.16zm-30.32.35l.61-3.49 1.09-1.8 1.8-2.05 4.48-2.89 4.18-1.9 3.84-1.29 5.12-1.29 6.73-.96 5.88-.33v12.62l-4.72.34-3.2.32-4.17.64-2.12.52-6.72 1.92-4.71 2.02-4.64 3.1-.46.01-1.96-2.57zm-57.9 14.46l.05.41-2.63 2.24-49.63 42.64-.96 2.62.01 1.32 3.16 16.76 10.58 54.46.96.59.01.76.34-.01-.03 1.87.91 4.91.35.25-11.11 4.7-.18.07.13 4.06-.02 1.5-5.14-9.73-1.94-4.46-.74-4.49.98-6.42 3.94-20.09v-3.62l-7.37-39.09-.02-2.8 2.8-2.97 5.14-4.15 6.53-4.69 43.08-36.97zm190.47-1.72l-.58.76-1.61 1.31-1.62-.07-81.05 34.3-1.45 1.44-3.03 1.14-3.31.78-1.28.14-1.61-.14.09-12.34 5.48-.92 87.41-36.91 1.94-1.27.49-.71zM160.41 82.45l.04 45.96-2.6 1.26-13.8-41.11-.08-11.87.96-.68.41-.01zm36.52 15.38l3.88 1.89.29 45.85-2.36.99-.52-.01-13.79-41.66.02-11.11.98-.76zm19.09 9.8l.17 1.33.26.85-2.64.96.1-2.91.52-.44 1.42-.01zm-42.16 33.81l.84-.02 1.45-2.3 1.57 3.87 12.8 5.46.34 36.5.6 1.11-12.25 5.35h-1.19l-3.19-1.32-3.87-6.71-.22-.76 1.22-.22-1.09.01-.13.21-18.12 7.48-2.28 1.89-1.15 1.74-4.76 11.97-.36-54.4-.14 55.02v8.67l-.31.43-3.17 1.61-.99-.01.45-.53.3-64.74.88-2.97 1.24-2.61.79-1.45.3-2.58 3.55-1.54-.35-.81-.4-.04-3.54 1.65-12.49 10.57-1.19 1.38-.64 1.92-.01 55.67.67 1.42-5.87 2.74-1.63.42.42-3.23 2.26-7.67 1.28-7.37.32-41.33.33-1.6 2.56-2.24 22.4-19.25 2.29-.1zm42.1-2.33l.21 1.23.33 1.15-1.72.57-.97.12.08-2.62.54-.76 1.09-.02zm151.43 38.17l.17 1.81v1.94l-.18 1.8-.61 2.03-6.08 26.59-.65 3.19-.19 2.27.2.96 4.46 12.26.17 1.5v2.26l-.18 1.49-.65 1.92-6.71 14.11-2.37 1.16-18.68 7.98-.84.05-.06.19-.22.19-4.33 1.79-.89.02-.37.53-2.06.91-.29-3.66-1.64-4.16-.38-.03-11.79 4.94-.5 1.48-1.64.16-7.16 2.84-1.88 1.64-6.23 9.79-2.73 1.43-16.2 6.87-10.74 4.67v-3.38l2.26 1.75-.34-6.2-.02-6.96 1.15-3.01 3.39-5.91 10.44-17.43 1.7-5.99 6.4-28.2.32-3.3-.79-3.88 76.09-32.32zm-150.23 19.37l-22.47 9.57-2.79.71-.86-.04v-9.44l3.24-.61 22.88-9.61zm-62.51 8.94l.84-.76 19.86-8.33 2.4-.3-.01 9.38-.53.2-1.33.15-18.36 7.65-.3 8.04-.65.63-26.37 11.12-2.04.45-1.28.16-.63-.17.1-9.1 4.17-.96 26.06-11.1.62-1.12-2.54-4.15z" fill="#e5e5e5"/><path d="M326.71 229.49l.94.66.99 1.28-.34 2.36-.65 1.91-2.05 3.39-3.17 2.92-3.86 1.91-2.88.98-1.19.01-1.25-.68-.62-1.03.25-.59-.42-.07-.02-1.61.22-.93 1.21-2.7 1.31-2.22 1.47-1.73 2.56-1.92 5.13-2.25 1.14-.03.24.8.12-.87.67.02z" fill="#fff"/><path d="M206.23 49.69l-.29 1.27-.23-1.57zm.91 3.05l.37-.75v1.42l-.32-.07zm9.05 56.22l-.17-1.33.16.1zm1.2 2.09l.37-.75v1.42l-.31-.07zm-.9 28.35l-.32.94-.21-1.23zm.85 3.26l.42-.96.01 1.74zM90.07 196.97l-.36-.04.21-.75z" fill="#00001f"/><path d="M222.36 47l-.68.18-.53-.32zm1.93.48l-.99-.31h1.21zm72.93 3.35l-1.53-.13 1.58-.07zm-171.72 0l-1.53-.13 1.57-.07zM341.57 169.2l-.15.16.02-.85zm-170.83 13.42l.13-.21 1.09-.01zm40.71 3.46l-1.29-.18 1.3-.07zm-142 15.77l-.13-4.06.18-.07zm74.98 3.85l-.31.65-.19-.03.14-55.02zM107 214.59l-1.29-.17 1.3-.08zm219.51 14.51l-.67-.02.15-.24.68-.02zm4.02 33.82l-1.15.4.37-.53.89-.02zm-100.5 3.58l-1.29-.18 1.3-.08z" fill="#00001c"/><path d="M210.81 14.51l.63-.16 1.54.18zm31.63 4.83l-1.12-.05.49-.29zm2.09 4.7l.01-2.63.13.14zM115.22 59.18l.33-10.72V62.4zm192.74 3.3l-.13-12.49.27-1.53zm-53.42 6.3l-.14-.22.86.12zm-86.67.2l.65-.17 1.21.19zm109.09 32.33l.37.06.06.37-.36-.07zm-67.35 1l2.81-.17 1.61.14zm134.38 69.6l-.75-.06.83-.29zm-127.83 7.27l-.41.11.11-.41zm151.4 1.85v-1.94l.12.11zm-156.11 5.05l.01-.25 1.84.1zM88.82 197.17l.89-.24.36.04.19.21zM107 214.59l.01-.25 1.84.11zm36.93.4v-8.67l.19.03zm216.12 2.88l-.2-.96.15.11zm-34.33 12.08l-.24-.8.36-.07zm38.96 3.94v-2.26l.12.12zm-239.97.1l1.54-.18.63.17zm187.92 9.21l-.17-.66.42.07zm22.56 17.59l.06-.19.84-.05zm-105.16 5.71l.01-.26 1.52.11zm41.61 8.07l-.18-1.18.14-.13z" fill="#000020"/><path d="M207.5 12.07l1.17-.76 2.69-.32.08 3.36-.63.16-1.72-.28-1.25-.68-.33-.32zm42.93 18.27l1.91-.99 1.96-.1v3.33l-1.96-.09-1.91-.99zm-84.91 0l1.17-.77h1.74l.02 2.7-1.54-.16-1.05-.29-.33-.32zm127.8 18.23l.9-.73 2.99-.67.06 3.46-1.58.07-1.69-.6-.68-.63zm-171.68-.3l1.48-.76 2.36-.34.06 3.46-1.57.07-1.39-.27-.94-.66zm115.67 2.47l-.98.4-1.04.35-.71-1.69zm3.88 1.9l-.01.77-.34.61-1.28-.75-1.36-1.6-.02-.35.7.02zm-76.63 13.9l1.91-.99 1.96-.09.09 3.35-.65.17-1.72-.29-1.24-.67-.34-.33zm86.91 1.42l-.22-1.23 1.96-.96h1.07l.12 2.79-2.06-.2zm-63.49 5.96l-.27.37-2.07.81-1.64.1.01-2.68.62-.35 1.63-.28.34-.95.73-.55.51-.81.13.04zm-48.41 3.12l.35-.37v2.69l-.35-.37zm160.91 5.17l-1.34 1.02-.02-1.34 1.32-.08zM207.5 84.8l1.8-1.09 2.06.01v3.33l-1.95-.1-1.91-.98zm73.1 18.15l-.14.66-.88.02-.99-.72-.05-.28 1.38-.35zm1.25.63v1.74l-1.09 1.47-2.26.32.77.39.09.31-2.04-.73.26-.55.34-.34 2.53-.99.77-.51-.03-2.08zm-37.79 2.21l-1.31 1.47-.01-1.67 1.01-.11zm-102.25 1.98l.68 2.24-2.58 1.08-.35-.73v-1.88l.97-.98.66-.1zm55.48 45.81l-.13.61-2.24.78-.27-.39.01-1.24.54-.76 1.1.01zm9.24 9.24l-.29 25.8-.46.5-3.2 1.65-.64-.01.44-.54.29-33.77zm108.32-2.86l-.04 2.24-.56.49-2.43.83 1.45.31-1.97.01-1.03-.65.69-.36-.01-.28 3.14-1.6.1-1.32h-.74l-.37.35-.46.02-1.13-1.02.3-.3 1.74.1.39-.42zm-179.69 1.32l-.05.38-.74.26-1.93.44.09-1.95.53-.46.43-.01zm209.49 6.41l.03.4-1.78 1.51-.51.03-.82-.43-.13-.69.63-1.05 1.94-.13zm-46.49 2.88l3.25.31-1.09.33-1.51-.01-1.62-.31-2.03-1.25-.01-.36.43-.06zm-101.18 1.55l.33.8-1.35.61-1.04.35-.27-.4.01-1.23.54-.77 1.1.01zm-61.82 8.07l-.05.37-.74.27-1.93.44.09-1.96.54-.46.75-.01zm72.29 3.59l1.32-.96 2.58-.43.11 3.44-1.3.07-1.39-.27-1.32-.96zm92.35 2.82l.03.39-1.46 1.52-.52.02-.62-.36-.36.4-.01-1.61.86-.73h1.44zm-66.99 10.55l-.1 59.91-6.31 2.69-.01-2.93 1.95-6.06 1.27-6.1.64-6.4v-38.87l-.63-3.21-.42-.97 2.24-1 .4.04zm-97.68 2.07l-1.73.83-.97.12.1-1.96.54-.46h.75zm89.73.55l-.79-.07-1.82.78-.46-1.41.64-.99h1.45zm-121.91 12.72l1.6-1.25 2.36-.34.1 3.44-1.3.08-1.39-.27-.92-.68zm121.26 4.79l.64 1.4-.78-.08-1.82.78-.45-1.4.36-.95 1.05-.37zm-102.61 2.69l.89-.72 2.99-.67.03 3.68-1.86-.15-1.67-.63-.35-.31zm102.61 16.22l.65 1.4-1.12-.11-1.49.8-.45-1.4.36-.95 1.05-.37zm-16.71 20.02l1.91-.99 1.95-.09v3.33l-2.27-.1-1.25-.67-.33-.33zm18.59 7.68l1.16-.75 2.69-.33.1 3.43-1.3.08-2.32-.62-.34-.31z" fill="#e5e5e5"/><path d="M154.32 88.54l.02 2.36-.34.62-1.4 1.48-1.49.02-.67-1.25-.13-.78.23-.94 1.09-1.85.66-.34h.75zm40.35 16.99l.37.61-.02 1.08-.33.96-1.39 1.81-1.92.11-.51-1.16v-.98l.95-2.32 1.29-.75zm-127.16 74.6l1.26.37 1.97.26.6 1.32.01 2.68-.64 1.61-1.69 1.51-1.85-.05-.32-.56-.61-.05-1.01-2.23v-2.5l1.32-2.56.62-.12zm293.77 53.55l.03 2.03-.44.85-1.79 2.37-1.72 1.16-1.84-.02-.34-.61v-1.54l1.65-3.16 1.57-1.31.85-.44h1.08zm-83.25 35.55l-.35 2.04-1.42 2.42-2.19 1.66-1.95.07-.48-.85-.04-1.31.22-.51.72-.48-.04-1.01 1.86-2.02 1.6-1h.75z" fill="#fff"/><g stroke="#000"><path d="M221.58 46.84v16.99" class="C"/><path d="M217.9 46.51v17.7m23.27-11.62l-.39 1.48" class="B"/><g class="C"><path d="M157.76 129.62l-13.68-40.97-.23-.99-3.68-1.56m-.08-10.96l3.68 1.56v9.87l.08 1.09"/><path d="M143.77 75.44v1.26l1.5-.63m5.92 17.1l-.53-.4-.33-.64-.12-.85.12-.94.34-.94.52-.84.64-.63.71-.38.68-.06.6.24.43.53.23.76.03.45-.03.46-.23.95-.43.9-.6.75-.68.51-.71.22-.64-.09"/></g><path d="M160.46 128.48l-2.7 1.14-3.68-1.56-13.68-40.97-.23-.99-.08-1.09v-9.87l1.19-.76" class="B"/><g class="C"><path d="M180.67 103.22l3.68 1.56.23.98 13.68 40.98m-17.67-54.48l3.68 1.56v9.87l.08 1.09"/><path d="M185.77 93.18l-1.5.64v-1.27m6.9 17.35l-.34-.66-.12-.84.12-.95.34-.94.52-.83.64-.64.71-.37.68-.07.6.25.43.53.23.76.03.44-.03.47-.23.95-.43.9-.6.75-.68.51-.71.22-.64-.09-.52-.39"/></g><path d="M201.05 145.56l-2.79 1.18-3.68-1.56-13.68-40.97-.23-.99-.08-1.09v-9.87l1.19-.76" class="B"/><path d="M217.77 143.13l-.19.62-.43.53-.6.25-.68-.07-.71-.37-.65-.64-.51-.83-.34-.94-.12-.94.12-.85.34-.65.51-.4.65-.09.71.23.2.15m1.7-27.46l-.19.62-.43.53-.6.25-.68-.07-.71-.37-.65-.64-.51-.83-.34-.94-.12-.95.12-.84.34-.65.51-.4.65-.09.71.23.2.15" class="C"/><g class="B"><path d="M200.96 99.61v45.56l.03.21.07.2.1.19.14.14.15.1.99.42 1.27.75 1.18 1.13 1.02 1.42 25.52 43.51.78 1.64.49 1.72.17 1.7v58.52l.03.2.07.21.1.18.14.15.15.09 32.42 13.7"/><path d="M216.34 141.28l.11.3.52.83.65.64.15.08.04-.14.03-.44-.03-.46-.23-.96-.44-.9-.59-.74-.48-.36-.07.57.11.94.23.64m.9-30.06l-.27-.27-.52-.83-.34-.94-.11-.94.07-.57.48.36.59.74.44.9.23.95.03.47-.03.44-.04.14-.15-.08-.38-.37m54.62 160.97l.51.22"/></g><path d="M238.91 52.65l-2.46 1.04-.76-1.07-.58-1.23-.66-1.74m2 4.04l.89.84.95.57 4.6 1.94" class="C"/><g class="B"><path d="M224.28 47.22v16.29m20.26-7.85l-3.79-1.6-.95-.56-.89-.85-.76-1.07-.3-.63"/><path d="M296.69 188.29v-.38m22.59 52.11l-5.81-2.45"/></g><path d="M221.91 237.75l-.08-.7.08-.63.25-.49.39-.29.48-.06.52.16.51.38.44.56.32.66.18.71v.66l-.18.58-.31.39-.45.19-.51-.05-.52-.28-.48-.47-.39-.62-.25-.7m0-18.88l-.08-.7.08-.63.25-.48.39-.29.48-.07.52.16.51.38.44.56.32.67.18.7v.68l-.18.56-.32.4-.44.18-.51-.05-.52-.28-.48-.47-.39-.62-.25-.7m0-18.87l-.08-.71.08-.62.25-.49.39-.29.48-.07.52.17.51.38.44.55.32.67.18.71v.38.29l-.18.57-.31.39-.45.18-.51-.05-.52-.27-.48-.48-.39-.62-.25-.69" class="C"/><path d="M223.28 253.39l-4.77-2.01-1.22-2.09v-62.08l-.19-2.81-.56-2.88-.9-2.87-.19-.51" class="B"/><g class="C"><path d="M223.1 98.83l.89 1.45-2.08 1.79m2.08-1.79l.28.28 11.86 10.01 1.09 1.09-2.08 1.79m44.8 76.36l2.08-1.79-.65-1.37-43.26-73.72-.89-1.27"/><path d="M242.99 107.62l-.29-.34-.22-.42-.08-.44.05-.4.19-.32.3-.21.37-.08.42.07.41.21.36.32.27.4.16.43.01.43-.12.37-.25.27-.13.06-.21.08-.4.01-.42-.14-.42-.3m25.26 167.16l-2.85-2.18"/><path d="M281.38 196.97l2.08-1.79.65 1.37 5.6 9.53.95 2 .6 2.12.21 2.08-.21 1.89-7.34 32.05-.87 2.62-1.4 2.71-11.47 18.84-1.5 2.96-.86 2.85-.15 2.53.94 10.08m6.38-20.25l.55-.32.99-.24.8.17.51.57.17.91-.18 1.14-.52 1.26-.81 1.24-.99 1.08-1.08.8-1.05.45-.91.03-.66-.38-.35-.77.01-1.02.15-.52m11.84-77.78l-.37-1.4-.7-4.34-.37-1.42m9.24 22.18l76.1-32.16"/><path d="M296.64 187.9l.09-.7.35-.61.56-.4.72-.14.78.13.78.39.68.6.5.76.29.82.03.8-.23.7-.46.51-.65.27-.76.01m-.01-107.43l-.16-.19-.21-.42-.09-.44.06-.4.18-.32.3-.21.38-.08.42.07.41.21.36.32.27.4.15.43.02.43-.12.37-.25.27-.34.14-.41.01-.42-.14-.39-.27-.16-.18m26.27 145.14l.08-.03 1.49.27 1 .95.43 1.57-.19 2.01-.79 2.27-1.31 2.29-1.71 2.11-1.94 1.71-1.97 1.14-3.66 1.54-1.84.48-1.49-.27-1-.95-.27-.98m17.56 20.01l-1.95-5.42-.52-.82-.81-.45-1.06-.06-.13.04m18.5-84l.75-.01.65-.27.46-.51.23-.7-.03-.8-.28-.82-.51-.76-.68-.6-.77-.39-.79-.13-.71.14-.56.4-.36.61-.09.7m17.14 64.27l.55-.32.99-.24.8.17.51.57.17.91-.18 1.14-.53 1.26-.8 1.24-.99 1.08-1.09.8-1.05.44-.9.04-.66-.38-.35-.75.01-1.04.15-.52"/></g><g class="B"><path d="M221.33 101.14l.58.93.27.28 11.88 10.03 1.08 1.07.89 1.27 43.26 73.72.65 1.37.37 1.4.7 4.36.37 1.4.65 1.37 5.59 9.53.49 1.02.31 1.08.1 1.06-.1.97-7.34 32.02-.88 2.65-1.39 2.7-11.47 18.84-1.51 2.96-.86 2.85-.15 2.53.94 10.08 2.85 2.18 27-11.41 5.13-8.43 1.04-1.47 1.22-1.31 1.31-1.06 1.32-.72 18.77-7.94 1.1-.31 1.63 4.53 2.84 2.18 27.01-11.41 6.26-13.13 1.1-2.92.4-2.66-.32-2.19-4.37-12.14-.32-1.98.28-2.38 7.35-32.03.2-1.91-.2-2.08-.6-2.12-.96-2-5.59-9.53-.9-1.26-1.09-1.1-3.67-3.09-1.1-1.11-.9-1.26-43.25-73.73-.65-1.36-.37-1.4-2.27-14.07-.09-.35-.17-.34-.67-1.14-81.98 34.65-2.08 1.78.31.53"/><path d="M271.68 272.92l-.06.04.21-.7.67-1.26.91-1.17 1.05-.96.53-.31-.53 1.31-.8 1.24-1 1.08-.98.73m25.51-83.34l.6.69.74.5.79.27-.02-.5-.28-.82-.51-.76-.68-.6-.77-.39-.42-.07.15.88.4.8m15.1 52.84l.12.44 1.73-.44 3.68-1.56 1.98-1.14 1.93-1.71 1.72-2.11 1.31-2.29.79-2.27.19-2.01-.16-.58-1.74.44-3.68 1.55-1.97 1.14-1.94 1.71-1.71 2.11-1.31 2.29-.79 2.27-.19 2.01.04.15m29.57-71.72l.61.69.73.5.8.27-.02-.5-.29-.82-.5-.76-.68-.6-.78-.39-.42-.07.15.88.4.8m13.22 66.99l1.04-.77 1-1.08.8-1.24.53-1.31-.53.31-1.05.96-.92 1.17-.67 1.26-.2.7"/><path d="M193.77 142.76l-33.31-14.07v-46.2"/></g><g class="C"><path d="M262.27 106.4l-.87 1.42-.32 1.77.27 1.94.83 1.93 31.25 53.25 1.31 1.72 1.66 1.36 1.86.85 1.86.26 1.69-.35 24.54-10.38 1.35-.93m-66.98-50.09l.52-.45"/><path d="M296.81 170.66l.52-.45"/></g><path d="M260.66 110.77l.17 1.21.83 1.93 31.24 53.24 1.32 1.73 1.66 1.35 1.86.85 1.86.27 1.69-.35 24.54-10.38 1.35-.93.52-.45.87-1.42.32-1.76-.27-1.94-.83-1.94-31.24-53.24-1.31-1.73-1.67-1.35-1.85-.85-1.87-.27-1.68.35-24.55 10.38-1.35.93-.52.45-.87 1.42-.32 1.76.1.74" class="B"/><path d="M143.63 111.79l-.04.28-.34.65-.51.4-.65.09-.71-.23-.68-.51-.59-.74-.44-.9-.23-.96v-.9l.23-.76.44-.53.59-.25.68.07.56.29m-1.85-27.56l-.42-.86-.23-.96v-.9l.23-.76.42-.51m10.53 51.05l.72-.62 1.02-.56 1.02-.12" class="C"/><path d="M118.71 209.2l-28.7-12.13-.06-.67-.17-.51-.27-.46-.35-.37-.37-.24-4.47-1.88-1.59-.99-1.43-1.54-1.14-1.94-.9-2.64-.26-.44-.33-.37-.36-.24-.37-.11-13.48-70.12-.16-1.7.16-1.56.5-1.31.77-.97 52.02-44.69m24.88 46.45l.52.66.48.36.08-.57-.12-.94-.34-.94-.51-.83-.65-.64-.15-.08-.04.14-.03.44.03.47.23.95.43.9.07.08m10.45 15.48l.31-.26" class="B"/><g class="C"><path d="M118.02 211.6l3.68 1.56-.15 1.58v.95m.15-2.53l.43-1.61.16-.45 1.48-4.82 1.08-4.85.66-4.8.22-4.69v-35.78l.1-.97.31-.82.49-.61 23.87-20.51.4-.34.64-.36.74-.08.79.2 21.51 9.09 2.31-.98m-50.9 14l2.81-1.19M165.68 138l-20.57 8.69m8.39-20.36l-2.99 1.27"/><path d="M176.29 139.01l-.24.1v-1.45l-22.98-9.71-1.75-.44-1.62.17m20.9 54.8l.67-.17 1.18.13 1.02.57.78.97 4.25 7.64"/><path d="M174.58 141.76l1.47-2.65m0-1.45l2.82-1.19"/></g><path d="M153.43 126.11l-3.73 1.57-1.4.79-24.28 20.85-1.07 1.34-.67 1.8-.23 2.14v35.78l-.22 4.69-.66 4.81-1.08 4.85-1.49 4.82-.15.44-.43 1.61-.15 1.58v.95l3.68 1.56 7.67-3.24m62.35-26.35l-13.07 5.52-3.68-1.55-4.22-7.59-.6.15-17.36 7.34-1.27.75-1.18 1.13-1.02 1.43-.78 1.63-4.25 11.24-.25.1" class="B"/><g class="C"><path d="M307.96 49.74l-1.01 1.31-1.91 1.12-76.53 32.34-9.38 3.96-2.64.81-3.1.43h-3.26l-3.09-.43-2.64-.81-85.91-36.3-1.92-1.12-.98-1.28-.02 12.56m.02-12.56l-.02-1.4m6.4 1.66l-.54-.59-.06-.62.43-.6.86-.51 1.21-.37 1.42-.18 1.49.03 1.38.22 1.13.41.48.34.28.2.31.62-.18.62-.66.56-.47.24-.58.21-1.33.27-1.48.08-1.45-.13-1.28-.32-.96-.48"/><path d="M164.93 68.18l-.54-.58-.06-.63.42-.6.87-.51 1.2-.37 1.43-.18 1.48.03 1.39.23 1.13.4.76.54.31.62-.19.62-.65.57-.47.23-.58.21-1.32.27-1.49.08-1.45-.13-1.28-.32-.96-.48m.24-37.22l.14-.5.53-.46.39-.19.46-.16 1.08-.23 1.2-.06 1.16.1 1.03.26.78.39.43.47.05.51-.34.49-.7.41-.97.29-1.15.15-1.2-.02-1.12-.19-.91-.32-.62-.44-.24-.5m79.73 24.39l.96-.86 1.69-2.51.65-2.6-.39-2.61-1.43-2.54-2.43-2.4-3.35-2.2-4.18-1.92-4.89-1.6-5.46-1.22-5.87-.82-6.12-.39-6.18.06-6.07.49-5.78.92-5.33 1.33-4.73 1.68-3.99 2-3.13 2.25-2.18 2.45-1.17 2.56-.13 2.61.91 2.59 1.94 2.48.32.25m.65 18.57l-.1-.13m.52.58l.19.12m1.03.46l-.31-.1m1.62.38l-.37-.05m1.44.15l.37-.01m1.46-.11l-.35.06m1.64-.37l-.19.08-.32.07m1.87-.95l.15-.14.04-.11m-.92.79l.24-.12.1-.08m.7-1.13l.02.04-.03.12m19.27 11.66l.07.62.54.59.95.48 1.28.32 1.45.13 1.48-.08 1.33-.28.59-.21.46-.23.66-.56.18-.63-.3-.61-.76-.54-1.14-.41-1.38-.23-1.49-.02-1.42.18-1.21.36-.86.51-.43.61m.07-71.99l.53.58.97.48 1.27.32 1.46.13 1.47-.08 1.34-.27.58-.21.47-.24.65-.56.18-.62-.3-.62-.76-.54-1.14-.4-1.38-.23-1.49-.03-1.42.18-1.21.37-.86.51-.43.6.07.63"/><path d="M236.33 25.76l-.22-.11-.09-.1m-.34-.36l-.11-.12-.01-.11m1.35 1.09l.16.08.3.08m.77.19l.21.05.34.03m.87.08l.36.01m1.69-.13l-.33.06-.25.02m1.68-.33l-.33.09m1.1-.42l.18-.08.12-.09m.66-.89l.06-.2-.02-.04m-.28.76l.12-.1.01-.06m5.97 6.13l.54.59.96.47 1.28.33 1.45.13 1.48-.08 1.33-.28.57-.2.48-.24.65-.57.19-.62-.31-.61-.76-.54-1.13-.41-1.39-.23-1.48-.02-1.42.18-1.21.36-.87.51-.42.6.06.63m1.02 36.48l-.24-.5.15-.5.52-.46.39-.19.46-.17 1.08-.22 1.19-.06 1.17.1 1.03.26.78.39.44.47.04.51-.34.48-.7.42-.97.29-1.15.15-1.2-.02-1.12-.19-.91-.33-.62-.43m42.48-17.74l-.54-.59-.06-.62.42-.6.86-.51 1.21-.37 1.43-.18 1.48.03 1.38.23 1.14.4.76.54.3.61-.18.63-.65.56-.47.24-.58.21-1.34.27-1.47.08-1.46-.13-1.27-.32-.96-.48"/></g><g class="B"><path d="M221.83 99.91l-2.7 1.15-2.64.81-3.1.42h-3.26l-3.09-.42-2.64-.81-85.91-36.31-1.92-1.11-1-1.31m0-13.96l1-1.31 1.92-1.12L204.4 9.63l2.64-.81 3.09-.42h3.26l3.1.42 2.64.81 85.91 36.31 1.91 1.12 1.01 1.31v13.96m-129.34-7.05l-.06.07 2.58 2.06 3.78 2.06 4.55 1.77 5.2 1.42 5.68 1.02 6.02.61 6.16.16 6.15-.27 5.95-.71 5.58-1.13 5.05-1.51 2.28-.88 2.09-.97 3.57-2.13 1.7-1.5-.95-.94-3.35-2.19-4.18-1.93-4.89-1.59-5.46-1.23-5.87-.82-6.12-.38-6.18.05-6.07.5-5.78.92-5.33 1.32-4.73 1.69-3.99 1.99-3.13 2.26-.25.28m129.34 7.05l-1.01 1.31-1.63.94"/><path d="M307.96 49.77v-.83.83m0-.83v-.57"/></g><path d="M207.45 53.36l-.04.28-.34.65-.51.39-.65.09-.71-.22-.68-.51-.59-.75-.44-.89-.23-.96v-.91l.23-.75.44-.54.59-.24.68.07.56.29" class="C"/><g class="B"><path d="M207.45 53.36l-.48-.36-.59-.74-.43-.9-.23-.96-.03-.46.03-.44.04-.14"/><path d="M205.76 49.36l.15.08.65.64.51.83.34.94.12.94-.08.57"/></g><g class="C"><path d="M69.39 197.69l19.26 12.21.87.45 31.42 13.28 1.76.54 2.06.28h2.18l2.06-.28 1.76-.54 24.87-10.51.83-.46.52-.53v9.44m-70.16-25.85l1.17.5.31.17.17.21.04.36.1.12.2.11.26.07.31.04h.32l.3-.04.26-.08"/><path d="M102.96 212.5l.42-.59.87-.52 1.21-.37 1.42-.18 1.49.03 1.38.23 1.13.4.76.54.31.62-.18.62-.66.56-1.05.45-1.33.27-1.48.08-1.45-.13-1.28-.32-.96-.48-.54-.58-.06-.63m19.34 9.16l-.33-.17-.54-.58-.06-.63.43-.6.86-.51 1.21-.37 1.42-.18 1.49.03 1.38.23 1.13.4.76.54.31.62-.18.62-.66.56-1.05.45-1.33.28-1.48.07-1.45-.13-1.28-.32-.63-.31m3.55 2.79v9.44m28.54-28.13l-.18.57.18.57v-1.14l.52-.53.83-.46 18.77-7.93 1.08-.35 1.26-.22v9.44m-22.46 1.19l2.59 4.09.18.57-.18.57m.18 1.48v-2.05m19.69-15.29l1.34-.07 1.35.07 9.68 1.1 1.35.07 1.35-.07v9.43m0-9.43l1.25-.22 1.08-.35 23.03-9.73m-9.93-2.47l.54.59.95.47 1.28.33 1.46.12 1.47-.07 1.33-.28 1.06-.44.65-.57.18-.62-.3-.61-.76-.54-1.19-.42-1.33-.22-1.49-.02-1.42.18-1.21.36-.86.51-.43.6.07.63"/></g><path d="M217.29 196.5l-23.04 9.73-1.08.35-1.25.22-1.35.08-1.35-.08-9.68-1.09-1.35-.08-1.34.08-1.26.22-1.08.35-17.35 7.33V221l-.18.57-.52.53-.83.45-24.87 10.52-1.76.54-1.87.25-.19.03h-2.18l-2.06-.28-1.76-.54-31.42-13.28-.87-.45-19.26-12.21v-9.44l11.05-4.66 6.38 2.69m129.55-14.75l-10.13-4.28" class="B"/><g class="C"><path d="M58.98 186.34l2.85.22"/><path d="M69.39 203.64l-6.26-12.33-1.1-3.05-.4-3.39.32-3.46 4.37-21.84.32-3.16-.28-3.12-7.35-38.24-.1-1.06.1-.97.31-.82.49-.61 5.59-4.81.89-.71-2.08-3.55"/><path d="M59.01 113.02l5.71-2.42m1.7 76.89l.98.52 1.08.04 1.06-.45.9-.88.66-1.22.35-1.42-.01-1.48-.35-1.38-.67-1.12-.92-.74-1.05-.28-1.08.21-.29.19m-.79-73.41l1.1-.78 3.68-2.51 1.09-.79.89-.71 43.68-37.55"/><path d="M72.16 101.99l-2.08-3.54m45.49-37.32l-.69-1.17"/></g><g class="B"><path d="M69.39 203.64l-2.84-.23-6.27-12.33-1.09-3.05-.41-3.39.32-3.46 4.37-21.84.33-3.15-.29-3.12-7.34-38.24-.21-2.08.21-1.91.6-1.61.95-1.19 5.6-4.81.89-.71 1.09-.78 3.68-2.51 1.1-.78.89-.72 43.26-37.16.65-.61.37-.48.32-.56"/><path d="M65.61 186.55l.81.94.27-.11.91-.88.66-1.22.34-1.43v-1.48l-.36-1.37-.67-1.12-.49-.4-.7.48-.8 1.06-.51 1.34-.17 1.48.18 1.44.53 1.27"/></g><g class="C"><path d="M202.45 266.72v-9.44l.67.88 1.28.74 31.42 13.28 1.06.37 28.31 7.97m-62.74-23.24v-.91m4.97.87l.14.28.76.54 1.13.4 1.39.23 1.48.03 1.42-.18 1.21-.37.87-.51.42-.6-.06-.63-.54-.58-.96-.48-1.28-.32-1.45-.13-1.48.08-1.33.27-1.05.45-.65.56-.19.62.17.34"/><path d="M225.77 264.89l.2.41.76.54 1.13.4 1.39.23 1.48.03 1.42-.18 1.21-.37.87-.51.42-.6-.06-.63-.54-.58-.96-.48-1.28-.32-1.45-.13-1.48.08-1.33.27-1.05.45-.65.56-.19.62.11.21m39.99 25.23v-3.49m17.43-3.87v-.11m28.66-19.89v-.98m15.28 2.41v-3.5m15.95-3.24v-.12"/></g><path d="M202.45 266.72l.67.88 1.28.74 31.42 13.28 1.06.36 28.88 8.14 11.05-4.67v-.11m-59.52-36.04l-12.89 5.45-1.28.74-.67.88m90.31 22.23v.11l-9.08 3.84-.49.21-.13-.06m20.21-16.73l6.25-2.64 1.07-.35 1.26-.22 1.35-.07 1.35.07 12.58 1.43 9.57-4.05v-.11m17.43-7.36v.11l-9.67 4.08-1.38.59-.13-.06" class="B"/><path d="M194.65 173.38l-.05-.2v-.67l.17-.57.32-.39.44-.18.51.05.53.27.48.48.38.62.25.69.09.7-.08.62-.01.01-.25.49-.38.29-.48.07-.53-.17-.51-.38-.44-.55-.32-.67-.12-.51m-.05-19.08v-.67l.17-.56.32-.4.44-.18.51.05.53.28.48.47.38.62.25.7.09.7-.09.62-.25.49-.38.29-.48.07-.53-.17-.51-.38-.44-.55-.32-.67-.17-.71m6.48 37.02l1.23-1.06v-34.51m0 34.51l3.93-1.66" class="C"/><path d="M206.24 162.44v26.16l-1.23 1.06-3.93 1.66-8.59-3.64-1.96-3.34V148.5" class="B"/><g class="C"><path d="M133.19 201.46l-.44-.55-.33-.67-.17-.71v-.67l.17-.57.33-.39.44-.18.51.05.52.27.48.48.39.62.25.69.08.7-.08.63-.25.49-.39.29-.48.07-.52-.17-.51-.38m.37-18.6l-.37-.28-.44-.55-.33-.67-.17-.71v-.67l.17-.56.33-.4.44-.18.51.05.52.28.48.47.39.62.25.7.08.7-.08.62-.25.49-.39.29-.48.07-.52-.17-.14-.1m0-18.87l-.37-.28-.44-.56-.33-.66-.17-.71v-.68l.17-.56.33-.4.44-.18.51.05.52.28.48.47.39.62.25.7.08.7-.08.63-.25.48-.39.3-.48.06-.52-.16-.14-.1m10.33 50.96l-3.93 1.66-1.22 1.05"/><path d="M139.96 216.61v-62.08l.19-2.65.55-2.42.91-2.1 1.51-2.72.2-.59.02-.71 3.93-1.66m-3.93 1.66l-.16-.75-.33-.72-.28-.49"/></g><path d="M128.18 210.31v.38l1.97 3.34 8.59 3.63 3.92-1.66 1.23-1.05v-62.08l.19-2.65.55-2.42.91-2.1 1.51-2.72.2-.59.02-.71-.17-.75-.32-.72-.28-.49-3.93 1.66-12.96 11.13-.77.97-.49 1.31-.17 1.56v53.96M80.3 193.09l-1.53-7.96" class="B"/><g class="C"><path d="M222.59 255.79l3.68 1.56.43-1.61.15-.45 1.49-4.82 1.08-4.85.66-4.8.22-4.69v-35.78l-.23-2.33-.68-2.38-1.07-2.24-24.28-41.37-1.39-1.97-1.63-1.55-1.75-1.03-22.98-9.71"/><path d="M204.66 148.09l-2.83 1.2m16.01-6.77l-.53.23m8.96 114.6l-.15 1.58v.95m3.61-63.05l2.71-1.15"/></g><path d="M232.9 257.02l-6.78 2.86-3.68-1.55v-.95l.15-1.59.42-1.61.16-.44 1.49-4.82 1.08-4.85.65-4.81.22-4.69V198.8l-.1-1.07-.31-1.07-.49-1.02-24.27-41.38-.63-.89-.74-.7-.8-.47-21.5-9.09-1.48-3.89v-1.45l2.83-1.2" class="B"/><path d="M235.48 21.54l.18.62.65.57 1.04.44.81.17.53.11 1.47.08 1.45-.13 1.28-.32.97-.47.54-.59.07-.62m-.4-.61l-.06.57-.5.53-.87.43-1.17.3-1.33.11-.37-.02-.97-.05-1.21-.25-.96-.41-.59-.52-.16-.56.29-.56" class="C"/><path d="M244.48 24.66l-.01-3.26-.4-.61-.38-.55-.78-.47-1.1-.33-1.3-.17-1.35.02-1.26.21-1.04.37-.69.49-.38.56-.31.62.01 3.18" class="B"/><g class="C"><path d="M309.38 160.83l.3.7.6.79.78.61.21.09m-.7-2.55l-.16-.45-.06-.31-.03-.44.04-.28.12-.39.13-.22.24-.3.22-.14.34-.17.27-.04.42-.03.29.07.44.11.28.17.42.24.24.25.35.35.18.3.24.42.09.33.12.43-.01.32-.03.41-.1.27-.16.33-.2.2-.28.22-.26.11-.37.09-.3-.01-.42-.05-.31-.11-.41-.19-.29-.2-.37-.32-.23-.26-.28-.41-.16-.3"/><path d="M312 160.55l-.12-.09-.24-.17-.02-.27-.08-.89-.03-.27.22-.09.71-.3.21-.09.24.18.78.59.24.18.03.27.07.88.03.27-.92.39-.22.09-.23-.18-.67-.5"/><path d="M312.65 158.38l-.95.82-.15.06m.15-.06l1.26.95.09 1.02m-.09-1.02l.95-.82"/></g><path d="M309.38 160.83l-.08-.19-.1-.89.18-.79.44-.62.18-.15.66-.37.28-.14.78-.08.26.02.78.19.75.44.63.64.45.77.22.81-.04.78-.03.28-.31.69-.18.26-.56.5-.18.15-.74.23-.85-.07-.65-.27" class="B"/><path d="M276.82 101.61l-.61.61-.33.84v.99l.31 1.03.61.96.82.79.96.52.99.2.91-.13.73-.46" class="C"/><path d="M281.8 104.97l.05.33-.04.48-.13.45-.47.73-.35.3-.73.46-.91.13-.98-.2-.96-.53-.83-.78-.6-.96-.32-1.03v-.99l.33-.84.61-.61.35-.3.83-.3.96.04.13.05" class="B"/><path d="M179.06 70.62l.42.6.86.51 1.21.36 1.43.18 1.48-.02 1.38-.23 1.14-.41.76-.54.3-.61m-.56-1.2l.16.56-.28.56-.36.26-.33.23-1.03.37-1.26.21-1.36.03-1.18-.15-.11-.02-1.1-.33-.79-.47-.39-.54.06-.58" class="C"/><path d="M188.03 73.39l.01-2.93-.18-.62-.38-.58-.6-.52-.96-.4-1.21-.25-1.34-.08-1.33.12-1.16.29-.88.44-.49.53-.39.6-.06.63-.02 2.92" class="B"/><path d="M309.8 157.82l-.61.6-.33.85v.99l.31 1.03.61.96.82.78.96.52.99.21.05-.01.86-.13.73-.46" class="C"/><path d="M311.72 157.6l-.13-.05-.96-.03-.83.3-.35.3-.61.6-.33.85v.99l.32 1.03.6.96.83.78.95.52.99.21.91-.14.73-.46.35-.3.47-.73.13-.45.04-.48-.05-.33" class="B"/><g class="C"><path d="M278.29 106.81l-.21-.08-.77-.61-.61-.79-.3-.7m1.86.61l-.23-.27-.28-.4-.16-.3-.16-.45-.06-.31-.03-.45.04-.28.12-.39.13-.22.24-.3.22-.14.35-.17.27-.04.41-.03.29.07.44.11.29.17.41.25.25.24.34.36.18.3.25.42.09.32.11.44-.01.31-.02.41-.11.27-.16.34-.2.19-.28.23-.26.1-.37.09h-.3l-.41-.06-.32-.1-.41-.2-.29-.19-.37-.32"/><path d="M279.92 105.03l-.23-.19-.66-.49-.13-.09-.24-.18-.02-.27-.01-.13-.07-.75-.02-.27.21-.09.71-.3.21-.09.24.18.78.58.24.18.03.27.08.88.02.28-.21.08-.71.3-.22.1"/><path d="M280.07 104.96l-.09-1.02-1.26-.94.95-.82m.31 1.76l.95-.82m-2.21-.12l-.15.06"/></g><path d="M276.4 104.63l-.08-.19-.1-.89.18-.8.45-.62.17-.14.66-.37.28-.14.79-.08.25.01.78.2.75.44.63.64.45.76.22.82-.03.77-.03.28-.31.7-.19.26-.56.5-.17.14-.75.23-.85-.07-.65-.27" class="B"/></g><g opacity="0" class="D"><path d="M-.2-.2h.442v.43H-.2zM0 0h.042v.03H0z" stroke="#000" stroke-width=".5" fill="#e6e6e6"/><path d="M0 .03h.042V0h0v.03H0z" fill="#000" fill-opacity=".118"/></g><g opacity="0" class="D"><path opacity=".2" fill="#000" d="M0 0h30v8H0z"/><path fill="#ffffe1" stroke="#000" d="M0 0h30v8H0z"/><text xml:space="preserve" fill="#000" x="0" y="0">tooltip</text></g></svg>