<?xml version="1.0" encoding="UTF-8" standalone="yes"?>
<svg xmlns="http://www.w3.org/2000/svg" xmlns:xlink="http://www.w3.org/1999/xlink" width="420.000mm" height="297.000mm" viewBox="0.000000 0.000000 420.000000 297.000000" stroke-linejoin="round" stroke-linecap="round" fill="none" fill-rule="evenodd">
  <desc>Composer Export</desc>
  <defs></defs>
  <g>
    <path style="fill:#ffffff" d="M419.93,296.91L0.09,296.91L0.09,0.09L419.93,0.09z"></path>
    <path style="fill:#e5e5e5" d="M261.50,13.09L261.52,15.08L261.34,15.94L260.69,16.55L258.99,16.91L258.99,14.85L260.34,14.29L261.36,12.91z"></path>
    <path style="fill:#e5e5e5" d="M229.62,26.99L228.55,27.01L227.38,27.46L226.62,29.58L224.91,30.17L224.29,30.16L223.53,29.56L222.46,29.57L220.96,30.33L220.66,32.27L218.91,34.08L218.42,34.09L218.08,33.76L217.41,30.65L218.57,28.26L221.27,25.84L224.71,24.15L228.54,22.85L233.67,21.90L238.92,21.56L238.93,27.45L238.41,27.65L236.12,27.80L232.94,28.12L230.75,28.49L230.35,27.86z"></path>
    <path style="fill:#e5e5e5" d="M255.88,29.91L260.38,32.13L260.79,32.71L260.49,32.74L258.89,32.77L258.54,32.76L257.55,32.46L255.89,31.84L255.27,31.41L254.96,30.86L254.68,30.81L253.97,30.21L252.54,30.12L251.64,29.86L251.53,30.05L250.20,30.79L250.02,30.86L249.98,32.37L249.37,32.85L248.70,32.79L249.47,32.24L249.78,30.32L250.80,29.96L250.79,29.64L250.00,29.34L250.22,28.50L251.72,28.62z"></path>
    <path style="fill:#e5e5e5" d="M233.65,29.77L233.83,31.09L233.71,31.89L233.19,32.21L230.68,33.06L229.84,33.11L229.80,33.34L228.23,36.00L226.27,38.58L225.65,38.67L225.77,37.72L228.66,33.23L228.87,28.31L230.35,27.86L230.42,30.12L230.57,32.28L230.60,30.12L230.75,29.81L233.44,28.91z"></path>
    <path style="fill:#e5e5e5" d="M224.34,34.59L224.27,34.87L224.12,34.99L224.51,36.51L224.51,36.87L224.33,37.82L224.16,38.05L223.53,37.96L222.24,37.26L222.26,36.13L222.58,35.79L222.78,30.87L224.19,30.43z"></path>
    <path style="fill:#e5e5e5" d="M257.69,32.99L256.74,33.44L256.43,35.38L255.48,35.40L255.83,35.13L256.20,33.22L257.53,32.69z"></path>
    <path style="fill:#e5e5e5" d="M301.23,37.81L300.46,38.70L296.44,40.80L295.51,40.77L249.60,60.31L249.18,60.57L248.76,61.65L247.74,62.58L246.47,62.45L246.37,62.21L247.56,62.04L247.85,61.25L246.03,61.87L245.36,62.15L244.27,62.61L242.22,62.87L240.93,62.73L241.03,56.80L243.94,56.52L258.66,50.40L299.82,32.94L301.10,32.04z"></path>
    <path style="fill:#e5e5e5" d="M215.19,53.29L218.26,54.78L218.23,55.74L218.08,57.25L217.12,59.49L214.42,63.19L212.62,66.85L211.38,71.75L211.37,74.99L212.23,78.04L213.60,78.64L214.24,78.73L213.90,76.37L213.90,71.97L214.87,68.13L217.01,63.87L219.68,60.13L220.33,58.85L220.86,55.82L221.26,55.80L235.67,61.92L235.37,83.19L228.88,86.01L228.66,86.68L224.58,85.17L224.08,84.99L223.97,85.49L223.50,86.38L223.53,114.17L183.37,131.14L179.53,132.56L179.61,104.63L199.41,76.68L200.46,76.66L204.94,78.60L208.78,80.02L208.78,78.60L200.46,75.40L197.91,73.78L196.56,71.84L196.53,71.51L197.56,71.90L198.54,72.00L198.20,70.28L198.20,64.60L199.39,60.66L201.12,57.27L203.66,53.72L204.63,51.48L204.91,49.49L205.28,49.12z"></path>
    <path style="fill:#e5e5e5" d="M185.90,58.30L186.10,59.63L186.04,60.17L184.97,59.99L183.65,60.99L183.15,61.01L183.15,59.81L184.76,58.84L184.98,57.45L185.75,57.15z"></path>
    <path style="fill:#e5e5e5" d="M189.22,61.09L197.94,57.48L197.25,59.17L195.68,64.07L195.14,64.66L187.88,67.73L186.26,67.83L186.16,67.62L187.64,67.18L188.60,66.22L189.11,65.12L191.15,64.28L191.60,63.09L191.83,63.98L191.80,63.23L191.60,63.09L191.50,62.55L190.84,63.00L189.56,63.26z"></path>
    <path style="fill:#e5e5e5" d="M249.56,86.14L249.39,86.31L250.25,86.84L250.17,87.16L249.04,87.23L248.22,87.74L247.53,87.96L247.12,87.66L247.22,86.72L248.50,86.06L249.09,84.33L249.46,84.32z"></path>
    <path style="fill:#e5e5e5" d="M252.04,89.81L252.81,90.43L252.86,90.74L252.61,91.22L252.30,91.09L252.29,90.73L251.08,91.14L249.01,90.20L249.02,89.85L251.74,88.89z"></path>
    <path style="fill:#e5e5e5" d="M256.21,96.91L256.84,97.00L257.36,94.93L258.35,94.27L258.78,94.25L259.26,94.82L259.27,96.14L258.66,97.50L256.51,97.52L247.51,93.62L247.45,93.32L247.82,93.31z"></path>
    <path style="fill:#e5e5e5" d="M268.49,133.21L268.72,134.79L268.36,135.40L267.91,138.10L264.87,165.22L260.23,170.53L255.24,176.10L252.91,178.27L251.90,178.24L259.65,167.38L259.72,137.03L268.04,133.43L268.39,133.08z"></path>
    <path style="fill:#e5e5e5" d="M154.34,136.21L154.56,141.80L155.60,142.98L154.66,144.09L147.65,157.96L147.45,159.24L147.57,167.38L148.53,168.34L149.52,168.34L149.50,159.44L150.48,156.56L156.91,144.41L158.48,143.10L159.81,142.33L160.11,142.62L160.31,148.22L160.72,148.46L161.39,149.39L169.11,157.70L169.41,158.48L166.50,163.93L164.77,166.37L157.75,169.60L153.49,171.17L151.84,171.17L150.05,170.52L149.05,171.16L78.89,269.84L77.61,271.12L69.71,274.47L69.64,273.05L67.04,275.62L58.75,279.18L56.46,279.16L128.32,177.87L128.32,177.61L129.26,176.99L137.70,165.21L137.69,164.48L137.18,163.54L137.96,163.84L138.96,163.94L138.94,155.60L139.57,153.03L146.01,140.57L147.16,139.15L148.77,138.19L154.05,135.92z"></path>
    <path style="fill:#e5e5e5" d="M246.13,139.05L245.31,139.91L237.53,143.34L234.81,143.81L234.28,143.77L234.31,137.87L238.16,136.92L245.03,133.86L245.99,132.95z"></path>
    <path style="fill:#e5e5e5" d="M197.25,149.83L200.45,148.23L225.65,137.55L228.32,137.20L228.44,143.15L226.81,143.45L225.97,143.65L199.82,154.64L198.32,155.08L198.22,152.60L198.08,152.50L197.23,151.36z"></path>
    <path style="fill:#e5e5e5" d="M198.07,155.07L198.07,159.24L197.12,160.28L189.79,163.52L187.76,163.97L186.24,163.94L186.24,158.04L189.48,157.44L196.84,154.23L197.94,153.47z"></path>
    <path style="fill:#e5e5e5" d="M274.12,190.72L274.35,191.24L274.33,196.11L274.39,196.33L276.39,196.18L277.43,196.48L278.76,196.65L278.95,196.79L273.40,207.72L271.92,211.75L271.70,217.47L271.40,217.81L268.29,219.27L265.48,219.27L262.63,217.64L261.88,216.32L263.25,216.51L263.55,207.16L265.39,202.91L270.97,192.47L273.54,190.41z"></path>
    <path style="fill:#e5e5e5" d="M289.38,193.50L289.37,198.37L289.49,198.87L291.56,198.70L297.32,199.67L298.84,199.80L299.03,193.95L301.70,192.96L301.70,198.85L299.69,199.73L290.71,217.02L288.57,219.36L278.54,223.75L276.37,223.76L273.53,222.43L272.52,221.46L272.42,220.85L273.82,221.00L274.13,211.33L281.09,197.47L283.11,195.64L288.43,193.24L288.92,192.95z"></path>
    <path style="fill:#e5e5e5" d="M43.64,263.37L43.64,264.98L43.81,265.95L44.15,267.24L43.48,267.33L43.12,266.37L43.11,262.57L43.56,262.06z"></path>
    <path style="fill:#e5e5e5" d="M317.39,270.52L349.42,282.71L351.99,283.34L354.56,283.65L359.26,283.65L363.85,282.79L391.09,271.26L392.73,270.21L392.73,270.58L391.95,271.49L390.35,272.77L363.52,284.06L360.12,284.76L358.85,284.90L354.98,284.90L352.43,284.57L349.11,283.66L318.68,272.12L316.46,270.82L316.04,269.82z"></path>
    <path style="fill:#e5e5e5" d="M18.79,274.37L46.03,287.17L52.73,290.08L56.28,290.70L60.98,290.70L63.57,290.40L67.40,289.11L92.49,278.32L93.49,277.58L93.49,277.95L92.51,278.98L90.78,280.13L66.74,290.38L63.87,291.35L60.00,292.01L55.11,291.61L53.38,291.36L49.23,289.74L19.15,275.61L17.18,274.00L17.18,273.39z"></path>
    <path style="fill:#e3e3e3" d="M48.70,262.14L47.75,262.97L46.32,262.89L45.37,264.20L45.22,265.28L45.45,266.22L45.91,267.82L46.02,268.31L46.46,268.38L47.11,268.18L47.73,268.88L48.90,269.01L48.97,268.81L49.65,268.10L50.87,267.51L50.85,269.68L49.92,270.99L49.04,271.38L48.91,271.16L48.17,271.16L48.04,271.38L46.98,270.84L45.41,269.53L44.15,267.24L43.81,265.95L43.82,264.97L43.82,263.37L43.95,263.02L47.72,261.37z"></path>
    <path style="fill:#ffffff" d="M270.01,210.25L270.00,212.65L268.90,214.44L267.64,215.12L266.38,214.85L266.11,214.16L266.12,211.97L267.11,210.08L267.61,209.62L269.03,209.63z"></path>
    <path style="fill:#ffffff" d="M47.75,262.97L48.89,263.81L49.74,265.90L49.73,267.23L49.65,268.10L48.97,268.81L47.73,268.88L47.11,268.18L48.50,268.33L49.25,267.44L49.25,265.69L47.99,263.78L47.43,263.60L47.30,263.45L46.46,263.59L46.04,263.99L46.05,266.26L47.11,268.18L46.46,268.38L45.91,267.82L45.45,266.22L45.22,265.28L45.37,264.20L46.32,262.89z"></path>
    <path style="fill:#525266" d="M43.82,264.97L43.64,264.98L43.64,263.37L43.82,263.37z"></path>
    <path style="fill:#525266" d="M48.90,269.01L47.73,268.88L48.97,268.81z"></path>
    <path style="fill:#525266" d="M49.04,271.38L48.04,271.38L48.17,271.16L48.91,271.16z"></path>
    <path style="fill:#00001c" d="M240.17,9.20L239.33,9.06L240.23,8.98z"></path>
    <path style="fill:#00001c" d="M251.53,30.05L251.64,29.86L252.54,30.12L252.03,30.27z"></path>
    <path style="fill:#00001c" d="M233.83,31.09L233.65,29.77L233.78,29.90z"></path>
    <path style="fill:#00001c" d="M249.98,32.37L250.02,30.86L250.20,30.79z"></path>
    <path style="fill:#00001c" d="M230.57,32.28L230.42,30.12L230.60,30.12z"></path>
    <path style="fill:#00001c" d="M258.54,32.76L257.69,32.99L257.53,32.69L257.55,32.46z"></path>
    <path style="fill:#00001c" d="M258.89,32.77L260.49,32.74L259.63,33.16L259.09,33.10z"></path>
    <path style="fill:#00001c" d="M249.00,40.17L249.55,39.97L250.23,40.13z"></path>
    <path style="fill:#00001c" d="M238.07,40.95L236.43,40.76L237.95,40.81z"></path>
    <path style="fill:#00001c" d="M218.23,55.74L218.26,54.78L219.03,54.86z"></path>
    <path style="fill:#00001c" d="M249.48,61.09L249.18,60.57L249.60,60.31z"></path>
    <path style="fill:#00001c" d="M216.65,73.34L216.51,74.02L216.46,72.82z"></path>
    <path style="fill:#00001c" d="M297.26,78.12L296.92,81.05L296.75,81.06L296.82,77.91z"></path>
    <path style="fill:#00001c" d="M224.58,85.17L223.97,85.49L224.08,84.99z"></path>
    <path style="fill:#00001c" d="M249.39,86.31L249.56,86.14L249.87,86.08L250.16,86.17L250.25,86.84z"></path>
    <path style="fill:#00001c" d="M198.32,155.08L198.07,155.07L197.94,153.47L198.08,152.50L198.22,152.60z"></path>
    <path style="fill:#00001c" d="M143.23,157.00L143.36,156.74L143.92,156.96L143.81,157.27z"></path>
    <path style="fill:#00001c" d="M153.97,161.67L154.43,161.53L154.21,163.09z"></path>
    <path style="fill:#00001c" d="M238.98,179.83L240.33,179.69L240.51,179.86z"></path>
    <path style="fill:#00001c" d="M271.92,217.54L271.70,217.47L271.92,211.75z"></path>
    <path style="fill:#d4d4d4" d="M49.88,263.46L50.69,265.60L50.89,266.56L50.87,267.51L49.65,268.10L49.73,267.23L49.88,266.02L49.74,265.90L48.89,263.81L47.75,262.97L48.70,262.14z"></path>
    <path style="fill:#d4d4d4" d="M43.95,263.02L43.82,263.37L43.64,263.37L43.56,262.06L43.81,262.08z"></path>
    <path style="fill:#d4d4d4" d="M43.81,265.95L43.64,264.98L43.82,264.97z"></path>
    <path style="fill:#d4d4d4" d="M45.91,267.82L46.46,268.38L46.02,268.31z"></path>
    <path style="fill:#000020" d="M258.14,12.05L257.39,12.11L257.68,11.59L258.17,11.64z"></path>
    <path style="fill:#000020" d="M261.52,15.08L261.50,13.09L261.65,13.20z"></path>
    <path style="fill:#000020" d="M247.14,27.93L247.88,28.01L247.96,28.36L247.53,28.36z"></path>
    <path style="fill:#000020" d="M250.22,28.50L249.03,28.30L250.11,28.31z"></path>
    <path style="fill:#000020" d="M230.75,28.49L230.75,29.81L230.60,30.12L230.42,30.12L230.35,27.86z"></path>
    <path style="fill:#000020" d="M255.27,31.41L254.48,31.17L254.68,30.81L254.96,30.86z"></path>
    <path style="fill:#000020" d="M229.80,33.34L229.84,33.11L230.68,33.06z"></path>
    <path style="fill:#000020" d="M224.80,30.31L224.34,34.59L224.19,30.43L224.29,30.16L224.91,30.17z"></path>
    <path style="fill:#000020" d="M224.12,34.99L224.27,34.87L224.51,36.51z"></path>
    <path style="fill:#000020" d="M301.23,37.81L301.10,32.04L301.38,30.84z"></path>
    <path style="fill:#000020" d="M231.83,40.24L231.42,40.13L231.90,39.87z"></path>
    <path style="fill:#000020" d="M245.02,40.80L240.39,40.81L241.45,40.46z"></path>
    <path style="fill:#000020" d="M234.85,40.61L233.00,40.48L234.86,40.46z"></path>
    <path style="fill:#000020" d="M267.18,43.68L267.85,43.49L268.73,43.70z"></path>
    <path style="fill:#000020" d="M198.24,46.68L198.13,46.26L198.50,46.20z"></path>
    <path style="fill:#000020" d="M184.75,48.49L184.48,48.95L184.24,40.77L184.56,40.75z"></path>
    <path style="fill:#000020" d="M239.96,55.51L240.29,55.35L241.18,55.55z"></path>
    <path style="fill:#000020" d="M186.10,59.63L185.90,58.30L186.03,58.42z"></path>
    <path style="fill:#000020" d="M246.37,62.21L246.47,62.45L246.62,63.32L245.36,62.15L246.03,61.87z"></path>
    <path style="fill:#000020" d="M239.09,62.90L240.93,62.73L242.22,62.87z"></path>
    <path style="fill:#000020" d="M195.14,64.66L195.68,64.07L195.65,66.88z"></path>
    <path style="fill:#000020" d="M186.16,67.62L185.72,67.31L185.91,66.31z"></path>
    <path style="fill:#000020" d="M250.16,86.17L249.87,86.08L250.13,85.31z"></path>
    <path style="fill:#000020" d="M250.75,87.41L250.17,87.16L250.25,86.84L250.50,86.95z"></path>
    <path style="fill:#000020" d="M252.86,90.74L252.81,90.43L253.44,90.27L254.05,90.42L253.56,90.82z"></path>
    <path style="fill:#000020" d="M259.27,96.14L259.26,94.82L259.42,94.94z"></path>
    <path style="fill:#000020" d="M297.08,81.69L296.89,101.16L296.75,81.06L296.92,81.05z"></path>
    <path style="fill:#000020" d="M150.75,135.41L151.10,135.68L150.39,135.77L150.47,131.12z"></path>
    <path style="fill:#000020" d="M212.44,135.77L211.22,135.62L211.44,135.47z"></path>
    <path style="fill:#000020" d="M246.13,139.05L245.99,132.95L246.27,132.08z"></path>
    <path style="fill:#000020" d="M226.81,143.45L228.44,143.15L230.28,143.32z"></path>
    <path style="fill:#000020" d="M184.85,156.77L185.50,156.59L186.71,156.78z"></path>
    <path style="fill:#000020" d="M198.07,159.24L198.07,155.07L198.32,155.08z"></path>
    <path style="fill:#000020" d="M274.33,196.11L274.35,191.24L274.47,191.36z"></path>
    <path style="fill:#000020" d="M289.37,198.37L289.38,193.50L289.53,193.61z"></path>
    <path style="fill:#000020" d="M271.40,217.81L271.70,217.47L271.92,217.54L271.90,219.39z"></path>
    <path style="fill:#e5e5e5" d="M237.93,7.60L238.78,7.14L240.19,7.14L240.23,8.98L239.33,9.06L238.26,8.75L237.92,8.42z"></path>
    <path style="fill:#e5e5e5" d="M210.91,19.62L211.56,19.01L212.95,18.66L212.96,20.41L211.34,20.28z"></path>
    <path style="fill:#e5e5e5" d="M265.49,19.12L266.33,18.68L267.75,18.68L267.77,20.74L266.23,20.58L265.47,20.29z"></path>
    <path style="fill:#e5e5e5" d="M292.71,30.99L293.89,30.20L294.97,30.20L294.98,32.27L293.34,32.17L292.71,31.80z"></path>
    <path style="fill:#e5e5e5" d="M183.14,30.65L184.33,30.21L185.40,30.20L185.41,32.27L183.77,32.17L183.15,31.82z"></path>
    <path style="fill:#e5e5e5" d="M262.62,34.05L262.53,34.40L261.95,34.45L261.03,33.40L260.79,32.71z"></path>
    <path style="fill:#e5e5e5" d="M258.13,37.58L256.11,38.56L250.23,40.13L249.55,39.97L257.15,36.66L257.49,36.33z"></path>
    <path style="fill:#e5e5e5" d="M184.76,40.45L184.56,40.75L184.24,40.77L183.41,40.43L183.37,40.13L184.11,40.12z"></path>
    <path style="fill:#e5e5e5" d="M236.43,40.76L234.85,40.61L234.86,40.46L251.10,33.75L251.07,35.46L248.51,36.73L239.13,40.82L238.07,40.95L237.95,40.81z"></path>
    <path style="fill:#e5e5e5" d="M189.23,42.39L186.04,46.71L185.94,41.09L186.33,41.06z"></path>
    <path style="fill:#e5e5e5" d="M265.70,42.69L266.33,42.06L267.75,42.06L267.85,43.49L267.18,43.68L266.13,43.35z"></path>
    <path style="fill:#e5e5e5" d="M210.69,42.18L211.89,41.75L212.95,41.74L212.96,43.80L211.03,43.68L210.70,43.36z"></path>
    <path style="fill:#e5e5e5" d="M225.34,47.21L224.08,47.86L222.77,47.97L222.77,45.92L224.05,45.60L225.18,44.40L225.47,44.32z"></path>
    <path style="fill:#e5e5e5" d="M296.04,51.86L295.28,52.46L295.28,51.79L295.96,51.68z"></path>
    <path style="fill:#e5e5e5" d="M237.92,54.05L239.46,53.26L240.18,53.26L240.29,55.35L239.96,55.51L238.56,55.24L237.93,54.87z"></path>
    <path style="fill:#e5e5e5" d="M176.74,63.23L178.13,64.08L177.05,63.88L174.67,62.96L169.92,60.63L170.64,60.63z"></path>
    <path style="fill:#e5e5e5" d="M252.36,62.26L254.98,64.84L254.94,65.23L254.53,65.52L253.66,65.48L251.12,63.23L250.36,63.24L250.45,62.58L249.98,61.91L251.12,61.30z"></path>
    <path style="fill:#e5e5e5" d="M187.93,62.61L188.63,63.38L185.19,65.00L183.91,65.11L180.68,65.12L179.30,64.84L178.13,64.08L179.31,64.19L182.09,64.19L183.68,63.85L186.25,62.27L187.64,61.63z"></path>
    <path style="fill:#e5e5e5" d="M185.91,66.31L185.72,67.31L184.97,67.19L185.06,65.21L185.19,65.00L185.72,65.14z"></path>
    <path style="fill:#e5e5e5" d="M259.07,67.83L259.05,67.19L260.37,67.05z"></path>
    <path style="fill:#e5e5e5" d="M256.19,70.23L253.25,81.84L251.92,82.80L251.28,82.79L252.03,81.27L255.27,68.72L255.56,68.68z"></path>
    <path style="fill:#e5e5e5" d="M259.06,71.26L262.31,71.86L264.24,73.13L295.97,101.98L294.35,102.32L276.74,86.26L272.25,82.42L261.65,72.83L260.18,72.32L258.21,72.18L257.14,71.53L257.04,70.94L258.13,70.57z"></path>
    <path style="fill:#e5e5e5" d="M369.96,241.66L369.66,242.11L368.57,242.44L297.08,81.69L296.92,81.05L297.26,78.12z"></path>
    <path style="fill:#e5e5e5" d="M263.59,84.33L263.89,85.65L263.90,88.01L263.49,89.20L261.51,90.74L256.10,93.05L254.60,92.71L253.54,92.06L255.53,91.17L256.18,90.42L256.16,89.79L255.12,89.79L254.05,90.42L253.44,90.27L253.20,88.24L263.28,83.99z"></path>
    <path style="fill:#e5e5e5" d="M294.26,96.23L293.54,96.33L293.57,95.92L294.32,95.86z"></path>
    <path style="fill:#e5e5e5" d="M237.92,132.23L239.11,131.44L240.19,131.45L240.20,133.51L238.56,133.41L237.93,133.05z"></path>
    <path style="fill:#e5e5e5" d="M215.90,135.95L215.86,136.35L214.76,136.95L214.25,136.92L212.98,135.95L212.44,135.77L211.44,135.47L212.18,134.97L214.25,134.98z"></path>
    <path style="fill:#e5e5e5" d="M185.62,150.37L186.22,150.04L187.97,150.03L187.60,150.38L185.98,150.72z"></path>
    <path style="fill:#e5e5e5" d="M171.28,150.50L172.46,149.71L173.88,149.72L173.88,151.77L172.24,151.67L171.28,150.99z"></path>
    <path style="fill:#e5e5e5" d="M110.09,151.77L112.02,150.98L110.45,153.06L110.06,152.66z"></path>
    <path style="fill:#e5e5e5" d="M183.13,155.30L184.67,154.50L185.39,154.50L185.50,156.59L184.85,156.77L183.48,156.46L183.13,156.12z"></path>
    <path style="fill:#e5e5e5" d="M118.01,164.49L118.80,164.16L118.77,165.22L115.80,169.39L115.44,169.30L118.10,165.25z"></path>
    <path style="fill:#e5e5e5" d="M237.93,178.37L238.78,177.91L240.20,177.91L240.33,179.69L238.98,179.83L237.92,179.19z"></path>
    <path style="fill:#e5e5e5" d="M249.78,183.15L250.97,182.72L252.04,182.71L252.05,184.77L250.41,184.67L249.79,184.32z"></path>
    <path style="fill:#e5e5e5" d="M302.05,191.80L301.03,192.45L300.93,192.08L301.63,191.65z"></path>
    <path style="fill:#e5e5e5" d="M372.52,241.33L380.23,258.66L380.08,259.65L379.47,259.64L378.91,257.70L371.84,242.01L371.75,241.02L372.17,240.97z"></path>
    <path style="fill:#e5e5e5" d="M378.90,262.18L378.13,263.16L377.64,263.18L376.84,260.89L377.86,260.21L378.25,260.25z"></path>
    <path style="fill:#e5e5e5" d="M43.81,262.08L43.56,262.06L43.78,261.31L44.45,261.09z"></path>
    <path style="fill:#e5e5e5" d="M377.37,264.08L377.35,264.58L377.04,264.88L376.62,264.46L376.56,263.76L376.99,263.72z"></path>
    <path style="fill:#e5e5e5" d="M49.73,267.23L49.74,265.90L49.88,266.02z"></path>
    <path style="fill:#e5e5e5" d="M48.91,271.59L48.17,271.59L48.04,271.38L49.04,271.38z"></path>
    <path style="fill:#e3e3e3" d="M49.25,265.69L49.25,267.44L48.50,268.33L47.11,268.18L46.05,266.26L46.04,263.99L46.46,263.59L47.43,263.60L47.99,263.78z"></path>
    <path style="fill:#cccccc" d="M47.72,261.37L43.95,263.02L43.81,262.08L44.45,261.09L46.02,260.56z"></path>
    <path style="fill:#cccccc" d="M47.43,263.60L46.46,263.59L47.30,263.45z"></path>
    <path style="fill:#cccccc" d="M50.89,266.56L50.69,265.60L50.84,265.71z"></path>
    <path style="fill:#ffffff" d="M247.56,62.04L246.37,62.21L246.03,61.87L247.85,61.25z"></path>
    <path style="fill:#ffffff" d="M204.30,63.87L204.32,66.23L203.68,67.51L202.69,68.14L201.73,68.39L200.82,67.59L200.63,66.29L200.83,65.38L202.40,63.32L202.71,63.23z"></path>
    <path style="fill:#ffffff" d="M191.83,63.98L191.60,63.09L191.80,63.23z"></path>
    <path style="fill:#ffffff" d="M220.35,70.88L220.32,72.31L220.00,73.26L219.09,74.59L217.41,75.13L216.51,74.02L216.65,73.34L217.68,72.22L218.04,70.33L218.31,69.94L218.70,69.90z"></path>
    <path style="fill:#ffffff" d="M145.70,157.71L145.67,159.45L145.35,160.40L143.96,162.22L142.03,162.32L141.75,161.57L143.11,160.41L143.75,158.81L143.81,157.27L143.92,156.96L144.71,157.08z"></path>
    <path style="fill:#ffffff" d="M142.14,158.83L142.10,158.17L142.99,157.07L143.23,157.00z"></path>
    <path style="fill:#ffffff" d="M156.28,162.53L156.26,163.61L155.29,165.86L154.24,166.73L152.61,166.81L152.28,166.02L153.54,164.75L154.21,163.09L154.43,161.53L155.30,161.54z"></path>
    <path style="fill:#ffffff" d="M280.58,214.74L280.57,217.13L279.60,218.73L278.85,219.26L277.66,219.62L276.68,218.98L276.42,218.21L276.44,216.58L277.36,215.11L278.33,214.91L278.96,213.78z"></path>
    <g id="Actor_4.0">
      <g style="stroke:#000000;stroke-width:0.176;stroke-opacity:0.25">
        <path d="M45.31,265.00L45.37,265.84L45.63,266.71L46.06,267.50L46.63,268.13"></path>
        <path d="M46.86,263.29L46.30,263.44L45.86,263.87L45.60,264.51L45.55,265.31L45.71,266.18L46.06,267.02L46.57,267.74L47.18,268.27L47.82,268.54L48.43,268.53L48.94,268.24"></path>
        <path d="M46.42,267.93L46.95,268.27L47.49,268.38L47.96,268.25L48.33,267.90L48.55,267.35L48.59,266.68L48.46,265.95L48.30,265.57L48.16,265.25L47.73,264.64L47.22,264.20L46.95,264.05L46.68,263.97L46.17,263.98L45.74,264.22L45.45,264.68L45.31,265.30"></path>
        <path d="M46.37,263.60L45.97,264.00L45.72,264.60L45.67,265.35L45.82,266.16L46.15,266.95L46.63,267.63L47.20,268.12L47.80,268.37L48.37,268.36"></path>
        <path d="M47.90,268.67L48.47,268.52L48.90,268.09L49.03,267.77L49.16,267.45L49.22,266.65L49.06,265.78L48.70,264.94L48.20,264.22L47.59,263.69L47.26,263.52L46.94,263.42L46.33,263.43L45.82,263.72"></path>
        <path d="M46.62,263.50L46.82,263.44"></path>
        <path d="M48.62,268.26L48.86,268.12"></path>
      </g>
      <g style="stroke:#000000;stroke-width:0.529;stroke-opacity:0.25">
        <path d="M45.36,266.01L45.58,266.73L45.94,267.40L46.42,267.93L46.63,268.13L47.26,268.54L47.90,268.67L48.43,268.53L48.47,268.52L48.94,268.24L49.29,267.70L49.45,266.96L49.40,266.12L49.14,265.25L48.70,264.46L48.14,263.83L47.50,263.42L46.86,263.29L46.33,263.43L46.30,263.44L45.82,263.72L45.47,264.26L45.31,265.00L45.31,265.30L45.36,266.01"></path>
        <path d="M46.79,267.59L46.62,267.36"></path>
        <path d="M46.76,267.35L46.40,266.85L46.07,266.06L45.92,265.25L45.97,264.50L46.22,263.89L46.62,263.50L46.37,263.60L46.90,263.46L47.50,263.58L48.09,263.96L48.62,264.55L49.03,265.29L49.28,266.10L49.33,266.90L49.18,267.58L48.85,268.09L48.37,268.36L48.62,268.26L48.05,268.27L47.45,268.01L46.88,267.52L46.76,267.35"></path>
        <path d="M45.89,265.72L45.92,265.86"></path>
        <path d="M46.15,266.53L46.23,266.72"></path>
        <path d="M47.63,262.88L48.92,262.33"></path>
        <path d="M49.70,268.00L51.07,267.41"></path>
      </g>
    </g>
    <g id="Actor_2.0">
      <g style="stroke:#000000;stroke-width:0.176;stroke-opacity:0.25">
        <path d="M45.36,260.73L46.26,260.65"></path>
        <path d="M46.82,267.60L46.66,267.44"></path>
        <path d="M51.07,267.63L50.83,267.22L50.02,264.81L49.90,263.65"></path>
      </g>
      <g style="stroke:#000000;stroke-width:0.529;stroke-opacity:0.25">
        <path d="M44.37,261.41L45.36,260.73L45.61,260.63"></path>
        <path d="M47.62,262.88L48.92,262.33"></path>
        <path d="M49.71,267.98L51.07,267.40"></path>
      </g>
    </g>
    <g id="Actor_8.0">
      <g style="stroke:#000000;stroke-width:0.176">
        <path d="M254.14,36.28L254.21,36.30L254.42,36.41L254.81,36.75L255.13,37.21L255.36,37.75L255.46,38.31L255.43,38.80"></path>
      </g>
      <g style="stroke:#000000;stroke-width:0.529">
        <path d="M242.40,40.98L253.62,36.25L254.01,36.24L254.14,36.28L256.73,35.19"></path>
        <path d="M261.37,33.78L261.45,33.83L261.77,34.18L261.86,34.35"></path>
      </g>
    </g>
    <g id="Actor_12.0">
      <g style="stroke:#000000;stroke-width:0.176">
        <path d="M188.67,64.08L188.69,63.84L188.67,63.65L188.61,63.46L188.51,63.29L188.49,63.27"></path>
        <path d="M188.15,63.41L188.13,63.46L188.12,63.52L188.13,63.59L188.16,63.65L188.19,63.71L188.24,63.76L188.29,63.79L188.34,63.79L188.38,63.78L188.42,63.74L188.43,63.68"></path>
        <path d="M188.24,63.37L188.29,63.39L188.31,63.41"></path>
        <path d="M189.13,63.55L189.26,63.53L189.40,63.57L189.54,63.68L189.56,63.70"></path>
      </g>
      <g style="stroke:#000000;stroke-width:0.529">
        <path d="M186.39,60.33L186.40,59.91"></path>
        <path d="M188.42,63.55L188.38,63.48L188.34,63.43L188.31,63.41L188.31,63.44L188.32,63.51L188.34,63.57L188.38,63.64L188.43,63.68L188.43,63.68L188.43,63.68L188.44,63.65L188.43,63.62L188.42,63.55"></path>
        <path d="M188.46,64.17L187.85,63.72L187.74,63.59"></path>
        <path d="M188.70,63.23L188.80,63.38L188.86,63.57L188.87,63.76L188.86,64.00"></path>
        <path d="M188.95,63.96L188.95,63.95L188.96,63.78L189.03,63.64L189.13,63.55L189.32,63.48L189.44,63.45L189.59,63.49L189.72,63.60L189.74,63.62"></path>
      </g>
    </g>
    <g id="Actor_8.1">
      <g style="stroke:#000000;stroke-width:0.176">
        <path d="M247.56,33.50L247.64,33.53L247.84,33.63L248.23,33.97L248.56,34.43L248.78,34.97L248.88,35.53L248.85,36.04L248.74,36.32"></path>
      </g>
      <g style="stroke:#000000;stroke-width:0.529">
        <path d="M231.18,40.17L247.04,33.47L247.43,33.46L247.56,33.50L250.16,32.41"></path>
        <path d="M251.15,35.30L248.74,36.32L248.68,36.45L248.41,36.72L238.23,41.02"></path>
        <path d="M255.28,31.57L255.19,31.40L254.88,31.05L254.79,31.00"></path>
      </g>
    </g>
    <g id="Actor_14.0">
      <g style="stroke:#000000;stroke-width:0.176">
        <path d="M169.93,60.70L169.94,60.70"></path>
      </g>
      <g style="stroke:#000000;stroke-width:0.529">
        <path d="M186.71,60.20L183.94,61.37L183.34,61.55L182.64,61.65L181.90,61.65L181.20,61.55L180.61,61.37L171.30,57.44L170.93,57.34L170.53,57.43L170.12,57.69L169.76,58.09L169.48,58.60L169.31,59.15L169.28,59.70L169.38,60.16L169.61,60.51L169.93,60.70"></path>
        <path d="M169.94,60.70L179.42,64.69L180.44,65.00L181.64,65.17L182.90,65.17L184.10,65.00L185.12,64.69L185.47,64.55L188.65,63.20"></path>
      </g>
    </g>
    <g id="Actor_6.0">
      <g style="stroke:#000000;stroke-width:0.176">
        <path d="M249.97,63.75L250.67,62.90L250.74,62.66"></path>
      </g>
      <g style="stroke:#000000;stroke-width:0.529">
        <path d="M251.05,62.94L250.60,63.49L249.97,63.75L249.02,64.15L247.92,64.04L246.79,63.44L245.75,62.42L245.49,62.01"></path>
        <path d="M249.22,61.61L249.36,61.44L249.51,60.95"></path>
        <path d="M249.58,60.52L249.59,60.35L249.59,60.27"></path>
      </g>
    </g>
    <g id="Actor_12.1">
      <g style="stroke:#000000;stroke-width:0.176">
        <path d="M250.72,87.24L250.71,87.29"></path>
        <path d="M252.38,90.40L252.46,90.55L252.52,90.74L252.54,90.93L252.52,91.21"></path>
        <path d="M253.42,90.82L253.40,90.79L253.26,90.68L253.12,90.64L252.99,90.66"></path>
        <path d="M251.98,90.57L251.97,90.59L251.98,90.66L252.01,90.73L252.04,90.79L252.09,90.83L252.14,90.86L252.19,90.87L252.23,90.85L252.27,90.82L252.29,90.76"></path>
        <path d="M253.16,90.93L253.13,90.94L253.09,90.97"></path>
      </g>
      <g style="stroke:#000000;stroke-width:0.529">
        <path d="M252.16,90.50L252.16,90.51L252.17,90.58L252.19,90.65L252.23,90.71L252.28,90.76L252.29,90.76L252.29,90.73L252.29,90.70L252.27,90.63L252.24,90.56L252.20,90.50L252.18,90.49"></path>
        <path d="M253.61,90.74L253.58,90.71L253.45,90.60L253.30,90.56L253.17,90.58L252.99,90.66L252.88,90.74L252.82,90.87L252.80,91.05L252.80,91.09"></path>
        <path d="M252.70,91.13L252.72,90.85L252.71,90.66L252.65,90.47L252.57,90.32"></path>
      </g>
    </g>
    <g id="Actor_13.0">
      <g style="stroke:#000000;stroke-width:0.176">
        <path d="M225.46,44.65L225.26,45.04L224.77,45.39L224.05,45.65L223.17,45.79L222.22,45.81L221.31,45.69L220.92,45.57L220.54,45.46L219.99,45.13L219.72,44.75"></path>
        <path d="M220.01,43.97L219.98,44.33L220.22,44.68L220.72,44.98L221.42,45.19L222.25,45.30L223.11,45.28L223.92,45.15L224.58,44.92L225.02,44.60L225.20,44.25L225.10,43.88"></path>
      </g>
      <g style="stroke:#000000;stroke-width:0.529">
        <path d="M225.45,46.77L225.46,44.65L225.34,44.25L225.10,43.88L224.72,43.55L224.11,43.30L223.33,43.14L222.48,43.09L221.63,43.16L220.89,43.35L220.33,43.63L220.01,43.97L219.76,44.35L219.72,44.75L219.71,46.86"></path>
      </g>
    </g>
    <g id="Actor_1.0">
      <g style="stroke:#000000;stroke-width:0.176">
        <path d="M261.74,216.04L263.62,216.83"></path>
        <path d="M273.93,190.76L273.71,190.71L273.47,190.77L272.96,190.98L271.83,191.67L270.80,192.73L269.95,194.06L264.20,205.33L263.53,207.12L263.29,208.93L263.29,215.07L263.43,216.31L263.82,217.35L264.44,218.13L265.28,218.85L266.09,219.31"></path>
        <path d="M268.13,209.21L268.18,209.18L268.90,209.11L269.53,209.37L269.98,209.93L270.22,210.73L270.22,211.68L269.98,212.69L269.53,213.64L268.90,214.42L268.18,214.96L267.44,215.20L266.76,215.10L266.21,214.69L265.99,214.26"></path>
        <path d="M269.44,191.41L271.32,192.20"></path>
        <path d="M274.26,194.87L274.26,196.46L275.27,196.03"></path>
      </g>
      <g style="stroke:#000000;stroke-width:0.529">
        <path d="M274.26,194.87L274.26,191.44L274.22,191.15L274.11,190.91L273.93,190.76L272.05,189.97L271.84,189.92L271.59,189.97L271.08,190.19L269.95,190.88L268.92,191.93L268.07,193.27L262.32,204.54L261.65,206.33L261.42,208.13L261.42,214.27L261.55,215.52L261.94,216.56L262.56,217.34L263.40,218.06L264.21,218.51L266.09,219.31L267.03,219.41L268.05,219.15L271.91,217.52"></path>
        <path d="M265.84,213.92L265.73,213.11L265.85,212.11L266.21,211.12L266.76,210.24L267.44,209.57L268.13,209.21L268.35,209.93L268.35,210.89L268.10,211.89L267.65,212.84L267.02,213.63L266.30,214.17L265.99,214.26L265.85,214.00L265.84,213.92"></path>
        <path d="M278.78,214.19L278.42,214.56L277.30,215.24L276.75,215.47"></path>
      </g>
    </g>
    <g id="Actor_9.0">
      <g style="stroke:#000000;stroke-width:0.176">
        <path d="M259.94,33.31L260.41,33.67L260.42,33.69L259.94,33.31L259.15,32.95"></path>
        <path d="M260.42,33.69L260.59,33.82"></path>
        <path d="M261.29,33.67L261.60,34.13L261.71,34.29"></path>
      </g>
      <g style="stroke:#000000;stroke-width:0.529">
        <path d="M261.72,34.29L261.30,33.68L261.27,33.65L260.71,33.15L260.10,32.88L260.03,32.86L259.44,32.85L259.35,32.87L259.15,32.95L258.69,32.75L258.37,32.88"></path>
      </g>
    </g>
    <g id="Actor_9.1">
      <g style="stroke:#000000;stroke-width:0.176">
        <path d="M252.57,30.17L253.36,30.53L253.85,30.91L253.83,30.89L253.36,30.53"></path>
        <path d="M254.71,30.89L255.02,31.35L255.14,31.51"></path>
        <path d="M253.85,30.91L254.01,31.04"></path>
      </g>
      <g style="stroke:#000000;stroke-width:0.529">
        <path d="M255.14,31.52L254.72,30.90L254.69,30.87L254.13,30.37L253.53,30.10L253.45,30.08L252.86,30.07L252.78,30.09L252.57,30.17L252.12,29.97L251.80,30.10"></path>
      </g>
    </g>
    <g id="Actor_1.1">
      <g style="stroke:#000000;stroke-width:0.176">
        <path d="M102.55,164.91L102.82,164.52"></path>
        <path d="M175.04,62.86L110.70,153.44"></path>
        <path d="M138.93,165.46L130.16,177.81"></path>
        <path d="M143.77,158.65L141.67,161.60"></path>
        <path d="M177.13,59.91L189.50,42.49"></path>
        <path d="M233.91,35.09L232.66,35.62L231.58,35.88L230.39,35.64L229.19,34.91L228.90,34.60"></path>
        <path d="M232.66,35.62L234.91,38.59"></path>
      </g>
      <g style="stroke:#000000;stroke-width:0.529">
        <path d="M150.21,170.33L133.47,177.41L132.93,177.59L132.32,177.73L130.92,177.85L129.40,177.76L127.91,177.46L126.60,176.99L104.21,166.52L103.21,165.92L102.62,165.24L102.49,164.57L102.57,164.41"></path>
        <path d="M110.49,153.16L174.73,62.72"></path>
        <path d="M189.19,42.36L176.82,59.77"></path>
        <path d="M229.59,33.48L230.44,34.38L231.64,35.11L232.84,35.35L233.91,35.09L236.16,38.06"></path>
        <path d="M238.42,41.04L238.36,40.97"></path>
      </g>
    </g>
    <g id="Actor_1.2">
      <g style="stroke:#000000;stroke-width:0.176">
        <path d="M201.41,144.37L188.10,150.00L187.84,150.05L187.56,150.00L187.29,149.85L187.05,149.61L186.87,149.32L179.54,132.80L179.43,132.48L179.40,132.16L179.40,113.14L179.40,105.21L179.43,104.92L223.28,86.39"></path>
        <path d="M179.43,132.48L223.28,113.95"></path>
        <path d="M179.43,104.92L179.54,104.69L199.42,76.70L199.60,76.55L199.82,76.49L200.06,76.55L208.16,79.97L208.44,80.05L208.77,80.10L209.12,80.10L209.45,80.05L209.73,79.97L211.23,79.33"></path>
        <path d="M187.42,149.92L185.88,150.65"></path>
        <path d="M198.51,74.13L198.47,74.14"></path>
        <path d="M215.53,138.49L217.08,137.75L216.37,136.57L215.42,135.63L214.33,135.03L213.20,134.82L212.15,135.03L202.75,139.00L202.45,139.21"></path>
        <path d="M208.94,78.50L208.94,80.10"></path>
        <path d="M214.87,135.33L213.34,136.06"></path>
        <path d="M217.08,137.75L230.38,132.13"></path>
      </g>
      <g style="stroke:#000000;stroke-width:0.529">
        <path d="M224.22,84.99L223.39,86.16L223.28,86.39L223.24,86.68L223.24,113.63L223.28,113.95L223.39,114.27L230.72,130.79L230.82,131.12L230.83,131.44L230.76,131.74L230.60,131.98L230.38,132.13L228.84,132.86L215.53,138.49L214.83,137.30L213.88,136.36L212.79,135.76L211.66,135.55L210.61,135.76L202.45,139.21L201.87,139.61L201.25,140.55L200.96,141.74L201.01,143.06L201.41,144.37L199.88,145.10L186.56,150.73L186.30,150.78L186.02,150.73L185.75,150.58L185.51,150.34L185.33,150.05L178.00,133.53L177.64,132.44L177.52,131.37L177.52,114.71L177.52,104.42L177.64,103.44L178.00,102.66L197.88,74.67L198.47,74.14L198.51,74.13"></path>
      </g>
    </g>
    <g id="Actor_1.3">
      <g style="stroke:#000000;stroke-width:0.176">
        <path d="M224.27,34.70L222.71,35.36L222.62,35.58L221.80,36.91"></path>
        <path d="M220.80,32.11L220.83,32.08L220.85,32.04L220.86,31.98L220.86,30.86"></path>
        <path d="M221.18,30.10L221.40,30.05L221.64,30.10L221.95,30.23L222.20,30.39L222.41,30.62L222.59,30.92L222.70,31.24L222.74,31.57L222.74,35.09L222.71,35.36"></path>
        <path d="M224.07,30.11L222.50,30.77"></path>
      </g>
      <g style="stroke:#000000;stroke-width:0.529">
        <path d="M222.64,37.44L224.18,34.91L224.27,34.70L224.30,34.43L224.30,30.91L224.26,30.58L224.15,30.25L223.98,29.96L223.76,29.72L223.52,29.57L223.37,29.51L223.21,29.44L222.96,29.39L222.75,29.44L221.18,30.10L221.01,30.25L220.90,30.48L220.86,30.77L220.86,30.86"></path>
      </g>
    </g>
    <g id="Actor_1.4">
      <g style="stroke:#000000;stroke-width:0.176">
        <path d="M255.35,68.10L251.55,82.87"></path>
      </g>
      <g style="stroke:#000000;stroke-width:0.529">
        <path d="M198.16,46.15L199.96,54.69"></path>
        <path d="M202.09,64.75L201.85,63.62"></path>
        <path d="M256.19,70.26L253.11,82.22"></path>
      </g>
    </g>
    <g id="Actor_1.5">
      <g style="stroke:#000000;stroke-width:0.176">
        <path d="M245.88,89.08L246.62,89.39"></path>
        <path d="M246.80,87.78L247.07,87.04L247.51,86.48L248.05,86.72L247.66,87.22L247.44,87.79"></path>
        <path d="M245.88,87.39L246.22,86.27L246.88,85.39L247.78,84.93L248.77,84.91L248.77,86.10L248.10,86.15L247.51,86.48"></path>
        <path d="M248.05,86.72L248.57,86.44L249.08,86.38L248.77,86.10"></path>
        <path d="M250.03,87.28L250.02,87.21L249.95,87.02L249.83,86.91L249.67,86.88L249.48,86.92L248.40,87.38"></path>
        <path d="M247.95,84.38L249.08,84.37L249.31,84.29L249.59,84.24L249.88,84.22L250.16,84.24L250.39,84.30L250.57,84.41L250.66,84.54L250.66,84.69L250.57,84.82L250.39,84.93L251.52,85.89L252.50,87.22L253.22,88.78L253.60,90.39L252.96,90.38L252.63,88.98L251.97,87.54L251.07,86.32L250.08,85.47L250.39,84.93"></path>
        <path d="M248.79,94.01L249.08,94.27"></path>
        <path d="M250.08,85.47L250.08,86.65L250.75,87.27L251.33,88.09L251.78,89.03L252.04,90.00L252.96,90.38"></path>
        <path d="M248.77,84.91L249.08,84.37"></path>
        <path d="M249.08,86.38L249.31,86.29L249.59,86.23L249.88,86.19L250.08,86.20"></path>
        <path d="M250.36,87.42L250.36,86.91"></path>
        <path d="M253.56,92.20L253.60,92.07L253.24,92.07"></path>
        <path d="M252.04,91.56L252.03,91.41L251.99,91.54"></path>
        <path d="M252.03,91.41L254.07,90.55L254.20,90.48"></path>
        <path d="M252.43,91.24L251.75,90.74L251.71,90.69"></path>
        <path d="M253.60,92.07L255.63,91.21L255.84,91.09L256.04,90.90L256.20,90.65L256.31,90.39L256.34,90.11L256.31,89.87L256.20,89.66L256.04,89.53L255.84,89.48L255.63,89.53L253.60,90.39"></path>
        <path d="M259.91,80.18L261.03,80.77L262.21,81.93L263.16,83.45L263.77,85.17L263.99,86.89L263.77,88.42L263.50,88.96"></path>
      </g>
      <g style="stroke:#000000;stroke-width:0.529">
        <path d="M248.03,87.87L247.91,87.95L245.88,88.81L245.88,89.08L246.12,90.09"></path>
        <path d="M248.40,87.38L247.44,87.79L246.80,87.78L245.88,87.39L245.88,87.12L246.25,85.84L246.97,84.88L247.95,84.38L257.42,80.42L258.50,79.97L259.75,80.09L259.91,80.18"></path>
        <path d="M250.11,94.57L250.39,94.82L250.70,94.82"></path>
        <path d="M249.27,94.21L249.08,94.27L248.77,94.00"></path>
        <path d="M255.65,93.09L262.21,90.34L263.16,89.62L263.50,88.96"></path>
      </g>
    </g>
    <g id="Actor_1.6">
      <g style="stroke:#000000;stroke-width:0.176">
        <path d="M272.24,220.47L274.12,221.27"></path>
        <path d="M276.58,223.74L275.77,223.29L274.93,222.56L274.31,221.79L273.92,220.74L273.79,219.50L273.79,213.36L274.02,211.55L274.69,209.77L280.44,198.49L281.29,197.16L282.32,196.11L283.45,195.42L288.66,193.21L288.90,193.16L289.12,193.21"></path>
        <path d="M278.62,213.64L278.67,213.61L279.39,213.54L280.02,213.80L280.47,214.36L280.72,215.16L280.72,216.12L280.47,217.12L280.02,218.07L279.39,218.86L278.67,219.39L277.93,219.63L277.25,219.53L276.70,219.12L276.48,218.70"></path>
        <path d="M279.93,195.84L281.81,196.63"></path>
        <path d="M290.46,198.48L289.45,198.91L289.45,197.32"></path>
      </g>
      <g style="stroke:#000000;stroke-width:0.529">
        <path d="M299.47,199.69L290.79,216.62L289.94,217.94L288.91,218.99L287.79,219.68L278.54,223.58L277.53,223.84L276.58,223.74L274.70,222.95L273.89,222.49L273.05,221.77L272.43,220.99L272.04,219.95L271.91,218.71L271.91,212.57L272.14,210.76L272.81,208.97L278.56,197.70L279.41,196.37L280.44,195.31L281.57,194.62L286.78,192.42L287.03,192.37L287.24,192.42L289.12,193.21L289.30,193.36L289.41,193.59L289.45,193.89L289.45,197.32"></path>
        <path d="M276.48,218.70L276.79,218.60L277.51,218.06L278.14,217.28L278.60,216.33L278.84,215.32L278.84,214.37L278.62,213.64L277.93,214.01L277.25,214.68L276.70,215.56L276.34,216.55L276.22,217.54L276.34,218.43L276.48,218.70"></path>
      </g>
    </g>
    <g id="Actor_1.7">
      <g style="stroke:#000000;stroke-width:0.176">
        <path d="M233.43,32.26L232.89,32.79L232.16,32.99L231.35,32.82L231.19,32.72"></path>
        <path d="M242.67,27.57L249.51,30.46L249.51,32.02L249.50,32.13L249.46,32.22L249.40,32.28L248.90,32.45L248.60,32.81L248.50,33.11"></path>
        <path d="M251.18,35.21L251.04,35.63L250.73,35.98L250.31,36.11L249.83,36.01L249.69,35.92"></path>
        <path d="M249.46,32.22L250.14,31.93L250.14,30.72L256.09,33.24L256.09,34.80L256.08,34.91L256.04,35.00L256.72,34.71L256.72,33.50L261.45,35.50"></path>
        <path d="M249.40,32.28L250.14,31.97L250.14,31.93"></path>
        <path d="M251.08,29.80L249.51,30.46"></path>
        <path d="M250.14,31.97L250.14,32.21"></path>
        <path d="M250.14,30.72L251.08,30.33"></path>
        <path d="M256.04,35.00L255.97,35.06L255.48,35.23L255.17,35.59L255.08,35.89"></path>
        <path d="M255.97,35.06L256.72,34.74L256.72,34.71"></path>
        <path d="M256.09,33.24L257.66,32.58"></path>
        <path d="M256.72,34.74L256.72,34.99"></path>
        <path d="M256.72,33.50L257.66,33.11"></path>
      </g>
      <g style="stroke:#000000;stroke-width:0.529">
        <path d="M232.76,32.06L232.92,32.16L233.43,32.26L233.45,32.25L233.78,31.42L233.85,30.40L233.64,29.29L233.19,28.21L233.07,28.03"></path>
        <path d="M246.32,27.79L251.08,29.80L251.08,30.33L251.71,30.06L257.66,32.58L257.66,33.11L258.28,32.84L262.34,34.56"></path>
        <path d="M251.18,35.21L251.21,35.12L251.22,34.50L251.06,33.85L250.76,33.24L250.26,32.64L250.20,32.53L250.16,32.40L250.14,32.28L250.14,32.21L250.07,32.44"></path>
        <path d="M257.79,37.84L257.80,37.28L257.64,36.63L257.33,36.02L256.84,35.42L256.77,35.31L256.73,35.18L256.72,35.06L256.72,34.99L256.65,35.22"></path>
      </g>
    </g>
    <g id="Actor_1.8">
      <g style="stroke:#000000;stroke-width:0.176">
        <path d="M346.65,251.88L270.76,80.89"></path>
        <path d="M369.81,242.08L296.76,77.50"></path>
        <path d="M355.48,271.78L354.74,270.12"></path>
        <path d="M378.64,261.99L377.90,260.32"></path>
      </g>
      <g style="stroke:#000000;stroke-width:0.529">
        <path d="M254.64,96.49L265.67,121.35"></path>
        <path d="M296.76,77.35L369.86,242.06"></path>
        <path d="M377.96,260.30L378.58,261.69L378.71,262.29L378.37,262.86L378.03,263.12L377.58,263.34L358.79,271.28L358.26,271.47L357.64,271.62L356.24,271.79L354.72,271.77L353.23,271.57L351.93,271.20L329.54,262.74L328.54,262.23L327.94,261.65L300.29,199.35"></path>
      </g>
    </g>
    <g id="Actor_1.9">
      <g style="stroke:#000000;stroke-width:0.176">
        <path d="M160.48,133.09L160.74,132.86L160.88,132.82L161.03,132.86"></path>
        <path d="M186.64,90.50L180.71,91.46L179.65,91.86"></path>
        <path d="M180.90,91.34L180.91,91.33"></path>
      </g>
      <g style="stroke:#000000;stroke-width:0.529">
        <path d="M184.88,149.03L161.64,133.68L161.47,133.51L161.32,133.26L161.21,132.98L161.16,132.92L161.12,132.90L161.03,132.86L160.48,133.09L160.26,133.14L160.02,133.09L153.00,130.12L152.90,130.06L152.81,129.97L152.75,129.85L152.70,129.72L152.68,129.59L152.70,129.47L152.74,129.38L178.81,92.68L179.65,91.86L180.91,91.33L181.96,90.93L186.90,90.13"></path>
      </g>
    </g>
    <g id="Actor_1.10">
      <g style="stroke:#000000;stroke-width:0.176">
        <path d="M195.60,66.31L197.95,67.30"></path>
        <path d="M202.32,76.08L200.17,74.67L198.66,72.29L198.65,72.28L197.91,69.12L197.99,65.49L198.90,61.70L200.56,58.09L202.81,54.99L203.67,53.83L204.33,52.50L201.98,51.51"></path>
        <path d="M200.57,67.08L200.58,67.19L200.85,67.86L201.30,68.30L201.88,68.46L202.54,68.32L203.19,67.90L203.78,67.25L204.23,66.43L204.50,65.54L204.55,64.66L204.39,63.91L204.02,63.35L203.50,63.05L202.87,63.03L202.54,63.14L202.20,63.32L202.14,63.37"></path>
        <path d="M204.33,52.50L204.74,51.08L204.89,49.68L204.89,48.99"></path>
      </g>
      <g style="stroke:#000000;stroke-width:0.529">
        <path d="M213.48,80.12L213.31,80.10L202.32,76.08L199.97,75.09L197.82,73.67L196.31,71.28L195.56,68.13L195.64,64.49L196.56,60.70L198.21,57.10L200.46,53.99L201.32,52.84L201.98,51.51L202.40,50.09L202.54,48.69L202.54,48.00"></path>
        <path d="M200.84,66.91L200.57,67.08L200.52,66.37L200.69,65.47L201.05,64.60L201.58,63.86L202.14,63.37L202.20,63.67L202.15,64.54L201.88,65.44L201.43,66.26L200.84,66.91"></path>
      </g>
    </g>
    <g id="Actor_1.11">
      <g style="stroke:#000000;stroke-width:0.176">
        <path d="M250.79,60.32L249.51,60.93"></path>
        <path d="M251.23,59.52L251.02,59.67L250.87,59.89L250.79,60.16L250.79,60.47L250.87,60.79L251.02,61.08L251.23,61.33L255.05,64.81L255.83,65.70L256.42,66.77L256.76,67.94L257.15,69.15L257.83,70.22L258.73,71.05L259.76,71.52L260.79,71.61L261.77,71.65L262.76,72.02L263.69,72.67L295.35,101.52L295.60,101.69L295.87,101.78L296.13,101.77L296.36,101.67"></path>
        <path d="M254.84,66.85L256.12,66.24"></path>
        <path d="M258.28,70.63L257.00,71.24"></path>
        <path d="M258.96,67.68L258.95,67.54L259.04,67.23L259.22,67.00L259.47,66.86L259.75,66.84L260.05,66.93L260.32,67.13L260.55,67.41L260.69,67.74L260.75,68.09L260.71,68.42L260.57,68.69L260.36,68.88L260.09,68.96L259.80,68.93L259.51,68.78L259.46,68.74"></path>
        <path d="M260.99,72.45L262.27,71.84"></path>
        <path d="M293.33,96.90L293.27,96.70L293.26,96.41L293.34,96.15L293.49,95.95L293.70,95.83L293.94,95.81L294.19,95.89L294.43,96.06L294.62,96.30L294.74,96.58L294.79,96.88L294.75,97.16L294.64,97.39L294.46,97.55L294.23,97.62L293.98,97.59L293.73,97.46L293.52,97.26L293.42,97.10"></path>
        <path d="M294.96,102.33L296.25,101.72"></path>
        <path d="M294.97,52.46L294.97,52.32L295.06,52.01L295.24,51.78L295.48,51.64L295.77,51.62L296.06,51.71L296.34,51.91L296.56,52.19L296.71,52.52L296.77,52.87L296.72,53.20L296.59,53.47L296.38,53.66L296.11,53.74L295.81,53.71L295.52,53.56L295.48,53.52"></path>
      </g>
      <g style="stroke:#000000;stroke-width:0.529">
        <path d="M249.74,61.69L249.95,61.94L253.77,65.42L254.55,66.31L255.13,67.38L255.48,68.54L255.87,69.76L256.55,70.83L257.45,71.66L258.48,72.13L259.51,72.22L260.49,72.26L261.48,72.63L262.40,73.28L294.07,102.12L294.32,102.30L294.58,102.39L294.85,102.38L295.08,102.28L296.36,101.67L296.55,101.49L296.66,101.24L296.70,100.94L296.81,58.68L296.95,57.57L297.35,56.62L297.99,55.89L298.64,55.09L298.98,54.04L298.98,52.83L298.64,51.61L298.00,50.51L297.37,49.47L296.97,48.32L296.84,47.15L296.85,42.05L296.81,41.73L296.69,41.42L296.51,41.15L296.28,40.94L296.02,40.81L295.75,40.76L295.50,40.82L251.23,59.52L249.95,60.13L249.74,60.28L249.59,60.50L249.51,60.77L249.51,61.08L249.58,61.40L249.74,61.69"></path>
        <path d="M259.07,68.23L259.25,68.54L259.46,68.74L259.47,68.70L259.41,68.35L259.26,68.02L259.04,67.74L258.96,67.68L258.96,67.88L259.07,68.23"></path>
        <path d="M293.36,97.00L293.33,96.91L293.42,97.10L293.36,97.00"></path>
        <path d="M295.38,53.43L295.48,53.52L295.48,53.48L295.43,53.13L295.28,52.79L295.06,52.51L294.97,52.46L294.98,52.66L295.08,53.01L295.27,53.32L295.38,53.43"></path>
      </g>
    </g>
    <g id="Actor_1.12">
      <g style="stroke:#000000;stroke-width:0.176">
        <path d="M137.25,163.43L139.13,164.22"></path>
        <path d="M141.60,166.69L140.79,166.24L139.95,165.52L139.33,164.74L138.94,163.70L138.80,162.46L138.80,156.32L139.04,154.51L139.71,152.72L145.46,141.45L146.31,140.12L147.34,139.06L148.47,138.37L153.68,136.17L153.92,136.12L154.14,136.17"></path>
        <path d="M141.50,161.65L141.72,162.07L142.27,162.49L142.95,162.58L143.69,162.35L144.41,161.81L145.04,161.02L145.49,160.08L145.73,159.07L145.73,158.12L145.49,157.32L145.04,156.76L144.41,156.50L143.69,156.57L143.64,156.60"></path>
        <path d="M144.95,138.79L146.83,139.59"></path>
        <path d="M154.64,141.79L154.46,141.86L154.46,140.27"></path>
      </g>
      <g style="stroke:#000000;stroke-width:0.529">
        <path d="M154.46,140.27L154.46,136.84L154.43,136.55L154.31,136.32L154.14,136.17L152.26,135.37L152.04,135.32L151.80,135.37L146.59,137.58L145.46,138.27L144.43,139.32L143.58,140.65L137.83,151.93L137.16,153.71L136.93,155.52L136.93,161.66L137.06,162.90L137.45,163.95L138.07,164.72L138.91,165.45L139.72,165.90L141.60,166.69L142.54,166.80L143.56,166.54L147.42,164.91"></path>
        <path d="M141.27,160.29L141.24,160.49L141.36,161.38L141.50,161.65L141.81,161.56L142.53,161.02L143.16,160.23L143.61,159.28L143.86,158.28L143.86,157.32L143.64,156.60L142.95,156.96L142.27,157.63L141.72,158.51L141.36,159.50L141.27,160.29"></path>
        <path d="M152.26,162.86L152.81,162.63L153.93,161.94L154.29,161.58"></path>
      </g>
    </g>
    <g id="Actor_1.13">
      <g style="stroke:#000000;stroke-width:0.176">
        <path d="M250.35,28.40L249.84,29.27"></path>
      </g>
      <g style="stroke:#000000;stroke-width:0.529">
        <path d="M247.66,27.99L247.49,28.28"></path>
      </g>
    </g>
    <g id="Actor_1.14">
      <g style="stroke:#000000;stroke-width:0.176"></g>
      <g style="stroke:#000000;stroke-width:0.529">
        <path d="M240.31,41.01L247.85,37.83L248.34,38.48"></path>
      </g>
    </g>
    <g id="Actor_1.15">
      <g style="stroke:#000000;stroke-width:0.176">
        <path d="M300.80,192.52L300.87,192.46L300.92,192.37L300.93,192.26L300.92,192.13L300.88,192.00L274.81,133.26L273.97,131.73L272.91,130.43L264.30,121.76L263.65,121.21L262.97,120.84L262.70,120.72"></path>
        <path d="M292.19,188.58L292.39,188.43L292.45,188.42L292.53,188.44"></path>
        <path d="M300.89,192.42L302.15,191.89"></path>
      </g>
      <g style="stroke:#000000;stroke-width:0.529">
        <path d="M253.22,178.24L291.63,188.63L291.92,188.66L292.19,188.58L292.53,188.44L292.55,188.45L292.74,188.56L292.88,188.71L293.14,189.17L293.36,189.40L293.60,189.55L300.62,192.52L300.72,192.54L300.80,192.52L302.06,191.99L302.12,191.94L302.17,191.84L302.19,191.73L302.17,191.60L302.13,191.47L276.07,132.73L275.22,131.20L274.17,129.90L265.55,121.23L264.90,120.68L264.23,120.31L263.95,120.20L262.70,120.72L267.73,132.07L267.87,132.31L268.17,132.69L268.28,132.89L268.73,133.90L268.80,134.11L268.84,134.36L268.83,134.59L268.77,134.76L268.70,134.88L268.47,135.11L268.35,135.34L268.29,135.59L264.97,164.66L264.81,165.25L264.50,165.74L253.22,178.24"></path>
      </g>
    </g>
    <g id="Actor_1.16">
      <g style="stroke:#000000;stroke-width:0.176">
        <path d="M183.22,39.83L183.50,40.20"></path>
        <path d="M183.51,39.95L183.50,39.98L183.50,40.42"></path>
        <path d="M184.40,40.54L184.49,40.53L184.76,40.48"></path>
        <path d="M185.67,40.87L185.67,40.87L185.71,47.26"></path>
      </g>
      <g style="stroke:#000000;stroke-width:0.529">
        <path d="M182.98,39.73L183.50,40.42L183.84,40.61L184.40,40.54"></path>
        <path d="M184.45,49.03L184.40,40.54"></path>
      </g>
    </g>
    <g id="Actor_1.17">
      <g style="stroke:#000000;stroke-width:0.176">
        <path d="M228.86,88.52L228.86,86.11"></path>
        <path d="M228.86,86.04L228.86,86.18L228.97,86.32L229.17,86.44L237.27,89.86L238.11,90.39L238.86,91.21L239.45,92.24L259.33,137.03L259.69,138.12L268.83,134.26"></path>
        <path d="M238.48,90.80L246.08,87.59"></path>
        <path d="M264.90,164.92L259.69,167.12L259.33,167.90L252.00,178.22L251.90,178.40L251.89,178.53"></path>
        <path d="M259.69,167.12L259.81,166.14L259.81,139.19L259.69,138.12"></path>
      </g>
      <g style="stroke:#000000;stroke-width:0.529">
        <path d="M253.34,178.10L252.33,178.52L252.11,178.59L251.96,178.60L251.89,178.53L250.35,176.50L250.36,176.37L250.46,176.19L257.79,165.87L257.90,165.64L257.93,165.35L257.93,138.40L257.90,138.08L257.79,137.76L237.91,92.97L237.74,92.67L237.52,92.42L237.27,92.27L229.17,88.85L228.97,88.73L228.86,88.59L228.86,86.04L228.97,85.90L229.17,85.78L235.67,83.03L235.78,83.00L236.05,82.98L236.18,83.00L236.30,83.03L244.86,86.65L245.70,87.18L245.88,87.38"></path>
        <path d="M246.72,88.46L246.46,88.00L245.91,87.40"></path>
      </g>
    </g>
    <g id="Actor_1.18">
      <g style="stroke:#000000;stroke-width:0.176">
        <path d="M147.75,167.86L149.63,168.65"></path>
        <path d="M152.09,171.13L151.28,170.67L150.44,169.95L149.82,169.18L149.43,168.13L149.30,166.89L149.30,160.75L149.53,158.94L150.20,157.15L155.95,145.88L156.80,144.55L157.83,143.50L158.96,142.81L159.47,142.59L159.72,142.54L159.94,142.59"></path>
        <path d="M154.13,161.03L154.18,161.00L154.90,160.93L155.53,161.19L155.98,161.75L156.23,162.55L156.23,163.51L155.98,164.51L155.53,165.46L154.90,166.24L154.18,166.78L153.44,167.02L152.76,166.92L152.21,166.51L151.99,166.09"></path>
        <path d="M155.44,143.23L157.32,144.02"></path>
        <path d="M160.43,148.20L160.26,148.28L160.26,146.69"></path>
      </g>
      <g style="stroke:#000000;stroke-width:0.529">
        <path d="M169.38,157.99L166.30,164.00L165.45,165.33L164.42,166.38L163.30,167.06L154.05,170.97L153.04,171.23L152.09,171.13L150.21,170.33L149.40,169.88L148.56,169.16L147.94,168.38L147.87,168.18L147.55,167.34L147.42,166.09L147.42,159.95L147.65,158.15L148.32,156.36L154.07,145.09L154.92,143.76L155.95,142.70L157.08,142.01L157.60,141.79L157.84,141.74L158.06,141.79L159.94,142.59L160.11,142.73L160.22,142.97L160.26,143.26L160.26,146.69"></path>
        <path d="M151.99,166.09L152.30,165.99L153.02,165.45L153.65,164.66L154.11,163.72L154.35,162.71L154.35,161.76L154.13,161.03L153.44,161.39L152.76,162.07L152.21,162.95L151.85,163.93L151.73,164.93L151.85,165.82L151.99,166.09"></path>
      </g>
    </g>
    <g id="Actor_1.19">
      <g style="stroke:#000000;stroke-width:0.176">
        <path d="M181.86,60.34L182.20,59.22L182.86,58.33L183.76,57.87L184.75,57.86L184.75,59.04L184.08,59.10L183.49,59.42L184.03,59.66L183.64,60.16L183.42,60.73"></path>
        <path d="M184.00,65.02L184.08,65.13L184.75,65.75L184.75,66.94L183.76,66.09"></path>
        <path d="M183.93,66.25L183.93,66.25"></path>
        <path d="M182.78,60.72L183.05,59.98L183.49,59.42"></path>
        <path d="M184.03,59.66L184.55,59.38L185.06,59.32L184.75,59.04"></path>
        <path d="M183.93,57.32L185.06,57.32L185.29,57.24L185.57,57.18L185.86,57.16L186.14,57.18L186.37,57.25L186.55,57.35L186.64,57.49L186.64,57.63L186.55,57.77L186.37,57.87L187.50,58.83L188.49,60.16L189.20,61.73L189.58,63.33L188.94,63.33L188.61,61.92L187.95,60.49L187.05,59.26L186.06,58.41L186.06,59.14L185.86,59.13L185.57,59.17L185.29,59.24L185.06,59.32"></path>
        <path d="M184.75,66.94L185.06,67.21"></path>
        <path d="M184.75,65.75L185.06,65.21L184.67,64.83"></path>
        <path d="M187.50,67.76L188.49,67.26L189.20,66.30L189.58,65.02L188.94,65.01L188.02,64.62L188.01,64.36L187.80,64.92L187.41,65.42L186.89,65.70L186.37,65.76L186.55,65.67L186.64,65.59L186.64,65.50L186.55,65.41L186.37,65.33L186.15,65.24L185.86,65.17L185.57,65.14L185.29,65.15L185.06,65.21"></path>
        <path d="M184.38,60.32L185.46,59.87L185.65,59.82L185.81,59.85L185.93,59.97L186.00,60.15L186.01,60.22"></path>
        <path d="M185.06,57.32L184.75,57.86"></path>
        <path d="M188.94,65.01L188.61,66.13L187.95,67.02L187.05,67.48L186.06,67.49"></path>
        <path d="M188.02,64.62L187.76,65.37L187.31,65.93L186.73,66.25L186.06,66.31L186.06,67.19"></path>
        <path d="M186.37,65.76L186.06,66.31"></path>
        <path d="M186.06,59.14L186.06,59.59L186.73,60.22L187.31,61.03L187.76,61.97L188.02,62.94L188.94,63.33"></path>
        <path d="M186.34,59.85L186.34,60.36"></path>
        <path d="M186.06,58.41L186.37,57.87"></path>
        <path d="M188.01,64.36L188.41,64.19L187.73,63.68L187.68,63.61"></path>
        <path d="M188.41,64.19L190.05,63.50L190.17,63.42"></path>
        <path d="M189.58,65.02L191.61,64.16L191.82,64.03L192.02,63.84L192.18,63.60L192.29,63.33L192.32,63.06L192.29,62.81L192.18,62.61L192.02,62.48L191.82,62.43L191.61,62.47L189.58,63.33"></path>
        <path d="M198.95,56.09L198.19,54.88L197.01,53.72L195.89,53.12"></path>
      </g>
      <g style="stroke:#000000;stroke-width:0.529">
        <path d="M184.01,60.82L183.89,60.89L182.10,61.65"></path>
        <path d="M195.89,53.12L195.73,53.04L194.48,52.92L193.40,53.36L183.93,57.32L182.95,57.82L182.23,58.78L181.86,60.07L181.86,60.34L182.78,60.72L183.42,60.73L184.38,60.32"></path>
        <path d="M183.06,65.14L183.76,66.09L183.93,66.25L185.06,67.21L185.29,67.15L185.57,67.13L185.86,67.15L186.06,67.19L186.06,67.49L186.37,67.77L187.50,67.76L195.68,64.33"></path>
      </g>
    </g>
    <g id="Actor_1.20">
      <g style="stroke:#000000;stroke-width:0.176">
        <path d="M108.97,151.69L104.95,157.39L100.86,163.06"></path>
        <path d="M114.79,169.90L114.97,169.74L117.93,165.58L118.04,165.34L118.07,165.05L118.03,164.72L117.92,164.39L117.74,164.10L109.39,153.08L109.11,152.60L108.94,151.98L109.00,151.41L109.30,150.95"></path>
        <path d="M112.19,150.78L110.31,151.57L110.13,151.68L109.98,151.91L109.94,152.20L110.03,152.51L110.17,152.74L114.10,157.93"></path>
        <path d="M118.05,164.88L118.84,164.55"></path>
      </g>
      <g style="stroke:#000000;stroke-width:0.529">
        <path d="M114.10,157.93L118.52,163.77L118.70,164.06L118.81,164.39L118.86,164.71L118.82,165.01L118.72,165.25L115.76,169.41L115.58,169.57L114.79,169.90L114.56,169.95L114.31,169.89L101.65,163.97L101.55,163.91L101.08,163.48L100.86,163.06L100.92,162.79L101.22,162.34L109.30,150.95L109.67,150.72L113.32,149.18"></path>
      </g>
    </g>
    <g id="Actor_1.21">
      <g style="stroke:#000000;stroke-width:0.176">
        <path d="M380.32,259.29L379.96,259.42L379.59,259.57L355.91,269.58L354.43,270.23L346.35,252.01"></path>
        <path d="M372.21,241.09L374.69,246.71L377.54,253.07"></path>
        <path d="M372.17,241.09L374.87,247.11"></path>
      </g>
      <g style="stroke:#000000;stroke-width:0.529">
        <path d="M336.63,258.36L336.43,257.92L336.33,257.59L336.29,257.27L336.34,256.98L336.45,256.75L336.63,256.60L344.98,252.64L346.00,252.17L347.37,251.57L371.51,241.36L372.17,241.09L372.24,241.08L377.54,253.07L380.32,259.29L379.31,259.73L379.13,259.80L378.38,260.12L355.27,269.89L354.53,270.21L354.43,270.23L353.44,270.18L352.72,270.08L340.06,265.30L339.80,265.14L339.57,264.90L339.39,264.59L336.63,258.36"></path>
      </g>
    </g>
    <g id="Actor_11.0">
      <g style="stroke:#000000;stroke-width:0.176">
        <path d="M186.32,60.36L185.31,59.93"></path>
        <path d="M191.89,62.85L191.83,62.83L191.83,62.83L191.71,62.84L191.59,62.90L191.47,63.01L191.37,63.16L191.31,63.33L191.29,63.50L191.31,63.61L191.31,63.65L191.38,63.76L191.47,63.83L191.59,63.84L191.72,63.79L191.84,63.69L191.94,63.55L192.01,63.39L192.04,63.22L192.03,63.06L191.98,62.93L191.89,62.85L191.91,62.80L191.85,62.69"></path>
        <path d="M191.33,63.91L191.21,63.83L191.13,63.69L191.10,63.50L191.13,63.29L191.21,63.08L191.32,62.89L191.38,62.84L191.47,62.75L191.63,62.68L191.78,62.67L191.85,62.78L191.72,62.79L191.58,62.85L191.45,62.98L191.34,63.14L191.27,63.33L191.25,63.52L191.28,63.68L191.29,63.70L191.35,63.81L191.45,63.88L191.58,63.89"></path>
        <path d="M191.83,62.83L191.85,62.78"></path>
        <path d="M191.78,62.67L191.46,62.53"></path>
        <path d="M192.01,62.89L191.91,62.80"></path>
      </g>
      <g style="stroke:#000000;stroke-width:0.529">
        <path d="M183.61,60.65L184.62,61.08"></path>
        <path d="M186.33,60.36L185.31,59.93"></path>
        <path d="M191.47,62.53L191.85,62.69L191.96,62.79L192.01,62.89L192.07,63.03L192.08,63.20L192.05,63.39L191.97,63.58L191.86,63.73L191.86,63.73L191.72,63.84L191.58,63.89L191.48,63.93L191.33,63.91L189.76,63.25"></path>
      </g>
    </g>
    <g id="Actor_3.0">
      <g style="stroke:#000000;stroke-width:0.529">
        <path d="M224.24,34.77L224.44,36.74L224.20,38.15"></path>
      </g>
    </g>
    <g id="Actor_5.0">
      <g style="stroke:#000000;stroke-width:0.176">
        <path d="M245.92,61.82L246.11,61.99L246.38,62.13L246.65,62.22L247.16,62.21L247.59,61.96L247.89,61.50L248.01,60.94"></path>
        <path d="M247.63,62.49L248.14,62.20L248.49,61.66L248.65,60.92L248.63,60.68"></path>
        <path d="M248.90,60.57L248.91,60.81L248.75,61.54L248.40,62.08L248.08,62.27"></path>
      </g>
      <g style="stroke:#000000;stroke-width:0.529">
        <path d="M248.08,62.27L247.89,62.38L247.63,62.49L247.02,62.50L246.70,62.40L246.37,62.23L245.91,61.83"></path>
      </g>
    </g>
    <g id="Actor_7.0">
      <g style="stroke:#000000;stroke-width:0.176">
        <path d="M46.83,268.82L47.12,268.58L47.19,268.60"></path>
        <path d="M46.61,267.67L47.22,268.18L47.86,268.44L48.46,268.39L48.57,268.32"></path>
        <path d="M46.66,263.44L46.61,263.45L46.10,263.74L45.77,264.30L45.63,265.04L45.71,265.89L46.01,266.75L46.48,267.51L46.13,268.12"></path>
        <path d="M46.95,268.43L46.94,268.46L46.92,268.51L46.88,268.54L46.83,268.54L46.78,268.52L46.73,268.48L46.69,268.42L46.66,268.36L46.64,268.29L46.64,268.22L46.66,268.17L46.70,268.13L46.74,268.12L46.79,268.13L46.83,268.15"></path>
        <path d="M46.14,267.47L46.14,267.51L46.12,267.53L46.11,267.55L46.07,267.58L46.02,267.58L45.97,267.56L45.92,267.52L45.88,267.47L45.85,267.40L45.83,267.33L45.84,267.27L45.86,267.21L45.89,267.18L45.93,267.16L45.98,267.17L46.02,267.19"></path>
        <path d="M46.48,267.51L46.67,267.43"></path>
        <path d="M46.42,262.86L47.17,262.84L47.96,263.19L48.69,263.86L49.29,264.77L49.68,265.81L49.81,266.87L49.67,267.80L49.27,268.50L48.66,268.89"></path>
      </g>
      <g style="stroke:#000000;stroke-width:0.529">
        <path d="M45.38,265.91L45.25,264.86L45.40,263.93L45.81,263.24L46.42,262.86L46.61,262.78L47.36,262.76L48.14,263.11L48.88,263.78L49.48,264.69L49.87,265.73L50.00,266.79L49.85,267.72L49.45,268.42L48.85,268.81L48.66,268.89L47.91,268.92L47.19,268.60L47.02,268.74L46.83,268.82L46.26,268.28L46.61,267.67L46.80,267.59L47.41,268.10L48.05,268.36L48.57,268.32L48.95,268.06L49.26,267.48L49.37,266.72L49.26,265.86L48.94,265.01L48.46,264.27L47.86,263.73L47.21,263.44L46.66,263.44L46.29,263.66L45.95,264.22L45.82,264.96L45.90,265.82L46.20,266.67L46.67,267.43L46.31,268.04L46.13,268.12L45.65,267.41L45.76,266.96L45.38,265.91"></path>
        <path d="M46.08,267.25L46.12,267.31L46.14,267.38L46.15,267.45L46.14,267.47L46.11,267.44L46.07,267.39L46.04,267.32L46.02,267.25L46.02,267.19L46.03,267.20L46.08,267.25"></path>
        <path d="M46.89,268.20L46.92,268.27L46.95,268.33L46.95,268.40L46.95,268.43L46.92,268.40L46.87,268.34L46.84,268.28L46.83,268.21L46.83,268.15L46.84,268.16L46.89,268.20"></path>
      </g>
    </g>
    <g id="Actor_13.1">
      <g style="stroke:#000000;stroke-width:0.176">
        <path d="M255.75,13.68L256.05,14.06L256.62,14.38L257.41,14.60L257.98,14.67L258.33,14.71L259.27,14.68L260.15,14.52L260.85,14.25L261.31,13.90L261.48,13.51"></path>
        <path d="M261.09,12.75L261.22,13.11L261.07,13.46L260.65,13.78L260.01,14.03L259.21,14.17L258.35,14.20L257.86,14.14L257.52,14.10L256.80,13.90L256.28,13.61L256.01,13.26L256.01,12.90"></path>
      </g>
      <g style="stroke:#000000;stroke-width:0.529">
        <path d="M261.46,15.62L261.48,13.51L261.33,13.11L261.09,12.75L260.68,12.42L260.06,12.17L259.27,12.02L258.41,11.99L257.57,12.07L256.84,12.27L256.30,12.56L256.01,12.90L255.76,13.28L255.75,13.68L255.74,15.80"></path>
      </g>
    </g>
    <g id="Actor_11.1">
      <g style="stroke:#000000;stroke-width:0.176">
        <path d="M250.34,87.44L249.29,87.00"></path>
        <path d="M255.38,90.98L255.28,90.86L255.23,90.70L255.22,90.49L255.27,90.28L255.37,90.08L255.51,89.91L255.66,89.80L255.82,89.76L255.80,89.87L255.85,89.89L255.90,89.76"></path>
        <path d="M255.80,89.87L255.79,89.89L255.67,89.92L255.54,90.01L255.44,90.14L255.36,90.30L255.32,90.47L255.32,90.64L255.36,90.77L255.44,90.86L255.55,90.90L255.68,90.88L255.80,90.80L255.91,90.68L256.00,90.53L256.05,90.36L256.06,90.19L256.03,90.05L255.96,89.94L255.85,89.89"></path>
        <path d="M255.82,89.76L255.45,89.60"></path>
      </g>
      <g style="stroke:#000000;stroke-width:0.529">
        <path d="M248.68,88.15L247.64,87.71L247.64,87.70"></path>
        <path d="M250.37,87.43L249.33,86.99"></path>
        <path d="M255.48,89.59L255.90,89.76L256.02,89.83L256.11,89.96L256.15,90.14L256.14,90.35L256.08,90.56L256.03,90.65L255.97,90.75L255.83,90.91L255.67,91.00L255.52,91.03L255.38,90.98L253.79,90.31"></path>
      </g>
    </g>
    <g id="Actor_7.1">
      <g style="stroke:#000000;stroke-width:0.176">
        <path d="M246.88,63.02L246.88,62.46"></path>
        <path d="M246.65,62.46L246.63,62.51L246.60,62.55L246.55,62.57L246.50,62.56L246.45,62.53L246.41,62.49L246.37,62.43L246.34,62.36L246.34,62.29L246.34,62.23L246.35,62.21"></path>
        <path d="M247.59,62.85L247.57,62.91L247.54,62.95L247.49,62.96L247.44,62.96L247.39,62.93L247.35,62.88L247.31,62.82L247.28,62.76L247.27,62.69L247.28,62.62L247.31,62.58L247.35,62.55L247.39,62.54L247.44,62.56L247.47,62.58"></path>
        <path d="M247.94,62.71L247.76,62.77L247.65,63.23"></path>
        <path d="M247.04,62.50L247.04,62.96"></path>
        <path d="M248.44,62.55L248.94,61.98L249.21,61.14L249.20,60.44"></path>
      </g>
      <g style="stroke:#000000;stroke-width:0.529">
        <path d="M246.01,61.92L246.17,62.10L246.27,62.65L246.88,63.02L247.04,62.96L247.04,63.09L247.65,63.23L247.84,63.15L247.94,62.71L248.44,62.55L248.62,62.47L249.13,61.90L249.40,61.06L249.39,60.36"></path>
        <path d="M246.64,62.37L246.65,62.39L246.65,62.42L246.65,62.45L246.65,62.46L246.64,62.45L246.59,62.41L246.56,62.35L246.55,62.32"></path>
        <path d="M247.57,62.72L247.54,62.65L247.49,62.60L247.47,62.58L247.46,62.61L247.47,62.68L247.50,62.74L247.53,62.81L247.58,62.85L247.59,62.85L247.59,62.85L247.59,62.78L247.57,62.72"></path>
      </g>
    </g>
    <g id="Actor_5.1">
      <g style="stroke:#000000;stroke-width:0.529">
        <path d="M229.66,33.37L233.68,31.66"></path>
      </g>
    </g>
    <g id="Actor_14.1">
      <g style="stroke:#000000;stroke-width:0.176">
        <path d="M245.98,91.60L245.98,91.14L245.98,91.63"></path>
        <path d="M245.98,91.14L245.98,90.98L245.98,91.14"></path>
        <path d="M245.98,90.50L245.98,90.98L245.98,90.45"></path>
        <path d="M248.89,90.16L249.33,90.41L250.84,91.05"></path>
        <path d="M249.20,90.34L249.09,90.20"></path>
        <path d="M250.64,90.97L252.34,90.12L251.69,90.45"></path>
        <path d="M257.27,97.61L256.99,97.34L256.82,96.92L256.79,96.41L256.89,95.86L257.11,95.32L257.44,94.86L257.83,94.52L258.04,94.41L258.24,94.35L258.63,94.35"></path>
      </g>
      <g style="stroke:#000000;stroke-width:0.529">
        <path d="M245.98,91.63L245.98,91.65L246.17,92.14L246.64,92.75L246.96,93.10L247.79,93.59L257.27,97.61L257.63,97.71L258.04,97.62L258.44,97.36L258.81,96.96L259.08,96.45L259.25,95.90L259.28,95.36L259.18,94.89L258.96,94.54L258.63,94.35L250.84,91.05"></path>
        <path d="M245.98,90.47L245.98,91.65L245.98,91.60"></path>
        <path d="M250.75,87.27L247.79,88.52L246.96,89.01L246.64,89.35L246.17,89.97L245.98,90.45"></path>
        <path d="M252.70,90.27L250.84,91.05"></path>
      </g>
    </g>
    <g id="Actor_1.22">
      <g style="stroke:#000000;stroke-width:0.176">
        <path d="M301.18,31.69L300.53,32.53L299.31,33.24L292.58,36.08L245.29,56.07L243.60,56.59L241.63,56.86L239.55,56.86L237.57,56.59L235.89,56.07L181.87,33.24L180.65,32.53L180.00,31.69"></path>
        <path d="M182.96,31.50L183.31,31.88L183.92,32.18L184.74,32.39L185.66,32.47L186.60,32.42L187.46,32.24L187.82,32.12L188.13,31.96L188.54,31.60L188.66,31.20L188.46,30.81L187.98,30.47L187.26,30.21L186.37,30.06L185.43,30.05L184.52,30.16L183.75,30.39L183.20,30.72L182.93,31.10L182.96,31.50"></path>
        <path d="M210.33,42.69L210.60,42.30L211.15,41.98L211.92,41.74L212.83,41.63L213.78,41.65L214.66,41.79L215.38,42.05L215.87,42.39L216.06,42.79L215.95,43.18L215.53,43.54L215.22,43.70L214.86,43.83L214.02,44.00L213.07,44.05L212.14,43.97L211.32,43.76L210.71,43.46L210.37,43.09L210.33,42.69"></path>
        <path d="M211.70,20.43L212.34,20.59L213.09,20.66L213.85,20.62L214.54,20.47L214.83,20.37L215.08,20.24L215.41,19.95L215.51,19.63L215.35,19.32L214.96,19.04L214.38,18.83L213.66,18.71L212.90,18.70L212.16,18.79L211.54,18.98L211.10,19.24L210.88,19.55L210.91,19.88L211.19,20.18L211.70,20.43"></path>
        <path d="M262.60,34.19L263.55,32.79L263.74,30.33L262.47,27.93L259.82,25.73L255.97,23.88L251.14,22.50L245.66,21.66L239.86,21.43L234.10,21.82L228.75,22.80L224.15,24.31L220.57,26.25L218.26,28.51L217.35,30.95L217.90,33.40L218.59,34.21"></path>
        <path d="M219.96,47.29L219.99,47.34L220.10,47.41"></path>
        <path d="M219.77,47.02L219.72,46.96L219.73,46.91"></path>
        <path d="M220.48,47.63L220.63,47.69"></path>
        <path d="M221.42,47.91L221.22,47.87"></path>
        <path d="M222.33,48.01L222.12,48.00"></path>
        <path d="M223.27,47.98L223.06,48.00"></path>
        <path d="M224.14,47.82L223.95,47.87"></path>
        <path d="M224.69,47.62L224.83,47.55"></path>
        <path d="M225.29,47.20L225.26,47.25L225.21,47.29"></path>
        <path d="M225.43,46.91L225.46,46.86L225.44,46.80"></path>
        <path d="M238.12,55.04L238.73,55.35L239.54,55.55L240.47,55.63L241.41,55.58L242.26,55.41L242.63,55.28L242.93,55.12L243.35,54.76L243.47,54.37L243.27,53.97L242.79,53.63L242.06,53.37L241.18,53.23L240.23,53.21L239.32,53.32L238.55,53.56L238.00,53.88L237.73,54.27L237.77,54.67L238.12,55.04"></path>
        <path d="M237.73,7.94L237.77,8.34L238.12,8.72L238.73,9.02L239.54,9.23L240.47,9.31L241.41,9.26L242.26,9.08L242.63,8.95L242.93,8.80L243.35,8.44L243.47,8.04L243.27,7.65L242.79,7.31L242.06,7.05L241.18,6.90L240.23,6.89L239.32,7.00L238.55,7.23L238.00,7.56L237.73,7.94"></path>
        <path d="M255.78,15.90L255.74,15.85L255.74,15.82"></path>
        <path d="M255.99,16.20L256.08,16.28"></path>
        <path d="M257.46,16.81L257.22,16.76"></path>
        <path d="M256.66,16.59L256.48,16.51"></path>
        <path d="M258.11,16.89L258.37,16.91"></path>
        <path d="M259.30,16.87L259.06,16.90"></path>
        <path d="M260.86,16.44L260.70,16.52"></path>
        <path d="M260.17,16.71L259.95,16.77"></path>
        <path d="M261.46,15.70L261.47,15.75L261.46,15.79"></path>
        <path d="M261.22,16.19L261.28,16.15L261.30,16.09"></path>
        <path d="M265.68,42.71L265.90,42.40L266.35,42.14L266.97,41.95L267.70,41.86L268.47,41.87L269.18,41.99L269.77,42.20L270.16,42.48L270.32,42.80L270.22,43.12L269.88,43.41L269.64,43.53L269.34,43.64L268.66,43.78L267.90,43.82L267.15,43.75L266.49,43.59L265.99,43.34L265.72,43.04L265.68,42.71"></path>
        <path d="M265.78,20.43L265.52,20.30L265.17,19.92L265.14,19.52L265.41,19.14L265.96,18.81L266.73,18.58L267.64,18.47L268.58,18.48L269.47,18.63L270.19,18.89L270.56,19.15L270.68,19.23L270.87,19.62L270.75,20.02L270.33,20.38L270.03,20.53L269.67,20.66L268.81,20.84L267.87,20.89L266.95,20.81L266.13,20.60L265.78,20.43"></path>
        <path d="M292.58,31.51L292.54,31.10L292.81,30.72L293.36,30.39L294.13,30.16L295.04,30.05L295.99,30.06L296.87,30.21L297.59,30.47L298.08,30.81L298.27,31.20L298.15,31.60L297.74,31.96L297.43,32.12L297.07,32.24L296.22,32.42L295.28,32.47L294.35,32.39L293.54,32.18L292.92,31.88L292.58,31.51"></path>
      </g>
      <g style="stroke:#000000;stroke-width:0.529">
        <path d="M180.00,37.51L180.00,36.14L180.00,37.72L180.65,38.55L181.87,39.26L235.89,62.09L237.57,62.61L239.55,62.88L241.63,62.88L243.60,62.61L245.29,62.09L250.17,60.03"></path>
        <path d="M180.00,37.72L180.00,31.43L180.00,33.00L180.00,31.49"></path>
        <path d="M180.00,31.43L180.00,30.82L180.65,29.98L181.87,29.27L235.89,6.44L237.57,5.92L239.55,5.65L241.63,5.65L243.60,5.92L245.29,6.44L258.42,11.99"></path>
        <path d="M230.41,28.51L234.10,27.84L239.86,27.45L245.66,27.69L251.14,28.52L255.97,29.90L259.82,31.75L262.47,33.95L262.60,34.19L261.93,35.16L258.96,37.28L257.03,38.20L254.84,39.02L249.82,40.27L244.23,40.96L238.40,41.04L232.71,40.50L227.52,39.38L223.15,37.75L219.87,35.72L218.59,34.21L220.57,32.27L220.80,32.15"></path>
        <path d="M224.17,30.32L226.96,29.40"></path>
        <path d="M295.75,40.76L299.31,39.26L300.53,38.55L301.18,37.72L301.18,30.82L300.53,29.98L299.31,29.27L261.38,13.24"></path>
        <path d="M301.18,37.72L301.18,36.14"></path>
        <path d="M301.18,31.43L301.18,33.00"></path>
      </g>
    </g>
    <g id="Actor_2.1">
      <g style="stroke:#000000;stroke-width:0.176">
        <path d="M32.05,267.69L104.00,166.39"></path>
        <path d="M47.80,261.36L47.44,261.07L46.08,260.58L44.81,260.70L43.78,261.41L43.09,262.63L42.82,264.23L43.00,266.04L43.61,267.87L44.59,269.51L45.82,270.78L47.19,271.56L48.51,271.74L49.68,271.33L49.75,271.25"></path>
        <path d="M43.74,263.08L43.87,262.30L44.56,261.08L45.16,260.67"></path>
        <path d="M57.04,279.37L129.25,177.73"></path>
        <path d="M68.85,273.65L70.05,272.45L69.46,274.63"></path>
      </g>
      <g style="stroke:#000000;stroke-width:0.529">
        <path d="M146.29,174.66L146.47,174.43L77.88,270.98L77.71,271.12L77.49,271.23L69.46,274.63L68.73,274.10L68.85,273.65L66.73,275.78L58.70,279.17L58.13,279.33L57.42,279.40L56.67,279.35L55.92,279.20L55.27,278.96L32.88,268.50L32.38,268.20L32.08,267.86L32.01,267.52L32.18,267.21L103.86,166.31"></path>
        <path d="M43.77,265.57L43.78,265.71L44.40,267.54L45.37,269.18L46.60,270.45L47.96,271.22L49.29,271.41L49.75,271.25L50.55,270.35L51.04,268.92L51.08,267.19L50.68,265.35L49.87,263.59L48.76,262.12L47.80,261.36L43.74,263.08L43.60,263.90L43.77,265.57"></path>
        <path d="M147.59,172.86L148.70,171.29L146.47,174.43"></path>
        <path d="M149.02,170.84L148.70,171.29L149.00,170.84"></path>
      </g>
    </g>
    <g id="Actor_2.2">
      <g style="stroke:#000000;stroke-width:0.176">
        <path d="M356.33,273.21L355.69,271.78"></path>
        <path d="M377.30,264.34L376.97,263.60"></path>
      </g>
      <g style="stroke:#000000;stroke-width:0.529">
        <path d="M377.00,263.59L377.27,264.19L377.34,264.49L377.17,264.78L376.99,264.90L376.77,265.02L357.98,272.96L357.71,273.05L357.41,273.13L356.71,273.21L355.95,273.20L355.20,273.10L354.55,272.91L332.16,264.45L331.66,264.20L331.36,263.91L331.10,263.33"></path>
      </g>
    </g>
    <g id="Actor_2.3">
      <g style="stroke:#000000;stroke-width:0.176">
        <path d="M319.33,271.31L320.90,271.90L318.17,270.87L316.13,269.79L315.06,268.50"></path>
        <path d="M324.04,273.09L325.62,273.68L320.90,271.90"></path>
        <path d="M355.64,275.93L324.34,264.10"></path>
        <path d="M324.34,262.87L327.83,261.40"></path>
        <path d="M328.76,274.87L330.34,275.47L325.62,273.68"></path>
        <path d="M331.91,276.06L333.48,276.66L330.34,275.47"></path>
        <path d="M333.48,276.66L338.20,278.44L336.63,277.85"></path>
        <path d="M338.20,278.44L342.92,280.22L341.35,279.63"></path>
        <path d="M342.92,280.22L346.07,281.41L344.49,280.82"></path>
        <path d="M346.07,281.41L349.46,282.70L350.79,283.05L349.46,282.70"></path>
        <path d="M363.37,282.89L364.94,282.40L362.32,283.22L359.02,283.72L355.56,283.80L352.27,283.45L350.79,283.05"></path>
        <path d="M358.73,275.86L383.78,265.27"></path>
        <path d="M364.94,282.40L365.12,282.34L390.17,271.75L392.21,270.59L393.28,269.25"></path>
        <path d="M378.67,262.11L383.78,264.04"></path>
      </g>
      <g style="stroke:#000000;stroke-width:0.529">
        <path d="M378.26,260.98L390.18,265.49L392.21,266.56L393.28,267.86L393.28,269.25L392.50,270.64L391.51,271.88L389.63,272.96L364.57,283.55L361.98,284.36L358.93,284.83L355.73,284.90L352.68,284.57L350.09,283.88L318.79,272.05L316.91,271.06L315.92,269.86L315.06,268.50L315.06,267.11L316.13,265.77L318.17,264.60L327.50,260.66"></path>
      </g>
    </g>
    <g id="Actor_1.23">
      <g style="stroke:#000000;stroke-width:0.176">
        <path d="M169.44,158.04L169.44,152.02L168.92,151.58L150.57,131.26L150.50,131.13"></path>
        <path d="M169.44,152.02L170.18,152.41L181.87,157.35L183.27,157.78L184.92,158.00L186.65,158.00L187.19,157.93L188.30,157.78L189.70,157.35L196.45,154.49L197.40,153.95L197.95,153.33L197.95,159.35"></path>
        <path d="M171.22,150.98L171.56,151.35L172.18,151.66L172.99,151.86L173.92,151.94L174.61,151.91L174.86,151.89L175.71,151.72L176.38,151.44L176.80,151.08L176.91,150.68L176.72,150.29L176.24,149.94L176.18,149.92L175.51,149.68L174.63,149.54L173.68,149.52L172.77,149.64L172.00,149.87L171.46,150.19L171.18,150.58L171.22,150.98"></path>
        <path d="M182.93,155.57L182.96,155.94L183.31,156.31L183.92,156.62L184.74,156.83L185.66,156.91L186.60,156.86L187.45,156.68L187.77,156.55L188.13,156.40L188.54,156.04L188.66,155.64L188.46,155.25L187.98,154.91L187.26,154.65L186.37,154.50L185.43,154.48L184.52,154.60L183.75,154.83L183.20,155.16L182.93,155.54L182.93,155.57"></path>
        <path d="M185.78,164.02L185.78,158.00"></path>
        <path d="M198.06,155.26L198.06,152.66L197.95,153.33"></path>
        <path d="M197.00,151.03L197.00,150.16L196.89,150.83L197.24,151.48L197.71,152.00L198.06,152.66"></path>
        <path d="M197.00,150.16L197.55,149.53L198.50,148.99L224.74,137.90L226.01,137.50L227.50,137.27L227.50,143.29"></path>
        <path d="M227.50,137.27L229.08,137.22L230.63,137.37L231.86,137.57L233.41,137.72L234.99,137.67L234.99,143.69"></path>
        <path d="M229.79,128.71L230.52,128.56L231.19,128.27L231.60,127.91L231.72,127.52L231.53,127.12L231.04,126.78L230.32,126.52L229.44,126.38L228.75,126.36"></path>
        <path d="M234.99,137.67L236.48,137.44L237.75,137.04L244.50,134.18L245.52,133.59L246.06,132.90L246.06,138.55"></path>
        <path d="M238.73,133.46L238.12,133.15L237.77,132.78L237.73,132.38L238.00,132.00L238.55,131.67L239.32,131.44L240.23,131.32L241.18,131.34L242.06,131.48L242.79,131.74L243.27,132.09L243.47,132.48L243.35,132.88L242.93,133.24L242.26,133.52L241.41,133.70L240.47,133.74L239.54,133.66L238.73,133.46"></path>
        <path d="M246.06,138.92L246.06,136.71L246.06,138.02"></path>
        <path d="M246.06,135.14L246.06,136.71"></path>
        <path d="M246.06,133.16L246.06,133.57L246.06,132.54"></path>
        <path d="M246.06,132.90L246.06,132.19"></path>
      </g>
      <g style="stroke:#000000;stroke-width:0.529">
        <path d="M152.80,129.94L152.66,129.98L150.82,130.76L150.63,130.87L150.52,130.99L150.50,131.13L150.50,135.92"></path>
        <path d="M155.70,142.96L154.46,141.59"></path>
        <path d="M246.06,138.92L245.52,139.61L244.50,140.20L237.75,143.06L236.48,143.46L234.99,143.69L233.41,143.74L231.86,143.59L230.63,143.39L229.08,143.25L227.50,143.29L226.01,143.52L224.74,143.92L217.08,147.16L198.50,155.02L198.06,155.26L198.06,158.68L197.95,159.35L197.40,159.98L196.45,160.51L189.70,163.37L188.30,163.80L186.65,164.02L184.92,164.02L183.27,163.80L181.87,163.37L170.18,158.43L169.44,158.04L168.92,157.61L160.26,148.01"></path>
        <path d="M161.09,132.88L161.03,132.86"></path>
        <path d="M228.13,124.96L230.87,125.40L231.91,125.62L232.81,125.93L244.50,130.87L245.52,131.47L246.06,132.16L246.06,132.19"></path>
        <path d="M246.06,138.88L246.06,138.02"></path>
        <path d="M246.06,132.16L246.06,138.18"></path>
      </g>
    </g>
    <g id="Actor_1.24">
      <g style="stroke:#000000;stroke-width:0.176">
        <path d="M227.29,27.52L227.51,27.47L227.75,27.52L228.06,27.65L228.30,27.80L228.52,28.04L228.69,28.33L228.81,28.66L228.84,28.99L228.84,32.51L228.81,32.78L228.72,33.00L225.62,38.06L225.18,38.51"></path>
        <path d="M226.96,28.27L226.96,29.40L226.96,29.46L226.93,29.50L226.90,29.53L226.86,29.54L226.81,29.53L226.70,29.49"></path>
        <path d="M228.81,32.78L230.38,32.12"></path>
        <path d="M228.61,28.19L230.17,27.53"></path>
      </g>
      <g style="stroke:#000000;stroke-width:0.529">
        <path d="M226.96,28.27L226.96,28.19L227.00,27.90L227.11,27.67L227.29,27.52L228.85,26.86L229.07,26.81L229.31,26.86L229.63,26.99L229.87,27.14L230.09,27.38L230.26,27.67L230.37,28.00L230.41,28.33L230.41,31.85L230.38,32.12L230.29,32.33L227.18,37.40L226.22,38.41L225.60,38.67"></path>
      </g>
    </g>
    <g id="Actor_1.25">
      <g style="stroke:#000000;stroke-width:0.176">
        <path d="M235.12,179.22L235.66,179.92L236.67,180.51L248.37,185.45L249.27,185.76L249.27,191.78"></path>
        <path d="M235.12,178.49L235.12,178.53"></path>
        <path d="M238.39,179.64L237.91,179.30L237.71,178.90L237.83,178.51L238.25,178.15L238.92,177.86L239.77,177.69L240.71,177.64L241.64,177.72L242.45,177.93L243.06,178.23L243.41,178.60L243.45,179.00L243.18,179.39L242.63,179.71L241.85,179.95L240.95,180.06L240.00,180.04L239.12,179.90L238.39,179.64"></path>
        <path d="M249.27,185.76L250.31,185.98L298.41,193.74L298.72,193.76L299.03,193.76L299.03,199.78"></path>
        <path d="M249.46,183.86L249.46,183.87L249.65,184.26L250.14,184.60L250.86,184.86L251.74,185.01L252.69,185.02L253.60,184.91L254.37,184.68L254.92,184.35L255.19,183.97L255.15,183.57L254.81,183.19L254.19,182.89L253.38,182.68L252.45,182.60L251.51,182.65L250.66,182.83L249.99,183.11L249.57,183.47L249.46,183.86"></path>
        <path d="M299.03,193.76L299.33,193.71L299.58,193.63L301.43,192.85L301.63,192.73L301.74,192.59"></path>
      </g>
      <g style="stroke:#000000;stroke-width:0.529">
        <path d="M235.12,185.04L235.12,185.24L235.66,185.94L236.67,186.53L248.37,191.47L249.27,191.78L250.31,192.00L267.32,194.74"></path>
        <path d="M235.12,185.22L235.12,185.24L235.12,178.53"></path>
        <path d="M251.91,174.14L250.55,174.01L249.32,173.81L247.77,173.67L246.19,173.71L244.70,173.94L243.43,174.35L236.67,177.20L235.66,177.79L235.12,178.49"></path>
        <path d="M279.22,196.66L274.26,195.86"></path>
        <path d="M301.50,192.23L301.63,192.31L301.73,192.45L301.73,198.61L301.63,198.75L301.43,198.87L299.58,199.65L299.33,199.73L299.03,199.78L298.72,199.79L298.41,199.76L289.45,198.31"></path>
      </g>
    </g>
    <g id="Actor_1.26">
      <g style="stroke:#000000;stroke-width:0.176">
        <path d="M211.42,73.00L213.77,73.99"></path>
        <path d="M218.13,82.77L215.99,81.35L215.51,80.59L214.47,78.96L213.72,75.81L213.81,72.17L214.72,68.38L216.38,64.77L218.63,61.67L219.48,60.52L220.14,59.18L217.80,58.19"></path>
        <path d="M216.39,73.77L216.39,73.88L216.66,74.54L217.11,74.98L217.70,75.14L218.35,75.00L219.01,74.58L219.59,73.93L220.04,73.11L220.31,72.22L220.37,71.35L220.20,70.59L219.84,70.03L219.31,69.73L218.69,69.72L218.35,69.82L218.02,70.00L217.95,70.06"></path>
        <path d="M220.14,59.18L220.56,57.77L220.70,56.37L220.70,55.67"></path>
      </g>
      <g style="stroke:#000000;stroke-width:0.529">
        <path d="M218.35,54.68L218.35,55.38L218.21,56.77L217.80,58.19L217.14,59.53L216.28,60.68L214.03,63.78L212.37,67.39L211.46,71.18L211.37,74.81L212.12,77.97L213.64,80.36L215.78,81.77L218.13,82.77L228.86,86.68"></path>
        <path d="M216.66,73.59L216.39,73.77L216.34,73.05L216.50,72.15L216.87,71.29L217.39,70.54L217.95,70.06L218.02,70.36L217.96,71.23L217.70,72.12L217.25,72.94L216.66,73.59"></path>
        <path d="M235.58,61.96L235.58,83.07"></path>
      </g>
    </g>
    <g id="Actor_2.4">
      <g style="stroke:#000000;stroke-width:0.176">
        <path d="M55.06,290.53L56.57,290.78L53.27,290.23L50.47,289.26L19.17,274.63L17.14,273.34L16.07,271.85"></path>
        <path d="M56.87,282.59L25.57,267.96"></path>
        <path d="M25.57,266.59L35.65,262.33"></path>
        <path d="M56.57,290.78L60.03,290.86L61.35,290.70L60.03,290.86"></path>
        <path d="M61.35,290.70L63.32,290.45L66.13,289.61L91.18,279.02L93.22,277.82L94.29,276.38"></path>
        <path d="M59.95,282.66L85.01,272.07"></path>
        <path d="M85.01,270.70L79.81,268.27"></path>
      </g>
      <g style="stroke:#000000;stroke-width:0.529">
        <path d="M80.63,267.12L91.19,272.05L93.22,273.34L94.29,274.83L94.29,276.38L93.43,277.70L92.44,279.03L90.55,280.15L65.50,290.73L62.91,291.51L59.86,291.89L56.66,291.82L53.61,291.31L51.02,290.41L19.72,275.78L17.84,274.59L16.85,273.21L16.07,271.86L16.07,270.31L17.14,268.87L19.18,267.66L37.30,260.00"></path>
      </g>
    </g>
    <g></g>
    <g id="paperID" visibility="hidden" opacity="0.00" transform="scale(0.000100)">
      <path style="stroke:#000000;stroke-width:0.500;fill:#e6e6e6;fill-rule:evenodd" d="M-2000.00,-2000.00L2420.00,-2000.00L2420.00,2297.00L-2000.00,2297.00zM0.00,0.00L420.00,0.00L420.00,297.00L0.00,297.00z"></path>
      <path style="fill:#000000;fill-opacity:0.118" d="M3.00,297.00L420.00,297.00L420.00,3.00L423.00,3.00L423.00,300.00L3.00,300.00z"></path>
    </g>
    <g id="hotspot.0" opacity="0">
      <path style="fill:#00ff00;fill-rule:evenodd" d="M244.67,6.20L258.14,11.98L256.71,12.26L255.89,13.04L255.88,16.13L256.20,16.45L257.48,16.78L259.96,16.79L261.23,16.13L261.55,13.53L262.28,13.52L299.45,29.27L301.08,30.52L301.07,37.71L300.75,38.36L296.22,40.62L296.90,42.07L297.19,48.83L298.83,51.99L298.83,54.70L297.19,56.90L296.89,58.52L296.88,77.66L369.86,241.80L370.80,241.71L371.44,241.32L372.20,241.31L372.53,241.66L380.25,259.01L380.20,259.39L378.15,260.28L378.23,260.89L378.62,261.54L378.48,262.82L372.72,265.39L358.00,271.50L352.94,271.50L328.31,262.16L319.31,242.33L300.40,199.69L299.46,199.81L293.05,212.31L289.84,218.07L288.29,219.40L277.89,223.78L277.04,223.77L275.11,223.09L273.52,222.12L272.56,221.16L272.20,220.23L271.90,217.62L271.50,217.59L267.65,219.27L266.12,219.27L263.28,217.95L261.98,216.68L261.63,215.75L261.64,206.85L262.61,203.98L267.14,195.31L267.11,194.92L266.48,194.56L249.13,191.72L236.68,186.55L235.38,185.61L235.38,178.03L238.58,176.43L244.25,174.08L245.53,173.76L252.25,173.76L257.82,165.87L257.81,137.87L237.95,93.01L236.66,92.06L228.87,88.64L228.65,86.62L224.34,85.01L223.50,86.05L223.51,114.50L228.01,124.74L232.17,125.70L245.61,131.48L245.97,132.08L245.97,138.96L245.22,139.81L237.61,143.09L234.95,143.64L232.81,143.64L230.25,143.32L226.94,143.32L225.66,143.64L198.11,155.18L197.91,159.47L197.45,159.96L192.12,162.32L187.87,163.84L183.78,163.84L179.95,162.54L170.00,158.35L169.30,158.37L165.53,165.21L163.84,166.72L154.23,170.89L151.42,170.89L150.81,170.53L149.72,170.53L132.77,177.62L128.68,177.61L125.81,176.64L103.40,166.04L102.75,165.42L102.11,164.13L101.13,163.50L101.14,162.34L109.68,150.69L113.50,149.07L174.71,62.87L179.93,64.85L184.67,64.85L187.23,63.84L189.16,63.91L189.67,63.43L190.54,63.52L191.17,63.90L191.87,63.71L192.14,63.19L191.52,62.58L189.67,63.43L188.57,63.26L187.93,62.61L187.06,60.60L185.38,60.01L184.08,60.48L184.38,60.99L184.08,61.32L180.57,61.32L177.33,60.04L176.95,59.68L184.45,48.93L184.43,40.80L183.49,40.46L183.13,39.86L180.27,38.23L180.27,30.33L181.77,29.27L236.56,6.20L237.84,5.88L243.39,5.88zM233.78,29.89L233.79,31.65L233.48,32.22L232.39,32.11L231.12,32.81L230.14,32.91L230.47,28.63L233.16,28.01zM254.94,31.20L254.30,31.22L252.23,30.22L253.98,30.21zM251.09,33.73L251.11,35.17L248.19,36.74L238.81,40.81L236.34,40.80L232.82,40.48L231.41,40.18L247.12,33.42L250.15,32.46zM261.36,33.75L260.36,33.77L259.29,33.09L260.71,33.09zM257.22,35.94L257.85,37.72L257.52,38.04L251.39,39.93L245.21,40.80L242.95,40.81L253.54,36.31L256.82,35.35zM224.45,36.61L224.15,38.04L223.53,37.96L222.76,37.25L224.18,35.02zM224.82,43.67L225.46,44.63L225.34,47.21L224.08,47.87L221.26,47.86L219.89,47.31L219.97,44.07L220.83,43.34L222.59,43.07zM249.79,61.95L250.79,62.58L251.11,63.04L249.71,63.88L247.53,63.89L245.54,61.94L249.51,60.34zM192.14,63.19L191.87,63.71L191.17,63.90L190.54,63.52L189.67,63.43L191.52,62.58zM252.35,90.14L254.06,90.36L253.32,90.90L252.35,91.12L251.73,90.77L251.27,91.04L251.67,91.43L259.08,94.62L259.10,96.35L258.33,97.52L257.15,97.53L247.26,93.32L246.28,92.37L246.25,89.90L247.12,88.85L248.20,88.29L248.13,87.56L250.33,86.94L250.50,86.93zM256.22,90.08L255.87,90.89L254.91,90.80L254.06,90.36L254.80,89.78L255.93,89.79zM268.19,209.48L268.39,211.03L267.11,213.60L266.15,214.26L265.74,213.14L266.35,210.92L267.31,209.63L268.07,209.34zM276.37,216.45L276.90,215.38L278.65,214.44L278.54,216.39L277.22,218.30L276.39,218.33z"></path>
    </g>
    <g id="hotspot.1" opacity="0">
      <path style="fill:#00ff00;fill-rule:evenodd" d="M186.03,60.34L185.41,60.77L184.39,61.02L183.98,60.63L184.97,59.99zM192.14,63.19L191.87,63.71L191.17,63.90L190.10,63.22L191.52,62.58zM248.09,87.57L248.69,87.24L250.13,87.24L249.38,87.93L248.15,87.89zM256.22,90.08L255.87,90.89L254.91,90.81L254.18,90.14L254.79,89.79L255.93,89.79z"></path>
    </g>
    <g id="hotspot.2" opacity="0">
      <path style="fill:#00ff00;fill-rule:evenodd" d="M189.55,63.55L189.20,63.89L187.92,63.86L187.87,63.54L188.62,63.24zM253.31,90.90L252.31,91.14L251.91,90.72L252.20,90.43L252.69,90.42z"></path>
    </g>
    <g id="hotspot.3" opacity="0">
      <path style="fill:#00ff00;fill-rule:evenodd" d="M260.99,12.62L261.35,13.22L261.23,16.13L259.96,16.79L257.48,16.78L256.20,16.45L255.88,16.13L255.89,13.04L256.72,12.26L259.06,11.94zM224.82,43.67L225.46,44.63L225.34,47.21L224.08,47.87L221.26,47.86L219.89,47.31L219.97,44.07L220.83,43.34L222.59,43.07z"></path>
    </g>
    <g id="hotspot.4" opacity="0">
      <path style="fill:#00ff00;fill-rule:evenodd" d="M180.57,61.32L184.03,61.32L186.69,60.30L187.05,60.60L188.26,63.34L184.67,64.85L179.93,64.85L170.00,60.68L169.32,60.04L169.34,59.16L170.19,57.73L170.55,57.42L171.29,57.43zM252.38,90.28L251.26,91.06L251.68,91.42L259.08,94.62L259.10,96.35L258.33,97.52L257.15,97.53L247.26,93.32L246.28,92.37L246.25,89.90L247.12,88.85L250.76,87.28z"></path>
    </g>
    <g id="hotspot.5" opacity="0">
      <path style="fill:#00ff00;fill-rule:evenodd" d="M125.81,176.64L128.68,177.61L132.77,177.62L148.16,171.14L148.57,171.19L148.61,171.59L80.90,266.77L80.94,267.29L87.36,270.20L92.80,273.08L94.10,274.66L94.10,276.72L92.68,278.83L91.10,279.80L70.91,288.45L63.56,291.36L61.30,291.66L55.96,291.66L52.74,291.04L48.91,289.42L19.47,275.61L17.85,274.66L16.22,272.13L16.24,269.99L18.05,268.28L37.25,259.92L54.35,236.01L103.87,166.39zM48.64,263.42L49.88,265.70L49.90,267.76L49.16,268.62L47.31,268.55L46.03,267.96L45.25,264.43L46.31,262.90L47.64,262.80zM390.12,265.39L392.34,266.69L393.36,267.94L393.35,269.03L392.37,270.95L390.44,272.54L368.66,281.84L362.88,284.06L360.22,284.61L353.28,284.61L349.43,283.66L318.36,271.79L316.78,270.81L315.13,268.62L315.13,267.07L316.33,265.71L319.96,263.89L326.91,260.86L327.63,260.89L328.31,262.17L352.94,271.50L358.00,271.50L372.72,265.39L378.49,262.83L378.51,261.17zM48.32,264.06L49.25,265.69L49.26,267.44L48.50,268.32L47.29,267.97L46.37,266.97L46.01,266.05L46.01,264.19L46.55,263.42L47.31,263.43z"></path>
    </g>
    <g id="hotspot.6" opacity="0">
      <path style="fill:#00ff00;fill-rule:evenodd" d="M224.45,36.61L224.15,38.04L223.53,37.96L222.76,37.25L224.18,35.02z"></path>
    </g>
    <g id="hotspot.7" opacity="0">
      <path style="fill:#00ff00;fill-rule:evenodd" d="M49.59,263.11L50.85,265.69L50.82,267.42L50.20,267.78L49.55,264.76L48.23,263.14L47.85,262.83L48.92,262.47zM49.25,265.37L49.25,267.76L48.59,268.39L47.63,268.62L46.05,267.61L45.68,267.02L45.35,264.85L46.02,263.57L47.65,263.45z"></path>
    </g>
    <g id="hotspot.8" opacity="0">
      <path style="fill:#00ff00;fill-rule:evenodd" d="M233.78,29.89L233.77,31.61L231.12,32.81L230.14,32.91L230.47,28.63L233.16,28.01zM246.14,61.91L248.75,60.65L248.88,61.40L248.12,62.30L246.53,62.29z"></path>
    </g>
    <g id="hotspot.9" opacity="0">
      <path style="fill:#00ff00;fill-rule:evenodd" d="M249.81,61.91L250.79,62.58L251.11,63.04L249.71,63.88L247.53,63.89L246.80,63.22L248.24,62.74L249.47,61.31zM246.33,62.28L246.32,62.68L245.60,62.22L245.54,61.89L245.94,61.89z"></path>
    </g>
    <g id="hotspot.10" opacity="0">
      <path style="fill:#00ff00;fill-rule:evenodd" d="M249.20,61.77L248.60,62.13L249.17,60.65zM247.24,62.62L247.73,62.57L248.60,62.13L247.89,63.03L246.56,62.89L246.58,62.25zM48.64,263.42L49.88,265.70L49.90,267.76L49.16,268.62L47.31,268.55L46.03,267.96L45.25,264.43L46.31,262.90L47.64,262.80zM48.32,264.06L49.25,265.69L49.26,267.44L48.50,268.32L47.29,267.97L46.37,266.97L46.01,266.05L46.01,264.19L46.55,263.42L47.31,263.43z"></path>
    </g>
    <g id="hotspot.11" opacity="0">
      <path style="fill:#00ff00;fill-rule:evenodd" d="M251.09,33.73L251.11,35.17L248.19,36.74L238.81,40.81L236.34,40.80L232.82,40.48L231.41,40.18L247.12,33.42L250.15,32.46zM257.22,35.94L257.85,37.72L257.52,38.04L251.39,39.93L245.21,40.80L242.95,40.81L253.54,36.31L256.82,35.35z"></path>
    </g>
    <g id="hotspot.12" opacity="0">
      <path style="fill:#00ff00;fill-rule:evenodd" d="M254.94,31.20L254.30,31.22L252.23,30.22L253.98,30.21zM261.36,33.75L260.36,33.77L259.29,33.09L260.71,33.09z"></path>
    </g>
    <g id="ToolTip" visibility="hidden" opacity="0" transform="translate(0,0)">
      <rect id="ToolTipShadow" opacity="0.20" fill="black" stroke="none" x="0" y="0" width="30" height="8"></rect>
      <rect id="ToolTipBG" fill="#ffffe1" stroke="black" x="0" y="0" width="30" height="8"></rect>
      <text xml:space="preserve" id="ToolTipText" fill="black" x="0" y="0" width="30" height="8">tooltip</text>
    </g>
  </g>
</svg>
